<svg xmlns="http://www.w3.org/2000/svg" xmlns:xlink="http://www.w3.org/1999/xlink" width="17.483" height="229.292" viewBox="0 0 17.483 229.292">
  <defs>
    <clipPath id="clip-path">
      <rect width="17.483" height="229.292" fill="none"/>
    </clipPath>
  </defs>
  <g id="リピートグリッド_1" data-name="リピートグリッド 1" clip-path="url(#clip-path)">
    <g transform="translate(594.841 -4170.708)">
      <path id="パス_374" data-name="パス 374" d="M-594.308,4187.877l-.264,1.6,16.964-16.691v-1.482Z" fill="#fff"/>
    </g>
    <g transform="translate(594.841 -4152.708)">
      <path id="パス_374-2" data-name="パス 374" d="M-594.308,4187.877l-.264,1.6,16.964-16.691v-1.482Z" fill="#fff"/>
    </g>
    <g transform="translate(594.841 -4134.708)">
      <path id="パス_374-3" data-name="パス 374" d="M-594.308,4187.877l-.264,1.6,16.964-16.691v-1.482Z" fill="#fff"/>
    </g>
    <g transform="translate(594.841 -4116.708)">
      <path id="パス_374-4" data-name="パス 374" d="M-594.308,4187.877l-.264,1.6,16.964-16.691v-1.482Z" fill="#fff"/>
    </g>
    <g transform="translate(594.841 -4098.708)">
      <path id="パス_374-5" data-name="パス 374" d="M-594.308,4187.877l-.264,1.6,16.964-16.691v-1.482Z" fill="#fff"/>
    </g>
    <g transform="translate(594.841 -4080.708)">
      <path id="パス_374-6" data-name="パス 374" d="M-594.308,4187.877l-.264,1.6,16.964-16.691v-1.482Z" fill="#fff"/>
    </g>
    <g transform="translate(594.841 -4062.708)">
      <path id="パス_374-7" data-name="パス 374" d="M-594.308,4187.877l-.264,1.6,16.964-16.691v-1.482Z" fill="#fff"/>
    </g>
    <g transform="translate(594.841 -4044.708)">
      <path id="パス_374-8" data-name="パス 374" d="M-594.308,4187.877l-.264,1.6,16.964-16.691v-1.482Z" fill="#fff"/>
    </g>
    <g transform="translate(594.841 -4026.708)">
      <path id="パス_374-9" data-name="パス 374" d="M-594.308,4187.877l-.264,1.6,16.964-16.691v-1.482Z" fill="#fff"/>
    </g>
    <g transform="translate(594.841 -4008.708)">
      <path id="パス_374-10" data-name="パス 374" d="M-594.308,4187.877l-.264,1.6,16.964-16.691v-1.482Z" fill="#fff"/>
    </g>
    <g transform="translate(594.841 -3990.708)">
      <path id="パス_374-11" data-name="パス 374" d="M-594.308,4187.877l-.264,1.6,16.964-16.691v-1.482Z" fill="#fff"/>
    </g>
    <g transform="translate(594.841 -3972.708)">
      <path id="パス_374-12" data-name="パス 374" d="M-594.308,4187.877l-.264,1.6,16.964-16.691v-1.482Z" fill="#fff"/>
    </g>
    <g transform="translate(594.841 -3954.708)">
      <path id="パス_374-13" data-name="パス 374" d="M-594.308,4187.877l-.264,1.6,16.964-16.691v-1.482Z" fill="#fff"/>
    </g>
  </g>
</svg>
