<svg xmlns="http://www.w3.org/2000/svg" width="39.481" height="17.298" viewBox="0 0 39.481 17.298">
  <path id="パス_315" data-name="パス 315" d="M11.237-11.3a.526.526,0,0,0-.171.081,1.958,1.958,0,0,0-.618.6,17.042,17.042,0,0,0-1.5,3.106,14.5,14.5,0,0,1-.61,1.463,10.192,10.192,0,0,1-.634,1.821,3.337,3.337,0,0,0-.236.781h.016l.041-.033c0-.081.024-.122.065-.122H7.6c-.041.146-.065.22-.081.22H7.432c-.016,0-.041.033-.081.114a20.946,20.946,0,0,0-2.317.683,14.834,14.834,0,0,0-1.854.846H3.171a36.929,36.929,0,0,1,1.561-4.1c.6-1.48,1.057-2.5,1.35-3.041.293-.439.439-.675.439-.691v-.016c-.008-.13-.024-.2-.041-.2s-.049.033-.057.1l-.041-.024A.337.337,0,0,1,6.391-9.8L6.383-9.82q-.1,0-.366-.024a.414.414,0,0,0-.252.13A1.978,1.978,0,0,0,5.2-9.2q-.7,1.3-1.545,3.39-1.244,3.244-1.764,4.5c0,.1-.13.236-.382.415C1.033-.649.675-.454.431-.3a4.252,4.252,0,0,0-.7.569V.278A.542.542,0,0,1-.1.2L-.04.221V.254L-.065.278A.789.789,0,0,1-.536.546C-.553.546-.6.538-.7.53-.764.538-.8.546-.8.546A.359.359,0,0,0-1.032.9c0,.187.154.333.472.447a.932.932,0,0,0,.268-.106c1.049-.667,1.585-1,1.618-1a.121.121,0,0,1-.008.057l.016.122L1.326.465A1.418,1.418,0,0,0,1.2.88a.424.424,0,0,0,.049.2A.215.215,0,0,0,1.374,1,3.56,3.56,0,0,1,1.48.652L1.472.628C1.472.611,1.48.6,1.488.6H1.5V.619h.049q.024,0,.049-.2A.556.556,0,0,0,1.724.2V.189c0-.057-.016-.089-.049-.106a.31.31,0,0,1,.179-.122H1.87l.008.073A.116.116,0,0,0,1.83.05a1.279,1.279,0,0,1-.154.423.435.435,0,0,1-.065.26,1.114,1.114,0,0,1-.13.439A11.8,11.8,0,0,0,.943,2.855L.927,2.847c-.016,0-.033.024-.049.065,0,.016.016.033.049.073a.217.217,0,0,0-.114.081,1.12,1.12,0,0,1-.293.618v.024a.137.137,0,0,0,.024.081l-.033.024H.464v-.1c0-.065,0-.146.008-.236.057-.2.114-.4.154-.585a12.744,12.744,0,0,0,.561-1.7.061.061,0,0,0-.008-.033c-.122.041-.187.106-.187.2-.073.179-.179.488-.325.927,0,.016-.13.4-.39,1.13a2.373,2.373,0,0,0-.187.675v.057c.008.122.024.179.041.179,0,.073.106.122.309.154a.292.292,0,0,0,.2.081.569.569,0,0,0,.3-.065c.081,0,.179-.138.276-.431.171-.2.26-.325.26-.382s-.065-.089-.179-.114A38.983,38.983,0,0,1,2.61-.316q0-.171.341-.341,1.927-.951,3.61-1.626a.61.61,0,0,0,.26.138l.049-.016a1.316,1.316,0,0,1,.187-.081h.024l-.114.187c-.081,0-.146.154-.211.472v.008h.024a.323.323,0,0,0,.106-.089c.049.016.081.024.081.041V-1.6a.95.95,0,0,1-.1.325c0,.033.041.073.106.106a2,2,0,0,1-.26.244A.017.017,0,0,1,6.7-.942v-.065c.008-.016.016-.033.033-.033A.088.088,0,0,0,6.708-1.1a1.126,1.126,0,0,0-.163.236A1.158,1.158,0,0,1,6.6-1.072c-.008-.049-.016-.081-.041-.081H6.554a.294.294,0,0,0-.057.2l.016.244c0,.024-.041.049-.13.081v.024l.049.016.016-.016A.04.04,0,0,0,6.44-.633V-.649l.041.024c0,.057-.041.1-.13.106V-.5a.077.077,0,0,0,.057.049v.016c-.041.041-.057.065-.057.073v.057a.472.472,0,0,1-.114.26c0-.041-.008-.065-.008-.1H6.2v.016A.342.342,0,0,0,6.123.14V.156h.033L6.171.148A.126.126,0,0,1,6.2.2L6.188.254h.041A3.922,3.922,0,0,1,6.513-.5c.024-.13.049-.2.089-.2l.016.049v.024a1.4,1.4,0,0,1-.041.163L6.732-.4c0,.008-.008.049-.016.122v.008h.024a1.816,1.816,0,0,0,.154-.431c-.008-.024-.024-.033-.033-.033H6.854a.882.882,0,0,1-.106.065q-.037,0-.049-.073l.081-.033a.134.134,0,0,0,.081.016c.016,0,.024,0,.024-.016V-.787A.758.758,0,0,0,6.871-.9c.041-.057.081-.081.106-.081a1.174,1.174,0,0,1,.179-.35.188.188,0,0,1,.13.1v.041l-.024.073H7.155l-.024.008A1.121,1.121,0,0,1,7.171-.9v.016a1.742,1.742,0,0,1-.122.407.442.442,0,0,1-.114.2v.138H6.887l-.024.016c0,.008.008.016.008.024a1.068,1.068,0,0,1-.081.325.244.244,0,0,1-.13.163l.008.049V.465a1.388,1.388,0,0,1-.122.463A10.822,10.822,0,0,0,5.887,2.75h.008c.033-.041.057-.057.065-.057v.041c0,.033-.049.073-.138.122L5.854,3a.181.181,0,0,1-.089.138,1.238,1.238,0,0,0,.024-.154V2.969a3.233,3.233,0,0,0-.333.87q-.085,1-.22,1H5.2a.32.32,0,0,0-.016-.049,1.936,1.936,0,0,0,.122-.724V3.912h.016v.024l.057-.008V3.9a.389.389,0,0,1-.065-.089H5.285a.718.718,0,0,1-.049.13H5.228c0-.016-.008-.065-.008-.154,0-.008.008-.016.041-.033l.057.016h.008a.507.507,0,0,0,.089-.138c.057-.024.089-.041.089-.065V3.563A.073.073,0,0,0,5.5,3.522c-.081-.081-.114-.138-.114-.163V3.278l.016.008c.016,0,.041.033.073.106H5.48a.661.661,0,0,0,.033-.138V3.246c-.1-.089-.138-.146-.138-.179a1.006,1.006,0,0,0,.106-.244.506.506,0,0,0-.13-.033,1.146,1.146,0,0,0-.122.545.685.685,0,0,0-.154.309,1.411,1.411,0,0,0,.008.146L5,4.01v.024H4.927a.04.04,0,0,0-.008-.024c.033-.244.106-.6.211-1.073a.008.008,0,0,1-.008-.008.2.2,0,0,0-.106.049c-.033.089-.106.317-.211.691-.146.618-.228.976-.236,1.081a1.162,1.162,0,0,0,.2.545A.369.369,0,0,1,5,5.416l.22-.033a.337.337,0,0,1,.1.057c.2-.146.309-.252.309-.333L5.594,4.8a8.264,8.264,0,0,1,.341-1.447c.447-1.3,1.2-3.317,2.244-6.033A3.422,3.422,0,0,1,8.96-2.82h.106c.187,0,.276.057.276.171-.016.146-.033.228-.033.244l.016.016c.024,0,.073-.033.13-.114.114,0,.163-.1.163-.293v-.081A.435.435,0,0,0,9.48-3.21,1.1,1.1,0,0,0,8.9-3.446a.4.4,0,0,0-.163.041.175.175,0,0,0-.089-.016H8.643a.3.3,0,0,0-.089.024c-.049-.008-.073-.016-.073-.041.057-.171.455-1.187,1.2-3.025A26.6,26.6,0,0,1,11.5-10.487a1.412,1.412,0,0,0,.333-.577c-.024-.081-.041-.122-.065-.122C11.773-11.235,11.594-11.267,11.237-11.3ZM8.009-3.73a5.046,5.046,0,0,1,.366-1.024,5.323,5.323,0,0,0,.431-1.163.959.959,0,0,0,.138-.2,1.731,1.731,0,0,1,.39-.781l-.073.228a3.549,3.549,0,0,0-.244.659,8.2,8.2,0,0,0-.35.862v.024l.049.057V-5c-.008.024-.041.041-.089.041H8.57a.517.517,0,0,0,.024.122H8.554L8.5-4.844a.782.782,0,0,0-.049.171l-.106.22v.041a.022.022,0,0,0,.024.024l.081-.057v.057a.346.346,0,0,1-.065.138H8.375c0-.008-.008-.033-.016-.073-.146.146-.22.26-.22.35a.687.687,0,0,0,.106.179.534.534,0,0,1-.179.049c.073.057.106.106.106.122a.162.162,0,0,0-.065.024C8.066-3.6,8.025-3.641,8.009-3.73ZM4.627-6.7h.041v.008a.505.505,0,0,0-.024.081.061.061,0,0,0-.033-.008v-.008Zm4.756.154c.016,0,.024-.008.041-.024H9.44a.061.061,0,0,0,.008.041.1.1,0,0,1-.049.065H9.383ZM3.342-4.064c0-.073.008-.114.033-.114.073,0,.122-.13.154-.39a.975.975,0,0,0,.2-.358,5.85,5.85,0,0,1,.341-.634.572.572,0,0,0,.171-.333,2,2,0,0,1,.3-.561.324.324,0,0,1-.057.2c-.057.236-.13.35-.211.35l.016.1v.049l-.106.2.008.024a.241.241,0,0,0-.033.089.862.862,0,0,0-.122.236v.179c-.089.049-.13.081-.13.089v.024a.113.113,0,0,0,.033.073v.008c-.057,0-.089.049-.106.146v.122a.017.017,0,0,0,.016.016H3.96v.024a4.8,4.8,0,0,0-.171.463c-.081.366-.2.545-.366.545a1.006,1.006,0,0,1-.3-.1c.073-.008.106-.016.106-.041V-3.69L3.22-3.714A.429.429,0,0,1,3.3-3.828v-.016c0-.016-.016-.024-.041-.024a.373.373,0,0,0,.008-.081.108.108,0,0,1,.065.024c.033,0,.057-.041.073-.106C3.407-4.047,3.383-4.056,3.342-4.064ZM9.1-5.844a.078.078,0,0,1,.057-.081v.073l-.049.008Zm-4.87.455h.016a1.3,1.3,0,0,1-.065.341,2.15,2.15,0,0,0-.2.447c-.024-.008-.033-.016-.033-.033V-4.8c.081-.016.138-.138.187-.366A.71.71,0,0,0,4.228-5.389ZM8.6-5.08c-.024.016-.041.024-.041.041s.024.033.033.033H8.6c.008,0,.024-.016.033-.041C8.627-5.072,8.611-5.08,8.6-5.08Zm.163.089c0-.041.024-.057.065-.057v.008l-.008.049ZM8.48-4.56c.016-.138.033-.2.049-.2a.445.445,0,0,0,.057.106Zm-4.691.106c-.016,0-.041.065-.057.187.008.024.016.041.033.041h.024a.333.333,0,0,1,.041-.138A.252.252,0,0,0,3.789-4.454Zm-.106.187c-.024.008-.033.016-.033.033v.016c0,.008.024.024.065.049q.024-.012.024-.024V-4.21c-.024,0-.041-.016-.041-.057ZM3.651-4.1c-.049,0-.081.016-.081.033v.008a.377.377,0,0,0,.073.146h.008c.033,0,.049-.057.065-.171L3.692-4.1Zm4.6.033c.008.008.033.008.049.008V-4H8.253Zm-5.13.236h.024v.008H3.122Zm.415-.008-.016.008c.008.049.016.073.041.073h.016c.016,0,.024-.008.024-.016V-3.82c0-.008-.008-.016-.024-.016Zm-.455.016.041.016v.033H3.106q-.012,0-.024-.024Zm4.74.5a.136.136,0,0,1,.13-.081c.024.008.033.033.033.065l-.008.016a.061.061,0,0,1-.033-.008,1.122,1.122,0,0,1-.114.008Zm.154.049h.008c.016,0,.024,0,.024.016a.049.049,0,0,0-.033.008H7.968A.082.082,0,0,1,7.976-3.267Zm-.187.057a.061.061,0,0,0,.033-.008c.016,0,.033.008.033.016v.033H7.789Zm.748.138.374-.041a1.625,1.625,0,0,0,.187.024h.1a.1.1,0,0,1,.089.057v.008a.348.348,0,0,1-.1.016c-.008,0-.1,0-.252-.016a5.087,5.087,0,0,1-.659.081V-2.95a.546.546,0,0,1,.22-.122ZM3.057-3.1h.016a.074.074,0,0,0,.024.041v.081c-.049.065-.089.1-.114.1H2.976A.56.56,0,0,1,3.057-3.1Zm.179.049c0-.008.008-.016.024-.016v.041c0,.016-.008.016-.024.016Zm-.35.374c.024.008.033.024.033.065V-2.6c0,.008-.024.024-.073.057v-.049A.152.152,0,0,1,2.887-2.673Zm.179,0h.089c-.016.065-.041.106-.057.106H3.082A.223.223,0,0,0,3.066-2.673Zm4.594.106.081.016a.118.118,0,0,1-.065.122.211.211,0,0,1-.081-.041.458.458,0,0,1-.081.106v.008c.073.057.114.1.114.138,0,.016-.041.041-.122.057v.033a.222.222,0,0,0,.1.073c0,.008-.016.024-.057.033A.342.342,0,0,1,7.5-2.039a.337.337,0,0,0-.1.033v.024a.45.45,0,0,1,.114.187v.016H7.513a.129.129,0,0,1-.081-.041.022.022,0,0,0-.024.024v.114a.509.509,0,0,1-.1.358H7.285A.155.155,0,0,1,7.2-1.47v-.008a.551.551,0,0,1,.089-.268c-.008,0-.008,0-.008-.008l-.049.008c-.016,0-.033-.073-.041-.22.1-.057.154-.114.154-.163a1.076,1.076,0,0,0-.057-.146A.215.215,0,0,1,7.375-2.3c.057,0,.1-.073.13-.211A.664.664,0,0,0,7.659-2.568ZM2.984-2.4c.016.008.033.024.033.033v.008a.5.5,0,0,1-.073.138.162.162,0,0,0-.024-.065A.418.418,0,0,1,2.984-2.4Zm-.236.049h.024c-.041.3-.106.447-.2.447H2.57l.008-.073a.219.219,0,0,0,.089-.081v-.008c-.016-.024-.024-.033-.033-.033,0-.033.041-.089.122-.179,0-.008-.008-.016-.024-.016Zm.244.13h.024a1.324,1.324,0,0,1-.065.154H2.927A.485.485,0,0,0,2.992-2.218Zm-.146.236h.016c0,.024,0,.041.016.041a1.022,1.022,0,0,1-.073.228H2.789a.162.162,0,0,0-.024-.065A1.167,1.167,0,0,1,2.846-1.982Zm.959.228a.157.157,0,0,1,.122-.081h.016v.008a.147.147,0,0,1-.13.073ZM2.5-1.706c.016-.041.041-.065.065-.065V-1.7H2.553Zm4.594.024c.041.008.065.033.065.065a.29.29,0,0,1-.106.041A.71.71,0,0,0,7.09-1.681Zm-3.415.1a.522.522,0,0,0,.089-.041.043.043,0,0,1-.049.049H3.675ZM2.439-1.6l.049.008c0,.041-.008.065-.033.073A.358.358,0,0,0,2.439-1.6Zm.683.1a.121.121,0,0,0,.057-.008.618.618,0,0,1,.252-.081.822.822,0,0,1-.35.187H3.066A.639.639,0,0,0,3.1-1.5Zm-.8.146c0-.049.033-.089.1-.114h.016c0,.073-.024.114-.073.114Zm4.5-.089c-.024.008-.033.016-.033.024v.016c.016.016.024.033.033.033L6.854-1.4l-.008-.049Zm.2.008c.041.024.065.041.065.049v.016c-.016.024-.033.041-.041.041H7.041l-.016-.057Zm-.358.089q-.012,0-.024.024c.016.016.024.033.033.033h.016c.008,0,.016-.008.016-.024s-.016-.033-.033-.033Zm-3.586.024H3.1c.008,0,.016.016.024.041H3.082Zm3.659.049L6.7-1.2l.033.065c.049-.041.065-.065.065-.073v-.016A.086.086,0,0,0,6.741-1.275Zm-.154.008c-.016,0-.024.024-.033.065a.022.022,0,0,0,.024.024H6.6a.141.141,0,0,0,.057-.073l-.024-.016Zm.61,0c-.024.016-.033.024-.033.033V-1.2c0,.016.008.024.016.024A.108.108,0,0,0,7.245-1.2c-.016-.041-.033-.065-.041-.065Zm-.114.309v.016c.008.016.016.024.016.041h.008a.022.022,0,0,0,.024-.024c0-.008-.016-.016-.041-.033Zm-.057.146a.089.089,0,0,1-.049.024c0,.081.024.13.065.138.033-.057.057-.089.065-.089L7.1-.763l-.016.016A.151.151,0,0,1,7.025-.811ZM.943-.389a1.18,1.18,0,0,0,.333-.171.772.772,0,0,1,.374-.22h.016v.016a.488.488,0,0,1-.22.2c-.187.057-.276.106-.276.154a1.537,1.537,0,0,0-.333.171H.724l.1-.081V-.324L.8-.356V-.4h.1ZM1.4-.34A.1.1,0,0,1,1.456-.4h.033v.033a.207.207,0,0,1-.016.057C1.431-.324,1.407-.34,1.4-.34ZM.9-.1q.11-.061.439-.2v.016c0,.049-.041.081-.122.081-.041,0-.1.073-.171.211H1.033A.464.464,0,0,1,.9-.1Zm1.146.065.081-.049a.186.186,0,0,1,.1-.154v.008a1.881,1.881,0,0,1-.163.472H2.049c0-.016-.024-.073-.057-.171C2,.067,2,.058,2,.05c.033.024.049.033.049.049L2.065.083A.5.5,0,0,1,2.049-.039ZM6.6-.25c-.016,0-.041.041-.065.138.041.073.065.106.081.106L6.7-.08A.191.191,0,0,0,6.6-.25ZM.374,0c0-.041.065-.089.2-.13H.594c0,.033-.065.081-.2.13Zm6.1-.13a.362.362,0,0,0-.081.236H6.4A.208.208,0,0,0,6.48-.039V-.129Zm.26.089c0,.008-.008.008-.016.008a.151.151,0,0,0,.057.065h.008C6.8.026,6.814.01,6.814,0V-.007A.217.217,0,0,1,6.732-.039ZM.74.107A.92.92,0,0,0,.9.05V.067L.87.107A.217.217,0,0,0,.74.156ZM6.545.067,6.472.075A.3.3,0,0,0,6.521.2c.016,0,.041-.024.073-.081V.107C6.578.075,6.562.067,6.554.067ZM.488.3C.488.286.5.278.5.278.5.18.537.124.618.124A.06.06,0,0,0,.683.189.236.236,0,0,1,.5.3ZM.391.18H.423C.439.189.448.2.464.2A.119.119,0,0,0,.423.262.2.2,0,0,1,.366.221.074.074,0,0,0,.391.18Zm5.659,0L6.041.2V.254L6.049.27c.041-.024.065-.041.065-.049S6.09.2,6.049.18Zm.309,0a.2.2,0,0,0-.081.171l.008.065H6.31c.033,0,.057-.073.073-.211A.022.022,0,0,0,6.358.18ZM6.5.254a.519.519,0,0,0-.065.13l.033.041A.065.065,0,0,0,6.513.351v-.1Zm.13,0C6.6.262,6.594.27,6.594.278V.294a.044.044,0,0,0,.033.024c.008,0,.016-.008.033-.041C6.643.262,6.635.254,6.627.254ZM1.83.741c.016,0,.033-.065.049-.2,0-.163.049-.244.138-.244h.008c-.545,1.659-.837,2.529-.886,2.618L1.122,2.9,1.1,2.912a.667.667,0,0,1-.033-.089V2.79a2.976,2.976,0,0,0,.309-.7,1.787,1.787,0,0,1,.114-.407.416.416,0,0,0-.057-.114A.3.3,0,0,0,1.5,1.433c.089-.024.138-.041.138-.049V1.327l-.008-.016c.024,0,.049-.057.073-.163l-.033-.1c0-.016.008-.033.041-.041,0,.008,0,.008.008.008H1.74l.016-.008L1.724.961c.024-.114.041-.228.057-.341h.008c.016.065.033.106.033.122ZM6.082.311a.2.2,0,0,0-.106.033.435.435,0,0,0,.033.146A.311.311,0,0,0,6.082.343ZM-.439.335q-.1.012-.1.049V.424A.251.251,0,0,0-.52.489c.049,0,.1-.041.171-.114,0-.008-.024-.024-.057-.041ZM6.139.351,6.131.408c.016.016.024.024.033.024s.024-.008.024-.016V.408L6.171.351ZM.171.424C.179.392.187.376.2.376.236.416.261.432.269.432.2.514.13.563.082.563H.057C.074.514.09.5.1.5L.09.473A.365.365,0,0,0-.032.53.645.645,0,0,1-.219.758.5.5,0,0,1-.268.717.559.559,0,0,0-.479.782H-.487V.766c.26-.179.431-.293.5-.35A.217.217,0,0,1,.122.457.088.088,0,0,0,.179.432C.179.424.179.424.171.424ZM6.586.359c-.033.024-.049.033-.049.049a.088.088,0,0,0,.016.057c.033,0,.057-.008.065-.033V.416L6.6.359ZM6.4.465q-.037.012-.073.1c0,.008-.033.13-.1.358V.953l.008.016L6.31.961a.061.061,0,0,1,.033.008c0-.008,0-.008.008-.008A.179.179,0,0,1,6.318.855V.847A.307.307,0,0,1,6.4.668l.049.1C6.488.741,6.5.725,6.5.717V.7L6.432.619V.53C6.432.5,6.423.473,6.4.465ZM6.245.5A.073.073,0,0,0,6.2.506a1.289,1.289,0,0,0-.081.252h.008c.073,0,.114-.065.138-.187A.131.131,0,0,0,6.245.5ZM-.195.644C-.219.652-.227.66-.227.668V.7h.016C-.195.7-.187.693-.187.685V.66ZM5.846.872A.131.131,0,0,0,5.773.9c.016.033.024.049.041.057h.041L5.879.937A.442.442,0,0,0,5.846.872Zm.35.179a.271.271,0,0,0-.081.179v.008c0,.016.008.024.016.024h.008a.887.887,0,0,1,.073-.171V1.083Zm.3.138a.106.106,0,0,1,.057-.1v.065a.129.129,0,0,1-.041.081A.017.017,0,0,1,6.5,1.221ZM6,1.107l-.073.2c0,.016.033.033.081.033h.008V1.107Zm.276.024c-.024.016-.041.033-.041.041.008.024.016.033.033.033s.016-.008.024-.041Zm-4.943.016a.231.231,0,0,0-.073.081l.024.057c.049-.024.073-.049.073-.057V1.148Zm4.39.016c-.041.024-.057.041-.057.057v.016c.024.033.041.049.057.049l.049-.049c-.016-.049-.024-.073-.041-.073Zm.163.268c-.024,0-.041.049-.041.138v.008l.008.049h.008a.124.124,0,0,0,.057-.1l-.024-.1Zm.228,0c-.049,0-.106.049-.179.138A.185.185,0,0,0,6,1.685h.008a1.773,1.773,0,0,1,.114-.244C6.114,1.441,6.114,1.441,6.114,1.433Zm.2.3a.319.319,0,0,1,.114-.252.088.088,0,0,0,.016.057A.944.944,0,0,0,6.31,1.733Zm-.634-.146c-.008,0-.016.016-.024.041a.061.061,0,0,0,.008.033c.016-.008.033-.024.033-.033V1.587Zm.415.041c-.008,0-.016.008-.016.024v.033h.008c.008,0,.016-.016.033-.049V1.628Zm-.577.057v.008c.016.016.024.033.033.033h.008A.022.022,0,0,0,5.578,1.7V1.685Zm.431.065-.049.016a1.514,1.514,0,0,1-.146.39.146.146,0,0,0,.033.073c.033,0,.057-.065.065-.187A.452.452,0,0,0,5.96,1.79V1.774Zm.089.024a.909.909,0,0,0-.065.2c.008,0,.008.008.008.016a.325.325,0,0,0,.073-.22Zm.138.236a.143.143,0,0,1,.073-.065h.008v.089L6.2,2.083c-.016,0-.024-.024-.033-.065Zm-.634.333a.074.074,0,0,1-.024.041c.016.016.024.024.033.024h.008c.024-.008.033-.016.033-.024a.053.053,0,0,1-.016-.041Zm-.26.138c-.089,0-.154.122-.2.35a.146.146,0,0,0,.033.065,2.415,2.415,0,0,0,.179-.39ZM5.44,2.6a.085.085,0,0,0-.041.073.073.073,0,0,0,.033.065H5.44a.766.766,0,0,1,.033-.081C5.464,2.611,5.456,2.6,5.44,2.6ZM.708,2.888l-.041.041a.017.017,0,0,0,.016.016H.7a.017.017,0,0,0,.016-.016V2.888Zm4.911.073a.1.1,0,0,0-.065.049v.057H5.57c.008,0,.024-.033.057-.1A.008.008,0,0,1,5.618,2.961ZM.87,3.53c.114-.358.2-.545.236-.545a2.369,2.369,0,0,1-.2.6C.887,3.571.87,3.563.87,3.555ZM.6,3.408c-.008,0-.016.008-.016.024s.016.033.033.033.016-.008.016-.024V3.408Zm4.716.114h.073a.326.326,0,0,0-.049.106H5.326l-.008-.057ZM.594,3.644l.024.016L.6,3.709H.594ZM.838,3.7c.024,0,.033.024.033.057s-.008.057-.033.065H.83A.074.074,0,0,0,.789,3.8V3.774Zm4.057.886c.016,0,.024.008.033.041l-.016.024-.049-.024Zm.26.4q.037-.049.049-.049H5.22l.049.041a.1.1,0,0,1-.049.073C5.179,5.026,5.163,5.01,5.155,4.986Zm7.46-2.244a2.452,2.452,0,0,0,1.366-.585,5.811,5.811,0,0,0,.9-.8A3.688,3.688,0,0,0,16.038-.836c.089-.033.252-.073.48-.13a3.655,3.655,0,0,0,.951-.333q0-.012-.049-.024a.258.258,0,0,1-.187.073,1.72,1.72,0,0,1-.382.106.153.153,0,0,1-.065-.016q.159-.085.756-.317a.588.588,0,0,0,.3-.089q.293-.061.293-.1l-.1-.008-.016.041a.13.13,0,0,1-.065-.024.585.585,0,0,1-.211.065.262.262,0,0,1-.146.049l-.024-.016a1.125,1.125,0,0,1-.252.057.56.56,0,0,1-.106-.016c-.008,0-.016,0-.016.016,0,.065-.1.114-.293.138a1.454,1.454,0,0,1-.39.089A.287.287,0,0,1,16.4-1.3l.008-.024a.138.138,0,0,0,.081-.049l-.008-.008c-.1.008-.276.033-.537.081l-.057-.114a2.651,2.651,0,0,0-.52-.683,1.952,1.952,0,0,0-.748-.48l.016-.033q.22-.183.22-.293a.431.431,0,0,0-.089-.22.6.6,0,0,0-.431-.171h-.057a1.627,1.627,0,0,0-.992.537,6.572,6.572,0,0,0-.715.886,3.935,3.935,0,0,0-.748,1.61.112.112,0,0,0,.041.073.307.307,0,0,1-.089.26l-.016-.2h-.016l-.008.057a4.7,4.7,0,0,0-.268,1.342,1.34,1.34,0,0,0,.488,1.146A.906.906,0,0,0,12.615,2.742ZM12.4-1.21l-.033-.008v-.049c0-.008.049-.1.138-.26a3.07,3.07,0,0,1,.528-.8c.154-.22.276-.358.382-.39a.236.236,0,0,0-.041.081c-.073.073-.341.439-.8,1.081A1.566,1.566,0,0,1,12.4-1.21Zm1.911-1.2H14.29v-.024H14.3Zm.382,1.252a.933.933,0,0,1-.52-.13c-.146-.033-.22-.163-.22-.4,0-.171.033-.252.089-.252a.052.052,0,0,1,.041.049h.016v-.033a.4.4,0,0,1,.008-.1c-.008,0-.024.008-.049.033-.008,0-.016-.008-.024-.033.057-.154.106-.228.163-.228l.008.057h.008a.242.242,0,0,1,.114-.041c.154,0,.366.138.642.415a1.615,1.615,0,0,1,.407.6A4.778,4.778,0,0,1,14.688-1.153Zm-.528-.179a1.517,1.517,0,0,1-.073-.5H14.07a.638.638,0,0,0-.016.179.647.647,0,0,0,.016.211c.033,0,.065.033.073.106Zm4.1-.374c.089-.008.138-.033.138-.081,0-.008-.024-.024-.065-.033s-.073.041-.081.106Zm-.106-.008c.008,0,.016-.008.016-.024s-.008-.016-.016-.024-.016.008-.016.024S18.143-1.714,18.152-1.714Zm.065.049a.049.049,0,0,0,.049-.024l-.089-.024a.017.017,0,0,0-.016.016C18.168-1.673,18.184-1.665,18.217-1.665Zm-1.39.228.016-.008a.017.017,0,0,0-.016-.016h-.033C16.8-1.446,16.81-1.438,16.826-1.438ZM16.7-1.4l.024-.008v-.016l-.016-.024c-.024.008-.033.016-.033.041ZM12.639,2.132,12.4,2.115a2.49,2.49,0,0,1-.106-.585,2.82,2.82,0,0,1,.22-.968,12.525,12.525,0,0,1,.5-1.276,5.171,5.171,0,0,1,.415-.715,1.111,1.111,0,0,0,.081.22,1.233,1.233,0,0,0,1.228.585,3.016,3.016,0,0,0,.6-.057,2.44,2.44,0,0,1-.48,1.024,5.019,5.019,0,0,0-.366.512A.008.008,0,0,1,14.5.863l.073-.024a2.08,2.08,0,0,1,.22-.2c.057.008.081.024.081.049q.061,0,.1-.1A4.982,4.982,0,0,0,15.6-.714c0-.016.057-.033.154-.049h.008v.049a4.531,4.531,0,0,1-.325.878c-.114.146-.2.276-.285.39-.089.081-.13.146-.13.211-.057.016-.081.033-.081.049L15,.847V.855a.032.032,0,0,0-.016.033L14.956.88c-.024,0-.033,0-.033.008-.081,0-.13.073-.154.228l-.1-.008a1.724,1.724,0,0,0-.114.171c-.065.033-.089.057-.089.089l.049.073a.317.317,0,0,0-.114-.016c-.187.1-.285.179-.285.244l.024.106a.209.209,0,0,0-.106-.073c-.016,0-.033.049-.057.154-.033-.024-.049-.041-.057-.041h-.1c.2-.22.3-.341.309-.358.089-.065.13-.114.13-.171-.024,0-.065.024-.122.081-.382.358-.659.537-.813.537A2.643,2.643,0,0,1,12.639,2.132Zm3.927-3.512v-.008L16.534-1.4a.008.008,0,0,1-.008.008C16.525-1.381,16.542-1.381,16.566-1.381Zm.959.057.057-.008c0-.008,0-.016-.016-.024l-.049.016Zm-1.935.089h-.008l.008-.024Zm.4.016q.012-.024.024-.024Q16-1.218,15.989-1.218ZM12.6-.657V-.763c0-.008.016-.016.057-.041C12.655-.706,12.631-.657,12.6-.657Zm-.333.65h-.016a.585.585,0,0,0,.065-.22H12.4L12.4-.169C12.379-.063,12.338-.007,12.265-.007Zm-.309.935A.126.126,0,0,0,11.932.88a1.479,1.479,0,0,1,.089-.341c.041-.2.073-.309.106-.309a.819.819,0,0,1,.016.154.063.063,0,0,0-.057.065c0,.008.008.033.016.089L12.07.652C12.07.806,12.029.9,11.956.928Zm.22-.3.008-.081c.024.024.041.033.049.033V.6Zm.016.2A.2.2,0,0,1,12.086.8a.476.476,0,0,0,.106-.114Zm2.073.447a.288.288,0,0,0,.13-.049c.236-.2.358-.366.358-.512h-.008l-.114.138a.164.164,0,0,1-.163.138.322.322,0,0,1-.057-.041,1.115,1.115,0,0,0-.154.22ZM12.143.937V.872h.008l.008.041C12.159.928,12.151.937,12.143.937Zm-.154.756a.4.4,0,0,1-.024-.1c.024-.2.041-.317.041-.35.033-.114.057-.187.057-.2L12.054.993a.34.34,0,0,1,.073-.024,1.385,1.385,0,0,1-.024.3C12.078,1.554,12.046,1.693,11.989,1.693Zm-.154.293a.62.62,0,0,1-.122-.431,2.446,2.446,0,0,1,.065-.5c.089,0,.13.041.13.114s-.024.309-.073.691c.008.057.016.089.033.089C11.859,1.969,11.842,1.985,11.834,1.985Zm2.236-.146c-.024-.008-.033-.016-.033-.033l.049.008a.03.03,0,0,1,.024-.008v.016C14.094,1.823,14.086,1.831,14.07,1.839Zm-.26.179V1.994c0-.041.024-.057.081-.057A.073.073,0,0,1,13.81,2.018ZM12.1,2.083H12.07l.008-.122H12.1ZM21.44-3.779a.473.473,0,0,0-.407.285A17.26,17.26,0,0,0,19.7-.088c-.146.528-.252.894-.325,1.081a5.56,5.56,0,0,0-.309,1.138c.008.008.008.033.016.073q.512.561.8.561h.049a1.42,1.42,0,0,0,.7-.374,2.159,2.159,0,0,0,.22-.325c.382-.52.675-.943.886-1.26.268-.447.545-.886.837-1.317.2-.35.463-.764.789-1.244a1.658,1.658,0,0,1,.325-.358,1.608,1.608,0,0,1,.033.325,6.764,6.764,0,0,1-.179,1.342,3.89,3.89,0,0,0-.211.886V.5a.619.619,0,0,0,.146.4c.138.26.285.39.455.39a.979.979,0,0,0,.61-.325c.26-.276.52-.553.756-.846.39-.5.634-.8.732-.911h.008l.008.057a5.4,5.4,0,0,0-.073.667v.016a1.483,1.483,0,0,0,.179.715c.26.447.561.675.894.675h.073A2.235,2.235,0,0,0,28.067.88c.667-.5,1.122-.829,1.366-.992l-.008-.081c0-.024.024-.041.057-.057a.473.473,0,0,1,.114.024.437.437,0,0,0,.033-.122c0-.049.081-.122.244-.228V-.584a.542.542,0,0,0-.2.065,1.05,1.05,0,0,1-.366.276,1.4,1.4,0,0,1-.488.317h-.008c0-.033.033-.073.106-.106V-.047h-.065V-.055l.008-.016c.089-.033.138-.057.138-.073a.13.13,0,0,1,.065.024l.033-.073c.024-.008.041-.049.041-.114q.146-.085.146-.122a2.579,2.579,0,0,1,.423-.35V-.8h-.024a4.405,4.405,0,0,1-.5.325.5.5,0,0,1-.333.114c-.114.065-.382.26-.821.594a3.656,3.656,0,0,1-.968.594c-.089,0-.13-.089-.13-.26a1.844,1.844,0,0,1,.016-.236A13.32,13.32,0,0,0,27.164-1.4v-.089a.815.815,0,0,0-.309-.756h-.016c-.041.024-.057.041-.057.049a.922.922,0,0,0-.2-.024h-.008a.171.171,0,0,0-.089.041,1.92,1.92,0,0,1-.341.488c-.041.041-.252.317-.626.813a8.31,8.31,0,0,1-.8.984c-.325.358-.52.537-.6.537A.922.922,0,0,1,24.107.53,5.068,5.068,0,0,1,24.148-.2a6.663,6.663,0,0,0,.179-1.618,1.035,1.035,0,0,0-.236-.764.717.717,0,0,0-.333-.154,1.007,1.007,0,0,0-.455-.146.387.387,0,0,0-.211.049c-.065,0-.2.122-.4.366a.942.942,0,0,1-.211.358V-2.1a.1.1,0,0,1,.089.057h.008v-.024a.054.054,0,0,0-.041-.057c.024-.041.049-.057.057-.057a.072.072,0,0,1,.041.065v.033l-.065.1a.307.307,0,0,1-.089.244c-.081.187-.146.285-.2.285h-.033l-.016-.008c0-.065.041-.122.122-.2a.017.017,0,0,0-.016-.016h-.016c-.065,0-.122.057-.163.171a3.145,3.145,0,0,0-.293.48c-.455.707-.854,1.35-1.211,1.919q-.646,1.122-.854,1.122H19.8c0-.081.2-.781.594-2.073.073-.236.228-.667.472-1.293a11.379,11.379,0,0,1,.618-1.431,1.381,1.381,0,0,0,.325-.642v-.008a.225.225,0,0,0-.008-.073A.39.39,0,0,0,21.44-3.779Zm-1.5,3.252a1.047,1.047,0,0,1,.13-.35c0-.016.033-.024.089-.024l.634-1.472A1.61,1.61,0,0,1,21-2.82h.008V-2.8a.905.905,0,0,1-.13.382c-.081.171-.276.7-.577,1.577a1.946,1.946,0,0,0-.154.447v.016h.016a.216.216,0,0,0,.049-.13c0-.016.041-.041.122-.057a.7.7,0,0,1-.024-.106V-.7a.845.845,0,0,1,.016-.122h.057V-.828L20.359-.86V-.909l.1-.033-.024-.1a.193.193,0,0,1,.073-.122c.041,0,.089-.081.154-.244-.033-.033-.049-.049-.049-.057V-1.47c.073-.041.114-.081.114-.114q-.012-.024-.024-.024l-.016.008a.116.116,0,0,0-.016-.049l.049-.024c0,.008,0,.008.008.008l.033-.008c.187-.415.35-.764.488-1.033h.008V-2.7c0,.033-.163.447-.5,1.236-.073.26-.171.52-.268.781a.149.149,0,0,0-.065.049v.008A20.142,20.142,0,0,1,19.635,2.1h-.008a.681.681,0,0,0-.049-.138l.057-.049V1.9h-.016a.063.063,0,0,1-.008.024l-.033-.008c-.016,0-.033-.049-.057-.146.073-.073.114-.114.114-.13a.225.225,0,0,0-.041-.1L19.66,1.5l-.024-.057a1.073,1.073,0,0,1,.024-.106.453.453,0,0,0,.057-.114V1.115A.94.94,0,0,1,19.806,1L19.79.928A.409.409,0,0,0,19.822.8c0-.024.024-.049.073-.089L19.863.668V.6c.049-.049.073-.073.081-.073a.246.246,0,0,0-.016-.081c.033-.041.049-.057.049-.065C19.969.335,19.96.311,19.96.3a.2.2,0,0,1,.114-.179.255.255,0,0,1-.033-.1V-.015a.424.424,0,0,1,.122-.106c-.041-.024-.057-.041-.057-.057.016-.057.033-.089.033-.1V-.291l-.008-.041h-.016c-.065.179-.1.285-.114.309-.081.317-.252.911-.528,1.764a.6.6,0,0,1-.1-.016V1.693a1.02,1.02,0,0,1,.016-.122c0-.033.179-.626.528-1.781a.168.168,0,0,0-.041-.081.3.3,0,0,1,.065-.049c.016,0,.057-.081.106-.244a.116.116,0,0,0-.016-.049l-.089.138C19.944-.511,19.944-.519,19.936-.527Zm2.846-1.829h.033c0,.008,0,.016-.016.016h-.016Zm-.114.13a.286.286,0,0,1,.073-.057l.008.049c0,.024-.033.049-.081.073Zm-1.9.366h.008c.016,0,.016,0,.016.008h-.024Zm1.959.309.057-.008H22.8a.227.227,0,0,0-.041.065h-.008A.108.108,0,0,0,22.725-1.551Zm-.569.114h.008v.016h-.008Zm.325.35c0-.073.057-.154.171-.252h.008a.855.855,0,0,1-.179.276ZM22.139-1.3c0-.016.024-.024.073-.033h.008c0,.041-.024.065-.073.089h-.008Zm-1.6.024h.008v.041h-.008ZM25.416-.259a.251.251,0,0,1,.049-.1c.228-.293.4-.52.512-.691a.111.111,0,0,1,.114-.114h.016c0,.1-.106.252-.325.48A2.109,2.109,0,0,1,25.416-.259Zm-2.764-.756c.008-.024.016-.033.024-.033l.033.024a.146.146,0,0,1-.041.057A.062.062,0,0,0,22.652-1Zm-2.537-.016h.024c.008,0,.016,0,.016.016v.008a.017.017,0,0,1-.016.016h-.016Zm.667,2.537a4.658,4.658,0,0,1,.455-.724c.065-.122.187-.317.374-.594.171-.228.341-.48.512-.74.122-.244.211-.366.26-.366h.008a4.3,4.3,0,0,1-.6.935.887.887,0,0,1-.211.333,2.774,2.774,0,0,1-.154.26,3.009,3.009,0,0,1-.39.577q-.171.317-.244.317ZM20.1-.828a.1.1,0,0,0-.057.081v.065a.03.03,0,0,1,.024.008c.016,0,.033-.049.041-.146C20.1-.82,20.1-.82,20.1-.828Zm2.374.122h.008L22.5-.7l-.008.033h-.008Zm-.1.138L22.4-.584h.008v.033a.017.017,0,0,1-.016.016h-.008C22.383-.551,22.383-.559,22.375-.568Zm6.911-.008v.016H29.3V-.576Zm-2.464.041h.008v.008a3.044,3.044,0,0,1-.065.431.18.18,0,0,0-.041-.033C26.79-.4,26.823-.527,26.823-.535ZM22.278-.5l.057-.008.008.041v.033c-.024.073-.057.114-.1.114,0,0,.016-.049.049-.122V-.454A.06.06,0,0,0,22.278-.5ZM19.9-.486l.024.016q0,.049-.024.049Zm4.065,0A.083.083,0,0,1,24-.437q-.012.073-.024.073c-.024.187-.057.285-.1.285-.024,0-.041-.057-.049-.163h.024c0,.024.016.041.049.041h.008a.509.509,0,0,1,.033-.114.564.564,0,0,0-.024-.13Zm5.5-.008a.108.108,0,0,0-.057.024.017.017,0,0,0,.016.016h.008c.024-.016.033-.024.033-.033Zm.285.122a.049.049,0,0,0-.049.024c0,.016.008.016.016.016h.008c.008,0,.016-.016.033-.041Zm-9.423.024v.016h.016C20.343-.34,20.343-.34,20.326-.348Zm8.887.033a.108.108,0,0,0-.057.024c0,.016.008.016.016.016h.008c.024-.008.033-.024.033-.033ZM20.3-.275a.03.03,0,0,1-.008.024v.016l.033-.024c0-.008,0-.016-.016-.016Zm1.87.041q0-.012.024-.024H22.2V-.25l-.016.033C22.172-.218,22.172-.226,22.172-.234Zm6.781.057.114-.081V-.25a.254.254,0,0,1-.114.1Zm-6.927.041c0-.024.008-.033.033-.041h.008v.008l-.008.057h-.024A.03.03,0,0,0,22.026-.137Zm3.187.13c.008-.065.033-.1.081-.1-.008.065-.033.106-.081.106ZM20.245-.1c-.016,0-.016.008-.016.016v.016l.008.016a.017.017,0,0,0,.016-.016V-.088Zm6.488.073c.008,0,.016.008.024.033l-.008.089.008.049c-.016.033-.024.041-.033.041V.1L26.717.067C26.725.067,26.733.034,26.733-.031Zm1.911.049a.677.677,0,0,1,.1.008c.008,0,.016.024.033.081s.033.1.065.1a2.737,2.737,0,0,1-.618.4h-.008V.6a3.888,3.888,0,0,0,.431-.374V.2h-.016a1.229,1.229,0,0,1-.285.163h-.008A.359.359,0,0,0,28.359.3c.106-.065.154-.114.154-.163V.091c.049.008.065.024.065.049.041-.024.065-.049.065-.057Zm.374.016h.008l.016.008q-.012.024-.024.024ZM21.725.319l.041-.008c.016,0,.016.008.016.016V.335l-.041.057V.408h.008c.008,0,.008.008.008.024C21.733.546,21.7.6,21.668.6c-.057.114-.089.171-.106.171C21.522.758,21.5.75,21.5.733a.343.343,0,0,0,.138-.146.053.053,0,0,1-.016-.041.138.138,0,0,1,.057-.008c.016,0,.041-.065.057-.2C21.733.335,21.725.327,21.725.319ZM26.709.311h.008l.016.008-.016.057h-.008Zm-.024.114h.024q.024.012.024.024A.049.049,0,0,1,26.684.424Zm.024.081q.012-.024.024-.024V.489L26.725.53a.017.017,0,0,1-.016-.016ZM21.2,1.286a.194.194,0,0,1,.033-.1,1.055,1.055,0,0,1,.293-.366l-.1.171A.892.892,0,0,1,21.2,1.286Zm-.146.2.008-.049c0-.049.033-.081.1-.089C21.156,1.376,21.115,1.424,21.05,1.489Zm-.382.2a.17.17,0,0,1,.081-.138h.008a.265.265,0,0,1-.081.146h-.008Zm-.984-.008c-.016,0-.033.033-.041.089q.012.024.024.024c.008,0,.024-.033.041-.089Q19.7,1.685,19.684,1.685Zm.9.081a.03.03,0,0,0,.024.008V1.79c-.016.016-.016.024-.016.033l-.024-.016A.137.137,0,0,1,20.586,1.766Zm.228.008h.016c0,.008-.008.016-.008.024h-.016A.03.03,0,0,0,20.814,1.774Zm-.163.171c0-.024.008-.041.041-.057.033.033.049.049.057.049s-.016.016-.049.033Zm-.171,0H20.5v.008h-.016ZM35.591-3.6h-.049a3.16,3.16,0,0,0-1.821.789,11.157,11.157,0,0,0-1.073.992,5.786,5.786,0,0,0-.626.878c-.073.122-.211.431-.423.911a3.3,3.3,0,0,0-.146.74,1.568,1.568,0,0,0,.52,1.122,2.462,2.462,0,0,0,1.659.65h.138a4.522,4.522,0,0,0,.6-.057,3.608,3.608,0,0,0,1.569-.8,2.132,2.132,0,0,1,.415-.358A1.84,1.84,0,0,0,36.738.9.008.008,0,0,1,36.729.9c-.065.033-.2.122-.4.26a5,5,0,0,1-.707.5.844.844,0,0,1-.39.211.463.463,0,0,1,.13-.114,1.914,1.914,0,0,0,.407-.26,1.811,1.811,0,0,0,.325-.2c.154-.081.236-.138.236-.171.163-.146.309-.276.447-.382.073-.081.122-.13.138-.13h.008l-.163.252a.169.169,0,0,0,.106-.057,3.53,3.53,0,0,0,.5-.52,1.723,1.723,0,0,0,.35-.537.67.67,0,0,0,.114-.22V-.494a.116.116,0,0,0-.016-.049V-.568a.939.939,0,0,0,.138-.382A.1.1,0,0,0,37.941-1c-.057,0-.13.089-.236.276-.081.138-.244.366-.472.683v.016L37.25,0V.01a.64.64,0,0,1-.179.2V.262h.049c.024,0,.033-.033.033-.089.024.016.033.024.033.033V.229c0,.041-.041.089-.138.146a.484.484,0,0,0-.073-.146h-.008a.681.681,0,0,0-.228.236c.008,0,.008,0,.008.008h.008c.13-.122.2-.187.228-.187a.649.649,0,0,0,.033.13A.266.266,0,0,0,36.892.6h-.106c0-.016-.016-.033-.049-.033h-.008l-.073.049c-.049,0-.065.024-.073.073,0,.016-.016.041-.065.073V.782c.024.024.033.041.033.049a1.441,1.441,0,0,1-.138.081A.1.1,0,0,0,36.347.88h-.008a.721.721,0,0,0,.008.106l-.13.024v.057a1.719,1.719,0,0,0-.252.2,1.913,1.913,0,0,0-.431.211l.008-.041h-.065a1.077,1.077,0,0,1-.2.073v.049h-.049a.893.893,0,0,1-.228.106.53.53,0,0,0-.333.146h-.024a1.3,1.3,0,0,0-.415.122,1.224,1.224,0,0,1-.52.13,1.606,1.606,0,0,1-.545-.1A1.094,1.094,0,0,1,32.461.847V.823a2.466,2.466,0,0,1,.325-1.138h.008c0,.13.033.211.106.252a.321.321,0,0,0,.13.171,1.681,1.681,0,0,0,.585.163A3.7,3.7,0,0,0,35.567-.746c.854-.756,1.276-1.4,1.276-1.911a.69.69,0,0,0-.268-.528,1.751,1.751,0,0,1-.333-.228C36.185-3.535,35.965-3.6,35.591-3.6ZM33.209-.99a5.6,5.6,0,0,1,.707-.789A6.921,6.921,0,0,1,35-2.592a3.312,3.312,0,0,1,1.041-.415h.089q.146,0,.146.122c0,.13-.13.325-.382.561-.5.5-.992.959-1.48,1.39A5.936,5.936,0,0,1,33.7-.4.393.393,0,0,1,33.42-.3h-.008a.324.324,0,0,1-.26-.114c-.073-.154-.114-.236-.114-.236a.853.853,0,0,1,.179-.317A.03.03,0,0,0,33.209-.99ZM36.38-2.974h.033c.016.1.024.163.024.179a.81.81,0,0,1-.244.48,6.582,6.582,0,0,1-1.016.911H35.16a.513.513,0,0,1,.122-.1,3.612,3.612,0,0,0,.732-.715q.39-.427.39-.561a1.062,1.062,0,0,0-.024-.187ZM33.3-1.681c0-.033.016-.049.041-.049V-1.7A.137.137,0,0,0,33.3-1.681ZM32.152-.112a.531.531,0,0,1,.1-.211,4.2,4.2,0,0,1,.61-.9,1.307,1.307,0,0,1,.35-.374h.016a.31.31,0,0,1-.073.122c-.488.626-.764.992-.821,1.089q-.11.293-.171.293h-.008Zm.8-.187a.137.137,0,0,1,.041.016c.1.089.163.13.2.13h.033a.206.206,0,0,0,.114-.057h.041V-.2a1.408,1.408,0,0,1-.244.122l-.041-.008-.033.016a.362.362,0,0,1-.106-.187Zm-.561.024h.024l.008.041v.008h-.008q-.024-.012-.024-.024Zm-.463.089h.008v.033h-.008Zm.13.252c0-.041.033-.081.114-.13a.41.41,0,0,1-.089.187h-.016L32.054.083Zm.22-.106a.121.121,0,0,1,.057.008v.016c-.016.024-.033.041-.041.041,0-.024-.008-.033-.024-.033C32.266-.023,32.274-.031,32.274-.039Zm-.057.1h.065A.725.725,0,0,1,32.209.3c-.033.016-.049.089-.049.236a4.657,4.657,0,0,0-.089.5v.057c.065.333.13.5.179.5q.024-.012.024-.024V1.554a.371.371,0,0,1-.065-.179V1.3l.016.008a1.97,1.97,0,0,1,.325.594v.033a.03.03,0,0,0-.024.008c-.13,0-.276-.138-.455-.407A2,2,0,0,1,31.957.92a1.992,1.992,0,0,1,.163-.675A.777.777,0,0,0,32.217.058ZM31.7.376a.676.676,0,0,1,.065-.2c.016-.065.041-.106.073-.106l.008.041V.132a.561.561,0,0,1-.106.3C31.737.432,31.721.408,31.7.376Zm.26-.1c0-.008.016-.024.057-.041l.008.041c0,.024-.016.041-.033.065-.008,0-.016-.016-.033-.041Zm-.008.1h.008C31.989.384,32,.4,32,.432V.449l-.008.016c-.008,0-.024-.016-.049-.033ZM37,.546c.106-.114.163-.171.179-.171V.416a.42.42,0,0,0-.146.146ZM31.672.554A.061.061,0,0,1,31.713.5c.033,0,.057.033.057.106a.25.25,0,0,1-.016.089q.012.3.024.415c0,.057.016.081.049.081a.72.72,0,0,0,.089.211c-.138,0-.228-.2-.252-.61,0-.065.008-.138.008-.22Zm4.96.13h.057c0,.016,0,.024.008.033H36.64A.049.049,0,0,0,36.632.685Zm-1.22.846a.1.1,0,0,1,.073-.041H35.5c0,.008-.033.016-.081.041Zm-.5.276a.063.063,0,0,0,.024-.008h.008v.008a.03.03,0,0,0-.024.008h-.008Zm-1.358.358.041.024-.008.016L33.542,2.2V2.189ZM33.7,2.2c.041-.008.065-.016.073-.016h.008c.081.008.122.024.122.041,0,0-.024.008-.057.016a.369.369,0,0,1-.146-.033Zm.13.13a1.5,1.5,0,0,0,.333-.041l.073.049c0,.016-.024.024-.081.033a1.567,1.567,0,0,0-.2-.024h-.122Z" transform="translate(1.282 11.55)" fill="#fff" stroke="#fff" stroke-width="0.5"/>
</svg>
