<svg xmlns="http://www.w3.org/2000/svg" width="47.786" height="18.436" viewBox="0 0 47.786 18.436">
  <path id="パス_310" data-name="パス 310" d="M10.343-10.39q-.488.061-.561.268c0,.008-.024.008-.073.008-.244,0-.382.073-.431.22,0,.081-.114.236-.341.455-.049.057-.366.512-.943,1.374a1.911,1.911,0,0,1-.2.3,6.416,6.416,0,0,0-1.106,1.65c-.146.236-.341.545-.569.935a6.157,6.157,0,0,0-.423.618c-.26.439-.48.781-.642,1.016a6.179,6.179,0,0,1-.52.854c-.13.114-.187.2-.187.276L3.57-1.2c0,.033-.154.106-.455.211A21.069,21.069,0,0,0,.709.423,2.553,2.553,0,0,0,.05.984,1.753,1.753,0,0,0-.21,1.7.26.26,0,0,0-.2,1.757c.138.2.236.3.3.3.057-.033.081-.065.081-.1A.569.569,0,0,1,.5,1.683c.415-.146.618-.268.618-.366l-.008-.024a.3.3,0,0,0-.122.065H.977a.231.231,0,0,1-.106-.033l.073-.081A13.5,13.5,0,0,1,2.6.269c0,.008-.049.081-.13.211-.089.114-.268.382-.528.8-.114.122-.179.211-.179.268-.228.333-.724,1.073-1.48,2.22A3.521,3.521,0,0,0-.479,5.106v.016A.937.937,0,0,0-.4,5.35a.388.388,0,0,1-.073.2.127.127,0,0,0,.065.106h.033A.433.433,0,0,1-.08,5.5c.041.008.057.024.057.065v.008a.233.233,0,0,1-.057.114c0,.024.016.041.057.049.008,0,.016,0,.016-.008.163,0,.463-.244.886-.732q.293-.39,3.683-5.61a1.565,1.565,0,0,1,.3-.138A17.4,17.4,0,0,1,7.1-1.357h.008a1.071,1.071,0,0,0-.041.2v.081c0,.033.024.073.081.114a.149.149,0,0,0,.081-.049.546.546,0,0,1,.065-.252H7.31a.166.166,0,0,1,.073.081A1.062,1.062,0,0,0,7.31-.8v.1l.016.016c.008,0,.024-.016.049-.065.016-.146.041-.22.065-.22.016-.211.049-.309.081-.309h.049v.024a1.151,1.151,0,0,1-.008.154h.008c.008,0,.024-.024.041-.065,0-.122.089-.2.268-.252.033.016.049.033.049.041v.033l-.122.61a2.328,2.328,0,0,0-.122.545A4.116,4.116,0,0,0,7.53.887v.138l-.049-.008H7.465a1.148,1.148,0,0,1-.057.341,3.65,3.65,0,0,1-.114.772.266.266,0,0,0,.073.13l-.041.2a1.733,1.733,0,0,0-.1.789c.008.252.016.431.016.545a.244.244,0,0,0-.065.154.875.875,0,0,0,.171.39v.049H7.327c-.065,0-.13-.041-.211-.13a1.23,1.23,0,0,1-.35-.992V3.131a.711.711,0,0,1,.024-.114v-.1L6.782,2.87a1.364,1.364,0,0,0,.024-.236c0-.089-.008-.138-.041-.138H6.749a.491.491,0,0,0-.106.341c0,.033.008.073.008.122-.008.065-.016.106-.016.122H6.595V3.057c0-.016.008-.024.016-.024a.421.421,0,0,0-.041-.154V2.838a1.552,1.552,0,0,1,.016-.163.255.255,0,0,1-.033-.1.2.2,0,0,0,.057-.1A1.527,1.527,0,0,0,6.6,2.326q.073-.488.073-.585V1.651l-.008-.1a4.691,4.691,0,0,0,.089-.472A.647.647,0,0,0,6.831.895.348.348,0,0,1,6.806.813a.519.519,0,0,0,.041-.2l.1-.5a.139.139,0,0,0-.065-.13c-.016,0-.033.049-.057.138-.065.293-.146.829-.252,1.626L6.481,2.919v.057c0,.024.008.065.016.13s0,.154-.008.3a1.688,1.688,0,0,0,.146.585,1.449,1.449,0,0,0,1.155.772h.1a.884.884,0,0,0,.325-.057,1.229,1.229,0,0,0,.748-.585c-.008,0-.008,0-.008-.008a2.155,2.155,0,0,1-.886.309H8.026c-.4,0-.6-.358-.6-1.073V3.285A17.808,17.808,0,0,1,7.985-.178c.122-.667.2-1.089.252-1.276a1.073,1.073,0,0,1,.561.114c.146.2.236.285.268.285a1.662,1.662,0,0,1-.154.48c0,.016.024.033.089.049A.08.08,0,0,1,9.05-.544a1.207,1.207,0,0,0,.285-.732,1.394,1.394,0,0,0-.146-.5,1.306,1.306,0,0,1-.268-.293A.739.739,0,0,0,8.489-2.3v-.008l.049-.228.626-2.041.545-2.13c.065-.171.2-.65.423-1.447a16.561,16.561,0,0,0,.5-1.854.287.287,0,0,0-.146-.244c-.024-.089-.057-.138-.114-.138ZM8.376-7.5c.008-.081.041-.122.114-.122-.016.1-.049.138-.114.138ZM7.652-6.333c0-.024.008-.057.008-.081a4.841,4.841,0,0,1,.455-.691.471.471,0,0,1,.154-.228h.041c0,.065-.049.146-.154.252a2.464,2.464,0,0,1-.341.561c-.057.138-.106.211-.154.211H7.652Zm.8-.333h.008v.016c-.106.268-.154.407-.163.407a37.145,37.145,0,0,1-.943,3.96l-.48.106a14.786,14.786,0,0,0-1.52.374H5.335c.26-.39.537-.829.837-1.317.537-.8.813-1.236.829-1.285a8.645,8.645,0,0,0,.65-1C7.88-5.756,8.148-6.179,8.449-6.667Zm.667.48H9.14v.033H9.124A.049.049,0,0,0,9.115-6.187ZM5.676-3.553c.081,0,.138-.049.179-.146a4.276,4.276,0,0,0,.439-.634c.073-.179.13-.26.163-.268a1.15,1.15,0,0,1,.187-.309,1.054,1.054,0,0,1,.22-.268c.26-.431.415-.667.447-.715h.041a.062.062,0,0,0,.016.033,1.578,1.578,0,0,1-.276.528c-.106.252-.211.463-.309.65-.268.4-.407.61-.407.626H6.327l.049-.122v-.041c0-.016-.008-.024-.016-.024a1.475,1.475,0,0,0-.22.317,1.925,1.925,0,0,0-.48.8l-.138.073a3.347,3.347,0,0,0-.358.577,3.252,3.252,0,0,0-.341.512v.008A.66.66,0,0,0,4.936-2c.1-.13.163-.2.2-.2h.033v.041c-.106.333-.236.5-.382.5,0-.008-.008-.008-.016-.008v-.024c0-.041.008-.057.041-.073a.17.17,0,0,0-.033-.089.251.251,0,0,0-.065.016,1.086,1.086,0,0,1-.358.374c0-.008,0-.008-.008-.008a1.282,1.282,0,0,0,.008-.154v-.016l-.016-.024a.262.262,0,0,0-.065.008,1.106,1.106,0,0,1-.122.211c0,.033-.081.073-.236.13a5.646,5.646,0,0,1,.423-.634c.122-.26.2-.4.236-.4a.891.891,0,0,1,.252-.317.683.683,0,0,1,.106-.171A.335.335,0,0,1,4.9-2.7a3.2,3.2,0,0,0-.268.512.816.816,0,0,0-.252.447c0,.008,0,.016.016.016h.073a.181.181,0,0,0,.081-.163c0-.065.033-.106.106-.146V-2.04l-.008-.049c.081-.073.122-.122.122-.138,0-.033.049-.081.154-.146a2.2,2.2,0,0,0,.268-.39v-.008L5.18-2.845c.016,0,.024,0,.024-.008a1.042,1.042,0,0,0,.276-.358v-.016a.143.143,0,0,1-.049-.122H5.4c-.008,0-.024.024-.065.073-.065.114-.13.163-.2.163-.041.13-.073.2-.089.2H5.018L5.01-2.992v-.024a.141.141,0,0,1,.073-.114.364.364,0,0,0,.163-.2,2.453,2.453,0,0,1,.415-.618l.065.016v.065a1.011,1.011,0,0,0-.13.171.605.605,0,0,1-.163.236c.008.049.024.065.041.065h.114c.024,0,.041-.057.041-.171ZM8.993-5.7c.008,0,.016.016.033.049-.065.309-.106.463-.138.463H8.872a.772.772,0,0,1,.049-.252.2.2,0,0,0-.033-.089H8.9Q8.993-5.553,8.993-5.7Zm-.22.618c.024,0,.049.049.073.13v.024a.628.628,0,0,1-.081.228c-.033.341-.065.5-.106.5-.1.439-.2.846-.325,1.22-.041.309-.1.463-.179.463H8.14c-.081-.016-.114-.033-.114-.057v-.016a1.666,1.666,0,0,0,.049-.252.017.017,0,0,0-.016-.016L8-2.8c-.041.2-.081.293-.1.293s-.033-.024-.041-.073a.175.175,0,0,1,.049-.106,1.531,1.531,0,0,1,.073-.285H8c.057.008.081.024.081.041.049,0,.089-.081.13-.252,0-.041-.016-.065-.033-.065H8.124c-.033.081-.049.122-.057.122,0-.016-.008-.049-.008-.081A.08.08,0,0,1,8.1-3.268c.016-.138.041-.2.057-.2H8.18a.914.914,0,0,0,.033.2h.024V-3.3a1.137,1.137,0,0,1,.073-.276l-.016-.041c-.041.033-.057.041-.065.041L8.221-3.65c.008-.016.016-.024.033-.024.089-.016.138-.057.138-.13-.008,0-.016-.008-.024-.041l.1-.049A.837.837,0,0,0,8.457-4a.757.757,0,0,1,.065-.244.756.756,0,0,1,.22-.463V-4.8c-.033-.041-.057-.065-.057-.065A1,1,0,0,1,8.774-5.081ZM8.335-4.065a.288.288,0,0,0,.049.008l-.008.016v.065l-.041-.008Zm-.39.585a.04.04,0,0,0,.024.008v.008l-.008.024c-.008,0-.016-.008-.016-.024Zm-.179.537h.008c.016,0,.041.049.073.163-.089.057-.13.089-.13.1a.166.166,0,0,1-.065-.065A1.019,1.019,0,0,0,7.766-2.943ZM7.6-2.658h.1l.016.073V-2.5c-.016.024-.024.033-.033.033H7.619c-.016,0-.033-.033-.041-.106v-.033Zm-.764.634.016-.049a1.217,1.217,0,0,0,.374-.106c.033.033.049.049.049.057s-.008.016-.041.033L7.18-2.105a.9.9,0,0,1-.341.081Zm-.341.13c0-.081.081-.146.252-.187a.065.065,0,0,1,.049.073.559.559,0,0,0-.293.114Zm1.472-.041c0-.041.154-.065.455-.1h.033a1.446,1.446,0,0,1,.276.065.637.637,0,0,1,.317.382.088.088,0,0,1-.057-.024.966.966,0,0,0-.358-.2H8.6a.121.121,0,0,0-.057.008.532.532,0,0,1-.154.081A1.945,1.945,0,0,1,7.961-1.935Zm-.943-.041h.008v.016H7.018Zm-.74.065a.606.606,0,0,1,.154-.057h.008q-.073.1-.122.1a.262.262,0,0,0,.016.1l-.057.008a.207.207,0,0,1-.057-.016l.057-.065ZM6.026-1.8a.414.414,0,0,1,.187-.122v.041a1.052,1.052,0,0,0-.154.2l.041.106v.008a6.2,6.2,0,0,1-.594.187A.3.3,0,0,0,5.44-1.39v-.057L5.66-1.5c0,.008,0,.008.008.008H5.7A2.014,2.014,0,0,0,5.928-1.6a.074.074,0,0,1,.041.024l.049-.008v-.057a.277.277,0,0,0-.2-.122H5.782a.083.083,0,0,0-.041.065.53.53,0,0,0-.236.171l-.089-.057c-.008,0-.024.024-.041.073H5.367a.1.1,0,0,0-.033-.073c-.016,0-.024.024-.041.081,0,.057-.073.1-.211.122H5.066V-1.39a1.2,1.2,0,0,1,.114-.171,1.311,1.311,0,0,1,.528-.26C5.888-1.813,5.993-1.8,6.026-1.8Zm.683.041h.008q0-.061.537-.146l-.041.179a1.037,1.037,0,0,1-.154-.008,1.746,1.746,0,0,1-.366.057H6.684A.017.017,0,0,1,6.668-1.7a1.72,1.72,0,0,0-.285.057H6.375v-.016l.008-.073a.762.762,0,0,0,.244-.081Zm-.52.106H6.2v.016H6.188Zm-.049.081c.008-.024.024-.033.033-.033h.016v.033ZM7.554-1c-.033,0-.049.049-.057.146l.008.016q.073,0,.073-.146A.017.017,0,0,0,7.563-1Zm-.463.049L7.05-.918a1.948,1.948,0,0,0-.13.626v.024c0,.106.016.163.033.163h.008a.9.9,0,0,1,.073-.13.531.531,0,0,1-.016-.089.141.141,0,0,1,.049-.089V-.5a1.69,1.69,0,0,1,.049-.341L7.107-.951Zm.415.22c-.041,0-.057.033-.057.089a.537.537,0,0,1-.049.22v.016h.041c.024-.016.041-.024.041-.041V-.52a.848.848,0,0,0,.041-.138V-.715Zm-.252.187V-.5l.016.024C7.294-.487,7.3-.5,7.3-.5V-.52c-.008-.016-.016-.024-.033-.024Zm.154.2a.333.333,0,0,0-.073.228c0,.016.024.049.081.089h.033a.059.059,0,0,0,.033-.057V-.105c0-.008-.024-.024-.073-.065l.049-.122Q7.42-.341,7.408-.341ZM7.221-.26l-.065.041a.146.146,0,0,0,.033.073c.016,0,.033-.033.041-.089ZM3.66-.105c0-.008.016-.016.065-.033.073-.057.122-.089.154-.089h.008V-.17l-.008.057c-.081.089-.154.171-.22.252a1.117,1.117,0,0,1-.228.439c-.041,0-.081.065-.114.2a4.248,4.248,0,0,0-.309.528,1.572,1.572,0,0,0-.211.228,1,1,0,0,1-.179.293c-.114.154-.5.756-1.187,1.821a5.72,5.72,0,0,0-.366.553c-.171.138-.26.26-.26.366a.453.453,0,0,0-.163.2c-.081.073-.122.114-.122.13a.224.224,0,0,1-.252.187c0-.049.016-.081.041-.089a.474.474,0,0,0,.13-.26c0-.024.447-.707,1.358-2.049V2.675l-.146.016a.155.155,0,0,1-.081-.041.062.062,0,0,0-.041.016c-.22.285-.488.7-.821,1.228a2.923,2.923,0,0,1-.642.8c-.106.171-.179.26-.228.26H-.178c.211-.439.358-.667.431-.691l.463-.724c.626-1,1.065-1.659,1.325-1.984C2.18,1.318,2.473.862,2.92.2c0-.089.089-.163.268-.236A.473.473,0,0,1,3.3-.016V.017c-.024,0-.049.024-.081.073V.13a.9.9,0,0,0,.13-.073c.073-.106.13-.163.154-.163h.008A.23.23,0,0,1,3.4.09c-.065.171-.122.26-.163.26A.089.089,0,0,1,3.188.326H3.172L3.188.4V.423A1.147,1.147,0,0,0,3,.732l.008.016c.041-.016.065-.033.065-.041A2.487,2.487,0,0,0,3.432.2c.081,0,.163-.081.236-.244A.3.3,0,0,1,3.66-.105ZM7.026.269V.334a.467.467,0,0,1-.008.1L7.05.488a.08.08,0,0,1-.057.041V.521c-.008,0-.016.008-.016.024V.586c.008,0,.041-.008.114-.024A.23.23,0,0,1,7.18.374C7.1.3,7.058.269,7.058.269ZM3.009.4c-.033,0-.049.024-.057.065a.3.3,0,0,0,.089.024A.008.008,0,0,1,3.05.48Zm-.073.13A.085.085,0,0,0,2.9.6l.016.024C2.969.618,3,.6,3,.586V.529Zm4.09.114c-.041.016-.073.089-.114.228-.024.276-.057.415-.089.415a1.21,1.21,0,0,0,.016.187.1.1,0,0,0-.016.057.408.408,0,0,0,.024.114h.016c.008,0,.024-.041.057-.122a1.705,1.705,0,0,1,.106-.5A.618.618,0,0,1,7.018.911V.854A.245.245,0,0,1,7.067.74.225.225,0,0,0,7.026.643Zm-4.033.2c-.065,0-.114.065-.138.187a3.166,3.166,0,0,0-.236.317c-.024.073-.106.106-.228.106l-.049-.033a.108.108,0,0,0-.024.057c-.114.089-.171.163-.171.211l.008.024c-.057.008-.081.024-.081.041,0,.041.024.065.065.089h.024a.157.157,0,0,0,.1-.049v.016c0,.041-.008.057-.024.057l-.089.049v.114a1.4,1.4,0,0,0-.26.415V2.48H1.92c0-.033.089-.138.26-.3A.173.173,0,0,1,2.3,2.009a1.454,1.454,0,0,1,.2-.4c.1,0,.163-.089.187-.285A.715.715,0,0,0,2.863,1.1.7.7,0,0,0,3,.87.061.061,0,0,0,2.993.838Zm4.114.252c0,.008-.008.041-.016.081,0,.065.024.106.065.106a.017.017,0,0,1,.016-.016c-.024-.114-.041-.171-.057-.171ZM2.5,1.252c-.041,0-.065.016-.073.041a.115.115,0,0,0,.065.1c.024-.024.041-.033.041-.049V1.277a.022.022,0,0,0-.024-.024Zm-.268.415c0-.008.033-.033.106-.081h.057a.386.386,0,0,1-.081.2A.555.555,0,0,1,2.229,1.667Zm4.618.016a.322.322,0,0,0-.041.057,1.03,1.03,0,0,1-.057.366c0,.024.008.041.041.057a.088.088,0,0,0,.057-.024,1.265,1.265,0,0,0-.008-.163A1.52,1.52,0,0,1,6.9,1.74V1.716c-.016-.016-.024-.033-.033-.033Zm.2.057c-.016,0-.024,0-.024.016v.008a.022.022,0,0,0,.024.024c.008,0,.016-.008.016-.024V1.74Zm.106,0a.088.088,0,0,0-.057.041.6.6,0,0,0,.049.163h.008c.033,0,.041-.049.041-.154V1.765C7.2,1.757,7.189,1.748,7.156,1.74Zm0,.309c-.016,0-.024.016-.024.057v.081l.008.024c.024,0,.033-.049.041-.146C7.172,2.066,7.164,2.057,7.156,2.049Zm-5.317.163a.05.05,0,0,1-.033.016.13.13,0,0,0,.024.065c.033-.008.049-.016.049-.033V2.253C1.863,2.228,1.847,2.212,1.839,2.212Zm-.317.764c0-.057.016-.089.024-.089a.648.648,0,0,1-.008.089Zm5.618.016c-.024,0-.033.041-.033.114v.081a.271.271,0,0,0,.073.2h.008V3.383Q7.189,2.992,7.14,2.992ZM.294,4.529c0-.016.016-.024.041-.033.008,0,.016.008.024.033,0,.008-.008.016-.016.033L.294,4.545ZM17.648-12.2c-.366,0-.748.415-1.122,1.252-.114.276-.472,1.236-1.065,2.886Q13.583-2.837,12.526.391a9.079,9.079,0,0,0-.48,1.48.417.417,0,0,0,.081.244.638.638,0,0,0,.52.276q.171-.024.171-.049c.073,0,.187-.211.333-.618A3.852,3.852,0,0,1,13.916.7c1.455-1.48,2.577-2.211,3.366-2.211h.008a.431.431,0,0,1,.48.5,1.949,1.949,0,0,1-.13.634,3.677,3.677,0,0,1-.366.829c-.512.252-.813.415-.911.48h-.008V.919L16.38.878V.87h-.016c-.016,0-.024,0-.024.008-.1.016-.146.049-.146.089a.137.137,0,0,0,.016.041v.008q-.451.293-.854.585c-.992.732-1.5,1.285-1.5,1.667,0,.024.008.057.008.106.106.252.35.382.756.382A2.68,2.68,0,0,0,15.03,3.7a3.674,3.674,0,0,0,1.179-.8A12.4,12.4,0,0,0,17.38,1.757,3.278,3.278,0,0,0,18.1.553,4.471,4.471,0,0,1,19.152.391h.008q.293,0,.488.39c.024.106.065.163.122.163s.073-.033.073-.1a.677.677,0,0,0-.276-.577,1.561,1.561,0,0,0-.837-.285,1.164,1.164,0,0,0-.5.081h-.008a3.775,3.775,0,0,0,.057-.618,2.107,2.107,0,0,0-.3-1.171,1.617,1.617,0,0,0-1.228-.667h-.065a3.365,3.365,0,0,0-2.163,1.3c-.52.585-.829.927-.927,1.033h-.008c.285-.789.423-1.187.423-1.2a2.006,2.006,0,0,1,.358-.667c.211-.236.39-.447.545-.65A18.815,18.815,0,0,0,16.6-5.317,20.707,20.707,0,0,0,17.746-8.13a13.518,13.518,0,0,0,.6-3.073,1.518,1.518,0,0,0-.13-.691.623.623,0,0,0-.512-.3Zm.163.886c0-.073.016-.122.057-.146a.547.547,0,0,1,.033.2c-.065.813-.13,1.22-.211,1.22h-.008v-.033c.089-.618.13-1,.13-1.13ZM15.12-4.154h-.008c.585-1.8.9-2.764.959-2.9.285-.927.585-1.8.911-2.634A5.569,5.569,0,0,1,17.64-11.1v.146a8.153,8.153,0,0,1-.415,1.984A5.6,5.6,0,0,1,16.9-7.854c-.106.252-.163.423-.2.512-.081.211-.447,1-1.089,2.366a2.321,2.321,0,0,1-.3.528Q15.193-4.154,15.12-4.154Zm1.862-6.561c.033-.057.057-.081.081-.081v.057c0,.033-.024.057-.057.081A.108.108,0,0,1,16.982-10.716Zm-.276-.016c.016-.024.024-.041.033-.041a.288.288,0,0,0,.008.057l-.041-.008Zm-.057.488.033-.008a1.4,1.4,0,0,0,.228-.268v.024a.412.412,0,0,1-.016.073,1.17,1.17,0,0,0-.154.309.036.036,0,0,1,.008.024.161.161,0,0,1,.081-.016A.184.184,0,0,1,16.8-10q-.061.317-.122.317a2.443,2.443,0,0,1-.228.6,1.182,1.182,0,0,1-.171.415c-.228.61-.39,1.089-.5,1.423-.008.106-.033.154-.065.154-.033.081-.106.3-.211.667a4.971,4.971,0,0,0-.317.878l-.154.439a.131.131,0,0,0,.073.024c0,.008-.024.024-.073.065-.041,0-.122.236-.252.7a1.065,1.065,0,0,1-.179.455c0,.024.016.041.057.057l-.024.073a.156.156,0,0,1-.114.154.169.169,0,0,1-.049-.081.692.692,0,0,0,.057-.13.3.3,0,0,0-.024-.089H14.5a1.955,1.955,0,0,0-.13.35l.008.016a.159.159,0,0,0,.057-.008A.162.162,0,0,1,14.5-3.5l-.146.447H14.29a.338.338,0,0,0,.065-.13.157.157,0,0,0-.041-.089.187.187,0,0,0-.073.024l.008.049c-.008.041-.049.057-.106.057-.041,0-.081.049-.122.154-.073.154-.13.228-.187.228h-.016a4.358,4.358,0,0,0,.163-.415c.374-1.244.829-2.594,1.366-4.065.5-1.39.854-2.3,1.065-2.74h.008c0,.057,0,.089.008.089l.065-.049c.041-.106.073-.154.081-.154l.049.033a.2.2,0,0,0,.065-.089A.279.279,0,0,0,16.648-10.244Zm-.13-.049a.017.017,0,0,1,.016.016.212.212,0,0,1-.073.187v-.065A.285.285,0,0,1,16.518-10.293ZM17.656-10h.008l.041.033a1.741,1.741,0,0,1-.089.293H17.6A3.033,3.033,0,0,1,17.656-10Zm-1.317.341a.71.71,0,0,0-.041.106h.008a.106.106,0,0,0,.049-.1v-.008Zm-.106.22-.008.041a.017.017,0,0,0,.016.016l.024-.016-.008-.041Zm1.3.089h.008a.049.049,0,0,0,.008.033,1.633,1.633,0,0,1-.13.463,5.046,5.046,0,0,1-.171.618,5.4,5.4,0,0,1-.333.813c-.122.317-.2.472-.236.472-.016.163-.041.236-.065.236h-.057v-.008a3.659,3.659,0,0,1,.3-.724,9.813,9.813,0,0,1,.382-1.016A8.606,8.606,0,0,1,17.534-9.35Zm-1.374.1-.024.016a.068.068,0,0,0,.033.057c.008,0,.024-.016.033-.041-.008-.024-.024-.033-.033-.033ZM16.1-9.1c-.016,0-.016.008-.016.016v.024c.008.024.024.033.033.033l.016-.008C16.12-9.073,16.112-9.1,16.1-9.1Zm-.041.691a2.494,2.494,0,0,0-.211.569v.008h.016a1.651,1.651,0,0,0,.211-.569v-.008Zm1.447.228a.062.062,0,0,1,.049-.065l-.041.106H17.51Zm-1.642.415a.054.054,0,0,0-.057.033V-7.7h.033c.008,0,.016-.024.033-.057A.008.008,0,0,1,15.868-7.764Zm-.081.2-.057.016a1.7,1.7,0,0,1-.081.244v.008c.049,0,.089-.089.138-.26Zm1.325.488a.5.5,0,0,1,.179-.39H17.3c-.089.268-.146.407-.187.407ZM15.648-7.26a1.514,1.514,0,0,0-.179.5c-.163.431-.252.691-.276.772q-.207.634-.268.756a2.531,2.531,0,0,1-.179.537,3.049,3.049,0,0,0-.2.659c0,.008,0,.016.016.033.008,0,.024-.033.057-.1q.793-2.329.829-2.415a6.587,6.587,0,0,1,.228-.707Zm1.431.293a.115.115,0,0,1,.024-.041l.008.049v.008c-.008-.008-.016-.008-.033-.008Zm-.577.325h.081l.016.008a.218.218,0,0,0-.041.089c-.041-.024-.057-.041-.057-.049Zm-.106.309c.033-.057.049-.089.057-.089h.008v.033a.051.051,0,0,1-.057.057Zm.366.041a.116.116,0,0,1,.049-.1c.008,0,.016.016.033.049,0,.016-.008.024-.016.024s.008.033.016.073h-.081Zm-.024.089h.008a.049.049,0,0,1,.024.049v.008h-.016c-.008,0-.016,0-.016-.016Zm-.163.333a.147.147,0,0,1,.114-.146v.065c0,.033-.033.073-.106.122h-.008ZM15.38-6h.008a.049.049,0,0,1,.024.049v.008H15.4a.017.017,0,0,1-.016-.016Zm.911.748a.238.238,0,0,1,.065-.154.83.83,0,0,1,.171-.3h.008a.225.225,0,0,1-.041.1,2.1,2.1,0,0,1-.2.423H16.29Zm-.3.569H16a.049.049,0,0,1,.024.049v.016h-.016a.017.017,0,0,1-.016-.016Zm-1.431.065c-.008,0-.024.016-.041.049v.008h.008c.008,0,.016-.016.041-.049v-.008Zm-.2,1.138a.393.393,0,0,0-.065.138v.008h.016c.057,0,.081-.024.081-.065C14.38-3.455,14.372-3.479,14.355-3.479Zm1.4,2.024a.986.986,0,0,1,.317-.22.274.274,0,0,1,.211-.1v.008a2.857,2.857,0,0,1-.52.309ZM12.372,1.513a.347.347,0,0,1,.065-.187,15.853,15.853,0,0,1,.626-2.114,1.106,1.106,0,0,1,.252-.553h.008c-.073.309-.187.683-.333,1.122a.735.735,0,0,1-.049.228h.041C12.99.009,13,.009,13,0c.016,0,.024.016.041.049a.077.077,0,0,1-.049.057h-.016q-.024-.012-.024-.024c-.024,0-.041.016-.057.049A.063.063,0,0,1,12.9.155c.049.016.073.024.073.033V.228a.618.618,0,0,1-.008.114c0,.024-.057.065-.171.114a.384.384,0,0,0,.057.13l-.041.138A.137.137,0,0,0,12.77.708V.683L12.729.659a.008.008,0,0,1-.008.008.6.6,0,0,1,.016.1l-.008.016L12.689.773h-.008q-.024,0-.024.049V.838A.076.076,0,0,0,12.7.9h.008V.878h.049c-.016.065-.033.1-.033.106q-.024.146-.1.146l-.016-.041c.008,0,.016-.008.024-.008V1.065l-.024-.033c-.041,0-.065.089-.089.252-.057.179-.1.285-.138.309l-.016-.057ZM13.445-.861A.417.417,0,0,1,13.5-1c.016-.122.041-.179.081-.179h.008l-.122.325h-.008Zm1.407.2c0-.041.016-.057.041-.057.081-.065.122-.1.138-.1h.008A.333.333,0,0,1,14.851-.658ZM12.9.773c0-.041.008-.065.008-.1,0-.016.057-.2.163-.537.089-.211.171-.439.244-.659q.085-.268.122-.268h.008a.634.634,0,0,1-.122.341A4.018,4.018,0,0,1,12.9.773ZM17.876.1h.008a.2.2,0,0,1,.041.057.045.045,0,0,1-.049-.033Zm.618.317.041-.008V.423c0,.008-.008.016-.041.024ZM12.77.529c-.024.016-.033.024-.033.033V.578l.024.041c.024,0,.041-.008.049-.041a.059.059,0,0,0-.033-.049ZM17.1.651a.856.856,0,0,1,.073-.065h.008V.594c-.024.057-.049.081-.057.081S17.1.659,17.1.651Zm-1.016.569a.556.556,0,0,0,.154-.065.187.187,0,0,1,.138-.1,2.372,2.372,0,0,1,.236-.2.539.539,0,0,1,.325-.1l.089-.114h.016l.024.016a.008.008,0,0,1-.008.008l-.033.179L16.884.822h-.1c-.008,0-.016.016-.024.057-.065.057-.1.106-.1.13A.227.227,0,0,1,16.583,1c-.016,0-.016.008-.016.016l.008.041-.057-.041-.016.008.024.081v.016l-.211.114c-.033-.008-.049-.016-.057-.016V1.212l.041-.065c-.008,0-.008,0-.008-.008a.57.57,0,0,0-.163.1.143.143,0,0,1-.049-.008Zm.577-.146A.424.424,0,0,1,16.827,1c.081-.065.122-.1.146-.1h.008c-.057.049-.081.073-.081.081a.8.8,0,0,1-.228.1h-.016ZM14.632,2.862a.3.3,0,0,1,.073-.146,8.169,8.169,0,0,1,.837-.74,14.391,14.391,0,0,1,1.333-.943h.008a3.4,3.4,0,0,1-.407.488,8.116,8.116,0,0,1-1.049.959,1.347,1.347,0,0,1-.74.415h-.033c-.016-.016-.024-.016-.024-.024Zm1.52-1.512c.033-.041.049-.057.049-.057q0,.073-.049.073Zm-.211,1.057V2.4q0-.049.22-.22a4.126,4.126,0,0,1,.569-.545h.008l-.057.179a.137.137,0,0,1,.024.081l-.081.081h-.008a.2.2,0,0,0-.024-.065.2.2,0,0,0-.089.033A2.247,2.247,0,0,1,15.941,2.407Zm.821-.659h.049l.008.041H16.77Zm-.537.61a.061.061,0,0,0,.008-.033c0-.041.081-.114.228-.22a.392.392,0,0,0,.065-.1h.041v.008a1.563,1.563,0,0,1-.171.22A.161.161,0,0,1,16.225,2.358Zm-1.268.862a.513.513,0,0,1,.106-.114.691.691,0,0,0,.26-.211c.081-.041.122-.073.122-.089a2.5,2.5,0,0,1,.48-.374c0,.024-.041.073-.114.154-.041.1-.1.146-.163.146a1.906,1.906,0,0,0-.268.244c0,.024.024.049.065.081v.008l-.236.1c-.041.041-.073.065-.089.065h-.163Zm.935-.561H15.9a2.181,2.181,0,0,1-.2.228q-.024-.012-.024-.024Zm-.528.374a.184.184,0,0,0-.163.073v.016h.041a.2.2,0,0,0,.138-.073A.017.017,0,0,0,15.364,3.033Zm7.557-.122a2.452,2.452,0,0,0,1.366-.585,5.811,5.811,0,0,0,.9-.8A3.688,3.688,0,0,0,26.344-.666c.089-.033.252-.073.48-.13a3.655,3.655,0,0,0,.951-.333q0-.012-.049-.024a.258.258,0,0,1-.187.073,1.72,1.72,0,0,1-.382.106.153.153,0,0,1-.065-.016q.159-.085.756-.317a.588.588,0,0,0,.3-.089q.293-.061.293-.1l-.1-.008-.016.041a.13.13,0,0,1-.065-.024.585.585,0,0,1-.211.065.262.262,0,0,1-.146.049L27.88-1.39a1.125,1.125,0,0,1-.252.057.56.56,0,0,1-.106-.016c-.008,0-.016,0-.016.016,0,.065-.1.114-.293.138a1.454,1.454,0,0,1-.39.089.287.287,0,0,1-.114-.024l.008-.024A.138.138,0,0,0,26.8-1.2l-.008-.008c-.1.008-.276.033-.537.081L26.2-1.244a2.651,2.651,0,0,0-.52-.683,1.952,1.952,0,0,0-.748-.48l.016-.033q.22-.183.22-.293a.431.431,0,0,0-.089-.22.6.6,0,0,0-.431-.171h-.057a1.627,1.627,0,0,0-.992.537,6.572,6.572,0,0,0-.715.886,3.935,3.935,0,0,0-.748,1.61.112.112,0,0,0,.041.073.307.307,0,0,1-.089.26l-.016-.2h-.016l-.008.057a4.7,4.7,0,0,0-.268,1.342,1.34,1.34,0,0,0,.488,1.146A.906.906,0,0,0,22.921,2.911ZM22.7-1.04l-.033-.008V-1.1c0-.008.049-.1.138-.26a3.07,3.07,0,0,1,.528-.8c.154-.22.276-.358.382-.39a.236.236,0,0,0-.041.081c-.073.073-.341.439-.8,1.081A1.566,1.566,0,0,1,22.7-1.04Zm1.911-1.2H24.6V-2.26H24.6Zm.382,1.252a.933.933,0,0,1-.52-.13c-.146-.033-.22-.163-.22-.4,0-.171.033-.252.089-.252a.052.052,0,0,1,.041.049H24.4v-.033a.4.4,0,0,1,.008-.1c-.008,0-.024.008-.049.033-.008,0-.016-.008-.024-.033.057-.154.106-.228.163-.228l.008.057h.008a.242.242,0,0,1,.114-.041c.154,0,.366.138.642.415a1.615,1.615,0,0,1,.407.6A4.778,4.778,0,0,1,24.994-.983Zm-.528-.179a1.517,1.517,0,0,1-.073-.5h-.016a.638.638,0,0,0-.016.179.647.647,0,0,0,.016.211c.033,0,.065.033.073.106Zm4.1-.374c.089-.008.138-.033.138-.081,0-.008-.024-.024-.065-.033s-.073.041-.081.106Zm-.106-.008c.008,0,.016-.008.016-.024s-.008-.016-.016-.024-.016.008-.016.024S28.45-1.544,28.458-1.544Zm.065.049a.049.049,0,0,0,.049-.024l-.089-.024a.017.017,0,0,0-.016.016C28.474-1.5,28.49-1.5,28.523-1.5Zm-1.39.228.016-.008a.017.017,0,0,0-.016-.016H27.1C27.108-1.276,27.116-1.268,27.132-1.268Zm-.122.041.024-.008v-.016l-.016-.024c-.024.008-.033.016-.033.041ZM22.945,2.3,22.7,2.285A2.49,2.49,0,0,1,22.6,1.7a2.82,2.82,0,0,1,.22-.968,12.525,12.525,0,0,1,.5-1.276,5.171,5.171,0,0,1,.415-.715,1.111,1.111,0,0,0,.081.22,1.233,1.233,0,0,0,1.228.585,3.016,3.016,0,0,0,.6-.057,2.44,2.44,0,0,1-.48,1.024,5.019,5.019,0,0,0-.366.512.008.008,0,0,1,.008.008l.073-.024a2.079,2.079,0,0,1,.22-.2c.057.008.081.024.081.049q.061,0,.1-.1A4.982,4.982,0,0,0,25.9-.544c0-.016.057-.033.154-.049h.008v.049a4.531,4.531,0,0,1-.325.878c-.114.146-.2.276-.285.39-.089.081-.13.146-.13.211-.057.016-.081.033-.081.049l.057.033v.008a.032.032,0,0,0-.016.033l-.024-.008c-.024,0-.033,0-.033.008-.081,0-.13.073-.154.228l-.1-.008a1.724,1.724,0,0,0-.114.171c-.065.033-.089.057-.089.089l.049.073a.317.317,0,0,0-.114-.016c-.187.1-.285.179-.285.244l.024.106a.209.209,0,0,0-.106-.073c-.016,0-.033.049-.057.154-.033-.024-.049-.041-.057-.041h-.1c.2-.22.3-.341.309-.358.089-.065.13-.114.13-.171-.024,0-.065.024-.122.081-.382.358-.659.537-.813.537A2.643,2.643,0,0,1,22.945,2.3Zm3.927-3.512v-.008l-.033-.008a.008.008,0,0,1-.008.008C26.832-1.211,26.848-1.211,26.872-1.211Zm.959.057.057-.008c0-.008,0-.016-.016-.024l-.049.016ZM25.9-1.065h-.008l.008-.024Zm.4.016q.012-.024.024-.024Q26.307-1.048,26.295-1.048ZM22.9-.487V-.593c0-.008.016-.016.057-.041C22.961-.536,22.937-.487,22.9-.487Zm-.333.65h-.016a.585.585,0,0,0,.065-.22h.089L22.7,0C22.685.106,22.644.163,22.571.163Zm-.309.935a.126.126,0,0,0-.024-.049,1.479,1.479,0,0,1,.089-.341C22.368.5,22.4.4,22.433.4a.819.819,0,0,1,.016.154.063.063,0,0,0-.057.065c0,.008.008.033.016.089l-.033.114C22.376.976,22.335,1.065,22.262,1.1Zm.22-.3L22.49.716c.024.024.041.033.049.033V.765ZM22.5,1a.2.2,0,0,1-.106-.033A.476.476,0,0,0,22.5.854Zm2.073.447A.288.288,0,0,0,24.7,1.4c.236-.2.358-.366.358-.512h-.008l-.114.138a.164.164,0,0,1-.163.138.322.322,0,0,1-.057-.041,1.114,1.114,0,0,0-.154.22Zm-2.122-.341V1.041h.008l.008.041C22.465,1.1,22.457,1.106,22.449,1.106Zm-.154.756a.4.4,0,0,1-.024-.1c.024-.2.041-.317.041-.35.033-.114.057-.187.057-.2l-.008-.049a.34.34,0,0,1,.073-.024,1.385,1.385,0,0,1-.024.3C22.384,1.724,22.352,1.862,22.295,1.862Zm-.154.293a.62.62,0,0,1-.122-.431,2.446,2.446,0,0,1,.065-.5c.089,0,.13.041.13.114s-.024.309-.073.691c.008.057.016.089.033.089C22.165,2.139,22.148,2.155,22.14,2.155Zm2.236-.146c-.024-.008-.033-.016-.033-.033l.049.008a.03.03,0,0,1,.024-.008v.016C24.4,1.992,24.392,2,24.376,2.009Zm-.26.179V2.163c0-.041.024-.057.081-.057A.073.073,0,0,1,24.116,2.187Zm-1.707.065h-.033l.008-.122h.024ZM34.966-3.276l-.024.008c-.138.073-.2.146-.2.2a1.6,1.6,0,0,0-.13.171c-.016.13-.024.2-.041.2a1.4,1.4,0,0,1-.13.382v.033l.008.016c-.008,0-.016.024-.024.089-.057.033-.081.065-.081.073a.121.121,0,0,0,.016.073l-.065.089v.033L34.3-1.9c.033-.008.057-.016.057-.041h.008v.024a1.213,1.213,0,0,1-.2.415c-.024.089-.049.13-.073.13a1.307,1.307,0,0,1-.154.252c-.041.13-.073.187-.089.2a.792.792,0,0,0-.081.122.312.312,0,0,1-.065.138,1.949,1.949,0,0,1-.211.317.733.733,0,0,1-.163.252.978.978,0,0,1-.179.285C33.08.293,33.023.35,33,.35a.131.131,0,0,1,.033-.081V.228a.153.153,0,0,1-.073.033.5.5,0,0,0-.106.146.126.126,0,0,0,.024.049.234.234,0,0,0,.106-.073h.008V.4a.8.8,0,0,1-.106.154h-.016V.5A.017.017,0,0,0,32.852.48h-.008L32.82.5V.48h-.008c-.057.081-.114.154-.171.228a3.754,3.754,0,0,1-.715.829c-.358.415-.618.618-.8.618H31.12a.138.138,0,0,1-.057-.008c-.122-.057-.179-.228-.179-.52V1.553a7.542,7.542,0,0,1,.138-1.2A9.381,9.381,0,0,1,31.4-1a12.2,12.2,0,0,1,.52-1.374,1.757,1.757,0,0,0,.179-.512v-.008A.3.3,0,0,0,32.088-3a.449.449,0,0,0-.4-.268.9.9,0,0,0-.5.138c-.033,0-.106.138-.211.415l-.268.634c-.065.26-.122.5-.187.724a9.323,9.323,0,0,0-.618,2.667v.073c0,.065,0,.1.008.1a1.385,1.385,0,0,0,.439.854,1.415,1.415,0,0,0,.927.4h.024a.713.713,0,0,0,.39-.171,1,1,0,0,0,.358-.228,6.02,6.02,0,0,0,.781-.87V1.448a1.762,1.762,0,0,0-.236.236,1.575,1.575,0,0,0-.26.244c0,.057-.089.089-.26.1V2.017a1.662,1.662,0,0,0,.26-.2,5.947,5.947,0,0,0,.65-.683,13.36,13.36,0,0,0,.935-1.366h.008v.008A1.334,1.334,0,0,0,33.852.3a1.4,1.4,0,0,0,.13.618,1.145,1.145,0,0,0,1.122.65h.008a2.336,2.336,0,0,0,1.236-.382c.122-.106.179-.171.179-.2A1.481,1.481,0,0,0,36.9.586c0-.008,0-.016-.016-.016a.366.366,0,0,0-.073-.138c.008-.041.016-.057.016-.065A.017.017,0,0,0,36.812.35a.146.146,0,0,0-.073.033.726.726,0,0,1-.2.211L36.519.586l.008-.033c.081-.065.122-.122.122-.163V.374h-.016a.152.152,0,0,0-.081.041,2.657,2.657,0,0,1-.439.358c-.016.033-.049.041-.106.041q0,.037-.146.1c-.146.016-.22.041-.22.057l.024.041c0,.008-.033.033-.106.073a1.222,1.222,0,0,1-.382-.057.614.614,0,0,1-.4-.634V.3a1.322,1.322,0,0,1,.1-.472.225.225,0,0,1-.008-.065,4.928,4.928,0,0,0,.146-.585c.2-.6.293-.911.293-.919a2.9,2.9,0,0,0,.171-.618v-.008L35.438-2.7V-2.78a.252.252,0,0,1,.041-.089c0-.008,0-.016-.016-.033l-.024.016h-.016c-.081-.114-.138-.179-.171-.179-.033.033-.049.049-.057.049s-.016-.016-.033-.057l.016-.024c-.024-.081-.041-.122-.065-.122H35.1c-.049.008-.081.016-.089.016h-.008A.159.159,0,0,0,34.966-3.276Zm.22.431c0-.008.016-.024.057-.041l.016.008c0,.008-.024.024-.065.033ZM35.1-2.17h.033c.008,0,.016,0,.016.008v.033l-.008.049a.263.263,0,0,1-.081.179v.041l.041.041-.073.049c0,.008.008.016.008.033-.016.057-.033.081-.049.081a1.064,1.064,0,0,1-.073.228,1.5,1.5,0,0,0-.089.309v.016l.008.016a.063.063,0,0,0,.024-.008h.008v.041a.71.71,0,0,1-.041.106c-.016,0-.016-.016-.016-.041h-.024a.622.622,0,0,1-.041.13.372.372,0,0,1-.041.122v.016c0,.016.008.016.016.016l.024-.016c.008-.089.024-.13.057-.13a.063.063,0,0,0,.008.024c-.008.024-.016.041-.024.041-.016.089-.081.35-.2.772l-.033-.033a.4.4,0,0,0,.024-.122l-.016-.024h-.008a2.561,2.561,0,0,0-.089.382c0,.008,0,.016.016.016s.041-.057.057-.154V.025h.016V.09a.369.369,0,0,1-.033.146A.062.062,0,0,1,34.47.22h-.008l-.033.016a.465.465,0,0,1-.081.276c.016.114.033.187.033.2a.355.355,0,0,1-.057.171L34.307.878a.437.437,0,0,0-.073-.211.053.053,0,0,0-.041.016,1.107,1.107,0,0,0,.008.13c-.049,0-.073-.049-.073-.138a.559.559,0,0,0,.024-.2.422.422,0,0,0-.024-.041.351.351,0,0,0,.033-.114c0-.033-.008-.057-.024-.057a1.22,1.22,0,0,0-.073.374l.008.041-.016.049h-.008c0-.008,0-.016-.016-.033a.664.664,0,0,0,.008-.114.5.5,0,0,0-.016-.146.709.709,0,0,0,.016-.163.193.193,0,0,0-.024-.122V.139a.151.151,0,0,0,.057-.016.457.457,0,0,1,.057-.187L34.1-.1l-.016.008c-.008.057-.016.089-.033.089h-.033a.229.229,0,0,0-.008-.065.218.218,0,0,1,.065-.13h.008c0,.016.008.024.016.024a.146.146,0,0,0,.057-.122,2.1,2.1,0,0,0,.081-.268,1.3,1.3,0,0,0,.1-.252l.106-.138v.008L34.4-.731v.008c0,.016,0,.016.016.016h.008l.016-.008-.008-.033c0-.016,0-.016.016-.016h.008l.041.008q.073-.024.073-.073a.529.529,0,0,0,.073-.211.635.635,0,0,0,.073-.171l-.008-.008a1.019,1.019,0,0,0,.073-.22.679.679,0,0,0,.081-.252c0-.024.033-.057.1-.114v-.008c0-.016,0-.024-.008-.033Zm-.341.089.016.008c-.016.081-.033.122-.041.122a.411.411,0,0,1-.041.154.063.063,0,0,1-.033-.033c.016,0,.033-.049.049-.138A.306.306,0,0,0,34.755-2.081Zm-3.439.22a.017.017,0,0,1,.016.016h-.016Zm2.894.049q-.024.012-.024.024v.008q.012.024.024.024h.016q.024-.012.024-.024C34.25-1.8,34.234-1.8,34.21-1.813Zm.22.724.065-.244c.049-.041.065-.122.065-.252.041-.122.073-.187.1-.187v.024l-.016.057v.057a.158.158,0,0,1-.008.065c-.049.122-.081.22-.114.309-.008.073-.024.106-.041.106v.041c0,.057-.016.081-.024.081h-.016l-.008-.041ZM34.08-1.6a.1.1,0,0,1-.049.081v.008c.016.024.024.033.033.033a.135.135,0,0,0,.041-.106V-1.6Zm-2.886.016.016.008c-.016.057-.041.089-.057.089A.135.135,0,0,1,31.193-1.585Zm2.829.154h-.016c-.016.049-.041.106-.065.163,0,.008.008.016.008.024h.024l.008-.049c.041-.041.065-.073.065-.1v-.016Q34.035-1.431,34.023-1.431Zm.927.033h.008v.016H34.95ZM31.974,1.984V1.976c.065-.073.138-.154.211-.252a2.124,2.124,0,0,1,.252-.358.674.674,0,0,1,.13-.179,1.574,1.574,0,0,1,.244-.309.545.545,0,0,1,.211-.333,4.357,4.357,0,0,1,.35-.528c.089-.171.138-.26.138-.26a2.155,2.155,0,0,1,.171-.276c.073-.154.122-.236.146-.236.065-.138.13-.244.171-.317a1.46,1.46,0,0,1,.211-.317,5.746,5.746,0,0,1-.122.61,3.256,3.256,0,0,0-.35.545A4.486,4.486,0,0,1,33.112.822a5.524,5.524,0,0,1-1.13,1.163Zm-.886-3.358H31.1a.262.262,0,0,0,.008.065c-.057.187-.089.285-.106.285-.016.1-.033.146-.041.146V-.894h-.024v.033a.03.03,0,0,1,.024.008A.143.143,0,0,0,30.95-.8a.9.9,0,0,0-.073.187,1.572,1.572,0,0,0-.114.374,1.273,1.273,0,0,0-.122.423,1.144,1.144,0,0,0-.089.382,1.39,1.39,0,0,0-.065.35H30.47a.3.3,0,0,1,.016-.13c-.008-.008-.008-.016-.008-.033V.618L30.5.537V.48A.225.225,0,0,1,30.51.407a.807.807,0,0,0,.065-.22l.057-.268a.25.25,0,0,1,.081-.163V-.268a.9.9,0,0,1,.016-.146.478.478,0,0,0,.081-.2V-.666a.131.131,0,0,0,.041-.089c.049-.171.089-.26.114-.26A.746.746,0,0,1,31.088-1.374Zm2.789.228c-.024.016-.033.024-.033.033v.008q.012.024.024.024h.016c.008,0,.016,0,.016-.016V-1.13c0-.008-.008-.008-.016-.016Zm.642.415h-.041c-.033.1-.049.138-.057.138,0-.041-.008-.065-.016-.065h-.016c-.016,0-.024.024-.033.065a.03.03,0,0,0,.024.008c.008,0,.024.024.057.081-.024.073-.041.114-.057.114h-.008L34.34-.414c.016-.065.033-.106.033-.122V-.561h-.016a.534.534,0,0,0-.065.2l.016.024.016-.008h.041q.024.012.024.024v.008a.14.14,0,0,0-.016.065v.016H34.4a1.54,1.54,0,0,0,.13-.488Zm-.959.106c-.008,0-.008.008-.016.016l.008.016.024-.016C33.576-.618,33.576-.626,33.559-.626Zm1.114.016c-.016,0-.033.033-.041.089.008,0,.008,0,.008.008.024-.008.041-.024.041-.033V-.593Zm3.016.024-.163.171q-.049.146-.1.146v.016c.008.041.024.057.033.057h.008c.016,0,.033-.016.041-.057a2.126,2.126,0,0,0,.2-.309C37.706-.577,37.7-.585,37.69-.585Zm-4.2.065V-.5h.016V-.52Zm.642.089.016.008-.008.041h-.016a.03.03,0,0,0-.008-.024Zm-.683,0-.024.016a.389.389,0,0,1-.081.138v.033c.024,0,.065-.049.114-.163V-.431Zm.862.106h-.024a.611.611,0,0,0-.057.163v.057h.008a.266.266,0,0,0,.073-.211Zm.268.041c-.008,0-.016.016-.033.041l.016.008a.1.1,0,0,0,.024-.016V-.284ZM30.51-.211h.008l.008.041-.073.228h-.024V.049A.612.612,0,0,1,30.51-.211Zm6.887,0h-.016a1.3,1.3,0,0,1-.268.3L37.039.13V.171H36.99a.076.076,0,0,0-.065.049.017.017,0,0,0,.016.016h.041c.008.057.016.081.024.081h.041a.352.352,0,0,1,.114-.163.1.1,0,0,1,.106-.081c.033,0,.057-.033.081-.106l.089-.081A.2.2,0,0,0,37.4-.211Zm-3.041.024a.017.017,0,0,0-.016.016v.016l.016.024v.016c-.049.008-.073.065-.073.163q0,.012-.049.024L34.2.049h-.008a.072.072,0,0,0-.041.065.017.017,0,0,0,.016.016h.016L34.21.114c.024,0,.065.024.106.089h.008q.024-.012.024-.024V.147c0-.024-.008-.049-.008-.073,0-.008.008-.024.008-.033A.137.137,0,0,0,34.332,0c.024,0,.041-.057.041-.171C34.372-.178,34.364-.178,34.356-.187ZM33.3-.178a.175.175,0,0,0-.073.106.683.683,0,0,0-.146.22l.008.016a1.1,1.1,0,0,0,.228-.309V-.162C33.315-.17,33.307-.17,33.3-.178Zm3.846.024-.016.008.008.016.016-.008ZM37.1-.089v.008l.008.016a.017.017,0,0,0,.016-.016V-.089ZM34.242-.04c-.024.008-.041.016-.041.024A.017.017,0,0,0,34.218,0h.033V-.024ZM30.4.139c0-.033.008-.049.033-.057h.008V.114A.112.112,0,0,1,30.4.187Zm3.756.008V.155l.008.016.016-.008a.017.017,0,0,0-.016-.016Zm.309.179a.063.063,0,0,1,.024-.057V.3l-.008.041C34.462.342,34.462.342,34.462.326Zm2.4-.065c-.008,0-.016.016-.024.033a.03.03,0,0,0,.008.024c.024-.016.033-.033.033-.041s0-.008-.008-.016Zm-2.6.016q-.024.012-.024.024V.358a1.252,1.252,0,0,0-.024.13c0,.008.008.016.016.033a.184.184,0,0,0,.065-.154V.3q-.012-.024-.024-.024Zm-.634.016L33.608.3a.55.55,0,0,1-.1.154.1.1,0,0,0,.016.024h.008a.593.593,0,0,1,.1-.154V.309ZM36.942.35c-.008,0-.008.008-.016.016V.374c0,.016.008.016.016.016s.016,0,.016-.016V.366C36.958.358,36.958.35,36.942.35Zm-.276.2c.049-.057.081-.089.106-.089C36.787.48,36.8.5,36.8.5s-.016.008-.016.033c0,.008.016.016.065.033V.6c0,.008-.033.033-.081.089h-.065c0-.016,0-.024.008-.033.033-.024.057-.041.057-.041V.57L36.763.553l-.081.024a.017.017,0,0,1-.016-.016ZM34.25.537c-.016,0-.033.024-.041.073V.618a.017.017,0,0,0,.016.016h.008c.008,0,.016-.033.024-.089C34.25.545,34.25.545,34.25.537Zm-3.96.016h.016l.016.057a.66.66,0,0,1-.041.114h-.008V.716C30.275.683,30.283.626,30.291.553ZM32.73.74V.724A.477.477,0,0,1,32.844.57h.008A.272.272,0,0,1,32.73.74ZM36.421.651h.024c0,.008-.008.016-.008.024h-.016ZM30.267.765q.024.012.024.024c0,.033-.008.049-.033.057A.251.251,0,0,0,30.267.765Zm2.4.008H32.7a.194.194,0,0,1-.065.13h-.008V.878A.116.116,0,0,0,32.665.773ZM33.3.781c-.008,0-.016.016-.033.049,0,.016.008.016.016.016.024-.008.033-.024.033-.033V.8C33.315.789,33.307.789,33.3.781ZM30.25.862h.008l.016.081a.514.514,0,0,1-.033.106h-.008l-.008-.041V.984A.4.4,0,0,1,30.25.862ZM34.21.9a.03.03,0,0,0,.024-.008c0,.016,0,.024.008.033-.008,0-.008.008-.008.024h-.016L34.21.911ZM33.218.895V.911h.016V.895Zm1.309.016c.016,0,.024.024.024.081a.413.413,0,0,1,.073.2c-.049,0-.081-.081-.1-.26ZM32.559.968a.055.055,0,0,1,.033-.049H32.6V.944c0,.008-.008.016-.041.033Zm3.293.138c.008-.033.073-.065.187-.1a.447.447,0,0,1,.154-.057H36.2V.976c-.008,0-.033.008-.065.016a1.164,1.164,0,0,1-.252.13.061.061,0,0,0-.033-.008Zm-1.61-.13c.024,0,.065.033.122.106v.033q-.012.024-.024.024h-.024q-.024-.012-.073-.146Zm-1.13.073-.024.016a.017.017,0,0,0,.016.016h.008c.016,0,.016-.008.016-.016S33.128,1.049,33.112,1.049Zm3.114.024h.024v.008h-.024Zm-.065.033h.016v.008h-.016ZM33.023,1.2a.4.4,0,0,0-.13.154c.049,0,.089-.049.138-.154Zm-2.813.041c0-.008.008-.008.016-.016h.008v.016Zm4.439-.008h.016a.062.062,0,0,0,.016.033v.008l-.033-.008Zm-.163.008q.024.012.024.024a.036.036,0,0,1-.024.008h-.008V1.252ZM43.58-10.325a1.012,1.012,0,0,0-.707.26,3.344,3.344,0,0,0-.561,1.236c-.285.943-.512,1.642-.667,2.09-.041.008-.276.041-.724.1a17.472,17.472,0,0,0-2.5.455,3.13,3.13,0,0,0-.7.26.234.234,0,0,0-.1.154.721.721,0,0,0-.089.154v.244l.016.024.057-.008h.016l.016.008c0,.033-.008.081-.016.154.033.065.065.106.114.106.033,0,.106-.057.228-.163q0-.061.488-.171c.041,0,.1.008.154.008s.106-.016.106-.024a2.034,2.034,0,0,0,.35-.073.715.715,0,0,0,.146.016.025.025,0,0,0,.016-.008.2.2,0,0,1,.154-.1c.016,0,.073,0,.171.008a1.021,1.021,0,0,0,.171-.073,4.232,4.232,0,0,0,.626-.106q.366-.024.366-.122c-.016-.008-.041-.024-.057-.033a.567.567,0,0,0-.13.065.053.053,0,0,1-.041-.016,1.658,1.658,0,0,0-.431.073h-.024a.845.845,0,0,1-.122-.016.7.7,0,0,0-.276.1.879.879,0,0,0-.39.073,1.728,1.728,0,0,0-.228-.049c-.024.016-.041.024-.041.033a3.655,3.655,0,0,0-.488.138.412.412,0,0,1-.106-.016.036.036,0,0,0-.024.008.63.63,0,0,0-.2.089.719.719,0,0,0-.268.057c-.033-.016-.057-.041-.057-.057s.049-.065.146-.106a.439.439,0,0,0,.13-.065c.008,0,.016.008.024.008a.116.116,0,0,0,.049-.016.176.176,0,0,1,.154-.1c.008,0,.024.016.041.049h.049c.008-.057.016-.081.041-.081h.008c.008.049.024.073.033.073h.049a.6.6,0,0,1,.163-.049.225.225,0,0,0,.073.008h.024c.024,0,.033,0,.041-.008a.3.3,0,0,0,.171-.1h.008a.182.182,0,0,1,.081.024c.154-.016.236-.041.236-.073.024,0,.057.008.1.008a.162.162,0,0,0,.065-.024.084.084,0,0,0,.033.008.954.954,0,0,1,.244-.041c.008,0,.033-.016.073-.057a.162.162,0,0,0,.065.024c.073,0,.106-.033.106-.1,0-.016-.008-.016-.016-.016h-.008l-.041.033h-.016c-.008,0-.024-.024-.049-.065a.225.225,0,0,0,.1-.041q.146-.012.146-.049h.024a.313.313,0,0,1,.089.073.022.022,0,0,0,.024-.024c0-.016.033-.033.1-.057,0-.008-.016-.024-.057-.041.008,0,.024-.008.065-.016.073.024.114.041.122.041l.138-.041c.041.008.057.024.057.049h.016q.024-.012.024-.024a.212.212,0,0,1,.089.024.22.22,0,0,0,.065-.024V-6.26l-.033-.008v-.016l.057-.008h.114a.721.721,0,0,0,.2-.049h.008a.116.116,0,0,1,.1.049c.049-.008.081-.016.089-.016A.229.229,0,0,1,41.5-6.3q0,.024-.073.049a.3.3,0,0,1-.065-.008l-.041.041H41.3Q41-6.207,41-6.171v.008c0,.008,0,.016.016.016h.049c.049,0,.171-.024.374-.057h.024a7.236,7.236,0,0,1-.285.813c-.285.935-.545,1.764-.781,2.5-.187.732-.341,1.268-.455,1.6a8.63,8.63,0,0,1-.236.959,10.28,10.28,0,0,0-.276,1.911v.211a1.622,1.622,0,0,0,.1.577.8.8,0,0,0,.781.553h.106a1.85,1.85,0,0,0,.431-.065,3.624,3.624,0,0,0,1.407-.8.9.9,0,0,0,.236-.333l-.008-.016a.063.063,0,0,1-.024.008c-.154.171-.252.252-.3.252h-.008c0-.008.008-.033.016-.065a1.488,1.488,0,0,0,.3-.276c.13-.146.3-.35.512-.618.081-.122.146-.187.187-.187.016-.065.033-.106.049-.106a.881.881,0,0,0,.22-.293,1.414,1.414,0,0,0,.317-.545c.073-.2.114-.3.114-.317a.017.017,0,0,0-.016-.016c-.049,0-.1.057-.163.171-.057.089-.236.358-.537.813h-.008a.28.28,0,0,0-.073.008H43.06c.057-.073.081-.114.081-.138-.016,0-.041-.016-.057-.057q.1-.037.1-.049V.285c-.016,0-.041-.016-.081-.049-.008,0-.041.024-.089.081V.358c0,.008.008.024.041.049V.415c0,.008-.024.016-.057.016a.4.4,0,0,1-.073.122V.561a.06.06,0,0,0,.016.049L42.93.651c0,.008-.089.1-.26.268a2.753,2.753,0,0,1-.26.285,1.573,1.573,0,0,1-.569.512c-.008,0-.016-.008-.024-.033a.092.092,0,0,0-.081.073,1.469,1.469,0,0,1-.9.553.475.475,0,0,1-.154-.033c-.154-.089-.228-.285-.228-.585V1.57a5.282,5.282,0,0,1,.1-.829A.639.639,0,0,1,40.653.3c.35-.626.691-1.342,1.041-2.138.431-.959.65-1.455.65-1.488q.207-.488.341-.878a10.984,10.984,0,0,0,.439-1.163c.081-.179.163-.439.268-.764,0,0,.008,0,.024.016h.033a.049.049,0,0,0,.049-.024v-.016l-.024-.033c-.041,0-.065.016-.065.049H43.4v-.008l.065-.154c.065,0,.1.008.1.016a.471.471,0,0,1,.252.049v.008l-.057.008h-.114l-.016.008c.016.041.033.065.041.065h.008a.677.677,0,0,1,.114-.033.088.088,0,0,1,.057.016l-.033.033v.016l.041.008a.968.968,0,0,1,.138-.024l.041.008h.089a.534.534,0,0,0,.106-.024c.163.024.366.041.618.057A.347.347,0,0,1,45-6.016c.008,0,.033-.016.073-.033A.226.226,0,0,0,45.182-6h.008a.187.187,0,0,0,.073-.024c.341.049.618.1.829.138.073,0,.106-.008.114-.016l.285.073h.057c.171-.033.26-.114.26-.236v-.057a.782.782,0,0,0-.423-.61,3.923,3.923,0,0,0-1.675-.211h-.333c-.211,0-.447.008-.724.024.187-.585.341-1.106.455-1.545a8.776,8.776,0,0,0,.22-1.333v-.057a.311.311,0,0,0-.041-.154.43.43,0,0,1-.106.049h-.008c-.033,0-.049-.049-.049-.13a.1.1,0,0,0-.106-.114L44-10.2a.036.036,0,0,1-.024-.008.492.492,0,0,0-.065-.106h-.008c-.008,0-.016.016-.033.041l-.016-.008a.376.376,0,0,0-.228-.049ZM43.426-6.9a8.07,8.07,0,0,0,.244-.821,8.971,8.971,0,0,0,.39-1.683c.024-.22.065-.325.106-.325h.016l.008.1v.073A5.123,5.123,0,0,1,44.019-8.5a11.977,11.977,0,0,1-.431,1.594,1.214,1.214,0,0,1-.154.008Zm-.675.057c.049-.138.081-.211.081-.211a11.834,11.834,0,0,1,.577-1.537,1.639,1.639,0,0,1,.285-.569H43.7v.041a.826.826,0,0,1-.057.2,1,1,0,0,1-.057.26c0,.008.008.016.008.024l-.024.122c-.073.276-.114.431-.114.455v.041L43.466-8c.033-.024.049-.049.049-.065h.008c.008,0,.016,0,.016.016v.106a.169.169,0,0,1-.057.122c-.041.179-.065.268-.089.268l.008.041a.5.5,0,0,1-.033.13h-.008q-.024,0-.024-.049v-.024c.024,0,.041-.008.041-.016V-7.5a.116.116,0,0,0-.016-.049.29.29,0,0,0,.073-.211.017.017,0,0,0-.016-.016c-.024,0-.041.049-.057.138a.607.607,0,0,0-.073.268.5.5,0,0,1,.008.106v.106c-.008.049-.016.081-.033.081h-.008V-7.1h-.016v.065l-.016-.008c-.008,0-.016,0-.016.016a.285.285,0,0,1,.016.081v.008l-.008.041a1.667,1.667,0,0,1-.455.049Zm1.041-1.594H43.8v.016a1.128,1.128,0,0,1-.073.333c-.008,0-.016-.008-.024-.033l.033-.122A1,1,0,0,0,43.792-8.439Zm-.171.642c.024-.138.049-.2.073-.2,0,.073-.016.114-.033.114-.016.081-.024.114-.041.114Zm-.024.049h.016V-7.7a.049.049,0,0,1-.024.049v-.041Zm-.163.2c0-.008,0-.016.016-.016v.024h-.016Zm-.122.252a.017.017,0,0,1,.016-.016l.008.041-.008.016a.017.017,0,0,1-.016-.016Zm.122.138a.187.187,0,0,1,.065-.146v.041a.205.205,0,0,0-.049.138h-.016Zm-.041.138H43.4v.033h-.008Zm-.033.081h.008V-6.9h-.008Zm.252.146a.716.716,0,0,1,.171.049v.033l-.041.008H43.67l-.049.041H43.6l-.016-.008A.65.65,0,0,0,43.613-6.8Zm-.228.008s.033,0,.106.008a.183.183,0,0,0,.057-.008.65.65,0,0,0-.033.122h-.041a.272.272,0,0,0-.106-.057A.153.153,0,0,0,43.385-6.789ZM43.1-6.65c0-.081.024-.122.065-.122h.008a.562.562,0,0,1-.016.122l-.016-.008h-.024Zm-.39-.081a2.8,2.8,0,0,1,.382-.033H43.1a.217.217,0,0,0-.065.138h-.073a.448.448,0,0,0-.171.041c-.024,0-.065-.008-.122-.008A.848.848,0,0,1,42.71-6.732Zm1.26.049a.03.03,0,0,1,.008-.024.85.85,0,0,1,.236-.049.33.33,0,0,1,.138.041v.008a.5.5,0,0,0-.089.024h-.016l-.211-.033c-.008,0-.016.008-.016.033Zm-4.2.463c.008-.041.057-.065.146-.065.138-.049.211-.081.22-.081.2,0,.3-.016.3-.041l.26-.065a1.13,1.13,0,0,0,.3-.065,1.305,1.305,0,0,0,.472-.073.438.438,0,0,1,.065.008L41.6-6.61H41.6l-.057.138-.1-.008a.265.265,0,0,0-.106.033c-.122.016-.358.049-.7.106H40.5c-.024.016-.033.024-.033.033a1.369,1.369,0,0,0-.293.049l-.049-.008H40.1a.764.764,0,0,1-.309.049Zm4.3-.171a.083.083,0,0,1,.041-.065h.008a.062.062,0,0,0,.016.033c-.016.033-.033.041-.041.041h-.024Zm-2.439.008h.016c.016,0,.016.008.016.016l-.016.024c-.008,0-.008,0-.016-.016Zm1.626.049c.024.024.041.033.049.033l.041-.008a.049.049,0,0,1,.033.008,1.715,1.715,0,0,1-.138.407,11.6,11.6,0,0,1-.415,1.146,10.317,10.317,0,0,1-.618,1.5,4.948,4.948,0,0,1-.228.577c-.122.236-.236.48-.341.724a2.183,2.183,0,0,0-.244.431c-.1.22-.171.341-.211.358a.008.008,0,0,0-.008-.008.787.787,0,0,1,.106-.2,3.15,3.15,0,0,1,.2-.463c.146-.366.236-.569.268-.626a1.68,1.68,0,0,1,.228-.5,2.469,2.469,0,0,1,.2-.52,5.12,5.12,0,0,1,.2-.5l.171-.455a1.092,1.092,0,0,0,.146-.423c.114-.268.187-.472.228-.594a2.224,2.224,0,0,0,.154-.472A1.441,1.441,0,0,0,43.263-6.333Zm-.675.049c.171-.008.309-.016.431-.033h.016l-.008.016v.1c-.033,0-.049.016-.049.057h-.016c-.016,0-.016-.016-.016-.049h-.008c-.024.008-.033.024-.033.057V-6.1c.008.016.024.033.033.033a.335.335,0,0,1-.049.154.314.314,0,0,1-.089.252.755.755,0,0,1-.114.293l-.033-.024h-.016v.008l.008.049c-.008.024-.024.041-.033.041a.25.25,0,0,0,.033.073.108.108,0,0,1-.024.057l-.033-.016a.025.025,0,0,0-.016.008.92.92,0,0,0,.008.114.262.262,0,0,0-.049.146c-.033,0-.049,0-.049-.008,0,.016-.008.016-.016.016l.016.057v.106l-.008.057h-.016q-.024,0-.024-.049v-.024h-.024a.447.447,0,0,0-.057.154.07.07,0,0,0,.024.049.116.116,0,0,1-.016.049l-.016-.008c-.016,0-.024.024-.041.065a.229.229,0,0,0,.008.065c-.008.016-.008.024-.016.024-.016.106-.041.154-.057.154a.017.017,0,0,1-.016-.016l-.016.008.008.041v.049l-.033-.041c-.024,0-.073.122-.146.374a1.13,1.13,0,0,0-.138.325l-.1.22c-.2.423-.325.707-.374.854v.008l.008.057-.016-.008a.1.1,0,0,0-.024.016q-.037.1-.049.1a2.831,2.831,0,0,0-.26.528h-.008c.041-.154.22-.7.528-1.642.333-1.065.626-1.968.87-2.691.024-.016.041-.033.041-.057A.017.017,0,0,0,42.5-6.1c.041-.122.065-.187.065-.2A.03.03,0,0,1,42.588-6.284ZM39.425-6.2v-.008a1,1,0,0,1,.2-.057h.016a.017.017,0,0,1,.016.016l-.008.016a.756.756,0,0,0-.171.049A.116.116,0,0,1,39.425-6.2Zm1.553-.065a.017.017,0,0,0-.016.016v.008a.03.03,0,0,1,.024.008c0-.008,0-.016.016-.016a.017.017,0,0,0-.016-.016Zm1.187.065q.012-.024.024-.024v.049Q42.165-6.191,42.165-6.2Zm-.6.13c0-.016,0-.016.008-.016.008-.081.033-.122.065-.122V-6.2c.041.024.057.049.057.073A1.1,1.1,0,0,0,41.564-6.073Zm.707-.081A.049.049,0,0,1,42.3-6.2h.016q.024.012.024.024v.024A.054.054,0,0,1,42.3-6.1.054.054,0,0,1,42.271-6.154ZM40.865-6.2a.49.49,0,0,1-.106.065c0,.008.016.016.041.024.081-.024.122-.033.122-.041S40.905-6.171,40.865-6.2Zm-.764.057c-.008,0-.016,0-.016.016l.008.016.049-.008v-.008a.017.017,0,0,0-.016-.016Zm.577.016c-.049.016-.1.024-.154.041v.016c.114-.008.163-.024.163-.041v-.016Zm2.122,0a.049.049,0,0,0-.049.024v.024h.041q.024-.012.024-.024v-.008A.017.017,0,0,0,42.8-6.122Zm-.2.008-.033.008V-6.1c0,.008,0,.016.016.016H42.6c.016,0,.016-.008.016-.016S42.613-6.114,42.6-6.114Zm-2.878.041c.041.008.089.024.146.041v.016a.3.3,0,0,0-.138.041.277.277,0,0,0-.13-.033h-.008a.082.082,0,0,0-.089.073.219.219,0,0,1-.106-.057.227.227,0,0,1,.041-.065c.041.016.065.033.065.041a.129.129,0,0,1,.081-.041h.033l.041.024C39.694-6.049,39.718-6.057,39.718-6.073Zm2.268.033q0-.024.049-.024a.061.061,0,0,0,.008.033l-.033.016a.1.1,0,0,1-.024-.016Zm-1.724-.024a.008.008,0,0,0-.008.008c-.081.016-.122.033-.122.041V-6c0,.016,0,.016.016.016h.024l.073-.024c.016,0,.041.008.065.008l.024-.024C40.336-6.041,40.312-6.057,40.263-6.065Zm.2.016v.008h.016v-.008Zm-2.033.065c0-.008.008-.016.033-.024.008,0,.016.016.024.033s-.008.016-.016.016h-.008Zm.642-.024h.041v.016h-.024C39.084-5.992,39.076-5.992,39.076-6.008Zm2.976.057c0-.008.016-.024.057-.041q0,.085-.049.1l-.008-.041Zm-.829-.041a.458.458,0,0,0-.1.033c0,.033.008.041.016.041H41.2c.065,0,.089-.008.089-.024C41.263-5.976,41.247-5.992,41.222-5.992Zm-.146.008a.225.225,0,0,0-.1.041c.016.033.033.049.057.049.008,0,.024-.016.057-.065C41.076-5.967,41.076-5.976,41.076-5.984Zm-.545,3.5a.151.151,0,0,0,.138-.106,3.484,3.484,0,0,1,.122-.341,1.107,1.107,0,0,1,.049-.2c.228-.764.382-1.236.455-1.415l.26-.772a1.752,1.752,0,0,0,.1-.293c.057-.244.114-.366.154-.366.008,0,.008.016.008.049a2.639,2.639,0,0,0-.089.3.624.624,0,0,0-.106.317,2.658,2.658,0,0,0-.114.366.722.722,0,0,0-.081.211.61.61,0,0,0-.057.163c-.049.154-.1.341-.163.569a.825.825,0,0,0-.081.309,6.2,6.2,0,0,0-.333,1.041.329.329,0,0,0-.049.089l.008.049V-2.5a.435.435,0,0,0-.089.228c-.041.138-.073.228-.081.276.008.041.016.065.033.065h.024c.008,0,.016-.016.024-.041s-.008-.049-.008-.073v-.008a.138.138,0,0,1,.065-.106c-.008-.033-.016-.057-.016-.065a1.323,1.323,0,0,0,.106-.252c.016-.138.041-.211.057-.211a.68.68,0,0,1,.073-.228c.024-.2.057-.3.106-.3l-.008-.1.081-.016-.024.033v.008a.5.5,0,0,0,.041.049h.008a.13.13,0,0,0,.065-.024L41.2-3.341A.059.059,0,0,1,41.23-3.4h.024c.008,0,.016.008.024.016h.033q.024-.012.024-.024c-.016-.024-.024-.033-.033-.033H41.23a.366.366,0,0,0,.016-.114v-.016h-.033a.171.171,0,0,1-.065.049v-.041a.223.223,0,0,1,.033-.041c.033-.138.065-.211.106-.211a.308.308,0,0,0-.008-.065.159.159,0,0,1,.089-.138.48.48,0,0,1,.065.041l-.033.163-.024-.016h-.024a.017.017,0,0,0-.016.016V-3.8c.024.024.033.033.033.041v.008a.049.049,0,0,1-.024.049L41.3-3.707a.137.137,0,0,1-.041.016v.033a.956.956,0,0,1,.122.089H41.4c.016-.081.041-.122.057-.122H41.5a.063.063,0,0,0,.008.024c-.016.073-.041.154-.073.26a1.559,1.559,0,0,1-.081.211h-.008c0-.024-.008-.033-.024-.033l.024-.033v-.016h-.057q0-.049-.024-.049h-.008q-.024.012-.024.024v.016a.7.7,0,0,1,.024.138v.008l-.073.049-.033.138c0,.016.016.033.049.041.016-.024.033-.041.041-.041s.008.016.008.024a.408.408,0,0,1-.024.114.372.372,0,0,1-.049-.033h-.008a.07.07,0,0,0-.049.024c0,.024.008.041.016.041h.073c0,.008.008.024.008.033a.767.767,0,0,1-.1.268,4.131,4.131,0,0,1-.171.577v.016q.012.024.024.024h.008l.033-.024v.024a.049.049,0,0,1-.024.049c-.041,0-.065.024-.081.081-.041.138-.065.211-.081.211h-.008c-.008,0-.024-.024-.057-.073h-.008a.178.178,0,0,1-.041.114c0,.008.008.016.008.024.073.016.106.033.106.049-.008.049-.016.081-.033.081h-.033c-.016,0-.016-.016-.024-.041h-.016a.139.139,0,0,1-.041.089v.016c.049.016.065.033.065.049a.347.347,0,0,0-.065.171v.049h-.008c-.057-.024-.081-.049-.081-.089v-.008a.828.828,0,0,1,.033-.13V-1.26a.017.017,0,0,0-.016-.016H40.6l-.065.065a1.94,1.94,0,0,1-.081.2.65.65,0,0,0-.073.285c0,.138-.016.22-.057.252v.033l.089.065.024-.016h.016a.247.247,0,0,1-.106.1l.008-.041-.008-.016c-.033,0-.065.081-.089.252a.888.888,0,0,1-.106.447.108.108,0,0,0,.024.057h-.008c-.041,0-.057.033-.065.1a.4.4,0,0,0,.024.1.29.29,0,0,0-.057.057.2.2,0,0,0,.008.057,1.829,1.829,0,0,1-.057.2V.927a.192.192,0,0,0,.1.187.131.131,0,0,0-.049.106.144.144,0,0,0-.122.154l.008.016a.345.345,0,0,0-.041.1V1.5a.287.287,0,0,0,.033.138c.041.024.057.041.057.049-.049,0-.073.081-.089.228a1.241,1.241,0,0,0,.008.146.9.9,0,0,0-.008.13.1.1,0,0,0,.033.065V2.3h-.008c-.041-.024-.057-.073-.057-.146V2.122c0-.008-.008-.016-.033-.024-.008,0-.024.024-.033.065q.024.11.024.122l-.033-.008c-.033,0-.065-.163-.106-.5a4.561,4.561,0,0,0,.049-.48,1.593,1.593,0,0,0-.016-.22.749.749,0,0,1,.041-.163s0-.065-.008-.2A.183.183,0,0,1,39.808.6a.735.735,0,0,0,.081-.39.1.1,0,0,0-.041-.089H39.84c-.024,0-.073.13-.138.39h-.008c-.008,0-.016-.016-.024-.057.008-.065.016-.106.024-.106.033-.252.057-.382.081-.382a1.741,1.741,0,0,1,.057-.382.773.773,0,0,1,.073-.268,1.264,1.264,0,0,1,.114-.423,1.173,1.173,0,0,1,.033-.187,1.05,1.05,0,0,0,.065-.309,5.313,5.313,0,0,0,.22-.781.4.4,0,0,0,.065-.2.373.373,0,0,0,.049-.13c.008-.041.089-.3.252-.781a1.14,1.14,0,0,1,.114-.374,1.719,1.719,0,0,1,.073-.26,2.229,2.229,0,0,0,.122-.423.373.373,0,0,0,.106-.276,1.705,1.705,0,0,0,.138-.382.688.688,0,0,1,.122-.35c.065-.244.1-.366.122-.366h.049v.033a.108.108,0,0,0-.024.057v.073l-.057.065v.008l.041.041v.016H41.5l-.024-.016h-.008c-.008,0-.016,0-.016.016l.016.057a.076.076,0,0,1-.049.065,1.634,1.634,0,0,1-.049.22c-.033,0-.057.073-.065.22-.041.041-.065.065-.065.073s.008.016.008.033c-.033.114-.049.179-.049.179.024.024.033.041.041.041,0,.024-.016.057-.065.089a.945.945,0,0,0-.122.39c0,.016.008.024.041.024a.157.157,0,0,0-.065.13v.1c-.041,0-.081.073-.13.228v.024s.016.016.049.057v.024c-.041,0-.081.033-.114.1a.538.538,0,0,1,.008.089.4.4,0,0,0-.089.154l.016.024v.016c-.024.033-.049.057-.065.057-.016.089-.033.13-.049.13a.242.242,0,0,1-.041.163c-.024.114-.049.2-.065.276a.088.088,0,0,0,.016.065c0,.008-.024.024-.065.057C40.5-2.512,40.507-2.5,40.531-2.488Zm1.675-3.431a.068.068,0,0,1,.033-.057c.016,0,.016.008.016.016v.008c0,.041-.008.065-.033.073A.053.053,0,0,0,42.206-5.919ZM38.222-5.9c0-.033.024-.057.065-.065h.081v.008c0,.016-.041.041-.114.065h-.016Zm.74-.065h.016v.008h-.016Zm1.9.024-.065.065.008.016a.8.8,0,0,0,.122-.008v-.008a.151.151,0,0,0-.057-.065Zm-2.309.073c0-.033.081-.057.252-.057h.033c0,.008-.008.016-.041.024l-.073-.008a1.076,1.076,0,0,0-.146.057.036.036,0,0,0-.024-.008Zm-.236.024.106-.024c0,.008.008.008.033.008q0,.024-.049.024H38.32Zm-.48.2A.336.336,0,0,0,37.9-5.74a1.3,1.3,0,0,1,.358-.089h.024a.071.071,0,0,1-.073.065h-.065l-.065.057h-.081a.535.535,0,0,1-.146.073H37.84ZM42-5.732h.008v.049c0,.008-.008.033-.016.073-.049-.016-.073-.024-.073-.033v-.016l.008-.016C41.978-5.691,42-5.715,42-5.732Zm.114.041c.024.008.033.016.033.024l-.024.033q-.024-.012-.024-.024v-.008Zm-.577.049h.016v.008h-.016Zm.382.106c.008,0,.016,0,.016.008v.008C41.93-5.52,41.921-5.52,41.921-5.536Zm-.138.846c.016-.081.033-.122.041-.122a.319.319,0,0,1,.089-.268c.041-.211.081-.317.114-.317h.008l.008.041a.144.144,0,0,1-.033.081l-.122.415a.348.348,0,0,0-.081.187,4.557,4.557,0,0,1-.187.634c-.008,0-.033-.024-.065-.065v-.016c.024,0,.057-.024.081-.073a1.211,1.211,0,0,1,.154-.463A.049.049,0,0,1,41.783-4.691Zm.065-.634a.045.045,0,0,1,.033-.049c.008,0,.008.008.016.024l-.024.081h-.016l-.008-.041Zm.8.024a.017.017,0,0,1,.016-.016h.008v.033c0,.008,0,.016-.016.016C42.661-5.284,42.661-5.293,42.653-5.3Zm-.829.073c.008,0,.016.008.024.033s-.008.024-.016.024h-.024C41.808-5.179,41.816-5.195,41.824-5.227Zm.715.146q-.024.012-.024.024c0,.016,0,.016.016.016s.016-.008.024-.024S42.548-5.081,42.539-5.081Zm-.813.114c0-.016.016-.024.033-.033l.016.024v.008c0,.008-.008.016-.033.024A.1.1,0,0,1,41.726-4.967Zm.732.1a.017.017,0,0,0-.016.016v.033h.024v-.033Zm-1.016.382h.041a.03.03,0,0,0,.008.024L41.45-4.3h-.008Zm.829.089v.024h.016V-4.4Zm-.033.073v.008h.016v-.008Zm-.764.13c.033-.073.057-.114.073-.114a.03.03,0,0,0,.008.024.1.1,0,0,0-.016.024v.1a.078.078,0,0,1-.057.073l-.033-.033H41.4l-.016.008a.116.116,0,0,0-.016-.049c.016-.033.033-.041.041-.041h.008Zm-.106.2v.024l.016-.008A.017.017,0,0,0,41.369-3.992Zm.163.016h.041a.017.017,0,0,1,.016.016v.016a.951.951,0,0,1-.081.22H41.5a.052.052,0,0,1-.041-.049A.555.555,0,0,0,41.531-3.975Zm-.642.244c-.008,0-.016,0-.016.016v.008H40.9v-.024Zm.236.293c0-.008,0-.016.008-.016v.024h-.008Zm-.276,0h.008v.016h-.008Zm.463.293c.016-.024.024-.033.033-.033v.008l-.016.049c-.008,0-.016,0-.016-.008Zm-.236.138a.057.057,0,0,0-.033.041c0,.008.008.016.033.024.024-.008.041-.016.041-.024v-.024a.017.017,0,0,0-.016-.016ZM41-2.78v.016c0,.008,0,.016.016.016a.017.017,0,0,0,.016-.016.017.017,0,0,0-.016-.016Zm.122.065c-.024.008-.041.016-.041.033v.024c0,.008,0,.008.016.008h.024q.024-.012.024-.024v-.016Q41.149-2.7,41.125-2.715Zm-.187.122v.008h.016v-.008Zm-.016.1c-.008,0-.016.016-.033.049v.008H40.9l.041-.008v-.008L40.93-2.5Zm.073.024a.017.017,0,0,0-.016.016v.041c0,.008.016.024.041.033s.024-.016.033-.041a.017.017,0,0,0-.016-.016l.016-.024v-.008Zm-.415.008q-.024.012-.024.024v.016c0,.008.008.016.033.024.008,0,.016-.008.024-.033C40.6-2.455,40.588-2.463,40.58-2.463Zm.407.1a.017.017,0,0,0-.016.016v.008a.017.017,0,0,0,.016.016A.017.017,0,0,0,41-2.341v-.024Zm-.431.024a.061.061,0,0,0-.041.065h-.049a.088.088,0,0,0-.057.024.871.871,0,0,1-.049.187c.008.089.049.13.106.13.008,0,.024-.033.049-.089a.356.356,0,0,1,.057-.244v-.057A.017.017,0,0,0,40.556-2.341Zm.325,0c-.041,0-.065.024-.081.089v.033l.008.073a.293.293,0,0,0-.033.041v.049q.012.024.024.024h.016a.939.939,0,0,1,.106-.236A.112.112,0,0,0,40.881-2.341Zm0,.309a.017.017,0,0,0-.016.016v.008a.017.017,0,0,0,.016.016h.008v-.041Zm-.293.122c-.041.016-.057.057-.057.122a1.172,1.172,0,0,0-.081.3.017.017,0,0,1,.016.016c.033-.016.049-.033.049-.057a1.521,1.521,0,0,1,.089-.325v-.041A.017.017,0,0,0,40.588-1.91Zm.106.114q-.024,0-.073.049c0,.049.008.081.033.081h.008c.016,0,.033-.033.057-.106,0-.016,0-.024-.016-.024Zm-.333.008a.162.162,0,0,0-.1.065v.008c.008.041.024.057.033.057s.016-.008.016-.024h.057a.1.1,0,0,0,.024-.016v-.065C40.393-1.772,40.385-1.78,40.36-1.788Zm.594.065h.008v.016h-.008Zm-.163.008c-.008,0-.016,0-.016.016v.008l.008.016c.033,0,.041-.008.041-.016S40.816-1.707,40.791-1.715Zm-.537.114c-.033.024-.057.1-.073.236a.914.914,0,0,0-.065.3c.008.073.024.106.049.106h.008c.016-.008.041-.065.065-.179l-.033-.057c0-.008.008-.016.016-.024.065-.049.089-.146.089-.3v-.016a.067.067,0,0,0-.041-.065Zm.187.2c-.024.016-.041.024-.041.033v.033l.016.024c.024-.016.041-.024.041-.033v-.008A.116.116,0,0,0,40.442-1.4Zm-.073.228q-.024.012-.024.024v.024c.016.024.024.033.033.033s.024-.016.024-.024v-.024C40.385-1.154,40.377-1.17,40.369-1.17Zm-.016.106h-.008c-.024,0-.041.049-.057.146v.024a.017.017,0,0,0,.016.016h.016a.657.657,0,0,0,.041-.171Zm.211.081c.065,0,.089.024.089.073a.565.565,0,0,1-.033.138h-.008L40.588-.8l-.041-.163Zm-.39.057c-.041,0-.081.033-.138.1a.554.554,0,0,1-.041.171c0,.016.024.024.089.033l.024-.016a2.171,2.171,0,0,1,.081-.276Zm.333.2.041-.008h.033l.008.049v.008c-.033.081-.073.163-.122.268h-.024c-.008,0-.016-.008-.024-.033.008-.024.033-.041.065-.065a.854.854,0,0,0-.016-.106.133.133,0,0,1,.065-.073c0-.008-.008-.016-.024-.016Zm-.512.114a.461.461,0,0,0-.081.276.228.228,0,0,0,.008.049h.016a.953.953,0,0,0,.13-.122L40.043-.5V-.52a.1.1,0,0,0,.024-.073Q40.068-.605,39.995-.618Zm.366.341h.008v.008a.1.1,0,0,1-.041.057A.371.371,0,0,1,40.36-.276Zm3.13.1c-.033,0-.065.033-.089.089v.033l.016.024.1-.114V-.154Q43.5-.178,43.491-.178Zm-3.642.171a.017.017,0,0,0-.016.016c.033.041.057.057.089.057h.008a.017.017,0,0,0,.016-.016V.041A.1.1,0,0,0,39.848-.008ZM43.409,0a.017.017,0,0,0-.016.016L43.4.033a.017.017,0,0,0,.016-.016Zm-.13.073q-.024.012-.024.024V.114a.017.017,0,0,0,.016.016h.016q.024-.012.024-.024V.09A.017.017,0,0,0,43.3.074Zm-.13.057a.083.083,0,0,0-.041.049c0,.016.008.024.016.024h.008c.033-.024.041-.033.041-.041V.147c0-.008,0-.016-.016-.016Zm.106.033a.168.168,0,0,0-.114.073l.033.016c.033,0,.057-.024.081-.073ZM40.043.252a.017.017,0,0,0-.016.016c0,.016,0,.016.016.016h.008V.269Zm-.033.073A.03.03,0,0,1,40,.35a.062.062,0,0,0,.016.033l.024-.016c-.008-.024-.016-.041-.024-.041Zm.244.2A.017.017,0,0,1,40.271.5V.57c-.008,0-.008-.008-.016-.016Zm-.569.065q.012,0,.024.049L39.694.8V.83a.212.212,0,0,1-.024.081c-.016.154-.033.236-.057.236H39.6L39.6,1.09V1.065a.326.326,0,0,1,.024-.122C39.621.732,39.645.61,39.686.586Zm.569.041h.016l.008.057c-.008.057-.024.081-.041.081h-.016c-.008,0-.008,0-.016-.016V.74A.245.245,0,0,1,40.255.626Zm2.781.057c.008,0,.016,0,.016.016l-.008.016c-.016,0-.016-.008-.016-.016ZM40.2.944h.016c0,.008.008.024.008.033a.973.973,0,0,1-.024.114h-.016a.03.03,0,0,0-.008-.024Zm2.61.138c.033-.057.065-.089.106-.089h.008q-.024.1-.049.1h-.024Zm-2.919.057c-.008,0-.016,0-.016.016v.024l.016.016c.024,0,.041-.008.041-.016V1.171C39.93,1.163,39.913,1.147,39.889,1.139Zm-.024.146c-.016.016-.033.024-.033.033v.008c0,.016.008.016.016.016h.024c0-.008,0-.008.008-.024S39.873,1.3,39.864,1.285Zm2.894.114a.017.017,0,0,0-.016.016v.016a.017.017,0,0,0,.016-.016Zm-2.789.033a.017.017,0,0,1,.016-.016h.008a.017.017,0,0,1,.016.016v.024A.074.074,0,0,0,39.97,1.431Zm.081.024a.049.049,0,0,0,.033-.008h.008l-.008.033h-.033Zm-.211.033q-.012,0-.024.049v.041c.016.016.024.033.033.033h.016c.008,0,.016-.016.024-.033-.008-.065-.016-.089-.024-.089Zm2.829,0V1.5h.024V1.488Zm-.049.065q-.024.012-.024.024v.016h.024q.024-.012.024-.024c0-.008,0-.016-.016-.016Zm-.081.073v.016h.016V1.626Zm-2.48.089a.049.049,0,0,0,.033-.008,1.318,1.318,0,0,0,.024.171.2.2,0,0,0-.008.073c-.016,0-.033-.024-.049-.065,0-.073.008-.122.008-.146A.036.036,0,0,1,40.06,1.716Zm-.236.008c0,.049.008.106.008.179l-.008.057c.016.049.024.073.041.073h.008V2.009a1.272,1.272,0,0,0-.033-.285Zm.244.463c0-.008,0-.008.016-.016H40.1q.024.012.024.024v.049c-.033,0-.049-.008-.057-.033Z" transform="translate(0.729 12.445)" fill="#fff" stroke="#fff" stroke-width="0.5"/>
</svg>
