<svg xmlns="http://www.w3.org/2000/svg" width="58.77" height="15.143" viewBox="0 0 58.77 15.143">
  <path id="パス_311" data-name="パス 311" d="M.792,4.02C.865,4.012.906,4,.906,3.979a.653.653,0,0,0-.138-.1.721.721,0,0,1-.171-.5A11.409,11.409,0,0,1,1.264.825a7.448,7.448,0,0,0,1.008.52,6.16,6.16,0,0,0,1.9.35q.476,0,.488-.049c0-.016-.008-.033-.024-.033,0-.057.041-.081.114-.081a.936.936,0,0,1,.179.073l.033-.081a1.712,1.712,0,0,0,.447-.057.086.086,0,0,1,.1-.1l.089.089c.008,0,.033-.033.073-.089.033-.081.138-.114.325-.114V1.231a.871.871,0,0,0-.187-.049.319.319,0,0,0-.146.065,4.289,4.289,0,0,0-.756.081A1.193,1.193,0,0,1,4.768,1.3a.153.153,0,0,1,.138-.065q0-.024-.049-.049c0-.057.057-.1.171-.114a.657.657,0,0,0,.13.008c-.008.041-.089.065-.252.065,0,.024.049.041.146.041.008.033.016.049.033.049s.033-.016.033-.033c.057-.033.089-.057.089-.081a.065.065,0,0,1,.073-.073A4.567,4.567,0,0,1,6.142.906,4.47,4.47,0,0,0,7.606.377c0,.041-.089.13-.276.276l.008.033c0,.024-.033.073-.106.122l.016.106a.07.07,0,0,1-.024.049,2.828,2.828,0,0,0-.309.2v.024A.944.944,0,0,0,7.288,1,.8.8,0,0,0,7.728.28.274.274,0,0,0,7.614.036H7.557a1.649,1.649,0,0,1-.463.325,7.438,7.438,0,0,1-2.748.5H4.1A5.212,5.212,0,0,1,1.491.109.756.756,0,0,1,1.54-.062a5.124,5.124,0,0,0,.894-.171A5.426,5.426,0,0,0,3.345-.59a9.675,9.675,0,0,0,1.447-.935q1.073-.854,1.1-.854A1.372,1.372,0,0,0,6.248-2.7c.276-.244.407-.382.407-.439a5.287,5.287,0,0,0,.439-.415c.041-.057.3-.358.789-.911q1.89-2.4,1.886-3.846a1.506,1.506,0,0,0-.927-1.463,1.79,1.79,0,0,0-1.122-.3A9.553,9.553,0,0,0,3-8.517a2,2,0,0,1-.236.171A6.051,6.051,0,0,0,1.231-7.135a3.1,3.1,0,0,0-1.2,1.9c0,.211.146.374.423.488A7.988,7.988,0,0,1,.678-3V-3a.074.074,0,0,0,.057-.024C.7-3.484.687-3.793.687-3.956H.695c0,.033.008.057.024.057.016.138.057.512.106,1.122C.808-1.883.76-1.436.695-1.436L.687-1.46c.024-.52.033-.862.033-1.024q0-.061-.024-.073c-.008,0-.024.033-.041.081l.016.325a4.127,4.127,0,0,0-.041.52l.008.073a2.1,2.1,0,0,0-.1.463C.524-.842.5-.712.459-.712a.275.275,0,0,0-.187.26.723.723,0,0,0,.089.309A.582.582,0,0,1,.272.028,13.793,13.793,0,0,0-.3,2.378q.024,0,.049.1c-.073.057-.114.106-.114.13,0,.049.016.081.041.089a.73.73,0,0,0-.041.276.966.966,0,0,0,.244.65A1.362,1.362,0,0,0,.792,4.02ZM4.2-8.842a.443.443,0,0,0-.138-.024c0-.073.106-.138.3-.2a5.069,5.069,0,0,1,2.155-.594,5.46,5.46,0,0,1,1.333-.22c.154.008.228.016.228.041-.024,0-.041.008-.041.024-.024,0-.3.033-.821.1a4.754,4.754,0,0,0-.935.228A.532.532,0,0,1,6.1-9.566a.433.433,0,0,0-.2.049,1.984,1.984,0,0,0-.894.3A3.633,3.633,0,0,1,4.2-8.842ZM1.817-.915H1.809a16.865,16.865,0,0,0,.626-1.691C3.2-4.46,3.622-5.509,3.711-5.753a13.6,13.6,0,0,0,.6-1.585A3.708,3.708,0,0,0,4.638-8.46a.341.341,0,0,0-.171-.285v-.008a.529.529,0,0,0,.154-.073,10.968,10.968,0,0,1,3.342-.8,1.711,1.711,0,0,1,.715.106.875.875,0,0,1,.366.789,5.287,5.287,0,0,1-1.1,2.6c-.366.488-.675.919-.927,1.285a4.586,4.586,0,0,0-.545.634q-.293.22-.293.317c-.073.049-.138.1-.187.13-.179.22-.285.333-.317.333a1.112,1.112,0,0,1-.252.309L5.41-3.151a.268.268,0,0,0-.1.081A13.978,13.978,0,0,1,3.573-1.7,9.8,9.8,0,0,1,1.817-.915Zm.724-6.96H2.532l.016-.033c.512-.439.837-.659.984-.659,0,.13-.114.236-.325.309A3.965,3.965,0,0,1,2.54-7.875Zm-1.4,6.83H1.134c0-.008.041-.163.122-.447a.137.137,0,0,0-.024-.081c-.041.008-.081.049-.138.122-.016,0-.024-.016-.033-.049q.012,0,.049-.146a.968.968,0,0,1,.122-.423V-2.11c0-.024-.033-.041-.1-.065l.008-.016c0-.065-.016-.2-.041-.415a.991.991,0,0,1,.049-.276c0-.382,0-.618-.008-.715a8.55,8.55,0,0,1-.065-1.073L1.036-4.7l-.016.008L.955-4.7A.439.439,0,0,0,.8-4.883a.256.256,0,0,1-.2-.252c.057-.5.683-1.309,1.894-2.4a5.108,5.108,0,0,1,.772-.52c.016,0,.024.016.024.033a.948.948,0,0,1-.065.3c-.268.691-.439,1.155-.52,1.39C2.248-5.176,2-4.493,1.947-4.273a.922.922,0,0,0-.154.382.331.331,0,0,1,.016.057.26.26,0,0,1-.13.154c-.041.187-.1.447-.187.764H1.467q-.073-.061-.073-.073a.2.2,0,0,0-.065.138.41.41,0,0,0,.041.138l-.016.106a1.562,1.562,0,0,0-.154.374.2.2,0,0,0,.057.041h.008c.276-.691.415-1.049.415-1.065.1-.187.325-.667.667-1.439q.1-.341.2-.341a.747.747,0,0,1-.122.374,1.3,1.3,0,0,1-.163.366c-.041.13-.122.366-.252.715a1.97,1.97,0,0,0-.244.634c0,.016.016.024.041.024s.089-.114.154-.341c.024-.138.073-.2.163-.2a2.1,2.1,0,0,1-.089.317l.008.033c.033-.008.065-.049.106-.114A2.017,2.017,0,0,1,2.3-3.68q.1-.256.2-.293a1.672,1.672,0,0,0,.244-.488,6.481,6.481,0,0,1,.439-.984h.008a.917.917,0,0,1-.033.244A6.955,6.955,0,0,0,2.63-3.883h.033c.081-.106.13-.163.146-.163a2.719,2.719,0,0,1-.276.772c-.146.455-.358.992-.626,1.626-.057.252-.146.382-.26.382,0-.016.008-.049.016-.1v-.008H1.646q-.061.22-.22.22l.081-.325c0-.016-.041-.033-.13-.049-.033,0-.057.089-.081.268H1.3a.194.194,0,0,1,.089-.049.558.558,0,0,1-.1.22c-.016,0-.016-.016-.024-.049s.008-.049.024-.049c-.008-.024-.024-.033-.033-.033l-.041.033A.151.151,0,0,1,1.142-1.045Zm7.074-5.09c.008-.081.049-.122.114-.122C8.329-6.176,8.289-6.135,8.215-6.135Zm-.033.114H8.134v-.016a.128.128,0,0,1,.057-.057.288.288,0,0,0,.008.057Zm-4.96.537H3.207L3.2-5.542c.073-.154.138-.3.2-.455.008,0,.008.008.008.016A1.023,1.023,0,0,1,3.223-5.485ZM4.475-2.078c-.008,0-.008-.008-.008-.016q.073-.073.073-.1a5.472,5.472,0,0,1,.594-.488A14.439,14.439,0,0,0,7.02-4.606a8.259,8.259,0,0,0,.748-.943,1.232,1.232,0,0,1,.268-.309.251.251,0,0,1-.016.065,6.156,6.156,0,0,0-.341.52,5.781,5.781,0,0,0-.39.5c-.171.179-.252.293-.252.341v.081l.016.016a.5.5,0,0,1-.089-.024,1.077,1.077,0,0,0-.154.154c-.423.463-.951.984-1.585,1.553A4.443,4.443,0,0,1,4.475-2.078ZM3.207-5.054,3.2-5.119l.073-.008C3.239-5.078,3.223-5.054,3.207-5.054Zm-.179.5a.017.017,0,0,1-.016-.016.811.811,0,0,1,.016-.13A.362.362,0,0,1,3.2-4.972,1.328,1.328,0,0,1,3.028-4.55Zm4.244.057v-.049h.065C7.337-4.517,7.313-4.5,7.272-4.493Zm-4.618.057c-.024-.016-.033-.024-.033-.033A.051.051,0,0,1,2.67-4.5.109.109,0,0,1,2.654-4.436Zm4.155.488H6.8l-.008-.041a.406.406,0,0,1,.13-.065c.106-.2.2-.309.285-.341h.008A2.191,2.191,0,0,1,6.809-3.948Zm-4.39-.2a.143.143,0,0,1-.065-.073c0-.049.016-.073.057-.081.016,0,.041.033.057.106Q2.431-4.151,2.418-4.151Zm.081.073H2.491a.406.406,0,0,1,.033-.187l.049-.008V-4.2A.662.662,0,0,0,2.5-4.078Zm-.382.537H2.1a1.314,1.314,0,0,1,.114-.374c.041.008.057.024.057.057A.4.4,0,0,1,2.117-3.541Zm4.529-.236A.118.118,0,0,1,6.727-3.9l.033.049A.141.141,0,0,1,6.646-3.777ZM2.1-2.989l.041-.033c.049-.146.089-.22.13-.236h.114c.033,0,.057-.049.089-.154l.171-.35a.337.337,0,0,0-.033-.1H2.581a.317.317,0,0,1-.073.138l-.13-.008c-.033,0-.057.057-.065.179.008,0,.008,0,.008.008-.154.35-.236.537-.236.553Zm4.374-.594-.024-.073c0-.024.049-.057.154-.081v.016C6.581-3.631,6.54-3.582,6.475-3.582ZM4.89-2.119H4.874v-.049A2.237,2.237,0,0,1,5.313-2.5,6.64,6.64,0,0,1,5.858-3c.285-.333.463-.5.537-.5a.211.211,0,0,1-.073.146.519.519,0,0,0-.228.2c-.122.089-.187.146-.187.163l.008.033a.774.774,0,0,0-.276.26c-.073.106-.138.163-.2.163a.613.613,0,0,1-.236.187C5.053-2.2,4.947-2.119,4.89-2.119Zm-3-.642c.024,0,.065-.1.122-.276,0-.024-.008-.033-.024-.033s-.057.089-.114.26C1.874-2.777,1.882-2.761,1.89-2.761ZM1.7-2.72c.049-.033.073-.065.073-.106-.016-.024-.033-.041-.041-.041s-.041.024-.073.073C1.662-2.753,1.678-2.728,1.7-2.72Zm.244.122Q2-2.635,2-2.647v-.081H1.971a.118.118,0,0,1-.041.1Zm-.285.293a.225.225,0,0,0,.1-.041c0-.024-.041-.033-.114-.033,0-.138.016-.2.049-.2a.191.191,0,0,0-.016-.065c-.049,0-.089.049-.114.146A.281.281,0,0,0,1.662-2.306Zm.106-.154c.016,0,.024-.024.041-.065,0-.016-.033-.033-.089-.033v.024Zm3.683.041H5.435c.049-.073.1-.114.146-.114C5.581-2.46,5.532-2.419,5.451-2.419Zm-3.618.154c.016,0,.033-.033.041-.106,0-.016-.024-.016-.065-.016-.016,0-.024.024-.033.089C1.776-2.273,1.792-2.265,1.833-2.265Zm.049.309.024-.008.13-.333v-.041H2.012a1.833,1.833,0,0,1-.171.374Zm-.488.041v-.114a.356.356,0,0,0,.13-.293H1.5a1.3,1.3,0,0,0-.163.382C1.337-1.923,1.353-1.915,1.394-1.915Zm3.065.154H4.443c.041-.106.163-.2.374-.309C4.817-1.988,4.695-1.883,4.459-1.761Zm-3.016.146A.108.108,0,0,0,1.5-1.639a.167.167,0,0,0-.041-.073c-.016.008-.033.033-.049.081Zm2.423.244a.008.008,0,0,1-.008-.008A.3.3,0,0,1,4.044-1.5c.016,0,.033,0,.033.016A.842.842,0,0,1,3.866-1.371ZM7.264.743A.03.03,0,0,0,7.3.711H7.256L7.232.719C7.232.735,7.248.743,7.264.743ZM5.484.906H5.475V.849h.008Zm.8.13A.086.086,0,0,0,6.329.979c-.008,0-.008-.008-.008-.016-.041.024-.057.041-.057.073Zm-.724.073c.033-.008.049-.016.049-.041H5.549A.073.073,0,0,0,5.557,1.109Zm-1.008.049c-.024-.016-.041-.024-.041-.041S4.516,1.1,4.54,1.1a.08.08,0,0,0,.049.016v.024A.137.137,0,0,0,4.548,1.158ZM4.2,1.2q-.122-.024-.122-.049c.008-.016.016-.033.024-.033a.206.206,0,0,1,.114.057Zm.228-.049L4.4,1.117l.057.016v.008Zm.821,0A.169.169,0,0,0,5.3,1.134c0-.016,0-.024-.016-.024l-.057.008Zm-.594.179c-.024,0-.041-.024-.041-.065A.117.117,0,0,1,4.7,1.15,1.248,1.248,0,0,0,4.654,1.329Zm1.537-.106q.024,0,.024-.073H6.183L6.175,1.2C6.175,1.215,6.183,1.223,6.191,1.223Zm-1.862.122c-.008-.016-.016-.033-.024-.033l.041-.049c.008,0,.016.016.041.049v.016A.207.207,0,0,0,4.329,1.345Zm.683.114H5c-.033-.016-.041-.033-.041-.049l.008-.024C4.979,1.386,5,1.41,5.012,1.459Zm.74-.033L5.8,1.418c0-.016-.008-.024-.024-.033s-.033.008-.033.024ZM3.89,1.638c-.024,0-.033-.024-.033-.073.024,0,.033.008.033.016Zm.081-.016H3.963l.008-.057H4C4,1.605,3.987,1.621,3.971,1.621Zm.5.016-.073-.033c0-.016.033-.033.081-.041a.251.251,0,0,1,.065.016C4.54,1.6,4.516,1.613,4.467,1.638Zm-.407-.033a.022.022,0,0,1-.024-.024h.049A.022.022,0,0,1,4.061,1.605Zm.114.008c-.016,0-.024-.008-.024-.033C4.166,1.6,4.174,1.605,4.174,1.613Zm-4.2.252H-.045a.106.106,0,0,1-.049-.1.1.1,0,0,1,.106-.089A.451.451,0,0,1-.021,1.865Zm.211-.089H.182L.126,1.735l.008-.049.057.008Zm-.1.146c-.016,0-.024-.016-.033-.041A.073.073,0,0,1,.1,1.873ZM.361,3.556a.147.147,0,0,1-.089-.122,1.082,1.082,0,0,0-.041-.325A2.143,2.143,0,0,1,.3,2.727L.288,2.646c0-.049.057-.122.163-.22H.459a.062.062,0,0,0,.016.041C.451,2.67.41,2.9.361,3.15l.024.293A.408.408,0,0,1,.361,3.556ZM14.854-3.728H14.8a3.16,3.16,0,0,0-1.821.789,11.157,11.157,0,0,0-1.073.992,5.786,5.786,0,0,0-.626.878c-.073.122-.211.431-.423.911a3.3,3.3,0,0,0-.146.74,1.568,1.568,0,0,0,.52,1.122,2.462,2.462,0,0,0,1.659.65h.138a4.522,4.522,0,0,0,.6-.057A3.608,3.608,0,0,0,15.2,1.5a2.132,2.132,0,0,1,.415-.358A1.84,1.84,0,0,0,16,.776a.008.008,0,0,1-.008-.008c-.065.033-.2.122-.4.26a5,5,0,0,1-.707.5.844.844,0,0,1-.39.211.463.463,0,0,1,.13-.114,1.915,1.915,0,0,0,.407-.26,1.811,1.811,0,0,0,.325-.2c.154-.081.236-.138.236-.171.163-.146.309-.276.447-.382.073-.081.122-.13.138-.13h.008l-.163.252A.169.169,0,0,0,16.13.678a3.53,3.53,0,0,0,.5-.52,1.723,1.723,0,0,0,.35-.537A.67.67,0,0,0,17.09-.6V-.623a.116.116,0,0,0-.016-.049V-.7a.939.939,0,0,0,.138-.382.1.1,0,0,0-.008-.049c-.057,0-.13.089-.236.276-.081.138-.244.366-.472.683v.016l.016.024v.008a.64.64,0,0,1-.179.2V.134h.049c.024,0,.033-.033.033-.089.024.016.033.024.033.033V.1c0,.041-.041.089-.138.146A.484.484,0,0,0,16.236.1h-.008A.681.681,0,0,0,16,.337c.008,0,.008,0,.008.008h.008c.13-.122.2-.187.228-.187a.649.649,0,0,0,.033.13.266.266,0,0,0-.122.187h-.106c0-.016-.016-.033-.049-.033h-.008l-.073.049c-.049,0-.065.024-.073.073,0,.016-.016.041-.065.073V.654c.024.024.033.041.033.049a1.442,1.442,0,0,1-.138.081A.1.1,0,0,0,15.61.751H15.6a.721.721,0,0,0,.008.106l-.13.024V.938a1.719,1.719,0,0,0-.252.2,1.913,1.913,0,0,0-.431.211L14.8,1.3H14.74a1.077,1.077,0,0,1-.2.073v.049H14.5a.893.893,0,0,1-.228.106.529.529,0,0,0-.333.146h-.024A1.3,1.3,0,0,0,13.5,1.8a1.224,1.224,0,0,1-.52.13,1.606,1.606,0,0,1-.545-.1A1.094,1.094,0,0,1,11.724.719V.695a2.466,2.466,0,0,1,.325-1.138h.008c0,.13.033.211.106.252a.321.321,0,0,0,.13.171,1.681,1.681,0,0,0,.585.163A3.7,3.7,0,0,0,14.829-.875c.854-.756,1.276-1.4,1.276-1.911a.69.69,0,0,0-.268-.528,1.751,1.751,0,0,1-.333-.228C15.447-3.663,15.228-3.728,14.854-3.728Zm-2.382,2.61a5.6,5.6,0,0,1,.707-.789A6.921,6.921,0,0,1,14.26-2.72,3.312,3.312,0,0,1,15.3-3.135h.089q.146,0,.146.122c0,.13-.13.325-.382.561-.5.5-.992.959-1.48,1.39a5.936,5.936,0,0,1-.715.528.393.393,0,0,1-.276.106h-.008a.324.324,0,0,1-.26-.114C12.341-.7,12.3-.777,12.3-.777a.853.853,0,0,1,.179-.317A.03.03,0,0,0,12.472-1.119ZM15.642-3.1h.033c.016.1.024.163.024.179a.81.81,0,0,1-.244.48,6.582,6.582,0,0,1-1.016.911h-.016a.514.514,0,0,1,.122-.1,3.612,3.612,0,0,0,.732-.715q.39-.427.39-.561a1.062,1.062,0,0,0-.024-.187ZM12.561-1.81c0-.033.016-.049.041-.049v.033A.137.137,0,0,0,12.561-1.81ZM11.415-.24a.531.531,0,0,1,.1-.211,4.2,4.2,0,0,1,.61-.9,1.307,1.307,0,0,1,.35-.374h.016a.31.31,0,0,1-.073.122c-.488.626-.764.992-.821,1.089q-.11.293-.171.293h-.008Zm.8-.187a.137.137,0,0,1,.041.016c.1.089.163.13.2.13h.033a.206.206,0,0,0,.114-.057h.041V-.33a1.408,1.408,0,0,1-.244.122L12.35-.216,12.317-.2a.362.362,0,0,1-.106-.187ZM11.65-.4h.024l.008.041v.008h-.008q-.024-.012-.024-.024Zm-.463.089H11.2v.033h-.008Zm.13.252c0-.041.033-.081.114-.13A.41.41,0,0,1,11.341,0h-.016l-.008-.041Zm.22-.106a.121.121,0,0,1,.057.008v.016c-.016.024-.033.041-.041.041,0-.024-.008-.033-.024-.033C11.528-.151,11.537-.159,11.537-.167Zm-.057.1h.065a.725.725,0,0,1-.073.244c-.033.016-.049.089-.049.236a4.657,4.657,0,0,0-.089.5V.963c.065.333.13.5.179.5q.024-.012.024-.024V1.426a.371.371,0,0,1-.065-.179V1.174l.016.008a1.97,1.97,0,0,1,.325.594v.033a.03.03,0,0,0-.024.008c-.13,0-.276-.138-.455-.407a2,2,0,0,1-.114-.618,1.992,1.992,0,0,1,.163-.675A.776.776,0,0,0,11.48-.07Zm-.512.317a.676.676,0,0,1,.065-.2c.016-.065.041-.106.073-.106l.008.041V0a.561.561,0,0,1-.106.3C11,.3,10.984.28,10.967.247Zm.26-.1c0-.008.016-.024.057-.041l.008.041c0,.024-.016.041-.033.065-.008,0-.016-.016-.033-.041Zm-.008.1h.008c.024.008.033.024.033.057V.321l-.008.016c-.008,0-.024-.016-.049-.033ZM16.26.418c.106-.114.163-.171.179-.171V.288a.42.42,0,0,0-.146.146ZM10.935.426a.061.061,0,0,1,.041-.057c.033,0,.057.033.057.106a.25.25,0,0,1-.016.089q.012.3.024.415c0,.057.016.081.049.081a.72.72,0,0,0,.089.211c-.138,0-.228-.2-.252-.61,0-.065.008-.138.008-.22Zm4.96.13h.057c0,.016,0,.024.008.033H15.9A.049.049,0,0,0,15.894.556Zm-1.22.846a.1.1,0,0,1,.073-.041h.016c0,.008-.033.016-.081.041Zm-.5.276A.063.063,0,0,0,14.2,1.67h.008v.008a.03.03,0,0,0-.024.008h-.008Zm-1.358.358.041.024-.008.016L12.8,2.069V2.06Zm.138.041c.041-.008.065-.016.073-.016h.008c.081.008.122.024.122.041,0,0-.024.008-.057.016a.369.369,0,0,1-.146-.033Zm.13.13a1.5,1.5,0,0,0,.333-.041l.073.049c0,.016-.024.024-.081.033a1.567,1.567,0,0,0-.2-.024h-.122Zm7.557.439a3.514,3.514,0,0,0,1.285-.309,3.456,3.456,0,0,0,.756-.431V1.89l-.179.041V1.922c.049-.073.154-.106.309-.106.073,0,.22-.13.447-.4.179-.114.293-.2.35-.236A.842.842,0,0,1,23.891.9a4.307,4.307,0,0,1,.358-.325,1.786,1.786,0,0,0,.358-.447,1.285,1.285,0,0,0,.382-.691c0-.049-.024-.065-.073-.065a.3.3,0,0,0-.154.244h-.008L24.72-.419,24.7-.411a1.486,1.486,0,0,1-.187.358.566.566,0,0,1-.154-.033l-.008.008.008.024a.225.225,0,0,1-.073-.008,1.742,1.742,0,0,0-.138.138V.158L24.094.15c-.1.041-.146.089-.146.154l.122.008c.049-.065.081-.1.122-.1.008,0,.016.016.016.057L24.2.312a.678.678,0,0,0-.187.163l.008.016a1.971,1.971,0,0,1-.228.163c-.228.211-.374.317-.447.317V.963L23.37.93a8.147,8.147,0,0,0,.594-.561A.067.067,0,0,0,23.9.41a.191.191,0,0,1-.065-.016L23.809.41c0,.041-.016.065-.057.065a1,1,0,0,1-.22.2L23.509.67A.828.828,0,0,1,23.3.833,5.86,5.86,0,0,1,20.655,1.9c-.415,0-.618-.2-.618-.577a4.4,4.4,0,0,1,.984-2.211,8.232,8.232,0,0,1,1.024-1.26,2.051,2.051,0,0,1,1.13-.707c.057,0,.089.049.089.13a3.323,3.323,0,0,1-.545.968c0-.008-.008-.033-.016-.089a.664.664,0,0,0,.041-.138L22.736-2a.325.325,0,0,0-.114.171c-.057.211-.114.431-.187.659a.164.164,0,0,0-.073.146c0,.179.057.268.154.268h.057c.106,0,.26-.138.463-.423a3.612,3.612,0,0,0,.707-1.642v-.1a.453.453,0,0,0-.22-.374,1.429,1.429,0,0,0-.683-.179q-1,0-2.61,1.781A5.406,5.406,0,0,0,18.72,1.256a1.325,1.325,0,0,0,.3.837,1.279,1.279,0,0,0,.683.48h.016V2.524A3.2,3.2,0,0,0,20.647,2.646Zm2.894-5.309h-.008V-2.7h.008ZM20.46-1.094l-.024-.016c.057-.065.089-.089.1-.089.024.008.033.016.033.024s-.016.016-.057.041C20.492-1.11,20.476-1.094,20.46-1.094ZM19.6.256a.854.854,0,0,0-.106-.016.224.224,0,0,1,.081-.154c.089-.2.154-.3.179-.3a5.919,5.919,0,0,0,.463-.65c.081-.065.122-.114.122-.163h.008a.477.477,0,0,1-.236.463c-.041.114-.081.187-.122.2A3.378,3.378,0,0,1,19.671.1.092.092,0,0,0,19.7.166h-.024a.108.108,0,0,0-.057-.024c-.016,0-.024.016-.033.057ZM24.427.044c-.008,0-.024-.016-.033-.041q0-.012.049-.024c.008,0,.008.008.016.024S24.452.02,24.427.044Zm-.163.138a.13.13,0,0,1,.081-.106A.1.1,0,0,1,24.265.182Zm.13.1h-.057c.049-.106.1-.154.138-.154l.008.049A.1.1,0,0,0,24.395.28ZM19,.873h-.016V.808l.033-.171L19.012.524a.2.2,0,0,1,.081-.106A.889.889,0,0,1,19.24.182c.008,0,.016.008.016.024C19.142.654,19.061.873,19,.873Zm.48-.187h-.033c0-.016.033-.041.081-.1.016,0,.016.008.016.024C19.549.662,19.533.686,19.484.686Zm4.228.163A.017.017,0,0,0,23.7.833l.016-.024.033.008C23.744.825,23.728.841,23.712.849Zm-4.488.829a.4.4,0,0,1-.041-.146l.008-.106a1.518,1.518,0,0,1,.2-.594H19.4l.008.057a4.578,4.578,0,0,1-.122.455C19.289,1.565,19.264,1.678,19.224,1.678ZM23.248.93h-.016c0-.041.024-.057.065-.057C23.3.914,23.281.93,23.248.93Zm-4.317.179a.141.141,0,0,0-.024-.057L18.939,1,18.931.947A.116.116,0,0,0,18.947.9l.065.024V.947C19,.971,19,.979,18.988.979,18.98,1.069,18.964,1.109,18.931,1.109Zm4.309-.024h-.024c0-.024.016-.041.049-.041C23.257,1.069,23.248,1.085,23.24,1.085Zm-.171.154c-.008,0-.016-.008-.016-.024l.016-.024.024.016Zm-4.057.049c-.008,0-.024-.016-.033-.033.008-.033.016-.041.024-.041l.049.033C19.037,1.272,19.021,1.288,19.012,1.288Zm-.1.2c-.024-.008-.033-.024-.033-.033a.054.054,0,0,1,.041-.033v.049Zm3.943.268h-.016c0-.041.024-.057.089-.057V1.7A.078.078,0,0,1,22.858,1.752ZM19.24,1.89a.12.12,0,0,1-.073-.106c0-.008.016-.024.057-.057a.126.126,0,0,1,.057.1C19.273,1.865,19.256,1.89,19.24,1.89Zm9.63-5.553a.687.687,0,0,0-.472.236,2.509,2.509,0,0,0-.447.821c-.341.976-.577,1.61-.7,1.9a3.142,3.142,0,0,0-.309.8,22.375,22.375,0,0,0-.675,2.683v.024a.548.548,0,0,1,.106.122.342.342,0,0,0,.22.171.386.386,0,0,0,.2.081c.049,0,.081-.008.081-.016.1,0,.187-.114.276-.35C27.635,2,28.017,1.394,28.285,1A6.92,6.92,0,0,0,28.83,0a3.83,3.83,0,0,1,.7-1.163c.407-.626.732-.935.992-.935h.057a.369.369,0,0,1,.146.033,4.1,4.1,0,0,1,.537.439.526.526,0,0,0-.024-.081v-.049h.008a.439.439,0,0,1,.138.154,1.056,1.056,0,0,1,.252.211h.008l.024-.016h.016a.207.207,0,0,0,.13.13c.016,0,.024-.008.024-.016v-.049q.122.037.122.073v.016q-.073.012-.073.024v.008q.11.122.171.122l.057-.008c.065.016.1.033.114.033l.041-.008V-1.11l-.024-.033v-.008h.073c.008.041.016.065.033.065s.016-.008.016-.016V-1.11l-.008-.041H32.4a1.088,1.088,0,0,0,.854-.594v-.008h-.008a.751.751,0,0,0-.276.276q-.085,0-.244.171a3.021,3.021,0,0,1-.512.089H32.2l-.016.008c0-.008-.016-.008-.049-.008-.041-.065-.065-.1-.081-.1a.116.116,0,0,1-.049.016c0-.008-.008-.024-.033-.049a.332.332,0,0,1-.154-.114L31.635-1.6a.125.125,0,0,1-.081-.13.1.1,0,0,1,.081.049c.1.049.146.081.154.106a.6.6,0,0,1,.114.081l.179.065a.1.1,0,0,1,.073-.049.435.435,0,0,1,.073.057h.016q.024-.012.024-.024l.057.065h.016a.365.365,0,0,0,.089-.008c.024,0,.041-.033.057-.114a.3.3,0,0,0,.089.024H32.6c.114,0,.276-.114.472-.35a.976.976,0,0,1,.415-.293c0-.106-.033-.163-.1-.163l-.049.008a.216.216,0,0,1-.106-.081l-.033.033.016.106c-.024.024-.033.041-.033.049a.4.4,0,0,0,.033.089v.024h-.008c-.016,0-.024-.033-.041-.081-.008,0-.016.008-.024.033l.008.049c-.309.309-.52.463-.626.463a.182.182,0,0,1-.122-.065H32.4a.182.182,0,0,0-.081.024H32.31c-.033-.065-.065-.1-.089-.1l-.13.016a1.153,1.153,0,0,1-.756-.472c-.374-.472-.715-.715-1.016-.715-.276,0-.561.2-.878.577a.352.352,0,0,1-.114.163v.033c0,.008,0,.016.016.016h.016a.017.017,0,0,0,.016-.016.414.414,0,0,0,.089.033v.008c-.033,0-.073.065-.114.2v.008q.012.024.024.024h.008a.129.129,0,0,0,.1-.041v.008c0,.049-.073.122-.211.211q-.012,0-.049-.073c-.049,0-.089.057-.122.163-.049.024-.073.081-.073.179l.057-.008V-1.4a.225.225,0,0,1-.089.2h-.008q-.11-.1-.146-.1h-.016a.062.062,0,0,0-.065.049c0,.008,0,.016.016.016H28.8c0-.016.008-.024.033-.033a.765.765,0,0,1,.033.081.086.086,0,0,0-.089.065.054.054,0,0,0,.041.033v.008a.6.6,0,0,0-.138.211c0,.057-.049.089-.154.122a.26.26,0,0,0,.065.138v.008c-.114.016-.163.033-.163.057v.065a.153.153,0,0,1-.016.065.076.076,0,0,0-.049.065V-.33l.008.016.041-.008a1.66,1.66,0,0,1,.138-.2v.049a.311.311,0,0,1-.1.171A1.4,1.4,0,0,1,28.2.264c-.089.171-.154.26-.187.26L28,.516l-.081.163a9.158,9.158,0,0,1-.756,1.407h-.008V2.077a.4.4,0,0,1,.049-.138,10.107,10.107,0,0,0,.61-1.333,4.383,4.383,0,0,0,.22-.455.276.276,0,0,0,.1-.1,1.159,1.159,0,0,1,.089-.285L28.2-.24H28.2q-.012,0-.1.1c-.122.268-.211.407-.276.407h-.016V.256c.114-.415.2-.724.276-.911,0-.065.3-.756.886-2.073a1.588,1.588,0,0,0,.138-.642v-.041C29.09-3.582,29.009-3.663,28.871-3.663ZM29.5-1.956c.016-.016.024-.033.041-.033a.3.3,0,0,1,.146-.154c.033-.089.073-.13.122-.13l.049.008v.016c-.016,0-.024.008-.041.024l.008.081a.218.218,0,0,1-.122.187,1.04,1.04,0,0,1-.138.211.98.98,0,0,1-.244.35l-.065-.057.024-.065q.146-.146.2-.146c0-.057.057-.138.154-.244v-.016l-.057.008h-.057l-.016.008Zm-1.057-.1h.016c0,.008-.008.016-.008.033h-.008Zm.016.211c0-.033.024-.057.065-.1h.008v.024a.154.154,0,0,1-.057.114c-.008,0-.008-.008-.016-.016Zm-.171.13c.008-.024.016-.041.041-.049v.049Zm-.163.528a1.484,1.484,0,0,0,.163-.325.29.29,0,0,1,.138-.2c-.089.163-.2.423-.35.764a4.355,4.355,0,0,0-.317.87c0,.081-.057.138-.171.163A.084.084,0,0,1,27.6.06c.065-.211.13-.407.2-.585V-.533c-.016,0-.041-.016-.057-.065,0-.041.033-.1.106-.187a3.549,3.549,0,0,1,.211-.455.03.03,0,0,0-.008-.024c.073-.171.13-.26.179-.268h.008a1.677,1.677,0,0,0-.13.35Zm.146-.472q.024,0,.024.049h-.008c-.008,0-.016-.016-.024-.033Zm.821.179a.094.094,0,0,1,.065-.073.139.139,0,0,1,.049-.073h.016v.049q-.061,0-.073.1v.033c-.008,0-.024.008-.033.008s-.016-.008-.024-.008Zm2.488-.1h.008v.016h-.008Zm-3.659.016.033.008v.008h-.016C27.927-1.541,27.927-1.549,27.927-1.558Zm.041.154h.008l.008.024-.016.008Zm1.024.033c-.008,0-.008.008-.016.016l.008.041h.008c.016,0,.016-.008.016-.016v-.024C29.009-1.362,29.009-1.371,28.992-1.371Zm.154.2a.082.082,0,0,1,.073-.089l.016.008c-.016.057-.033.081-.049.081ZM27.862-1.1c.024-.073.041-.114.065-.114v.008C27.9-1.143,27.879-1.1,27.862-1.1Zm1.016-.024c0-.016.016-.024.041-.024h.008a.166.166,0,0,1-.016.089c-.016-.016-.033-.024-.033-.033Zm.2.057c0-.049.016-.073.041-.073h.016l-.041.081Zm-1.26.041a.017.017,0,0,1,.016.016,2.632,2.632,0,0,1-.179.431h-.016V-.6c.016-.081.024-.114.041-.114A2.58,2.58,0,0,1,27.822-1.029Zm.951.276c.008-.024.024-.033.033-.033a.03.03,0,0,0,.008.024v.008Zm-.016.179c0-.016,0-.016.016-.016H28.8c-.016.016-.024.024-.024.041h-.016Zm-.439.122a.017.017,0,0,0-.016.016v.008c0,.016,0,.016.016.016h.024V-.436c0-.008-.008-.008-.016-.016Zm-.057.057q-.024.012-.024.024V-.33a.017.017,0,0,0,.016.016q.024-.012.024-.024V-.395Zm.268.325q.024-.171.049-.171h.049v.024a.721.721,0,0,1-.089.154h-.008ZM28.5-.029H28.5c.008,0,.016.008.024.016-.008.033-.041.057-.081.089A.43.43,0,0,1,28.5-.029Zm-.333.138-.024.016a.081.081,0,0,0,.008.033h.008a.017.017,0,0,0,.016-.016V.125Zm.252.008c.008,0,.016.008.016.033l-.008.008h-.016Zm-.13.244c0-.057.016-.081.065-.081V.312c-.024.033-.033.049-.041.049Zm-.919.008h.008V.4h-.008Zm-.041.122h.016V.5a3.276,3.276,0,0,1-.163.642c-.049.252-.106.382-.154.382,0,0,0-.008-.016-.008l.008-.016V1.378l.008-.008-.008-.008-.033.008V1.345h.024c.049,0,.073-.049.073-.13V1.191a.366.366,0,0,0-.065.016c0-.016,0-.024-.008-.033.008,0,.016-.016.016-.057.033.024.049.049.049.065h.008c.016,0,.024-.024.033-.073A.647.647,0,0,0,27.22.825,3.218,3.218,0,0,0,27.326.491Zm-.553.789c.016-.033.033-.041.041-.041l.008.041V1.3q0,.012-.049.024Zm-.081.341a.161.161,0,0,1,.049-.114.251.251,0,0,0,.016.065c-.033.041-.049.057-.057.057h-.008Zm.22.033c0-.008,0-.016.016-.016s.016.008.024.033l-.041-.008Zm-.228,0h.008a.03.03,0,0,0,.008.024.03.03,0,0,0-.008.024l-.016-.008ZM39.81-3.574l-.024.008c-.138.073-.2.146-.2.2a1.6,1.6,0,0,0-.13.171c-.016.13-.024.2-.041.2a1.4,1.4,0,0,1-.13.382v.033l.008.016c-.008,0-.016.024-.024.089-.057.033-.081.065-.081.073a.121.121,0,0,0,.016.073l-.065.089v.033l.008.016c.033-.008.057-.016.057-.041h.008v.024a1.213,1.213,0,0,1-.2.415c-.024.089-.049.13-.073.13a1.307,1.307,0,0,1-.154.252c-.041.13-.073.187-.089.2a.792.792,0,0,0-.081.122.312.312,0,0,1-.065.138,1.949,1.949,0,0,1-.211.317.733.733,0,0,1-.163.252.978.978,0,0,1-.179.285c-.065.106-.122.163-.146.163a.131.131,0,0,1,.033-.081V-.07a.153.153,0,0,1-.073.033A.5.5,0,0,0,37.7.109a.126.126,0,0,0,.024.049.234.234,0,0,0,.106-.073h.008V.1a.8.8,0,0,1-.106.154h-.016V.2A.017.017,0,0,0,37.7.182h-.008L37.664.2V.182h-.008c-.057.081-.114.154-.171.228a3.754,3.754,0,0,1-.715.829c-.358.415-.618.618-.8.618h-.008a.138.138,0,0,1-.057-.008c-.122-.057-.179-.228-.179-.52V1.256a7.542,7.542,0,0,1,.138-1.2A9.381,9.381,0,0,1,36.249-1.3a12.2,12.2,0,0,1,.52-1.374,1.757,1.757,0,0,0,.179-.512v-.008a.3.3,0,0,0-.016-.106.449.449,0,0,0-.4-.268.9.9,0,0,0-.5.138c-.033,0-.106.138-.211.415l-.268.634c-.065.26-.122.5-.187.724a9.323,9.323,0,0,0-.618,2.667v.073c0,.065,0,.1.008.1a1.385,1.385,0,0,0,.439.854,1.415,1.415,0,0,0,.927.4h.024a.712.712,0,0,0,.39-.171,1,1,0,0,0,.358-.228,6.02,6.02,0,0,0,.781-.87V1.15a1.762,1.762,0,0,0-.236.236,1.575,1.575,0,0,0-.26.244c0,.057-.089.089-.26.1V1.719a1.662,1.662,0,0,0,.26-.2,5.947,5.947,0,0,0,.65-.683,13.36,13.36,0,0,0,.935-1.366h.008v.008A1.334,1.334,0,0,0,38.7,0a1.4,1.4,0,0,0,.13.618,1.145,1.145,0,0,0,1.122.65h.008A2.336,2.336,0,0,0,41.192.89c.122-.106.179-.171.179-.2a1.481,1.481,0,0,0,.374-.407c0-.008,0-.016-.016-.016a.366.366,0,0,0-.073-.138c.008-.041.016-.057.016-.065a.017.017,0,0,0-.016-.016.146.146,0,0,0-.073.033.726.726,0,0,1-.2.211L41.363.288l.008-.033c.081-.065.122-.122.122-.163V.077h-.016A.152.152,0,0,0,41.4.117a2.657,2.657,0,0,1-.439.358c-.016.033-.049.041-.106.041q0,.037-.146.1c-.146.016-.22.041-.22.057l.024.041c0,.008-.033.033-.106.073a1.222,1.222,0,0,1-.382-.057.614.614,0,0,1-.4-.634V0a1.322,1.322,0,0,1,.1-.472.225.225,0,0,1-.008-.065,4.927,4.927,0,0,0,.146-.585c.2-.6.293-.911.293-.919a2.9,2.9,0,0,0,.171-.618v-.008L40.282-3v-.081a.252.252,0,0,1,.041-.089c0-.008,0-.016-.016-.033l-.024.016h-.016c-.081-.114-.138-.179-.171-.179-.033.033-.049.049-.057.049s-.016-.016-.033-.057l.016-.024c-.024-.081-.041-.122-.065-.122h-.008c-.049.008-.081.016-.089.016h-.008A.159.159,0,0,0,39.81-3.574Zm.22.431c0-.008.016-.024.057-.041l.016.008c0,.008-.024.024-.065.033Zm-.089.675h.033c.008,0,.016,0,.016.008v.033l-.008.049A.263.263,0,0,1,39.9-2.2v.041l.041.041-.073.049c0,.008.008.016.008.033-.016.057-.033.081-.049.081a1.064,1.064,0,0,1-.073.228,1.5,1.5,0,0,0-.089.309V-1.4l.008.016a.063.063,0,0,0,.024-.008H39.7v.041a.71.71,0,0,1-.041.106c-.016,0-.016-.016-.016-.041h-.024a.622.622,0,0,1-.041.13.372.372,0,0,1-.041.122v.016c0,.016.008.016.016.016l.024-.016c.008-.089.024-.13.057-.13a.063.063,0,0,0,.008.024c-.008.024-.016.041-.024.041-.016.089-.081.35-.2.772l-.033-.033a.4.4,0,0,0,.024-.122L39.4-.492h-.008A2.561,2.561,0,0,0,39.3-.11c0,.008,0,.016.016.016s.041-.057.057-.154V-.273h.016v.065a.369.369,0,0,1-.033.146.062.062,0,0,1-.041-.016h-.008l-.033.016a.465.465,0,0,1-.081.276c.016.114.033.187.033.2a.355.355,0,0,1-.057.171L39.151.581a.437.437,0,0,0-.073-.211.053.053,0,0,0-.041.016,1.107,1.107,0,0,0,.008.13c-.049,0-.073-.049-.073-.138A.559.559,0,0,0,39,.174a.422.422,0,0,0-.024-.041A.351.351,0,0,0,39.005.02c0-.033-.008-.057-.024-.057a1.22,1.22,0,0,0-.073.374l.008.041L38.9.426h-.008c0-.008,0-.016-.016-.033A.664.664,0,0,0,38.883.28a.5.5,0,0,0-.016-.146.709.709,0,0,0,.016-.163.193.193,0,0,0-.024-.122V-.159a.151.151,0,0,0,.057-.016.457.457,0,0,1,.057-.187l-.024-.033-.016.008c-.008.057-.016.089-.033.089h-.033a.229.229,0,0,0-.008-.065.218.218,0,0,1,.065-.13h.008c0,.016.008.024.016.024a.146.146,0,0,0,.057-.122,2.1,2.1,0,0,0,.081-.268,1.3,1.3,0,0,0,.1-.252l.106-.138v.008l-.041.211v.008c0,.016,0,.016.016.016h.008l.016-.008-.008-.033c0-.016,0-.016.016-.016h.008l.041.008q.073-.024.073-.073a.529.529,0,0,0,.073-.211.635.635,0,0,0,.073-.171l-.008-.008a1.019,1.019,0,0,0,.073-.22.679.679,0,0,0,.081-.252c0-.024.033-.057.1-.114V-2.11c0-.016,0-.024-.008-.033Zm-.341.089.016.008c-.016.081-.033.122-.041.122a.411.411,0,0,1-.041.154.063.063,0,0,1-.033-.033c.016,0,.033-.049.049-.138A.306.306,0,0,0,39.6-2.379Zm-3.439.22a.017.017,0,0,1,.016.016h-.016Zm2.894.049q-.024.012-.024.024v.008q.012.024.024.024h.016q.024-.012.024-.024C39.094-2.094,39.078-2.1,39.054-2.11Zm.22.724.065-.244c.049-.041.065-.122.065-.252.041-.122.073-.187.1-.187v.024l-.016.057v.057a.159.159,0,0,1-.008.065c-.049.122-.081.22-.114.309-.008.073-.024.106-.041.106v.041c0,.057-.016.081-.024.081h-.016l-.008-.041Zm-.35-.512a.1.1,0,0,1-.049.081v.008c.016.024.024.033.033.033a.135.135,0,0,0,.041-.106V-1.9Zm-2.886.016.016.008c-.016.057-.041.089-.057.089A.135.135,0,0,1,36.037-1.883Zm2.829.154h-.016c-.016.049-.041.106-.065.163,0,.008.008.016.008.024h.024l.008-.049c.041-.041.065-.073.065-.1V-1.7Q38.879-1.728,38.867-1.728Zm.927.033H39.8v.016h-.008ZM36.818,1.686V1.678c.065-.073.138-.154.211-.252a2.124,2.124,0,0,1,.252-.358.674.674,0,0,1,.13-.179,1.574,1.574,0,0,1,.244-.309.545.545,0,0,1,.211-.333,4.357,4.357,0,0,1,.35-.528c.089-.171.138-.26.138-.26a2.154,2.154,0,0,1,.171-.276c.073-.154.122-.236.146-.236.065-.138.13-.244.171-.317a1.46,1.46,0,0,1,.211-.317,5.745,5.745,0,0,1-.122.61,3.256,3.256,0,0,0-.35.545A4.486,4.486,0,0,1,37.956.524a5.524,5.524,0,0,1-1.13,1.163Zm-.886-3.358h.008a.262.262,0,0,0,.008.065c-.057.187-.089.285-.106.285-.016.1-.033.146-.041.146v-.016h-.024v.033a.03.03,0,0,1,.024.008.143.143,0,0,0-.008.049.9.9,0,0,0-.073.187,1.572,1.572,0,0,0-.114.374,1.273,1.273,0,0,0-.122.423A1.144,1.144,0,0,0,35.4.264a1.39,1.39,0,0,0-.065.35h-.016a.3.3,0,0,1,.016-.13c-.008-.008-.008-.016-.008-.033V.321l.024-.081V.182a.225.225,0,0,1,.008-.073.807.807,0,0,0,.065-.22l.057-.268a.25.25,0,0,1,.081-.163V-.566a.9.9,0,0,1,.016-.146.478.478,0,0,0,.081-.2V-.964a.131.131,0,0,0,.041-.089c.049-.171.089-.26.114-.26A.746.746,0,0,1,35.932-1.671Zm2.789.228c-.024.016-.033.024-.033.033V-1.4q.012.024.024.024h.016c.008,0,.016,0,.016-.016v-.033c0-.008-.008-.008-.016-.016Zm.642.415h-.041c-.033.1-.049.138-.057.138,0-.041-.008-.065-.016-.065h-.016c-.016,0-.024.024-.033.065a.03.03,0,0,0,.024.008c.008,0,.024.024.057.081-.024.073-.041.114-.057.114h-.008l-.033-.024c.016-.065.033-.106.033-.122V-.858H39.2a.534.534,0,0,0-.065.2l.016.024.016-.008h.041q.024.012.024.024v.008a.14.14,0,0,0-.016.065v.016h.024a1.54,1.54,0,0,0,.13-.488ZM38.4-.923c-.008,0-.008.008-.016.016l.008.016.024-.016C38.42-.915,38.42-.923,38.4-.923Zm1.114.016c-.016,0-.033.033-.041.089.008,0,.008,0,.008.008.024-.008.041-.024.041-.033V-.891Zm3.016.024-.163.171q-.049.146-.1.146v.016c.008.041.024.057.033.057h.008c.016,0,.033-.016.041-.057a2.126,2.126,0,0,0,.2-.309C42.55-.875,42.542-.883,42.534-.883Zm-4.2.065v.024h.016V-.818Zm.642.089L39-.72l-.008.041h-.016A.03.03,0,0,0,38.964-.7Zm-.683,0-.024.016a.389.389,0,0,1-.081.138v.033c.024,0,.065-.049.114-.163V-.728Zm.862.106h-.024a.61.61,0,0,0-.057.163V-.4h.008a.266.266,0,0,0,.073-.211Zm.268.041c-.008,0-.016.016-.033.041l.016.008a.1.1,0,0,0,.024-.016V-.582Zm-4.073.073h.008l.008.041L35.3-.24h-.024V-.249A.612.612,0,0,1,35.354-.509Zm6.887,0h-.016a1.3,1.3,0,0,1-.268.3l-.073.041v.041h-.049a.076.076,0,0,0-.065.049.017.017,0,0,0,.016.016h.041c.008.057.016.081.024.081h.041a.352.352,0,0,1,.114-.163.1.1,0,0,1,.106-.081c.033,0,.057-.033.081-.106l.089-.081A.2.2,0,0,0,42.241-.509ZM39.2-.484a.017.017,0,0,0-.016.016v.016l.016.024v.016c-.049.008-.073.065-.073.163q0,.012-.049.024l-.033-.024h-.008A.072.072,0,0,0,39-.184a.017.017,0,0,0,.016.016h.016l.024-.016c.024,0,.065.024.106.089h.008q.024-.012.024-.024V-.151c0-.024-.008-.049-.008-.073,0-.008.008-.024.008-.033A.137.137,0,0,0,39.176-.3c.024,0,.041-.057.041-.171C39.216-.476,39.208-.476,39.2-.484Zm-1.057.008a.175.175,0,0,0-.073.106.683.683,0,0,0-.146.22l.008.016a1.1,1.1,0,0,0,.228-.309V-.46C38.159-.468,38.151-.468,38.143-.476Zm3.846.024-.016.008.008.016L42-.436Zm-.049.065v.008l.008.016a.017.017,0,0,0,.016-.016V-.387Zm-2.854.049c-.024.008-.041.016-.041.024a.017.017,0,0,0,.016.016h.033V-.322Zm-3.846.179c0-.033.008-.049.033-.057h.008v.033a.112.112,0,0,1-.041.073ZM39-.151v.008l.008.016.016-.008a.017.017,0,0,0-.016-.016Zm.309.179a.063.063,0,0,1,.024-.057V0l-.008.041C39.306.044,39.306.044,39.306.028Zm2.4-.065c-.008,0-.016.016-.024.033a.03.03,0,0,0,.008.024c.024-.016.033-.033.033-.041s0-.008-.008-.016Zm-2.6.016q-.024.012-.024.024V.06a1.252,1.252,0,0,0-.024.13c0,.008.008.016.016.033a.184.184,0,0,0,.065-.154V0q-.012-.024-.024-.024ZM38.468,0,38.452,0a.55.55,0,0,1-.1.154.1.1,0,0,0,.016.024h.008a.593.593,0,0,1,.1-.154V.012Zm3.317.057c-.008,0-.008.008-.016.016V.077c0,.016.008.016.016.016s.016,0,.016-.016V.069C41.8.06,41.8.052,41.786.052Zm-.276.2c.049-.057.081-.089.106-.089.016.024.033.041.033.049s-.016.008-.016.033c0,.008.016.016.065.033V.3c0,.008-.033.033-.081.089H41.55c0-.016,0-.024.008-.033.033-.024.057-.041.057-.041V.272L41.607.256,41.525.28a.017.017,0,0,1-.016-.016ZM39.094.239c-.016,0-.033.024-.041.073V.321a.017.017,0,0,0,.016.016h.008c.008,0,.016-.033.024-.089C39.094.247,39.094.247,39.094.239Zm-3.96.016h.016l.016.057a.66.66,0,0,1-.041.114h-.008V.418C35.119.386,35.127.329,35.135.256Zm2.439.187V.426a.477.477,0,0,1,.114-.154H37.7A.272.272,0,0,1,37.574.443ZM41.265.353h.024c0,.008-.008.016-.008.024h-.016ZM35.111.467q.024.012.024.024c0,.033-.008.049-.033.057A.251.251,0,0,0,35.111.467Zm2.4.008h.033a.194.194,0,0,1-.065.13h-.008V.581A.116.116,0,0,0,37.509.475Zm.634.008c-.008,0-.016.016-.033.049,0,.016.008.016.016.016.024-.008.033-.024.033-.033V.5C38.159.491,38.151.491,38.143.483ZM35.094.564H35.1l.016.081a.514.514,0,0,1-.033.106h-.008L35.07.711V.686A.4.4,0,0,1,35.094.564Zm3.96.041A.03.03,0,0,0,39.078.6c0,.016,0,.024.008.033-.008,0-.008.008-.008.024h-.016L39.054.613ZM38.062.6V.613h.016V.6Zm1.309.016c.016,0,.024.024.024.081a.413.413,0,0,1,.073.2c-.049,0-.081-.081-.1-.26ZM37.4.67a.055.055,0,0,1,.033-.049h.008V.646c0,.008-.008.016-.041.033ZM40.7.808c.008-.033.073-.065.187-.1a.447.447,0,0,1,.154-.057h.008V.678c-.008,0-.033.008-.065.016a1.163,1.163,0,0,1-.252.13A.061.061,0,0,0,40.7.817Zm-1.61-.13c.024,0,.065.033.122.106V.817q-.012.024-.024.024H39.16q-.024-.012-.073-.146Zm-1.13.073-.024.016a.017.017,0,0,0,.016.016h.008c.016,0,.016-.008.016-.016S37.972.751,37.956.751ZM41.07.776h.024V.784H41.07Zm-.065.033h.016V.817h-.016ZM37.867.9a.4.4,0,0,0-.13.154c.049,0,.089-.049.138-.154ZM35.054.938c0-.008.008-.008.016-.016h.008V.938ZM39.493.93h.016a.062.062,0,0,0,.016.033V.971L39.493.963ZM39.33.938q.024.012.024.024a.036.036,0,0,1-.024.008h-.008V.955Zm7.736-5.8c-.122.024-.187.041-.187.057a.71.71,0,0,0-.106-.041c-.057,0-.146.13-.26.4a3.985,3.985,0,0,0-.187.862q.024.293.2.293h.008q.22,0,.463-.415a2.71,2.71,0,0,0,.333-.789v-.024C47.326-4.639,47.245-4.745,47.066-4.859ZM46.391-2.85a.825.825,0,0,0-.325.106,1.18,1.18,0,0,0-.374.325,9.241,9.241,0,0,0-.667,1.22A8.444,8.444,0,0,0,44.2,1.589v.13a.808.808,0,0,0,.033.228,1.032,1.032,0,0,0,1.081.61,2.513,2.513,0,0,0,1.447-.61,5.033,5.033,0,0,0,.829-.732,2.458,2.458,0,0,0,.537-.594V.613a.062.062,0,0,0-.065.049,3.1,3.1,0,0,0-.39.382A2.762,2.762,0,0,0,47.3,1.4a1.512,1.512,0,0,0-.236.187.988.988,0,0,1-.3.236.6.6,0,0,1-.3.154h-.008a.16.16,0,0,1,.033-.065q.22-.171.22-.268H46.7a.613.613,0,0,1-.244.106H46.44c.016-.016.016-.024.016-.033l.317-.252a1.312,1.312,0,0,0,.309-.252c.114-.065.171-.122.171-.187h-.033V.979h.024A.32.32,0,0,1,47.294,1c.122-.041.179-.073.179-.106,0-.016,0-.024-.016-.024h-.033c0,.024-.033.057-.1.089H47.31L47.3.9a.171.171,0,0,1,.049-.065V.825h-.033a.593.593,0,0,1-.154.1,2.892,2.892,0,0,0-.366.317c-.041.033-.285.211-.748.528a2.163,2.163,0,0,0-.415.187.8.8,0,0,1-.211.033l-.13.065a.725.725,0,0,1-.179-.024c-.024,0-.041-.065-.041-.2A7.037,7.037,0,0,1,45.709-.7a2.963,2.963,0,0,1,.423-.707h.008c.016.081.024.122.024.13a.86.86,0,0,0-.057.179.063.063,0,0,0,.008.024.377.377,0,0,0,.1-.089,8.839,8.839,0,0,0,.309-.984.949.949,0,0,0,.138-.382c0-.22-.081-.325-.244-.325ZM44.961-.59h.024q0,.049-.024.049Zm.4.065c.016-.024.033-.033.041-.033l-.008.041Zm-.114.008h.008v.024h-.008Zm3.512.057v.033c0,.016,0,.016.016.016s.008,0,.008-.016V-.444c0-.008,0-.008-.008-.016Zm-3.569.309a1.256,1.256,0,0,1,.163-.285h.008l.016.057a.6.6,0,0,1-.016.1.4.4,0,0,1-.089.22C45.253-.062,45.229-.094,45.188-.151Zm-.146-.041c.065-.146.1-.228.122-.236l.024.1c-.016.1-.057.146-.138.146C45.05-.192,45.05-.192,45.042-.192Zm3.594-.2-.057.049.008.016a.054.054,0,0,0,.057-.033V-.387Zm.041.033a.017.017,0,0,0-.016.016v.016c0,.008,0,.016.016.016l.033-.024q-.012-.024-.024-.024Zm-3.724.13A.121.121,0,0,1,45-.33a.143.143,0,0,1-.049.122Zm3.6-.024c-.024.016-.041.033-.041.041s.016.016.049.033A.141.141,0,0,1,48.619-.2V-.208c0-.008-.016-.024-.049-.041Zm-.268.057a3.144,3.144,0,0,0-.431.439V.256a.03.03,0,0,0,.024-.008c.179-.179.317-.325.407-.431Zm.39.008c-.016,0-.024,0-.024.016v.008l.008.016c.024-.008.041-.016.041-.024V-.175C48.692-.175,48.684-.184,48.676-.184Zm-.22.049V-.11a.075.075,0,0,0,.057.073q.049,0,.049-.024l-.081-.073Zm-3.415.106a.043.043,0,0,1,.049-.049H45.1C45.1-.045,45.082-.029,45.042-.029Zm3.35-.016c-.016.016-.033.041-.057.065l.057.065.057-.016V.044Zm-3.52.024a.2.2,0,0,1,.041.057.487.487,0,0,1-.073.2q-.024-.012-.024-.024V.2a.178.178,0,0,0,.041-.1.088.088,0,0,1-.016-.057A.442.442,0,0,0,44.871-.021Zm-.008.8a2.05,2.05,0,0,0,.252-.634c0-.089.041-.138.13-.138,0,.008,0,.008.016.008V.085c-.089.317-.146.528-.171.642A.221.221,0,0,1,45,.768l.049.138c-.057.244-.089.382-.1.423h-.008V1.321c0-.236-.008-.407-.008-.528V.768L44.928.751a.126.126,0,0,0-.049.024Zm.171-.707A.049.049,0,0,1,45.058.02l.008.041V.069L45.05.093c-.008,0-.016,0-.016-.016Zm3.187.041V.125c0,.008,0,.016.016.016V.109Zm.13.057c-.033.008-.057.016-.057.033V.231H48.3l.057-.049ZM44.879.418a.084.084,0,0,0,.057-.041c.024-.122.057-.179.081-.179a.787.787,0,0,1-.089.317A.141.141,0,0,0,44.879.418ZM48.253.264V.272l.008.016L48.294.28V.264ZM44.782.3h.008l.024.122a.893.893,0,0,0-.065.211h-.041C44.757.426,44.782.312,44.782.3Zm3.2.057c-.024.016-.041.033-.041.041s.024.016.057.024c.008,0,.024-.008.057-.033C48.05.361,48.034.353,48,.353Zm.211,0c-.065.016-.1.041-.1.065a.008.008,0,0,1,.008.008C48.164.41,48.2.386,48.2.361Zm-.48.057c-.008,0-.016,0-.016.008V.434h.016c0-.008,0-.016.016-.024Zm.561.024-.106.122V.573h.008a.521.521,0,0,0,.114-.122V.434Zm-.252.041L48,.491c.008.033.016.041.024.041h.024q.024-.012.024-.024V.491c0-.008-.008-.008-.016-.016Zm-.447.049a.088.088,0,0,0-.033.041c.033,0,.057-.008.057-.024a.017.017,0,0,0-.016-.016Zm.187.016c-.016,0-.016.008-.016.016V.564l.008.016q.024-.012.024-.024A.017.017,0,0,0,47.766.54Zm.22.041c-.057,0-.106.041-.163.114V.7A.224.224,0,0,0,47.985.6Zm-.358.1c-.008,0-.024.016-.033.041V.727h.016A.07.07,0,0,1,47.66.7V.686C47.644.686,47.635.686,47.627.678ZM44.668.7h.008V.743h-.008ZM47.8.727V.751h.008V.727Zm-.13.106L47.66.849V.89h.024c.016-.016.033-.024.033-.033V.841ZM44.814.865h.008c.008,0,.016,0,.016.016h-.024Zm-.407.073c0-.024.016-.041.057-.057V.922a.531.531,0,0,1-.016.089h-.016Zm3.22-.024c-.024.016-.033.024-.033.033H47.6c.024-.008.033-.024.033-.033Zm-.171.154q-.073.049-.073.073l.008.016c.049-.016.073-.033.073-.041V1.085Zm-.39.325q-.024.012-.024.024v.016c0,.016.008.016.016.016h.008l.016-.008A.32.32,0,0,0,47.066,1.394Zm-.089.081a.084.084,0,0,0-.041.057V1.54c.049-.008.065-.016.065-.033V1.475Zm-2.171.455h.008v.033h-.008Zm1.561.081h.049a.06.06,0,0,1-.065.065A.109.109,0,0,0,46.367,2.012ZM54.68-10.623a1.012,1.012,0,0,0-.707.26,3.344,3.344,0,0,0-.561,1.236c-.285.943-.512,1.642-.667,2.09-.041.008-.276.041-.724.1a17.472,17.472,0,0,0-2.5.455,3.13,3.13,0,0,0-.7.26.234.234,0,0,0-.1.154.721.721,0,0,0-.089.154v.244l.016.024.057-.008h.016l.016.008c0,.033-.008.081-.016.154.033.065.065.106.114.106.033,0,.106-.057.228-.163q0-.061.488-.171c.041,0,.1.008.154.008s.106-.016.106-.024a2.034,2.034,0,0,0,.35-.073.715.715,0,0,0,.146.016.025.025,0,0,0,.016-.008.2.2,0,0,1,.154-.1c.016,0,.073,0,.171.008a1.021,1.021,0,0,0,.171-.073,4.232,4.232,0,0,0,.626-.106q.366-.024.366-.122c-.016-.008-.041-.024-.057-.033a.567.567,0,0,0-.13.065.053.053,0,0,1-.041-.016,1.658,1.658,0,0,0-.431.073h-.024a.846.846,0,0,1-.122-.016.7.7,0,0,0-.276.1.879.879,0,0,0-.39.073A1.728,1.728,0,0,0,50.111-6c-.024.016-.041.024-.041.033a3.656,3.656,0,0,0-.488.138.412.412,0,0,1-.106-.016.036.036,0,0,0-.024.008.63.63,0,0,0-.2.089.719.719,0,0,0-.268.057c-.033-.016-.057-.041-.057-.057s.049-.065.146-.106a.439.439,0,0,0,.13-.065c.008,0,.016.008.024.008a.116.116,0,0,0,.049-.016.176.176,0,0,1,.154-.1c.008,0,.024.016.041.049h.049c.008-.057.016-.081.041-.081h.008c.008.049.024.073.033.073h.049a.6.6,0,0,1,.163-.049.225.225,0,0,0,.073.008h.024c.024,0,.033,0,.041-.008a.3.3,0,0,0,.171-.1h.008a.182.182,0,0,1,.081.024c.154-.016.236-.041.236-.073.024,0,.057.008.1.008a.162.162,0,0,0,.065-.024.084.084,0,0,0,.033.008.954.954,0,0,1,.244-.041c.008,0,.033-.016.073-.057a.162.162,0,0,0,.065.024c.073,0,.106-.033.106-.1,0-.016-.008-.016-.016-.016h-.008l-.041.033h-.016c-.008,0-.024-.024-.049-.065a.225.225,0,0,0,.1-.041q.146-.012.146-.049h.024a.313.313,0,0,1,.089.073.022.022,0,0,0,.024-.024c0-.016.033-.033.1-.057,0-.008-.016-.024-.057-.041.008,0,.024-.008.065-.016.073.024.114.041.122.041l.138-.041c.041.008.057.024.057.049h.016q.024-.012.024-.024a.212.212,0,0,1,.089.024.22.22,0,0,0,.065-.024v-.024l-.033-.008v-.016l.057-.008h.114a.721.721,0,0,0,.2-.049h.008a.116.116,0,0,1,.1.049c.049-.008.081-.016.089-.016A.229.229,0,0,1,52.6-6.6q0,.024-.073.049a.3.3,0,0,1-.065-.008l-.041.041H52.4q-.293.012-.293.049v.008c0,.008,0,.016.016.016h.049c.049,0,.171-.024.374-.057h.024a7.236,7.236,0,0,1-.285.813c-.285.935-.545,1.764-.781,2.5-.187.732-.341,1.268-.455,1.6a8.63,8.63,0,0,1-.236.959,10.28,10.28,0,0,0-.276,1.911v.211a1.622,1.622,0,0,0,.1.577.8.8,0,0,0,.781.553h.106a1.85,1.85,0,0,0,.431-.065,3.624,3.624,0,0,0,1.407-.8.9.9,0,0,0,.236-.333l-.008-.016a.063.063,0,0,1-.024.008c-.154.171-.252.252-.3.252h-.008c0-.008.008-.033.016-.065a1.488,1.488,0,0,0,.3-.276c.13-.146.3-.35.512-.618.081-.122.146-.187.187-.187.016-.065.033-.106.049-.106a.881.881,0,0,0,.22-.293,1.414,1.414,0,0,0,.317-.545c.073-.2.114-.3.114-.317a.017.017,0,0,0-.016-.016c-.049,0-.1.057-.163.171-.057.089-.236.358-.537.813h-.008a.28.28,0,0,0-.073.008H54.16c.057-.073.081-.114.081-.138-.016,0-.041-.016-.057-.057q.1-.037.1-.049V-.013c-.016,0-.041-.016-.081-.049-.008,0-.041.024-.089.081V.06c0,.008.008.024.041.049V.117c0,.008-.024.016-.057.016a.4.4,0,0,1-.073.122V.264a.06.06,0,0,0,.016.049L54.03.353c0,.008-.089.1-.26.268a2.753,2.753,0,0,1-.26.285,1.573,1.573,0,0,1-.569.512c-.008,0-.016-.008-.024-.033a.092.092,0,0,0-.081.073,1.469,1.469,0,0,1-.9.553.475.475,0,0,1-.154-.033c-.154-.089-.228-.285-.228-.585V1.272a5.282,5.282,0,0,1,.1-.829A.639.639,0,0,1,51.753,0c.35-.626.691-1.342,1.041-2.138.431-.959.65-1.455.65-1.488q.207-.488.341-.878a10.983,10.983,0,0,0,.439-1.163c.081-.179.163-.439.268-.764,0,0,.008,0,.024.016h.033a.049.049,0,0,0,.049-.024v-.016l-.024-.033c-.041,0-.065.016-.065.049H54.5v-.008l.065-.154c.065,0,.1.008.1.016a.471.471,0,0,1,.252.049v.008l-.057.008h-.114l-.016.008c.016.041.033.065.041.065h.008a.677.677,0,0,1,.114-.033.088.088,0,0,1,.057.016l-.033.033v.016l.041.008a.968.968,0,0,1,.138-.024l.041.008h.089a.534.534,0,0,0,.106-.024c.163.024.366.041.618.057a.347.347,0,0,1,.154.073c.008,0,.033-.016.073-.033a.226.226,0,0,0,.106.049h.008a.187.187,0,0,0,.073-.024c.341.049.618.1.829.138.073,0,.106-.008.114-.016l.285.073h.057c.171-.033.26-.114.26-.236V-6.42a.781.781,0,0,0-.423-.61,3.923,3.923,0,0,0-1.675-.211h-.333c-.211,0-.447.008-.724.024.187-.585.341-1.106.455-1.545a8.776,8.776,0,0,0,.22-1.333v-.057a.311.311,0,0,0-.041-.154.43.43,0,0,1-.106.049h-.008c-.033,0-.049-.049-.049-.13a.1.1,0,0,0-.106-.114l-.016.008a.036.036,0,0,1-.024-.008.492.492,0,0,0-.065-.106h-.008c-.008,0-.016.016-.033.041l-.016-.008a.376.376,0,0,0-.228-.049ZM54.526-7.2a8.07,8.07,0,0,0,.244-.821A8.971,8.971,0,0,0,55.16-9.7c.024-.22.065-.325.106-.325h.016l.008.1v.073A5.124,5.124,0,0,1,55.119-8.8a11.977,11.977,0,0,1-.431,1.594,1.214,1.214,0,0,1-.154.008Zm-.675.057c.049-.138.081-.211.081-.211a11.833,11.833,0,0,1,.577-1.537,1.639,1.639,0,0,1,.285-.569H54.8v.041a.826.826,0,0,1-.057.2,1,1,0,0,1-.057.26c0,.008.008.016.008.024l-.024.122c-.073.276-.114.431-.114.455v.041l.008.016c.033-.024.049-.049.049-.065h.008c.008,0,.016,0,.016.016v.106a.169.169,0,0,1-.057.122c-.041.179-.065.268-.089.268l.008.041a.5.5,0,0,1-.033.13h-.008q-.024,0-.024-.049v-.024c.024,0,.041-.008.041-.016V-7.8a.116.116,0,0,0-.016-.049.29.29,0,0,0,.073-.211.017.017,0,0,0-.016-.016c-.024,0-.041.049-.057.138a.607.607,0,0,0-.073.268.5.5,0,0,1,.008.106v.106c-.008.049-.016.081-.033.081h-.008V-7.4h-.016v.065l-.016-.008c-.008,0-.016,0-.016.016a.285.285,0,0,1,.016.081v.008l-.008.041a1.667,1.667,0,0,1-.455.049Zm1.041-1.594H54.9v.016a1.128,1.128,0,0,1-.073.333c-.008,0-.016-.008-.024-.033l.033-.122A1,1,0,0,0,54.892-8.737Zm-.171.642c.024-.138.049-.2.073-.2,0,.073-.016.114-.033.114-.016.081-.024.114-.041.114Zm-.024.049h.016V-8a.049.049,0,0,1-.024.049v-.041Zm-.163.2c0-.008,0-.016.016-.016v.024h-.016Zm-.122.252a.017.017,0,0,1,.016-.016l.008.041-.008.016a.017.017,0,0,1-.016-.016Zm.122.138a.187.187,0,0,1,.065-.146v.041a.205.205,0,0,0-.049.138h-.016Zm-.041.138H54.5v.033h-.008Zm-.033.081h.008V-7.2h-.008Zm.252.146a.716.716,0,0,1,.171.049v.033L54.843-7H54.77l-.049.041H54.7l-.016-.008A.65.65,0,0,0,54.713-7.094Zm-.228.008s.033,0,.106.008a.183.183,0,0,0,.057-.008.65.65,0,0,0-.033.122h-.041a.272.272,0,0,0-.106-.057A.153.153,0,0,0,54.485-7.086Zm-.285.138c0-.081.024-.122.065-.122h.008a.562.562,0,0,1-.016.122l-.016-.008h-.024Zm-.39-.081a2.8,2.8,0,0,1,.382-.033H54.2a.217.217,0,0,0-.065.138h-.073a.448.448,0,0,0-.171.041c-.024,0-.065-.008-.122-.008A.847.847,0,0,1,53.81-7.029Zm1.26.049A.03.03,0,0,1,55.079-7a.85.85,0,0,1,.236-.049.33.33,0,0,1,.138.041V-7a.5.5,0,0,0-.089.024h-.016l-.211-.033c-.008,0-.016.008-.016.033Zm-4.2.463c.008-.041.057-.065.146-.065.138-.049.211-.081.22-.081.2,0,.3-.016.3-.041l.26-.065a1.13,1.13,0,0,0,.3-.065,1.305,1.305,0,0,0,.472-.073.438.438,0,0,1,.065.008l.057-.008H52.7l-.057.138-.1-.008a.265.265,0,0,0-.106.033c-.122.016-.358.049-.7.106H51.6c-.024.016-.033.024-.033.033a1.369,1.369,0,0,0-.293.049l-.049-.008H51.2a.764.764,0,0,1-.309.049Zm4.3-.171a.083.083,0,0,1,.041-.065h.008a.062.062,0,0,0,.016.033c-.016.033-.033.041-.041.041h-.024Zm-2.439.008h.016c.016,0,.016.008.016.016l-.016.024c-.008,0-.008,0-.016-.016Zm1.626.049c.024.024.041.033.049.033l.041-.008a.049.049,0,0,1,.033.008,1.715,1.715,0,0,1-.138.407,11.607,11.607,0,0,1-.415,1.146,10.318,10.318,0,0,1-.618,1.5,4.949,4.949,0,0,1-.228.577c-.122.236-.236.48-.341.724a2.183,2.183,0,0,0-.244.431c-.1.22-.171.341-.211.358a.008.008,0,0,0-.008-.008.787.787,0,0,1,.106-.2,3.15,3.15,0,0,1,.2-.463c.146-.366.236-.569.268-.626a1.68,1.68,0,0,1,.228-.5,2.469,2.469,0,0,1,.2-.52,5.12,5.12,0,0,1,.2-.5l.171-.455a1.092,1.092,0,0,0,.146-.423c.114-.268.187-.472.228-.594a2.224,2.224,0,0,0,.154-.472A1.441,1.441,0,0,0,54.363-6.631Zm-.675.049c.171-.008.309-.016.431-.033h.016l-.008.016v.1c-.033,0-.049.016-.049.057h-.016c-.016,0-.016-.016-.016-.049h-.008c-.024.008-.033.024-.033.057V-6.4c.008.016.024.033.033.033a.335.335,0,0,1-.049.154.314.314,0,0,1-.089.252.754.754,0,0,1-.114.293l-.033-.024h-.016v.008l.008.049c-.008.024-.024.041-.033.041a.25.25,0,0,0,.033.073.108.108,0,0,1-.024.057l-.033-.016a.025.025,0,0,0-.016.008.92.92,0,0,0,.008.114.262.262,0,0,0-.049.146c-.033,0-.049,0-.049-.008,0,.016-.008.016-.016.016l.016.057v.106l-.008.057h-.016q-.024,0-.024-.049v-.024H53.51a.447.447,0,0,0-.057.154.07.07,0,0,0,.024.049.116.116,0,0,1-.016.049l-.016-.008c-.016,0-.024.024-.041.065a.229.229,0,0,0,.008.065c-.008.016-.008.024-.016.024-.016.106-.041.154-.057.154a.017.017,0,0,1-.016-.016l-.016.008.008.041v.049l-.033-.041c-.024,0-.073.122-.146.374A1.13,1.13,0,0,0,53-3.761l-.1.22c-.2.423-.325.707-.374.854v.008l.008.057-.016-.008a.1.1,0,0,0-.024.016q-.037.1-.049.1a2.831,2.831,0,0,0-.26.528h-.008c.041-.154.22-.7.528-1.642.333-1.065.626-1.968.87-2.691.024-.016.041-.033.041-.057A.017.017,0,0,0,53.6-6.4c.041-.122.065-.187.065-.2A.03.03,0,0,1,53.688-6.582ZM50.526-6.5v-.008a1,1,0,0,1,.2-.057h.016a.017.017,0,0,1,.016.016l-.008.016a.756.756,0,0,0-.171.049A.116.116,0,0,1,50.526-6.5Zm1.553-.065a.017.017,0,0,0-.016.016v.008a.03.03,0,0,1,.024.008c0-.008,0-.016.016-.016a.017.017,0,0,0-.016-.016Zm1.187.065q.012-.024.024-.024v.049Q53.266-6.489,53.266-6.5Zm-.6.13c0-.016,0-.016.008-.016.008-.081.033-.122.065-.122v.016c.041.024.057.049.057.073A1.1,1.1,0,0,0,52.664-6.371Zm.707-.081A.049.049,0,0,1,53.4-6.5h.016q.024.012.024.024v.024A.054.054,0,0,1,53.4-6.4.054.054,0,0,1,53.371-6.452Zm-1.407-.041a.49.49,0,0,1-.106.065c0,.008.016.016.041.024.081-.024.122-.033.122-.041S52.005-6.468,51.965-6.493Zm-.764.057c-.008,0-.016,0-.016.016l.008.016.049-.008V-6.42a.017.017,0,0,0-.016-.016Zm.577.016c-.049.016-.1.024-.154.041v.016c.114-.008.163-.024.163-.041V-6.42Zm2.122,0a.049.049,0,0,0-.049.024v.024h.041q.024-.012.024-.024V-6.4A.017.017,0,0,0,53.9-6.42Zm-.2.008-.033.008V-6.4c0,.008,0,.016.016.016H53.7c.016,0,.016-.008.016-.016S53.713-6.411,53.7-6.411Zm-2.878.041c.041.008.089.024.146.041v.016a.3.3,0,0,0-.138.041.277.277,0,0,0-.13-.033h-.008a.082.082,0,0,0-.089.073.219.219,0,0,1-.106-.057.227.227,0,0,1,.041-.065c.041.016.065.033.065.041a.129.129,0,0,1,.081-.041h.033l.041.024C50.794-6.346,50.818-6.355,50.818-6.371Zm2.268.033q0-.024.049-.024a.061.061,0,0,0,.008.033l-.033.016a.1.1,0,0,1-.024-.016Zm-1.724-.024a.008.008,0,0,0-.008.008c-.081.016-.122.033-.122.041V-6.3c0,.016,0,.016.016.016h.024l.073-.024c.016,0,.041.008.065.008l.024-.024C51.436-6.338,51.412-6.355,51.363-6.363Zm.2.016v.008h.016v-.008Zm-2.033.065c0-.008.008-.016.033-.024.008,0,.016.016.024.033s-.008.016-.016.016h-.008Zm.642-.024h.041v.016h-.024C50.184-6.29,50.176-6.29,50.176-6.306Zm2.976.057c0-.008.016-.024.057-.041q0,.085-.049.1l-.008-.041Zm-.829-.041a.458.458,0,0,0-.1.033c0,.033.008.041.016.041H52.3c.065,0,.089-.008.089-.024C52.363-6.273,52.347-6.29,52.323-6.29Zm-.146.008a.225.225,0,0,0-.1.041c.016.033.033.049.057.049.008,0,.024-.016.057-.065C52.176-6.265,52.176-6.273,52.176-6.281Zm-.545,3.5a.151.151,0,0,0,.138-.106,3.484,3.484,0,0,1,.122-.341,1.107,1.107,0,0,1,.049-.2c.228-.764.382-1.236.455-1.415l.26-.772a1.752,1.752,0,0,0,.1-.293c.057-.244.114-.366.154-.366.008,0,.008.016.008.049a2.639,2.639,0,0,0-.089.3.624.624,0,0,0-.106.317,2.658,2.658,0,0,0-.114.366.722.722,0,0,0-.081.211.61.61,0,0,0-.057.163c-.049.154-.1.341-.163.569a.825.825,0,0,0-.081.309,6.2,6.2,0,0,0-.333,1.041.329.329,0,0,0-.049.089l.008.049V-2.8a.435.435,0,0,0-.089.228c-.041.138-.073.228-.081.276.008.041.016.065.033.065h.024c.008,0,.016-.016.024-.041s-.008-.049-.008-.073v-.008a.138.138,0,0,1,.065-.106c-.008-.033-.016-.057-.016-.065a1.323,1.323,0,0,0,.106-.252c.016-.138.041-.211.057-.211a.68.68,0,0,1,.073-.228c.024-.2.057-.3.106-.3l-.008-.1.081-.016-.024.033v.008a.5.5,0,0,0,.041.049h.008a.13.13,0,0,0,.065-.024L52.3-3.639a.059.059,0,0,1,.033-.057h.024c.008,0,.016.008.024.016h.033q.024-.012.024-.024c-.016-.024-.024-.033-.033-.033h-.073a.366.366,0,0,0,.016-.114v-.016h-.033a.171.171,0,0,1-.065.049v-.041a.222.222,0,0,1,.033-.041c.033-.138.065-.211.106-.211a.308.308,0,0,0-.008-.065.159.159,0,0,1,.089-.138.48.48,0,0,1,.065.041l-.033.163-.024-.016h-.024a.017.017,0,0,0-.016.016v.016c.024.024.033.033.033.041v.008A.049.049,0,0,1,52.445-4L52.4-4a.137.137,0,0,1-.041.016v.033a.956.956,0,0,1,.122.089H52.5c.016-.081.041-.122.057-.122H52.6a.063.063,0,0,0,.008.024c-.016.073-.041.154-.073.26a1.559,1.559,0,0,1-.081.211h-.008c0-.024-.008-.033-.024-.033l.024-.033v-.016h-.057q0-.049-.024-.049h-.008q-.024.012-.024.024v.016a.7.7,0,0,1,.024.138v.008l-.073.049-.033.138c0,.016.016.033.049.041.016-.024.033-.041.041-.041s.008.016.008.024a.408.408,0,0,1-.024.114.372.372,0,0,1-.049-.033h-.008a.07.07,0,0,0-.049.024c0,.024.008.041.016.041h.073c0,.008.008.024.008.033a.767.767,0,0,1-.1.268,4.131,4.131,0,0,1-.171.577v.016q.012.024.024.024h.008l.033-.024v.024a.049.049,0,0,1-.024.049c-.041,0-.065.024-.081.081-.041.138-.065.211-.081.211h-.008c-.008,0-.024-.024-.057-.073h-.008a.178.178,0,0,1-.041.114c0,.008.008.016.008.024.073.016.106.033.106.049-.008.049-.016.081-.033.081h-.033c-.016,0-.016-.016-.024-.041h-.016a.139.139,0,0,1-.041.089v.016c.049.016.065.033.065.049a.347.347,0,0,0-.065.171v.049H51.77c-.057-.024-.081-.049-.081-.089v-.008a.828.828,0,0,1,.033-.13v-.041a.017.017,0,0,0-.016-.016H51.7l-.065.065a1.94,1.94,0,0,1-.081.2.65.65,0,0,0-.073.285c0,.138-.016.22-.057.252v.033l.089.065.024-.016h.016a.247.247,0,0,1-.106.1l.008-.041-.008-.016c-.033,0-.065.081-.089.252a.888.888,0,0,1-.106.447.108.108,0,0,0,.024.057h-.008c-.041,0-.057.033-.065.1a.4.4,0,0,0,.024.1.29.29,0,0,0-.057.057.2.2,0,0,0,.008.057,1.829,1.829,0,0,1-.057.2V.63a.192.192,0,0,0,.1.187.131.131,0,0,0-.049.106.144.144,0,0,0-.122.154l.008.016a.345.345,0,0,0-.041.1V1.2a.287.287,0,0,0,.033.138c.041.024.057.041.057.049-.049,0-.073.081-.089.228a1.241,1.241,0,0,0,.008.146.9.9,0,0,0-.008.13.1.1,0,0,0,.033.065V2h-.008c-.041-.024-.057-.073-.057-.146V1.825c0-.008-.008-.016-.033-.024-.008,0-.024.024-.033.065q.024.11.024.122l-.033-.008c-.033,0-.065-.163-.106-.5A4.562,4.562,0,0,0,50.851,1a1.593,1.593,0,0,0-.016-.22.749.749,0,0,1,.041-.163s0-.065-.008-.2A.183.183,0,0,1,50.908.3a.735.735,0,0,0,.081-.39.1.1,0,0,0-.041-.089H50.94c-.024,0-.073.13-.138.39h-.008c-.008,0-.016-.016-.024-.057.008-.065.016-.106.024-.106.033-.252.057-.382.081-.382a1.741,1.741,0,0,1,.057-.382.773.773,0,0,1,.073-.268,1.264,1.264,0,0,1,.114-.423,1.173,1.173,0,0,1,.033-.187,1.05,1.05,0,0,0,.065-.309,5.313,5.313,0,0,0,.22-.781.4.4,0,0,0,.065-.2A.373.373,0,0,0,51.55-3c.008-.041.089-.3.252-.781a1.14,1.14,0,0,1,.114-.374,1.719,1.719,0,0,1,.073-.26,2.229,2.229,0,0,0,.122-.423.373.373,0,0,0,.106-.276,1.705,1.705,0,0,0,.138-.382.688.688,0,0,1,.122-.35c.065-.244.1-.366.122-.366h.049v.033a.108.108,0,0,0-.024.057v.073l-.057.065v.008l.041.041v.016H52.6l-.024-.016h-.008c-.008,0-.016,0-.016.016l.016.057a.076.076,0,0,1-.049.065,1.634,1.634,0,0,1-.049.22c-.033,0-.057.073-.065.22-.041.041-.065.065-.065.073s.008.016.008.033c-.033.114-.049.179-.049.179.024.024.033.041.041.041,0,.024-.016.057-.065.089a.945.945,0,0,0-.122.39c0,.016.008.024.041.024a.157.157,0,0,0-.065.13v.1c-.041,0-.081.073-.13.228v.024s.016.016.049.057v.024c-.041,0-.081.033-.114.1a.538.538,0,0,1,.008.089.4.4,0,0,0-.089.154l.016.024v.016c-.024.033-.049.057-.065.057-.016.089-.033.13-.049.13a.242.242,0,0,1-.041.163c-.024.114-.049.2-.065.276a.088.088,0,0,0,.016.065c0,.008-.024.024-.065.057C51.6-2.81,51.607-2.793,51.631-2.785Zm1.675-3.431a.068.068,0,0,1,.033-.057c.016,0,.016.008.016.016v.008c0,.041-.008.065-.033.073A.053.053,0,0,0,53.306-6.216ZM49.322-6.2c0-.033.024-.057.065-.065h.081v.008c0,.016-.041.041-.114.065h-.016Zm.74-.065h.016v.008h-.016Zm1.9.024-.065.065.008.016a.8.8,0,0,0,.122-.008v-.008a.151.151,0,0,0-.057-.065Zm-2.309.073c0-.033.081-.057.252-.057h.033c0,.008-.008.016-.041.024l-.073-.008a1.076,1.076,0,0,0-.146.057.036.036,0,0,0-.024-.008Zm-.236.024.106-.024c0,.008.008.008.033.008q0,.024-.049.024H49.42Zm-.48.2A.336.336,0,0,0,49-6.037a1.3,1.3,0,0,1,.358-.089h.024a.071.071,0,0,1-.073.065h-.065L49.176-6h-.081a.535.535,0,0,1-.146.073H48.94ZM53.1-6.029h.008v.049c0,.008-.008.033-.016.073-.049-.016-.073-.024-.073-.033v-.016l.008-.016C53.079-5.989,53.1-6.013,53.1-6.029Zm.114.041c.024.008.033.016.033.024l-.024.033q-.024-.012-.024-.024v-.008Zm-.577.049h.016v.008H52.64Zm.382.106c.008,0,.016,0,.016.008v.008C53.03-5.818,53.022-5.818,53.022-5.834Zm-.138.846c.016-.081.033-.122.041-.122a.319.319,0,0,1,.089-.268c.041-.211.081-.317.114-.317h.008l.008.041a.144.144,0,0,1-.033.081l-.122.415a.348.348,0,0,0-.081.187,4.558,4.558,0,0,1-.187.634c-.008,0-.033-.024-.065-.065v-.016c.024,0,.057-.024.081-.073a1.211,1.211,0,0,1,.154-.463A.049.049,0,0,1,52.884-4.989Zm.065-.634a.045.045,0,0,1,.033-.049c.008,0,.008.008.016.024l-.024.081h-.016l-.008-.041Zm.8.024a.017.017,0,0,1,.016-.016h.008v.033c0,.008,0,.016-.016.016C53.762-5.582,53.762-5.59,53.754-5.6Zm-.829.073c.008,0,.016.008.024.033s-.008.024-.016.024h-.024C52.908-5.476,52.916-5.493,52.924-5.525Zm.715.146q-.024.012-.024.024c0,.016,0,.016.016.016s.016-.008.024-.024S53.648-5.379,53.64-5.379Zm-.813.114c0-.016.016-.024.033-.033l.016.024v.008c0,.008-.008.016-.033.024A.1.1,0,0,1,52.827-5.265Zm.732.1a.017.017,0,0,0-.016.016v.033h.024v-.033Zm-1.016.382h.041a.03.03,0,0,0,.008.024L52.55-4.6h-.008Zm.829.089v.024h.016V-4.7Zm-.033.073v.008h.016v-.008Zm-.764.13c.033-.073.057-.114.073-.114a.03.03,0,0,0,.008.024.1.1,0,0,0-.016.024v.1a.078.078,0,0,1-.057.073l-.033-.033H52.5l-.016.008a.116.116,0,0,0-.016-.049c.016-.033.033-.041.041-.041h.008Zm-.106.2v.024l.016-.008A.017.017,0,0,0,52.469-4.289Zm.163.016h.041a.017.017,0,0,1,.016.016v.016a.951.951,0,0,1-.081.22H52.6a.052.052,0,0,1-.041-.049A.555.555,0,0,0,52.632-4.273Zm-.642.244c-.008,0-.016,0-.016.016V-4H52v-.024Zm.236.293c0-.008,0-.016.008-.016v.024h-.008Zm-.276,0h.008v.016h-.008Zm.463.293c.016-.024.024-.033.033-.033v.008l-.016.049c-.008,0-.016,0-.016-.008Zm-.236.138a.057.057,0,0,0-.033.041c0,.008.008.016.033.024.024-.008.041-.016.041-.024v-.024a.017.017,0,0,0-.016-.016Zm-.073.228v.016c0,.008,0,.016.016.016a.017.017,0,0,0,.016-.016.017.017,0,0,0-.016-.016Zm.122.065C52.2-3,52.184-3,52.184-2.98v.024c0,.008,0,.008.016.008h.024q.024-.012.024-.024v-.016Q52.249-3,52.225-3.013Zm-.187.122v.008h.016v-.008Zm-.016.1c-.008,0-.016.016-.033.049v.008H52l.041-.008v-.008l-.008-.041Zm.073.024a.017.017,0,0,0-.016.016v.041c0,.008.016.024.041.033s.024-.016.033-.041a.017.017,0,0,0-.016-.016l.016-.024v-.008Zm-.415.008q-.024.012-.024.024v.016c0,.008.008.016.033.024.008,0,.016-.008.024-.033C51.7-2.753,51.688-2.761,51.68-2.761Zm.407.1a.017.017,0,0,0-.016.016v.008a.017.017,0,0,0,.016.016.017.017,0,0,0,.016-.016v-.024Zm-.431.024a.061.061,0,0,0-.041.065h-.049a.088.088,0,0,0-.057.024.871.871,0,0,1-.049.187c.008.089.049.13.106.13.008,0,.024-.033.049-.089a.356.356,0,0,1,.057-.244v-.057A.017.017,0,0,0,51.656-2.639Zm.325,0c-.041,0-.065.024-.081.089v.033l.008.073a.293.293,0,0,0-.033.041v.049q.012.024.024.024h.016a.939.939,0,0,1,.106-.236A.112.112,0,0,0,51.981-2.639Zm0,.309a.017.017,0,0,0-.016.016v.008a.017.017,0,0,0,.016.016h.008V-2.33Zm-.293.122c-.041.016-.057.057-.057.122a1.172,1.172,0,0,0-.081.3.017.017,0,0,1,.016.016c.033-.016.049-.033.049-.057a1.521,1.521,0,0,1,.089-.325v-.041A.017.017,0,0,0,51.688-2.208Zm.106.114q-.024,0-.073.049c0,.049.008.081.033.081h.008c.016,0,.033-.033.057-.106,0-.016,0-.024-.016-.024Zm-.333.008a.162.162,0,0,0-.1.065v.008c.008.041.024.057.033.057s.016-.008.016-.024h.057A.1.1,0,0,0,51.493-2v-.065C51.493-2.07,51.485-2.078,51.461-2.086Zm.594.065h.008V-2h-.008Zm-.163.008c-.008,0-.016,0-.016.016v.008l.008.016c.033,0,.041-.008.041-.016S51.916-2,51.892-2.013Zm-.537.114c-.033.024-.057.1-.073.236a.914.914,0,0,0-.065.3c.008.073.024.106.049.106h.008c.016-.008.041-.065.065-.179l-.033-.057c0-.008.008-.016.016-.024.065-.049.089-.146.089-.3v-.016a.067.067,0,0,0-.041-.065Zm.187.2c-.024.016-.041.024-.041.033v.033l.016.024c.024-.016.041-.024.041-.033v-.008A.116.116,0,0,0,51.542-1.7Zm-.073.228q-.024.012-.024.024v.024c.016.024.024.033.033.033s.024-.016.024-.024v-.024C51.485-1.452,51.477-1.468,51.469-1.468Zm-.016.106h-.008c-.024,0-.041.049-.057.146v.024a.017.017,0,0,0,.016.016h.016a.657.657,0,0,0,.041-.171Zm.211.081c.065,0,.089.024.089.073a.565.565,0,0,1-.033.138h-.008l-.024-.024-.041-.163Zm-.39.057c-.041,0-.081.033-.138.1a.554.554,0,0,1-.041.171c0,.016.024.024.089.033l.024-.016a2.171,2.171,0,0,1,.081-.276Zm.333.2.041-.008h.033l.008.049V-.98c-.033.081-.073.163-.122.268h-.024c-.008,0-.016-.008-.024-.033.008-.024.033-.041.065-.065a.854.854,0,0,0-.016-.106.133.133,0,0,1,.065-.073C51.631-1,51.623-1,51.607-1Zm-.512.114a.462.462,0,0,0-.081.276.228.228,0,0,0,.008.049h.016a.953.953,0,0,0,.13-.122l-.024-.081V-.818a.1.1,0,0,0,.024-.073Q51.168-.9,51.095-.915Zm.366.341h.008v.008a.1.1,0,0,1-.041.057A.371.371,0,0,1,51.461-.574Zm3.13.1c-.033,0-.065.033-.089.089v.033l.016.024.1-.114V-.452Q54.6-.476,54.591-.476Zm-3.642.171a.017.017,0,0,0-.016.016c.033.041.057.057.089.057h.008a.017.017,0,0,0,.016-.016V-.257A.1.1,0,0,0,50.949-.305ZM54.51-.3a.017.017,0,0,0-.016.016l.008.016a.017.017,0,0,0,.016-.016Zm-.13.073q-.024.012-.024.024v.016a.017.017,0,0,0,.016.016h.016q.024-.012.024-.024V-.208A.017.017,0,0,0,54.4-.224Zm-.13.057a.083.083,0,0,0-.041.049c0,.016.008.024.016.024h.008c.033-.024.041-.033.041-.041V-.151c0-.008,0-.016-.016-.016Zm.106.033a.168.168,0,0,0-.114.073l.033.016c.033,0,.057-.024.081-.073Zm-3.212.089a.017.017,0,0,0-.016.016c0,.016,0,.016.016.016h.008V-.029Zm-.033.073A.03.03,0,0,1,51.1.052a.062.062,0,0,0,.016.033l.024-.016c-.008-.024-.016-.041-.024-.041Zm.244.2a.017.017,0,0,1,.016-.016V.272c-.008,0-.008-.008-.016-.016Zm-.569.065q.012,0,.024.049L50.794.5V.532a.212.212,0,0,1-.024.081c-.016.154-.033.236-.057.236H50.7L50.7.792V.768a.326.326,0,0,1,.024-.122C50.721.434,50.745.312,50.786.288Zm.569.041h.016l.008.057c-.008.057-.024.081-.041.081h-.016c-.008,0-.008,0-.016-.016V.443A.245.245,0,0,1,51.355.329Zm2.781.057c.008,0,.016,0,.016.016l-.008.016c-.016,0-.016-.008-.016-.016ZM51.3.646h.016c0,.008.008.024.008.033A.973.973,0,0,1,51.3.792h-.016a.03.03,0,0,0-.008-.024Zm2.61.138c.033-.057.065-.089.106-.089h.008q-.024.1-.049.1h-.024ZM50.989.841c-.008,0-.016,0-.016.016V.882L50.989.9c.024,0,.041-.008.041-.016V.873C51.03.865,51.014.849,50.989.841Zm-.024.146c-.016.016-.033.024-.033.033v.008c0,.016.008.016.016.016h.024c0-.008,0-.008.008-.024S50.973,1,50.965.987Zm2.894.114a.017.017,0,0,0-.016.016v.016a.017.017,0,0,0,.016-.016Zm-2.789.033a.017.017,0,0,1,.016-.016h.008a.017.017,0,0,1,.016.016v.024A.074.074,0,0,0,51.07,1.134Zm.081.024a.049.049,0,0,0,.033-.008h.008l-.008.033h-.033Zm-.211.033q-.012,0-.024.049V1.28c.016.016.024.033.033.033h.016c.008,0,.016-.016.024-.033-.008-.065-.016-.089-.024-.089Zm2.829,0v.016h.024V1.191Zm-.049.065q-.024.012-.024.024V1.3h.024q.024-.012.024-.024c0-.008,0-.016-.016-.016Zm-.081.073v.016h.016V1.329Zm-2.48.089a.049.049,0,0,0,.033-.008,1.318,1.318,0,0,0,.024.171.2.2,0,0,0-.008.073c-.016,0-.033-.024-.049-.065,0-.073.008-.122.008-.146A.036.036,0,0,1,51.16,1.418Zm-.236.008c0,.049.008.106.008.179l-.008.057c.016.049.024.073.041.073h.008V1.711a1.272,1.272,0,0,0-.033-.285Zm.244.463c0-.008,0-.008.016-.016H51.2q.024.012.024.024v.049c-.033,0-.049-.008-.057-.033Z" transform="translate(0.612 10.873)" fill="#fff" stroke="#fff" stroke-width="0.5"/>
</svg>
