<svg xmlns="http://www.w3.org/2000/svg" width="39.827" height="14.5" viewBox="0 0 39.827 14.5">
  <path id="パス_309" data-name="パス 309" d="M7.6-11.3a.37.37,0,0,0-.12.057,1.378,1.378,0,0,0-.435.424A12,12,0,0,0,6-8.633,10.205,10.205,0,0,1,5.567-7.6,7.175,7.175,0,0,1,5.121-6.32a2.349,2.349,0,0,0-.166.549h.011l.029-.023c0-.057.017-.086.046-.086h.006c-.029.1-.046.155-.057.155H4.926c-.011,0-.029.023-.057.08a14.746,14.746,0,0,0-1.631.481,10.443,10.443,0,0,0-1.3.6H1.927a26,26,0,0,1,1.1-2.885c.424-1.042.744-1.757.95-2.141.206-.309.309-.475.309-.487v-.011c-.006-.092-.017-.143-.029-.143s-.034.023-.04.069l-.029-.017a.237.237,0,0,1,.006-.057l-.006-.017q-.069,0-.258-.017a.292.292,0,0,0-.177.092,1.393,1.393,0,0,0-.395.361Q2.868-8.9,2.27-7.436,1.395-5.153,1.028-4.265c0,.069-.092.166-.269.292C.422-3.8.17-3.664,0-3.556a2.994,2.994,0,0,0-.492.4v.006A.382.382,0,0,1-.374-3.2l.04.011v.023l-.017.017a.555.555,0,0,1-.332.189c-.011,0-.046-.006-.114-.011-.046.006-.069.011-.074.011a.253.253,0,0,0-.16.246c0,.132.109.235.332.315a.656.656,0,0,0,.189-.074c.738-.469,1.116-.7,1.139-.7a.085.085,0,0,1-.006.04l.011.086-.006.034a1,1,0,0,0-.086.292.3.3,0,0,0,.034.143A.152.152,0,0,0,.662-2.64a2.506,2.506,0,0,1,.074-.246L.731-2.9c0-.011.006-.017.011-.017H.748v.011H.782q.017,0,.034-.137a.392.392,0,0,0,.092-.16v-.006c0-.04-.011-.063-.034-.074A.218.218,0,0,1,1-3.373h.011l.006.052a.081.081,0,0,0-.034.011.9.9,0,0,1-.109.3.306.306,0,0,1-.046.183.784.784,0,0,1-.092.309A8.3,8.3,0,0,0,.359-1.335L.347-1.341c-.011,0-.023.017-.034.046,0,.011.011.023.034.052a.152.152,0,0,0-.08.057.788.788,0,0,1-.206.435v.017a.1.1,0,0,0,.017.057L.055-.66H.021V-.728c0-.046,0-.1.006-.166.04-.143.08-.28.109-.412A8.972,8.972,0,0,0,.53-2.5a.043.043,0,0,0-.006-.023c-.086.029-.132.074-.132.137-.052.126-.126.343-.229.652,0,.011-.092.28-.275.8a1.67,1.67,0,0,0-.132.475v.04c.006.086.017.126.029.126,0,.052.074.086.217.109a.205.205,0,0,0,.137.057A.4.4,0,0,0,.353-.179c.057,0,.126-.1.195-.3C.668-.62.731-.711.731-.751S.685-.814.6-.831a27.443,27.443,0,0,1,.927-2.736q0-.12.24-.24,1.357-.67,2.541-1.145a.429.429,0,0,0,.183.1l.034-.011a.927.927,0,0,1,.132-.057H4.68l-.08.132c-.057,0-.1.109-.149.332v.006h.017a.228.228,0,0,0,.074-.063c.034.011.057.017.057.029v.017a.669.669,0,0,1-.069.229c0,.023.029.052.074.074A1.406,1.406,0,0,1,4.422-4a.012.012,0,0,1-.011-.011v-.046c.006-.011.011-.023.023-.023a.062.062,0,0,0-.017-.04.793.793,0,0,0-.114.166.815.815,0,0,1,.04-.149c-.006-.034-.011-.057-.029-.057H4.308a.207.207,0,0,0-.04.137l.011.172c0,.017-.029.034-.092.057v.017l.034.011.011-.011a.028.028,0,0,0-.006-.017V-3.8l.029.017c0,.04-.029.069-.092.074V-3.7a.055.055,0,0,0,.04.034v.011c-.029.029-.04.046-.04.052v.04a.332.332,0,0,1-.08.183c0-.029-.006-.046-.006-.069H4.062v.011A.241.241,0,0,0,4-3.247v.011h.023l.011-.006a.088.088,0,0,1,.017.034l-.006.04h.029a2.761,2.761,0,0,1,.2-.532c.017-.092.034-.137.063-.137l.011.034v.017a.984.984,0,0,1-.029.114l.109.04c0,.006-.006.034-.011.086v.006H4.44a1.278,1.278,0,0,0,.109-.3c-.006-.017-.017-.023-.023-.023H4.52a.621.621,0,0,1-.074.046q-.026,0-.034-.052l.057-.023a.094.094,0,0,0,.057.011c.011,0,.017,0,.017-.011V-3.9a.534.534,0,0,0-.011-.08c.029-.04.057-.057.074-.057a.826.826,0,0,1,.126-.246.132.132,0,0,1,.092.069v.029l-.017.052H4.731l-.017.006a.789.789,0,0,1,.029.149v.011a1.226,1.226,0,0,1-.086.286.311.311,0,0,1-.08.137v.1H4.543l-.017.011c0,.006.006.011.006.017a.752.752,0,0,1-.057.229.171.171,0,0,1-.092.114l.006.034v.023a.977.977,0,0,1-.086.326,7.618,7.618,0,0,0-.464,1.282h.006c.023-.029.04-.04.046-.04v.029c0,.023-.034.052-.1.086l.023.1a.127.127,0,0,1-.063.1.871.871,0,0,0,.017-.109v-.011a2.276,2.276,0,0,0-.235.612q-.06.7-.155.7H3.358A.225.225,0,0,0,3.346.027a1.363,1.363,0,0,0,.086-.509V-.591h.011v.017l.04-.006V-.6A.274.274,0,0,1,3.438-.66H3.415a.506.506,0,0,1-.034.092H3.375c0-.011-.006-.046-.006-.109,0-.006.006-.011.029-.023l.04.011h.006a.357.357,0,0,0,.063-.1c.04-.017.063-.029.063-.046V-.837a.052.052,0,0,0-.006-.029c-.057-.057-.08-.1-.08-.114v-.057l.011.006c.011,0,.029.023.052.074h.006a.466.466,0,0,0,.023-.1V-1.06c-.069-.063-.1-.1-.1-.126a.708.708,0,0,0,.074-.172.356.356,0,0,0-.092-.023A.807.807,0,0,0,3.375-1a.483.483,0,0,0-.109.217.993.993,0,0,0,.006.1l-.057.155v.017H3.163a.028.028,0,0,0-.006-.017c.023-.172.074-.424.149-.756A.006.006,0,0,1,3.3-1.283a.139.139,0,0,0-.074.034c-.023.063-.074.223-.149.487-.1.435-.16.687-.166.761a.818.818,0,0,0,.143.383.26.26,0,0,1,.16.086L3.369.445a.237.237,0,0,1,.069.04c.143-.1.217-.177.217-.235L3.633.033a5.818,5.818,0,0,1,.24-1.019c.315-.916.841-2.335,1.58-4.247A2.409,2.409,0,0,1,6-5.33h.074c.132,0,.195.04.195.12-.011.1-.023.16-.023.172l.011.011c.017,0,.052-.023.092-.08.08,0,.114-.069.114-.206V-5.37a.306.306,0,0,0-.1-.235.771.771,0,0,0-.406-.166.282.282,0,0,0-.114.029.123.123,0,0,0-.063-.011H5.779a.208.208,0,0,0-.063.017c-.034-.006-.052-.011-.052-.029.04-.12.321-.836.841-2.129a18.727,18.727,0,0,1,1.288-2.833.994.994,0,0,0,.235-.406c-.017-.057-.029-.086-.046-.086C7.982-11.254,7.857-11.277,7.6-11.3ZM5.332-5.971a3.552,3.552,0,0,1,.258-.721,3.747,3.747,0,0,0,.3-.818.675.675,0,0,0,.1-.137A1.219,1.219,0,0,1,6.265-8.2l-.052.16a2.5,2.5,0,0,0-.172.464,5.771,5.771,0,0,0-.246.607v.017l.034.04v.046c-.006.017-.029.029-.063.029h-.04a.364.364,0,0,0,.017.086H5.716l-.04-.006a.55.55,0,0,0-.034.12l-.074.155v.029a.015.015,0,0,0,.017.017l.057-.04v.04a.244.244,0,0,1-.046.1H5.59c0-.006-.006-.023-.011-.052-.1.1-.155.183-.155.246a.484.484,0,0,0,.074.126.376.376,0,0,1-.126.034c.052.04.074.074.074.086A.114.114,0,0,0,5.4-5.88C5.373-5.88,5.344-5.908,5.332-5.971ZM2.951-8.06H2.98v.006A.356.356,0,0,0,2.963-8,.043.043,0,0,0,2.94-8v-.006ZM6.3-7.951c.011,0,.017-.006.029-.017H6.34a.043.043,0,0,0,.006.029.071.071,0,0,1-.034.046H6.3ZM2.047-6.206c0-.052.006-.08.023-.08.052,0,.086-.092.109-.275a.686.686,0,0,0,.143-.252,4.118,4.118,0,0,1,.24-.446.4.4,0,0,0,.12-.235,1.407,1.407,0,0,1,.212-.395.228.228,0,0,1-.04.137c-.04.166-.092.246-.149.246l.011.069V-7.4l-.074.137.006.017a.17.17,0,0,0-.023.063.607.607,0,0,0-.086.166v.126c-.063.034-.092.057-.092.063v.017a.08.08,0,0,0,.023.052v.006c-.04,0-.063.034-.074.1v.086a.012.012,0,0,0,.011.011h.074v.017a3.38,3.38,0,0,0-.12.326c-.057.258-.137.383-.258.383A.708.708,0,0,1,1.893-5.9c.052-.006.074-.011.074-.029v-.017L1.961-5.96a.3.3,0,0,1,.057-.08v-.011c0-.011-.011-.017-.029-.017A.263.263,0,0,0,2-6.126a.076.076,0,0,1,.046.017c.023,0,.04-.029.052-.074C2.093-6.194,2.076-6.2,2.047-6.206ZM6.1-7.459a.055.055,0,0,1,.04-.057v.052l-.034.006Zm-3.428.321h.011a.918.918,0,0,1-.046.24,1.513,1.513,0,0,0-.137.315c-.017-.006-.023-.011-.023-.023v-.114c.057-.011.1-.1.132-.258A.5.5,0,0,0,2.671-7.139Zm3.079.217c-.017.011-.029.017-.029.029s.017.023.023.023H5.75c.006,0,.017-.011.023-.029S5.756-6.921,5.75-6.921Zm.114.063c0-.029.017-.04.046-.04v.006L5.9-6.858Zm-.2.3c.011-.1.023-.143.034-.143a.313.313,0,0,0,.04.074Zm-3.3.074c-.011,0-.029.046-.04.132.006.017.011.029.023.029h.017a.234.234,0,0,1,.029-.1A.177.177,0,0,0,2.362-6.481Zm-.074.132c-.017.006-.023.011-.023.023v.011c0,.006.017.017.046.034q.017-.009.017-.017v-.011c-.017,0-.029-.011-.029-.04Zm-.023.12c-.034,0-.057.011-.057.023V-6.2a.265.265,0,0,0,.052.1h.006c.023,0,.034-.04.046-.12l-.017-.011Zm3.24.023c.006.006.023.006.034.006v.04H5.5ZM1.893-6.04H1.91v.006H1.893Zm.292-.006-.011.006c.006.034.011.052.029.052h.011c.011,0,.017-.006.017-.011v-.034c0-.006-.006-.011-.017-.011Zm-.321.011.029.011V-6H1.881q-.009,0-.017-.017ZM5.2-5.679a.1.1,0,0,1,.092-.057c.017.006.023.023.023.046l-.006.011a.043.043,0,0,1-.023-.006.79.79,0,0,1-.08.006Zm.109.034h.006c.011,0,.017,0,.017.011a.034.034,0,0,0-.023.006H5.3A.058.058,0,0,1,5.31-5.645Zm-.132.04A.043.043,0,0,0,5.2-5.611c.011,0,.023.006.023.011v.023H5.178Zm.527.1.263-.029a1.144,1.144,0,0,0,.132.017h.069a.067.067,0,0,1,.063.04v.006a.245.245,0,0,1-.069.011c-.006,0-.069,0-.177-.011a3.581,3.581,0,0,1-.464.057v-.006a.384.384,0,0,1,.155-.086ZM1.847-5.525h.011a.052.052,0,0,0,.017.029v.057c-.034.046-.063.069-.08.069H1.79A.394.394,0,0,1,1.847-5.525Zm.126.034c0-.006.006-.011.017-.011v.029c0,.011-.006.011-.017.011Zm-.246.263c.017.006.023.017.023.046v.006c0,.006-.017.017-.052.04V-5.17A.107.107,0,0,1,1.727-5.227Zm.126,0h.063c-.011.046-.029.074-.04.074H1.864A.157.157,0,0,0,1.852-5.227Zm3.234.074.057.011a.083.083,0,0,1-.046.086.148.148,0,0,1-.057-.029.322.322,0,0,1-.057.074V-5c.052.04.08.069.08.1,0,.011-.029.029-.086.04v.023a.156.156,0,0,0,.069.052c0,.006-.011.017-.04.023a.241.241,0,0,1-.029-.011.237.237,0,0,0-.069.023v.017a.317.317,0,0,1,.08.132V-4.6H4.983a.091.091,0,0,1-.057-.029.015.015,0,0,0-.017.017v.08a.358.358,0,0,1-.069.252H4.823a.109.109,0,0,1-.057-.1v-.006a.388.388,0,0,1,.063-.189c-.006,0-.006,0-.006-.006l-.034.006c-.011,0-.023-.052-.029-.155.069-.04.109-.08.109-.114a.757.757,0,0,0-.04-.1.152.152,0,0,1,.057-.017c.04,0,.069-.052.092-.149A.467.467,0,0,0,5.086-5.153ZM1.8-5.032c.011.006.023.017.023.023V-5a.351.351,0,0,1-.052.1.114.114,0,0,0-.017-.046A.294.294,0,0,1,1.8-5.032ZM1.629-5h.017c-.029.212-.074.315-.137.315H1.5l.006-.052a.154.154,0,0,0,.063-.057V-4.8c-.011-.017-.017-.023-.023-.023,0-.023.029-.063.086-.126,0-.006-.006-.011-.017-.011Zm.172.092h.017a.932.932,0,0,1-.046.109H1.755A.341.341,0,0,0,1.8-4.907Zm-.1.166h.011c0,.017,0,.029.011.029a.719.719,0,0,1-.052.16H1.658A.114.114,0,0,0,1.641-4.6.821.821,0,0,1,1.7-4.741Zm.675.16a.11.11,0,0,1,.086-.057h.011v.006a.1.1,0,0,1-.092.052Zm-.922.034c.011-.029.029-.046.046-.046v.052H1.492Zm3.234.017c.029.006.046.023.046.046a.2.2,0,0,1-.074.029A.5.5,0,0,0,4.686-4.529Zm-2.4.069a.367.367,0,0,0,.063-.029.03.03,0,0,1-.034.034H2.282Zm-.87-.011.034.006c0,.029-.006.046-.023.052A.252.252,0,0,0,1.412-4.472Zm.481.069a.085.085,0,0,0,.04-.006.435.435,0,0,1,.177-.057.578.578,0,0,1-.246.132H1.852A.45.45,0,0,0,1.875-4.4Zm-.561.1c0-.034.023-.063.069-.08h.011c0,.052-.017.08-.052.08ZM4.5-4.363c-.017.006-.023.011-.023.017v.011c.011.011.017.023.023.023l.023-.017-.006-.034Zm.143.006c.029.017.046.029.046.034v.011c-.011.017-.023.029-.029.029H4.651l-.011-.04Zm-.252.063q-.009,0-.017.017c.011.011.017.023.023.023h.011c.006,0,.011-.006.011-.017s-.011-.023-.023-.023Zm-2.524.017h.011c.006,0,.011.011.017.029H1.864Zm2.576.034-.029.052.023.046c.034-.029.046-.046.046-.052v-.011A.061.061,0,0,0,4.44-4.243Zm-.109.006c-.011,0-.017.017-.023.046a.015.015,0,0,0,.017.017h.017a.1.1,0,0,0,.04-.052l-.017-.011Zm.429,0c-.017.011-.023.017-.023.023v.023c0,.011.006.017.011.017a.076.076,0,0,0,.046-.017c-.011-.029-.023-.046-.029-.046Zm-.08.217v.011c.006.011.011.017.011.029H4.7A.015.015,0,0,0,4.714-4c0-.006-.011-.011-.029-.023Zm-.04.1a.063.063,0,0,1-.034.017c0,.057.017.092.046.1.023-.04.04-.063.046-.063l-.006-.017-.011.011A.106.106,0,0,1,4.64-3.916Zm-4.281.3a.831.831,0,0,0,.235-.12.543.543,0,0,1,.263-.155H.868v.011a.344.344,0,0,1-.155.143c-.132.04-.195.074-.195.109a1.082,1.082,0,0,0-.235.12H.2l.069-.057v-.006L.256-3.6v-.029H.324Zm.321.034a.069.069,0,0,1,.04-.04H.742V-3.6a.146.146,0,0,1-.011.04C.7-3.573.685-3.584.679-3.584ZM.33-3.418q.077-.043.309-.137v.011c0,.034-.029.057-.086.057-.029,0-.069.052-.12.149H.422A.327.327,0,0,1,.33-3.418Zm.807.046.057-.034a.131.131,0,0,1,.069-.109v.006a1.324,1.324,0,0,1-.114.332H1.137c0-.011-.017-.052-.04-.12C1.1-3.3,1.1-3.3,1.1-3.31c.023.017.034.023.034.034l.011-.011A.351.351,0,0,1,1.137-3.373Zm3.205-.149c-.011,0-.029.029-.046.1.029.052.046.074.057.074L4.411-3.4A.135.135,0,0,0,4.342-3.521Zm-4.384.177c0-.029.046-.063.143-.092H.112c0,.023-.046.057-.143.092Zm4.293-.092a.255.255,0,0,0-.057.166H4.2a.146.146,0,0,0,.057-.1v-.063Zm.183.063c0,.006-.006.006-.011.006a.106.106,0,0,0,.04.046h.006c.011-.006.023-.017.023-.023V-3.35A.153.153,0,0,1,4.434-3.373Zm-4.218.1A.648.648,0,0,0,.33-3.31V-3.3L.307-3.27a.153.153,0,0,0-.092.034ZM4.3-3.3l-.052.006a.213.213,0,0,0,.034.086c.011,0,.029-.017.052-.057V-3.27c-.011-.023-.023-.029-.029-.029ZM.038-3.132c0-.011.006-.017.011-.017,0-.069.023-.109.08-.109a.042.042,0,0,0,.046.046.166.166,0,0,1-.126.08Zm-.069-.086h.023c.011.006.017.011.029.011a.084.084,0,0,0-.029.046.142.142,0,0,1-.04-.029A.052.052,0,0,0-.031-3.218Zm3.984,0-.006.011v.04l.006.011C3.982-3.172,4-3.184,4-3.189S3.982-3.207,3.953-3.218Zm.217,0a.144.144,0,0,0-.057.12l.006.046h.017c.023,0,.04-.052.052-.149A.015.015,0,0,0,4.171-3.218Zm.1.052a.365.365,0,0,0-.046.092l.023.029A.046.046,0,0,0,4.279-3.1v-.069Zm.092,0c-.017.006-.023.011-.023.017v.011a.031.031,0,0,0,.023.017c.006,0,.011-.006.023-.029C4.371-3.161,4.365-3.167,4.359-3.167ZM.982-2.823c.011,0,.023-.046.034-.143,0-.114.034-.172.1-.172H1.12C.736-1.97.53-1.358.5-1.295L.485-1.3l-.017.006a.469.469,0,0,1-.023-.063v-.023a2.1,2.1,0,0,0,.217-.492,1.258,1.258,0,0,1,.08-.286.293.293,0,0,0-.04-.08.214.214,0,0,0,.046-.1c.063-.017.1-.029.1-.034v-.04L.839-2.422c.017,0,.034-.04.052-.114L.868-2.606c0-.011.006-.023.029-.029,0,.006,0,.006.006.006H.92l.011-.006L.908-2.669c.017-.08.029-.16.04-.24H.954c.011.046.023.074.023.086Zm2.993-.3A.139.139,0,0,0,3.9-3.1a.306.306,0,0,0,.023.1.219.219,0,0,0,.052-.1Zm-4.59.017q-.069.009-.069.034v.029A.177.177,0,0,0-.672-3c.034,0,.069-.029.12-.08,0-.006-.017-.017-.04-.029Zm4.63.011-.006.04c.011.011.017.017.023.017s.017-.006.017-.011v-.006L4.039-3.1Zm-4.2.052c.006-.023.011-.034.023-.034.023.029.04.04.046.04-.052.057-.1.092-.132.092H-.265c.011-.034.023-.046.029-.046l-.006-.017a.257.257,0,0,0-.086.04.454.454,0,0,1-.132.16A.35.35,0,0,1-.494-2.84a.394.394,0,0,0-.149.046H-.649v-.011c.183-.126.3-.206.355-.246a.153.153,0,0,1,.074.029.062.062,0,0,0,.04-.017C-.179-3.046-.179-3.046-.185-3.046Zm4.516-.046c-.023.017-.034.023-.034.034a.062.062,0,0,0,.011.04c.023,0,.04-.006.046-.023v-.011l-.011-.04ZM4.2-3.018q-.026.009-.052.069c0,.006-.023.092-.069.252v.023l.006.011.052-.006a.043.043,0,0,1,.023.006c0-.006,0-.006.006-.006a.126.126,0,0,1-.023-.074v-.006A.216.216,0,0,1,4.2-2.875l.034.069c.029-.017.04-.029.04-.034v-.011l-.052-.057v-.063C4.222-2.995,4.216-3.012,4.2-3.018Zm-.109.023a.052.052,0,0,0-.029.006A.907.907,0,0,0,4-2.812H4.01c.052,0,.08-.046.1-.132A.092.092,0,0,0,4.09-2.995Zm-4.533.1c-.017.006-.023.011-.023.017v.023h.011c.011,0,.017-.006.017-.011V-2.88Zm4.253.16a.092.092,0,0,0-.052.017c.011.023.017.034.029.04h.029l.017-.011A.311.311,0,0,0,3.81-2.732Zm.246.126A.191.191,0,0,0,4-2.48v.006c0,.011.006.017.011.017h.006a.625.625,0,0,1,.052-.12v-.006Zm.212.1a.075.075,0,0,1,.04-.069v.046a.091.091,0,0,1-.029.057.012.012,0,0,1-.011-.011Zm-.349-.057-.052.143c0,.011.023.023.057.023H3.93v-.166Zm.195.017c-.017.011-.029.023-.029.029s.011.023.023.023.011-.006.017-.029Zm-3.48.011a.162.162,0,0,0-.052.057L.6-2.44c.034-.017.052-.034.052-.04v-.057Zm3.091.011c-.029.017-.04.029-.04.04v.011c.017.023.029.034.04.034l.034-.034c-.011-.034-.017-.052-.029-.052Zm.114.189c-.017,0-.029.034-.029.1v.006l.006.034h.006a.087.087,0,0,0,.04-.069l-.017-.069Zm.16,0c-.034,0-.074.034-.126.1a.13.13,0,0,0,.046.08h.006A1.248,1.248,0,0,1,4-2.331C4-2.331,4-2.331,4-2.337Zm.137.212a.224.224,0,0,1,.08-.177.062.062,0,0,0,.011.04A.664.664,0,0,0,4.136-2.125Zm-.446-.1c-.006,0-.011.011-.017.029a.043.043,0,0,0,.006.023c.011-.006.023-.017.023-.023v-.029Zm.292.029c-.006,0-.011.006-.011.017v.023h.006c.006,0,.011-.011.023-.034V-2.2Zm-.406.04v.006c.011.011.017.023.023.023H3.6a.015.015,0,0,0,.017-.017v-.011Zm.3.046L3.844-2.1a1.066,1.066,0,0,1-.1.275.1.1,0,0,0,.023.052c.023,0,.04-.046.046-.132a.318.318,0,0,0,.08-.177V-2.1Zm.063.017a.64.64,0,0,0-.046.143c.006,0,.006.006.006.011A.229.229,0,0,0,3.953-2.1Zm.1.166a.1.1,0,0,1,.052-.046H4.1v.063l-.034.034c-.011,0-.017-.017-.023-.046ZM3.592-1.7a.052.052,0,0,1-.017.029c.011.011.017.017.023.017H3.6c.017-.006.023-.011.023-.017A.037.037,0,0,1,3.615-1.7Zm-.183.1c-.063,0-.109.086-.143.246a.1.1,0,0,0,.023.046,1.7,1.7,0,0,0,.126-.275Zm.114.08a.06.06,0,0,0-.029.052.051.051,0,0,0,.023.046h.006a.539.539,0,0,1,.023-.057C3.541-1.507,3.535-1.518,3.524-1.518ZM.193-1.312l-.029.029a.012.012,0,0,0,.011.011H.187A.012.012,0,0,0,.2-1.283v-.029Zm3.457.052a.071.071,0,0,0-.046.034v.04h.011c.006,0,.017-.023.04-.069A.006.006,0,0,1,3.65-1.261ZM.307-.86c.08-.252.137-.383.166-.383A1.668,1.668,0,0,1,.336-.82C.319-.831.307-.837.307-.843ZM.118-.946c-.006,0-.011.006-.011.017s.011.023.023.023S.141-.911.141-.923V-.946Zm3.32.08h.052a.23.23,0,0,0-.034.074H3.444l-.006-.04ZM.112-.78.13-.768.118-.734H.112Zm.172.04C.3-.74.307-.723.307-.7S.3-.66.284-.654H.278A.052.052,0,0,0,.25-.671V-.688ZM3.14-.116c.011,0,.017.006.023.029L3.152-.07,3.117-.087Zm.183.28Q3.349.13,3.358.13h.011L3.4.159A.069.069,0,0,1,3.369.21C3.341.193,3.329.182,3.323.165Zm6.4-6.84c-.086.017-.132.029-.132.04a.5.5,0,0,0-.074-.029c-.04,0-.1.092-.183.28a2.805,2.805,0,0,0-.132.607q.017.206.137.206h.006q.155,0,.326-.292A1.908,1.908,0,0,0,9.9-6.418v-.017C9.9-6.521,9.845-6.595,9.72-6.675ZM9.244-5.261a.581.581,0,0,0-.229.074.831.831,0,0,0-.263.229,6.506,6.506,0,0,0-.469.859A5.944,5.944,0,0,0,7.7-2.136v.092a.569.569,0,0,0,.023.16.726.726,0,0,0,.761.429,1.769,1.769,0,0,0,1.019-.429,3.543,3.543,0,0,0,.584-.515,1.731,1.731,0,0,0,.378-.418v-.006a.044.044,0,0,0-.046.034,2.182,2.182,0,0,0-.275.269,1.944,1.944,0,0,0-.263.252,1.064,1.064,0,0,0-.166.132.7.7,0,0,1-.212.166.424.424,0,0,1-.212.109H9.29a.113.113,0,0,1,.023-.046q.155-.12.155-.189H9.462a.431.431,0,0,1-.172.074H9.279c.011-.011.011-.017.011-.023l.223-.177A.924.924,0,0,0,9.731-2.4c.08-.046.12-.086.12-.132H9.828v-.034h.017a.225.225,0,0,1,.034.011c.086-.029.126-.052.126-.074s0-.017-.011-.017H9.971c0,.017-.023.04-.069.063H9.891l-.006-.04a.121.121,0,0,1,.034-.046v-.006H9.9a.418.418,0,0,1-.109.069,2.036,2.036,0,0,0-.258.223c-.029.023-.2.149-.527.372a1.523,1.523,0,0,0-.292.132.561.561,0,0,1-.149.023l-.092.046a.51.51,0,0,1-.126-.017c-.017,0-.029-.046-.029-.143a4.954,4.954,0,0,1,.446-1.774,2.086,2.086,0,0,1,.3-.5h.006c.011.057.017.086.017.092a.605.605,0,0,0-.04.126.044.044,0,0,0,.006.017.266.266,0,0,0,.069-.063,6.222,6.222,0,0,0,.217-.693.668.668,0,0,0,.1-.269c0-.155-.057-.229-.172-.229ZM8.237-3.67h.017q0,.034-.017.034Zm.28.046c.011-.017.023-.023.029-.023l-.006.029Zm-.08.006h.006V-3.6H8.437Zm2.473.04v.023c0,.011,0,.011.011.011s.006,0,.006-.011v-.011c0-.006,0-.006-.006-.011ZM8.4-3.361a.884.884,0,0,1,.114-.2h.006l.011.04a.423.423,0,0,1-.011.069.281.281,0,0,1-.063.155C8.443-3.3,8.426-3.321,8.4-3.361Zm-.1-.029c.046-.1.069-.16.086-.166l.017.069c-.011.069-.04.1-.1.1C8.3-3.39,8.3-3.39,8.294-3.39Zm2.53-.137-.04.034.006.011a.038.038,0,0,0,.04-.023v-.023Zm.029.023a.012.012,0,0,0-.011.011v.011c0,.006,0,.011.011.011l.023-.017q-.009-.017-.017-.017Zm-2.621.092a.085.085,0,0,1,.034-.074.1.1,0,0,1-.034.086Zm2.536-.017c-.017.011-.029.023-.029.029s.011.011.034.023a.1.1,0,0,1,.04-.017V-3.4c0-.006-.011-.017-.034-.029Zm-.189.04a2.213,2.213,0,0,0-.3.309v.006a.021.021,0,0,0,.017-.006c.126-.126.223-.229.286-.3Zm.275.006c-.011,0-.017,0-.017.011v.006l.006.011c.017-.006.029-.011.029-.017v-.006C10.864-3.378,10.859-3.384,10.853-3.384ZM10.7-3.35v.017a.053.053,0,0,0,.04.052q.034,0,.034-.017l-.057-.052Zm-2.4.074a.03.03,0,0,1,.034-.034h.006C8.334-3.287,8.323-3.275,8.294-3.275Zm2.358-.011c-.011.011-.023.029-.04.046l.04.046.04-.011v-.017ZM8.174-3.27a.142.142,0,0,1,.029.04.343.343,0,0,1-.052.137q-.017-.009-.017-.017v-.006a.126.126,0,0,0,.029-.069.062.062,0,0,1-.011-.04A.311.311,0,0,0,8.174-3.27Zm-.006.561a1.443,1.443,0,0,0,.177-.446c0-.063.029-.1.092-.1,0,.006,0,.006.011.006V-3.2c-.063.223-.1.372-.12.452a.156.156,0,0,1-.063.029l.034.1c-.04.172-.063.269-.069.3H8.226v-.006c0-.166-.006-.286-.006-.372v-.017l-.006-.011a.088.088,0,0,0-.034.017Zm.12-.5a.035.035,0,0,1,.017-.034l.006.029v.006L8.3-3.189c-.006,0-.011,0-.011-.011Zm2.244.029v.011c0,.006,0,.011.011.011v-.023Zm.092.04c-.023.006-.04.011-.04.023v.023h.006l.04-.034ZM8.18-2.96a.059.059,0,0,0,.04-.029c.017-.086.04-.126.057-.126a.554.554,0,0,1-.063.223A.1.1,0,0,0,8.18-2.96Zm2.375-.109v.006l.006.011.023-.006v-.011Zm-2.444.023h.006l.017.086a.628.628,0,0,0-.046.149H8.06C8.094-2.955,8.111-3.035,8.111-3.046Zm2.255.04c-.017.011-.029.023-.029.029s.017.011.04.017c.006,0,.017-.006.04-.023-.006-.017-.017-.023-.04-.023Zm.149,0c-.046.011-.069.029-.069.046a.006.006,0,0,1,.006.006c.04-.011.063-.029.063-.046Zm-.338.04c-.006,0-.011,0-.011.006v.011h.011c0-.006,0-.011.011-.017Zm.395.017-.074.086v.011H10.5a.367.367,0,0,0,.08-.086v-.011Zm-.177.029-.017.011c.006.023.011.029.017.029h.017q.017-.009.017-.017v-.011c0-.006-.006-.006-.011-.011Zm-.315.034a.062.062,0,0,0-.023.029c.023,0,.04-.006.04-.017a.012.012,0,0,0-.011-.011Zm.132.011c-.011,0-.011.006-.011.011v.006l.006.011q.017-.009.017-.017A.012.012,0,0,0,10.212-2.875Zm.155.029c-.04,0-.074.029-.114.08v.006a.158.158,0,0,0,.114-.074Zm-.252.069c-.006,0-.017.011-.023.029v.006H10.1a.049.049,0,0,1,.034-.017v-.011C10.126-2.772,10.12-2.772,10.114-2.777ZM8.031-2.76h.006v.029H8.031Zm2.2.017v.017h.006v-.017Zm-.092.074-.006.011v.029h.017c.011-.011.023-.017.023-.023v-.011Zm-2.009.023H8.14c.006,0,.011,0,.011.011H8.134Zm-.286.052c0-.017.011-.029.04-.04v.029a.374.374,0,0,1-.011.063H7.865Zm2.267-.017c-.017.011-.023.017-.023.023H10.1c.017-.006.023-.017.023-.023Zm-.12.109q-.052.034-.052.052l.006.011c.034-.011.052-.023.052-.029v-.023Zm-.275.229q-.017.009-.017.017v.011c0,.011.006.011.011.011H9.72l.011-.006A.225.225,0,0,0,9.72-2.274Zm-.063.057a.059.059,0,0,0-.029.04v.006c.034-.006.046-.011.046-.023v-.023ZM8.128-1.9h.006v.023H8.128Zm1.1.057h.034a.042.042,0,0,1-.046.046A.077.077,0,0,0,9.227-1.839Zm4.358-4.235a1.318,1.318,0,0,0-.881.532,1.733,1.733,0,0,0-.492,1.07.96.96,0,0,0,.017.166l-.006.074.063.464a4.2,4.2,0,0,1,.1.469l-.017.149a.492.492,0,0,0,.063.2,6.294,6.294,0,0,1,.143.7c-.114.12-.263.258-.441.418a7.949,7.949,0,0,0-.618.6c-.366.389-.607.641-.721.75a5.789,5.789,0,0,1-.435.464,2.751,2.751,0,0,0-.984,1.717.826.826,0,0,0,.383.7A2.077,2.077,0,0,0,10.81,2.7h.04a2.6,2.6,0,0,0,1.46-.515,3.217,3.217,0,0,0,.521-.441,2.539,2.539,0,0,0,.7-1.883v-.1a6.252,6.252,0,0,0-.3-1.78.021.021,0,0,1,.006-.017c.183-.155.418-.338.7-.544q1.142-.833,2.123-1.5a.34.34,0,0,0-.006-.063c.017-.023.029-.034.052-.034.04.006.057.011.063.011h.011l.029-.109a.854.854,0,0,1,.16-.132v-.006a.477.477,0,0,0-.137.046.717.717,0,0,1-.258.189,1.267,1.267,0,0,1-.355.229h-.006c0-.017.029-.046.069-.08v-.006h-.04v-.017c.011,0,.011-.006.011-.006a.29.29,0,0,0,.1-.046.035.035,0,0,1,.034.017c.011,0,.017-.011.017-.029a.167.167,0,0,0,.046-.109q.1-.052.1-.086a2.05,2.05,0,0,1,.3-.24v-.011c-.029,0-.08.034-.166.1l-.315.195c-.08.011-.132.023-.155.029-.24.16-.532.349-.87.572a17.327,17.327,0,0,1-1.746,1.047A3.357,3.357,0,0,1,12.8-3.756a1.7,1.7,0,0,1,.647-1.431.208.208,0,0,1,.017.063v.006a.188.188,0,0,0-.04.074c.006,0,.006,0,.006.006a.225.225,0,0,0,.034-.011c.04-.011.126-.166.252-.464a3.239,3.239,0,0,1,.046-.418C13.763-6.028,13.706-6.074,13.586-6.074Zm-1.07,1.4c.006,0,.011,0,.011.011v.011c0,.011-.006.011-.011.011Zm-.086.246c.006-.029.011-.046.017-.046a.579.579,0,0,1,.04-.126.012.012,0,0,1,.011.011v.023c-.029.177-.052.263-.074.263a.1.1,0,0,1,.011-.029A.8.8,0,0,0,12.43-4.426Zm3.549.011c-.006,0-.006,0-.006.011l.006.011c.006,0,.006-.006.006-.011Zm.12.057-.04.023a.012.012,0,0,0,.011.011h.006c.006,0,.011-.011.029-.023Zm-3.852.046c.006,0,.017.006.04.011l-.006.029A.085.085,0,0,1,12.246-4.311Zm4.058.04c-.029.011-.04.017-.04.023s0,.011.011.011.029-.023.029-.029Zm-.389.046-.034.011V-4.2h.011c.011-.006.023-.017.023-.023Zm-.183.092a.188.188,0,0,0,.086-.057v.006a.159.159,0,0,1-.086.074Zm-3.245.126c.006-.04.017-.057.029-.057a1.349,1.349,0,0,0,.029.235,2.364,2.364,0,0,1,.074.372,1.743,1.743,0,0,1,.149.475l-.006.069a.123.123,0,0,0,.069.12c.006.017.017.1.04.246v.011a.109.109,0,0,1-.074.1l-.023-.017c0-.052-.023-.08-.069-.08-.006.006-.017.006-.034.006,0,.029-.011.046-.046.063-.011-.017-.023-.029-.023-.046v-.011c.006-.011.04-.029.109-.052-.04-.1-.063-.155-.074-.155H12.63a.076.076,0,0,0-.04.017c-.023-.011-.034-.017-.034-.023a.361.361,0,0,0,.086-.189q.052-.034.052-.052a.576.576,0,0,0-.069-.235c0-.034-.023-.057-.074-.057h-.017a.012.012,0,0,0-.011.011v.074a.281.281,0,0,0,.006.063,1,1,0,0,1,.074.183H12.6c-.08,0-.132-.063-.155-.2a.586.586,0,0,1,.017-.063v-.006a.125.125,0,0,0-.023-.057c.12-.034.177-.074.177-.12s-.017-.069-.029-.069a.686.686,0,0,1-.046-.16c-.023-.006-.029-.029-.029-.074v-.126A.747.747,0,0,0,12.487-4.008Zm3.028.017h.017q.069,0,.069.052c0,.057.011.08.04.08a2.1,2.1,0,0,1-.435.28H15.2v-.006a2.708,2.708,0,0,0,.309-.263v-.011H15.5a1.44,1.44,0,0,1-.212.114A.257.257,0,0,1,15.3-3.79c.08-.046.114-.08.114-.114v-.034a.055.055,0,0,1,.052.034.082.082,0,0,0,.046-.074Zm.263.011H15.8c0,.011-.006.011-.011.011h-.011v-.006Zm-3.371.441h.011c.006,0,.011.023.023.063,0,.011-.011.023-.029.029V-3.47Zm1.826.28h.006l-.017.023a5.467,5.467,0,0,1-.876.715c-.069.08-.126.12-.16.12h-.023c-.011-.006-.017-.017-.017-.046v-.006A.461.461,0,0,1,13.2-2.56c-.011-.006-.011-.011-.011-.017V-2.6c0-.017.006-.029.023-.029a.993.993,0,0,1,.1.006c.034-.011.046-.023.046-.034a.135.135,0,0,1,.12-.069v-.006c0-.006-.011-.017-.04-.029l.006-.029h.029C13.952-3.081,14.2-3.235,14.233-3.258Zm-.618.784a.065.065,0,0,1,.052-.057c.029.006.04.011.04.023V-2.5a.1.1,0,0,1-.092.046Zm-.212.023a.012.012,0,0,1,.011-.011l.029.006v.006a.021.021,0,0,0-.017.006Zm.126.052c0-.006,0-.011.011-.011a.012.012,0,0,1,.011.011v.006q-.009.017-.017.017h-.006Zm.034-.006h.011V-2.4h-.011Zm-.137.023c.034.006.052.017.052.046v.006a.214.214,0,0,1-.057-.034v-.006Zm-.555.166c.006-.029.011-.046.023-.046s.017.017.029.052c0,.006-.006.029-.011.063C12.893-2.148,12.882-2.171,12.87-2.216ZM10.123.726a1.751,1.751,0,0,1,.355-.532,4.822,4.822,0,0,0,.412-.5,1.1,1.1,0,0,0,.195-.258,1.175,1.175,0,0,1,.275-.286,2.992,2.992,0,0,0,.321-.366,2.72,2.72,0,0,1,.321-.3c.3-.366.5-.549.59-.549.04.006.057.023.057.057v.023a.086.086,0,0,1-.011.057A.435.435,0,0,1,12.5-1.7c-.046,0-.206.16-.492.487-.074.029-.109.052-.109.063a1.094,1.094,0,0,1-.321.292c-.046,0-.092.057-.137.177l-.223.263L10.77.073A5.173,5.173,0,0,1,10.123.726Zm2.85-2.507a.856.856,0,0,1,.1.166v.006a.419.419,0,0,1-.069.052.229.229,0,0,1,.04.08v.029a.021.021,0,0,0-.017.006l.023.166v.011l-.006.069a.408.408,0,0,0-.08-.034.069.069,0,0,1-.034.052h-.011a.182.182,0,0,1-.057-.086l-.029.023h-.017v-.04a.118.118,0,0,1,.109-.069h.023l.006.029v.006l-.017.023v.023c.006.006.011.011.017.011H13l.011-.006A.11.11,0,0,0,13-1.324a1.127,1.127,0,0,0-.063-.361h-.017c-.029.074-.069.114-.132.114v-.006L12.79-1.6a.137.137,0,0,0,.086-.034A.488.488,0,0,1,12.973-1.781Zm-.092.217h.04a.021.021,0,0,0,.006.017v.011l-.011-.006H12.91a.464.464,0,0,0,.029.08v.006c-.052,0-.074-.017-.074-.052v-.006A.239.239,0,0,1,12.882-1.564Zm-.538.2c.1-.12.189-.177.252-.177h.023a.077.077,0,0,1,.069.052l.057.389c-.006.052-.011.092-.011.126a.557.557,0,0,0,.034.086c-.017.292-.023.458-.023.5,0,.023.006.069.011.137a.43.43,0,0,1-.04.16,2.706,2.706,0,0,1-.1.555,2.476,2.476,0,0,1-.2.487,3.35,3.35,0,0,1-1.03,1.122,2.493,2.493,0,0,1-.87.269H10.5l-.011.006a.006.006,0,0,0-.006-.006h-.029c-.023,0-.052-.006-.074-.006a.318.318,0,0,1-.263-.355V1.973A2.655,2.655,0,0,1,10.587.748c.292-.366.572-.693.841-.99A5.853,5.853,0,0,0,11.937-.8c.109-.092.166-.149.166-.172V-.98a.264.264,0,0,1-.074-.1l.16-.137a.1.1,0,0,1,.034.063.131.131,0,0,0-.086.114l.006.011c.023,0,.08-.052.16-.16Q12.3-1.2,12.287-1.2h-.017l-.011.006-.011-.023v-.006h.023c.086,0,.137-.023.16-.074.1-.074.155-.126.155-.149a.035.035,0,0,0-.017-.034l-.029.006c-.074.086-.12.126-.143.126h-.011Zm-.114.063.034-.011.011.006c0,.029-.006.04-.023.04l-.023-.029Zm.6.08.04.006h.011c0,.006-.011.04-.034.114.011.046.023.069.04.069h.006c.011,0,.029-.034.046-.109h.006a.526.526,0,0,1,.034.189V-.94l-.006.034-.029-.023c-.069-.017-.1-.046-.1-.074a.225.225,0,0,0,.011-.034L12.8-1.089l.034-.046v-.011a.081.081,0,0,0-.011-.034Zm.166.114c.029-.029.046-.046.052-.046a.336.336,0,0,1,.069.12c-.029.114-.046.172-.046.183a.377.377,0,0,0,.052.149.777.777,0,0,1-.006.1c.006.08.006.132.006.16a.173.173,0,0,1-.023.074c-.006,0-.011-.011-.029-.029-.017-.1-.029-.149-.04-.149h-.006a.114.114,0,0,1-.011.046,1.153,1.153,0,0,1,.006.132V-.35c0,.029-.034.052-.1.063.006.04.011.063.011.074h.011V-.236a.068.068,0,0,1,.023-.046c.023,0,.034.046.04.143v.063A.542.542,0,0,1,12.973.1.359.359,0,0,1,12.9-.047a.134.134,0,0,0,.04-.074V-.127c-.08-.04-.126-.069-.126-.092A.21.21,0,0,1,12.9-.356a.213.213,0,0,0,.052-.166q0-.034-.017-.034H12.9c-.011,0-.011.006-.011.011v.034h-.006q-.017,0-.017-.034l.006-.011c.063-.011.092-.023.092-.034V-.665l.023.017c0,.046.017.063.052.063.011,0,.017-.017.023-.063,0-.011-.011-.1-.029-.252a.115.115,0,0,1,.017-.063c-.034-.08-.057-.12-.057-.126Zm-1,.08c.023,0,.046.017.063.052v.006h-.011q-.034,0-.052-.052Zm-.177.195c.006-.029.017-.046.023-.046h.04c0,.034-.023.046-.057.046Zm1.03-.006h.006c.029.023.046.046.046.057l-.011.034a.055.055,0,0,1-.057-.04A.239.239,0,0,1,12.847-.837ZM11.7-.671c0-.023.017-.046.057-.069v.006c-.029.04-.046.063-.052.063Zm1.236.813a.177.177,0,0,1,.046.011l-.006.04V.279c-.006.017-.017.029-.023.029h-.006a.449.449,0,0,1-.011-.08Zm-.979,1.643h.04l-.023.029C11.966,1.813,11.96,1.807,11.955,1.784Zm-.79.481a.319.319,0,0,1,.212-.1h.006v.011c0,.04-.074.069-.217.1Zm8.955-13a.712.712,0,0,0-.5.183,2.354,2.354,0,0,0-.395.87c-.2.664-.361,1.156-.469,1.471-.029.006-.195.029-.509.069a12.3,12.3,0,0,0-1.763.321,2.2,2.2,0,0,0-.492.183.165.165,0,0,0-.069.109.508.508,0,0,0-.063.109v.172l.011.017.04-.006h.011l.011.006c0,.023-.006.057-.011.109.023.046.046.074.08.074s.074-.04.16-.114q0-.043.343-.12c.029,0,.069.006.109.006s.074-.011.074-.017a1.432,1.432,0,0,0,.246-.052.5.5,0,0,0,.1.011.018.018,0,0,0,.011-.006.138.138,0,0,1,.109-.069c.011,0,.052,0,.12.006a.719.719,0,0,0,.12-.052,2.979,2.979,0,0,0,.441-.074q.258-.017.258-.086l-.04-.023a.4.4,0,0,0-.092.046.037.037,0,0,1-.029-.011,1.167,1.167,0,0,0-.3.052h-.017a.6.6,0,0,1-.086-.011.491.491,0,0,0-.195.069.619.619,0,0,0-.275.052,1.216,1.216,0,0,0-.16-.034c-.017.011-.029.017-.029.023a2.573,2.573,0,0,0-.343.1.29.29,0,0,1-.074-.011.025.025,0,0,0-.017.006A.444.444,0,0,0,16.3-7.3a.506.506,0,0,0-.189.04c-.023-.011-.04-.029-.04-.04s.034-.046.1-.074a.309.309,0,0,0,.092-.046c.006,0,.011.006.017.006a.081.081,0,0,0,.034-.011.124.124,0,0,1,.109-.069c.006,0,.017.011.029.034h.034c.006-.04.011-.057.029-.057h.006c.006.034.017.052.023.052h.034A.423.423,0,0,1,16.7-7.5a.158.158,0,0,0,.052.006h.017c.017,0,.023,0,.029-.006a.21.21,0,0,0,.12-.069h.006a.128.128,0,0,1,.057.017c.109-.011.166-.029.166-.052.017,0,.04.006.069.006a.114.114,0,0,0,.046-.017.059.059,0,0,0,.023.006.671.671,0,0,1,.172-.029c.006,0,.023-.011.052-.04a.114.114,0,0,0,.046.017c.052,0,.074-.023.074-.069,0-.011-.006-.011-.011-.011h-.006l-.029.023h-.011c-.006,0-.017-.017-.034-.046a.159.159,0,0,0,.069-.029q.1-.009.1-.034h.017a.22.22,0,0,1,.063.052.015.015,0,0,0,.017-.017c0-.011.023-.023.069-.04,0-.006-.011-.017-.04-.029.006,0,.017-.006.046-.011.052.017.08.029.086.029l.1-.029c.029.006.04.017.04.034h.011q.017-.009.017-.017a.149.149,0,0,1,.063.017.155.155,0,0,0,.046-.017v-.017l-.023-.006v-.011l.04-.006h.08a.508.508,0,0,0,.137-.034h.006a.082.082,0,0,1,.069.034c.034-.006.057-.011.063-.011a.161.161,0,0,1,.046.006q0,.017-.052.034a.214.214,0,0,1-.046-.006l-.029.029h-.017q-.206.009-.206.034V-7.8c0,.006,0,.011.011.011h.034c.034,0,.12-.017.263-.04h.017a5.094,5.094,0,0,1-.2.572c-.2.658-.383,1.242-.549,1.757-.132.515-.24.893-.321,1.128a6.075,6.075,0,0,1-.166.675A7.237,7.237,0,0,0,17.2-2.354V-2.2a1.142,1.142,0,0,0,.069.406.565.565,0,0,0,.549.389h.074a1.3,1.3,0,0,0,.3-.046,2.551,2.551,0,0,0,.99-.561.633.633,0,0,0,.166-.235l-.006-.011a.044.044,0,0,1-.017.006c-.109.12-.177.177-.212.177h-.006c0-.006.006-.023.011-.046a1.047,1.047,0,0,0,.212-.195c.092-.1.212-.246.361-.435.057-.086.1-.132.132-.132.011-.046.023-.074.034-.074a.62.62,0,0,0,.155-.206,1,1,0,0,0,.223-.383c.052-.137.08-.212.08-.223a.012.012,0,0,0-.011-.011c-.034,0-.069.04-.114.12-.04.063-.166.252-.378.572H19.81a.2.2,0,0,0-.052.006h-.006c.04-.052.057-.08.057-.1-.011,0-.029-.011-.04-.04q.069-.026.069-.034v-.006c-.011,0-.029-.011-.057-.034-.006,0-.029.017-.063.057v.029c0,.006.006.017.029.034v.006c0,.006-.017.011-.04.011a.28.28,0,0,1-.052.086v.006a.042.042,0,0,0,.011.034l-.006.029c0,.006-.063.069-.183.189a1.938,1.938,0,0,1-.183.2,1.107,1.107,0,0,1-.4.361c-.006,0-.011-.006-.017-.023a.065.065,0,0,0-.057.052,1.034,1.034,0,0,1-.635.389.335.335,0,0,1-.109-.023c-.109-.063-.16-.2-.16-.412v-.086a3.718,3.718,0,0,1,.069-.584.45.45,0,0,1,.074-.309c.246-.441.487-.944.733-1.505.3-.675.458-1.025.458-1.047q.146-.343.24-.618a7.732,7.732,0,0,0,.309-.818c.057-.126.114-.309.189-.538,0,0,.006,0,.017.011h.023a.035.035,0,0,0,.034-.017V-7.8l-.017-.023c-.029,0-.046.011-.046.034h-.006v-.006l.046-.109c.046,0,.069.006.069.011a.332.332,0,0,1,.177.034v.006l-.04.006h-.08l-.011.006c.011.029.023.046.029.046h.006a.477.477,0,0,1,.08-.023.062.062,0,0,1,.04.011l-.023.023v.011l.029.006a.681.681,0,0,1,.1-.017l.029.006H20.5a.376.376,0,0,0,.074-.017c.114.017.258.029.435.04a.245.245,0,0,1,.109.052c.006,0,.023-.011.052-.023a.159.159,0,0,0,.074.034h.006a.132.132,0,0,0,.052-.017c.24.034.435.069.584.1.052,0,.074-.006.08-.011l.2.052h.04c.12-.023.183-.08.183-.166v-.04a.55.55,0,0,0-.3-.429,2.761,2.761,0,0,0-1.179-.149H20.68c-.149,0-.315.006-.509.017.132-.412.24-.778.321-1.087a6.178,6.178,0,0,0,.155-.939v-.04a.219.219,0,0,0-.029-.109.3.3,0,0,1-.074.034h-.006c-.023,0-.034-.034-.034-.092a.073.073,0,0,0-.074-.08l-.011.006a.025.025,0,0,1-.017-.006.346.346,0,0,0-.046-.074h-.006c-.006,0-.011.011-.023.029l-.011-.006a.265.265,0,0,0-.16-.034Zm-.109,2.41a5.681,5.681,0,0,0,.172-.578,6.315,6.315,0,0,0,.275-1.185c.017-.155.046-.229.074-.229h.011l.006.069v.052a3.607,3.607,0,0,1-.12.744,8.431,8.431,0,0,1-.3,1.122.855.855,0,0,1-.109.006Zm-.475.04c.034-.1.057-.149.057-.149A8.33,8.33,0,0,1,20-9.514a1.154,1.154,0,0,1,.2-.4h.006v.029a.581.581,0,0,1-.04.143.7.7,0,0,1-.04.183c0,.006.006.011.006.017l-.017.086c-.052.195-.08.3-.08.321v.029l.006.011c.023-.017.034-.034.034-.046h.006c.006,0,.011,0,.011.011v.074a.119.119,0,0,1-.04.086c-.029.126-.046.189-.063.189l.006.029a.354.354,0,0,1-.023.092h-.006q-.017,0-.017-.034v-.017c.017,0,.029-.006.029-.011v-.023a.081.081,0,0,0-.011-.034.2.2,0,0,0,.052-.149A.012.012,0,0,0,20-8.942c-.017,0-.029.034-.04.1a.427.427,0,0,0-.052.189.352.352,0,0,1,.006.074v.074c-.006.034-.011.057-.023.057H19.89v-.011h-.011v.046l-.011-.006c-.006,0-.011,0-.011.011a.2.2,0,0,1,.011.057v.006l-.006.029a1.174,1.174,0,0,1-.321.034Zm.733-1.122h.006v.011a.794.794,0,0,1-.052.235c-.006,0-.011-.006-.017-.023l.023-.086A.706.706,0,0,0,20.268-9.405Zm-.12.452c.017-.1.034-.143.052-.143,0,.052-.011.08-.023.08-.011.057-.017.08-.029.08Zm-.017.034h.011v.034a.035.035,0,0,1-.017.034v-.029Zm-.114.137c0-.006,0-.011.011-.011v.017h-.011ZM19.93-8.6a.012.012,0,0,1,.011-.011l.006.029-.006.011a.012.012,0,0,1-.011-.011Zm.086.1a.132.132,0,0,1,.046-.1v.029a.144.144,0,0,0-.034.1h-.011Zm-.029.1h.006v.023h-.006Zm-.023.057h.006v.029h-.006Zm.177.1a.5.5,0,0,1,.12.034v.023l-.029.006h-.052l-.034.029h-.017l-.011-.006A.458.458,0,0,0,20.142-8.249Zm-.16.006s.023,0,.074.006a.129.129,0,0,0,.04-.006.458.458,0,0,0-.023.086h-.029a.192.192,0,0,0-.074-.04A.108.108,0,0,0,19.982-8.243Zm-.2.1c0-.057.017-.086.046-.086h.006a.4.4,0,0,1-.011.086l-.011-.006h-.017ZM19.507-8.2a1.973,1.973,0,0,1,.269-.023h.006a.153.153,0,0,0-.046.1h-.052a.315.315,0,0,0-.12.029c-.017,0-.046-.006-.086-.006A.6.6,0,0,1,19.507-8.2Zm.887.034a.021.021,0,0,1,.006-.017.6.6,0,0,1,.166-.034.232.232,0,0,1,.1.029v.006a.355.355,0,0,0-.063.017h-.011l-.149-.023c-.006,0-.011.006-.011.023Zm-2.953.326c.006-.029.04-.046.1-.046.1-.034.149-.057.155-.057.137,0,.212-.011.212-.029l.183-.046a.8.8,0,0,0,.212-.046.919.919,0,0,0,.332-.052.308.308,0,0,1,.046.006l.04-.006h.006l-.04.1-.069-.006A.186.186,0,0,0,18.545-8c-.086.011-.252.034-.492.074h-.1c-.017.011-.023.017-.023.023a.964.964,0,0,0-.206.034l-.034-.006H17.67a.538.538,0,0,1-.217.034Zm3.028-.12a.058.058,0,0,1,.029-.046H20.5a.043.043,0,0,0,.011.023c-.011.023-.023.029-.029.029h-.017Zm-1.717.006h.011c.011,0,.011.006.011.011l-.011.017c-.006,0-.006,0-.011-.011Zm1.145.034c.017.017.029.023.034.023l.029-.006a.034.034,0,0,1,.023.006,1.207,1.207,0,0,1-.1.286,8.17,8.17,0,0,1-.292.807,7.263,7.263,0,0,1-.435,1.059,3.484,3.484,0,0,1-.16.406c-.086.166-.166.338-.24.509a1.537,1.537,0,0,0-.172.3c-.069.155-.12.24-.149.252a.006.006,0,0,0-.006-.006.554.554,0,0,1,.074-.137,2.218,2.218,0,0,1,.143-.326c.1-.258.166-.4.189-.441A1.183,1.183,0,0,1,19-5.536a1.738,1.738,0,0,1,.143-.366,3.6,3.6,0,0,1,.143-.349l.12-.321a.769.769,0,0,0,.1-.3c.08-.189.132-.332.16-.418a1.565,1.565,0,0,0,.109-.332A1.014,1.014,0,0,0,19.9-7.923Zm-.475.034c.12-.006.217-.011.3-.023h.011L19.73-7.9v.069c-.023,0-.034.011-.034.04h-.011c-.011,0-.011-.011-.011-.034h-.006c-.017.006-.023.017-.023.04v.029c.006.011.017.023.023.023a.236.236,0,0,1-.034.109.221.221,0,0,1-.063.177.531.531,0,0,1-.08.206l-.023-.017h-.011v.006l.006.034c-.006.017-.017.029-.023.029a.176.176,0,0,0,.023.052.076.076,0,0,1-.017.04l-.023-.011a.018.018,0,0,0-.011.006.647.647,0,0,0,.006.08.185.185,0,0,0-.034.1c-.023,0-.034,0-.034-.006,0,.011-.006.011-.011.011l.011.04V-6.8l-.006.04h-.011q-.017,0-.017-.034v-.017H19.3a.315.315,0,0,0-.04.109.049.049,0,0,0,.017.034.081.081,0,0,1-.011.034l-.011-.006c-.011,0-.017.017-.029.046a.161.161,0,0,0,.006.046c-.006.011-.006.017-.011.017-.011.074-.029.109-.04.109a.012.012,0,0,1-.011-.011l-.011.006.006.029v.034l-.023-.029c-.017,0-.052.086-.1.263a.8.8,0,0,0-.1.229l-.069.155c-.137.3-.229.5-.263.6v.006l.006.04L18.6-5.107a.071.071,0,0,0-.017.011q-.026.069-.034.069a1.993,1.993,0,0,0-.183.372h-.006c.029-.109.155-.492.372-1.156.235-.75.441-1.385.612-1.895.017-.011.029-.023.029-.04a.012.012,0,0,0-.011-.011c.029-.086.046-.132.046-.137A.021.021,0,0,1,19.421-7.889Zm-2.226.057v-.006a.706.706,0,0,1,.137-.04h.011a.012.012,0,0,1,.011.011l-.006.011a.532.532,0,0,0-.12.034A.081.081,0,0,1,17.194-7.831Zm1.093-.046a.012.012,0,0,0-.011.011v.006a.021.021,0,0,1,.017.006c0-.006,0-.011.011-.011a.012.012,0,0,0-.011-.011Zm.836.046q.009-.017.017-.017v.034Q19.123-7.823,19.123-7.831ZM18.7-7.74c0-.011,0-.011.006-.011.006-.057.023-.086.046-.086v.011c.029.017.04.034.04.052A.776.776,0,0,0,18.7-7.74Zm.5-.057a.035.035,0,0,1,.017-.034h.011q.017.009.017.017V-7.8a.038.038,0,0,1-.023.04A.038.038,0,0,1,19.2-7.8Zm-.99-.029a.345.345,0,0,1-.074.046c0,.006.011.011.029.017.057-.017.086-.023.086-.029S18.236-7.808,18.208-7.826Zm-.538.04c-.006,0-.011,0-.011.011l.006.011.034-.006v-.006a.012.012,0,0,0-.011-.011Zm.406.011c-.034.011-.069.017-.109.029v.011c.08-.006.114-.017.114-.029v-.011Zm1.494,0a.035.035,0,0,0-.034.017v.017h.029q.017-.009.017-.017v-.006A.012.012,0,0,0,19.57-7.774Zm-.143.006-.023.006v.006c0,.006,0,.011.011.011h.011c.011,0,.011-.006.011-.011S19.438-7.768,19.427-7.768ZM17.4-7.74c.029.006.063.017.1.029V-7.7a.215.215,0,0,0-.1.029.2.2,0,0,0-.092-.023h-.006a.058.058,0,0,0-.063.052.154.154,0,0,1-.074-.04.16.16,0,0,1,.029-.046c.029.011.046.023.046.029a.091.091,0,0,1,.057-.029h.023l.029.017C17.383-7.723,17.4-7.728,17.4-7.74Zm1.6.023q0-.017.034-.017a.043.043,0,0,0,.006.023l-.023.011A.071.071,0,0,1,19-7.711Zm-1.213-.017a.006.006,0,0,0-.006.006c-.057.011-.086.023-.086.029v.011c0,.011,0,.011.011.011h.017l.052-.017c.011,0,.029.006.046.006l.017-.017C17.836-7.717,17.818-7.728,17.784-7.734Zm.143.011v.006h.011v-.006ZM16.5-7.677c0-.006.006-.011.023-.017s.011.011.017.023-.006.011-.011.011h-.006Zm.452-.017h.029v.011H16.96C16.954-7.682,16.948-7.682,16.948-7.694Zm2.095.04c0-.006.011-.017.04-.029q0,.06-.034.069l-.006-.029Zm-.584-.029a.323.323,0,0,0-.069.023c0,.023.006.029.011.029h.04c.046,0,.063-.006.063-.017C18.488-7.671,18.477-7.682,18.459-7.682Zm-.1.006a.159.159,0,0,0-.069.029c.011.023.023.034.04.034s.017-.011.04-.046C18.356-7.665,18.356-7.671,18.356-7.677Zm-.383,2.461a.106.106,0,0,0,.1-.074,2.453,2.453,0,0,1,.086-.24.779.779,0,0,1,.034-.137c.16-.538.269-.87.321-1l.183-.544a1.233,1.233,0,0,0,.069-.206c.04-.172.08-.258.109-.258.006,0,.006.011.006.034a1.858,1.858,0,0,0-.063.212.439.439,0,0,0-.074.223,1.871,1.871,0,0,0-.08.258A.508.508,0,0,0,18.6-6.8a.43.43,0,0,0-.04.114c-.034.109-.069.24-.114.4a.581.581,0,0,0-.057.217,4.364,4.364,0,0,0-.235.733.232.232,0,0,0-.034.063l.006.034v.006a.306.306,0,0,0-.063.16c-.029.1-.052.16-.057.195s.011.046.023.046h.017c.006,0,.011-.011.017-.029s-.006-.034-.006-.052v-.006a.1.1,0,0,1,.046-.074c-.006-.023-.011-.04-.011-.046a.932.932,0,0,0,.074-.177c.011-.1.029-.149.04-.149a.479.479,0,0,1,.052-.16c.017-.143.04-.212.074-.212L18.328-5.8l.057-.011-.017.023v.006a.35.35,0,0,0,.029.034H18.4a.091.091,0,0,0,.046-.017l-.006-.052a.041.041,0,0,1,.023-.04h.017c.006,0,.011.006.017.011h.023q.017-.009.017-.017c-.011-.017-.017-.023-.023-.023h-.052a.258.258,0,0,0,.011-.08v-.011h-.023a.121.121,0,0,1-.046.034v-.029A.157.157,0,0,1,18.431-6c.023-.1.046-.149.074-.149a.217.217,0,0,0-.006-.046.112.112,0,0,1,.063-.1.338.338,0,0,1,.046.029l-.023.114-.017-.011h-.017a.012.012,0,0,0-.011.011v.011c.017.017.023.023.023.029V-6.1a.035.035,0,0,1-.017.034l-.034-.006a.1.1,0,0,1-.029.011v.023a.673.673,0,0,1,.086.063h.017c.011-.057.029-.086.04-.086h.029a.044.044,0,0,0,.006.017c-.011.052-.029.109-.052.183a1.1,1.1,0,0,1-.057.149h-.006c0-.017-.006-.023-.017-.023l.017-.023v-.011h-.04q0-.034-.017-.034h-.006q-.017.009-.017.017v.011a.491.491,0,0,1,.017.1v.006l-.052.034-.023.1c0,.011.011.023.034.029.011-.017.023-.029.029-.029s.006.011.006.017a.287.287,0,0,1-.017.08.262.262,0,0,1-.034-.023h-.006a.049.049,0,0,0-.034.017c0,.017.006.029.011.029h.052c0,.006.006.017.006.023a.54.54,0,0,1-.069.189,2.908,2.908,0,0,1-.12.406v.011q.009.017.017.017h.006l.023-.017v.017a.035.035,0,0,1-.017.034c-.029,0-.046.017-.057.057-.029.1-.046.149-.057.149h-.006c-.006,0-.017-.017-.04-.052h-.006a.125.125,0,0,1-.029.08c0,.006.006.011.006.017.052.011.074.023.074.034-.006.034-.011.057-.023.057h-.023c-.011,0-.011-.011-.017-.029H18.1a.1.1,0,0,1-.029.063v.011c.034.011.046.023.046.034a.244.244,0,0,0-.046.12v.034H18.07c-.04-.017-.057-.034-.057-.063v-.006a.582.582,0,0,1,.023-.092v-.029a.012.012,0,0,0-.011-.011h-.006l-.046.046a1.366,1.366,0,0,1-.057.143.458.458,0,0,0-.052.2c0,.1-.011.155-.04.177v.023l.063.046.017-.011h.011a.174.174,0,0,1-.074.069l.006-.029-.006-.011c-.023,0-.046.057-.063.177a.625.625,0,0,1-.074.315.076.076,0,0,0,.017.04h-.006c-.029,0-.04.023-.046.069a.281.281,0,0,0,.017.069.2.2,0,0,0-.04.04.14.14,0,0,0,.006.04,1.288,1.288,0,0,1-.04.143v.006a.135.135,0,0,0,.069.132.092.092,0,0,0-.034.074.1.1,0,0,0-.086.109l.006.011a.243.243,0,0,0-.029.069v.006a.2.2,0,0,0,.023.1c.029.017.04.029.04.034-.034,0-.052.057-.063.16a.873.873,0,0,0,.006.1.632.632,0,0,0-.006.092.068.068,0,0,0,.023.046v.034h-.006c-.029-.017-.04-.052-.04-.1V-1.97c0-.006-.006-.011-.023-.017s-.017.017-.023.046q.017.077.017.086l-.023-.006c-.023,0-.046-.114-.074-.349a3.212,3.212,0,0,0,.034-.338,1.121,1.121,0,0,0-.011-.155.527.527,0,0,1,.029-.114s0-.046-.006-.137a.129.129,0,0,1,.029-.086.517.517,0,0,0,.057-.275.074.074,0,0,0-.029-.063h-.006c-.017,0-.052.092-.1.275h-.006c-.006,0-.011-.011-.017-.04.006-.046.011-.074.017-.074.023-.177.04-.269.057-.269a1.226,1.226,0,0,1,.04-.269.544.544,0,0,1,.052-.189.89.89,0,0,1,.08-.3.826.826,0,0,1,.023-.132.739.739,0,0,0,.046-.217,3.74,3.74,0,0,0,.155-.549.279.279,0,0,0,.046-.137.262.262,0,0,0,.034-.092c.006-.029.063-.212.177-.549a.8.8,0,0,1,.08-.263,1.209,1.209,0,0,1,.052-.183,1.57,1.57,0,0,0,.086-.3.263.263,0,0,0,.074-.195,1.2,1.2,0,0,0,.1-.269.484.484,0,0,1,.086-.246c.046-.172.069-.258.086-.258h.034v.023a.076.076,0,0,0-.017.04v.052l-.04.046v.006l.029.029v.011h-.006l-.017-.011h-.006c-.006,0-.011,0-.011.011l.011.04a.054.054,0,0,1-.034.046,1.151,1.151,0,0,1-.034.155c-.023,0-.04.052-.046.155-.029.029-.046.046-.046.052s.006.011.006.023c-.023.08-.034.126-.034.126.017.017.023.029.029.029,0,.017-.011.04-.046.063a.665.665,0,0,0-.086.275c0,.011.006.017.029.017a.111.111,0,0,0-.046.092v.069c-.029,0-.057.052-.092.16v.017s.011.011.034.04v.017c-.029,0-.057.023-.08.069a.378.378,0,0,1,.006.063.279.279,0,0,0-.063.109l.011.017v.011c-.017.023-.034.04-.046.04-.011.063-.023.092-.034.092a.171.171,0,0,1-.029.114c-.017.08-.034.143-.046.195A.062.062,0,0,0,18-5.3c0,.006-.017.017-.046.04C17.95-5.233,17.956-5.221,17.973-5.216Zm1.179-2.415a.048.048,0,0,1,.023-.04c.011,0,.011.006.011.011v.006c0,.029-.006.046-.023.052A.037.037,0,0,0,19.152-7.631Zm-2.8.011c0-.023.017-.04.046-.046h.057v.006c0,.011-.029.029-.08.046h-.011Zm.521-.046h.011v.006h-.011Zm1.339.017-.046.046.006.011a.566.566,0,0,0,.086-.006V-7.6a.106.106,0,0,0-.04-.046ZM16.582-7.6c0-.023.057-.04.177-.04h.023c0,.006-.006.011-.029.017L16.7-7.625a.757.757,0,0,0-.1.04.025.025,0,0,0-.017-.006Zm-.166.017L16.49-7.6c0,.006.006.006.023.006q0,.017-.034.017h-.063Zm-.338.137a.236.236,0,0,0,.04-.063.917.917,0,0,1,.252-.063h.017a.05.05,0,0,1-.052.046H16.29l-.046.04h-.057a.376.376,0,0,1-.1.052h-.006ZM19.009-7.5h.006v.034c0,.006-.006.023-.011.052-.034-.011-.052-.017-.052-.023v-.011l.006-.011C18.992-7.471,19.009-7.488,19.009-7.5Zm.08.029c.017.006.023.011.023.017l-.017.023q-.017-.009-.017-.017v-.006Zm-.406.034h.011v.006h-.011Zm.269.074c.006,0,.011,0,.011.006v.006C18.957-7.35,18.952-7.35,18.952-7.362Zm-.1.6c.011-.057.023-.086.029-.086a.225.225,0,0,1,.063-.189c.029-.149.057-.223.08-.223h.006l.006.029a.1.1,0,0,1-.023.057l-.086.292a.245.245,0,0,0-.057.132,3.209,3.209,0,0,1-.132.446c-.006,0-.023-.017-.046-.046v-.011c.017,0,.04-.017.057-.052a.853.853,0,0,1,.109-.326A.034.034,0,0,1,18.854-6.767Zm.046-.446a.031.031,0,0,1,.023-.034c.006,0,.006.006.011.017l-.017.057h-.011L18.9-7.2Zm.567.017a.012.012,0,0,1,.011-.011h.006v.023c0,.006,0,.011-.011.011S19.472-7.19,19.467-7.2Zm-.584.052c.006,0,.011.006.017.023s-.006.017-.011.017h-.017C18.871-7.11,18.877-7.122,18.883-7.144Zm.5.1q-.017.009-.017.017c0,.011,0,.011.011.011s.011-.006.017-.017S19.392-7.041,19.387-7.041Zm-.572.08c0-.011.011-.017.023-.023l.011.017v.006c0,.006-.006.011-.023.017A.071.071,0,0,1,18.814-6.961Zm.515.069a.012.012,0,0,0-.011.011v.023h.017v-.023Zm-.715.269h.029a.021.021,0,0,0,.006.017l-.029.114h-.006Zm.584.063v.017h.011v-.017Zm-.023.052V-6.5h.011v-.006Zm-.538.092c.023-.052.04-.08.052-.08a.021.021,0,0,0,.006.017.071.071,0,0,0-.011.017v.069a.055.055,0,0,1-.04.052l-.023-.023h-.034l-.011.006a.081.081,0,0,0-.011-.034c.011-.023.023-.029.029-.029H18.6Zm-.074.143v.017l.011-.006A.012.012,0,0,0,18.562-6.274Zm.114.011h.029a.012.012,0,0,1,.011.011v.011a.67.67,0,0,1-.057.155h-.006a.036.036,0,0,1-.029-.034A.391.391,0,0,0,18.677-6.263Zm-.452.172c-.006,0-.011,0-.011.011v.006h.017v-.017Zm.166.206c0-.006,0-.011.006-.011v.017h-.006Zm-.195,0H18.2v.011H18.2Zm.326.206c.011-.017.017-.023.023-.023V-5.7l-.011.034c-.006,0-.011,0-.011-.006Zm-.166.1a.04.04,0,0,0-.023.029c0,.006.006.011.023.017s.029-.011.029-.017V-5.57a.012.012,0,0,0-.011-.011Zm-.052.16v.011c0,.006,0,.011.011.011a.012.012,0,0,0,.011-.011.012.012,0,0,0-.011-.011Zm.086.046c-.017.006-.029.011-.029.023v.017c0,.006,0,.006.011.006h.017q.017-.009.017-.017v-.011Q18.408-5.367,18.391-5.376Zm-.132.086v.006h.011V-5.29Zm-.011.069c-.006,0-.011.011-.023.034v.006h.006l.029-.006v-.006l-.006-.029ZM18.3-5.2a.012.012,0,0,0-.011.011v.029c0,.006.011.017.029.023s.017-.011.023-.029a.012.012,0,0,0-.011-.011l.011-.017V-5.2Zm-.292.006q-.017.009-.017.017v.011c0,.006.006.011.023.017s.011-.006.017-.023C18.019-5.193,18.013-5.2,18.007-5.2Zm.286.069a.012.012,0,0,0-.011.011v.006a.012.012,0,0,0,.011.011.012.012,0,0,0,.011-.011V-5.13Zm-.3.017a.043.043,0,0,0-.029.046h-.034a.062.062,0,0,0-.04.017.613.613,0,0,1-.034.132c.006.063.034.092.074.092.006,0,.017-.023.034-.063A.251.251,0,0,1,18-5.061V-5.1A.012.012,0,0,0,17.99-5.113Zm.229,0c-.029,0-.046.017-.057.063v.023l.006.052a.206.206,0,0,0-.023.029v.034q.009.017.017.017h.011a.661.661,0,0,1,.074-.166A.079.079,0,0,0,18.219-5.113Zm0,.217a.012.012,0,0,0-.011.011v.006a.012.012,0,0,0,.011.011h.006V-4.9Zm-.206.086c-.029.011-.04.04-.04.086a.825.825,0,0,0-.057.212.012.012,0,0,1,.011.011c.023-.011.034-.023.034-.04a1.07,1.07,0,0,1,.063-.229V-4.8A.012.012,0,0,0,18.013-4.809Zm.074.08q-.017,0-.052.034c0,.034.006.057.023.057h.006c.011,0,.023-.023.04-.074,0-.011,0-.017-.011-.017Zm-.235.006a.114.114,0,0,0-.069.046v.006c.006.029.017.04.023.04s.011-.006.011-.017h.04a.071.071,0,0,0,.017-.011v-.046C17.876-4.712,17.87-4.718,17.853-4.723Zm.418.046h.006v.011h-.006Zm-.114.006c-.006,0-.011,0-.011.011v.006l.006.011c.023,0,.029-.006.029-.011S18.173-4.666,18.156-4.672Zm-.378.08c-.023.017-.04.069-.052.166a.643.643,0,0,0-.046.212c.006.052.017.074.034.074h.006c.011-.006.029-.046.046-.126l-.023-.04c0-.006.006-.011.011-.017.046-.034.063-.1.063-.212v-.011a.047.047,0,0,0-.029-.046Zm.132.143c-.017.011-.029.017-.029.023V-4.4l.011.017c.017-.011.029-.017.029-.023v-.006A.081.081,0,0,0,17.91-4.449Zm-.052.16q-.017.009-.017.017v.017c.011.017.017.023.023.023s.017-.011.017-.017v-.017C17.87-4.277,17.864-4.288,17.858-4.288Zm-.011.074h-.006c-.017,0-.029.034-.04.1v.017a.012.012,0,0,0,.011.011h.011a.463.463,0,0,0,.029-.12ZM18-4.157c.046,0,.063.017.063.052a.4.4,0,0,1-.023.1H18.03l-.017-.017-.029-.114Zm-.275.04c-.029,0-.057.023-.1.069a.39.39,0,0,1-.029.12c0,.011.017.017.063.023l.017-.011a1.528,1.528,0,0,1,.057-.195Zm.235.137.029-.006h.023l.006.034v.006c-.023.057-.052.114-.086.189H17.91c-.006,0-.011-.006-.017-.023s.023-.029.046-.046a.6.6,0,0,0-.011-.074.093.093,0,0,1,.046-.052c0-.006-.006-.011-.017-.011ZM17.6-3.9a.325.325,0,0,0-.057.195.16.16,0,0,0,.006.034h.011a.671.671,0,0,0,.092-.086l-.017-.057V-3.83a.07.07,0,0,0,.017-.052Q17.647-3.891,17.6-3.9Zm.258.24h.006v.006a.073.073,0,0,1-.029.04A.261.261,0,0,1,17.853-3.659Zm2.2.069c-.023,0-.046.023-.063.063V-3.5L20-3.487l.069-.08v-.006Q20.065-3.59,20.056-3.59Zm-2.564.12a.012.012,0,0,0-.011.011c.023.029.04.04.063.04h.006a.012.012,0,0,0,.011-.011v-.006A.069.069,0,0,0,17.492-3.47ZM20-3.464a.012.012,0,0,0-.011.011l.006.011A.012.012,0,0,0,20-3.453Zm-.092.052q-.017.009-.017.017v.011a.012.012,0,0,0,.011.011h.011q.017-.009.017-.017V-3.4a.012.012,0,0,0-.011-.011Zm-.092.04a.059.059,0,0,0-.029.034c0,.011.006.017.011.017H19.8c.023-.017.029-.023.029-.029v-.011c0-.006,0-.011-.011-.011Zm.074.023a.118.118,0,0,0-.08.052l.023.011c.023,0,.04-.017.057-.052Zm-2.261.063a.012.012,0,0,0-.011.011c0,.011,0,.011.011.011h.006v-.011Zm-.023.052a.021.021,0,0,1-.006.017.043.043,0,0,0,.011.023l.017-.011c-.006-.017-.011-.029-.017-.029Zm.172.137a.012.012,0,0,1,.011-.011v.046c-.006,0-.006-.006-.011-.011Zm-.4.046q.009,0,.017.034l-.011.114v.023a.149.149,0,0,1-.017.057c-.011.109-.023.166-.04.166H17.32l-.006-.04v-.017a.23.23,0,0,1,.017-.086C17.332-2.949,17.349-3.035,17.378-3.052Zm.4.029h.011l.006.04c-.006.04-.017.057-.029.057h-.011c-.006,0-.006,0-.011-.011v-.006A.172.172,0,0,1,17.778-3.023Zm1.957.04c.006,0,.011,0,.011.011l-.006.011c-.011,0-.011-.006-.011-.011Zm-2,.183h.011c0,.006.006.017.006.023a.685.685,0,0,1-.017.08h-.011a.021.021,0,0,0-.006-.017Zm1.837.1c.023-.04.046-.063.074-.063h.006q-.017.069-.034.069H19.6Zm-2.055.04c-.006,0-.011,0-.011.011v.017l.011.011c.017,0,.029-.006.029-.011V-2.64C17.549-2.646,17.538-2.657,17.521-2.663Zm-.017.1c-.011.011-.023.017-.023.023v.006c0,.011.006.011.011.011h.017c0-.006,0-.006.006-.017S17.509-2.548,17.5-2.56Zm2.038.08a.012.012,0,0,0-.011.011v.011a.012.012,0,0,0,.011-.011Zm-1.963.023a.012.012,0,0,1,.011-.011H17.6a.012.012,0,0,1,.011.011v.017A.052.052,0,0,0,17.578-2.457Zm.057.017a.034.034,0,0,0,.023-.006h.006l-.006.023h-.023Zm-.149.023q-.009,0-.017.034v.029c.011.011.017.023.023.023H17.5c.006,0,.011-.011.017-.023-.006-.046-.011-.063-.017-.063Zm1.992,0v.011H19.5v-.011Zm-.034.046q-.017.009-.017.017v.011h.017q.017-.009.017-.017c0-.006,0-.011-.011-.011Zm-.057.052v.011H19.4v-.011Zm-1.746.063a.034.034,0,0,0,.023-.006.928.928,0,0,0,.017.12.142.142,0,0,0-.006.052c-.011,0-.023-.017-.034-.046,0-.052.006-.086.006-.1A.025.025,0,0,1,17.641-2.256Zm-.166.006c0,.034.006.074.006.126l-.006.04c.011.034.017.052.029.052h.006V-2.05a.9.9,0,0,0-.023-.2Zm.172.326c0-.006,0-.006.011-.011h.011q.017.009.017.017v.034c-.023,0-.034-.006-.04-.023Zm4.587.509a1.726,1.726,0,0,0,.962-.412,4.091,4.091,0,0,0,.635-.567,2.6,2.6,0,0,0,.813-1.54c.063-.023.177-.052.338-.092a2.573,2.573,0,0,0,.67-.235q0-.009-.034-.017a.181.181,0,0,1-.132.052,1.211,1.211,0,0,1-.269.074.108.108,0,0,1-.046-.011q.112-.06.532-.223a.414.414,0,0,0,.212-.063q.206-.043.206-.069l-.069-.006-.011.029a.091.091,0,0,1-.046-.017.412.412,0,0,1-.149.046.185.185,0,0,1-.1.034l-.017-.011a.792.792,0,0,1-.177.04.394.394,0,0,1-.074-.011c-.006,0-.011,0-.011.011,0,.046-.069.08-.206.1a1.024,1.024,0,0,1-.275.063.2.2,0,0,1-.08-.017l.006-.017a.1.1,0,0,0,.057-.034l-.006-.006c-.069.006-.195.023-.378.057l-.04-.08a1.866,1.866,0,0,0-.366-.481,1.374,1.374,0,0,0-.527-.338l.011-.023q.155-.129.155-.206a.3.3,0,0,0-.063-.155.424.424,0,0,0-.3-.12h-.04a1.145,1.145,0,0,0-.7.378,4.627,4.627,0,0,0-.5.624,2.77,2.77,0,0,0-.527,1.133.079.079,0,0,0,.029.052.216.216,0,0,1-.063.183l-.011-.137h-.011l-.006.04a3.31,3.31,0,0,0-.189.944.943.943,0,0,0,.343.807A.638.638,0,0,0,22.234-1.415ZM22.08-4.2,22.057-4.2v-.034c0-.006.034-.069.1-.183a2.161,2.161,0,0,1,.372-.561c.109-.155.195-.252.269-.275a.166.166,0,0,0-.029.057c-.052.052-.24.309-.567.761A1.1,1.1,0,0,1,22.08-4.2Zm1.345-.841h-.011v-.017h.006Zm.269.881a.657.657,0,0,1-.366-.092c-.1-.023-.155-.114-.155-.28,0-.12.023-.177.063-.177a.036.036,0,0,1,.029.034h.011v-.023a.279.279,0,0,1,.006-.069c-.006,0-.017.006-.034.023-.006,0-.011-.006-.017-.023.04-.109.074-.16.114-.16l.006.04h.006a.17.17,0,0,1,.08-.029c.109,0,.258.1.452.292a1.137,1.137,0,0,1,.286.424A3.364,3.364,0,0,1,23.694-4.157Zm-.372-.126a1.068,1.068,0,0,1-.052-.349h-.011a.449.449,0,0,0-.011.126.455.455,0,0,0,.011.149c.023,0,.046.023.052.074Zm2.885-.263c.063-.006.1-.023.1-.057,0-.006-.017-.017-.046-.023s-.052.029-.057.074Zm-.074-.006c.006,0,.011-.006.011-.017s-.006-.011-.011-.017-.011.006-.011.017S26.126-4.552,26.132-4.552Zm.046.034a.035.035,0,0,0,.034-.017l-.063-.017a.012.012,0,0,0-.011.011C26.143-4.523,26.155-4.517,26.178-4.517Zm-.979.16.011-.006a.012.012,0,0,0-.011-.011h-.023C25.182-4.363,25.187-4.357,25.2-4.357Zm-.086.029.017-.006v-.011l-.011-.017c-.017.006-.023.011-.023.029ZM22.251-1.844l-.172-.011a1.753,1.753,0,0,1-.074-.412,1.985,1.985,0,0,1,.155-.681,8.818,8.818,0,0,1,.355-.9,3.641,3.641,0,0,1,.292-.5.783.783,0,0,0,.057.155.868.868,0,0,0,.864.412,2.123,2.123,0,0,0,.424-.04,1.717,1.717,0,0,1-.338.721,3.533,3.533,0,0,0-.258.361.006.006,0,0,1,.006.006l.052-.017a1.464,1.464,0,0,1,.155-.137c.04.006.057.017.057.034q.043,0,.069-.069a3.507,3.507,0,0,0,.441-.922c0-.011.04-.023.109-.034h.006v.034a3.19,3.19,0,0,1-.229.618c-.08.1-.143.195-.2.275-.063.057-.092.1-.092.149-.04.011-.057.023-.057.034l.04.023v.006a.023.023,0,0,0-.011.023l-.017-.006c-.017,0-.023,0-.023.006-.057,0-.092.052-.109.16l-.069-.006a1.214,1.214,0,0,0-.08.12c-.046.023-.063.04-.063.063l.034.052a.223.223,0,0,0-.08-.011c-.132.069-.2.126-.2.172l.017.074a.147.147,0,0,0-.074-.052c-.011,0-.023.034-.04.109-.023-.017-.034-.029-.04-.029h-.069c.137-.155.212-.24.217-.252.063-.046.092-.08.092-.12-.017,0-.046.017-.086.057-.269.252-.464.378-.572.378A1.861,1.861,0,0,1,22.251-1.844Zm2.765-2.473v-.006l-.023-.006a.006.006,0,0,1-.006.006C24.987-4.317,25-4.317,25.016-4.317Zm.675.04.04-.006c0-.006,0-.011-.011-.017l-.034.011Zm-1.362.063h-.006l.006-.017Zm.28.011q.009-.017.017-.017Q24.618-4.2,24.609-4.2Zm-2.387.395v-.074c0-.006.011-.011.04-.029C22.263-3.842,22.246-3.808,22.223-3.808Zm-.235.458h-.011a.412.412,0,0,0,.046-.155h.063l-.006.04C22.068-3.39,22.039-3.35,21.988-3.35Zm-.217.658a.088.088,0,0,0-.017-.034,1.041,1.041,0,0,1,.063-.24c.029-.143.052-.217.074-.217a.577.577,0,0,1,.011.109.044.044,0,0,0-.04.046c0,.006.006.023.011.063l-.023.08C21.851-2.777,21.822-2.714,21.77-2.691Zm.155-.212.006-.057c.017.017.029.023.034.023v.011Zm.011.143a.139.139,0,0,1-.074-.023.335.335,0,0,0,.074-.08Zm1.46.315a.2.2,0,0,0,.092-.034c.166-.137.252-.258.252-.361h-.006l-.08.1a.115.115,0,0,1-.114.1.227.227,0,0,1-.04-.029.785.785,0,0,0-.109.155ZM21.9-2.686v-.046h.006l.006.029C21.914-2.691,21.908-2.686,21.9-2.686Zm-.109.532a.281.281,0,0,1-.017-.069c.017-.137.029-.223.029-.246.023-.08.04-.132.04-.143l-.006-.034a.239.239,0,0,1,.052-.017.975.975,0,0,1-.017.212C21.856-2.251,21.833-2.153,21.793-2.153Zm-.109.206a.437.437,0,0,1-.086-.3,1.722,1.722,0,0,1,.046-.349c.063,0,.092.029.092.08s-.017.217-.052.487c.006.04.011.063.023.063C21.7-1.959,21.69-1.947,21.685-1.947Zm1.574-.1c-.017-.006-.023-.011-.023-.023l.034.006a.021.021,0,0,1,.017-.006v.011C23.276-2.062,23.27-2.056,23.259-2.05Zm-.183.126v-.017c0-.029.017-.04.057-.04A.051.051,0,0,1,23.075-1.924Zm-1.2.046h-.023l.006-.086h.017ZM28.6-5.834a.484.484,0,0,0-.332.166,1.766,1.766,0,0,0-.315.578c-.24.687-.406,1.133-.492,1.339a2.212,2.212,0,0,0-.217.567,15.751,15.751,0,0,0-.475,1.889v.017a.386.386,0,0,1,.074.086.241.241,0,0,0,.155.12.272.272,0,0,0,.137.057c.034,0,.057-.006.057-.011.069,0,.132-.08.195-.246.343-.572.612-1,.8-1.276a4.872,4.872,0,0,0,.383-.71,2.7,2.7,0,0,1,.492-.818c.286-.441.515-.658.7-.658h.04a.26.26,0,0,1,.1.023,2.888,2.888,0,0,1,.378.309.371.371,0,0,0-.017-.057v-.034h.006a.309.309,0,0,1,.1.109.744.744,0,0,1,.177.149h.006l.017-.011h.011a.145.145,0,0,0,.092.092c.011,0,.017-.006.017-.011V-4.2q.086.026.086.052v.011q-.052.009-.052.017v.006q.077.086.12.086l.04-.006c.046.011.069.023.08.023l.029-.006v-.017l-.017-.023v-.006h.052c.006.029.011.046.023.046s.011-.006.011-.011v-.006l-.006-.029h.029a.766.766,0,0,0,.6-.418v-.006h-.006a.529.529,0,0,0-.195.195q-.06,0-.172.12a2.126,2.126,0,0,1-.361.063h-.006l-.011.006c0-.006-.011-.006-.034-.006-.029-.046-.046-.069-.057-.069a.081.081,0,0,1-.034.011c0-.006-.006-.017-.023-.034a.234.234,0,0,1-.109-.08l-.132-.1a.088.088,0,0,1-.057-.092.07.07,0,0,1,.057.034c.069.034.1.057.109.074a.42.42,0,0,1,.08.057l.126.046a.069.069,0,0,1,.052-.034.306.306,0,0,1,.052.04h.011q.017-.009.017-.017l.04.046h.011a.257.257,0,0,0,.063-.006c.017,0,.029-.023.04-.08a.208.208,0,0,0,.063.017h.017c.08,0,.195-.08.332-.246a.687.687,0,0,1,.292-.206c0-.074-.023-.114-.069-.114l-.034.006a.152.152,0,0,1-.074-.057l-.023.023.011.074c-.017.017-.023.029-.023.034a.279.279,0,0,0,.023.063V-4.7h-.006c-.011,0-.017-.023-.029-.057-.006,0-.011.006-.017.023l.006.034c-.217.217-.366.326-.441.326a.128.128,0,0,1-.086-.046H31.08a.128.128,0,0,0-.057.017h-.006c-.023-.046-.046-.069-.063-.069l-.092.011a.811.811,0,0,1-.532-.332c-.263-.332-.5-.5-.715-.5-.195,0-.395.137-.618.406a.248.248,0,0,1-.08.114v.023c0,.006,0,.011.011.011h.011a.012.012,0,0,0,.011-.011.292.292,0,0,0,.063.023v.006c-.023,0-.052.046-.08.137v.006q.009.017.017.017h.006a.091.091,0,0,0,.069-.029v.006c0,.034-.052.086-.149.149q-.009,0-.034-.052c-.034,0-.063.04-.086.114-.034.017-.052.057-.052.126l.04-.006v.011a.158.158,0,0,1-.063.137h-.006q-.077-.069-.1-.069h-.011a.044.044,0,0,0-.046.034c0,.006,0,.011.011.011h.017c0-.011.006-.017.023-.023a.539.539,0,0,1,.023.057.06.06,0,0,0-.063.046.038.038,0,0,0,.029.023v.006a.42.42,0,0,0-.1.149c0,.04-.034.063-.109.086a.183.183,0,0,0,.046.1v.006c-.08.011-.114.023-.114.04V-3.6a.108.108,0,0,1-.011.046.054.054,0,0,0-.034.046v.017l.006.011.029-.006a1.169,1.169,0,0,1,.1-.137v.034a.219.219,0,0,1-.069.12.983.983,0,0,1-.172.395c-.063.12-.109.183-.132.183l-.011-.006-.057.114a6.447,6.447,0,0,1-.532.99h-.006v-.006a.278.278,0,0,1,.034-.1,7.115,7.115,0,0,0,.429-.939,3.085,3.085,0,0,0,.155-.321.194.194,0,0,0,.069-.069.816.816,0,0,1,.063-.2l-.011-.006h-.006q-.009,0-.069.069c-.086.189-.149.286-.195.286h-.011v-.006c.08-.292.143-.509.195-.641,0-.046.212-.532.624-1.46a1.118,1.118,0,0,0,.1-.452v-.029C28.75-5.777,28.693-5.834,28.6-5.834Zm.446,1.2c.011-.011.017-.023.029-.023a.213.213,0,0,1,.1-.109c.023-.063.052-.092.086-.092l.034.006v.011c-.011,0-.017.006-.029.017l.006.057a.154.154,0,0,1-.086.132.732.732,0,0,1-.1.149.69.69,0,0,1-.172.246l-.046-.04.017-.046q.1-.1.137-.1c0-.04.04-.1.109-.172v-.011l-.04.006h-.04l-.011.006ZM28.3-4.7h.011c0,.006-.006.011-.006.023H28.3Zm.011.149c0-.023.017-.04.046-.069h.006V-4.6a.108.108,0,0,1-.04.08c-.006,0-.006-.006-.011-.011Zm-.12.092c.006-.017.011-.029.029-.034v.034Zm-.114.372a1.045,1.045,0,0,0,.114-.229.2.2,0,0,1,.1-.137c-.063.114-.143.3-.246.538a3.066,3.066,0,0,0-.223.612c0,.057-.04.1-.12.114a.059.059,0,0,1,.006-.023c.046-.149.092-.286.143-.412V-3.63c-.011,0-.029-.011-.04-.046s.023-.069.074-.132a2.5,2.5,0,0,1,.149-.321.021.021,0,0,0-.006-.017c.052-.12.092-.183.126-.189h.006a1.18,1.18,0,0,0-.092.246Zm.1-.332q.017,0,.017.034h-.006c-.006,0-.011-.011-.017-.023Zm.578.126a.066.066,0,0,1,.046-.052.1.1,0,0,1,.034-.052h.011v.034q-.043,0-.052.069v.023c-.006,0-.017.006-.023.006s-.011-.006-.017-.006Zm1.751-.069h.006v.011h-.006Zm-2.576.011.023.006v.006h-.011C27.932-4.34,27.932-4.346,27.932-4.351Zm.029.109h.006l.006.017-.011.006Zm.721.023c-.006,0-.006.006-.011.011l.006.029h.006c.011,0,.011-.006.011-.011v-.017C28.693-4.214,28.693-4.22,28.682-4.22Zm.109.137a.058.058,0,0,1,.052-.063l.011.006c-.011.04-.023.057-.034.057Zm-.9.052c.017-.052.029-.08.046-.08v.006C27.915-4.059,27.9-4.031,27.886-4.031Zm.715-.017c0-.011.011-.017.029-.017h.006A.117.117,0,0,1,28.624-4c-.011-.011-.023-.017-.023-.023Zm.143.04c0-.034.011-.052.029-.052h.011L28.756-4Zm-.887.029a.012.012,0,0,1,.011.011,1.853,1.853,0,0,1-.126.3h-.011v-.011c.011-.057.017-.08.029-.08A1.816,1.816,0,0,1,27.857-3.979Zm.67.195c.006-.017.017-.023.023-.023a.021.021,0,0,0,.006.017v.006Zm-.011.126c0-.011,0-.011.011-.011h.017c-.011.011-.017.017-.017.029h-.011Zm-.309.086a.012.012,0,0,0-.011.011v.006c0,.011,0,.011.011.011h.017v-.017c0-.006-.006-.006-.011-.011Zm-.04.04q-.017.009-.017.017v.029a.012.012,0,0,0,.011.011q.017-.009.017-.017v-.04Zm.189.229q.017-.12.034-.12h.034v.017a.508.508,0,0,1-.063.109h-.006Zm-.023.029h.006c.006,0,.011.006.017.011-.006.023-.029.04-.057.063A.3.3,0,0,1,28.333-3.275Zm-.235.1-.017.011a.057.057,0,0,0,.006.023h.006a.012.012,0,0,0,.011-.011v-.011Zm.177.006c.006,0,.011.006.011.023l-.006.006H28.27ZM28.184-3c0-.04.011-.057.046-.057v.023c-.017.023-.023.034-.029.034Zm-.647.006h.006v.023h-.006Zm-.029.086h.011V-2.9a2.306,2.306,0,0,1-.114.452c-.034.177-.074.269-.109.269,0,0,0-.006-.011-.006l.006-.011v-.086l.006-.006L27.291-2.3l-.023.006v-.017h.017c.034,0,.052-.034.052-.092v-.017a.257.257,0,0,0-.046.011c0-.011,0-.017-.006-.023s.011-.011.011-.04c.023.017.034.034.034.046h.006c.011,0,.017-.017.023-.052a.456.456,0,0,0,.074-.2A2.266,2.266,0,0,0,27.508-2.909Zm-.389.555c.011-.023.023-.029.029-.029l.006.029v.011q0,.009-.034.017Zm-.057.24a.113.113,0,0,1,.034-.08.177.177,0,0,0,.011.046c-.023.029-.034.04-.04.04h-.006Zm.155.023c0-.006,0-.011.011-.011s.011.006.017.023l-.029-.006Zm-.16,0h.006a.021.021,0,0,0,.006.017.021.021,0,0,0-.006.017l-.011-.006Zm9.538-3.858a.345.345,0,0,0-.3.183.406.406,0,0,0-.126.315v.092a.259.259,0,0,1-.017.092.933.933,0,0,0-.1.217,4.041,4.041,0,0,1-.315.475.794.794,0,0,1-.155.28.875.875,0,0,1-.172.275,4.807,4.807,0,0,1-.561.721,3.529,3.529,0,0,1-.321.378,1.116,1.116,0,0,1-.12.177,1.174,1.174,0,0,0-.309.263,1.278,1.278,0,0,1-.4.246,1.15,1.15,0,0,1-.189.1H33.5c-.04,0-.063-.126-.069-.372a5.108,5.108,0,0,1,.143-.807A12.015,12.015,0,0,1,34.2-5.221a2.125,2.125,0,0,0,.217-.532v-.011c0-.069-.023-.1-.069-.114h-.08a.748.748,0,0,0-.12-.046.668.668,0,0,0-.189.046.315.315,0,0,0-.16.172.806.806,0,0,0-.16.263,10.505,10.505,0,0,0-.612,1.374,6.314,6.314,0,0,0-.372,1.626v.057a.683.683,0,0,0,.114.406,1.18,1.18,0,0,0,.807.263.769.769,0,0,0,.109-.006.815.815,0,0,0,.412-.183,4.235,4.235,0,0,0,.859-.738,2.361,2.361,0,0,0,.321-.395l-.006-.011-.034.011c-.057.074-.092.114-.109.114a.378.378,0,0,1-.063-.006c-.023,0-.04.023-.052.057v.006c0,.011.017.017.04.023v.011c0,.029-.017.046-.057.057a.091.091,0,0,1-.046-.017h-.006a1.29,1.29,0,0,1-.137.12.717.717,0,0,0-.223.177.478.478,0,0,1-.223.149h-.006a.34.34,0,0,1,.023-.046c.069-.063.1-.1.1-.126h-.017l-.023.017H34.42V-2.52c0-.006.017-.017.046-.04.069-.006.109-.029.109-.063v-.006l-.017-.029a2.246,2.246,0,0,0,.372-.412c.052-.023.1-.109.155-.252.1-.12.16-.189.16-.217a.346.346,0,0,0,.069-.1c.057-.08.1-.114.126-.114.011-.086.023-.132.046-.132.017-.017.1-.143.252-.378.109-.183.183-.275.229-.275l.132-.206c-.034.109-.08.24-.143.395a6.48,6.48,0,0,1-.252.67,1.818,1.818,0,0,0-.1.292c0,.006.017.017.057.023l-.017.069-.2.429a4.864,4.864,0,0,1-.3.664A1.107,1.107,0,0,1,35-1.913a2.565,2.565,0,0,1-.114.252,5.081,5.081,0,0,1-.332.635,2.32,2.32,0,0,1-.195.372.213.213,0,0,1-.1.183,2.408,2.408,0,0,1-.212.309.273.273,0,0,1-.149.1.985.985,0,0,0-.183.246c-.263.263-.4.4-.4.412a.085.085,0,0,0,.04-.006.632.632,0,0,1,.172-.137h.006A1.87,1.87,0,0,1,33.3.737c0,.034-.057.114-.183.235-.069.1-.12.143-.155.143H32.96c.04-.1.069-.149.092-.149a.333.333,0,0,1,.1-.183c.1-.069.149-.126.149-.172V.605H33.3a.486.486,0,0,1-.143.1c-.074.074-.114.114-.126.114a3.407,3.407,0,0,0-.321.383.96.96,0,0,0-.3.555.442.442,0,0,0,.011.086.364.364,0,0,0,.355.263.57.57,0,0,0,.487-.332c.441-.544.715-.91.83-1.087a1.822,1.822,0,0,1,.223-.361c.361-.372.538-.561.538-.572A4.593,4.593,0,0,0,35.3-.694V-.705a1.145,1.145,0,0,1-.149.114h-.011A3.631,3.631,0,0,1,35.4-.854c.12-.132.195-.195.223-.195V-1.06l-.006-.011c.006-.006.132-.149.372-.435.155-.16.235-.24.235-.246a11.1,11.1,0,0,1,.916-.859c.1-.08.4-.315.893-.693V-3.31a.712.712,0,0,0-.143.04h-.006a.752.752,0,0,1,.137-.08c.1-.034.143-.063.143-.074s-.011-.006-.034-.011q.026-.034.034-.034h.052v.011c.017-.006.034-.023.057-.063v-.011H38.26a.1.1,0,0,0-.04.006c-.052,0-.08.011-.08.04a.2.2,0,0,1-.069-.006.2.2,0,0,0-.006.034c0,.017-.023.034-.074.046a1.285,1.285,0,0,1-.338.2h-.006l.017-.057-.006-.006c-.069.017-.1.04-.1.08l.017.057a2.757,2.757,0,0,1-.315.223A1.231,1.231,0,0,1,37-2.709a1.972,1.972,0,0,1-.229.2,4.912,4.912,0,0,0-.538.5,3.311,3.311,0,0,0-.332.343,1.952,1.952,0,0,0-.309.366c-.029.017-.04.029-.04.034-.515.612-.778.927-.784.944h-.006V-.322a.8.8,0,0,0,.052-.132,3.961,3.961,0,0,1,.532-.675c.092-.08.137-.132.137-.149a.526.526,0,0,0,.126-.172c.04-.029.063-.046.063-.063a.044.044,0,0,0-.006-.017.935.935,0,0,0,.109-.126c.1-.086.149-.143.149-.166a.557.557,0,0,0,.172-.189,2.244,2.244,0,0,0,.332-.338.793.793,0,0,0,.149-.132c.086-.069.132-.12.132-.143a.806.806,0,0,0,.16-.132,2.859,2.859,0,0,0,.28-.229c.086-.057.189-.132.309-.229a2.963,2.963,0,0,0,.321-.195l.155-.063c0-.052.046-.086.137-.109L38.054-3.6a.622.622,0,0,0-.212.08,3.423,3.423,0,0,1-.4.246,2.565,2.565,0,0,1-.326.235c-.034,0-.057.023-.069.074a.086.086,0,0,0-.08.052.476.476,0,0,0-.12.08l-.04-.04a.058.058,0,0,0-.029.046v.057a.2.2,0,0,1-.149.086.006.006,0,0,0-.006-.006.342.342,0,0,1-.086.052l.006.052v.017c0,.011-.006.011-.011.011H36.5l-.011-.006.006-.034V-2.6a.334.334,0,0,0-.057.046c-.011.069-.029.1-.057.1-.057,0-.137.069-.246.212a2.16,2.16,0,0,0-.532.561.153.153,0,0,1-.08.063,2.891,2.891,0,0,0-.309.424H35.2v-.017a1.351,1.351,0,0,1,.166-.332,1.99,1.99,0,0,1,.246-.292,2.5,2.5,0,0,0,.275-.3c.023,0,.109-.092.263-.269-.029,0-.086.04-.189.12a3.353,3.353,0,0,0-.475.469h-.006v-.006c.172-.349.275-.555.315-.618.092-.246.223-.555.4-.922a5.219,5.219,0,0,0,.269-.664,6.779,6.779,0,0,0,.538-1.6L37-5.714A.651.651,0,0,0,36.595-5.948Zm-.029,1.065a.131.131,0,0,1,.04-.092.282.282,0,0,1-.029.1h-.011Zm-2.61.029h.011c0,.006,0,.011-.011.011Zm.893,3.623a1.775,1.775,0,0,1,.258-.532,1.76,1.76,0,0,1,.212-.429c.1-.235.206-.481.326-.744a8.437,8.437,0,0,1,.475-1.013c.052-.011.126-.155.235-.435s.177-.441.217-.441a2.731,2.731,0,0,0-.109.326l-.269.7q-.094.18-.275.618a2.338,2.338,0,0,0-.166.389c.006.006.006.023.011.052-.029,0-.057.029-.08.1.023.023.034.034.04.034s-.017.017-.057.029l.023.023v.006l-.006.029-.04-.029a.458.458,0,0,0-.063.132l.04.12v.006h-.029c-.006,0-.029.023-.063.074a.316.316,0,0,0-.006-.052c-.04.029-.057.046-.057.057a.236.236,0,0,1,.023.086c0,.029-.011.04-.029.04v-.052h-.006c-.006,0-.017.011-.029.034l.029.023c-.011.017-.017.029-.023.029h-.006v-.011H35.41v.011a1.361,1.361,0,0,1-.149.275.1.1,0,0,1,.034.057c-.006,0-.011,0-.023.011q-.009-.017-.017-.017h-.011c-.011,0-.017.011-.023.04s.017.023.052.029a.668.668,0,0,1-.1.166v-.023a.6.6,0,0,0,.046-.114l-.006-.011a.217.217,0,0,0-.086.143v.017a.091.091,0,0,0,.017.046c0,.023-.017.046-.046.074V-1.4h-.011a1.15,1.15,0,0,0-.183.349.348.348,0,0,0-.074.132v.006h.006l.046-.029.011.006c0,.057-.029.086-.074.086,0-.006.006-.023.011-.052h-.006L34.8-.883q-.086.155-.12.155c-.006,0-.006-.011-.011-.04h-.034q-.017.009-.017.017V-.74c0,.006.023.011.057.017,0,.029-.006.046-.029.046a.533.533,0,0,1-.149.3.592.592,0,0,1-.08.172c-.04.017-.063.034-.063.057V-.1l.006.011a.305.305,0,0,0-.092.126c0,.052-.08.149-.229.292C34.036.371,34.025.4,34,.4c0-.011-.006-.023-.029-.023L33.9.422a.234.234,0,0,1,.069-.143A.807.807,0,0,1,34.11.067q.069-.009.069-.017a.09.09,0,0,0-.023-.006V.027h.017a.044.044,0,0,0,.006.017c.029,0,.046-.023.069-.057,0-.011-.006-.023-.006-.046A.155.155,0,0,1,34.259-.1c.074-.052.114-.092.114-.126,0-.011-.006-.017-.023-.023s-.04.017-.074.046h-.006a.452.452,0,0,1,.137-.212c.074,0,.132-.057.166-.166-.052,0-.074-.006-.074-.011a.25.25,0,0,1,.092-.155,1.1,1.1,0,0,1,.223-.412v.006a.177.177,0,0,1-.006.052l.006.011c.069-.034.1-.074.1-.132v-.006l-.006-.011c-.029.006-.052.011-.057.011Zm-1-3.394c0-.023.006-.034.029-.04h.006v.011c-.023.029-.029.04-.029.046h-.006ZM33.389-3.31a.159.159,0,0,1,.04-.126,1.835,1.835,0,0,1,.074-.321.112.112,0,0,0,.04-.1.258.258,0,0,1,.052-.132c.006-.069.017-.1.023-.1a.563.563,0,0,1,.034-.114c.023-.069.046-.1.057-.1a.359.359,0,0,1,.092-.235.112.112,0,0,0,.006.04c-.029.092-.046.143-.046.149a.261.261,0,0,0-.046.132H33.71c-.006,0-.011,0-.011-.011a.012.012,0,0,0-.011.011v.006c0,.006.006.011.017.011a.281.281,0,0,1-.017.069.235.235,0,0,0-.04.1,1.178,1.178,0,0,0-.08.263.553.553,0,0,0-.069.235.807.807,0,0,0-.074.269l.006.011c-.011,0-.017.017-.029.046-.006.114-.017.172-.029.172a.021.021,0,0,0-.006-.017c.006-.034.011-.057.011-.069s0-.04-.006-.1a.091.091,0,0,1,.017-.046Zm2.879-1.042c0-.006,0-.011.011-.011v.029h-.011Zm-.412.052v.011h.006V-4.3Zm-.5.418c.011-.011.017-.023.029-.023a.852.852,0,0,1,.166-.212h.011c-.011.029-.023.046-.029.046-.057.143-.109.212-.155.212h-.017A.034.034,0,0,0,35.352-3.882Zm2.85.057a1.812,1.812,0,0,0-.406.137,2.057,2.057,0,0,0-.361.24.012.012,0,0,0,.011.011h.029c.029,0,.074-.034.155-.1l.189-.092a1.415,1.415,0,0,1,.263-.1c.137-.029.212-.046.212-.063V-3.8c0-.017-.029-.023-.08-.029Zm-4.871.217a.322.322,0,0,1,.069-.16v.04a1.112,1.112,0,0,1-.052.132ZM35.8-3.75c.006,0,.011,0,.011.011v.017a.021.021,0,0,0-.017.006v-.023Zm-.321.023a.181.181,0,0,0-.069.1c0,.011.006.017.011.017h.006c.034,0,.057-.029.063-.086A.081.081,0,0,0,35.478-3.727Zm.561.017c-.006,0-.011.011-.023.029l.017.029c.017-.011.023-.017.023-.023v-.017Q36.048-3.71,36.039-3.71Zm-.441.086v.011h.011v-.011Zm-.206.023a.012.012,0,0,0-.011.011v.006h.006c.011,0,.011,0,.011-.011V-3.6Zm-2.083.063c.011-.029.023-.046.029-.046h.006v.017c-.006.034-.017.052-.029.052A.034.034,0,0,0,33.309-3.539Zm2.41-.04h.006c.006,0,.011.011.017.023v.011C35.73-3.544,35.719-3.556,35.719-3.579Zm.269-.006a.112.112,0,0,0-.057.1.177.177,0,0,0-.046.132H35.9c0-.052.011-.074.034-.074s.063-.052.069-.155Zm2.066.017-.006.011v.023a.012.012,0,0,0,.011.011h.017c.017-.006.023-.017.023-.023S38.088-3.556,38.054-3.567Zm-2.69.011c-.006,0-.006.006-.011.011v.006h.011Zm.24.052c-.011,0-.011.006-.011.011v.023H35.6c.011-.011.023-.017.023-.023V-3.5Zm-.029.046c-.011,0-.017.011-.023.034,0,.006,0,.011.011.011s.017-.011.017-.017v-.017Zm-.3.011c-.006,0-.011.006-.017.023s.006.011.006.017h.017c0-.011,0-.017.006-.017v-.023Zm2.656,0-.023.023c0,.006.006.011.023.017s.017-.006.029-.023v-.006a.012.012,0,0,0-.011-.011Zm-.532.011c-.029,0-.063.023-.1.08l.006.011c.063-.006.1-.029.1-.069v-.011Zm.607.046c.011,0,.017-.006.029-.011v.011a.044.044,0,0,0-.017.006h-.011Zm-2.484.006-.029.006a1.074,1.074,0,0,1-.1.137q-.1.12-.1.155c0,.011,0,.017.006.017a.206.206,0,0,0,.1-.109.577.577,0,0,0,.137-.195Zm-.3.023c-.006,0-.017.011-.029.034v.006l.006.011c.017-.006.029-.011.029-.017v-.034Zm2.564,0-.023.017c.011.011.017.023.023.023H37.8c.006,0,.011-.011.017-.023s-.011-.017-.017-.017ZM35.4-3.338v.006h.011v-.006Zm.189.006a.042.042,0,0,0-.034.011c-.132.286-.195.441-.2.458v.023l.006.029h.011a.819.819,0,0,1,.137-.235.081.081,0,0,0-.011-.034v-.011a.968.968,0,0,0,.1-.206v-.023Zm1.666.006H37.23a3.2,3.2,0,0,0-.406.292,5.265,5.265,0,0,0-.641.6l.006.011a.107.107,0,0,0,.063-.023c.08-.114.137-.172.166-.172a.9.9,0,0,1,.229-.189.945.945,0,0,1,.155-.126A.422.422,0,0,1,36.835-3a.556.556,0,0,0,.258-.189,1.514,1.514,0,0,0,.172-.126C37.264-3.327,37.258-3.327,37.253-3.327Zm-4.018.166c0-.074.011-.114.023-.114l.006.04v.006a.279.279,0,0,1-.023.074h-.006Zm4.344-.017q.009-.017.017-.017h.029v.011q-.009.017-.017.017h-.029Zm-4.344.046h.006l.006.029V-3.1q-.009.017-.017.017V-3.1ZM35.77-3.1c-.017.006-.023.023-.023.052v.011h.011c.029-.023.046-.034.046-.046S35.8-3.1,35.793-3.1Zm-2.547.029h.006l.006.057a.45.45,0,0,1-.023.069h-.006v-.074A.239.239,0,0,1,33.223-3.069Zm2.736.011c.006,0,.006.006.011.023v.011a.061.061,0,0,1-.017-.029Zm-2.765.235c0-.006,0-.011.011-.011h.006v.006l-.006.011Zm2.095.1c-.017.017-.029.029-.029.034v.006a.076.076,0,0,0,.017.04c.017-.011.029-.017.034-.034C35.312-2.714,35.3-2.726,35.29-2.726Zm1.688.1c.011,0,.029-.017.046-.04h.017c-.023.034-.04.052-.057.052h-.006Zm-1.723,0c-.046.034-.063.057-.063.063s.011.029.04.029a.045.045,0,0,0,.029-.046v-.046Zm.441.132c0-.006.011-.017.034-.029h.006v.034c0,.006-.011.017-.034.029H35.7ZM35.209-2.5c-.04,0-.069.04-.086.126a.038.038,0,0,0,.023.04.206.206,0,0,0,.074-.132A.225.225,0,0,0,35.209-2.5Zm.349.149c-.023.006-.029.023-.029.046v.023h.006a.043.043,0,0,0,.029-.04v-.029Zm-.458.063-.029.006a.193.193,0,0,1-.046.109,1.3,1.3,0,0,0-.16.383.006.006,0,0,1,.006.006.171.171,0,0,0,.046-.023.421.421,0,0,1,.046-.137c.029-.006.052-.057.08-.155a.583.583,0,0,0,.074-.16v-.029Zm.5.029h.011v.029h-.017Zm-.189.24h.006q.017.009.017.017c0,.006-.006.011-.023.017Zm-.624.395q-.034.009-.034.017V-1.6a.052.052,0,0,1,.029.017h.011V-1.61Zm1.007.011h-.006a.2.2,0,0,0-.114.08v.006A.16.16,0,0,0,35.8-1.6Zm-1.065.057c-.006,0-.017.017-.029.04a.035.035,0,0,0,.017.034c.017-.011.029-.023.029-.029v-.006A.076.076,0,0,0,34.729-1.552Zm-.063.137a.059.059,0,0,0-.029.034.037.037,0,0,1,.011.029.045.045,0,0,0,.046-.029Zm.418.08h.006l-.029.046h-.006Zm-.469.006c-.017.006-.029.029-.04.069a.16.16,0,0,0-.052.109l.006.011a.154.154,0,0,0,.109-.143.308.308,0,0,0-.006-.046Zm-.126.229a.1.1,0,0,1-.017.04c.011.017.017.023.023.023H34.5c.006,0,.011-.011.023-.029A.039.039,0,0,0,34.5-1.1Zm.429.08h.006c.006,0,.011.006.017.023-.006,0-.006.006-.006.017a.044.044,0,0,0-.017-.006ZM34.437-1a.118.118,0,0,0-.046.086L34.4-.9c.057-.017.086-.04.086-.063A.044.044,0,0,0,34.437-1Zm.807.023q-.017.009-.017.017v.006c0,.006,0,.011.011.011a.012.012,0,0,0,.011-.011V-.963Zm-.9.189c-.046.006-.069.017-.069.04-.029.08-.063.12-.1.132-.023.074-.04.109-.057.109-.074.16-.12.24-.149.252a.394.394,0,0,1-.04.137V-.1c.063,0,.109-.057.137-.166A1.112,1.112,0,0,0,34.2-.482a.076.076,0,0,0-.017-.04V-.528a.43.43,0,0,0,.166-.258ZM35-.459c.034-.034.052-.057.057-.057,0,.029-.017.046-.052.057ZM34.265-.4a.071.071,0,0,1,.011-.017c.011,0,.011.006.011.011s-.006.011-.023.023ZM34.58-.4A.044.044,0,0,0,34.6-.408H34.6a.1.1,0,0,0-.017.04H34.58Zm.321.04c.017-.029.034-.04.04-.04h.006a.082.082,0,0,1-.034.04Zm-.5.017c-.006,0-.011,0-.011.011V-.3H34.4a.1.1,0,0,1,.011-.029A.012.012,0,0,0,34.4-.345Zm.114.086c0-.006.006-.011.023-.017a.044.044,0,0,0,.006.017l-.029.011Zm.206.052A.251.251,0,0,1,34.8-.27c-.017.04-.04.063-.069.063Zm-.275.052c0-.023.011-.04.04-.057l-.029.08h-.011Zm.217.017a.03.03,0,0,1,.034-.034H34.7C34.7-.167,34.689-.156,34.66-.139Zm-.9.383A.2.2,0,0,1,33.824.17c.04-.086.08-.132.114-.143,0,.034-.034.092-.109.166-.034.057-.052.086-.057.086a.012.012,0,0,1-.011-.011Zm.3-.034c-.017.011-.023.017-.023.023V.239l.011.017q.017-.009.017-.017V.222ZM33.7.371h.011V.4h-.017Zm-.446.641c.046-.109.086-.166.12-.166V.851a.129.129,0,0,1-.063.1C33.3.989,33.281,1.012,33.252,1.012Zm-.16.155c0-.023.04-.069.12-.132,0,.006-.011.029-.023.074-.057.034-.086.057-.086.08H33.1Z" transform="translate(1.282 11.55)" fill="#3963ac" stroke="#3963ac" stroke-width="0.5"/>
</svg>
