<svg xmlns="http://www.w3.org/2000/svg" width="37.41" height="14.5" viewBox="0 0 37.41 14.5">
  <path id="パス_310" data-name="パス 310" d="M7.968-10.786q-.381.048-.438.209c0,.006-.019.006-.057.006-.19,0-.3.057-.336.171,0,.063-.089.184-.267.355-.038.044-.286.4-.736,1.073a1.491,1.491,0,0,1-.152.235,5.008,5.008,0,0,0-.863,1.288c-.114.184-.267.425-.444.73a4.806,4.806,0,0,0-.33.482c-.2.343-.374.609-.5.793a4.823,4.823,0,0,1-.406.666c-.1.089-.146.159-.146.216l-.609.946c0,.025-.121.083-.355.165a16.445,16.445,0,0,0-1.879,1.1,1.993,1.993,0,0,0-.514.438,1.368,1.368,0,0,0-.2.558.2.2,0,0,0,.006.044c.108.159.184.235.235.235.044-.025.063-.051.063-.076a.444.444,0,0,1,.248-.216c.324-.114.482-.209.482-.286L.759-1.667a.233.233,0,0,0-.1.051H.657a.18.18,0,0,1-.083-.025L.632-1.7a10.536,10.536,0,0,1,1.295-.762c0,.006-.038.063-.1.165s-.209.3-.413.628c-.089.1-.14.165-.14.209C1.1-1.2.708-.626.118.269a2.749,2.749,0,0,0-.6,1.041v.013A.732.732,0,0,0-.415,1.5a.3.3,0,0,1-.057.159.1.1,0,0,0,.051.083H-.4a.338.338,0,0,1,.228-.121c.032.006.044.019.044.051v.006a.182.182,0,0,1-.044.089c0,.019.013.032.044.038.006,0,.013,0,.013-.006.127,0,.362-.19.692-.571Q.81.923,3.456-3.152a1.222,1.222,0,0,1,.235-.108,13.585,13.585,0,0,1,1.745-.476h.006a.836.836,0,0,0-.032.159v.063c0,.025.019.057.063.089a.116.116,0,0,0,.063-.038.426.426,0,0,1,.051-.2H5.6a.13.13,0,0,1,.057.063.829.829,0,0,0-.057.3v.076l.013.013c.006,0,.019-.013.038-.051.013-.114.032-.171.051-.171.013-.165.038-.241.063-.241H5.8v.019a.9.9,0,0,1-.006.121H5.8c.006,0,.019-.019.032-.051,0-.1.07-.159.209-.2.025.013.038.025.038.032v.025l-.1.476a1.817,1.817,0,0,0-.1.425,3.212,3.212,0,0,0-.121.838v.108l-.038-.006H5.722a.9.9,0,0,1-.044.267,2.849,2.849,0,0,1-.089.6.208.208,0,0,0,.057.1l-.032.159a1.352,1.352,0,0,0-.076.616c.006.2.013.336.013.425A.191.191,0,0,0,5.5.408a.683.683,0,0,0,.133.3V.751H5.614c-.051,0-.1-.032-.165-.1a.96.96,0,0,1-.273-.774V-.232A.555.555,0,0,1,5.2-.321V-.4L5.189-.436A1.065,1.065,0,0,0,5.208-.62c0-.07-.006-.108-.032-.108H5.163a.384.384,0,0,0-.083.267c0,.025.006.057.006.1s-.013.083-.013.1H5.043V-.29c0-.013.006-.019.013-.019a.328.328,0,0,0-.032-.121V-.461a1.212,1.212,0,0,1,.013-.127.2.2,0,0,1-.025-.076A.16.16,0,0,0,5.055-.74a1.192,1.192,0,0,0-.006-.121q.057-.381.057-.457v-.07L5.1-1.464a3.662,3.662,0,0,0,.07-.368.5.5,0,0,0,.057-.146.272.272,0,0,1-.019-.063.405.405,0,0,0,.032-.152l.076-.393a.108.108,0,0,0-.051-.1c-.013,0-.025.038-.044.108-.051.228-.114.647-.2,1.269L4.954-.4v.044c0,.019.006.051.013.1s0,.121-.006.235A1.317,1.317,0,0,0,5.075.44a1.131,1.131,0,0,0,.9.6h.076A.69.69,0,0,0,6.306,1,.959.959,0,0,0,6.89.542c-.006,0-.006,0-.006-.006a1.682,1.682,0,0,1-.692.241H6.16c-.311,0-.47-.279-.47-.838V-.112a13.9,13.9,0,0,1,.438-2.7c.1-.52.159-.85.2-1a.837.837,0,0,1,.438.089c.114.152.184.222.209.222a1.3,1.3,0,0,1-.121.374c0,.013.019.025.07.038A.063.063,0,0,1,6.959-3.1a.942.942,0,0,0,.222-.571,1.088,1.088,0,0,0-.114-.393,1.019,1.019,0,0,1-.209-.228.577.577,0,0,0-.336-.178v-.006l.038-.178.489-1.593.425-1.663c.051-.133.159-.508.33-1.13a12.926,12.926,0,0,0,.387-1.447.224.224,0,0,0-.114-.19c-.019-.07-.044-.108-.089-.108ZM6.433-8.527c.006-.063.032-.1.089-.1-.013.076-.038.108-.089.108Zm-.565.908c0-.019.006-.044.006-.063a3.779,3.779,0,0,1,.355-.539A.368.368,0,0,1,6.35-8.4h.032c0,.051-.038.114-.121.2a1.923,1.923,0,0,1-.267.438c-.044.108-.083.165-.121.165H5.868Zm.622-.26H6.5v.013c-.083.209-.121.317-.127.317a28.994,28.994,0,0,1-.736,3.091l-.374.083a11.541,11.541,0,0,0-1.187.292H4.059c.2-.3.419-.647.654-1.028.419-.628.635-.965.647-1A6.748,6.748,0,0,0,5.868-6.9C6.046-7.169,6.255-7.5,6.49-7.88Zm.52.374h.019v.025H7.016A.038.038,0,0,0,7.01-7.505ZM4.326-5.449c.063,0,.108-.038.14-.114a3.338,3.338,0,0,0,.343-.5c.057-.14.1-.2.127-.209a.9.9,0,0,1,.146-.241.823.823,0,0,1,.171-.209c.2-.336.324-.52.349-.558h.032a.048.048,0,0,0,.013.025,1.231,1.231,0,0,1-.216.413c-.083.2-.165.362-.241.508-.209.311-.317.476-.317.489H4.833l.038-.1V-5.97c0-.013-.006-.019-.013-.019a1.151,1.151,0,0,0-.171.248,1.5,1.5,0,0,0-.374.622l-.108.057a2.612,2.612,0,0,0-.279.451,2.539,2.539,0,0,0-.267.4v.006a.515.515,0,0,0,.089-.032c.076-.1.127-.152.159-.152h.025v.032c-.083.26-.184.387-.3.387,0-.006-.006-.006-.013-.006V-4c0-.032.006-.044.032-.057a.133.133,0,0,0-.025-.07.2.2,0,0,0-.051.013.848.848,0,0,1-.279.292c0-.006,0-.006-.006-.006A1,1,0,0,0,3.3-3.945v-.013l-.013-.019a.2.2,0,0,0-.051.006.863.863,0,0,1-.1.165c0,.025-.063.057-.184.1a4.407,4.407,0,0,1,.33-.5c.1-.2.152-.311.184-.311a.7.7,0,0,1,.2-.248.533.533,0,0,1,.083-.133.262.262,0,0,1-.025.108,2.5,2.5,0,0,0-.209.4.637.637,0,0,0-.2.349c0,.006,0,.013.013.013h.057a.141.141,0,0,0,.063-.127c0-.051.025-.083.083-.114v-.006l-.006-.038c.063-.057.1-.1.1-.108s.038-.063.121-.114a1.716,1.716,0,0,0,.209-.3V-4.84L3.939-4.9c.013,0,.019,0,.019-.006a.813.813,0,0,0,.216-.279V-5.2a.111.111,0,0,1-.038-.1H4.11c-.006,0-.019.019-.051.057-.051.089-.1.127-.159.127-.032.1-.057.152-.07.152H3.812l-.006-.057V-5.03a.11.11,0,0,1,.057-.089.284.284,0,0,0,.127-.152,1.915,1.915,0,0,1,.324-.482l.051.013v.051a.789.789,0,0,0-.1.133.473.473,0,0,1-.127.184c.006.038.019.051.032.051h.089c.019,0,.032-.044.032-.133ZM6.915-7.125c.006,0,.013.013.025.038-.051.241-.083.362-.108.362H6.82a.6.6,0,0,1,.038-.2.154.154,0,0,0-.025-.07h.006Q6.915-7.01,6.915-7.125Zm-.171.482c.019,0,.038.038.057.1v.019a.49.49,0,0,1-.063.178c-.025.267-.051.393-.083.393-.076.343-.159.66-.254.952-.032.241-.076.362-.14.362H6.249c-.063-.013-.089-.025-.089-.044v-.013a1.3,1.3,0,0,0,.038-.2A.014.014,0,0,0,6.185-4.9l-.044.038c-.032.152-.063.228-.076.228s-.025-.019-.032-.057a.136.136,0,0,1,.038-.083A1.2,1.2,0,0,1,6.128-5h.013c.044.006.063.019.063.032.038,0,.07-.063.1-.2,0-.032-.013-.051-.025-.051H6.236c-.025.063-.038.1-.044.1s-.006-.038-.006-.063a.063.063,0,0,1,.032-.044c.013-.108.032-.159.044-.159H6.28a.713.713,0,0,0,.025.152h.019v-.019a.887.887,0,0,1,.057-.216L6.369-5.5c-.032.025-.044.032-.051.032l-.006-.057c.006-.013.013-.019.025-.019.07-.013.108-.044.108-.1-.006,0-.013-.006-.019-.032L6.5-5.716A.654.654,0,0,0,6.5-5.8a.591.591,0,0,1,.051-.19.59.59,0,0,1,.171-.362v-.07c-.025-.032-.044-.051-.044-.051A.781.781,0,0,1,6.744-6.642ZM6.4-5.849a.224.224,0,0,0,.038.006l-.006.013v.051L6.4-5.786Zm-.3.457a.031.031,0,0,0,.019.006v.006l-.006.019c-.006,0-.013-.006-.013-.019Zm-.14.419h.006c.013,0,.032.038.057.127-.07.044-.1.07-.1.076a.13.13,0,0,1-.051-.051A.8.8,0,0,0,5.957-4.973Zm-.133.222H5.9l.013.057v.063c-.013.019-.019.025-.025.025H5.842c-.013,0-.025-.025-.032-.083v-.025Zm-.6.5.013-.038a.95.95,0,0,0,.292-.083c.025.025.038.038.038.044s-.006.013-.032.025L5.5-4.32a.705.705,0,0,1-.267.063Zm-.267.1c0-.063.063-.114.2-.146a.051.051,0,0,1,.038.057.437.437,0,0,0-.228.089Zm1.149-.032c0-.032.121-.051.355-.076H6.49a1.129,1.129,0,0,1,.216.051.5.5,0,0,1,.248.3.069.069,0,0,1-.044-.019.754.754,0,0,0-.279-.152H6.61a.094.094,0,0,0-.044.006.415.415,0,0,1-.121.063A1.518,1.518,0,0,1,6.109-4.186Zm-.736-.032h.006v.013H5.373ZM4.8-4.167a.473.473,0,0,1,.121-.044h.006q-.057.076-.1.076a.2.2,0,0,0,.013.076L4.8-4.053a.161.161,0,0,1-.044-.013L4.8-4.116Zm-.2.083a.323.323,0,0,1,.146-.1v.032a.821.821,0,0,0-.121.159l.032.083V-3.9a4.841,4.841,0,0,1-.463.146.238.238,0,0,0-.051-.006v-.044l.171-.044c0,.006,0,.006.006.006h.025a1.572,1.572,0,0,0,.178-.083.058.058,0,0,1,.032.019l.038-.006v-.044a.217.217,0,0,0-.159-.1H4.408A.065.065,0,0,0,4.376-4a.414.414,0,0,0-.184.133l-.07-.044c-.006,0-.019.019-.032.057H4.084a.078.078,0,0,0-.025-.057c-.013,0-.019.019-.032.063s-.057.076-.165.1H3.85v-.006a.939.939,0,0,1,.089-.133,1.024,1.024,0,0,1,.413-.2C4.491-4.091,4.573-4.085,4.6-4.085Zm.533.032h.006q0-.048.419-.114l-.032.14A.809.809,0,0,1,5.4-4.034a1.363,1.363,0,0,1-.286.044H5.113A.014.014,0,0,1,5.1-4a1.342,1.342,0,0,0-.222.044H4.871V-3.97l.006-.057a.594.594,0,0,0,.19-.063Zm-.406.083h.013v.013H4.725Zm-.038.063c.006-.019.019-.025.025-.025h.013v.025Zm1.1.451c-.025,0-.038.038-.044.114l.006.013q.057,0,.057-.114A.014.014,0,0,0,5.8-3.456Zm-.362.038L5.4-3.393a1.52,1.52,0,0,0-.1.489v.019c0,.083.013.127.025.127h.006a.7.7,0,0,1,.057-.1.414.414,0,0,1-.013-.07A.11.11,0,0,1,5.411-3v-.07a1.32,1.32,0,0,1,.038-.267l-.006-.083Zm.324.171c-.032,0-.044.025-.044.07a.419.419,0,0,1-.038.171v.013H5.7c.019-.013.032-.019.032-.032v-.057a.662.662,0,0,0,.032-.108v-.044Zm-.2.146v.032l.013.019c.019-.006.025-.013.025-.019v-.013C5.589-3.095,5.582-3.1,5.57-3.1Zm.121.159a.26.26,0,0,0-.057.178c0,.013.019.038.063.07h.025a.046.046,0,0,0,.025-.044v-.019c0-.006-.019-.019-.057-.051l.038-.1Q5.687-2.942,5.677-2.942Zm-.146.063-.051.032a.114.114,0,0,0,.025.057c.013,0,.025-.025.032-.07Zm-2.78.121c0-.006.013-.013.051-.025.057-.044.1-.07.121-.07h.006v.044l-.006.044c-.063.07-.121.133-.171.2a.872.872,0,0,1-.178.343c-.032,0-.063.051-.089.152a3.316,3.316,0,0,0-.241.413,1.227,1.227,0,0,0-.165.178.779.779,0,0,1-.14.228c-.089.121-.393.59-.927,1.422A4.465,4.465,0,0,0,.727.6c-.133.108-.2.2-.2.286A.354.354,0,0,0,.4,1.043c-.063.057-.1.089-.1.1a.175.175,0,0,1-.2.146c0-.038.013-.063.032-.07a.37.37,0,0,0,.1-.2C.239,1,.588.466,1.3-.582V-.588l-.114.013a.121.121,0,0,1-.063-.032.048.048,0,0,0-.032.013C.918-.372.708-.048.448.364a2.282,2.282,0,0,1-.5.622c-.083.133-.14.2-.178.2H-.244C-.079.846.036.669.093.65L.454.085C.943-.7,1.286-1.21,1.489-1.464c.108-.184.336-.539.685-1.06,0-.07.07-.127.209-.184a.37.37,0,0,1,.089.019v.025c-.019,0-.038.019-.063.057v.032a.7.7,0,0,0,.1-.057c.057-.083.1-.127.121-.127h.006a.18.18,0,0,1-.089.152c-.051.133-.1.2-.127.2a.07.07,0,0,1-.038-.019H2.371l.013.057v.019a.9.9,0,0,0-.146.241l.006.013c.032-.013.051-.025.051-.032a1.941,1.941,0,0,0,.279-.393c.063,0,.127-.063.184-.19A.238.238,0,0,1,2.752-2.758Zm2.627.292v.051a.364.364,0,0,1-.006.076L5.4-2.3a.063.063,0,0,1-.044.032V-2.27c-.006,0-.013.006-.013.019v.032c.006,0,.032-.006.089-.019a.179.179,0,0,1,.07-.146c-.063-.057-.1-.083-.1-.083Zm-3.135.1c-.025,0-.038.019-.044.051a.23.23,0,0,0,.07.019A.006.006,0,0,1,2.276-2.3Zm-.057.1a.067.067,0,0,0-.032.057l.013.019c.044-.006.07-.019.07-.032v-.044Zm3.192.089c-.032.013-.057.07-.089.178-.019.216-.044.324-.07.324a.944.944,0,0,0,.013.146.078.078,0,0,0-.013.044.318.318,0,0,0,.019.089h.013c.006,0,.019-.032.044-.1a1.331,1.331,0,0,1,.083-.387.483.483,0,0,1-.006-.089v-.044A.191.191,0,0,1,5.411-2.1.176.176,0,0,0,5.379-2.174Zm-3.148.152c-.051,0-.089.051-.108.146a2.471,2.471,0,0,0-.184.248c-.019.057-.083.083-.178.083l-.038-.025a.084.084,0,0,0-.019.044c-.089.07-.133.127-.133.165l.006.019c-.044.006-.063.019-.063.032,0,.032.019.051.051.07h.019A.123.123,0,0,0,1.66-1.28v.013c0,.032-.006.044-.019.044l-.07.038V-1.1a1.094,1.094,0,0,0-.2.324V-.74h.025c0-.025.07-.108.2-.235a.135.135,0,0,1,.1-.133,1.135,1.135,0,0,1,.159-.311c.076,0,.127-.07.146-.222a.558.558,0,0,0,.133-.178A.547.547,0,0,0,2.238-2,.048.048,0,0,0,2.231-2.022Zm3.211.2c0,.006-.006.032-.013.063,0,.051.019.083.051.083a.014.014,0,0,1,.013-.013c-.019-.089-.032-.133-.044-.133Zm-3.6.127c-.032,0-.051.013-.057.032a.09.09,0,0,0,.051.076c.019-.019.032-.025.032-.038v-.051A.017.017,0,0,0,1.851-1.7Zm-.209.324c0-.006.025-.025.083-.063h.044a.3.3,0,0,1-.063.152A.434.434,0,0,1,1.635-1.375Zm3.6.013a.251.251,0,0,0-.032.044.8.8,0,0,1-.044.286c0,.019.006.032.032.044a.069.069,0,0,0,.044-.019.987.987,0,0,0-.006-.127,1.186,1.186,0,0,1,.044-.184v-.019c-.013-.013-.019-.025-.025-.025Zm.159.044c-.013,0-.019,0-.019.013V-1.3A.017.017,0,0,0,5.4-1.28c.006,0,.013-.006.013-.019v-.019Zm.083,0a.069.069,0,0,0-.044.032.469.469,0,0,0,.038.127h.006c.025,0,.032-.038.032-.121V-1.3C5.512-1.305,5.506-1.311,5.481-1.318Zm0,.241c-.013,0-.019.013-.019.044v.063l.006.019c.019,0,.025-.038.032-.114C5.493-1.064,5.487-1.07,5.481-1.077ZM1.33-.95A.039.039,0,0,1,1.3-.937a.1.1,0,0,0,.019.051c.025-.006.038-.013.038-.025V-.918C1.349-.937,1.337-.95,1.33-.95Zm-.248.6c0-.044.013-.07.019-.07a.506.506,0,0,1-.006.07ZM5.468-.34c-.019,0-.025.032-.025.089v.063A.211.211,0,0,0,5.5-.029h.006V-.036Q5.506-.34,5.468-.34ZM.124.859C.124.846.137.84.156.834S.169.84.175.859.169.872.162.884L.124.872ZM13.671-12.2c-.286,0-.584.324-.876.977-.089.216-.368.965-.831,2.253Q10.5-4.891,9.672-2.371A7.087,7.087,0,0,0,9.3-1.216a.326.326,0,0,0,.063.19.5.5,0,0,0,.406.216Q9.9-.829,9.9-.848c.057,0,.146-.165.26-.482a3.007,3.007,0,0,1,.6-.8c1.136-1.155,2.012-1.726,2.627-1.726h.006a.337.337,0,0,1,.374.387,1.521,1.521,0,0,1-.1.5,2.87,2.87,0,0,1-.286.647c-.4.2-.635.324-.711.374h-.006v-.006l.019-.032V-2h-.013c-.013,0-.019,0-.019.006-.076.013-.114.038-.114.07a.107.107,0,0,0,.013.032v.006q-.352.228-.666.457c-.774.571-1.168,1-1.168,1.3,0,.019.006.044.006.083.083.2.273.3.59.3a2.092,2.092,0,0,0,.317-.044,2.868,2.868,0,0,0,.92-.622,9.676,9.676,0,0,0,.914-.895,2.559,2.559,0,0,0,.558-.939,3.49,3.49,0,0,1,.825-.127h.006q.228,0,.381.3c.019.083.051.127.1.127s.057-.025.057-.076a.529.529,0,0,0-.216-.451,1.219,1.219,0,0,0-.654-.222.909.909,0,0,0-.387.063h-.006a2.947,2.947,0,0,0,.044-.482,1.644,1.644,0,0,0-.235-.914,1.262,1.262,0,0,0-.958-.52h-.051a2.626,2.626,0,0,0-1.688,1.015c-.406.457-.647.723-.723.806H10.5c.222-.616.33-.927.33-.933a1.566,1.566,0,0,1,.279-.52c.165-.184.3-.349.425-.508a14.686,14.686,0,0,0,1.314-2.145,16.163,16.163,0,0,0,.895-2.2,10.552,10.552,0,0,0,.47-2.4,1.185,1.185,0,0,0-.1-.539.486.486,0,0,0-.4-.235Zm.127.692c0-.057.013-.1.044-.114a.427.427,0,0,1,.025.152c-.051.635-.1.952-.165.952H13.7v-.025c.07-.482.1-.781.1-.882ZM11.7-5.919H11.69c.457-1.4.7-2.158.749-2.266.222-.723.457-1.409.711-2.056a4.347,4.347,0,0,1,.514-1.1v.114a6.364,6.364,0,0,1-.324,1.549,4.371,4.371,0,0,1-.254.869c-.083.2-.127.33-.152.4-.063.165-.349.781-.85,1.847a1.812,1.812,0,0,1-.235.413Q11.754-5.919,11.7-5.919ZM13.15-11.04c.025-.044.044-.063.063-.063v.044c0,.025-.019.044-.044.063A.084.084,0,0,1,13.15-11.04Zm-.216-.013c.013-.019.019-.032.025-.032a.225.225,0,0,0,.006.044l-.032-.006Zm-.044.381.025-.006a1.094,1.094,0,0,0,.178-.209v.019a.322.322,0,0,1-.013.057.913.913,0,0,0-.121.241.028.028,0,0,1,.006.019.126.126,0,0,1,.063-.013.144.144,0,0,1-.019.083q-.048.248-.1.248a1.907,1.907,0,0,1-.178.47.923.923,0,0,1-.133.324c-.178.476-.3.85-.387,1.111-.006.083-.025.121-.051.121-.025.063-.083.235-.165.52A3.88,3.88,0,0,0,11.754-7l-.121.343a.1.1,0,0,0,.057.019c0,.006-.019.019-.057.051-.032,0-.1.184-.2.546a.832.832,0,0,1-.14.355c0,.019.013.032.044.044l-.019.057a.122.122,0,0,1-.089.121.132.132,0,0,1-.038-.063.54.54,0,0,0,.044-.1.23.23,0,0,0-.019-.07h-.006a1.526,1.526,0,0,0-.1.273l.006.013a.124.124,0,0,0,.044-.006.127.127,0,0,1,.051.019l-.114.349H11.05a.264.264,0,0,0,.051-.1.122.122,0,0,0-.032-.07.146.146,0,0,0-.057.019l.006.038c-.006.032-.038.044-.083.044s-.063.038-.1.121c-.057.121-.1.178-.146.178h-.013a3.4,3.4,0,0,0,.127-.324c.292-.971.647-2.024,1.066-3.173.393-1.085.666-1.8.831-2.139h.006c0,.044,0,.07.006.07l.051-.038c.032-.083.057-.121.063-.121l.038.025a.154.154,0,0,0,.051-.07A.217.217,0,0,0,12.89-10.672Zm-.1-.038a.014.014,0,0,1,.013.013.166.166,0,0,1-.057.146V-10.6A.223.223,0,0,1,12.788-10.71Zm.888.228h.006l.032.025a1.359,1.359,0,0,1-.07.228h-.013A2.367,2.367,0,0,1,13.677-10.482Zm-1.028.267a.554.554,0,0,0-.032.083h.006a.083.083,0,0,0,.038-.076v-.006Zm-.083.171-.006.032a.014.014,0,0,0,.013.013l.019-.013-.006-.032Zm1.015.07h.006a.038.038,0,0,0,.006.025,1.275,1.275,0,0,1-.1.362,3.938,3.938,0,0,1-.133.482,4.218,4.218,0,0,1-.26.635c-.1.248-.159.368-.184.368-.013.127-.032.184-.051.184H12.82v-.006a2.856,2.856,0,0,1,.235-.565,7.659,7.659,0,0,1,.3-.793A6.718,6.718,0,0,1,13.582-9.974ZM12.509-9.9l-.019.013a.053.053,0,0,0,.025.044c.006,0,.019-.013.025-.032s-.019-.025-.025-.025Zm-.044.121c-.013,0-.013.006-.013.013v.019c.006.019.019.025.025.025l.013-.006C12.477-9.758,12.471-9.777,12.465-9.777Zm-.032.539a1.946,1.946,0,0,0-.165.444v.006h.013a1.289,1.289,0,0,0,.165-.444v-.006Zm1.13.178a.048.048,0,0,1,.038-.051l-.032.083h-.006Zm-1.282.324a.042.042,0,0,0-.044.025v.025h.025c.006,0,.013-.019.025-.044A.006.006,0,0,1,12.281-8.737Zm-.063.159-.044.013a1.323,1.323,0,0,1-.063.19v.006c.038,0,.07-.07.108-.2Zm1.034.381a.386.386,0,0,1,.14-.3H13.4c-.07.209-.114.317-.146.317Zm-1.142-.146a1.182,1.182,0,0,0-.14.393c-.127.336-.2.539-.216.6q-.162.5-.209.59a1.976,1.976,0,0,1-.14.419,2.38,2.38,0,0,0-.159.514c0,.006,0,.013.013.025s.019-.025.044-.076q.619-1.818.647-1.885a5.141,5.141,0,0,1,.178-.552Zm1.117.228a.089.089,0,0,1,.019-.032l.006.038V-8.1c-.006-.006-.013-.006-.025-.006Zm-.451.254h.063l.013.006a.17.17,0,0,0-.032.07c-.032-.019-.044-.032-.044-.038Zm-.083.241c.025-.044.038-.07.044-.07h.006v.025a.04.04,0,0,1-.044.044Zm.286.032a.09.09,0,0,1,.038-.076c.006,0,.013.013.025.038s-.006.019-.013.019.006.025.013.057h-.063Zm-.019.07h.006a.038.038,0,0,1,.019.038v.006h-.013c-.006,0-.013,0-.013-.013Zm-.127.26a.115.115,0,0,1,.089-.114v.051c0,.025-.025.057-.083.1h-.006Zm-.933-.1h.006a.038.038,0,0,1,.019.038v.006h-.013a.014.014,0,0,1-.013-.013Zm.711.584a.186.186,0,0,1,.051-.121.648.648,0,0,1,.133-.235H12.8a.176.176,0,0,1-.032.076,1.638,1.638,0,0,1-.152.33h-.006Zm-.235.444h.006a.038.038,0,0,1,.019.038v.013h-.013a.014.014,0,0,1-.013-.013Zm-1.117.051c-.006,0-.019.013-.032.038v.006h.006c.006,0,.013-.013.032-.038v-.006Zm-.159.888a.307.307,0,0,0-.051.108v.006h.013c.044,0,.063-.019.063-.051S11.113-5.392,11.1-5.392Zm1.092,1.58a.77.77,0,0,1,.248-.171.214.214,0,0,1,.165-.076v.006a2.23,2.23,0,0,1-.406.241ZM9.552-1.5A.271.271,0,0,1,9.6-1.641a12.374,12.374,0,0,1,.489-1.65.863.863,0,0,1,.2-.432h.006c-.057.241-.146.533-.26.876A.573.573,0,0,1,10-2.669h.032c.006,0,.013,0,.013-.006s.019.013.032.038a.06.06,0,0,1-.038.044h-.013Q10-2.6,10-2.612c-.019,0-.032.013-.044.038a.049.049,0,0,1,.006.019c.038.013.057.019.057.025V-2.5a.483.483,0,0,1-.006.089c0,.019-.044.051-.133.089a.3.3,0,0,0,.044.1l-.032.108a.107.107,0,0,0-.032-.013v-.019l-.032-.019a.006.006,0,0,1-.006.006.469.469,0,0,1,.013.076l-.006.013L9.8-2.073H9.793q-.019,0-.019.038v.013a.06.06,0,0,0,.038.051h.006V-1.99h.038c-.013.051-.025.076-.025.083q-.019.114-.076.114l-.013-.032c.006,0,.013-.006.019-.006v-.013L9.742-1.87c-.032,0-.051.07-.07.2-.044.14-.076.222-.108.241l-.013-.044Zm.838-1.853a.325.325,0,0,1,.044-.108c.013-.1.032-.14.063-.14H10.5l-.1.254H10.4Zm1.1.159c0-.032.013-.044.032-.044.063-.051.1-.076.108-.076h.006A.26.26,0,0,1,11.487-3.19ZM9.964-2.073c0-.032.006-.051.006-.076s.044-.152.127-.419c.07-.165.133-.343.19-.514q.067-.209.1-.209h.006a.5.5,0,0,1-.1.267A3.136,3.136,0,0,1,9.964-2.073ZM13.848-2.6h.006a.158.158,0,0,1,.032.044.035.035,0,0,1-.038-.025Zm.482.248.032-.006v.013c0,.006-.006.013-.032.019Zm-4.468.089c-.019.013-.025.019-.025.025v.013l.019.032c.019,0,.032-.006.038-.032a.046.046,0,0,0-.025-.038Zm3.376.1a.668.668,0,0,1,.057-.051H13.3v.006c-.019.044-.038.063-.044.063S13.239-2.162,13.239-2.168Zm-.793.444a.434.434,0,0,0,.121-.051.146.146,0,0,1,.108-.076A1.852,1.852,0,0,1,12.858-2a.421.421,0,0,1,.254-.076l.07-.089h.013l.019.013a.006.006,0,0,1-.006.006l-.025.14-.108-.025H13c-.006,0-.013.013-.019.044-.051.044-.076.083-.076.1a.177.177,0,0,1-.063-.006c-.013,0-.013.006-.013.013l.006.032-.044-.032-.013.006.019.063V-1.8l-.165.089c-.025-.006-.038-.013-.044-.013V-1.73l.032-.051c-.006,0-.006,0-.006-.006a.445.445,0,0,0-.127.076.112.112,0,0,1-.038-.006Zm.451-.114A.331.331,0,0,1,13.03-1.9c.063-.051.1-.076.114-.076h.006c-.044.038-.063.057-.063.063a.626.626,0,0,1-.178.076H12.9Zm-1.58,1.4a.231.231,0,0,1,.057-.114,6.377,6.377,0,0,1,.654-.578,11.233,11.233,0,0,1,1.041-.736h.006a2.658,2.658,0,0,1-.317.381,6.335,6.335,0,0,1-.819.749,1.051,1.051,0,0,1-.578.324h-.025c-.013-.013-.019-.013-.019-.019ZM12.5-1.622c.025-.032.038-.044.038-.044q0,.057-.038.057ZM12.338-.8V-.8q0-.038.171-.171a3.22,3.22,0,0,1,.444-.425h.006l-.044.14a.107.107,0,0,1,.019.063l-.063.063h-.006a.153.153,0,0,0-.019-.051.154.154,0,0,0-.07.025A1.754,1.754,0,0,1,12.338-.8Zm.641-.514h.038l.006.032h-.038Zm-.419.476a.048.048,0,0,0,.006-.025c0-.032.063-.089.178-.171a.306.306,0,0,0,.051-.076h.032V-1.1a1.22,1.22,0,0,1-.133.171A.125.125,0,0,1,12.56-.835Zm-.99.673a.4.4,0,0,1,.083-.089.539.539,0,0,0,.2-.165c.063-.032.1-.057.1-.07a1.949,1.949,0,0,1,.374-.292c0,.019-.032.057-.089.121-.032.076-.076.114-.127.114a1.488,1.488,0,0,0-.209.19c0,.019.019.038.051.063v.006l-.184.076c-.032.032-.057.051-.07.051H11.57ZM12.3-.6h.006a1.7,1.7,0,0,1-.159.178q-.019-.01-.019-.019Zm-.413.292a.144.144,0,0,0-.127.057v.013h.032A.152.152,0,0,0,11.9-.3.014.014,0,0,0,11.887-.309Zm5.9-.1a1.914,1.914,0,0,0,1.066-.457,4.536,4.536,0,0,0,.7-.628,2.879,2.879,0,0,0,.9-1.707c.07-.025.2-.057.374-.1a2.853,2.853,0,0,0,.743-.26q0-.01-.038-.019a.2.2,0,0,1-.146.057,1.343,1.343,0,0,1-.3.083.12.12,0,0,1-.051-.013q.124-.067.59-.248a.459.459,0,0,0,.235-.07q.228-.048.228-.076l-.076-.006-.013.032a.1.1,0,0,1-.051-.019.457.457,0,0,1-.165.051.2.2,0,0,1-.114.038l-.019-.013a.878.878,0,0,1-.2.044.437.437,0,0,1-.083-.013c-.006,0-.013,0-.013.013,0,.051-.076.089-.228.108a1.135,1.135,0,0,1-.3.07.224.224,0,0,1-.089-.019l.006-.019a.108.108,0,0,0,.063-.038l-.006-.006c-.076.006-.216.025-.419.063l-.044-.089a2.069,2.069,0,0,0-.406-.533,1.524,1.524,0,0,0-.584-.374l.013-.025q.171-.143.171-.228a.336.336,0,0,0-.07-.171.47.47,0,0,0-.336-.133h-.044a1.27,1.27,0,0,0-.774.419A5.13,5.13,0,0,0,17.754-4a3.072,3.072,0,0,0-.584,1.257.088.088,0,0,0,.032.057.24.24,0,0,1-.07.2l-.013-.152h-.013l-.006.044a3.67,3.67,0,0,0-.209,1.047,1.046,1.046,0,0,0,.381.895A.707.707,0,0,0,17.786-.4Zm-.171-3.084-.025-.006v-.038c0-.006.038-.076.108-.2a2.4,2.4,0,0,1,.413-.622c.121-.171.216-.279.3-.3a.185.185,0,0,0-.032.063c-.057.057-.267.343-.628.844A1.222,1.222,0,0,1,17.615-3.488Zm1.491-.933h-.013V-4.44H19.1Zm.3.977a.728.728,0,0,1-.406-.1c-.114-.025-.171-.127-.171-.311,0-.133.025-.2.07-.2a.04.04,0,0,1,.032.038h.013V-4.04a.309.309,0,0,1,.006-.076c-.006,0-.019.006-.038.025-.006,0-.013-.006-.019-.025.044-.121.083-.178.127-.178l.006.044h.006a.189.189,0,0,1,.089-.032c.121,0,.286.108.5.324a1.26,1.26,0,0,1,.317.47A3.73,3.73,0,0,1,19.4-3.444Zm-.413-.14a1.184,1.184,0,0,1-.057-.387h-.013a.5.5,0,0,0-.013.14.5.5,0,0,0,.013.165c.025,0,.051.025.057.083Zm3.2-.292c.07-.006.108-.025.108-.063,0-.006-.019-.019-.051-.025s-.057.032-.063.083Zm-.083-.006c.006,0,.013-.006.013-.019s-.006-.013-.013-.019-.013.006-.013.019S22.1-3.882,22.108-3.882Zm.051.038a.038.038,0,0,0,.038-.019l-.07-.019a.014.014,0,0,0-.013.013C22.121-3.85,22.133-3.844,22.159-3.844Zm-1.085.178.013-.006a.014.014,0,0,0-.013-.013h-.025C21.054-3.672,21.061-3.666,21.073-3.666Zm-.1.032L21-3.64v-.013l-.013-.019c-.019.006-.025.013-.025.032ZM17.805-.88l-.19-.013a1.943,1.943,0,0,1-.083-.457A2.2,2.2,0,0,1,17.7-2.1a9.776,9.776,0,0,1,.393-1,4.036,4.036,0,0,1,.324-.558.868.868,0,0,0,.063.171.963.963,0,0,0,.958.457,2.354,2.354,0,0,0,.47-.044,1.9,1.9,0,0,1-.374.8,3.918,3.918,0,0,0-.286.4.006.006,0,0,1,.006.006l.057-.019a1.623,1.623,0,0,1,.171-.152c.044.006.063.019.063.038q.048,0,.076-.076A3.889,3.889,0,0,0,20.115-3.1c0-.013.044-.025.121-.038h.006V-3.1a3.537,3.537,0,0,1-.254.685c-.089.114-.159.216-.222.3-.07.063-.1.114-.1.165-.044.013-.063.025-.063.038l.044.025v.006a.025.025,0,0,0-.013.025l-.019-.006c-.019,0-.025,0-.025.006-.063,0-.1.057-.121.178l-.076-.006a1.346,1.346,0,0,0-.089.133c-.051.025-.07.044-.07.07l.038.057a.248.248,0,0,0-.089-.013c-.146.076-.222.14-.222.19l.019.083a.163.163,0,0,0-.083-.057c-.013,0-.025.038-.044.121-.025-.019-.038-.032-.044-.032h-.076c.152-.171.235-.267.241-.279.07-.051.1-.089.1-.133-.019,0-.051.019-.1.063-.3.279-.514.419-.635.419A2.063,2.063,0,0,1,17.805-.88ZM20.87-3.621v-.006l-.025-.006a.006.006,0,0,1-.006.006C20.839-3.621,20.851-3.621,20.87-3.621Zm.749.044.044-.006c0-.006,0-.013-.013-.019l-.038.013Zm-1.51.07H20.1l.006-.019Zm.311.013q.01-.019.019-.019Q20.429-3.494,20.42-3.494Zm-2.646.438v-.083c0-.006.013-.013.044-.032C17.818-3.095,17.8-3.057,17.773-3.057Zm-.26.508H17.5a.457.457,0,0,0,.051-.171h.07l-.006.044C17.6-2.593,17.57-2.549,17.513-2.549Zm-.241.73a.1.1,0,0,0-.019-.038,1.154,1.154,0,0,1,.07-.267c.032-.159.057-.241.083-.241a.64.64,0,0,1,.013.121.049.049,0,0,0-.044.051c0,.006.006.025.013.07l-.025.089C17.361-1.914,17.329-1.844,17.272-1.819Zm.171-.235.006-.063c.019.019.032.025.038.025v.013Zm.013.159a.154.154,0,0,1-.083-.025.371.371,0,0,0,.083-.089Zm1.618.349a.225.225,0,0,0,.1-.038c.184-.152.279-.286.279-.4h-.006l-.089.108a.128.128,0,0,1-.127.108.251.251,0,0,1-.044-.032.87.87,0,0,0-.121.171Zm-1.656-.267v-.051h.006l.006.032C17.431-1.819,17.424-1.813,17.418-1.813Zm-.121.59a.312.312,0,0,1-.019-.076c.019-.152.032-.248.032-.273.025-.089.044-.146.044-.159l-.006-.038a.265.265,0,0,1,.057-.019,1.081,1.081,0,0,1-.019.235C17.367-1.33,17.342-1.223,17.3-1.223Zm-.121.228a.484.484,0,0,1-.1-.336,1.909,1.909,0,0,1,.051-.387c.07,0,.1.032.1.089s-.019.241-.057.539c.006.044.013.07.025.07C17.2-1.007,17.183-.994,17.177-.994Zm1.745-.114c-.019-.006-.025-.013-.025-.025l.038.006a.023.023,0,0,1,.019-.006v.013C18.941-1.121,18.935-1.115,18.922-1.108Zm-.2.14V-.988c0-.032.019-.044.063-.044A.057.057,0,0,1,18.719-.969Zm-1.333.051h-.025l.006-.1h.019Zm9.8-4.316-.019.006c-.108.057-.159.114-.159.152a1.246,1.246,0,0,0-.1.133c-.013.1-.019.152-.032.152a1.093,1.093,0,0,1-.1.3v.025l.006.013c-.006,0-.013.019-.019.07-.044.025-.063.051-.063.057a.094.094,0,0,0,.013.057l-.051.07v.025l.006.013c.025-.006.044-.013.044-.032h.006v.019a.947.947,0,0,1-.159.324c-.019.07-.038.1-.057.1a1.02,1.02,0,0,1-.121.2c-.032.1-.057.146-.07.152a.618.618,0,0,0-.063.1A.243.243,0,0,1,26.2-3.2a1.521,1.521,0,0,1-.165.248.572.572,0,0,1-.127.2.763.763,0,0,1-.14.222c-.051.083-.1.127-.114.127a.1.1,0,0,1,.025-.063V-2.5a.12.12,0,0,1-.057.025.39.39,0,0,0-.083.114.1.1,0,0,0,.019.038.183.183,0,0,0,.083-.057h.006v.013a.628.628,0,0,1-.083.121h-.013v-.044a.014.014,0,0,0-.013-.013h-.006l-.019.013V-2.3h-.006c-.044.063-.089.121-.133.178a2.93,2.93,0,0,1-.558.647c-.279.324-.482.482-.622.482h-.006A.108.108,0,0,1,24.142-1c-.1-.044-.14-.178-.14-.406v-.057A5.887,5.887,0,0,1,24.11-2.4a7.323,7.323,0,0,1,.3-1.06,9.52,9.52,0,0,1,.406-1.073,1.371,1.371,0,0,0,.14-.4v-.006a.234.234,0,0,0-.013-.083.351.351,0,0,0-.311-.209.7.7,0,0,0-.387.108c-.025,0-.083.108-.165.324l-.209.5c-.051.2-.1.393-.146.565a7.277,7.277,0,0,0-.482,2.082V-1.6c0,.051,0,.076.006.076a1.081,1.081,0,0,0,.343.666,1.1,1.1,0,0,0,.723.311h.019a.556.556,0,0,0,.3-.133.78.78,0,0,0,.279-.178,4.7,4.7,0,0,0,.609-.679v-.013a1.375,1.375,0,0,0-.184.184,1.23,1.23,0,0,0-.2.19c0,.044-.07.07-.2.076V-1.1a1.3,1.3,0,0,0,.2-.159,4.642,4.642,0,0,0,.508-.533,10.429,10.429,0,0,0,.73-1.066h.006v.006a1.041,1.041,0,0,0-.063.413,1.1,1.1,0,0,0,.1.482.894.894,0,0,0,.876.508H27.3a1.823,1.823,0,0,0,.965-.3c.1-.083.14-.133.14-.152a1.156,1.156,0,0,0,.292-.317c0-.006,0-.013-.013-.013a.286.286,0,0,0-.057-.108c.006-.032.013-.044.013-.051a.014.014,0,0,0-.013-.013.114.114,0,0,0-.057.025.567.567,0,0,1-.159.165L28.4-2.219l.006-.025c.063-.051.1-.1.1-.127v-.013h-.013a.118.118,0,0,0-.063.032,2.074,2.074,0,0,1-.343.279c-.013.025-.038.032-.083.032q0,.029-.114.076c-.114.013-.171.032-.171.044l.019.032c0,.006-.025.025-.083.057a.954.954,0,0,1-.3-.044.479.479,0,0,1-.311-.5v-.07a1.032,1.032,0,0,1,.076-.368.176.176,0,0,1-.006-.051,3.846,3.846,0,0,0,.114-.457c.152-.47.228-.711.228-.717a2.262,2.262,0,0,0,.133-.482v-.006l-.032-.26v-.063a.2.2,0,0,1,.032-.07c0-.006,0-.013-.013-.025l-.019.013h-.013c-.063-.089-.108-.14-.133-.14-.025.025-.038.038-.044.038s-.013-.013-.025-.044l.013-.019c-.019-.063-.032-.1-.051-.1H27.3c-.038.006-.063.013-.07.013H27.22A.124.124,0,0,0,27.188-5.233Zm.171.336c0-.006.013-.019.044-.032l.013.006c0,.006-.019.019-.051.025Zm-.07.527h.025c.006,0,.013,0,.013.006v.025l-.006.038a.205.205,0,0,1-.063.14v.032l.032.032-.057.038c0,.006.006.013.006.025-.013.044-.025.063-.038.063a.83.83,0,0,1-.057.178,1.175,1.175,0,0,0-.07.241v.013l.006.013a.049.049,0,0,0,.019-.006h.006V-3.5a.554.554,0,0,1-.032.083c-.013,0-.013-.013-.013-.032h-.019a.485.485,0,0,1-.032.1.29.29,0,0,1-.032.1v.013c0,.013.006.013.013.013l.019-.013c.006-.07.019-.1.044-.1a.049.049,0,0,0,.006.019c-.006.019-.013.032-.019.032-.013.07-.063.273-.159.6l-.025-.025a.313.313,0,0,0,.019-.1l-.013-.019h-.006a2,2,0,0,0-.07.3c0,.006,0,.013.013.013s.032-.044.044-.121v-.019h.013v.051a.288.288,0,0,1-.025.114A.048.048,0,0,1,26.8-2.5h-.006l-.025.013a.363.363,0,0,1-.063.216c.013.089.025.146.025.159a.277.277,0,0,1-.044.133l-.013-.006a.341.341,0,0,0-.057-.165.041.041,0,0,0-.032.013.864.864,0,0,0,.006.1c-.038,0-.057-.038-.057-.108a.436.436,0,0,0,.019-.159.329.329,0,0,0-.019-.032.274.274,0,0,0,.025-.089c0-.025-.006-.044-.019-.044a.952.952,0,0,0-.057.292l.006.032-.013.038h-.006c0-.006,0-.013-.013-.025a.519.519,0,0,0,.006-.089.392.392,0,0,0-.013-.114.553.553,0,0,0,.013-.127.151.151,0,0,0-.019-.1v-.006a.118.118,0,0,0,.044-.013.357.357,0,0,1,.044-.146l-.019-.025-.013.006c-.006.044-.013.07-.025.07h-.025a.179.179,0,0,0-.006-.051.17.17,0,0,1,.051-.1H26.5c0,.013.006.019.013.019a.114.114,0,0,0,.044-.1,1.636,1.636,0,0,0,.063-.209,1.011,1.011,0,0,0,.076-.2l.083-.108v.006l-.032.165v.006c0,.013,0,.013.013.013h.006l.013-.006-.006-.025c0-.013,0-.013.013-.013h.006l.032.006q.057-.019.057-.057a.413.413,0,0,0,.057-.165A.5.5,0,0,0,27-3.621l-.006-.006a.8.8,0,0,0,.057-.171.53.53,0,0,0,.063-.2c0-.019.025-.044.076-.089v-.006c0-.013,0-.019-.006-.025Zm-.267.07.013.006c-.013.063-.025.1-.032.1a.321.321,0,0,1-.032.121.05.05,0,0,1-.025-.025c.013,0,.025-.038.038-.108A.239.239,0,0,0,27.023-4.3Zm-2.684.171a.014.014,0,0,1,.013.013h-.013Zm2.259.038q-.019.01-.019.019v.006q.01.019.019.019h.013q.019-.01.019-.019C26.63-4.078,26.617-4.085,26.6-4.091Zm.171.565.051-.19c.038-.032.051-.1.051-.2.032-.1.057-.146.076-.146v.019L26.934-4v.044a.124.124,0,0,1-.006.051c-.038.1-.063.171-.089.241-.006.057-.019.083-.032.083v.032c0,.044-.013.063-.019.063h-.013l-.006-.032Zm-.273-.4a.077.077,0,0,1-.038.063v.006c.013.019.019.025.025.025a.105.105,0,0,0,.032-.083v-.013Zm-2.253.013.013.006c-.013.044-.032.07-.044.07A.105.105,0,0,1,24.243-3.913Zm2.209.121h-.013c-.013.038-.032.083-.051.127,0,.006.006.013.006.019h.019l.006-.038c.032-.032.051-.057.051-.076v-.013Q26.461-3.793,26.452-3.793Zm.723.025h.006v.013h-.006Zm-2.323,2.64v-.006c.051-.057.108-.121.165-.2a1.658,1.658,0,0,1,.2-.279.526.526,0,0,1,.1-.14,1.229,1.229,0,0,1,.19-.241.425.425,0,0,1,.165-.26,3.4,3.4,0,0,1,.273-.413c.07-.133.108-.2.108-.2a1.682,1.682,0,0,1,.133-.216c.057-.121.1-.184.114-.184.051-.108.1-.19.133-.248a1.14,1.14,0,0,1,.165-.248,4.485,4.485,0,0,1-.1.476,2.541,2.541,0,0,0-.273.425,3.5,3.5,0,0,1-.489.825,4.312,4.312,0,0,1-.882.908Zm-.692-2.621h.006a.2.2,0,0,0,.006.051c-.044.146-.07.222-.083.222-.013.076-.025.114-.032.114v-.013H24.04v.025a.023.023,0,0,1,.019.006.112.112,0,0,0-.006.038A.7.7,0,0,0,24-3.158a1.227,1.227,0,0,0-.089.292.993.993,0,0,0-.1.33.893.893,0,0,0-.07.3,1.085,1.085,0,0,0-.051.273h-.013a.233.233,0,0,1,.013-.1c-.006-.006-.006-.013-.006-.025v-.1l.019-.063V-2.3a.176.176,0,0,1,.006-.057.63.63,0,0,0,.051-.171l.044-.209a.2.2,0,0,1,.063-.127v-.019A.7.7,0,0,1,23.882-3a.373.373,0,0,0,.063-.159V-3.2a.1.1,0,0,0,.032-.07c.038-.133.07-.2.089-.2A.582.582,0,0,1,24.161-3.748Zm2.177.178c-.019.013-.025.019-.025.025v.006q.01.019.019.019h.013c.006,0,.013,0,.013-.013v-.025c0-.006-.006-.006-.013-.013Zm.5.324h-.032c-.025.076-.038.108-.044.108,0-.032-.006-.051-.013-.051h-.013c-.013,0-.019.019-.025.051a.023.023,0,0,0,.019.006c.006,0,.019.019.044.063-.019.057-.032.089-.044.089h-.006L26.7-3c.013-.051.025-.083.025-.1v-.019h-.013a.417.417,0,0,0-.051.152l.013.019.013-.006h.032q.019.01.019.019v.006a.109.109,0,0,0-.013.051v.013h.019a1.2,1.2,0,0,0,.1-.381Zm-.749.083c-.006,0-.006.006-.013.013l.006.013.019-.013C26.1-3.158,26.1-3.164,26.09-3.164Zm.869.013c-.013,0-.025.025-.032.07.006,0,.006,0,.006.006.019-.006.032-.019.032-.025v-.038Zm2.354.019L29.187-3q-.038.114-.076.114v.013c.006.032.019.044.025.044h.006c.013,0,.025-.013.032-.044a1.66,1.66,0,0,0,.152-.241C29.327-3.126,29.32-3.133,29.314-3.133Zm-3.275.051v.019h.013v-.019Zm.5.07.013.006-.006.032h-.013a.023.023,0,0,0-.006-.019Zm-.533,0L25.989-3a.3.3,0,0,1-.063.108v.025c.019,0,.051-.038.089-.127v-.019Zm.673.083h-.019a.476.476,0,0,0-.044.127v.044h.006a.208.208,0,0,0,.057-.165Zm.209.032c-.006,0-.013.013-.025.032l.013.006a.079.079,0,0,0,.019-.013V-2.9Zm-3.18.057h.006l.006.032-.057.178h-.019v-.006A.477.477,0,0,1,23.71-2.841Zm5.375,0h-.013a1.015,1.015,0,0,1-.209.235l-.057.032v.032h-.038a.06.06,0,0,0-.051.038.014.014,0,0,0,.013.013h.032c.006.044.013.063.019.063h.032a.275.275,0,0,1,.089-.127.081.081,0,0,1,.083-.063c.025,0,.044-.025.063-.083l.07-.063A.154.154,0,0,0,29.086-2.841Zm-2.374.019a.014.014,0,0,0-.013.013V-2.8l.013.019v.013c-.038.006-.057.051-.057.127q0,.01-.038.019l-.025-.019h-.006a.057.057,0,0,0-.032.051.014.014,0,0,0,.013.013h.013l.019-.013c.019,0,.051.019.083.07h.006q.019-.01.019-.019v-.025c0-.019-.006-.038-.006-.057s.006-.019.006-.025a.107.107,0,0,0-.013-.032c.019,0,.032-.044.032-.133C26.725-2.815,26.718-2.815,26.712-2.822Zm-.825.006a.136.136,0,0,0-.057.083.534.534,0,0,0-.114.171l.006.013A.857.857,0,0,0,25.9-2.79V-2.8C25.9-2.809,25.893-2.809,25.887-2.815Zm3,.019-.013.006.006.013.013-.006Zm-.038.051v.006l.006.013a.014.014,0,0,0,.013-.013v-.006Zm-2.228.038c-.019.006-.032.013-.032.019a.014.014,0,0,0,.013.013h.025v-.019Zm-3,.14c0-.025.006-.038.025-.044h.006v.025a.088.088,0,0,1-.032.057Zm2.932.006v.006l.006.013.013-.006a.014.014,0,0,0-.013-.013Zm.241.14a.049.049,0,0,1,.019-.044v.025l-.006.032C26.795-2.409,26.795-2.409,26.795-2.422Zm1.872-.051c-.006,0-.013.013-.019.025a.023.023,0,0,0,.006.019c.019-.013.025-.025.025-.032s0-.006-.006-.013Zm-2.031.013q-.019.01-.019.019V-2.4a.977.977,0,0,0-.019.1c0,.006.006.013.013.025a.144.144,0,0,0,.051-.121v-.051q-.01-.019-.019-.019Zm-.5.013-.013.006a.429.429,0,0,1-.076.121.079.079,0,0,0,.013.019h.006a.463.463,0,0,1,.076-.121v-.013ZM28.73-2.4c-.006,0-.006.006-.013.013v.006c0,.013.006.013.013.013s.013,0,.013-.013V-2.39C28.743-2.4,28.743-2.4,28.73-2.4Zm-.216.152c.038-.044.063-.07.083-.07.013.019.025.032.025.038s-.013.006-.013.025.013.013.051.025v.025c0,.006-.025.025-.063.07h-.051c0-.013,0-.019.006-.025l.044-.032v-.038l-.006-.013-.063.019a.014.014,0,0,1-.013-.013ZM26.63-2.257c-.013,0-.025.019-.032.057v.006a.014.014,0,0,0,.013.013h.006c.006,0,.013-.025.019-.07C26.63-2.251,26.63-2.251,26.63-2.257Zm-3.091.013h.013l.013.044a.515.515,0,0,1-.032.089h-.006v-.006C23.526-2.143,23.533-2.187,23.539-2.244Zm1.9.146v-.013a.372.372,0,0,1,.089-.121h.006A.213.213,0,0,1,25.443-2.1Zm2.881-.07h.019c0,.006-.006.013-.006.019h-.013Zm-4.8.089q.019.01.019.019c0,.025-.006.038-.025.044A.2.2,0,0,0,23.52-2.079Zm1.872.006h.025a.152.152,0,0,1-.051.1H25.36V-1.99A.091.091,0,0,0,25.392-2.073Zm.5.006c-.006,0-.013.013-.025.038s.006.013.013.013.025-.019.025-.025v-.013C25.9-2.06,25.893-2.06,25.887-2.067ZM23.507-2h.006l.013.063a.4.4,0,0,1-.025.083h-.006l-.006-.032v-.019A.313.313,0,0,1,23.507-2Zm3.091.032a.023.023,0,0,0,.019-.006c0,.013,0,.019.006.025s-.006.006-.006.019H26.6L26.6-1.965Zm-.774-.006v.013h.013v-.013Zm1.022.013c.013,0,.019.019.019.063a.322.322,0,0,1,.057.159c-.038,0-.063-.063-.076-.2Zm-1.536.044a.043.043,0,0,1,.025-.038h.006v.019c0,.006-.006.013-.032.025Zm2.57.108c.006-.025.057-.051.146-.076a.349.349,0,0,1,.121-.044h.006v.019c-.006,0-.025.006-.051.013a.908.908,0,0,1-.2.1.048.048,0,0,0-.025-.006Zm-1.257-.1c.019,0,.051.025.1.083v.025q-.01.019-.019.019H26.68q-.019-.01-.057-.114Zm-.882.057-.019.013a.014.014,0,0,0,.013.013h.006c.013,0,.013-.006.013-.013S25.754-1.857,25.741-1.857Zm2.431.019h.019v.006h-.019Zm-.051.025h.013v.006h-.013Zm-2.45.07a.315.315,0,0,0-.1.121c.038,0,.07-.038.108-.121Zm-2.2.032c0-.006.006-.006.013-.013h.006v.013Zm3.465-.006h.013a.048.048,0,0,0,.013.025v.006l-.025-.006Zm-.127.006q.019.01.019.019a.028.028,0,0,1-.019.006h-.006V-1.7Zm7.1-9.024a.79.79,0,0,0-.552.2,2.61,2.61,0,0,0-.438.965c-.222.736-.4,1.282-.52,1.631-.032.006-.216.032-.565.076a13.638,13.638,0,0,0-1.955.355,2.443,2.443,0,0,0-.546.2.183.183,0,0,0-.076.121.563.563,0,0,0-.07.121v.19l.013.019.044-.006h.013l.013.006c0,.025-.006.063-.013.121.025.051.051.083.089.083s.083-.044.178-.127q0-.048.381-.133c.032,0,.076.006.121.006s.083-.013.083-.019a1.588,1.588,0,0,0,.273-.057.558.558,0,0,0,.114.013.02.02,0,0,0,.013-.006.153.153,0,0,1,.121-.076c.013,0,.057,0,.133.006A.8.8,0,0,0,30.9-7.1a3.3,3.3,0,0,0,.489-.083q.286-.019.286-.1L31.627-7.3a.443.443,0,0,0-.1.051.041.041,0,0,1-.032-.013,1.294,1.294,0,0,0-.336.057h-.019a.66.66,0,0,1-.1-.013.544.544,0,0,0-.216.076.686.686,0,0,0-.3.057,1.349,1.349,0,0,0-.178-.038c-.019.013-.032.019-.032.025a2.853,2.853,0,0,0-.381.108A.322.322,0,0,1,29.85-7,.028.028,0,0,0,29.831-7a.492.492,0,0,0-.152.07.561.561,0,0,0-.209.044c-.025-.013-.044-.032-.044-.044s.038-.051.114-.083a.343.343,0,0,0,.1-.051c.006,0,.013.006.019.006a.09.09,0,0,0,.038-.013.137.137,0,0,1,.121-.076c.006,0,.019.013.032.038h.038c.006-.044.013-.063.032-.063h.006c.006.038.019.057.025.057h.038a.469.469,0,0,1,.127-.038.176.176,0,0,0,.057.006h.019c.019,0,.025,0,.032-.006a.233.233,0,0,0,.133-.076h.006a.142.142,0,0,1,.063.019c.121-.013.184-.032.184-.057.019,0,.044.006.076.006a.127.127,0,0,0,.051-.019.066.066,0,0,0,.025.006.744.744,0,0,1,.19-.032c.006,0,.025-.013.057-.044a.127.127,0,0,0,.051.019c.057,0,.083-.025.083-.076,0-.013-.006-.013-.013-.013h-.006l-.032.025h-.013c-.006,0-.019-.019-.038-.051a.176.176,0,0,0,.076-.032q.114-.01.114-.038h.019a.244.244,0,0,1,.07.057.017.017,0,0,0,.019-.019c0-.013.025-.025.076-.044,0-.006-.013-.019-.044-.032.006,0,.019-.006.051-.013.057.019.089.032.1.032l.108-.032c.032.006.044.019.044.038h.013q.019-.01.019-.019a.165.165,0,0,1,.07.019.172.172,0,0,0,.051-.019v-.019L31.8-7.569v-.013l.044-.006h.089a.563.563,0,0,0,.152-.038h.006a.09.09,0,0,1,.076.038c.038-.006.063-.013.07-.013a.179.179,0,0,1,.051.006q0,.019-.057.038a.238.238,0,0,1-.051-.006l-.032.032h-.019q-.228.01-.228.038v.006c0,.006,0,.013.013.013h.038c.038,0,.133-.019.292-.044h.019a5.648,5.648,0,0,1-.222.635c-.222.73-.425,1.377-.609,1.948-.146.571-.267.99-.355,1.25a6.735,6.735,0,0,1-.184.749,8.024,8.024,0,0,0-.216,1.491v.165a1.266,1.266,0,0,0,.076.451.627.627,0,0,0,.609.432h.083a1.444,1.444,0,0,0,.336-.051,2.829,2.829,0,0,0,1.1-.622.7.7,0,0,0,.184-.26l-.006-.013a.049.049,0,0,1-.019.006c-.121.133-.2.2-.235.2h-.006c0-.006.006-.025.013-.051a1.161,1.161,0,0,0,.235-.216c.1-.114.235-.273.4-.482.063-.1.114-.146.146-.146.013-.051.025-.083.038-.083a.687.687,0,0,0,.171-.228,1.1,1.1,0,0,0,.248-.425c.057-.152.089-.235.089-.248a.014.014,0,0,0-.013-.013c-.038,0-.076.044-.127.133-.044.07-.184.279-.419.635h-.006a.219.219,0,0,0-.057.006h-.006c.044-.057.063-.089.063-.108-.013,0-.032-.013-.044-.044q.076-.029.076-.038v-.006c-.013,0-.032-.013-.063-.038-.006,0-.032.019-.07.063V-2.4c0,.006.006.019.032.038v.006c0,.006-.019.013-.044.013a.31.31,0,0,1-.057.1v.006a.047.047,0,0,0,.013.038l-.006.032c0,.006-.07.076-.2.209a2.149,2.149,0,0,1-.2.222,1.228,1.228,0,0,1-.444.4c-.006,0-.013-.006-.019-.025a.072.072,0,0,0-.063.057,1.147,1.147,0,0,1-.7.432A.371.371,0,0,1,31.646-.9c-.121-.07-.178-.222-.178-.457v-.1a4.123,4.123,0,0,1,.076-.647.5.5,0,0,1,.083-.343c.273-.489.539-1.047.812-1.669.336-.749.508-1.136.508-1.161q.162-.381.267-.685a8.574,8.574,0,0,0,.343-.908c.063-.14.127-.343.209-.6,0,0,.006,0,.019.013h.025a.038.038,0,0,0,.038-.019V-7.48l-.019-.025c-.032,0-.051.013-.051.038h-.006v-.006l.051-.121c.051,0,.076.006.076.013a.368.368,0,0,1,.2.038v.006l-.044.006h-.089l-.013.006c.013.032.025.051.032.051h.006a.528.528,0,0,1,.089-.025.068.068,0,0,1,.044.013l-.025.025v.013l.032.006a.755.755,0,0,1,.108-.019l.032.006h.07a.417.417,0,0,0,.083-.019c.127.019.286.032.482.044a.271.271,0,0,1,.121.057c.006,0,.025-.013.057-.025a.176.176,0,0,0,.083.038h.006a.146.146,0,0,0,.057-.019c.267.038.482.076.647.108.057,0,.083-.006.089-.013l.222.057h.044c.133-.025.2-.089.2-.184v-.044a.61.61,0,0,0-.33-.476A3.062,3.062,0,0,0,34.794-8.1h-.26c-.165,0-.349.006-.565.019.146-.457.267-.863.355-1.206a6.85,6.85,0,0,0,.171-1.041v-.044a.243.243,0,0,0-.032-.121.336.336,0,0,1-.083.038h-.006c-.025,0-.038-.038-.038-.1a.081.081,0,0,0-.083-.089l-.013.006a.028.028,0,0,1-.019-.006.384.384,0,0,0-.051-.083h-.006c-.006,0-.013.013-.025.032l-.013-.006a.294.294,0,0,0-.178-.038Zm-.121,2.672a6.3,6.3,0,0,0,.19-.641,7,7,0,0,0,.3-1.314c.019-.171.051-.254.083-.254h.013l.006.076v.057a4,4,0,0,1-.133.825,9.349,9.349,0,0,1-.336,1.244.948.948,0,0,1-.121.006Zm-.527.044c.038-.108.063-.165.063-.165a9.237,9.237,0,0,1,.451-1.2A1.279,1.279,0,0,1,34-9.828h.006V-9.8a.645.645,0,0,1-.044.159.778.778,0,0,1-.044.2c0,.006.006.013.006.019l-.019.1c-.057.216-.089.336-.089.355v.032l.006.013c.025-.019.038-.038.038-.051h.006c.006,0,.013,0,.013.013v.083a.132.132,0,0,1-.044.1c-.032.14-.051.209-.07.209l.006.032a.392.392,0,0,1-.025.1h-.006q-.019,0-.019-.038V-8.5c.019,0,.032-.006.032-.013v-.025a.09.09,0,0,0-.013-.038.227.227,0,0,0,.057-.165.014.014,0,0,0-.013-.013c-.019,0-.032.038-.044.108a.474.474,0,0,0-.057.209.39.39,0,0,1,.006.083v.083c-.006.038-.013.063-.025.063h-.006v-.013h-.013v.051l-.013-.006c-.006,0-.013,0-.013.013a.222.222,0,0,1,.013.063v.006l-.006.032a1.3,1.3,0,0,1-.355.038Zm.812-1.244h.006v.013a.881.881,0,0,1-.057.26c-.006,0-.013-.006-.019-.025l.025-.1A.783.783,0,0,0,34.077-9.263Zm-.133.5c.019-.108.038-.159.057-.159,0,.057-.013.089-.025.089-.013.063-.019.089-.032.089Zm-.019.038h.013v.038a.038.038,0,0,1-.019.038v-.032Zm-.127.152c0-.006,0-.013.013-.013v.019H33.8Zm-.1.2a.014.014,0,0,1,.013-.013l.006.032-.006.013a.014.014,0,0,1-.013-.013Zm.1.108a.146.146,0,0,1,.051-.114v.032a.16.16,0,0,0-.038.108H33.8Zm-.032.108h.006v.025h-.006Zm-.025.063h.006v.032h-.006Zm.2.114a.559.559,0,0,1,.133.038v.025l-.032.006h-.057l-.038.032h-.019l-.013-.006A.507.507,0,0,0,33.937-7.981Zm-.178.006s.025,0,.083.006a.143.143,0,0,0,.044-.006.508.508,0,0,0-.025.1h-.032a.213.213,0,0,0-.083-.044A.12.12,0,0,0,33.76-7.975Zm-.222.108c0-.063.019-.1.051-.1h.006a.439.439,0,0,1-.013.1l-.013-.006H33.55Zm-.3-.063a2.187,2.187,0,0,1,.3-.025h.006a.169.169,0,0,0-.051.108H33.43a.35.35,0,0,0-.133.032c-.019,0-.051-.006-.1-.006A.662.662,0,0,1,33.233-7.931Zm.984.038a.023.023,0,0,1,.006-.019.663.663,0,0,1,.184-.038.257.257,0,0,1,.108.032v.006a.394.394,0,0,0-.07.019h-.013l-.165-.025c-.006,0-.013.006-.013.025Zm-3.275.362c.006-.032.044-.051.114-.051.108-.038.165-.063.171-.063.152,0,.235-.013.235-.032l.2-.051a.882.882,0,0,0,.235-.051,1.019,1.019,0,0,0,.368-.057.342.342,0,0,1,.051.006l.044-.006h.006l-.044.108-.076-.006a.207.207,0,0,0-.083.025c-.1.013-.279.038-.546.083h-.114c-.019.013-.025.019-.025.025a1.068,1.068,0,0,0-.228.038l-.038-.006H31.2a.6.6,0,0,1-.241.038ZM34.3-7.664a.065.065,0,0,1,.032-.051h.006a.048.048,0,0,0,.013.025c-.013.025-.025.032-.032.032H34.3Zm-1.9.006h.013c.013,0,.013.006.013.013l-.013.019c-.006,0-.006,0-.013-.013Zm1.269.038c.019.019.032.025.038.025l.032-.006a.038.038,0,0,1,.025.006,1.338,1.338,0,0,1-.108.317,9.058,9.058,0,0,1-.324.895,8.053,8.053,0,0,1-.482,1.174,3.861,3.861,0,0,1-.178.451c-.1.184-.184.374-.267.565a1.7,1.7,0,0,0-.19.336c-.076.171-.133.267-.165.279a.006.006,0,0,0-.006-.006.614.614,0,0,1,.083-.152,2.459,2.459,0,0,1,.159-.362c.114-.286.184-.444.209-.489a1.312,1.312,0,0,1,.178-.387,1.927,1.927,0,0,1,.159-.406,4,4,0,0,1,.159-.387l.133-.355a.853.853,0,0,0,.114-.33c.089-.209.146-.368.178-.463a1.736,1.736,0,0,0,.121-.368A1.125,1.125,0,0,0,33.664-7.62Zm-.527.038c.133-.006.241-.013.336-.025h.013l-.006.013v.076c-.025,0-.038.013-.038.044H33.43c-.013,0-.013-.013-.013-.038h-.006c-.019.006-.025.019-.025.044v.032c.006.013.019.025.025.025a.262.262,0,0,1-.038.121.245.245,0,0,1-.07.2.589.589,0,0,1-.089.228l-.025-.019h-.013v.006l.006.038c-.006.019-.019.032-.025.032a.2.2,0,0,0,.025.057.084.084,0,0,1-.019.044l-.025-.013a.02.02,0,0,0-.013.006.718.718,0,0,0,.006.089.2.2,0,0,0-.038.114c-.025,0-.038,0-.038-.006,0,.013-.006.013-.013.013l.013.044v.083l-.006.044h-.013q-.019,0-.019-.038v-.019H33a.349.349,0,0,0-.044.121.055.055,0,0,0,.019.038.09.09,0,0,1-.013.038L32.947-6.2c-.013,0-.019.019-.032.051a.179.179,0,0,0,.006.051c-.006.013-.006.019-.013.019-.013.083-.032.121-.044.121a.014.014,0,0,1-.013-.013l-.013.006.006.032v.038l-.025-.032c-.019,0-.057.1-.114.292a.882.882,0,0,0-.108.254l-.076.171c-.152.33-.254.552-.292.666v.006l.006.044L32.224-4.5a.079.079,0,0,0-.019.013q-.029.076-.038.076a2.21,2.21,0,0,0-.2.413h-.006c.032-.121.171-.546.413-1.282.26-.831.489-1.536.679-2.1.019-.013.032-.025.032-.044a.014.014,0,0,0-.013-.013c.032-.1.051-.146.051-.152A.023.023,0,0,1,33.138-7.582Zm-2.469.063v-.006a.782.782,0,0,1,.152-.044h.013a.014.014,0,0,1,.013.013l-.006.013a.59.59,0,0,0-.133.038A.09.09,0,0,1,30.669-7.518Zm1.212-.051a.014.014,0,0,0-.013.013v.006a.023.023,0,0,1,.019.006c0-.006,0-.013.013-.013a.014.014,0,0,0-.013-.013Zm.927.051q.01-.019.019-.019V-7.5Q32.808-7.509,32.808-7.518Zm-.47.1c0-.013,0-.013.006-.013.006-.063.025-.1.051-.1v.013c.032.019.044.038.044.057A.86.86,0,0,0,32.338-7.417Zm.552-.063a.038.038,0,0,1,.019-.038h.013q.019.01.019.019v.019a.042.042,0,0,1-.025.044A.042.042,0,0,1,32.89-7.48Zm-1.1-.032a.383.383,0,0,1-.082.051c0,.006.013.013.032.019.063-.019.1-.025.1-.032S31.824-7.493,31.792-7.512Zm-.6.044c-.006,0-.013,0-.013.013l.006.013.038-.006v-.006a.014.014,0,0,0-.013-.013Zm.451.013c-.038.013-.076.019-.121.032v.013c.089-.006.127-.019.127-.032v-.013Zm1.656,0a.038.038,0,0,0-.038.019v.019H33.3q.019-.01.019-.019v-.006A.014.014,0,0,0,33.3-7.455Zm-.159.006-.025.006v.006c0,.006,0,.013.013.013h.013c.013,0,.013-.006.013-.013S33.157-7.448,33.144-7.448ZM30.9-7.417c.032.006.07.019.114.032v.013a.238.238,0,0,0-.108.032.216.216,0,0,0-.1-.025H30.8a.064.064,0,0,0-.07.057.171.171,0,0,1-.083-.044.177.177,0,0,1,.032-.051c.032.013.051.025.051.032A.1.1,0,0,1,30.79-7.4h.025l.032.019C30.878-7.4,30.9-7.4,30.9-7.417Zm1.771.025q0-.019.038-.019a.048.048,0,0,0,.006.025l-.025.013a.079.079,0,0,1-.019-.013ZM31.323-7.41a.006.006,0,0,0-.006.006c-.063.013-.1.025-.1.032v.013c0,.013,0,.013.013.013h.019l.057-.019c.013,0,.032.006.051.006l.019-.019C31.38-7.391,31.361-7.4,31.323-7.41Zm.159.013v.006h.013V-7.4Zm-1.587.051c0-.006.006-.013.025-.019s.013.013.019.025-.006.013-.013.013H29.92Zm.5-.019h.032v.013h-.019C30.4-7.353,30.4-7.353,30.4-7.366Zm2.323.044c0-.006.013-.019.044-.032q0,.067-.038.076l-.006-.032Zm-.647-.032A.358.358,0,0,0,32-7.328c0,.025.006.032.013.032h.044c.051,0,.07-.006.07-.019C32.1-7.34,32.091-7.353,32.072-7.353Zm-.114.006a.176.176,0,0,0-.076.032c.013.025.025.038.044.038s.019-.013.044-.051C31.957-7.334,31.957-7.34,31.957-7.347Zm-.425,2.729A.118.118,0,0,0,31.64-4.7a2.718,2.718,0,0,1,.1-.267.864.864,0,0,1,.038-.152c.178-.6.3-.965.355-1.1l.2-.6a1.368,1.368,0,0,0,.076-.228c.044-.19.089-.286.121-.286.006,0,.006.013.006.038a2.06,2.06,0,0,0-.07.235.487.487,0,0,0-.083.248,2.074,2.074,0,0,0-.089.286.564.564,0,0,0-.063.165.476.476,0,0,0-.044.127c-.038.121-.076.267-.127.444A.644.644,0,0,0,32-5.557a4.839,4.839,0,0,0-.26.812.257.257,0,0,0-.038.07l.006.038v.006a.34.34,0,0,0-.07.178c-.032.108-.057.178-.063.216s.013.051.025.051h.019c.006,0,.013-.013.019-.032s-.006-.038-.006-.057v-.006a.108.108,0,0,1,.051-.083c-.006-.025-.013-.044-.013-.051a1.033,1.033,0,0,0,.083-.2c.013-.108.032-.165.044-.165a.531.531,0,0,1,.057-.178c.019-.159.044-.235.083-.235l-.006-.076.063-.013-.019.025v.006A.389.389,0,0,0,32-5.208h.006a.1.1,0,0,0,.051-.019l-.006-.057a.046.046,0,0,1,.025-.044H32.1c.006,0,.013.006.019.013h.025q.019-.01.019-.019c-.013-.019-.019-.025-.025-.025h-.057a.286.286,0,0,0,.013-.089v-.013h-.025a.134.134,0,0,1-.051.038v-.032a.174.174,0,0,1,.025-.032c.025-.108.051-.165.083-.165a.24.24,0,0,0-.006-.051.124.124,0,0,1,.07-.108.375.375,0,0,1,.051.032l-.025.127-.019-.013h-.019a.014.014,0,0,0-.013.013v.013c.019.019.025.025.025.032V-5.6a.038.038,0,0,1-.019.038l-.038-.006a.107.107,0,0,1-.032.013v.025a.746.746,0,0,1,.1.07h.019c.013-.063.032-.1.044-.1h.032a.049.049,0,0,0,.006.019c-.013.057-.032.121-.057.2a1.218,1.218,0,0,1-.063.165h-.006c0-.019-.006-.025-.019-.025l.019-.025v-.013h-.044q0-.038-.019-.038H32.1q-.019.01-.019.019v.013a.544.544,0,0,1,.019.108v.006l-.057.038-.025.108c0,.013.013.025.038.032.013-.019.025-.032.032-.032s.006.013.006.019a.318.318,0,0,1-.019.089.29.29,0,0,1-.038-.025h-.006a.055.055,0,0,0-.038.019c0,.019.006.032.013.032h.057c0,.006.006.019.006.025a.6.6,0,0,1-.076.209,3.224,3.224,0,0,1-.133.451v.013q.01.019.019.019h.006l.025-.019v.019a.038.038,0,0,1-.019.038c-.032,0-.051.019-.063.063-.032.108-.051.165-.063.165h-.006c-.006,0-.019-.019-.044-.057H31.7a.139.139,0,0,1-.032.089c0,.006.006.013.006.019.057.013.083.025.083.038-.006.038-.013.063-.025.063H31.71c-.013,0-.013-.013-.019-.032h-.013a.108.108,0,0,1-.032.07v.013c.038.013.051.025.051.038a.271.271,0,0,0-.051.133v.038H31.64c-.044-.019-.063-.038-.063-.07v-.006a.646.646,0,0,1,.025-.1V-3.66a.014.014,0,0,0-.013-.013h-.006l-.051.051a1.514,1.514,0,0,1-.063.159.507.507,0,0,0-.057.222c0,.108-.013.171-.044.2v.025l.07.051.019-.013h.013a.193.193,0,0,1-.083.076l.006-.032-.006-.013c-.025,0-.051.063-.07.2a.693.693,0,0,1-.083.349.084.084,0,0,0,.019.044h-.006c-.032,0-.044.025-.051.076a.312.312,0,0,0,.019.076.226.226,0,0,0-.044.044.155.155,0,0,0,.006.044,1.428,1.428,0,0,1-.044.159v.006a.149.149,0,0,0,.076.146.1.1,0,0,0-.038.083.112.112,0,0,0-.1.121l.006.013a.269.269,0,0,0-.032.076v.006a.224.224,0,0,0,.025.108c.032.019.044.032.044.038-.038,0-.057.063-.07.178a.969.969,0,0,0,.006.114.7.7,0,0,0-.006.1.076.076,0,0,0,.025.051V-.88h-.006c-.032-.019-.044-.057-.044-.114v-.025c0-.006-.006-.013-.025-.019s-.019.019-.025.051q.019.086.019.1L30.967-.9c-.025,0-.051-.127-.083-.387a3.56,3.56,0,0,0,.038-.374,1.243,1.243,0,0,0-.013-.171.585.585,0,0,1,.032-.127s0-.051-.006-.152a.143.143,0,0,1,.032-.1.573.573,0,0,0,.063-.3A.082.082,0,0,0,31-2.581h-.006c-.019,0-.057.1-.108.3h-.006c-.006,0-.013-.013-.019-.044.006-.051.013-.083.019-.083.025-.2.044-.3.063-.3a1.359,1.359,0,0,1,.044-.3.6.6,0,0,1,.057-.209.987.987,0,0,1,.089-.33.916.916,0,0,1,.025-.146.82.82,0,0,0,.051-.241,4.147,4.147,0,0,0,.171-.609.309.309,0,0,0,.051-.152.291.291,0,0,0,.038-.1c.006-.032.07-.235.2-.609a.89.89,0,0,1,.089-.292,1.342,1.342,0,0,1,.057-.2,1.74,1.74,0,0,0,.1-.33.291.291,0,0,0,.083-.216,1.331,1.331,0,0,0,.108-.3.537.537,0,0,1,.1-.273c.051-.19.076-.286.1-.286h.038v.025a.084.084,0,0,0-.019.044v.057l-.044.051v.006l.032.032v.013h-.006l-.019-.013h-.006c-.006,0-.013,0-.013.013l.013.044a.06.06,0,0,1-.038.051,1.275,1.275,0,0,1-.038.171c-.025,0-.044.057-.051.171-.032.032-.051.051-.051.057s.006.013.006.025c-.025.089-.038.14-.038.14.019.019.025.032.032.032,0,.019-.013.044-.051.07a.738.738,0,0,0-.1.3c0,.013.006.019.032.019a.123.123,0,0,0-.051.1V-5.8c-.032,0-.063.057-.1.178v.019s.013.013.038.044v.019c-.032,0-.063.025-.089.076a.42.42,0,0,1,.006.07.309.309,0,0,0-.07.121l.013.019v.013c-.019.025-.038.044-.051.044-.013.07-.025.1-.038.1a.189.189,0,0,1-.032.127c-.019.089-.038.159-.051.216a.068.068,0,0,0,.013.051c0,.006-.019.019-.051.044C31.507-4.637,31.513-4.624,31.532-4.618ZM32.839-7.3a.053.053,0,0,1,.025-.044c.013,0,.013.006.013.013v.006c0,.032-.006.051-.025.057A.041.041,0,0,0,32.839-7.3Zm-3.11.013c0-.025.019-.044.051-.051h.063v.006c0,.013-.032.032-.089.051h-.013Zm.578-.051h.013v.006h-.013Zm1.485.019-.051.051.006.013a.628.628,0,0,0,.1-.006v-.006a.118.118,0,0,0-.044-.051Zm-1.8.057c0-.025.063-.044.2-.044h.025c0,.006-.006.013-.032.019l-.057-.006a.84.84,0,0,0-.114.044.028.028,0,0,0-.019-.006Zm-.184.019.083-.019c0,.006.006.006.025.006q0,.019-.038.019h-.07Zm-.374.152a.262.262,0,0,0,.044-.07,1.017,1.017,0,0,1,.279-.07h.019a.056.056,0,0,1-.057.051h-.051l-.051.044h-.063a.417.417,0,0,1-.114.057h-.006Zm3.249-.063h.006v.038c0,.006-.006.025-.013.057-.038-.013-.057-.019-.057-.025v-.013l.006-.013C32.662-7.118,32.681-7.137,32.681-7.15Zm.089.032c.019.006.025.013.025.019l-.019.025q-.019-.01-.019-.019V-7.1Zm-.451.038h.013v.006h-.013Zm.3.083c.006,0,.013,0,.013.006v.006C32.624-6.985,32.617-6.985,32.617-7Zm-.108.66c.013-.063.025-.1.032-.1a.249.249,0,0,1,.07-.209c.032-.165.063-.248.089-.248h.006l.006.032a.113.113,0,0,1-.025.063l-.1.324a.272.272,0,0,0-.063.146,3.557,3.557,0,0,1-.146.5c-.006,0-.025-.019-.051-.051v-.013c.019,0,.044-.019.063-.057a.946.946,0,0,1,.121-.362A.038.038,0,0,1,32.509-6.338Zm.051-.5a.035.035,0,0,1,.025-.038c.006,0,.006.006.013.019l-.019.063h-.013L32.56-6.82Zm.628.019a.014.014,0,0,1,.013-.013h.006V-6.8c0,.006,0,.013-.013.013S33.195-6.807,33.188-6.814Zm-.647.057c.006,0,.013.006.019.025s-.006.019-.013.019h-.019C32.528-6.718,32.535-6.731,32.541-6.757Zm.558.114q-.019.01-.019.019c0,.013,0,.013.013.013s.013-.006.019-.019S33.106-6.642,33.1-6.642Zm-.635.089c0-.013.013-.019.025-.025l.013.019v.006c0,.006-.006.013-.025.019A.078.078,0,0,1,32.465-6.553Zm.571.076a.014.014,0,0,0-.013.013v.025h.019v-.025Zm-.793.3h.032a.023.023,0,0,0,.006.019l-.032.127h-.006Zm.647.07v.019H32.9v-.019Zm-.025.057v.006h.013v-.006Zm-.6.1c.025-.057.044-.089.057-.089a.023.023,0,0,0,.006.019A.078.078,0,0,0,32.319-6v.076a.061.061,0,0,1-.044.057l-.025-.025h-.038l-.013.006a.09.09,0,0,0-.013-.038c.013-.025.025-.032.032-.032h.006Zm-.083.159v.019l.013-.006A.014.014,0,0,0,32.186-5.792Zm.127.013h.032a.014.014,0,0,1,.013.013v.013a.742.742,0,0,1-.063.171h-.006a.04.04,0,0,1-.032-.038A.434.434,0,0,0,32.313-5.779Zm-.5.19c-.006,0-.013,0-.013.013v.006h.019v-.019ZM32-5.36c0-.006,0-.013.006-.013v.019H32Zm-.216,0h.006v.013H31.78Zm.362.228c.013-.019.019-.025.025-.025v.006l-.013.038c-.006,0-.013,0-.013-.006Zm-.184.108a.045.045,0,0,0-.025.032c0,.006.006.013.025.019s.032-.013.032-.019v-.019a.014.014,0,0,0-.013-.013Zm-.057.178v.013c0,.006,0,.013.013.013a.014.014,0,0,0,.013-.013.014.014,0,0,0-.013-.013ZM32-4.8c-.019.006-.032.013-.032.025v.019c0,.006,0,.006.013.006H32q.019-.01.019-.019v-.013Q32.014-4.786,32-4.8Zm-.146.1v.006h.013V-4.7Zm-.013.076c-.006,0-.013.013-.025.038v.006h.006l.032-.006v-.006l-.006-.032Zm.057.019a.014.014,0,0,0-.013.013v.032c0,.006.013.019.032.025s.019-.013.025-.032a.014.014,0,0,0-.013-.013l.013-.019v-.006ZM31.57-4.6q-.019.01-.019.019v.013c0,.006.006.013.025.019s.013-.006.019-.025C31.583-4.592,31.576-4.6,31.57-4.6Zm.317.076a.014.014,0,0,0-.013.013V-4.5a.014.014,0,0,0,.013.013A.014.014,0,0,0,31.9-4.5v-.019Zm-.336.019a.048.048,0,0,0-.032.051h-.038a.069.069,0,0,0-.044.019.68.68,0,0,1-.038.146c.006.07.038.1.083.1.006,0,.019-.025.038-.07a.278.278,0,0,1,.044-.19v-.044A.014.014,0,0,0,31.551-4.5Zm.254,0c-.032,0-.051.019-.063.07v.025l.006.057a.229.229,0,0,0-.025.032v.038q.01.019.019.019h.013a.733.733,0,0,1,.083-.184A.088.088,0,0,0,31.8-4.5Zm0,.241a.014.014,0,0,0-.013.013v.006a.014.014,0,0,0,.013.013h.006v-.032Zm-.228.1c-.032.013-.044.044-.044.1a.915.915,0,0,0-.063.235.014.014,0,0,1,.013.013c.025-.013.038-.025.038-.044a1.187,1.187,0,0,1,.07-.254v-.032A.014.014,0,0,0,31.576-4.167Zm.083.089q-.019,0-.057.038c0,.038.006.063.025.063h.006c.013,0,.025-.025.044-.083,0-.013,0-.019-.013-.019Zm-.26.006a.126.126,0,0,0-.076.051v.006c.006.032.019.044.025.044s.013-.006.013-.019h.044A.079.079,0,0,0,31.424-4v-.051C31.424-4.059,31.418-4.066,31.4-4.072Zm.463.051h.006v.013h-.006Zm-.127.006c-.006,0-.013,0-.013.013V-4l.006.013c.025,0,.032-.006.032-.013S31.754-4.009,31.735-4.015Zm-.419.089c-.025.019-.044.076-.057.184a.713.713,0,0,0-.051.235c.006.057.019.083.038.083h.006c.013-.006.032-.051.051-.14l-.025-.044c0-.006.006-.013.013-.019.051-.038.07-.114.07-.235v-.013a.052.052,0,0,0-.032-.051Zm.146.159c-.019.013-.032.019-.032.025v.025l.013.019c.019-.013.032-.019.032-.025v-.006A.09.09,0,0,0,31.462-3.767Zm-.057.178q-.019.01-.019.019v.019c.013.019.019.025.025.025s.019-.013.019-.019v-.019C31.418-3.577,31.411-3.59,31.405-3.59Zm-.013.083h-.006c-.019,0-.032.038-.044.114v.019a.014.014,0,0,0,.013.013h.013a.513.513,0,0,0,.032-.133Zm.165.063c.051,0,.07.019.07.057a.441.441,0,0,1-.025.108H31.6L31.576-3.3l-.032-.127Zm-.3.044c-.032,0-.063.025-.108.076a.432.432,0,0,1-.032.133c0,.013.019.019.07.025l.019-.013a1.7,1.7,0,0,1,.063-.216Zm.26.152.032-.006h.025l.006.038v.006c-.025.063-.057.127-.1.209h-.019c-.006,0-.013-.006-.019-.025s.025-.032.051-.051a.667.667,0,0,0-.013-.083.1.1,0,0,1,.051-.057c0-.006-.006-.013-.019-.013Zm-.4.089a.36.36,0,0,0-.063.216.178.178,0,0,0,.006.038h.013a.744.744,0,0,0,.1-.1l-.019-.063v-.019a.078.078,0,0,0,.019-.057Q31.17-3.149,31.113-3.158Zm.286.267h.006v.006a.081.081,0,0,1-.032.044A.289.289,0,0,1,31.4-2.892Zm2.443.076c-.025,0-.051.025-.07.07v.025l.013.019.076-.089V-2.8Q33.852-2.815,33.842-2.815ZM31-2.682a.014.014,0,0,0-.013.013c.025.032.044.044.07.044h.006a.014.014,0,0,0,.013-.013v-.006A.077.077,0,0,0,31-2.682Zm2.78.006a.014.014,0,0,0-.013.013l.006.013a.014.014,0,0,0,.013-.013Zm-.1.057q-.019.01-.019.019v.013a.014.014,0,0,0,.013.013h.013q.019-.01.019-.019v-.013a.014.014,0,0,0-.013-.013Zm-.1.044a.065.065,0,0,0-.032.038c0,.013.006.019.013.019h.006c.025-.019.032-.025.032-.032v-.013c0-.006,0-.013-.013-.013Zm.083.025a.131.131,0,0,0-.089.057l.025.013c.025,0,.044-.019.063-.057Zm-2.507.07a.014.014,0,0,0-.013.013c0,.013,0,.013.013.013h.006v-.013Zm-.025.057a.023.023,0,0,1-.006.019.048.048,0,0,0,.013.025l.019-.013c-.006-.019-.013-.032-.019-.032Zm.19.152a.014.014,0,0,1,.013-.013v.051c-.006,0-.006-.006-.013-.013Zm-.444.051q.01,0,.019.038l-.013.127v.025a.166.166,0,0,1-.019.063c-.013.121-.025.184-.044.184h-.006L30.8-1.825v-.019a.255.255,0,0,1,.019-.1C30.821-2.1,30.84-2.2,30.872-2.219Zm.444.032h.013l.006.044c-.006.044-.019.063-.032.063h-.013c-.006,0-.006,0-.013-.013V-2.1A.191.191,0,0,1,31.316-2.187Zm2.17.044c.006,0,.013,0,.013.013l-.006.013c-.013,0-.013-.006-.013-.013Zm-2.215.2h.013c0,.006.006.019.006.025a.759.759,0,0,1-.019.089h-.013a.023.023,0,0,0-.006-.019Zm2.037.108c.025-.044.051-.07.083-.07H33.4q-.019.076-.038.076h-.019Zm-2.278.044c-.006,0-.013,0-.013.013v.019l.013.013c.019,0,.032-.006.032-.013v-.006C31.062-1.768,31.05-1.781,31.031-1.787Zm-.019.114c-.013.013-.025.019-.025.025v.006c0,.013.006.013.013.013h.019c0-.006,0-.006.006-.019S31.018-1.66,31.012-1.673Zm2.259.089a.014.014,0,0,0-.013.013v.013a.014.014,0,0,0,.013-.013Zm-2.177.025a.014.014,0,0,1,.013-.013h.006a.014.014,0,0,1,.013.013v.019A.058.058,0,0,0,31.094-1.559Zm.063.019a.038.038,0,0,0,.025-.006h.006l-.006.025h-.025Zm-.165.025q-.01,0-.019.038v.032c.013.013.019.025.025.025h.013c.006,0,.013-.013.019-.025-.006-.051-.013-.07-.019-.07Zm2.209,0V-1.5h.019v-.013Zm-.038.051q-.019.01-.019.019v.013h.019q.019-.01.019-.019c0-.006,0-.013-.013-.013Zm-.063.057v.013h.013v-.013Zm-1.936.07a.038.038,0,0,0,.025-.006,1.028,1.028,0,0,0,.019.133.158.158,0,0,0-.006.057c-.013,0-.025-.019-.038-.051,0-.057.006-.1.006-.114A.028.028,0,0,1,31.164-1.337Zm-.184.006c0,.038.006.083.006.14l-.006.044c.013.038.019.057.032.057h.006v-.019a.993.993,0,0,0-.025-.222Zm.19.362c0-.006,0-.006.013-.013H31.2q.019.01.019.019v.038c-.025,0-.038-.006-.044-.025Z" transform="translate(0.729 12.445)" fill="#3963ac" stroke="#3963ac" stroke-width="0.5"/>
</svg>
