<svg xmlns="http://www.w3.org/2000/svg" width="48.253" height="12.5" viewBox="0 0 48.253 12.5">
  <path id="パス_311" data-name="パス 311" d="M.584,1.377c.06-.007.093-.013.093-.033a.536.536,0,0,0-.113-.08A.591.591,0,0,1,.424.857a9.349,9.349,0,0,1,.546-2.1A6.1,6.1,0,0,0,1.8-.815a5.048,5.048,0,0,0,1.559.287q.39,0,.4-.04c0-.013-.007-.027-.02-.027,0-.047.033-.067.093-.067a.767.767,0,0,1,.147.06L4-.669a1.4,1.4,0,0,0,.366-.047.071.071,0,0,1,.08-.08l.073.073c.007,0,.027-.027.06-.073.027-.067.113-.093.267-.093v-.02a.714.714,0,0,0-.153-.04.262.262,0,0,0-.12.053,3.515,3.515,0,0,0-.62.067.978.978,0,0,1-.113-.027.125.125,0,0,1,.113-.053q0-.02-.04-.04c0-.047.047-.08.14-.093a.539.539,0,0,0,.107.007c-.007.033-.073.053-.207.053,0,.02.04.033.12.033.007.027.013.04.027.04s.027-.013.027-.027C4.175-.962,4.2-.982,4.2-1a.053.053,0,0,1,.06-.06,3.743,3.743,0,0,1,.706-.113,3.663,3.663,0,0,0,1.2-.433c0,.033-.073.107-.227.227l.007.027c0,.02-.027.06-.087.1l.013.087a.058.058,0,0,1-.02.04,2.317,2.317,0,0,0-.253.16v.02A.774.774,0,0,0,5.908-1.1a.654.654,0,0,0,.36-.586.224.224,0,0,0-.093-.2H6.127a1.352,1.352,0,0,1-.38.267A6.1,6.1,0,0,1,3.5-1.208H3.3a4.271,4.271,0,0,1-2.139-.62.62.62,0,0,1,.04-.14,4.2,4.2,0,0,0,.733-.14A4.447,4.447,0,0,0,2.676-2.4a7.929,7.929,0,0,0,1.186-.766q.88-.7.9-.7a1.124,1.124,0,0,0,.293-.26c.227-.2.333-.313.333-.36a4.333,4.333,0,0,0,.36-.34c.033-.047.247-.293.646-.746A5.815,5.815,0,0,0,7.94-8.724a1.234,1.234,0,0,0-.76-1.2,1.467,1.467,0,0,0-.919-.247A7.828,7.828,0,0,0,2.4-8.9a1.642,1.642,0,0,1-.193.14,4.959,4.959,0,0,0-1.259.993A2.543,2.543,0,0,0-.036-6.206c0,.173.12.306.346.4A6.546,6.546,0,0,1,.491-4.38v.007a.06.06,0,0,0,.047-.02C.511-4.773.5-5.026.5-5.159H.5c0,.027.007.047.02.047.013.113.047.42.087.919C.6-3.46.557-3.094.5-3.094L.5-3.114c.02-.426.027-.706.027-.84q0-.05-.02-.06c-.007,0-.02.027-.033.067l.013.267a3.382,3.382,0,0,0-.033.426l.007.06a1.719,1.719,0,0,0-.08.38C.364-2.608.344-2.5.311-2.5a.225.225,0,0,0-.153.213.593.593,0,0,0,.073.253.477.477,0,0,1-.073.14A11.3,11.3,0,0,0-.309.031q.02,0,.04.08C-.329.158-.362.2-.362.218c0,.04.013.067.033.073A.6.6,0,0,0-.362.517a.792.792,0,0,0,.2.533A1.116,1.116,0,0,0,.584,1.377ZM3.376-9.164a.363.363,0,0,0-.113-.02c0-.06.087-.113.247-.16A4.154,4.154,0,0,1,5.275-9.83a4.474,4.474,0,0,1,1.093-.18c.127.007.187.013.187.033-.02,0-.033.007-.033.02-.02,0-.247.027-.673.08a3.9,3.9,0,0,0-.766.187.436.436,0,0,1-.147-.067.355.355,0,0,0-.16.04,1.626,1.626,0,0,0-.733.247A2.977,2.977,0,0,1,3.376-9.164Zm-1.952,6.5H1.417A13.821,13.821,0,0,0,1.93-4.053c.626-1.519.973-2.379,1.046-2.579a11.149,11.149,0,0,0,.493-1.3,3.039,3.039,0,0,0,.267-.919.28.28,0,0,0-.14-.233v-.007a.434.434,0,0,0,.127-.06A8.988,8.988,0,0,1,6.461-9.8a1.4,1.4,0,0,1,.586.087.717.717,0,0,1,.3.646,4.333,4.333,0,0,1-.9,2.132c-.3.4-.553.753-.76,1.053a3.758,3.758,0,0,0-.446.52q-.24.18-.24.26c-.06.04-.113.08-.153.107-.147.18-.233.273-.26.273a.912.912,0,0,1-.207.253L4.368-4.5a.22.22,0,0,0-.08.067A11.455,11.455,0,0,1,2.863-3.314,8.027,8.027,0,0,1,1.423-2.667Zm.593-5.7H2.01L2.023-8.4c.42-.36.686-.54.806-.54,0,.107-.093.193-.267.253A3.25,3.25,0,0,1,2.016-8.371ZM.87-2.774H.864c0-.007.033-.133.1-.366a.113.113,0,0,0-.02-.067c-.033.007-.067.04-.113.1-.013,0-.02-.013-.027-.04q.01,0,.04-.12a.793.793,0,0,1,.1-.346v-.033c0-.02-.027-.033-.08-.053L.87-3.714c0-.053-.013-.167-.033-.34a.812.812,0,0,1,.04-.227c0-.313,0-.506-.007-.586a7.007,7.007,0,0,1-.053-.88l-.033-.02L.77-5.759.717-5.772A.359.359,0,0,0,.59-5.919a.209.209,0,0,1-.167-.207C.471-6.539.984-7.2,1.976-8.091a4.186,4.186,0,0,1,.633-.426c.013,0,.02.013.02.027a.777.777,0,0,1-.053.247c-.22.566-.36.946-.426,1.139-.373.946-.58,1.506-.62,1.686a.755.755,0,0,0-.127.313.272.272,0,0,1,.013.047.213.213,0,0,1-.107.127c-.033.153-.08.366-.153.626h-.02q-.06-.05-.06-.06a.164.164,0,0,0-.053.113.336.336,0,0,0,.033.113l-.013.087a1.28,1.28,0,0,0-.127.306.166.166,0,0,0,.047.033H.97c.227-.566.34-.86.34-.873.08-.153.267-.546.546-1.179q.08-.28.16-.28a.612.612,0,0,1-.1.306,1.063,1.063,0,0,1-.133.3c-.033.107-.1.3-.207.586a1.614,1.614,0,0,0-.2.52c0,.013.013.02.033.02s.073-.093.127-.28c.02-.113.06-.167.133-.167A1.724,1.724,0,0,1,1.6-4.5l.007.027c.027-.007.053-.04.087-.093a1.653,1.653,0,0,1,.133-.366q.08-.21.16-.24a1.37,1.37,0,0,0,.2-.4,5.311,5.311,0,0,1,.36-.806h.007a.752.752,0,0,1-.027.2A5.7,5.7,0,0,0,2.09-5.1h.027c.067-.087.107-.133.12-.133A2.229,2.229,0,0,1,2.01-4.6c-.12.373-.293.813-.513,1.333-.047.207-.12.313-.213.313,0-.013.007-.04.013-.08v-.007H1.283q-.05.18-.18.18l.067-.267c0-.013-.033-.027-.107-.04-.027,0-.047.073-.067.22H1a.159.159,0,0,1,.073-.04.457.457,0,0,1-.08.18c-.013,0-.013-.013-.02-.04s.007-.04.02-.04C.99-2.907.977-2.914.97-2.914l-.033.027A.124.124,0,0,1,.87-2.774Zm5.8-4.171c.007-.067.04-.1.093-.1C6.76-6.978,6.727-6.945,6.667-6.945Zm-.027.093H6.6v-.013a.1.1,0,0,1,.047-.047.236.236,0,0,0,.007.047Zm-4.064.44H2.563l-.007-.047c.06-.127.113-.247.16-.373.007,0,.007.007.007.013A.838.838,0,0,1,2.576-6.412ZM3.6-3.62c-.007,0-.007-.007-.007-.013q.06-.06.06-.08a4.484,4.484,0,0,1,.486-.4A11.833,11.833,0,0,0,5.688-5.692,6.768,6.768,0,0,0,6.3-6.465a1.01,1.01,0,0,1,.22-.253.206.206,0,0,1-.013.053,5.045,5.045,0,0,0-.28.426,4.737,4.737,0,0,0-.32.406c-.14.147-.207.24-.207.28v.067l.013.013a.413.413,0,0,1-.073-.02.882.882,0,0,0-.127.127c-.346.38-.78.806-1.3,1.273A3.641,3.641,0,0,1,3.6-3.62ZM2.563-6.059l-.007-.053.06-.007C2.589-6.079,2.576-6.059,2.563-6.059Zm-.147.413A.014.014,0,0,1,2.4-5.659a.664.664,0,0,1,.013-.107.3.3,0,0,1,.14-.227A1.088,1.088,0,0,1,2.416-5.646ZM5.894-5.6v-.04h.053C5.948-5.619,5.928-5.606,5.894-5.6ZM2.11-5.553c-.02-.013-.027-.02-.027-.027a.041.041,0,0,1,.04-.027A.09.09,0,0,1,2.11-5.553Zm3.4.4H5.508L5.5-5.186a.333.333,0,0,1,.107-.053c.087-.16.16-.253.233-.28h.007A1.8,1.8,0,0,1,5.514-5.153Zm-3.6-.167a.118.118,0,0,1-.053-.06c0-.04.013-.06.047-.067.013,0,.033.027.047.087Q1.926-5.319,1.916-5.319Zm.067.06H1.976A.333.333,0,0,1,2-5.413l.04-.007v.06A.542.542,0,0,0,1.983-5.259Zm-.313.44H1.657a1.077,1.077,0,0,1,.093-.306c.033.007.047.02.047.047A.327.327,0,0,1,1.67-4.82Zm3.711-.193a.1.1,0,0,1,.067-.1l.027.04A.116.116,0,0,1,5.381-5.013Zm-3.725.646.033-.027c.04-.12.073-.18.107-.193H1.89c.027,0,.047-.04.073-.127L2.1-5a.276.276,0,0,0-.027-.08H2.05a.26.26,0,0,1-.06.113l-.107-.007c-.027,0-.047.047-.053.147.007,0,.007,0,.007.007-.127.287-.193.44-.193.453Zm3.585-.486-.02-.06c0-.02.04-.047.127-.067v.013C5.328-4.893,5.295-4.853,5.241-4.853Zm-1.3,1.2H3.929v-.04a1.834,1.834,0,0,1,.36-.273,5.441,5.441,0,0,1,.446-.413c.233-.273.38-.406.44-.406a.173.173,0,0,1-.06.12.425.425,0,0,0-.187.167c-.1.073-.153.12-.153.133l.007.027a.634.634,0,0,0-.227.213c-.06.087-.113.133-.16.133A.5.5,0,0,1,4.2-3.84C4.075-3.72,3.989-3.654,3.942-3.654ZM1.483-4.18c.02,0,.053-.08.1-.227,0-.02-.007-.027-.02-.027s-.047.073-.093.213C1.47-4.193,1.477-4.18,1.483-4.18Zm-.153.033c.04-.027.06-.053.06-.087s-.027-.033-.033-.033-.033.02-.06.06C1.3-4.173,1.31-4.153,1.33-4.147Zm.2.1q.04-.03.04-.04v-.067H1.55a.1.1,0,0,1-.033.08Zm-.233.24a.185.185,0,0,0,.08-.033c0-.02-.033-.027-.093-.027,0-.113.013-.167.04-.167a.157.157,0,0,0-.013-.053c-.04,0-.073.04-.093.12A.23.23,0,0,0,1.3-3.807Zm.087-.127c.013,0,.02-.02.033-.053,0-.013-.027-.027-.073-.027v.02ZM4.4-3.9H4.388c.04-.06.08-.093.12-.093C4.508-3.933,4.468-3.9,4.4-3.9Zm-2.965.127c.013,0,.027-.027.033-.087,0-.013-.02-.013-.053-.013-.013,0-.02.02-.027.073C1.39-3.78,1.4-3.774,1.437-3.774Zm.04.253.02-.007L1.6-3.8v-.033h-.02a1.5,1.5,0,0,1-.14.306Zm-.4.033V-3.58a.292.292,0,0,0,.107-.24h-.02a1.068,1.068,0,0,0-.133.313C1.03-3.494,1.044-3.487,1.077-3.487Zm2.512.127H3.576c.033-.087.133-.167.306-.253C3.882-3.547,3.782-3.46,3.589-3.36Zm-2.472.12a.089.089,0,0,0,.047-.02.137.137,0,0,0-.033-.06c-.013.007-.027.027-.04.067Zm1.986.2A.007.007,0,0,1,3.1-3.047a.246.246,0,0,1,.153-.1c.013,0,.027,0,.027.013A.69.69,0,0,1,3.1-3.041ZM5.888-1.308a.024.024,0,0,0,.027-.027H5.881l-.02.007C5.861-1.315,5.874-1.308,5.888-1.308Zm-1.459.133H4.422v-.047h.007Zm.653.107a.07.07,0,0,0,.04-.047c-.007,0-.007-.007-.007-.013-.033.02-.047.033-.047.06Zm-.593.06c.027-.007.04-.013.04-.033H4.482A.06.06,0,0,0,4.488-1.008Zm-.826.04c-.02-.013-.033-.02-.033-.033s.007-.013.027-.013A.066.066,0,0,0,3.7-1v.02A.113.113,0,0,0,3.662-.968Zm-.287.033q-.1-.02-.1-.04C3.282-.988,3.289-1,3.3-1a.169.169,0,0,1,.093.047Zm.187-.04L3.542-1l.047.013v.007Zm.673,0a.138.138,0,0,0,.04-.013c0-.013,0-.02-.013-.02L4.215-1Zm-.486.147c-.02,0-.033-.02-.033-.053a.1.1,0,0,1,.073-.093A1.022,1.022,0,0,0,3.749-.828ZM5.008-.915q.02,0,.02-.06H5l-.007.04C4.995-.922,5-.915,5.008-.915Zm-1.526.1c-.007-.013-.013-.027-.02-.027L3.5-.882c.007,0,.013.013.033.04v.013A.169.169,0,0,0,3.482-.815Zm.56.093H4.035C4.009-.735,4-.749,4-.762l.007-.02C4.015-.782,4.029-.762,4.042-.722Zm.606-.027.04-.007c0-.013-.007-.02-.02-.027s-.027.007-.027.02ZM3.122-.575C3.1-.575,3.1-.6,3.1-.635c.02,0,.027.007.027.013Zm.067-.013H3.182l.007-.047h.02C3.209-.6,3.2-.589,3.189-.589ZM3.6-.575,3.536-.6c0-.013.027-.027.067-.033a.206.206,0,0,1,.053.013C3.655-.609,3.635-.6,3.6-.575ZM3.262-.6a.018.018,0,0,1-.02-.02h.04A.018.018,0,0,1,3.262-.6ZM3.356-.6c-.013,0-.02-.007-.02-.027C3.349-.609,3.356-.6,3.356-.6ZM-.082-.389H-.1a.087.087,0,0,1-.04-.08A.078.078,0,0,1-.056-.542.37.37,0,0,1-.082-.389ZM.091-.462H.084L.037-.5l.007-.04.047.007Zm-.08.12C0-.342-.009-.355-.016-.375A.06.06,0,0,1,.017-.382ZM.231,1A.12.12,0,0,1,.157.9.887.887,0,0,0,.124.631,1.756,1.756,0,0,1,.177.318L.171.251c0-.04.047-.1.133-.18H.311A.051.051,0,0,0,.324.1C.3.271.271.457.231.664L.251.9A.334.334,0,0,1,.231,1Zm11.877-5.97h-.04a2.59,2.59,0,0,0-1.493.646,9.143,9.143,0,0,0-.88.813,4.741,4.741,0,0,0-.513.72c-.06.1-.173.353-.346.746a2.707,2.707,0,0,0-.12.606,1.285,1.285,0,0,0,.426.919A2.018,2.018,0,0,0,10.5.011h.113a3.706,3.706,0,0,0,.493-.047,2.957,2.957,0,0,0,1.286-.653,1.747,1.747,0,0,1,.34-.293,1.508,1.508,0,0,0,.313-.3.007.007,0,0,1-.007-.007c-.053.027-.16.1-.326.213a4.1,4.1,0,0,1-.58.413.692.692,0,0,1-.32.173.38.38,0,0,1,.107-.093A1.569,1.569,0,0,0,12.254-.8a1.484,1.484,0,0,0,.267-.167c.127-.067.193-.113.193-.14.133-.12.253-.227.366-.313.06-.067.1-.107.113-.107H13.2l-.133.207a.139.139,0,0,0,.087-.047,2.893,2.893,0,0,0,.406-.426,1.412,1.412,0,0,0,.287-.44.549.549,0,0,0,.093-.18v-.02a.1.1,0,0,0-.013-.04v-.02A.77.77,0,0,0,14.04-2.8a.085.085,0,0,0-.007-.04c-.047,0-.107.073-.193.227-.067.113-.2.3-.386.56v.013l.013.02v.007a.525.525,0,0,1-.147.167v.04h.04c.02,0,.027-.027.027-.073.02.013.027.02.027.027v.02c0,.033-.033.073-.113.12a.4.4,0,0,0-.06-.12h-.007a.558.558,0,0,0-.187.193c.007,0,.007,0,.007.007h.007c.107-.1.167-.153.187-.153a.532.532,0,0,0,.027.107.218.218,0,0,0-.1.153h-.087c0-.013-.013-.027-.04-.027H13.04l-.06.04c-.04,0-.053.02-.06.06,0,.013-.013.033-.053.06v.013c.02.02.027.033.027.04a1.182,1.182,0,0,1-.113.067.08.08,0,0,0-.053-.027H12.72a.591.591,0,0,0,.007.087l-.107.02v.047a1.409,1.409,0,0,0-.207.16,1.568,1.568,0,0,0-.353.173l.007-.033h-.053a.883.883,0,0,1-.16.06v.04h-.04a.732.732,0,0,1-.187.087.434.434,0,0,0-.273.12h-.02a1.062,1.062,0,0,0-.34.1,1,1,0,0,1-.426.107,1.316,1.316,0,0,1-.446-.08.9.9,0,0,1-.58-.913v-.02a2.021,2.021,0,0,1,.267-.933h.007c0,.107.027.173.087.207a.263.263,0,0,0,.107.14,1.378,1.378,0,0,0,.48.133,3.028,3.028,0,0,0,1.6-.833c.7-.62,1.046-1.146,1.046-1.566a.565.565,0,0,0-.22-.433,1.435,1.435,0,0,1-.273-.187C12.594-4.92,12.414-4.973,12.107-4.973ZM10.155-2.834a4.593,4.593,0,0,1,.58-.646,5.672,5.672,0,0,1,.886-.666,2.715,2.715,0,0,1,.853-.34h.073q.12,0,.12.1c0,.107-.107.267-.313.46-.406.406-.813.786-1.213,1.139a4.864,4.864,0,0,1-.586.433.322.322,0,0,1-.227.087h-.007a.265.265,0,0,1-.213-.093c-.06-.127-.093-.193-.093-.193a.7.7,0,0,1,.147-.26A.024.024,0,0,0,10.155-2.834Zm2.6-1.626h.027c.013.08.02.133.02.147a.663.663,0,0,1-.2.393,5.394,5.394,0,0,1-.833.746h-.013a.421.421,0,0,1,.1-.08,2.96,2.96,0,0,0,.6-.586q.32-.35.32-.46a.87.87,0,0,0-.02-.153ZM10.228-3.4c0-.027.013-.04.033-.04v.027A.113.113,0,0,0,10.228-3.4ZM9.289-2.114a.435.435,0,0,1,.08-.173,3.444,3.444,0,0,1,.5-.74,1.071,1.071,0,0,1,.287-.306h.013a.254.254,0,0,1-.06.1c-.4.513-.626.813-.673.893q-.09.24-.14.24H9.289Zm.653-.153a.113.113,0,0,1,.033.013c.08.073.133.107.16.107h.027a.169.169,0,0,0,.093-.047h.033v.007a1.153,1.153,0,0,1-.2.1l-.033-.007-.027.013a.3.3,0,0,1-.087-.153Zm-.46.02H9.5l.007.033v.007H9.5q-.02-.01-.02-.02Zm-.38.073h.007v.027H9.1Zm.107.207c0-.033.027-.067.093-.107a.336.336,0,0,1-.073.153H9.216l-.007-.033Zm.18-.087a.1.1,0,0,1,.047.007v.013C9.422-2.014,9.409-2,9.4-2c0-.02-.007-.027-.02-.027S9.389-2.048,9.389-2.054Zm-.047.08H9.4a.594.594,0,0,1-.06.2c-.027.013-.04.073-.04.193a3.817,3.817,0,0,0-.073.406v.047c.053.273.107.406.147.406q.02-.01.02-.02V-.749A.3.3,0,0,1,9.336-.9v-.06l.013.007a1.614,1.614,0,0,1,.267.486v.027a.024.024,0,0,0-.02.007c-.107,0-.227-.113-.373-.333a1.64,1.64,0,0,1-.093-.506,1.633,1.633,0,0,1,.133-.553A.636.636,0,0,0,9.342-1.975Zm-.42.26a.554.554,0,0,1,.053-.167c.013-.053.033-.087.06-.087l.007.033v.02a.46.46,0,0,1-.087.247C8.949-1.668,8.936-1.688,8.922-1.715Zm.213-.08c0-.007.013-.02.047-.033l.007.033c0,.02-.013.033-.027.053-.007,0-.013-.013-.027-.033Zm-.007.08h.007c.02.007.027.02.027.047v.013l-.007.013c-.007,0-.02-.013-.04-.027Zm4.131.14c.087-.093.133-.14.147-.14v.033a.344.344,0,0,0-.12.12ZM8.9-1.568a.05.05,0,0,1,.033-.047c.027,0,.047.027.047.087a.205.205,0,0,1-.013.073q.01.25.02.34c0,.047.013.067.04.067A.59.59,0,0,0,9.1-.875c-.113,0-.187-.167-.207-.5,0-.053.007-.113.007-.18Zm4.064.107h.047c0,.013,0,.02.007.027h-.047A.04.04,0,0,0,12.96-1.461Zm-1,.693a.083.083,0,0,1,.06-.033h.013c0,.007-.027.013-.067.033Zm-.406.227a.052.052,0,0,0,.02-.007h.007v.007a.024.024,0,0,0-.02.007h-.007Zm-1.113.293.033.02-.007.013-.04-.007V-.229Zm.113.033c.033-.007.053-.013.06-.013h.007c.067.007.1.02.1.033l-.047.013a.3.3,0,0,1-.12-.027Zm.107.107a1.226,1.226,0,0,0,.273-.033l.06.04c0,.013-.02.02-.067.027a1.284,1.284,0,0,0-.167-.02h-.1Zm6.193.36A2.88,2.88,0,0,0,17.907,0a2.833,2.833,0,0,0,.62-.353V-.369l-.147.033V-.342c.04-.06.127-.087.253-.087.06,0,.18-.107.366-.326.147-.093.24-.16.287-.193a.69.69,0,0,1,.227-.233,3.53,3.53,0,0,1,.293-.267,1.463,1.463,0,0,0,.293-.366,1.053,1.053,0,0,0,.313-.566c0-.04-.02-.053-.06-.053a.243.243,0,0,0-.127.2h-.007l-.027-.027-.013.007a1.218,1.218,0,0,1-.153.293.464.464,0,0,1-.127-.027l-.007.007.007.02a.184.184,0,0,1-.06-.007,1.427,1.427,0,0,0-.113.113v.067l-.047-.007c-.08.033-.12.073-.12.127l.1.007c.04-.053.067-.08.1-.08.007,0,.013.013.013.047l-.007.033a.555.555,0,0,0-.153.133l.007.013a1.615,1.615,0,0,1-.187.133c-.187.173-.306.26-.366.26v-.007l.02-.027a6.677,6.677,0,0,0,.486-.46.055.055,0,0,0-.053.033.157.157,0,0,1-.053-.013l-.02.013c0,.033-.013.053-.047.053a.82.82,0,0,1-.18.167l-.02-.007a.678.678,0,0,1-.173.133,4.8,4.8,0,0,1-2.165.873c-.34,0-.506-.16-.506-.473a3.609,3.609,0,0,1,.806-1.812A6.746,6.746,0,0,1,18-3.68a1.681,1.681,0,0,1,.926-.58c.047,0,.073.04.073.107a2.723,2.723,0,0,1-.446.793c0-.007-.007-.027-.013-.073a.544.544,0,0,0,.033-.113l-.007-.007a.267.267,0,0,0-.093.14c-.047.173-.093.353-.153.54a.135.135,0,0,0-.06.12c0,.147.047.22.127.22h.047c.087,0,.213-.113.38-.346a2.96,2.96,0,0,0,.58-1.346v-.08a.371.371,0,0,0-.18-.306,1.171,1.171,0,0,0-.56-.147q-.82,0-2.139,1.459A4.43,4.43,0,0,0,15.276-.888a1.086,1.086,0,0,0,.247.686,1.048,1.048,0,0,0,.56.393H16.1V.151A2.623,2.623,0,0,0,16.855.251ZM19.227-4.1H19.22v-.033h.007ZM16.7-2.814l-.02-.013c.047-.053.073-.073.08-.073s.027.013.027.02-.013.013-.047.033C16.728-2.827,16.715-2.814,16.7-2.814ZM16-1.708a.7.7,0,0,0-.087-.013.184.184,0,0,1,.067-.127c.073-.167.127-.247.147-.247a4.851,4.851,0,0,0,.38-.533c.067-.053.1-.093.1-.133h.007a.391.391,0,0,1-.193.38c-.033.093-.067.153-.1.167a2.768,2.768,0,0,1-.26.38.076.076,0,0,0,.02.053h-.02a.089.089,0,0,0-.047-.02c-.013,0-.02.013-.027.047Zm3.958-.173c-.007,0-.02-.013-.027-.033s.013-.013.04-.02c.007,0,.007.007.013.02S19.973-1.9,19.953-1.881Zm-.133.113a.107.107,0,0,1,.067-.087A.085.085,0,0,1,19.82-1.768Zm.107.08H19.88c.04-.087.08-.127.113-.127l.007.04A.086.086,0,0,0,19.926-1.688ZM15.509-1.2H15.5v-.053l.027-.14-.007-.093a.162.162,0,0,1,.067-.087.729.729,0,0,1,.12-.193c.007,0,.013.007.013.02C15.622-1.382,15.555-1.2,15.509-1.2Zm.393-.153h-.027c0-.013.027-.033.067-.08.013,0,.013.007.013.02C15.955-1.375,15.942-1.355,15.9-1.355Zm3.465.133a.014.014,0,0,0-.013-.013l.013-.02.027.007C19.393-1.242,19.38-1.228,19.367-1.222Zm-3.678.68a.328.328,0,0,1-.033-.12l.007-.087a1.244,1.244,0,0,1,.167-.486h.007l.007.047a3.751,3.751,0,0,1-.1.373C15.742-.635,15.722-.542,15.689-.542Zm3.3-.613h-.013c0-.033.02-.047.053-.047C19.027-1.168,19.013-1.155,18.987-1.155Zm-3.538.147a.116.116,0,0,0-.02-.047l.027-.047-.007-.04a.1.1,0,0,0,.013-.04l.053.02v.02c-.007.02-.013.027-.02.027C15.489-1.042,15.475-1.008,15.449-1.008Zm3.531-.02h-.02c0-.02.013-.033.04-.033C18.993-1.042,18.987-1.028,18.98-1.028ZM18.84-.9c-.007,0-.013-.007-.013-.02l.013-.02.02.013Zm-3.325.04c-.007,0-.02-.013-.027-.027s.013-.033.02-.033l.04.027C15.535-.875,15.522-.862,15.515-.862Zm-.08.16c-.02-.007-.027-.02-.027-.027a.044.044,0,0,1,.033-.027v.04Zm3.232.22h-.013c0-.033.02-.047.073-.047v.007A.064.064,0,0,1,18.667-.482ZM15.7-.369a.1.1,0,0,1-.06-.087c0-.007.013-.02.047-.047a.1.1,0,0,1,.047.08C15.729-.389,15.715-.369,15.7-.369ZM23.594-4.92a.563.563,0,0,0-.386.193,2.056,2.056,0,0,0-.366.673c-.28.8-.473,1.319-.573,1.559a2.575,2.575,0,0,0-.253.66,18.336,18.336,0,0,0-.553,2.2v.02a.449.449,0,0,1,.087.1.281.281,0,0,0,.18.14.316.316,0,0,0,.16.067c.04,0,.067-.007.067-.013.08,0,.153-.093.227-.287.4-.666.713-1.166.933-1.486a5.671,5.671,0,0,0,.446-.826,3.139,3.139,0,0,1,.573-.953c.333-.513.6-.766.813-.766h.047a.3.3,0,0,1,.12.027,3.362,3.362,0,0,1,.44.36.431.431,0,0,0-.02-.067v-.04h.007a.36.36,0,0,1,.113.127.866.866,0,0,1,.207.173h.007l.02-.013H25.9a.169.169,0,0,0,.107.107c.013,0,.02-.007.02-.013v-.04q.1.03.1.06v.013q-.06.01-.06.02v.007q.09.1.14.1l.047-.007c.053.013.08.027.093.027l.033-.007v-.02l-.02-.027v-.007h.06c.007.033.013.053.027.053s.013-.007.013-.013v-.007l-.007-.033h.033a.892.892,0,0,0,.7-.486v-.007h-.007a.615.615,0,0,0-.227.227q-.07,0-.2.14a2.476,2.476,0,0,1-.42.073h-.007l-.013.007c0-.007-.013-.007-.04-.007-.033-.053-.053-.08-.067-.08a.1.1,0,0,1-.04.013c0-.007-.007-.02-.027-.04a.272.272,0,0,1-.127-.093l-.153-.113a.1.1,0,0,1-.067-.107.081.081,0,0,1,.067.04c.08.04.12.067.127.087a.489.489,0,0,1,.093.067l.147.053a.081.081,0,0,1,.06-.04.357.357,0,0,1,.06.047h.013q.02-.01.02-.02l.047.053h.013a.3.3,0,0,0,.073-.007c.02,0,.033-.027.047-.093a.242.242,0,0,0,.073.02h.02c.093,0,.227-.093.386-.287a.8.8,0,0,1,.34-.24c0-.087-.027-.133-.08-.133l-.04.007a.177.177,0,0,1-.087-.067l-.027.027.013.087c-.02.02-.027.033-.027.04a.325.325,0,0,0,.027.073v.02h-.007c-.013,0-.02-.027-.033-.067-.007,0-.013.007-.02.027l.007.04c-.253.253-.426.38-.513.38a.15.15,0,0,1-.1-.053h-.007a.149.149,0,0,0-.067.02h-.007c-.027-.053-.053-.08-.073-.08l-.107.013a.945.945,0,0,1-.62-.386c-.306-.386-.586-.586-.833-.586-.227,0-.46.16-.72.473a.288.288,0,0,1-.093.133v.027c0,.007,0,.013.013.013h.013a.014.014,0,0,0,.013-.013.339.339,0,0,0,.073.027v.007c-.027,0-.06.053-.093.16v.007q.01.02.02.02h.007a.106.106,0,0,0,.08-.033v.007c0,.04-.06.1-.173.173q-.01,0-.04-.06c-.04,0-.073.047-.1.133-.04.02-.06.067-.06.147l.047-.007v.013a.184.184,0,0,1-.073.16h-.007q-.09-.08-.12-.08h-.013a.051.051,0,0,0-.053.04c0,.007,0,.013.013.013h.02c0-.013.007-.02.027-.027a.627.627,0,0,1,.027.067.07.07,0,0,0-.073.053.044.044,0,0,0,.033.027v.007a.489.489,0,0,0-.113.173c0,.047-.04.073-.127.1a.213.213,0,0,0,.053.113v.007c-.093.013-.133.027-.133.047v.053a.126.126,0,0,1-.013.053.062.062,0,0,0-.04.053v.02l.007.013.033-.007a1.36,1.36,0,0,1,.113-.16v.04a.255.255,0,0,1-.08.14,1.144,1.144,0,0,1-.2.46c-.073.14-.127.213-.153.213l-.013-.007-.067.133a7.505,7.505,0,0,1-.62,1.153h-.007V-.215a.324.324,0,0,1,.04-.113,8.283,8.283,0,0,0,.5-1.093,3.592,3.592,0,0,0,.18-.373.226.226,0,0,0,.08-.08.95.95,0,0,1,.073-.233l-.013-.007h-.007q-.01,0-.08.08c-.1.22-.173.333-.227.333h-.013v-.007c.093-.34.167-.593.227-.746,0-.053.247-.62.726-1.7a1.3,1.3,0,0,0,.113-.526v-.033C23.774-4.853,23.707-4.92,23.594-4.92Zm.52,1.4c.013-.013.02-.027.033-.027a.248.248,0,0,1,.12-.127c.027-.073.06-.107.1-.107l.04.007v.013c-.013,0-.02.007-.033.02l.007.067a.179.179,0,0,1-.1.153.853.853,0,0,1-.113.173.8.8,0,0,1-.2.287l-.053-.047.02-.053q.12-.12.16-.12c0-.047.047-.113.127-.2v-.013l-.047.007h-.047l-.013.007Zm-.866-.08h.013c0,.007-.007.013-.007.027h-.007Zm.013.173c0-.027.02-.047.053-.08h.007v.02a.126.126,0,0,1-.047.093c-.007,0-.007-.007-.013-.013Zm-.14.107c.007-.02.013-.033.033-.04v.04Zm-.133.433a1.217,1.217,0,0,0,.133-.267.238.238,0,0,1,.113-.16c-.073.133-.167.346-.287.626a3.569,3.569,0,0,0-.26.713c0,.067-.047.113-.14.133a.069.069,0,0,1,.007-.027c.053-.173.107-.333.167-.48v-.007c-.013,0-.033-.013-.047-.053s.027-.08.087-.153a2.909,2.909,0,0,1,.173-.373.024.024,0,0,0-.007-.02c.06-.14.107-.213.147-.22h.007a1.374,1.374,0,0,0-.107.287Zm.12-.386q.02,0,.02.04h-.007c-.007,0-.013-.013-.02-.027Zm.673.147a.077.077,0,0,1,.053-.06.114.114,0,0,1,.04-.06h.013v.04q-.05,0-.06.08V-3.1c-.007,0-.02.007-.027.007s-.013-.007-.02-.007Zm2.039-.08h.007v.013H25.82Zm-3,.013.027.007v.007h-.013C22.821-3.181,22.821-3.187,22.821-3.194Zm.033.127h.007l.007.02-.013.007Zm.84.027c-.007,0-.007.007-.013.013l.007.033h.007c.013,0,.013-.007.013-.013v-.02C23.707-3.034,23.707-3.041,23.694-3.041Zm.127.16a.067.067,0,0,1,.06-.073l.013.007c-.013.047-.027.067-.04.067Zm-1.053.06c.02-.06.033-.093.053-.093v.007C22.8-2.854,22.781-2.821,22.768-2.821Zm.833-.02c0-.013.013-.02.033-.02h.007a.136.136,0,0,1-.013.073c-.013-.013-.027-.02-.027-.027Zm.167.047c0-.04.013-.06.033-.06h.013l-.033.067Zm-1.033.033a.014.014,0,0,1,.013.013,2.157,2.157,0,0,1-.147.353h-.013v-.013c.013-.067.02-.093.033-.093A2.114,2.114,0,0,1,22.735-2.761Zm.78.227c.007-.02.02-.027.027-.027a.024.024,0,0,0,.007.02v.007Zm-.013.147c0-.013,0-.013.013-.013h.02c-.013.013-.02.02-.02.033H23.5Zm-.36.1a.014.014,0,0,0-.013.013v.007c0,.013,0,.013.013.013h.02v-.02c0-.007-.007-.007-.013-.013Zm-.047.047q-.02.01-.02.02v.033a.014.014,0,0,0,.013.013q.02-.01.02-.02v-.047Zm.22.267q.02-.14.04-.14h.04v.02a.591.591,0,0,1-.073.127h-.007Zm-.027.033h.007c.007,0,.013.007.02.013-.007.027-.033.047-.067.073A.353.353,0,0,1,23.288-1.941Zm-.273.113-.02.013A.066.066,0,0,0,23-1.788h.007a.014.014,0,0,0,.013-.013v-.013Zm.207.007c.007,0,.013.007.013.027l-.007.007h-.013Zm-.107.2c0-.047.013-.067.053-.067v.027c-.02.027-.027.04-.033.04Zm-.753.007h.007v.027h-.007Zm-.033.1h.013v.007a2.684,2.684,0,0,1-.133.526c-.04.207-.087.313-.127.313,0,0,0-.007-.013-.007l.007-.013v-.1L22.082-.8,22.075-.8,22.048-.8v-.02h.02c.04,0,.06-.04.06-.107v-.02a.3.3,0,0,0-.053.013c0-.013,0-.02-.007-.027s.013-.013.013-.047c.027.02.04.04.04.053h.007c.013,0,.02-.02.027-.06a.531.531,0,0,0,.087-.233A2.637,2.637,0,0,0,22.328-1.515Zm-.453.646C21.888-.9,21.9-.9,21.908-.9l.007.033v.013q0,.01-.04.02Zm-.067.28a.132.132,0,0,1,.04-.093.206.206,0,0,0,.013.053c-.027.033-.04.047-.047.047h-.007Zm.18.027c0-.007,0-.013.013-.013s.013.007.02.027l-.033-.007Zm-.187,0h.007a.024.024,0,0,0,.007.02.024.024,0,0,0-.007.02L21.8-.529ZM32.559-4.846l-.02.007c-.113.06-.167.12-.167.16a1.307,1.307,0,0,0-.107.14c-.013.107-.02.16-.033.16a1.148,1.148,0,0,1-.107.313v.027l.007.013c-.007,0-.013.02-.02.073-.047.027-.067.053-.067.06a.1.1,0,0,0,.013.06l-.053.073v.027l.007.013c.027-.007.047-.013.047-.033h.007v.02a.994.994,0,0,1-.167.34c-.02.073-.04.107-.06.107a1.071,1.071,0,0,1-.127.207c-.033.107-.06.153-.073.16a.649.649,0,0,0-.067.1.256.256,0,0,1-.053.113,1.6,1.6,0,0,1-.173.26.6.6,0,0,1-.133.207.8.8,0,0,1-.147.233c-.053.087-.1.133-.12.133a.108.108,0,0,1,.027-.067v-.033a.126.126,0,0,1-.06.027.409.409,0,0,0-.087.12.1.1,0,0,0,.02.04.192.192,0,0,0,.087-.06h.007v.013a.659.659,0,0,1-.087.127H30.84v-.047a.014.014,0,0,0-.013-.013H30.82l-.02.013v-.013h-.007c-.047.067-.093.127-.14.187a3.076,3.076,0,0,1-.586.68c-.293.34-.506.506-.653.506h-.007A.113.113,0,0,1,29.361-.4c-.1-.047-.147-.187-.147-.426v-.06a6.181,6.181,0,0,1,.113-.979,7.688,7.688,0,0,1,.313-1.113,10,10,0,0,1,.426-1.126,1.44,1.44,0,0,0,.147-.42v-.007A.246.246,0,0,0,30.2-4.62a.368.368,0,0,0-.326-.22.736.736,0,0,0-.406.113c-.027,0-.087.113-.173.34l-.22.52c-.053.213-.1.413-.153.593a7.641,7.641,0,0,0-.506,2.185v.06c0,.053,0,.08.007.08a1.135,1.135,0,0,0,.36.7,1.159,1.159,0,0,0,.76.326h.02a.584.584,0,0,0,.32-.14.819.819,0,0,0,.293-.187,4.933,4.933,0,0,0,.64-.713V-.975a1.444,1.444,0,0,0-.193.193,1.291,1.291,0,0,0-.213.2c0,.047-.073.073-.213.08V-.509a1.362,1.362,0,0,0,.213-.167,4.873,4.873,0,0,0,.533-.56,10.949,10.949,0,0,0,.766-1.119h.007v.007a1.093,1.093,0,0,0-.067.433,1.15,1.15,0,0,0,.107.506.939.939,0,0,0,.919.533h.007a1.914,1.914,0,0,0,1.013-.313c.1-.087.147-.14.147-.16a1.214,1.214,0,0,0,.306-.333c0-.007,0-.013-.013-.013a.3.3,0,0,0-.06-.113c.007-.033.013-.047.013-.053a.014.014,0,0,0-.013-.013.12.12,0,0,0-.06.027.6.6,0,0,1-.167.173l-.013-.007.007-.027c.067-.053.1-.1.1-.133v-.013h-.013a.124.124,0,0,0-.067.033,2.177,2.177,0,0,1-.36.293c-.013.027-.04.033-.087.033q0,.03-.12.08c-.12.013-.18.033-.18.047l.02.033c0,.007-.027.027-.087.06a1,1,0,0,1-.313-.047.5.5,0,0,1-.326-.52v-.073a1.084,1.084,0,0,1,.08-.386.184.184,0,0,1-.007-.053,4.038,4.038,0,0,0,.12-.48c.16-.493.24-.746.24-.753a2.375,2.375,0,0,0,.14-.506V-4.1l-.033-.273V-4.44a.207.207,0,0,1,.033-.073c0-.007,0-.013-.013-.027l-.02.013h-.013c-.067-.093-.113-.147-.14-.147-.027.027-.04.04-.047.04s-.013-.013-.027-.047l.013-.02c-.02-.067-.033-.1-.053-.1h-.007c-.04.007-.067.013-.073.013h-.007A.13.13,0,0,0,32.559-4.846Zm.18.353c0-.007.013-.02.047-.033l.013.007c0,.007-.02.02-.053.027Zm-.073.553h.027c.007,0,.013,0,.013.007v.027l-.007.04a.215.215,0,0,1-.067.147v.033l.033.033-.06.04c0,.007.007.013.007.027-.013.047-.027.067-.04.067a.872.872,0,0,1-.06.187,1.233,1.233,0,0,0-.073.253v.013l.007.013a.052.052,0,0,0,.02-.007h.007v.033a.582.582,0,0,1-.033.087c-.013,0-.013-.013-.013-.033h-.02a.51.51,0,0,1-.033.107.3.3,0,0,1-.033.1v.013c0,.013.007.013.013.013l.02-.013c.007-.073.02-.107.047-.107a.052.052,0,0,0,.007.02c-.007.02-.013.033-.02.033-.013.073-.067.287-.167.633L32.213-2.2a.329.329,0,0,0,.02-.1l-.013-.02h-.007a2.1,2.1,0,0,0-.073.313c0,.007,0,.013.013.013s.033-.047.047-.127v-.02h.013v.053a.3.3,0,0,1-.027.12.051.051,0,0,1-.033-.013h-.007l-.027.013a.381.381,0,0,1-.067.227c.013.093.027.153.027.167a.291.291,0,0,1-.047.14l-.013-.007a.359.359,0,0,0-.06-.173.043.043,0,0,0-.033.013.907.907,0,0,0,.007.107c-.04,0-.06-.04-.06-.113a.458.458,0,0,0,.02-.167.346.346,0,0,0-.02-.033A.288.288,0,0,0,31.9-1.9c0-.027-.007-.047-.02-.047a1,1,0,0,0-.06.306l.007.033-.013.04h-.007c0-.007,0-.013-.013-.027a.545.545,0,0,0,.007-.093.411.411,0,0,0-.013-.12.581.581,0,0,0,.013-.133.158.158,0,0,0-.02-.1v-.007a.124.124,0,0,0,.047-.013.375.375,0,0,1,.047-.153l-.02-.027-.013.007c-.007.047-.013.073-.027.073h-.027a.188.188,0,0,0-.007-.053.179.179,0,0,1,.053-.107h.007c0,.013.007.02.013.02a.12.12,0,0,0,.047-.1,1.717,1.717,0,0,0,.067-.22,1.062,1.062,0,0,0,.08-.207l.087-.113v.007l-.033.173v.007c0,.013,0,.013.013.013h.007l.013-.007-.007-.027c0-.013,0-.013.013-.013h.007l.033.007q.06-.02.06-.06a.433.433,0,0,0,.06-.173.52.52,0,0,0,.06-.14l-.007-.007a.835.835,0,0,0,.06-.18.557.557,0,0,0,.067-.207c0-.02.027-.047.08-.093v-.007c0-.013,0-.02-.007-.027Zm-.28.073.013.007c-.013.067-.027.1-.033.1a.336.336,0,0,1-.033.127.052.052,0,0,1-.027-.027c.013,0,.027-.04.04-.113A.251.251,0,0,0,32.386-3.867Zm-2.818.18a.014.014,0,0,1,.013.013h-.013Zm2.372.04q-.02.01-.02.02v.007q.01.02.02.02h.013q.02-.01.02-.02C31.973-3.634,31.959-3.64,31.939-3.647Zm.18.593.053-.2c.04-.033.053-.1.053-.207.033-.1.06-.153.08-.153v.02l-.013.047V-3.5a.13.13,0,0,1-.007.053c-.04.1-.067.18-.093.253-.007.06-.02.087-.033.087v.033c0,.047-.013.067-.02.067h-.013l-.007-.033Zm-.287-.42a.081.081,0,0,1-.04.067V-3.4c.013.02.02.027.027.027a.11.11,0,0,0,.033-.087v-.013Zm-2.365.013.013.007c-.013.047-.033.073-.047.073A.11.11,0,0,1,29.467-3.46Zm2.319.127h-.013c-.013.04-.033.087-.053.133,0,.007.007.013.007.02h.02l.007-.04c.033-.033.053-.06.053-.08v-.013Q31.8-3.334,31.786-3.334Zm.76.027h.007v.013h-.007ZM30.107-.535V-.542c.053-.06.113-.127.173-.207a1.741,1.741,0,0,1,.207-.293.553.553,0,0,1,.107-.147,1.29,1.29,0,0,1,.2-.253.447.447,0,0,1,.173-.273,3.571,3.571,0,0,1,.287-.433c.073-.14.113-.213.113-.213a1.766,1.766,0,0,1,.14-.227c.06-.127.1-.193.12-.193.053-.113.107-.2.14-.26a1.2,1.2,0,0,1,.173-.26,4.708,4.708,0,0,1-.1.5,2.668,2.668,0,0,0-.287.446,3.676,3.676,0,0,1-.513.866,4.527,4.527,0,0,1-.926.953Zm-.726-2.752h.007a.214.214,0,0,0,.007.053c-.047.153-.073.233-.087.233-.013.08-.027.12-.033.12v-.013h-.02v.027a.024.024,0,0,1,.02.007.117.117,0,0,0-.007.04.739.739,0,0,0-.06.153,1.288,1.288,0,0,0-.093.306,1.043,1.043,0,0,0-.1.346.937.937,0,0,0-.073.313,1.139,1.139,0,0,0-.053.287h-.013a.244.244,0,0,1,.013-.107c-.007-.007-.007-.013-.007-.027v-.107l.02-.067v-.047a.184.184,0,0,1,.007-.06.661.661,0,0,0,.053-.18l.047-.22a.205.205,0,0,1,.067-.133v-.02a.734.734,0,0,1,.013-.12.392.392,0,0,0,.067-.167v-.04a.107.107,0,0,0,.033-.073c.04-.14.073-.213.093-.213A.611.611,0,0,1,29.381-3.287Zm2.285.187c-.02.013-.027.02-.027.027v.007q.01.02.02.02h.013c.007,0,.013,0,.013-.013v-.027c0-.007-.007-.007-.013-.013Zm.526.34h-.033c-.027.08-.04.113-.047.113,0-.033-.007-.053-.013-.053h-.013c-.013,0-.02.02-.027.053a.024.024,0,0,0,.02.007c.007,0,.02.02.047.067-.02.06-.033.093-.047.093h-.007l-.027-.02c.013-.053.027-.087.027-.1v-.02h-.013a.438.438,0,0,0-.053.16l.013.02.013-.007h.033q.02.01.02.02v.007a.115.115,0,0,0-.013.053v.013h.02a1.262,1.262,0,0,0,.107-.4Zm-.786.087c-.007,0-.007.007-.013.013l.007.013.02-.013C31.42-2.667,31.42-2.674,31.406-2.674Zm.913.013c-.013,0-.027.027-.033.073.007,0,.007,0,.007.007.02-.007.033-.02.033-.027v-.04Zm2.472.02-.133.14q-.04.12-.08.12v.013c.007.033.02.047.027.047h.007c.013,0,.027-.013.033-.047a1.743,1.743,0,0,0,.16-.253C34.8-2.634,34.8-2.641,34.791-2.641Zm-3.438.053v.02h.013v-.02Zm.526.073.013.007-.007.033h-.013a.024.024,0,0,0-.007-.02Zm-.56,0L31.3-2.5a.319.319,0,0,1-.067.113v.027c.02,0,.053-.04.093-.133v-.02Zm.706.087h-.02a.5.5,0,0,0-.047.133v.047h.007a.218.218,0,0,0,.06-.173Zm.22.033c-.007,0-.013.013-.027.033l.013.007a.082.082,0,0,0,.02-.013v-.027Zm-3.338.06h.007l.007.033-.06.187h-.02v-.007A.5.5,0,0,1,28.908-2.334Zm5.644,0h-.013a1.065,1.065,0,0,1-.22.247l-.06.033v.033h-.04a.062.062,0,0,0-.053.04.014.014,0,0,0,.013.013h.033c.007.047.013.067.02.067h.033a.288.288,0,0,1,.093-.133.085.085,0,0,1,.087-.067c.027,0,.047-.027.067-.087l.073-.067A.162.162,0,0,0,34.551-2.334Zm-2.492.02a.014.014,0,0,0-.013.013v.013l.013.02v.013c-.04.007-.06.053-.06.133q0,.01-.04.02l-.027-.02h-.007a.059.059,0,0,0-.033.053.014.014,0,0,0,.013.013h.013l.02-.013c.02,0,.053.02.087.073h.007q.02-.01.02-.02v-.027c0-.02-.007-.04-.007-.06s.007-.02.007-.027a.113.113,0,0,0-.013-.033c.02,0,.033-.047.033-.14C32.073-2.308,32.066-2.308,32.059-2.314Zm-.866.007a.143.143,0,0,0-.06.087.56.56,0,0,0-.12.18l.007.013a.9.9,0,0,0,.187-.253v-.013C31.207-2.3,31.2-2.3,31.193-2.308Zm3.152.02-.013.007.007.013.013-.007Zm-.04.053v.007l.007.013a.014.014,0,0,0,.013-.013v-.007Zm-2.339.04c-.02.007-.033.013-.033.02a.014.014,0,0,0,.013.013h.027v-.02Zm-3.152.147c0-.027.007-.04.027-.047h.007v.027a.092.092,0,0,1-.033.06Zm3.078.007v.007l.007.013.013-.007a.014.014,0,0,0-.013-.013Zm.253.147a.052.052,0,0,1,.02-.047v.027l-.007.033C32.146-1.881,32.146-1.881,32.146-1.895Zm1.966-.053c-.007,0-.013.013-.02.027a.024.024,0,0,0,.007.02c.02-.013.027-.027.027-.033s0-.007-.007-.013Zm-2.132.013q-.02.01-.02.02v.047a1.025,1.025,0,0,0-.02.107c0,.007.007.013.013.027a.151.151,0,0,0,.053-.127v-.053q-.01-.02-.02-.02Zm-.52.013-.013.007a.451.451,0,0,1-.08.127.082.082,0,0,0,.013.02h.007a.486.486,0,0,1,.08-.127v-.013Zm2.718.047c-.007,0-.007.007-.013.013v.007c0,.013.007.013.013.013s.013,0,.013-.013v-.007C34.192-1.868,34.192-1.875,34.178-1.875Zm-.227.16c.04-.047.067-.073.087-.073.013.02.027.033.027.04s-.013.007-.013.027.013.013.053.027v.027c0,.007-.027.027-.067.073h-.053c0-.013,0-.02.007-.027l.047-.033v-.04l-.007-.013-.067.02a.014.014,0,0,1-.013-.013Zm-1.979-.007c-.013,0-.027.02-.033.06v.007a.014.014,0,0,0,.013.013h.007c.007,0,.013-.027.02-.073C31.973-1.715,31.973-1.715,31.973-1.721Zm-3.245.013h.013l.013.047a.541.541,0,0,1-.033.093h-.007v-.007C28.715-1.6,28.721-1.648,28.728-1.708Zm2,.153v-.013a.391.391,0,0,1,.093-.127h.007A.223.223,0,0,1,30.727-1.555Zm3.025-.073h.02c0,.007-.007.013-.007.02h-.013Zm-5.044.093q.02.01.02.02c0,.027-.007.04-.027.047A.205.205,0,0,0,28.708-1.535Zm1.966.007H30.7a.159.159,0,0,1-.053.107H30.64v-.02A.1.1,0,0,0,30.673-1.528Zm.52.007c-.007,0-.013.013-.027.04s.007.013.013.013.027-.02.027-.027v-.013C31.207-1.515,31.2-1.515,31.193-1.521Zm-2.5.067H28.7l.013.067a.421.421,0,0,1-.027.087h-.007l-.007-.033v-.02A.329.329,0,0,1,28.695-1.455Zm3.245.033a.024.024,0,0,0,.02-.007c0,.013,0,.02.007.027s-.007.007-.007.02h-.013l-.007-.033Zm-.813-.007v.013h.013v-.013Zm1.073.013c.013,0,.02.02.02.067a.338.338,0,0,1,.06.167c-.04,0-.067-.067-.08-.213Zm-1.612.047a.045.045,0,0,1,.027-.04h.007v.02c0,.007-.007.013-.033.027Zm2.7.113c.007-.027.06-.053.153-.08a.366.366,0,0,1,.127-.047h.007v.02c-.007,0-.027.007-.053.013a.953.953,0,0,1-.207.107.05.05,0,0,0-.027-.007Zm-1.319-.107c.02,0,.053.027.1.087v.027q-.01.02-.02.02h-.02q-.02-.01-.06-.12Zm-.926.06-.02.013a.014.014,0,0,0,.013.013h.007c.013,0,.013-.007.013-.013S31.053-1.3,31.04-1.3Zm2.552.02h.02v.007h-.02Zm-.053.027h.013v.007h-.013Zm-2.572.073a.331.331,0,0,0-.107.127c.04,0,.073-.04.113-.127Zm-2.305.033c0-.007.007-.007.013-.013h.007v.013ZM32.3-1.155h.013a.051.051,0,0,0,.013.027v.007L32.3-1.128Zm-.133.007q.02.01.02.02a.029.029,0,0,1-.02.007h-.007v-.013ZM38.506-5.9c-.1.02-.153.033-.153.047a.582.582,0,0,0-.087-.033c-.047,0-.12.107-.213.326a3.266,3.266,0,0,0-.153.706q.02.24.16.24h.007q.18,0,.38-.34a2.221,2.221,0,0,0,.273-.646v-.02C38.719-5.719,38.652-5.806,38.506-5.9Zm-.553,1.646a.676.676,0,0,0-.267.087.967.967,0,0,0-.306.267,7.574,7.574,0,0,0-.546,1A6.92,6.92,0,0,0,36.16-.615v.107a.662.662,0,0,0,.027.187.845.845,0,0,0,.886.5,2.059,2.059,0,0,0,1.186-.5,4.124,4.124,0,0,0,.68-.6,2.015,2.015,0,0,0,.44-.486v-.007a.051.051,0,0,0-.053.04,2.54,2.54,0,0,0-.32.313,2.264,2.264,0,0,0-.306.293,1.239,1.239,0,0,0-.193.153.809.809,0,0,1-.247.193.493.493,0,0,1-.247.127h-.007a.131.131,0,0,1,.027-.053q.18-.14.18-.22h-.007a.5.5,0,0,1-.2.087h-.013c.013-.013.013-.02.013-.027l.26-.207a1.075,1.075,0,0,0,.253-.207c.093-.053.14-.1.14-.153h-.027v-.04h.02a.262.262,0,0,1,.04.013c.1-.033.147-.06.147-.087s0-.02-.013-.02H38.8c0,.02-.027.047-.08.073h-.013L38.7-1.182a.14.14,0,0,1,.04-.053v-.007h-.027a.486.486,0,0,1-.127.08,2.37,2.37,0,0,0-.3.26c-.033.027-.233.173-.613.433a1.773,1.773,0,0,0-.34.153.653.653,0,0,1-.173.027l-.107.053a.594.594,0,0,1-.147-.02c-.02,0-.033-.053-.033-.167a5.767,5.767,0,0,1,.52-2.066,2.428,2.428,0,0,1,.346-.58h.007c.013.067.02.1.02.107a.7.7,0,0,0-.047.147.052.052,0,0,0,.007.02.309.309,0,0,0,.08-.073,7.244,7.244,0,0,0,.253-.806.777.777,0,0,0,.113-.313c0-.18-.067-.267-.2-.267ZM36.78-2.4h.02q0,.04-.02.04Zm.326.053c.013-.02.027-.027.033-.027l-.007.033Zm-.093.007h.007v.02h-.007Zm2.878.047v.027c0,.013,0,.013.013.013s.007,0,.007-.013v-.013c0-.007,0-.007-.007-.013Zm-2.925.253a1.03,1.03,0,0,1,.133-.233h.007l.013.047a.492.492,0,0,1-.013.08.327.327,0,0,1-.073.18C37.02-1.968,37-1.995,36.967-2.041Zm-.12-.033c.053-.12.08-.187.1-.193l.02.08c-.013.08-.047.12-.113.12C36.853-2.074,36.853-2.074,36.847-2.074Zm2.945-.16-.047.04.007.013a.045.045,0,0,0,.047-.027v-.027Zm.033.027a.014.014,0,0,0-.013.013v.013c0,.007,0,.013.013.013l.027-.02q-.01-.02-.02-.02ZM36.773-2.1a.1.1,0,0,1,.04-.087.117.117,0,0,1-.04.1Zm2.952-.02c-.02.013-.033.027-.033.033s.013.013.04.027a.116.116,0,0,1,.047-.02v-.007c0-.007-.013-.02-.04-.033Zm-.22.047a2.576,2.576,0,0,0-.353.36v.007a.024.024,0,0,0,.02-.007c.147-.147.26-.267.333-.353Zm.32.007c-.013,0-.02,0-.02.013v.007l.007.013c.02-.007.033-.013.033-.02v-.007C39.838-2.061,39.832-2.068,39.825-2.068Zm-.18.04v.02a.062.062,0,0,0,.047.06q.04,0,.04-.02l-.067-.06Zm-2.8.087a.035.035,0,0,1,.04-.04h.007C36.893-1.955,36.88-1.941,36.847-1.941Zm2.745-.013c-.013.013-.027.033-.047.053l.047.053.047-.013v-.02Zm-2.885.02a.166.166,0,0,1,.033.047.4.4,0,0,1-.06.16q-.02-.01-.02-.02v-.007a.146.146,0,0,0,.033-.08.072.072,0,0,1-.013-.047A.362.362,0,0,0,36.707-1.935Zm-.007.653a1.68,1.68,0,0,0,.207-.52c0-.073.033-.113.107-.113,0,.007,0,.007.013.007v.06c-.073.26-.12.433-.14.526a.181.181,0,0,1-.073.033l.04.113c-.047.2-.073.313-.08.346h-.007V-.835c0-.193-.007-.333-.007-.433v-.02L36.753-1.3a.1.1,0,0,0-.04.02Zm.14-.58a.04.04,0,0,1,.02-.04l.007.033v.007l-.013.02c-.007,0-.013,0-.013-.013Zm2.612.033v.013c0,.007,0,.013.013.013v-.027Zm.107.047c-.027.007-.047.013-.047.027v.027h.007l.047-.04Zm-2.845.207a.069.069,0,0,0,.047-.033c.02-.1.047-.147.067-.147a.645.645,0,0,1-.073.26A.115.115,0,0,0,36.713-1.575ZM39.478-1.7v.007l.007.013.027-.007V-1.7Zm-2.845.027h.007l.02.1a.732.732,0,0,0-.053.173h-.033C36.613-1.568,36.633-1.661,36.633-1.675Zm2.625.047c-.02.013-.033.027-.033.033s.02.013.047.02c.007,0,.02-.007.047-.027-.007-.02-.02-.027-.047-.027Zm.173,0c-.053.013-.08.033-.08.053a.007.007,0,0,1,.007.007c.047-.013.073-.033.073-.053Zm-.393.047c-.007,0-.013,0-.013.007v.013h.013c0-.007,0-.013.013-.02Zm.46.02-.087.1v.013h.007a.427.427,0,0,0,.093-.1v-.013Zm-.207.033-.02.013c.007.027.013.033.02.033h.02q.02-.01.02-.02v-.013c0-.007-.007-.007-.013-.013Zm-.366.04a.072.072,0,0,0-.027.033c.027,0,.047-.007.047-.02a.014.014,0,0,0-.013-.013Zm.153.013c-.013,0-.013.007-.013.013v.007l.007.013q.02-.01.02-.02A.014.014,0,0,0,39.079-1.475Zm.18.033c-.047,0-.087.033-.133.093v.007a.184.184,0,0,0,.133-.087Zm-.293.08c-.007,0-.02.013-.027.033v.007h.013a.058.058,0,0,1,.04-.02v-.013C38.979-1.355,38.972-1.355,38.965-1.362Zm-2.425.02h.007v.033H36.54Zm2.565.02v.02h.007v-.02ZM39-1.235l-.007.013v.033h.02c.013-.013.027-.02.027-.027v-.013Zm-2.339.027h.007c.007,0,.013,0,.013.013h-.02Zm-.333.06c0-.02.013-.033.047-.047v.033a.435.435,0,0,1-.013.073h-.013Zm2.639-.02c-.02.013-.027.02-.027.027h.007c.02-.007.027-.02.027-.027Zm-.14.127q-.06.04-.06.06l.007.013c.04-.013.06-.027.06-.033v-.027Zm-.32.267q-.02.01-.02.02v.013c0,.013.007.013.013.013h.007l.013-.007A.262.262,0,0,0,38.506-.775Zm-.073.067a.069.069,0,0,0-.033.047v.007c.04-.007.053-.013.053-.027V-.709Zm-1.779.373h.007v.027h-.007Zm1.279.067h.04a.049.049,0,0,1-.053.053A.09.09,0,0,0,37.933-.269Zm6.813-10.354a.829.829,0,0,0-.58.213,2.74,2.74,0,0,0-.46,1.013c-.233.773-.42,1.346-.546,1.712-.033.007-.227.033-.593.08a14.319,14.319,0,0,0-2.052.373,2.565,2.565,0,0,0-.573.213.192.192,0,0,0-.08.127.591.591,0,0,0-.073.127v.2l.013.02.047-.007h.013l.013.007c0,.027-.007.067-.013.127.027.053.053.087.093.087s.087-.047.187-.133q0-.05.4-.14c.033,0,.08.007.127.007s.087-.013.087-.02a1.667,1.667,0,0,0,.287-.06.586.586,0,0,0,.12.013.021.021,0,0,0,.013-.007.161.161,0,0,1,.127-.08c.013,0,.06,0,.14.007a.837.837,0,0,0,.14-.06,3.468,3.468,0,0,0,.513-.087q.3-.02.3-.1l-.047-.027a.465.465,0,0,0-.107.053.043.043,0,0,1-.033-.013,1.359,1.359,0,0,0-.353.06h-.02a.693.693,0,0,1-.1-.013.572.572,0,0,0-.227.08.72.72,0,0,0-.32.06A1.416,1.416,0,0,0,41-6.832c-.02.013-.033.02-.033.027a3,3,0,0,0-.4.113.338.338,0,0,1-.087-.013.029.029,0,0,0-.02.007.516.516,0,0,0-.16.073.589.589,0,0,0-.22.047c-.027-.013-.047-.033-.047-.047s.04-.053.12-.087a.36.36,0,0,0,.107-.053c.007,0,.013.007.02.007a.1.1,0,0,0,.04-.013.144.144,0,0,1,.127-.08c.007,0,.02.013.033.04h.04c.007-.047.013-.067.033-.067h.007c.007.04.02.06.027.06h.04a.492.492,0,0,1,.133-.04.184.184,0,0,0,.06.007h.02c.02,0,.027,0,.033-.007a.244.244,0,0,0,.14-.08h.007a.149.149,0,0,1,.067.02c.127-.013.193-.033.193-.06.02,0,.047.007.08.007a.133.133,0,0,0,.053-.02.069.069,0,0,0,.027.007.781.781,0,0,1,.2-.033c.007,0,.027-.013.06-.047a.133.133,0,0,0,.053.02c.06,0,.087-.027.087-.08,0-.013-.007-.013-.013-.013H41.82l-.033.027h-.013c-.007,0-.02-.02-.04-.053a.185.185,0,0,0,.08-.033q.12-.01.12-.04h.02a.257.257,0,0,1,.073.06.018.018,0,0,0,.02-.02c0-.013.027-.027.08-.047,0-.007-.013-.02-.047-.033.007,0,.02-.007.053-.013.06.02.093.033.1.033l.113-.033c.033.007.047.02.047.04h.013q.02-.01.02-.02a.174.174,0,0,1,.073.02.18.18,0,0,0,.053-.02v-.02L42.527-7.3v-.013l.047-.007h.093a.591.591,0,0,0,.16-.04h.007a.1.1,0,0,1,.08.04c.04-.007.067-.013.073-.013a.188.188,0,0,1,.053.007q0,.02-.06.04a.25.25,0,0,1-.053-.007l-.033.033h-.02q-.24.01-.24.04v.007c0,.007,0,.013.013.013h.04c.04,0,.14-.02.306-.047h.02a5.929,5.929,0,0,1-.233.666c-.233.766-.446,1.446-.64,2.046-.153.6-.28,1.039-.373,1.313a7.072,7.072,0,0,1-.193.786,8.424,8.424,0,0,0-.227,1.566V-.7a1.33,1.33,0,0,0,.08.473.658.658,0,0,0,.64.453h.087a1.516,1.516,0,0,0,.353-.053,2.97,2.97,0,0,0,1.153-.653.737.737,0,0,0,.193-.273l-.007-.013a.052.052,0,0,1-.02.007c-.127.14-.207.207-.247.207h-.007c0-.007.007-.027.013-.053a1.219,1.219,0,0,0,.247-.227c.107-.12.247-.287.42-.506.067-.1.12-.153.153-.153.013-.053.027-.087.04-.087a.722.722,0,0,0,.18-.24,1.159,1.159,0,0,0,.26-.446c.06-.16.093-.247.093-.26a.014.014,0,0,0-.013-.013c-.04,0-.08.047-.133.14-.047.073-.193.293-.44.666h-.007a.23.23,0,0,0-.06.007h-.007c.047-.06.067-.093.067-.113-.013,0-.033-.013-.047-.047q.08-.03.08-.04v-.007c-.013,0-.033-.013-.067-.04-.007,0-.033.02-.073.067v.033c0,.007.007.02.033.04v.007c0,.007-.02.013-.047.013a.326.326,0,0,1-.06.1V-1.7a.049.049,0,0,0,.013.04l-.007.033c0,.007-.073.08-.213.22a2.256,2.256,0,0,1-.213.233,1.289,1.289,0,0,1-.466.42c-.007,0-.013-.007-.02-.027a.075.075,0,0,0-.067.06,1.2,1.2,0,0,1-.74.453A.39.39,0,0,1,42.367-.3c-.127-.073-.187-.233-.187-.48v-.1a4.328,4.328,0,0,1,.08-.68.523.523,0,0,1,.087-.36c.287-.513.566-1.1.853-1.752.353-.786.533-1.193.533-1.219q.17-.4.28-.72a9,9,0,0,0,.36-.953c.067-.147.133-.36.22-.626,0,0,.007,0,.02.013h.027a.04.04,0,0,0,.04-.02V-7.2l-.02-.027c-.033,0-.053.013-.053.04H44.6V-7.2l.053-.127c.053,0,.08.007.08.013a.386.386,0,0,1,.207.04v.007l-.047.007H44.8l-.013.007c.013.033.027.053.033.053h.007a.555.555,0,0,1,.093-.027.072.072,0,0,1,.047.013l-.027.027v.013l.033.007a.793.793,0,0,1,.113-.02l.033.007h.073a.438.438,0,0,0,.087-.02c.133.02.3.033.506.047a.285.285,0,0,1,.127.06c.007,0,.027-.013.06-.027a.185.185,0,0,0,.087.04h.007a.153.153,0,0,0,.06-.02c.28.04.506.08.68.113.06,0,.087-.007.093-.013l.233.06h.047c.14-.027.213-.093.213-.193v-.047a.64.64,0,0,0-.346-.5,3.215,3.215,0,0,0-1.373-.173H45.4c-.173,0-.366.007-.593.02.153-.48.28-.906.373-1.266a7.191,7.191,0,0,0,.18-1.093v-.047a.255.255,0,0,0-.033-.127.353.353,0,0,1-.087.04h-.007c-.027,0-.04-.04-.04-.107a.085.085,0,0,0-.087-.093l-.013.007a.029.029,0,0,1-.02-.007.4.4,0,0,0-.053-.087h-.007c-.007,0-.013.013-.027.033l-.013-.007a.308.308,0,0,0-.187-.04Zm-.127,2.805a6.613,6.613,0,0,0,.2-.673,7.352,7.352,0,0,0,.32-1.379c.02-.18.053-.267.087-.267h.013l.007.08V-10a4.2,4.2,0,0,1-.14.866,9.815,9.815,0,0,1-.353,1.306,1,1,0,0,1-.127.007Zm-.553.047c.04-.113.067-.173.067-.173A9.7,9.7,0,0,1,44.606-9.2a1.343,1.343,0,0,1,.233-.466h.007v.033a.677.677,0,0,1-.047.167.817.817,0,0,1-.047.213c0,.007.007.013.007.02l-.02.1c-.06.227-.093.353-.093.373v.033l.007.013c.027-.02.04-.04.04-.053H44.7c.007,0,.013,0,.013.013v.087a.139.139,0,0,1-.047.1c-.033.147-.053.22-.073.22l.007.033a.412.412,0,0,1-.027.107h-.007q-.02,0-.02-.04v-.02c.02,0,.033-.007.033-.013v-.027a.1.1,0,0,0-.013-.04.238.238,0,0,0,.06-.173.014.014,0,0,0-.013-.013c-.02,0-.033.04-.047.113a.5.5,0,0,0-.06.22.41.41,0,0,1,.007.087v.087c-.007.04-.013.067-.027.067h-.007v-.013h-.013v.053l-.013-.007c-.007,0-.013,0-.013.013a.233.233,0,0,1,.013.067v.007l-.007.033a1.366,1.366,0,0,1-.373.04Zm.853-1.306h.007v.013a.925.925,0,0,1-.06.273c-.007,0-.013-.007-.02-.027l.027-.1A.821.821,0,0,0,44.919-9.077Zm-.14.526c.02-.113.04-.167.06-.167,0,.06-.013.093-.027.093-.013.067-.02.093-.033.093Zm-.02.04h.013v.04a.04.04,0,0,1-.02.04v-.033Zm-.133.16c0-.007,0-.013.013-.013v.02h-.013Zm-.1.207a.014.014,0,0,1,.013-.013l.007.033-.007.013a.014.014,0,0,1-.013-.013Zm.1.113a.153.153,0,0,1,.053-.12v.033a.168.168,0,0,0-.04.113h-.013Zm-.033.113H44.6v.027h-.007Zm-.027.067h.007v.033h-.007Zm.207.12a.587.587,0,0,1,.14.04v.027l-.033.007h-.06l-.04.033h-.02l-.013-.007A.533.533,0,0,0,44.772-7.731Zm-.187.007s.027,0,.087.007a.15.15,0,0,0,.047-.007.533.533,0,0,0-.027.1h-.033a.223.223,0,0,0-.087-.047A.126.126,0,0,0,44.586-7.725Zm-.233.113c0-.067.02-.1.053-.1h.007a.461.461,0,0,1-.013.1l-.013-.007h-.02Zm-.32-.067a2.3,2.3,0,0,1,.313-.027h.007a.178.178,0,0,0-.053.113h-.06a.367.367,0,0,0-.14.033c-.02,0-.053-.007-.1-.007A.694.694,0,0,1,44.033-7.678Zm1.033.04a.024.024,0,0,1,.007-.02.7.7,0,0,1,.193-.04.27.27,0,0,1,.113.033v.007a.413.413,0,0,0-.073.02h-.013l-.173-.027c-.007,0-.013.007-.013.027Zm-3.438.38c.007-.033.047-.053.12-.053.113-.04.173-.067.18-.067.16,0,.247-.013.247-.033l.213-.053a.926.926,0,0,0,.247-.053,1.07,1.07,0,0,0,.386-.06.359.359,0,0,1,.053.007l.047-.007h.007l-.047.113L43-7.471a.217.217,0,0,0-.087.027c-.1.013-.293.04-.573.087h-.12c-.02.013-.027.02-.027.027a1.122,1.122,0,0,0-.24.04l-.04-.007h-.02a.626.626,0,0,1-.253.04Zm3.525-.14a.068.068,0,0,1,.033-.053h.007a.051.051,0,0,0,.013.027c-.013.027-.027.033-.033.033h-.02Zm-2,.007h.013c.013,0,.013.007.013.013l-.013.02c-.007,0-.007,0-.013-.013Zm1.333.04c.02.02.033.027.04.027l.033-.007a.04.04,0,0,1,.027.007,1.405,1.405,0,0,1-.113.333,9.512,9.512,0,0,1-.34.939,8.456,8.456,0,0,1-.506,1.233,4.055,4.055,0,0,1-.187.473c-.1.193-.193.393-.28.593a1.789,1.789,0,0,0-.2.353c-.08.18-.14.28-.173.293a.007.007,0,0,0-.007-.007.645.645,0,0,1,.087-.16,2.581,2.581,0,0,1,.167-.38c.12-.3.193-.466.22-.513a1.377,1.377,0,0,1,.187-.406A2.023,2.023,0,0,1,43.606-5a4.2,4.2,0,0,1,.167-.406l.14-.373a.9.9,0,0,0,.12-.346c.093-.22.153-.386.187-.486A1.822,1.822,0,0,0,44.346-7,1.181,1.181,0,0,0,44.486-7.352Zm-.553.04c.14-.007.253-.013.353-.027H44.3l-.007.013v.08c-.027,0-.04.013-.04.047h-.013c-.013,0-.013-.013-.013-.04h-.007c-.02.007-.027.02-.027.047v.033c.007.013.02.027.027.027a.275.275,0,0,1-.04.127.258.258,0,0,1-.073.207.618.618,0,0,1-.093.24l-.027-.02h-.013v.007l.007.04c-.007.02-.02.033-.027.033a.2.2,0,0,0,.027.06.089.089,0,0,1-.02.047l-.027-.013a.021.021,0,0,0-.013.007.754.754,0,0,0,.007.093.215.215,0,0,0-.04.12c-.027,0-.04,0-.04-.007,0,.013-.007.013-.013.013l.013.047v.087L43.839-6h-.013q-.02,0-.02-.04v-.02h-.02a.366.366,0,0,0-.047.127.058.058,0,0,0,.02.04.1.1,0,0,1-.013.04l-.013-.007c-.013,0-.02.02-.033.053a.188.188,0,0,0,.007.053c-.007.013-.007.02-.013.02-.013.087-.033.127-.047.127a.014.014,0,0,1-.013-.013l-.013.007.007.033v.04L43.6-5.573c-.02,0-.06.1-.12.306A.926.926,0,0,0,43.366-5l-.08.18c-.16.346-.267.58-.306.7v.007l.007.047-.013-.007a.083.083,0,0,0-.02.013q-.03.08-.04.08a2.32,2.32,0,0,0-.213.433h-.007c.033-.127.18-.573.433-1.346.273-.873.513-1.612.713-2.205.02-.013.033-.027.033-.047a.014.014,0,0,0-.013-.013c.033-.1.053-.153.053-.16A.024.024,0,0,1,43.933-7.312Zm-2.592.067v-.007A.822.822,0,0,1,41.5-7.3h.013a.014.014,0,0,1,.013.013l-.007.013a.62.62,0,0,0-.14.04A.1.1,0,0,1,41.341-7.245ZM42.613-7.3a.014.014,0,0,0-.013.013v.007a.024.024,0,0,1,.02.007c0-.007,0-.013.013-.013A.014.014,0,0,0,42.62-7.3Zm.973.053q.01-.02.02-.02v.04Q43.586-7.235,43.586-7.245Zm-.493.107c0-.013,0-.013.007-.013.007-.067.027-.1.053-.1v.013c.033.02.047.04.047.06A.9.9,0,0,0,43.093-7.138Zm.58-.067a.04.04,0,0,1,.02-.04h.013q.02.01.02.02v.02a.045.045,0,0,1-.027.047A.045.045,0,0,1,43.673-7.2ZM42.52-7.238a.4.4,0,0,1-.087.053c0,.007.013.013.033.02.067-.02.1-.027.1-.033S42.553-7.218,42.52-7.238Zm-.626.047c-.007,0-.013,0-.013.013l.007.013.04-.007v-.007a.014.014,0,0,0-.013-.013Zm.473.013c-.04.013-.08.02-.127.033v.013c.093-.007.133-.02.133-.033v-.013Zm1.739,0a.04.04,0,0,0-.04.02v.02H44.1q.02-.01.02-.02v-.007A.014.014,0,0,0,44.106-7.178Zm-.167.007-.027.007v.007c0,.007,0,.013.013.013h.013c.013,0,.013-.007.013-.013S43.953-7.172,43.939-7.172Zm-2.359.033c.033.007.073.02.12.033v.013a.25.25,0,0,0-.113.033.227.227,0,0,0-.107-.027h-.007a.067.067,0,0,0-.073.06.18.18,0,0,1-.087-.047.186.186,0,0,1,.033-.053c.033.013.053.027.053.033a.106.106,0,0,1,.067-.033h.027l.033.02C41.561-7.118,41.581-7.125,41.581-7.138Zm1.859.027q0-.02.04-.02a.05.05,0,0,0,.007.027l-.027.013a.082.082,0,0,1-.02-.013Zm-1.413-.02a.007.007,0,0,0-.007.007c-.067.013-.1.027-.1.033v.013c0,.013,0,.013.013.013h.02l.06-.02c.013,0,.033.007.053.007l.02-.02C42.087-7.112,42.067-7.125,42.027-7.132Zm.167.013v.007h.013v-.007Zm-1.666.053c0-.007.007-.013.027-.02s.013.013.02.027-.007.013-.013.013h-.007Zm.526-.02h.033v.013h-.02C41.061-7.072,41.054-7.072,41.054-7.085Zm2.439.047c0-.007.013-.02.047-.033q0,.07-.04.08l-.007-.033Zm-.68-.033a.376.376,0,0,0-.08.027c0,.027.007.033.013.033h.047c.053,0,.073-.007.073-.02C42.847-7.058,42.833-7.072,42.813-7.072Zm-.12.007a.185.185,0,0,0-.08.033c.013.027.027.04.047.04s.02-.013.047-.053C42.693-7.052,42.693-7.058,42.693-7.065ZM42.247-4.2a.124.124,0,0,0,.113-.087,2.855,2.855,0,0,1,.1-.28.907.907,0,0,1,.04-.16c.187-.626.313-1.013.373-1.159l.213-.633a1.436,1.436,0,0,0,.08-.24c.047-.2.093-.3.127-.3.007,0,.007.013.007.04a2.163,2.163,0,0,0-.073.247.511.511,0,0,0-.087.26,2.178,2.178,0,0,0-.093.3.592.592,0,0,0-.067.173.5.5,0,0,0-.047.133c-.04.127-.08.28-.133.466a.676.676,0,0,0-.067.253,5.08,5.08,0,0,0-.273.853.27.27,0,0,0-.04.073l.007.04v.007a.357.357,0,0,0-.073.187c-.033.113-.06.187-.067.227s.013.053.027.053h.02c.007,0,.013-.013.02-.033s-.007-.04-.007-.06v-.007a.113.113,0,0,1,.053-.087c-.007-.027-.013-.047-.013-.053a1.085,1.085,0,0,0,.087-.207c.013-.113.033-.173.047-.173a.558.558,0,0,1,.06-.187c.02-.167.047-.247.087-.247l-.007-.08.067-.013-.02.027v.007a.408.408,0,0,0,.033.04h.007a.106.106,0,0,0,.053-.02l-.007-.06a.048.048,0,0,1,.027-.047h.02c.007,0,.013.007.02.013h.027q.02-.01.02-.02c-.013-.02-.02-.027-.027-.027h-.06a.3.3,0,0,0,.013-.093v-.013h-.027a.14.14,0,0,1-.053.04v-.033a.182.182,0,0,1,.027-.033c.027-.113.053-.173.087-.173a.252.252,0,0,0-.007-.053.13.13,0,0,1,.073-.113.394.394,0,0,1,.053.033l-.027.133L42.94-5.3h-.02a.014.014,0,0,0-.013.013v.013c.02.02.027.027.027.033v.007a.04.04,0,0,1-.02.04l-.04-.007a.113.113,0,0,1-.033.013v.027a.784.784,0,0,1,.1.073h.02c.013-.067.033-.1.047-.1h.033a.052.052,0,0,0,.007.02c-.013.06-.033.127-.06.213a1.277,1.277,0,0,1-.067.173h-.007c0-.02-.007-.027-.02-.027l.02-.027v-.013h-.047q0-.04-.02-.04H42.84q-.02.01-.02.02v.013a.571.571,0,0,1,.02.113v.007l-.06.04-.027.113c0,.013.013.027.04.033.013-.02.027-.033.033-.033s.007.013.007.02a.334.334,0,0,1-.02.093.3.3,0,0,1-.04-.027h-.007a.058.058,0,0,0-.04.02c0,.02.007.033.013.033h.06c0,.007.007.02.007.027a.629.629,0,0,1-.08.22,3.386,3.386,0,0,1-.14.473v.013q.01.02.02.02h.007l.027-.02v.02a.04.04,0,0,1-.02.04c-.033,0-.053.02-.067.067-.033.113-.053.173-.067.173H42.48c-.007,0-.02-.02-.047-.06h-.007a.146.146,0,0,1-.033.093c0,.007.007.013.007.02.06.013.087.027.087.04-.007.04-.013.067-.027.067h-.027c-.013,0-.013-.013-.02-.033H42.4a.114.114,0,0,1-.033.073v.013c.04.013.053.027.053.04a.284.284,0,0,0-.053.14v.04H42.36c-.047-.02-.067-.04-.067-.073v-.007a.679.679,0,0,1,.027-.107v-.033a.014.014,0,0,0-.013-.013H42.3l-.053.053a1.589,1.589,0,0,1-.067.167.533.533,0,0,0-.06.233c0,.113-.013.18-.047.207v.027l.073.053.02-.013h.013a.2.2,0,0,1-.087.08l.007-.033-.007-.013c-.027,0-.053.067-.073.207a.727.727,0,0,1-.087.366.089.089,0,0,0,.02.047h-.007c-.033,0-.047.027-.053.08a.327.327,0,0,0,.02.08.238.238,0,0,0-.047.047.163.163,0,0,0,.007.047,1.5,1.5,0,0,1-.047.167V-1.4a.157.157,0,0,0,.08.153.107.107,0,0,0-.04.087.118.118,0,0,0-.1.127l.007.013a.283.283,0,0,0-.033.08v.007a.235.235,0,0,0,.027.113c.033.02.047.033.047.04-.04,0-.06.067-.073.187a1.017,1.017,0,0,0,.007.12.736.736,0,0,0-.007.107.08.08,0,0,0,.027.053v.04H41.76c-.033-.02-.047-.06-.047-.12V-.422c0-.007-.007-.013-.027-.02s-.02.02-.027.053q.02.09.02.1L41.654-.3c-.027,0-.053-.133-.087-.406a3.738,3.738,0,0,0,.04-.393,1.306,1.306,0,0,0-.013-.18.614.614,0,0,1,.033-.133s0-.053-.007-.16a.15.15,0,0,1,.033-.1.6.6,0,0,0,.067-.32.086.086,0,0,0-.033-.073h-.007c-.02,0-.06.107-.113.32h-.007c-.007,0-.013-.013-.02-.047.007-.053.013-.087.02-.087.027-.207.047-.313.067-.313a1.427,1.427,0,0,1,.047-.313.633.633,0,0,1,.06-.22,1.036,1.036,0,0,1,.093-.346.961.961,0,0,1,.027-.153.861.861,0,0,0,.053-.253,4.354,4.354,0,0,0,.18-.64.325.325,0,0,0,.053-.16.306.306,0,0,0,.04-.107c.007-.033.073-.247.207-.64a.934.934,0,0,1,.093-.306,1.408,1.408,0,0,1,.06-.213,1.827,1.827,0,0,0,.1-.346.306.306,0,0,0,.087-.227,1.4,1.4,0,0,0,.113-.313.564.564,0,0,1,.1-.287c.053-.2.08-.3.1-.3h.04v.027a.089.089,0,0,0-.02.047v.06l-.047.053v.007l.033.033v.013H43.04l-.02-.013h-.007c-.007,0-.013,0-.013.013l.013.047a.062.062,0,0,1-.04.053,1.338,1.338,0,0,1-.04.18c-.027,0-.047.06-.053.18-.033.033-.053.053-.053.06s.007.013.007.027c-.027.093-.04.147-.04.147.02.02.027.033.033.033,0,.02-.013.047-.053.073a.774.774,0,0,0-.1.32c0,.013.007.02.033.02a.129.129,0,0,0-.053.107v.08c-.033,0-.067.06-.107.187v.02s.013.013.04.047v.02c-.033,0-.067.027-.093.08a.44.44,0,0,1,.007.073.324.324,0,0,0-.073.127l.013.02v.013c-.02.027-.04.047-.053.047-.013.073-.027.107-.04.107a.2.2,0,0,1-.033.133c-.02.093-.04.167-.053.227a.072.072,0,0,0,.013.053c0,.007-.02.02-.053.047C42.22-4.22,42.227-4.207,42.247-4.2Zm1.373-2.812a.056.056,0,0,1,.027-.047c.013,0,.013.007.013.013v.007c0,.033-.007.053-.027.06A.043.043,0,0,0,43.619-7.012ZM40.355-7c0-.027.02-.047.053-.053h.067v.007c0,.013-.033.033-.093.053h-.013Zm.606-.053h.013v.007h-.013Zm1.559.02-.053.053.007.013a.659.659,0,0,0,.1-.007v-.007a.123.123,0,0,0-.047-.053Zm-1.892.06c0-.027.067-.047.207-.047h.027c0,.007-.007.013-.033.02l-.06-.007a.882.882,0,0,0-.12.047.029.029,0,0,0-.02-.007Zm-.193.02.087-.02c0,.007.007.007.027.007q0,.02-.04.02h-.073Zm-.393.16a.275.275,0,0,0,.047-.073,1.067,1.067,0,0,1,.293-.073h.02a.058.058,0,0,1-.06.053h-.053l-.053.047h-.067a.438.438,0,0,1-.12.06h-.007Zm3.411-.067h.007v.04c0,.007-.007.027-.013.06-.04-.013-.06-.02-.06-.027V-6.8l.007-.013C43.433-6.825,43.453-6.845,43.453-6.858Zm.093.033c.02.007.027.013.027.02l-.02.027q-.02-.01-.02-.02v-.007Zm-.473.04h.013v.007h-.013Zm.313.087c.007,0,.013,0,.013.007v.007C43.393-6.685,43.386-6.685,43.386-6.7Zm-.113.693c.013-.067.027-.1.033-.1a.261.261,0,0,1,.073-.22c.033-.173.067-.26.093-.26h.007l.007.033a.118.118,0,0,1-.027.067l-.1.34a.285.285,0,0,0-.067.153,3.736,3.736,0,0,1-.153.52c-.007,0-.027-.02-.053-.053v-.013c.02,0,.047-.02.067-.06a.993.993,0,0,1,.127-.38A.04.04,0,0,1,43.273-6.006Zm.053-.52a.037.037,0,0,1,.027-.04c.007,0,.007.007.013.02l-.02.067h-.013l-.007-.033Zm.66.02A.014.014,0,0,1,44-6.519h.007v.027c0,.007,0,.013-.013.013S43.993-6.5,43.986-6.505Zm-.68.06c.007,0,.013.007.02.027s-.007.02-.013.02h-.02C43.293-6.405,43.3-6.419,43.306-6.445Zm.586.12q-.02.01-.02.02c0,.013,0,.013.013.013s.013-.007.02-.02S43.9-6.325,43.893-6.325Zm-.666.093c0-.013.013-.02.027-.027l.013.02v.007c0,.007-.007.013-.027.02A.082.082,0,0,1,43.226-6.232Zm.6.08a.014.014,0,0,0-.013.013v.027h.02v-.027Zm-.833.313h.033a.024.024,0,0,0,.007.02L43-5.686h-.007Zm.68.073v.02h.013v-.02Zm-.027.06V-5.7h.013v-.007ZM43.02-5.6c.027-.06.047-.093.06-.093a.024.024,0,0,0,.007.02.082.082,0,0,0-.013.02v.08a.064.064,0,0,1-.047.06L43-5.539h-.04l-.013.007a.1.1,0,0,0-.013-.04c.013-.027.027-.033.033-.033h.007Zm-.087.167v.02l.013-.007A.014.014,0,0,0,42.933-5.433Zm.133.013H43.1a.014.014,0,0,1,.013.013v.013a.779.779,0,0,1-.067.18H43.04a.042.042,0,0,1-.033-.04A.455.455,0,0,0,43.066-5.419Zm-.526.2c-.007,0-.013,0-.013.013V-5.2h.02v-.02Zm.193.24c0-.007,0-.013.007-.013v.02h-.007Zm-.227,0h.007v.013h-.007Zm.38.24c.013-.02.02-.027.027-.027v.007l-.013.04c-.007,0-.013,0-.013-.007Zm-.193.113a.047.047,0,0,0-.027.033c0,.007.007.013.027.02s.033-.013.033-.02v-.02a.014.014,0,0,0-.013-.013Zm-.06.187v.013c0,.007,0,.013.013.013a.014.014,0,0,0,.013-.013.014.014,0,0,0-.013-.013Zm.1.053c-.02.007-.033.013-.033.027v.02c0,.007,0,.007.013.007h.02q.02-.01.02-.02v-.013Q42.753-4.377,42.733-4.387Zm-.153.1v.007h.013v-.007Zm-.013.08c-.007,0-.013.013-.027.04v.007h.007l.033-.007v-.007l-.007-.033Zm.06.02a.014.014,0,0,0-.013.013v.033c0,.007.013.02.033.027s.02-.013.027-.033a.014.014,0,0,0-.013-.013l.013-.02v-.007Zm-.34.007q-.02.01-.02.02v.013c0,.007.007.013.027.02s.013-.007.02-.027C42.3-4.173,42.294-4.18,42.287-4.18Zm.333.08a.014.014,0,0,0-.013.013v.007a.014.014,0,0,0,.013.013.014.014,0,0,0,.013-.013V-4.1Zm-.353.02a.05.05,0,0,0-.033.053h-.04a.072.072,0,0,0-.047.02.713.713,0,0,1-.04.153c.007.073.04.107.087.107.007,0,.02-.027.04-.073a.292.292,0,0,1,.047-.2v-.047A.014.014,0,0,0,42.267-4.08Zm.267,0c-.033,0-.053.02-.067.073v.027l.007.06a.241.241,0,0,0-.027.033v.04q.01.02.02.02h.013a.769.769,0,0,1,.087-.193A.092.092,0,0,0,42.533-4.08Zm0,.253a.014.014,0,0,0-.013.013v.007a.014.014,0,0,0,.013.013h.007v-.033Zm-.24.1c-.033.013-.047.047-.047.1a.961.961,0,0,0-.067.247.014.014,0,0,1,.013.013c.027-.013.04-.027.04-.047a1.246,1.246,0,0,1,.073-.267v-.033A.014.014,0,0,0,42.294-3.727Zm.087.093q-.02,0-.06.04c0,.04.007.067.027.067h.007c.013,0,.027-.027.047-.087,0-.013,0-.02-.013-.02Zm-.273.007a.133.133,0,0,0-.08.053v.007c.007.033.02.047.027.047s.013-.007.013-.02h.047a.082.082,0,0,0,.02-.013v-.053C42.134-3.614,42.127-3.62,42.107-3.627Zm.486.053H42.6v.013h-.007Zm-.133.007c-.007,0-.013,0-.013.013v.007l.007.013c.027,0,.033-.007.033-.013S42.48-3.56,42.46-3.567Zm-.44.093c-.027.02-.047.08-.06.193a.749.749,0,0,0-.053.247c.007.06.02.087.04.087h.007c.013-.007.033-.053.053-.147l-.027-.047c0-.007.007-.013.013-.02.053-.04.073-.12.073-.247V-3.42a.055.055,0,0,0-.033-.053Zm.153.167c-.02.013-.033.02-.033.027v.027l.013.02c.02-.013.033-.02.033-.027v-.007A.1.1,0,0,0,42.174-3.307Zm-.06.187q-.02.01-.02.02v.02c.013.02.02.027.027.027s.02-.013.02-.02v-.02C42.127-3.107,42.12-3.121,42.114-3.121Zm-.013.087h-.007c-.02,0-.033.04-.047.12v.02a.014.014,0,0,0,.013.013h.013a.538.538,0,0,0,.033-.14Zm.173.067c.053,0,.073.02.073.06a.463.463,0,0,1-.027.113h-.007l-.02-.02-.033-.133Zm-.32.047c-.033,0-.067.027-.113.08a.454.454,0,0,1-.033.14c0,.013.02.02.073.027l.02-.013a1.78,1.78,0,0,1,.067-.227Zm.273.16.033-.007h.027l.007.04v.007c-.027.067-.06.133-.1.22h-.02c-.007,0-.013-.007-.02-.027s.027-.033.053-.053a.7.7,0,0,0-.013-.087.109.109,0,0,1,.053-.06c0-.007-.007-.013-.02-.013Zm-.42.093a.378.378,0,0,0-.067.227.186.186,0,0,0,.007.04h.013a.781.781,0,0,0,.107-.1l-.02-.067v-.02a.081.081,0,0,0,.02-.06Q41.867-2.657,41.807-2.667Zm.3.28h.007v.007a.085.085,0,0,1-.033.047A.3.3,0,0,1,42.107-2.388Zm2.565.08c-.027,0-.053.027-.073.073v.027l.013.02.08-.093v-.007Q44.682-2.308,44.672-2.308Zm-2.985.14a.014.014,0,0,0-.013.013c.027.033.047.047.073.047h.007a.014.014,0,0,0,.013-.013v-.007A.081.081,0,0,0,41.687-2.168Zm2.918.007a.014.014,0,0,0-.013.013l.007.013a.014.014,0,0,0,.013-.013ZM44.5-2.1q-.02.01-.02.02v.013a.014.014,0,0,0,.013.013h.013q.02-.01.02-.02v-.013a.014.014,0,0,0-.013-.013Zm-.107.047a.068.068,0,0,0-.033.04c0,.013.007.02.013.02h.007c.027-.02.033-.027.033-.033v-.013c0-.007,0-.013-.013-.013Zm.087.027a.138.138,0,0,0-.093.06l.027.013c.027,0,.047-.02.067-.06Zm-2.632.073a.014.014,0,0,0-.013.013c0,.013,0,.013.013.013h.007v-.013Zm-.027.06a.024.024,0,0,1-.007.02.051.051,0,0,0,.013.027l.02-.013c-.007-.02-.013-.033-.02-.033Zm.2.16a.014.014,0,0,1,.013-.013v.053c-.007,0-.007-.007-.013-.013Zm-.466.053q.01,0,.02.04l-.013.133v.027a.174.174,0,0,1-.02.067c-.013.127-.027.193-.047.193h-.007l-.007-.047v-.02a.267.267,0,0,1,.02-.1C41.5-1.561,41.521-1.661,41.554-1.681Zm.466.033h.013l.007.047c-.007.047-.02.067-.033.067h-.013c-.007,0-.007,0-.013-.013v-.007A.2.2,0,0,1,42.02-1.648ZM44.3-1.6c.007,0,.013,0,.013.013l-.007.013c-.013,0-.013-.007-.013-.013Zm-2.325.213h.013c0,.007.007.02.007.027a.8.8,0,0,1-.02.093H41.96a.024.024,0,0,0-.007-.02Zm2.139.113c.027-.047.053-.073.087-.073h.007q-.02.08-.04.08h-.02Zm-2.392.047c-.007,0-.013,0-.013.013v.02l.013.013c.02,0,.033-.007.033-.013V-1.2C41.754-1.208,41.74-1.222,41.72-1.228Zm-.02.12c-.013.013-.027.02-.027.027v.007c0,.013.007.013.013.013h.02c0-.007,0-.007.007-.02S41.707-1.1,41.7-1.108Zm2.372.093A.014.014,0,0,0,44.059-1v.013A.014.014,0,0,0,44.073-1Zm-2.285.027A.014.014,0,0,1,41.8-1h.007a.014.014,0,0,1,.013.013v.02A.061.061,0,0,0,41.787-.988Zm.067.02a.04.04,0,0,0,.027-.007h.007l-.007.027h-.027Zm-.173.027q-.01,0-.02.04v.033c.013.013.02.027.027.027H41.7c.007,0,.013-.013.02-.027-.007-.053-.013-.073-.02-.073ZM44-.942v.013h.02V-.942Zm-.04.053q-.02.01-.02.02v.013h.02q.02-.01.02-.02c0-.007,0-.013-.013-.013Zm-.067.06v.013h.013V-.828ZM41.86-.755a.04.04,0,0,0,.027-.007,1.08,1.08,0,0,0,.02.14.165.165,0,0,0-.007.06c-.013,0-.027-.02-.04-.053,0-.06.007-.1.007-.12A.029.029,0,0,1,41.86-.755Zm-.193.007c0,.04.007.087.007.147l-.007.047c.013.04.02.06.033.06h.007v-.02a1.042,1.042,0,0,0-.027-.233Zm.2.38c0-.007,0-.007.013-.013h.013q.02.01.02.02v.04c-.027,0-.04-.007-.047-.027Z" transform="translate(0.612 10.873)" fill="#3963ac" stroke="#3963ac" stroke-width="0.5"/>
</svg>
