<svg xmlns="http://www.w3.org/2000/svg" width="38.701" height="10.718" viewBox="0 0 38.701 10.718">
  <path id="パス_326" data-name="パス 326" d="M5.461-12.961a.769.769,0,0,0-.143.018,3.261,3.261,0,0,0-1.305.673,10.428,10.428,0,0,0-.912.864A10.624,10.624,0,0,0,1.9-9.928a4.188,4.188,0,0,1-.334.566A3.9,3.9,0,0,0,.938-8.289v.024H.944l.268-.316q-.125.322-.125.34v.006c.006,0,.113-.161.316-.465q.036,0,.036.018v.012l-.262.465V-8.2h.006c.03-.036.048-.048.054-.048.22-.3.441-.62.656-.971a.588.588,0,0,1,.268-.226l-.018-.077.006-.042c.1-.036.155-.066.161-.083v-.089a2.7,2.7,0,0,1,.34-.429v-.048a.115.115,0,0,0-.024-.072.524.524,0,0,1,.131-.191c.238-.286.381-.435.429-.435a1.217,1.217,0,0,0,.238-.292l.411-.346H3.84c-.107.125-.209.244-.31.358a1.667,1.667,0,0,0-.286.352,12.2,12.2,0,0,0-.769,1.013c-.113.2-.2.352-.28.465a1.524,1.524,0,0,1-.364.483c-.06,0-.155.167-.3.5a.728.728,0,0,0-.179.292v.03a.717.717,0,0,0,.024.1.338.338,0,0,1-.072.137l-.072-.054H1.23a.194.194,0,0,0-.089.143.468.468,0,0,0,.054.119.449.449,0,0,1-.083.107.741.741,0,0,0,.036-.137v-.006a.066.066,0,0,1-.036-.018,1.441,1.441,0,0,0-.143.256L1-7.389a.373.373,0,0,0,.083-.024h.006C1-7.139.956-7,.956-7A.2.2,0,0,1,.9-7.02c-.012.012-.018.012-.024.012-.03.066-.143.358-.346.876A6.167,6.167,0,0,0,.289-5.125c.006.113.006.22.006.316v.22a.889.889,0,0,0,.012.125,2.392,2.392,0,0,1,.1.274.5.5,0,0,1-.167-.042c.066-.06.1-.1.1-.1v-.006A.5.5,0,0,0,.265-4.4C.235-4.409.211-4.552.2-4.833a2.381,2.381,0,0,1,.036-.274c-.012-.066-.036-.1-.083-.1-.018,0-.03.083-.03.25v.292A.521.521,0,0,1,.1-4.523a1.159,1.159,0,0,1,.048.2v.06c0,.036-.006.06-.024.06L.092-4.3C.068-4.642.032-4.809,0-4.809H-.039v-.018l.018-.018a.263.263,0,0,0,.066-.191.525.525,0,0,0-.1-.256l.137-.143V-5.44A.048.048,0,0,0,.05-5.494v-.012A.492.492,0,0,0,.158-5.8c0-.06-.054-.1-.155-.119L.5-7.353A.006.006,0,0,1,.5-7.359l-.024.012a2.381,2.381,0,0,0-.286.667A4.57,4.57,0,0,0-.158-5.136,3.459,3.459,0,0,0,.015-4.106a1.231,1.231,0,0,0,.5.685,2.357,2.357,0,0,0,1.144.28,2.6,2.6,0,0,0,1.245-.4,1.41,1.41,0,0,0,.435-.3l.244-.137a3.463,3.463,0,0,0,.84-.936c.03-.018.054-.167.066-.435a4.111,4.111,0,0,0,.179-.709.045.045,0,0,0-.006-.024.317.317,0,0,0-.143.167,3.215,3.215,0,0,1-.34.822,2,2,0,0,1-.6.626v-.006l.042-.06c.256-.25.387-.4.387-.447a.979.979,0,0,0,.238-.435v-.012H4.24a1.109,1.109,0,0,0-.167.256,2.666,2.666,0,0,1-.459.554,4.066,4.066,0,0,0-.477.459,1.045,1.045,0,0,0-.423.244.5.5,0,0,1-.262.089,2.323,2.323,0,0,1-.93.238,1.47,1.47,0,0,1-.405-.066.884.884,0,0,1-.489-.9v-.107a.556.556,0,0,1,.006-.131A10.751,10.751,0,0,1,2.357-8.956a18.3,18.3,0,0,1,1.43-2.05c.775-.93,1.347-1.406,1.716-1.436h.06a.174.174,0,0,1,.1.03c.149.089.226.31.226.65a7.7,7.7,0,0,1-.512,2.336c-.328.8-.584,1.2-.763,1.2q-.089,0-.143-.2a.11.11,0,0,0-.077-.1v-.036H4.377a1.024,1.024,0,0,0-.048.262.4.4,0,0,0,.018.125.4.4,0,0,0,.393.334.732.732,0,0,0,.542-.31,5.037,5.037,0,0,0,.435-.745,7.1,7.1,0,0,0,.65-2.747,2.054,2.054,0,0,0-.143-.852.945.945,0,0,0-.733-.471Zm-1.394,1.2a.016.016,0,0,1,.018-.018v.006a.016.016,0,0,1-.018.018Zm-.161.155q.08-.107.107-.107v.018a.2.2,0,0,1-.1.089Zm2,.858c.006,0,.012.006.012.018v.024a.271.271,0,0,1-.024.107H5.884a.076.076,0,0,0-.006-.036A.521.521,0,0,1,5.9-10.75ZM1.463-8.992V-9L1.6-9.2c0-.06.042-.113.119-.167h.018v.006a.58.58,0,0,1-.161.22c-.024.083-.06.137-.107.149Zm.167-.03c0-.006.018-.018.06-.042v.042l-.036.012H1.647Zm-.274.137c.012-.012.018-.024.024-.024H1.4l.006.042a.124.124,0,0,0-.036.012H1.355Zm.22,0h.006v.018H1.576Zm-.34.2a.063.063,0,0,1,.048-.06H1.29v.036a.053.053,0,0,1-.048.06H1.236Zm.441.2h.03v.018c0,.012-.006.012-.018.012H1.677Zm-.763.256c-.006,0-.024.018-.048.048A4.746,4.746,0,0,0,.5-7.449l.018.006a.1.1,0,0,0,.066-.036c.066-.191.107-.286.137-.286a2.192,2.192,0,0,0,.2-.441C.926-8.217.92-8.229.914-8.229Zm.209.143c-.036,0-.054.012-.06.024v.006L1.081-8H1.1c.03,0,.042-.006.048-.018v-.012A.073.073,0,0,0,1.123-8.086Zm-.054.131a.054.054,0,0,0-.03.006,2.41,2.41,0,0,0-.393.673.128.128,0,0,0-.06.113c-.107.238-.167.369-.167.375a.127.127,0,0,0-.072.1l.006.012a.72.72,0,0,0-.1.226A.753.753,0,0,1,.2-6.2v.024a.381.381,0,0,0,.012.083v.012a.477.477,0,0,0-.089.024v.012c0,.06.018.083.06.083H.187c.06-.018.083-.077.083-.173v-.006l.113-.036A1.025,1.025,0,0,0,.33-6.34l.012-.036a2.4,2.4,0,0,0,.185-.441,4.407,4.407,0,0,0,.2-.447,1.232,1.232,0,0,0,.107-.173.413.413,0,0,1,.143-.292.4.4,0,0,1,.1-.2Zm-.322.238a.063.063,0,0,0-.03.054v.012a.045.045,0,0,1,.024.006A.1.1,0,0,0,.777-7.7q0-.009-.018-.018Zm.209.352v.012a.016.016,0,0,0,.018.018v-.03Zm-.089.173c-.048,0-.077.054-.1.167v.012H.8a.213.213,0,0,0,.1-.155v-.012c0-.006-.006-.012-.018-.012ZM.754-6.9a.074.074,0,0,0-.036.048L.724-6.8H.73c.012,0,.024-.03.03-.1V-6.9Zm-.2.4a.063.063,0,0,0-.03.054l.024.03c.018-.006.03-.024.03-.054Zm-.036.143c-.054,0-.083.042-.083.131,0,.006.012.018.036.024l.048-.024-.03-.036A.057.057,0,0,0,.545-6.3.292.292,0,0,0,.521-6.358ZM.42-6.1c-.03.012-.048.024-.048.03v.048l.006.018a.255.255,0,0,1,.06-.018v-.018A.115.115,0,0,0,.42-6.1Zm-.066.226A.5.5,0,0,0,.277-5.8v.06c-.036.1-.06.155-.06.167s.018.006.018.012C.277-5.589.3-5.607.3-5.619a.292.292,0,0,0-.006-.066c.054-.06.083-.1.083-.131S.372-5.869.354-5.875Zm4.028.1a.557.557,0,0,0-.125.268l.012.012c.042,0,.083-.1.131-.28Zm-4.422.089A.047.047,0,0,1,0-5.738v.024a.392.392,0,0,1-.018.077H-.027Zm.25.31c-.012,0-.024.024-.03.06V-5.3c0,.006.006.012.018.012l.042-.006A.178.178,0,0,0,.211-5.375Zm-.173.083c-.012,0-.012.006-.018.012v.018c.012.012.018.024.024.024s.012-.006.024-.018C.062-5.28.056-5.291.044-5.291Zm4.225.4L4.3-4.9c.066-.119.113-.185.137-.191a.5.5,0,0,1-.2.322,1.972,1.972,0,0,1-.471.536c-.119.131-.191.2-.209.2H3.537a.874.874,0,0,1,.083-.083c.06-.107.1-.167.125-.179a.579.579,0,0,0,.262-.262.291.291,0,0,0,.107-.1A.369.369,0,0,0,4.258-4.9C4.264-4.9,4.264-4.9,4.264-4.892Zm-.62.6a.045.045,0,0,1,.024.006v.03H3.65a.013.013,0,0,1-.012-.012v-.012Zm-.322.03a.054.054,0,0,0,.03-.006v.012h-.03ZM.289-4.123c.018.006.03.018.03.024v.03H.307c-.006,0-.018-.018-.03-.036C.283-4.106.289-4.111.289-4.123Zm.054.083c.006,0,.018-.006.042-.024.06.077.107.137.143.185a.576.576,0,0,1,.113.161v.012c-.018-.006-.024-.012-.03-.012Q.342-3.924.342-4.04Zm6.715.083a1.8,1.8,0,0,0,1-.429,4.259,4.259,0,0,0,.661-.59,2.7,2.7,0,0,0,.846-1.6c.066-.024.185-.054.352-.1a2.679,2.679,0,0,0,.7-.244q0-.009-.036-.018a.189.189,0,0,1-.137.054,1.261,1.261,0,0,1-.28.077.112.112,0,0,1-.048-.012q.116-.063.554-.232a.431.431,0,0,0,.22-.066q.215-.045.215-.072l-.072-.006-.012.03a.1.1,0,0,1-.048-.018.429.429,0,0,1-.155.048.192.192,0,0,1-.107.036l-.018-.012a.825.825,0,0,1-.185.042.41.41,0,0,1-.077-.012c-.006,0-.012,0-.012.012,0,.048-.072.083-.215.1a1.066,1.066,0,0,1-.286.066.21.21,0,0,1-.083-.018l.006-.018a.1.1,0,0,0,.06-.036l-.006-.006c-.072.006-.2.024-.393.06L9.459-7a1.943,1.943,0,0,0-.381-.5,1.431,1.431,0,0,0-.548-.352l.012-.024q.161-.134.161-.215a.316.316,0,0,0-.066-.161.441.441,0,0,0-.316-.125H8.279a1.192,1.192,0,0,0-.727.393,4.817,4.817,0,0,0-.524.65,2.884,2.884,0,0,0-.548,1.18.082.082,0,0,0,.03.054.225.225,0,0,1-.066.191l-.012-.143H6.42l-.006.042a3.446,3.446,0,0,0-.2.983.982.982,0,0,0,.358.84A.664.664,0,0,0,7.057-3.957ZM6.9-6.853l-.024-.006v-.036c0-.006.036-.072.1-.191a2.25,2.25,0,0,1,.387-.584c.113-.161.2-.262.28-.286a.173.173,0,0,0-.03.06c-.054.054-.25.322-.59.793A1.148,1.148,0,0,1,6.9-6.853Zm1.4-.876H8.285v-.018h.006Zm.28.918a.684.684,0,0,1-.381-.1c-.107-.024-.161-.119-.161-.292,0-.125.024-.185.066-.185a.038.038,0,0,1,.03.036h.012v-.024a.29.29,0,0,1,.006-.072c-.006,0-.018.006-.036.024-.006,0-.012-.006-.018-.024.042-.113.077-.167.119-.167l.006.042h.006a.178.178,0,0,1,.083-.03c.113,0,.268.1.471.3a1.184,1.184,0,0,1,.3.441A3.5,3.5,0,0,1,8.577-6.811ZM8.19-6.942a1.112,1.112,0,0,1-.054-.364H8.124a.468.468,0,0,0-.012.131.474.474,0,0,0,.012.155c.024,0,.048.024.054.077Zm3-.274c.066-.006.1-.024.1-.06,0-.006-.018-.018-.048-.024s-.054.03-.06.077Zm-.077-.006c.006,0,.012-.006.012-.018s-.006-.012-.012-.018-.012.006-.012.018S11.11-7.222,11.115-7.222Zm.048.036A.036.036,0,0,0,11.2-7.2l-.066-.018a.013.013,0,0,0-.012.012C11.127-7.192,11.139-7.186,11.163-7.186Zm-1.019.167.012-.006a.013.013,0,0,0-.012-.012H10.12C10.126-7.026,10.132-7.02,10.144-7.02Zm-.089.03L10.073-7v-.012l-.012-.018c-.018.006-.024.012-.024.03ZM7.075-4.4,6.9-4.415a1.825,1.825,0,0,1-.077-.429,2.067,2.067,0,0,1,.161-.709,9.18,9.18,0,0,1,.369-.936,3.79,3.79,0,0,1,.3-.524.815.815,0,0,0,.06.161.9.9,0,0,0,.9.429,2.21,2.21,0,0,0,.441-.042,1.788,1.788,0,0,1-.352.751,3.679,3.679,0,0,0-.268.375.006.006,0,0,1,.006.006l.054-.018a1.524,1.524,0,0,1,.161-.143c.042.006.06.018.06.036q.045,0,.072-.072a3.651,3.651,0,0,0,.459-.959c0-.012.042-.024.113-.036h.006v.036a3.321,3.321,0,0,1-.238.644c-.083.107-.149.2-.209.286-.066.06-.1.107-.1.155-.042.012-.06.024-.06.036l.042.024v.006a.024.024,0,0,0-.012.024l-.018-.006c-.018,0-.024,0-.024.006-.06,0-.1.054-.113.167l-.072-.006a1.264,1.264,0,0,0-.083.125c-.048.024-.066.042-.066.066l.036.054a.233.233,0,0,0-.083-.012c-.137.072-.209.131-.209.179l.018.077A.153.153,0,0,0,8.1-4.719c-.012,0-.024.036-.042.113-.024-.018-.036-.03-.042-.03H7.945c.143-.161.22-.25.226-.262.066-.048.1-.083.1-.125-.018,0-.048.018-.089.06-.28.262-.483.393-.6.393A1.937,1.937,0,0,1,7.075-4.4ZM9.953-6.978v-.006L9.93-6.99a.006.006,0,0,1-.006.006C9.924-6.978,9.936-6.978,9.953-6.978Zm.7.042.042-.006c0-.006,0-.012-.012-.018l-.036.012Zm-1.418.066H9.232l.006-.018Zm.292.012q.009-.018.018-.018Q9.539-6.859,9.53-6.859Zm-2.485.411v-.077c0-.006.012-.012.042-.03C7.087-6.483,7.069-6.448,7.045-6.448ZM6.8-5.971H6.789a.429.429,0,0,0,.048-.161H6.9L6.9-6.09C6.884-6.012,6.855-5.971,6.8-5.971Zm-.226.685a.092.092,0,0,0-.018-.036,1.084,1.084,0,0,1,.066-.25c.03-.149.054-.226.077-.226a.6.6,0,0,1,.012.113.046.046,0,0,0-.042.048c0,.006.006.024.012.066l-.024.083C6.658-5.375,6.628-5.309,6.575-5.285Zm.161-.22.006-.06c.018.018.03.024.036.024v.012Zm.012.149a.144.144,0,0,1-.077-.024.349.349,0,0,0,.077-.083Zm1.52.328a.211.211,0,0,0,.1-.036c.173-.143.262-.268.262-.375H8.619l-.083.1a.12.12,0,0,1-.119.1.236.236,0,0,1-.042-.03.817.817,0,0,0-.113.161ZM6.712-5.28v-.048h.006l.006.03C6.724-5.285,6.718-5.28,6.712-5.28ZM6.6-4.725A.293.293,0,0,1,6.581-4.8c.018-.143.03-.232.03-.256.024-.083.042-.137.042-.149l-.006-.036A.249.249,0,0,1,6.7-5.256a1.015,1.015,0,0,1-.018.22C6.664-4.827,6.64-4.725,6.6-4.725Zm-.113.215A.455.455,0,0,1,6.4-4.827a1.793,1.793,0,0,1,.048-.364c.066,0,.1.03.1.083s-.018.226-.054.507c.006.042.012.066.024.066C6.5-4.523,6.491-4.511,6.485-4.511Zm1.639-.107C8.106-4.624,8.1-4.63,8.1-4.642l.036.006a.022.022,0,0,1,.018-.006v.012C8.142-4.63,8.136-4.624,8.124-4.618Zm-.191.131V-4.5c0-.03.018-.042.06-.042A.053.053,0,0,1,7.933-4.487Zm-1.251.048H6.658l.006-.089h.018Zm6.03-3.951a.112.112,0,0,0-.083.03.492.492,0,0,0-.2.167c-.048.1-.125.274-.232.524a5.416,5.416,0,0,0-.286.822.89.89,0,0,0-.077.185.147.147,0,0,0,.042.089v.006q-.125,0-.3.572A12.044,12.044,0,0,0,11.2-4.469a.412.412,0,0,0,.232.334.507.507,0,0,0,.3.167.751.751,0,0,0,.465-.286A6.7,6.7,0,0,0,12.753-5c.465-.775.828-1.347,1.091-1.71A.52.52,0,0,0,14-6.889c.143-.179.226-.268.262-.268q.089,0,.089.5v.191a3.557,3.557,0,0,0,.042.763,1.354,1.354,0,0,0,.161.465,1.014,1.014,0,0,0,.769.489.834.834,0,0,0,.352-.083A2.3,2.3,0,0,0,16.3-5.3a3.65,3.65,0,0,0,.447-.453v-.006q-.009-.018-.018-.018h-.006s-.012.012-.036.042a2.719,2.719,0,0,1-.489.423.478.478,0,0,1-.155.107h-.006c-.006,0-.006,0-.012-.012a2.075,2.075,0,0,0,.155-.149c.131-.107.191-.173.191-.2v-.006l-.06.03-.036-.006v-.006s.018-.024.048-.06a2.068,2.068,0,0,0,.334-.358v-.012a.2.2,0,0,0-.072.048c-.262.268-.441.405-.536.405a.1.1,0,0,1-.066-.024h-.018a.4.4,0,0,0-.048.1h-.006c-.006-.018-.012-.03-.018-.03h-.006c-.018.06-.03.089-.048.089L15.774-5.4c0,.006-.006.006-.018.006a1.964,1.964,0,0,1-.56.28h-.024c-.107,0-.185-.161-.232-.489a12.5,12.5,0,0,0-.048-1.341c-.077-.477-.244-.715-.518-.715a.678.678,0,0,0-.423.2,3.659,3.659,0,0,0-.465.548,9.6,9.6,0,0,0-.566.864l.006.012a.085.085,0,0,0,.036-.012,2.211,2.211,0,0,0,.226-.274.9.9,0,0,0,.012.119.452.452,0,0,1-.155.238,2.944,2.944,0,0,0-.143.3.526.526,0,0,0-.1.1c0,.048-.048.107-.143.161h-.006a2.714,2.714,0,0,0,.119-.334h-.006a2.452,2.452,0,0,0-.173.2c-.209.369-.352.614-.435.739a.988.988,0,0,1-.328.364,2.321,2.321,0,0,1,.072-.423,9.382,9.382,0,0,1,.471-1.394c.161-.465.274-.769.334-.906a3.149,3.149,0,0,0,.328-.953c-.042-.072-.066-.107-.066-.113-.072-.066-.113-.1-.113-.113S12.807-8.39,12.711-8.39Zm-.054.465a.061.061,0,0,1,.03-.048h.03c.03,0,.042.006.048.018l-.018.03-.012-.006c-.03,0-.048.006-.048.018l-.03-.006Zm-.262.483a.315.315,0,0,1,.083-.185h.006l.006.048c-.036.113-.066.167-.089.167A.258.258,0,0,0,12.4-7.443Zm-.1.042a.887.887,0,0,1,.1.006H12.4v.018a.085.085,0,0,0-.042-.012.223.223,0,0,0-.048.006.022.022,0,0,0-.018-.006Zm.048.1h.012v.012a.092.092,0,0,0-.018.036h-.012V-7.27A.052.052,0,0,0,12.342-7.306Zm-.006.113a.327.327,0,0,1,.06-.1H12.4l-.054.107h-.012Zm-.215-.072c0-.006.006-.006.012-.012v.018c0,.012,0,.012-.012.012Zm.143.137c.018,0,.042.018.06.054-.018.018-.024.03-.03.03h-.012l-.036-.03A.1.1,0,0,1,12.264-7.127Zm-.024.077c.006,0,.018.012.03.036v.006A.013.013,0,0,1,12.258-7h-.03A.174.174,0,0,0,12.241-7.049Zm.089,2.455a1.228,1.228,0,0,1,.191-.334.944.944,0,0,0,.226-.387.92.92,0,0,1,.113-.244c.066-.1.22-.358.477-.757a5.444,5.444,0,0,1,.3-.465c.089-.167.173-.244.238-.244.024.006.03.024.03.048h-.012a.663.663,0,0,0-.048.143c-.1.119-.173.238-.25.346-.381.644-.673,1.108-.876,1.4a5.255,5.255,0,0,1-.387.5Zm-.286-2.342a.088.088,0,0,1,.054-.077.234.234,0,0,0,.012.036c-.018.036-.036.054-.042.054S12.056-6.93,12.044-6.936Zm.155.054q.036.027.036.036v.006a.334.334,0,0,1-.036.131h-.006v-.024l.006-.042c-.018-.018-.03-.03-.036-.03A.481.481,0,0,0,12.2-6.883Zm1.21.28a.234.234,0,0,1,.036.012.476.476,0,0,1-.03.1l-.036-.018c-.012.018-.018.03-.03.03h-.006A.446.446,0,0,1,13.409-6.6Zm-.155.238c.036-.042.054-.06.06-.06v.03a.44.44,0,0,1-.012.072C13.272-6.346,13.254-6.358,13.254-6.364Zm-1.085-.042h.006v.036h-.006Zm.024.167a.092.092,0,0,1,.042-.066h.006v.036A.1.1,0,0,1,12.2-6.2c-.006,0-.012,0-.012-.012Zm4.69.012c-.042.006-.06.024-.06.048a.133.133,0,0,0,.018.06.168.168,0,0,1-.048-.006.092.092,0,0,0-.036.018h-.042V-6.1l.042.054v.006c-.006,0-.012.006-.024.012.006.018.012.03.018.03s.018-.024.036-.06c.1-.036.149-.072.149-.119V-6.2C16.936-6.209,16.919-6.221,16.883-6.227Zm-4.8.066h.006l.006.03v.012c-.006-.006-.012-.006-.024-.006A.044.044,0,0,0,12.086-6.161Zm-.1.477a1.627,1.627,0,0,0,.107-.292.184.184,0,0,1,.083-.143V-6.1a5.866,5.866,0,0,0-.274.834,1.8,1.8,0,0,0-.125.524c0,.048-.042.089-.119.119,0-.018,0-.03.012-.03a3.258,3.258,0,0,1,.1-.417.211.211,0,0,1,.077-.125,4.113,4.113,0,0,1,.119-.429v-.006h-.006c-.054.137-.113.3-.179.489a.114.114,0,0,1-.042-.072v-.012a.5.5,0,0,1,.06-.119,2.4,2.4,0,0,1,.137-.375l-.006-.03c.048-.155.089-.226.119-.226h.006a1.084,1.084,0,0,0-.077.292Zm.077-.387h.006c.006,0,.012.012.018.042A.04.04,0,0,1,12.062-6.072Zm-.256.077a.087.087,0,0,1,.036.006c0,.006,0,.012-.012.012h-.006Q11.806-5.986,11.806-5.995Zm4.612.036-.012.006.012.018.024-.006v-.012C16.436-5.953,16.424-5.959,16.418-5.959Zm-4.565.1a.013.013,0,0,1,.012.012v.006h-.012Zm4.446.018c-.018.012-.024.012-.03.012v.012l.018.006.012-.018Zm-.1.1c-.036,0-.077.036-.137.113.024,0,.072-.036.137-.1Zm-4.38.036h.006v.006a.107.107,0,0,1-.042.089A.273.273,0,0,1,11.823-5.715Zm4.72,0a.053.053,0,0,0-.048.03c-.054.042-.083.072-.083.083l.006.012a.339.339,0,0,0,.125-.113Zm-.512.113q-.018.009-.018.018v.018c0,.006.006.006.012.006h.006c.012,0,.018-.006.024-.03s0-.012-.012-.012Zm-4.273.048h.006l.012.006a1,1,0,0,1-.113.358v-.024a.293.293,0,0,1,.042-.137A1.628,1.628,0,0,1,11.758-5.554Zm8.908-8.1a.742.742,0,0,0-.518.191,2.451,2.451,0,0,0-.411.906c-.209.691-.375,1.2-.489,1.532-.03.006-.2.03-.53.072a12.806,12.806,0,0,0-1.835.334,2.294,2.294,0,0,0-.512.191.172.172,0,0,0-.072.113.528.528,0,0,0-.066.113v.179l.012.018.042-.006H16.3l.012.006c0,.024-.006.06-.012.113.024.048.048.077.083.077s.077-.042.167-.119q0-.045.358-.125c.03,0,.072.006.113.006s.077-.012.077-.018a1.491,1.491,0,0,0,.256-.054.524.524,0,0,0,.107.012.018.018,0,0,0,.012-.006.144.144,0,0,1,.113-.072c.012,0,.054,0,.125.006a.749.749,0,0,0,.125-.054,3.1,3.1,0,0,0,.459-.077q.268-.018.268-.089l-.042-.024a.416.416,0,0,0-.1.048.039.039,0,0,1-.03-.012,1.215,1.215,0,0,0-.316.054h-.018a.62.62,0,0,1-.089-.012.511.511,0,0,0-.2.072.644.644,0,0,0-.286.054,1.267,1.267,0,0,0-.167-.036c-.018.012-.03.018-.03.024a2.679,2.679,0,0,0-.358.1.3.3,0,0,1-.077-.012.026.026,0,0,0-.018.006.462.462,0,0,0-.143.066.527.527,0,0,0-.2.042c-.024-.012-.042-.03-.042-.042s.036-.048.107-.077a.322.322,0,0,0,.1-.048c.006,0,.012.006.018.006a.085.085,0,0,0,.036-.012.129.129,0,0,1,.113-.072c.006,0,.018.012.03.036h.036c.006-.042.012-.06.03-.06h.006c.006.036.018.054.024.054h.036a.44.44,0,0,1,.119-.036.165.165,0,0,0,.054.006h.018c.018,0,.024,0,.03-.006a.219.219,0,0,0,.125-.072h.006a.133.133,0,0,1,.06.018c.113-.012.173-.03.173-.054.018,0,.042.006.072.006a.119.119,0,0,0,.048-.018.062.062,0,0,0,.024.006.7.7,0,0,1,.179-.03c.006,0,.024-.012.054-.042a.119.119,0,0,0,.048.018c.054,0,.077-.024.077-.072,0-.012-.006-.012-.012-.012H18.05l-.03.024h-.012c-.006,0-.018-.018-.036-.048a.165.165,0,0,0,.072-.03q.107-.009.107-.036h.018a.229.229,0,0,1,.066.054.016.016,0,0,0,.018-.018c0-.012.024-.024.072-.042,0-.006-.012-.018-.042-.03.006,0,.018-.006.048-.012.054.018.083.03.089.03l.1-.03c.03.006.042.018.042.036h.012q.018-.009.018-.018a.155.155,0,0,1,.066.018.161.161,0,0,0,.048-.018v-.018l-.024-.006V-10.7l.042-.006h.083a.529.529,0,0,0,.143-.036h.006a.085.085,0,0,1,.072.036c.036-.006.06-.012.066-.012a.168.168,0,0,1,.048.006q0,.018-.054.036a.223.223,0,0,1-.048-.006l-.03.03h-.018q-.215.009-.215.036v.006c0,.006,0,.012.012.012h.036c.036,0,.125-.018.274-.042h.018a5.3,5.3,0,0,1-.209.6c-.209.685-.4,1.293-.572,1.829-.137.536-.25.93-.334,1.174a6.326,6.326,0,0,1-.173.7,7.535,7.535,0,0,0-.2,1.4v.155a1.189,1.189,0,0,0,.072.423.589.589,0,0,0,.572.405h.077A1.356,1.356,0,0,0,18.663-4a2.656,2.656,0,0,0,1.031-.584.659.659,0,0,0,.173-.244l-.006-.012a.046.046,0,0,1-.018.006c-.113.125-.185.185-.22.185h-.006c0-.006.006-.024.012-.048a1.09,1.09,0,0,0,.22-.2c.1-.107.22-.256.375-.453.06-.089.107-.137.137-.137.012-.048.024-.077.036-.077a.645.645,0,0,0,.161-.215,1.037,1.037,0,0,0,.232-.4c.054-.143.083-.22.083-.232a.013.013,0,0,0-.012-.012c-.036,0-.072.042-.119.125-.042.066-.173.262-.393.6h-.006a.205.205,0,0,0-.054.006h-.006c.042-.054.06-.083.06-.1-.012,0-.03-.012-.042-.042q.072-.027.072-.036v-.006c-.012,0-.03-.012-.06-.036-.006,0-.03.018-.066.06v.03c0,.006.006.018.03.036v.006c0,.006-.018.012-.042.012a.291.291,0,0,1-.054.089v.006a.044.044,0,0,0,.012.036l-.006.03c0,.006-.066.072-.191.2a2.018,2.018,0,0,1-.191.209,1.153,1.153,0,0,1-.417.375c-.006,0-.012-.006-.018-.024a.067.067,0,0,0-.06.054,1.077,1.077,0,0,1-.661.405.348.348,0,0,1-.113-.024c-.113-.066-.167-.209-.167-.429V-4.94a3.871,3.871,0,0,1,.072-.608.468.468,0,0,1,.077-.322c.256-.459.507-.983.763-1.567.316-.7.477-1.067.477-1.091q.152-.358.25-.644a8.051,8.051,0,0,0,.322-.852c.06-.131.119-.322.2-.56,0,0,.006,0,.018.012h.024a.036.036,0,0,0,.036-.018V-10.6l-.018-.024c-.03,0-.048.012-.048.036h-.006V-10.6l.048-.113c.048,0,.072.006.072.012a.345.345,0,0,1,.185.036v.006l-.042.006h-.083l-.012.006c.012.03.024.048.03.048h.006a.5.5,0,0,1,.083-.024.064.064,0,0,1,.042.012l-.024.024v.012l.03.006a.709.709,0,0,1,.1-.018l.03.006h.066a.391.391,0,0,0,.077-.018c.119.018.268.03.453.042a.255.255,0,0,1,.113.054c.006,0,.024-.012.054-.024a.165.165,0,0,0,.077.036h.006a.137.137,0,0,0,.054-.018c.25.036.453.072.608.1.054,0,.077-.006.083-.012l.209.054h.042c.125-.024.191-.083.191-.173v-.042a.573.573,0,0,0-.31-.447,2.875,2.875,0,0,0-1.228-.155H21.25c-.155,0-.328.006-.53.018.137-.429.25-.81.334-1.132a6.433,6.433,0,0,0,.161-.977v-.042a.228.228,0,0,0-.03-.113.315.315,0,0,1-.077.036H21.1c-.024,0-.036-.036-.036-.1a.076.076,0,0,0-.077-.083l-.012.006a.026.026,0,0,1-.018-.006.36.36,0,0,0-.048-.077H20.9c-.006,0-.012.012-.024.03l-.012-.006a.276.276,0,0,0-.167-.036Zm-.113,2.509a5.914,5.914,0,0,0,.179-.6,6.575,6.575,0,0,0,.286-1.234c.018-.161.048-.238.077-.238h.012l.006.072v.054a3.755,3.755,0,0,1-.125.775,8.778,8.778,0,0,1-.316,1.168.89.89,0,0,1-.113.006Zm-.495.042c.036-.1.06-.155.06-.155a8.673,8.673,0,0,1,.423-1.126,1.2,1.2,0,0,1,.209-.417h.006v.03a.605.605,0,0,1-.042.149.73.73,0,0,1-.042.191c0,.006.006.012.006.018l-.018.089c-.054.2-.083.316-.083.334v.03l.006.012c.024-.018.036-.036.036-.048h.006c.006,0,.012,0,.012.012v.077a.124.124,0,0,1-.042.089c-.03.131-.048.2-.066.2l.006.03a.368.368,0,0,1-.024.1H20.5q-.018,0-.018-.036v-.018c.018,0,.03-.006.03-.012v-.024a.085.085,0,0,0-.012-.036.213.213,0,0,0,.054-.155.013.013,0,0,0-.012-.012c-.018,0-.03.036-.042.1a.445.445,0,0,0-.054.2.367.367,0,0,1,.006.077v.077c-.006.036-.012.06-.024.06h-.006v-.012h-.012v.048l-.012-.006c-.006,0-.012,0-.012.012a.209.209,0,0,1,.012.06v.006l-.006.03a1.222,1.222,0,0,1-.334.036Zm.763-1.168h.006v.012a.827.827,0,0,1-.054.244c-.006,0-.012-.006-.018-.024l.024-.089A.735.735,0,0,0,20.821-12.276ZM20.7-11.8c.018-.1.036-.149.054-.149,0,.054-.012.083-.024.083-.012.06-.018.083-.03.083Zm-.018.036h.012v.036a.036.036,0,0,1-.018.036v-.03Zm-.119.143c0-.006,0-.012.012-.012v.018h-.012Zm-.089.185a.013.013,0,0,1,.012-.012l.006.03-.006.012a.013.013,0,0,1-.012-.012Zm.089.1a.137.137,0,0,1,.048-.107v.03a.15.15,0,0,0-.036.1h-.012Zm-.03.1h.006v.024h-.006Zm-.024.06h.006v.03H20.5Zm.185.107a.525.525,0,0,1,.125.036v.024l-.03.006h-.054l-.036.03h-.018l-.012-.006A.476.476,0,0,0,20.69-11.072Zm-.167.006s.024,0,.077.006a.134.134,0,0,0,.042-.006.476.476,0,0,0-.024.089h-.03a.2.2,0,0,0-.077-.042A.112.112,0,0,0,20.523-11.066Zm-.209.1c0-.06.018-.089.048-.089h.006a.412.412,0,0,1-.012.089l-.012-.006h-.018Zm-.286-.06a2.054,2.054,0,0,1,.28-.024h.006a.159.159,0,0,0-.048.1h-.054a.328.328,0,0,0-.125.03c-.018,0-.048-.006-.089-.006A.621.621,0,0,1,20.028-11.024Zm.924.036a.022.022,0,0,1,.006-.018.623.623,0,0,1,.173-.036.242.242,0,0,1,.1.03v.006a.369.369,0,0,0-.066.018h-.012L21-11.012c-.006,0-.012.006-.012.024Zm-3.075.34c.006-.03.042-.048.107-.048.1-.036.155-.06.161-.06.143,0,.22-.012.22-.03l.191-.048a.828.828,0,0,0,.22-.048.957.957,0,0,0,.346-.054.321.321,0,0,1,.048.006l.042-.006h.006l-.042.1-.072-.006a.194.194,0,0,0-.077.024c-.089.012-.262.036-.512.077h-.107c-.018.012-.024.018-.024.024a1,1,0,0,0-.215.036l-.036-.006h-.018a.56.56,0,0,1-.226.036Zm3.152-.125a.061.061,0,0,1,.03-.048h.006a.045.045,0,0,0,.012.024c-.012.024-.024.03-.03.03h-.018Zm-1.788.006h.012c.012,0,.012.006.012.012l-.012.018c-.006,0-.006,0-.012-.012Zm1.192.036c.018.018.03.024.036.024l.03-.006a.036.036,0,0,1,.024.006,1.257,1.257,0,0,1-.1.3,8.507,8.507,0,0,1-.3.84,7.562,7.562,0,0,1-.453,1.1,3.627,3.627,0,0,1-.167.423c-.089.173-.173.352-.25.53a1.6,1.6,0,0,0-.179.316c-.072.161-.125.25-.155.262a.006.006,0,0,0-.006-.006.577.577,0,0,1,.077-.143,2.309,2.309,0,0,1,.149-.34c.107-.268.173-.417.2-.459a1.232,1.232,0,0,1,.167-.364,1.81,1.81,0,0,1,.149-.381,3.752,3.752,0,0,1,.149-.364l.125-.334a.8.8,0,0,0,.107-.31c.083-.2.137-.346.167-.435a1.63,1.63,0,0,0,.113-.346A1.056,1.056,0,0,0,20.433-10.732Zm-.495.036c.125-.006.226-.012.316-.024h.012l-.006.012v.072c-.024,0-.036.012-.036.042h-.012c-.012,0-.012-.012-.012-.036H20.2c-.018.006-.024.018-.024.042v.03c.006.012.018.024.024.024a.246.246,0,0,1-.036.113.23.23,0,0,1-.066.185.553.553,0,0,1-.083.215l-.024-.018h-.012v.006L19.98-10c-.006.018-.018.03-.024.03a.183.183,0,0,0,.024.054.079.079,0,0,1-.018.042l-.024-.012a.018.018,0,0,0-.012.006.674.674,0,0,0,.006.083.192.192,0,0,0-.036.107c-.024,0-.036,0-.036-.006,0,.012-.006.012-.012.012l.012.042v.077l-.006.042h-.012q-.018,0-.018-.036v-.018h-.018a.328.328,0,0,0-.042.113.052.052,0,0,0,.018.036.085.085,0,0,1-.012.036L19.76-9.4c-.012,0-.018.018-.03.048a.168.168,0,0,0,.006.048c-.006.012-.006.018-.012.018-.012.077-.03.113-.042.113a.013.013,0,0,1-.012-.012l-.012.006.006.03v.036l-.024-.03c-.018,0-.054.089-.107.274a.828.828,0,0,0-.1.238l-.072.161c-.143.31-.238.518-.274.626v.006l.006.042L19.081-7.8a.074.074,0,0,0-.018.012q-.027.072-.036.072a2.075,2.075,0,0,0-.191.387H18.83c.03-.113.161-.512.387-1.2.244-.781.459-1.442.638-1.973.018-.012.03-.024.03-.042a.013.013,0,0,0-.012-.012c.03-.089.048-.137.048-.143A.022.022,0,0,1,19.939-10.7Zm-2.318.06v-.006a.735.735,0,0,1,.143-.042h.012a.013.013,0,0,1,.012.012l-.006.012a.554.554,0,0,0-.125.036A.085.085,0,0,1,17.621-10.637Zm1.138-.048a.013.013,0,0,0-.012.012v.006a.022.022,0,0,1,.018.006c0-.006,0-.012.012-.012a.013.013,0,0,0-.012-.012Zm.87.048q.009-.018.018-.018v.036Q19.629-10.628,19.629-10.637Zm-.441.1c0-.012,0-.012.006-.012.006-.06.024-.089.048-.089v.012c.03.018.042.036.042.054A.808.808,0,0,0,19.188-10.542Zm.518-.06a.036.036,0,0,1,.018-.036h.012q.018.009.018.018v.018a.04.04,0,0,1-.024.042A.04.04,0,0,1,19.706-10.6Zm-1.031-.03a.36.36,0,0,1-.077.048c0,.006.012.012.03.018.06-.018.089-.024.089-.03S18.705-10.613,18.675-10.631Zm-.56.042c-.006,0-.012,0-.012.012l.006.012.036-.006v-.006a.013.013,0,0,0-.012-.012Zm.423.012c-.036.012-.072.018-.113.03v.012c.083-.006.119-.018.119-.03v-.012Zm1.555,0a.036.036,0,0,0-.036.018v.018h.03q.018-.009.018-.018v-.006A.013.013,0,0,0,20.094-10.577Zm-.149.006-.024.006v.006c0,.006,0,.012.012.012h.012c.012,0,.012-.006.012-.012S19.957-10.571,19.945-10.571Zm-2.11.03c.03.006.066.018.107.03v.012a.223.223,0,0,0-.1.03.2.2,0,0,0-.1-.024H17.74a.06.06,0,0,0-.066.054.161.161,0,0,1-.077-.042.167.167,0,0,1,.03-.048c.03.012.048.024.048.03a.1.1,0,0,1,.06-.03h.024l.03.018C17.817-10.524,17.835-10.53,17.835-10.542Zm1.663.024q0-.018.036-.018a.045.045,0,0,0,.006.024l-.024.012a.074.074,0,0,1-.018-.012Zm-1.263-.018a.006.006,0,0,0-.006.006c-.06.012-.089.024-.089.03v.012c0,.012,0,.012.012.012h.018l.054-.018c.012,0,.03.006.048.006l.018-.018C18.288-10.518,18.27-10.53,18.234-10.536Zm.149.012v.006H18.4v-.006Zm-1.49.048c0-.006.006-.012.024-.018s.012.012.018.024-.006.012-.012.012h-.006Zm.471-.018h.03v.012h-.018C17.37-10.482,17.364-10.482,17.364-10.494Zm2.181.042c0-.006.012-.018.042-.03q0,.063-.036.072l-.006-.03Zm-.608-.03a.336.336,0,0,0-.072.024c0,.024.006.03.012.03h.042c.048,0,.066-.006.066-.018C18.967-10.47,18.955-10.482,18.938-10.482Zm-.107.006a.165.165,0,0,0-.072.03c.012.024.024.036.042.036s.018-.012.042-.048C18.83-10.464,18.83-10.47,18.83-10.476Zm-.4,2.562a.11.11,0,0,0,.1-.077,2.553,2.553,0,0,1,.089-.25.811.811,0,0,1,.036-.143c.167-.56.28-.906.334-1.037l.191-.566a1.284,1.284,0,0,0,.072-.215c.042-.179.083-.268.113-.268.006,0,.006.012.006.036a1.934,1.934,0,0,0-.066.22.458.458,0,0,0-.077.232,1.947,1.947,0,0,0-.083.268.529.529,0,0,0-.06.155.447.447,0,0,0-.042.119c-.036.113-.072.25-.119.417a.6.6,0,0,0-.06.226,4.543,4.543,0,0,0-.244.763.241.241,0,0,0-.036.066l.006.036v.006a.319.319,0,0,0-.066.167c-.03.1-.054.167-.06.2s.012.048.024.048h.018c.006,0,.012-.012.018-.03s-.006-.036-.006-.054V-7.6a.1.1,0,0,1,.048-.077c-.006-.024-.012-.042-.012-.048a.97.97,0,0,0,.077-.185c.012-.1.03-.155.042-.155a.5.5,0,0,1,.054-.167c.018-.149.042-.22.077-.22L18.8-8.521l.06-.012-.018.024V-8.5a.365.365,0,0,0,.03.036h.006a.1.1,0,0,0,.048-.018l-.006-.054a.043.043,0,0,1,.024-.042h.018c.006,0,.012.006.018.012H19q.018-.009.018-.018C19.009-8.6,19-8.611,19-8.611h-.054a.268.268,0,0,0,.012-.083v-.012h-.024a.126.126,0,0,1-.048.036V-8.7a.163.163,0,0,1,.024-.03c.024-.1.048-.155.077-.155a.226.226,0,0,0-.006-.048.117.117,0,0,1,.066-.1.352.352,0,0,1,.048.03l-.024.119L19.051-8.9h-.018a.013.013,0,0,0-.012.012v.012c.018.018.024.024.024.03v.006a.036.036,0,0,1-.018.036l-.036-.006a.1.1,0,0,1-.03.012v.024a.7.7,0,0,1,.089.066h.018c.012-.06.03-.089.042-.089h.03a.046.046,0,0,0,.006.018c-.012.054-.03.113-.054.191a1.143,1.143,0,0,1-.06.155h-.006c0-.018-.006-.024-.018-.024l.018-.024v-.012h-.042q0-.036-.018-.036h-.006q-.018.009-.018.018V-8.5a.511.511,0,0,1,.018.1v.006l-.054.036-.024.1c0,.012.012.024.036.03.012-.018.024-.03.03-.03s.006.012.006.018a.3.3,0,0,1-.018.083.273.273,0,0,1-.036-.024H18.9a.052.052,0,0,0-.036.018c0,.018.006.03.012.03h.054c0,.006.006.018.006.024a.562.562,0,0,1-.072.2,3.028,3.028,0,0,1-.125.423v.012q.009.018.018.018h.006l.024-.018v.018a.036.036,0,0,1-.018.036c-.03,0-.048.018-.06.06-.03.1-.048.155-.06.155H18.64c-.006,0-.018-.018-.042-.054h-.006a.13.13,0,0,1-.03.083c0,.006.006.012.006.018.054.012.077.024.077.036-.006.036-.012.06-.024.06H18.6c-.012,0-.012-.012-.018-.03h-.012a.1.1,0,0,1-.03.066v.012c.036.012.048.024.048.036a.254.254,0,0,0-.048.125v.036h-.006c-.042-.018-.06-.036-.06-.066v-.006a.606.606,0,0,1,.024-.1v-.03a.013.013,0,0,0-.012-.012h-.006l-.048.048a1.422,1.422,0,0,1-.06.149.476.476,0,0,0-.054.209c0,.1-.012.161-.042.185v.024l.066.048.018-.012h.012a.181.181,0,0,1-.077.072l.006-.03-.006-.012c-.024,0-.048.06-.066.185a.651.651,0,0,1-.077.328.079.079,0,0,0,.018.042h-.006c-.03,0-.042.024-.048.072a.293.293,0,0,0,.018.072.213.213,0,0,0-.042.042.146.146,0,0,0,.006.042,1.341,1.341,0,0,1-.042.149v.006a.14.14,0,0,0,.072.137.1.1,0,0,0-.036.077A.105.105,0,0,0,18-5.083l.006.012a.253.253,0,0,0-.03.072v.006a.211.211,0,0,0,.024.1c.03.018.042.03.042.036-.036,0-.054.06-.066.167a.909.909,0,0,0,.006.107.658.658,0,0,0-.006.1A.071.071,0,0,0,18-4.439V-4.4H18c-.03-.018-.042-.054-.042-.107v-.024c0-.006-.006-.012-.024-.018s-.018.018-.024.048q.018.08.018.089L17.9-4.421c-.024,0-.048-.119-.077-.364a3.344,3.344,0,0,0,.036-.352,1.168,1.168,0,0,0-.012-.161.549.549,0,0,1,.03-.119s0-.048-.006-.143a.134.134,0,0,1,.03-.089.538.538,0,0,0,.06-.286A.077.077,0,0,0,17.93-6h-.006c-.018,0-.054.1-.1.286h-.006c-.006,0-.012-.012-.018-.042.006-.048.012-.077.018-.077.024-.185.042-.28.06-.28a1.276,1.276,0,0,1,.042-.28.566.566,0,0,1,.054-.2.927.927,0,0,1,.083-.31.86.86,0,0,1,.024-.137.77.77,0,0,0,.048-.226,3.894,3.894,0,0,0,.161-.572.291.291,0,0,0,.048-.143.273.273,0,0,0,.036-.1c.006-.03.066-.22.185-.572a.835.835,0,0,1,.083-.274,1.259,1.259,0,0,1,.054-.191,1.634,1.634,0,0,0,.089-.31.274.274,0,0,0,.077-.2,1.25,1.25,0,0,0,.1-.28.5.5,0,0,1,.089-.256c.048-.179.072-.268.089-.268h.036v.024a.079.079,0,0,0-.018.042v.054l-.042.048v.006l.03.03v.012H19.14l-.018-.012h-.006c-.006,0-.012,0-.012.012l.012.042a.056.056,0,0,1-.036.048,1.2,1.2,0,0,1-.036.161c-.024,0-.042.054-.048.161-.03.03-.048.048-.048.054s.006.012.006.024c-.024.083-.036.131-.036.131.018.018.024.03.03.03,0,.018-.012.042-.048.066a.693.693,0,0,0-.089.286c0,.012.006.018.03.018a.115.115,0,0,0-.048.1v.072c-.03,0-.06.054-.1.167v.018s.012.012.036.042v.018c-.03,0-.06.024-.083.072a.394.394,0,0,1,.006.066.29.29,0,0,0-.066.113l.012.018V-8.5c-.018.024-.036.042-.048.042-.012.066-.024.1-.036.1a.178.178,0,0,1-.03.119c-.018.083-.036.149-.048.2A.064.064,0,0,0,18.455-8c0,.006-.018.018-.048.042C18.407-7.931,18.413-7.919,18.431-7.913Zm1.228-2.515a.05.05,0,0,1,.024-.042c.012,0,.012.006.012.012v.006c0,.03-.006.048-.024.054A.039.039,0,0,0,19.659-10.428Zm-2.92.012c0-.024.018-.042.048-.048h.06v.006c0,.012-.03.03-.083.048h-.012Zm.542-.048h.012v.006h-.012Zm1.394.018-.048.048.006.012a.589.589,0,0,0,.089-.006V-10.4a.11.11,0,0,0-.042-.048Zm-1.692.054c0-.024.06-.042.185-.042h.024c0,.006-.006.012-.03.018l-.054-.006a.789.789,0,0,0-.107.042.026.026,0,0,0-.018-.006Zm-.173.018.077-.018c0,.006.006.006.024.006q0,.018-.036.018H16.81Zm-.352.143A.246.246,0,0,0,16.5-10.3a.955.955,0,0,1,.262-.066h.018a.052.052,0,0,1-.054.048h-.048l-.048.042h-.06a.392.392,0,0,1-.107.054h-.006Zm3.051-.06h.006v.036c0,.006-.006.024-.012.054-.036-.012-.054-.018-.054-.024v-.012l.006-.012C19.492-10.261,19.51-10.279,19.51-10.291Zm.083.03c.018.006.024.012.024.018l-.018.024q-.018-.009-.018-.018v-.006Zm-.423.036h.012v.006H19.17Zm.28.077c.006,0,.012,0,.012.006v.006C19.456-10.136,19.45-10.136,19.45-10.148Zm-.1.62c.012-.06.024-.089.03-.089a.234.234,0,0,1,.066-.2c.03-.155.06-.232.083-.232h.006l.006.03a.106.106,0,0,1-.024.06l-.089.3a.255.255,0,0,0-.06.137,3.341,3.341,0,0,1-.137.465c-.006,0-.024-.018-.048-.048v-.012c.018,0,.042-.018.06-.054a.888.888,0,0,1,.113-.34A.036.036,0,0,1,19.349-9.528Zm.048-.465a.033.033,0,0,1,.024-.036c.006,0,.006.006.012.018l-.018.06H19.4l-.006-.03Zm.59.018A.013.013,0,0,1,20-9.987H20v.024c0,.006,0,.012-.012.012S19.992-9.969,19.986-9.975Zm-.608.054c.006,0,.012.006.018.024s-.006.018-.012.018h-.018C19.367-9.886,19.373-9.9,19.379-9.922Zm.524.107q-.018.009-.018.018c0,.012,0,.012.012.012s.012-.006.018-.018S19.909-9.814,19.9-9.814Zm-.6.083c0-.012.012-.018.024-.024l.012.018v.006c0,.006-.006.012-.024.018A.074.074,0,0,1,19.307-9.731Zm.536.072a.013.013,0,0,0-.012.012v.024h.018v-.024Zm-.745.28h.03a.022.022,0,0,0,.006.018l-.03.119H19.1Zm.608.066V-9.3h.012v-.018Zm-.024.054v.006h.012V-9.26Zm-.56.1c.024-.054.042-.083.054-.083a.022.022,0,0,0,.006.018.074.074,0,0,0-.012.018v.072a.057.057,0,0,1-.042.054L19.1-9.111h-.036l-.012.006a.085.085,0,0,0-.012-.036c.012-.024.024-.03.03-.03h.006Zm-.077.149V-9L19.057-9A.013.013,0,0,0,19.045-9.016ZM19.164-9h.03a.013.013,0,0,1,.012.012v.012a.7.7,0,0,1-.06.161H19.14a.038.038,0,0,1-.03-.036A.407.407,0,0,0,19.164-9Zm-.471.179c-.006,0-.012,0-.012.012v.006H18.7v-.018Zm.173.215c0-.006,0-.012.006-.012V-8.6h-.006Zm-.2,0h.006V-8.6h-.006ZM19-8.4c.012-.018.018-.024.024-.024v.006l-.012.036c-.006,0-.012,0-.012-.006Zm-.173.1a.042.042,0,0,0-.024.03c0,.006.006.012.024.018s.03-.012.03-.018v-.018a.013.013,0,0,0-.012-.012Zm-.054.167v.012c0,.006,0,.012.012.012a.013.013,0,0,0,.012-.012.013.013,0,0,0-.012-.012Zm.089.048c-.018.006-.03.012-.03.024v.018c0,.006,0,.006.012.006h.018q.018-.009.018-.018v-.012Q18.884-8.071,18.866-8.08Zm-.137.089v.006h.012v-.006Zm-.012.072c-.006,0-.012.012-.024.036v.006H18.7l.03-.006V-7.89l-.006-.03Zm.054.018a.013.013,0,0,0-.012.012v.03c0,.006.012.018.03.024s.018-.012.024-.03a.013.013,0,0,0-.012-.012l.012-.018V-7.9Zm-.3.006q-.018.009-.018.018v.012c0,.006.006.012.024.018s.012-.006.018-.024C18.479-7.89,18.473-7.9,18.467-7.9Zm.3.072a.013.013,0,0,0-.012.012v.006a.013.013,0,0,0,.012.012.013.013,0,0,0,.012-.012v-.018Zm-.316.018a.045.045,0,0,0-.03.048h-.036a.064.064,0,0,0-.042.018.638.638,0,0,1-.036.137c.006.066.036.1.077.1.006,0,.018-.024.036-.066a.261.261,0,0,1,.042-.179v-.042A.013.013,0,0,0,18.449-7.806Zm.238,0c-.03,0-.048.018-.06.066v.024l.006.054a.215.215,0,0,0-.024.03V-7.6q.009.018.018.018h.012a.688.688,0,0,1,.077-.173A.082.082,0,0,0,18.687-7.806Zm0,.226a.013.013,0,0,0-.012.012v.006a.013.013,0,0,0,.012.012h.006v-.03Zm-.215.089c-.03.012-.042.042-.042.089a.859.859,0,0,0-.06.22.013.013,0,0,1,.012.012c.024-.012.036-.024.036-.042a1.115,1.115,0,0,1,.066-.238v-.03A.013.013,0,0,0,18.473-7.49Zm.077.083q-.018,0-.054.036c0,.036.006.06.024.06h.006c.012,0,.024-.024.042-.077,0-.012,0-.018-.012-.018Zm-.244.006a.119.119,0,0,0-.072.048v.006c.006.03.018.042.024.042s.012-.006.012-.018h.042a.074.074,0,0,0,.018-.012v-.048C18.33-7.389,18.324-7.4,18.306-7.4Zm.435.048h.006v.012h-.006Zm-.119.006c-.006,0-.012,0-.012.012v.006l.006.012c.024,0,.03-.006.03-.012S18.64-7.341,18.622-7.347Zm-.393.083c-.024.018-.042.072-.054.173a.67.67,0,0,0-.048.22c.006.054.018.077.036.077h.006c.012-.006.03-.048.048-.131l-.024-.042c0-.006.006-.012.012-.018.048-.036.066-.107.066-.22v-.012a.049.049,0,0,0-.03-.048Zm.137.149c-.018.012-.03.018-.03.024v.024l.012.018c.018-.012.03-.018.03-.024v-.006A.085.085,0,0,0,18.366-7.115Zm-.054.167q-.018.009-.018.018v.018c.012.018.018.024.024.024s.018-.012.018-.018v-.018C18.324-6.936,18.318-6.948,18.312-6.948Zm-.012.077h-.006c-.018,0-.03.036-.042.107v.018a.013.013,0,0,0,.012.012h.012a.482.482,0,0,0,.03-.125Zm.155.06c.048,0,.066.018.066.054a.414.414,0,0,1-.024.1h-.006l-.018-.018-.03-.119Zm-.286.042c-.03,0-.06.024-.1.072a.406.406,0,0,1-.03.125c0,.012.018.018.066.024l.018-.012a1.591,1.591,0,0,1,.06-.2Zm.244.143.03-.006h.024l.006.036v.006c-.024.06-.054.119-.089.2h-.018c-.006,0-.012-.006-.018-.024s.024-.03.048-.048a.626.626,0,0,0-.012-.077.1.1,0,0,1,.048-.054c0-.006-.006-.012-.018-.012Zm-.375.083a.338.338,0,0,0-.06.2.167.167,0,0,0,.006.036H18a.7.7,0,0,0,.1-.089l-.018-.06v-.018a.073.073,0,0,0,.018-.054Q18.091-6.534,18.038-6.543Zm.268.25h.006v.006a.076.076,0,0,1-.03.042A.272.272,0,0,1,18.306-6.293Zm2.294.072c-.024,0-.048.024-.066.066v.024l.012.018.072-.083V-6.2Q20.609-6.221,20.6-6.221ZM17.93-6.1a.013.013,0,0,0-.012.012c.024.03.042.042.066.042h.006A.013.013,0,0,0,18-6.054V-6.06A.072.072,0,0,0,17.93-6.1Zm2.61.006a.013.013,0,0,0-.012.012l.006.012a.013.013,0,0,0,.012-.012Zm-.1.054q-.018.009-.018.018v.012a.013.013,0,0,0,.012.012h.012q.018-.009.018-.018v-.012a.013.013,0,0,0-.012-.012Zm-.1.042a.061.061,0,0,0-.03.036c0,.012.006.018.012.018h.006c.024-.018.03-.024.03-.03v-.012c0-.006,0-.012-.012-.012Zm.077.024a.123.123,0,0,0-.083.054l.024.012c.024,0,.042-.018.06-.054Zm-2.354.066a.013.013,0,0,0-.012.012c0,.012,0,.012.012.012h.006v-.012Zm-.024.054a.022.022,0,0,1-.006.018.045.045,0,0,0,.012.024l.018-.012c-.006-.018-.012-.03-.018-.03Zm.179.143a.013.013,0,0,1,.012-.012v.048c-.006,0-.006-.006-.012-.012Zm-.417.048q.009,0,.018.036l-.012.119v.024a.156.156,0,0,1-.018.06c-.012.113-.024.173-.042.173h-.006l-.006-.042v-.018a.239.239,0,0,1,.018-.089C17.764-5.554,17.782-5.643,17.811-5.661Zm.417.03h.012l.006.042c-.006.042-.018.06-.03.06H18.2c-.006,0-.006,0-.012-.012v-.006A.179.179,0,0,1,18.228-5.631Zm2.038.042c.006,0,.012,0,.012.012l-.006.012c-.012,0-.012-.006-.012-.012Zm-2.08.191H18.2c0,.006.006.018.006.024a.713.713,0,0,1-.018.083h-.012a.022.022,0,0,0-.006-.018Zm1.913.1c.024-.042.048-.066.077-.066h.006q-.018.072-.036.072h-.018Zm-2.139.042c-.006,0-.012,0-.012.012v.018l.012.012c.018,0,.03-.006.03-.012v-.006C17.99-5.238,17.978-5.25,17.96-5.256Zm-.018.107c-.012.012-.024.018-.024.024v.006c0,.012.006.012.012.012h.018c0-.006,0-.006.006-.018S17.948-5.136,17.942-5.148Zm2.121.083a.013.013,0,0,0-.012.012v.012a.013.013,0,0,0,.012-.012Zm-2.044.024a.013.013,0,0,1,.012-.012h.006a.013.013,0,0,1,.012.012v.018A.054.054,0,0,0,18.02-5.041Zm.06.018a.036.036,0,0,0,.024-.006h.006l-.006.024h-.024ZM17.925-5q-.009,0-.018.036v.03c.012.012.018.024.024.024h.012c.006,0,.012-.012.018-.024C17.954-4.982,17.948-5,17.942-5ZM20-5v.012h.018V-5Zm-.036.048q-.018.009-.018.018v.012h.018q.018-.009.018-.018c0-.006,0-.012-.012-.012ZM19.9-4.9v.012h.012V-4.9Zm-1.818.066a.036.036,0,0,0,.024-.006.966.966,0,0,0,.018.125.148.148,0,0,0-.006.054c-.012,0-.024-.018-.036-.048,0-.054.006-.089.006-.107A.026.026,0,0,1,18.085-4.833Zm-.173.006c0,.036.006.077.006.131l-.006.042c.012.036.018.054.03.054h.006v-.018a.932.932,0,0,0-.024-.209Zm.179.34c0-.006,0-.006.012-.012h.012q.018.009.018.018v.036c-.024,0-.036-.006-.042-.024Zm4.039.56a.8.8,0,0,0,.2-.024,2.136,2.136,0,0,0,.876-.542,3.327,3.327,0,0,0,.715-.7c-.066,0-.274.173-.626.512a1.723,1.723,0,0,1-.661.405L22.6-4.278a.293.293,0,0,1,.113-.125,1.293,1.293,0,0,0,.334-.268,1.194,1.194,0,0,0,.232-.191c.018-.066.036-.1.048-.1l.089.012q.027,0,.036-.107a.144.144,0,0,1,.077.036l.072-.089c.191-.125.286-.22.286-.28a.535.535,0,0,0-.143.048.238.238,0,0,1,.036-.1c.179-.167.268-.286.268-.364a.559.559,0,0,0-.125.113c-.06.113-.107.167-.143.173-.858.769-1.472,1.15-1.841,1.15-.1,0-.155-.03-.155-.1a2.582,2.582,0,0,1,.5-1.108,11.771,11.771,0,0,1,1.549-1.853.921.921,0,0,1,.584-.346.327.327,0,0,1,.191.06.384.384,0,0,1,.125.25l-.012.107.006.048c-.083.232-.143.352-.179.364H24.49l-.018.012a.422.422,0,0,1-.066.125c-.012-.006-.018-.012-.03-.012a.226.226,0,0,0-.083.149c.006.03.018.042.042.042a.561.561,0,0,0,.209-.072,3.172,3.172,0,0,0-.3.459c.006,0,.006,0,.006.006a.159.159,0,0,0,.06-.024c.077-.125.185-.286.31-.477a.856.856,0,0,0,.149-.107h.006l-.441.661c0,.006.03.024.1.048l.006-.107c.024.054.054.083.083.083a.128.128,0,0,0,.077-.054.016.016,0,0,0,.018.018c.006,0,.012-.018.018-.048-.006,0-.006,0-.006-.006l-.018.006a.27.27,0,0,0,.03-.054.121.121,0,0,0,.066-.042c0,.018,0,.024-.006.024a.569.569,0,0,1-.131.274.054.054,0,0,0-.03-.006c-.006,0-.012.018-.018.06-.322.423-.5.656-.53.7v.012a.045.045,0,0,0,.024-.012,3.422,3.422,0,0,0,.393-.441.3.3,0,0,0-.066.161h.018l.048-.03a.376.376,0,0,1-.042.131l-.012-.006c.006-.024.012-.048.018-.066s-.012-.012-.024-.012-.018.03-.03.1l.018.089a.257.257,0,0,0-.024.083.223.223,0,0,0-.036-.06c-.012,0-.018.012-.018.042a1.458,1.458,0,0,0-.131.614.362.362,0,0,0,.083.286.743.743,0,0,0,.554.334.478.478,0,0,0,.119-.012,1.222,1.222,0,0,0,.751-.369c.274-.244.447-.393.512-.435.757-.781,1.15-1.168,1.174-1.174a.208.208,0,0,0,.119-.191c-.066,0-.1-.018-.1-.048l.006-.155a.342.342,0,0,1-.006-.072c0-.018-.03-.03-.1-.036a.1.1,0,0,0-.06.03.987.987,0,0,1-.113.161,2.407,2.407,0,0,0-.3.31.319.319,0,0,0-.089.077l.006.018.036-.012v.012a.285.285,0,0,0-.048.066,5.51,5.51,0,0,1-.745.715c0-.012.024-.042.066-.089-.03,0-.066.024-.113.077s-.244.209-.578.459a.864.864,0,0,1-.286.2c-.03,0-.048-.036-.048-.113a5.148,5.148,0,0,1,.62-1.794,4.071,4.071,0,0,0,.56-1.6.554.554,0,0,0-.209-.447c-.042-.113-.083-.167-.131-.167-.024,0-.054.024-.1.072l-.006-.03H25.7c0,.006,0,.012-.006.012a.735.735,0,0,0-.167.256c-.179.459-.274.685-.28.691l-.024-.149h-.012l-.012.22c.006,0,.006,0,.006.006a.182.182,0,0,1-.054.077c-.006,0-.012-.012-.024-.03l.024-.042-.006-.155c.018-.024.03-.036.03-.042A1.468,1.468,0,0,0,25.086-8c.06.018.089.042.089.066h.012q-.018-.072-.036-.072a.43.43,0,0,1-.119-.054c0-.006,0-.006.006-.006a.271.271,0,0,1,.113.048.691.691,0,0,0-.137-.244.181.181,0,0,0-.077-.054.551.551,0,0,0-.405-.143,1.936,1.936,0,0,0-.59.125,2.971,2.971,0,0,0-.775.524l-.3.268a10.923,10.923,0,0,0-.852.977,3.589,3.589,0,0,0-.864,1.806.762.762,0,0,0,.155.477.93.93,0,0,0,.733.358ZM24.592-7.9h-.036l.024-.03C24.586-7.931,24.592-7.919,24.592-7.9ZM22.071-5.583a.3.3,0,0,1-.048-.113q0-.045.161-.215l-.048-.036v-.012c.006-.024.018-.03.024-.03s.012.024.036.042h.012a.314.314,0,0,1,.036-.089c-.012-.006-.018-.018-.018-.048a.336.336,0,0,0,.161-.089.668.668,0,0,1,.107-.161.308.308,0,0,1-.036-.042.271.271,0,0,0,.119-.03,8.964,8.964,0,0,1,.644-.739,1.563,1.563,0,0,1,.423-.346c0,.036-.119.167-.369.387a2.526,2.526,0,0,1-.238.28c-.28.334-.459.53-.53.6a1.073,1.073,0,0,1-.179.286c-.131.113-.191.173-.191.191C22.137-5.655,22.113-5.6,22.071-5.583Zm3.087-1.758a.016.016,0,0,1-.018-.018.038.038,0,0,1,.03-.036l.006.018Q25.176-7.341,25.158-7.341Zm.554.149-.006-.036c0-.018.018-.03.042-.042l.018.042A.1.1,0,0,1,25.712-7.192Zm-1.019.364a.67.67,0,0,1,.22-.226,1.412,1.412,0,0,0,.1-.143.054.054,0,0,1,.03.018.748.748,0,0,0-.054.125A.942.942,0,0,1,24.693-6.829Zm.965-.215-.006-.03a.114.114,0,0,1,.066-.107A.145.145,0,0,1,25.658-7.043Zm-.912,2.557a.473.473,0,0,1-.03-.226l-.006-.072a.277.277,0,0,0,.042-.107.159.159,0,0,0-.03-.077v-.006l.072-.066a.4.4,0,0,1,.042-.161c-.006-.018-.018-.03-.024-.03a.092.092,0,0,0-.066.042c-.024.137-.042.2-.054.2a.337.337,0,0,0-.06.161c0,.018.012.024.03.03q-.045.054-.072.054a.223.223,0,0,1-.066.006.389.389,0,0,1,.012-.066,2.318,2.318,0,0,0,.143-.358h-.012a.239.239,0,0,1-.06.1.086.086,0,0,1-.012-.042v-.012l.048-.1-.006-.018a.055.055,0,0,1,.042-.054h.006l.006.072c.048,0,.072-.036.072-.113l-.006-.042c-.042-.006-.066-.018-.066-.042l-.006.006-.006.018-.006-.006.006-.012c.113-.1.173-.161.173-.185s-.012-.018-.018-.018-.03.03-.048.083a.079.079,0,0,1-.042-.018v-.012a.083.083,0,0,0,.03-.06A.2.2,0,0,0,24.8-5.7q0-.027.054-.036a.249.249,0,0,1-.018-.054c0-.006.012-.018.036-.024v.066l.006.012a.061.061,0,0,0,.048-.03V-5.78a.326.326,0,0,1-.06-.107l.072.006c.018,0,.024-.018.024-.054,0-.012-.018-.018-.048-.024a.184.184,0,0,1,.012-.048l.048.03a.079.079,0,0,0,.018-.042c.03-.042.048-.066.048-.083s.072-.179.209-.507a1.619,1.619,0,0,1,.22-.507l.03.018a.013.013,0,0,1-.012.012.854.854,0,0,0-.1.3,1.582,1.582,0,0,0-.191.495.1.1,0,0,0,.018.048c0,.006,0,.006-.006.006l-.03-.006a1.053,1.053,0,0,0-.072.191.086.086,0,0,0,.012.042.185.185,0,0,0-.072.018l.006.036a.371.371,0,0,0-.066.1.958.958,0,0,1-.042.226q.009.018.018.018a.072.072,0,0,0,.054-.036.569.569,0,0,1,.072-.25l-.006-.036c0-.006.018-.012.048-.03a.622.622,0,0,1,.048-.209l.054.012c.018,0,.036-.03.054-.1a3.059,3.059,0,0,0,.167-.381c.03-.125.066-.191.107-.191a.72.72,0,0,1,.03.137l-.006.018c-.048.006-.072.018-.072.042l-.036.107a.194.194,0,0,0-.06.107.291.291,0,0,1,.024.077l-.006.012-.048-.012c-.006,0-.006.006-.012.012l.018.03-.006.024a.3.3,0,0,1,.012.077c-.054,0-.083.018-.083.054a.269.269,0,0,1,.018.077.085.085,0,0,1-.012.036l-.06-.012c-.006,0-.012.012-.018.03l.03.042c-.042.006-.06.012-.06.024a.257.257,0,0,1,.024.083.09.09,0,0,1-.024.066L25.17-5.8c-.012,0-.018.006-.024.024a.188.188,0,0,0,.042.066.239.239,0,0,1-.048.1v.054a4.9,4.9,0,0,0-.179.524l-.107.167.024.048a.3.3,0,0,1-.024.077l.006.054a.152.152,0,0,1-.042.072l.006.048C24.818-4.517,24.788-4.487,24.747-4.487Zm.846-2.372c-.03,0-.048-.006-.054-.03s.024-.06.083-.125l.072.03a.134.134,0,0,1-.006.06l-.036-.006C25.629-6.93,25.6-6.906,25.593-6.859Zm-.667.054a.063.063,0,0,1,.03-.054v.006C24.955-6.835,24.943-6.823,24.925-6.805Zm-.131.036c-.006,0-.006,0-.006-.006A.045.045,0,0,1,24.83-6.8.061.061,0,0,1,24.794-6.769Zm.739.191c0-.006-.006-.006-.012-.012l.018-.024c.006,0,.012.012.018.024Zm-.781.018c-.006,0-.006,0-.006-.006a.152.152,0,0,0,.012-.042h.012Zm-1.806-.012c-.006,0-.012-.006-.012-.024C22.947-6.6,22.947-6.585,22.947-6.573Zm1.734.232h-.006l.125-.226a.013.013,0,0,1,.012.012l.012-.006A.565.565,0,0,1,24.681-6.34Zm-1.829-.1h-.024c.006-.018.018-.03.03-.03Zm1.716.1h-.03a.051.051,0,0,0-.018-.036v-.012a.107.107,0,0,0,.048-.024Zm-.048.137L24.5-6.233v-.006c.024,0,.036.012.036.024Zm.459.089h-.006a.126.126,0,0,1,.06-.119l.006.012c0,.018-.006.03-.018.03C25.021-6.144,25.009-6.12,24.979-6.12Zm-2.831-.012h-.03v-.006l.018-.006.012.006Zm2.1.316a.662.662,0,0,0,.185-.2l-.006-.012-.054.006c-.012-.036-.024-.054-.03-.054l-.012.006c-.018-.042-.03-.06-.036-.06a.573.573,0,0,0-.143.2l.042.006a.109.109,0,0,0,.036-.048c.006,0,.018.018.042.054a.144.144,0,0,0-.036.077C24.24-5.822,24.24-5.816,24.252-5.816Zm1.43,1.15c0-.012.006-.024.024-.042v-.012H25.7a.084.084,0,0,1-.066.024l.018-.048c.083-.066.2-.167.352-.3q.08-.107.107-.107h.048l-.018-.036c0-.012.012-.024.036-.042a.842.842,0,0,0,.256-.268l-.018-.006a.18.18,0,0,0-.066.042c.03-.048.054-.072.066-.072.066,0,.1-.006.1-.024a1.1,1.1,0,0,1,.2-.149v-.006h-.024a1.287,1.287,0,0,0,.191-.191L26.9-5.9l.107-.072-.006-.018a.247.247,0,0,0-.072.042h-.012a.518.518,0,0,1,.1-.1q0-.036.161-.072c-.018.03-.083.113-.191.25-.512.53-.775.793-.793.793-.125.137-.209.209-.25.209A1.346,1.346,0,0,1,25.682-4.666ZM24.33-5.953h-.024l-.054-.036.042-.077a.113.113,0,0,1,.042.083Zm2.741-.066a.041.041,0,0,1,.018-.024V-6.06l-.018.012-.012-.006c-.006.006-.006.012-.006.024S27.065-6.018,27.071-6.018Zm-4.97.024-.03-.018c.006-.018.012-.024.018-.024l.024.018A.024.024,0,0,0,22.1-5.995Zm2.33.369a.064.064,0,0,1-.024-.03c.036-.119.072-.179.1-.179A1.6,1.6,0,0,1,24.431-5.625Zm-.286-.089.024-.006v-.012a.1.1,0,0,1-.03-.012A.045.045,0,0,0,24.145-5.715Zm-.03.089.03-.054a.006.006,0,0,1-.006-.006l-.042.018C24.1-5.643,24.109-5.625,24.115-5.625Zm-2.056-.018c.006,0,.012-.006.012-.018s-.006-.012-.018-.012Zm-.1.1h-.048L21.91-5.56a.063.063,0,0,1,.072-.072A.264.264,0,0,1,21.964-5.542Zm2.11-.024c-.006-.006-.006-.018-.006-.036-.012,0-.018.006-.024.03,0,.006.006.006.018.006Zm-.083.083.03-.054-.012-.006-.072.006Q23.972-5.482,23.99-5.482Zm-2.1.1a.153.153,0,0,1,.042-.113C21.916-5.423,21.9-5.387,21.886-5.387Zm4.255.131h-.006l.024-.042a.573.573,0,0,0,.131-.113l-.006.018C26.231-5.3,26.183-5.256,26.141-5.256Zm-.072-.066c.036-.03.048-.042.048-.054s0-.012-.012-.012-.018.018-.036.048ZM21.8-5.28c0-.048.012-.066.036-.066l.048.012C21.886-5.315,21.862-5.3,21.8-5.28ZM24.711-5.3a.085.085,0,0,1-.036-.012l.012-.018.03.006Zm-1.019.077-.077-.024c.024-.054.048-.077.066-.077s.036.012.036.048A.1.1,0,0,1,23.692-5.22Zm.572.012.012-.054c.006,0,.018.012.024.036S24.288-5.208,24.264-5.208Zm-.685.083h-.042V-5.16c0-.006.012-.012.036-.012Zm2.276.036h-.036c0-.006.006-.012.018-.012S25.855-5.095,25.855-5.089Zm-1.621.042-.006-.018c.006-.012.012-.018.012-.03h.012C24.246-5.065,24.24-5.047,24.234-5.047Zm.328.149L24.538-4.9c0-.006,0-.012.012-.012S24.562-4.91,24.562-4.9Zm.048.215c-.03,0-.042-.006-.042-.012s0-.018.012-.018A.028.028,0,0,1,24.61-4.684Zm4.552.751a2.576,2.576,0,0,0,.942-.226,2.533,2.533,0,0,0,.554-.316v-.012l-.131.03v-.006c.036-.054.113-.077.226-.077.054,0,.161-.1.328-.292.131-.083.215-.143.256-.173a.617.617,0,0,1,.2-.209,3.157,3.157,0,0,1,.262-.238,1.309,1.309,0,0,0,.262-.328.942.942,0,0,0,.28-.507c0-.036-.018-.048-.054-.048a.217.217,0,0,0-.113.179h-.006l-.024-.024-.012.006A1.089,1.089,0,0,1,32-5.911a.415.415,0,0,1-.113-.024l-.006.006.006.018a.165.165,0,0,1-.054-.006,1.277,1.277,0,0,0-.1.1v.06l-.042-.006c-.072.03-.107.066-.107.113l.089.006c.036-.048.06-.072.089-.072.006,0,.012.012.012.042l-.006.03a.5.5,0,0,0-.137.119l.006.012a1.444,1.444,0,0,1-.167.119c-.167.155-.274.232-.328.232v-.006l.018-.024a5.971,5.971,0,0,0,.435-.411.049.049,0,0,0-.048.03.14.14,0,0,1-.048-.012l-.018.012c0,.03-.012.048-.042.048a.733.733,0,0,1-.161.149l-.018-.006a.607.607,0,0,1-.155.119,4.3,4.3,0,0,1-1.937.781c-.3,0-.453-.143-.453-.423a3.228,3.228,0,0,1,.721-1.621,6.034,6.034,0,0,1,.751-.924,1.5,1.5,0,0,1,.828-.518c.042,0,.066.036.066.1a2.435,2.435,0,0,1-.4.709c0-.006-.006-.024-.012-.066a.487.487,0,0,0,.03-.1l-.006-.006a.239.239,0,0,0-.083.125c-.042.155-.083.316-.137.483a.12.12,0,0,0-.054.107c0,.131.042.2.113.2h.042c.077,0,.191-.1.34-.31a2.647,2.647,0,0,0,.518-1.2v-.072a.332.332,0,0,0-.161-.274,1.047,1.047,0,0,0-.5-.131q-.733,0-1.913,1.305a3.962,3.962,0,0,0-1.108,2.157.971.971,0,0,0,.22.614.938.938,0,0,0,.5.352h.012v-.036A2.346,2.346,0,0,0,29.161-3.933Zm2.121-3.891h-.006v-.03h.006Zm-2.259,1.15-.018-.012c.042-.048.066-.066.072-.066s.024.012.024.018-.012.012-.042.03C29.048-6.686,29.036-6.674,29.024-6.674Zm-.632.989a.626.626,0,0,0-.077-.012.164.164,0,0,1,.06-.113c.066-.149.113-.22.131-.22a4.338,4.338,0,0,0,.34-.477c.06-.048.089-.083.089-.119h.006a.35.35,0,0,1-.173.34c-.03.083-.06.137-.089.149a2.476,2.476,0,0,1-.232.34.068.068,0,0,0,.018.048h-.018a.079.079,0,0,0-.042-.018c-.012,0-.018.012-.024.042Zm3.54-.155c-.006,0-.018-.012-.024-.03s.012-.012.036-.018c.006,0,.006.006.012.018S31.95-5.858,31.932-5.84Zm-.119.1a.1.1,0,0,1,.06-.077A.076.076,0,0,1,31.813-5.738Zm.1.072h-.042c.036-.077.072-.113.1-.113l.006.036A.077.077,0,0,0,31.908-5.667Zm-3.951.435h-.012V-5.28l.024-.125-.006-.083a.145.145,0,0,1,.06-.077.652.652,0,0,1,.107-.173c.006,0,.012.006.012.018C28.059-5.393,28-5.232,27.958-5.232Zm.352-.137h-.024c0-.012.024-.03.06-.072.012,0,.012.006.012.018C28.357-5.387,28.345-5.369,28.309-5.369Zm3.1.119a.013.013,0,0,0-.012-.012l.012-.018.024.006C31.432-5.268,31.42-5.256,31.408-5.25Zm-3.29.608a.294.294,0,0,1-.03-.107l.006-.077a1.113,1.113,0,0,1,.149-.435h.006l.006.042a3.355,3.355,0,0,1-.089.334C28.166-4.725,28.148-4.642,28.118-4.642Zm2.95-.548h-.012c0-.03.018-.042.048-.042C31.1-5.2,31.092-5.19,31.068-5.19ZM27.9-5.059a.1.1,0,0,0-.018-.042l.024-.042L27.9-5.178a.085.085,0,0,0,.012-.036l.048.018v.018c-.006.018-.012.024-.018.024C27.94-5.089,27.928-5.059,27.9-5.059Zm3.158-.018h-.018c0-.018.012-.03.036-.03C31.074-5.089,31.068-5.077,31.062-5.077Zm-.125.113c-.006,0-.012-.006-.012-.018L30.937-5l.018.012Zm-2.974.036c-.006,0-.018-.012-.024-.024s.012-.03.018-.03l.036.024C27.981-4.94,27.969-4.928,27.963-4.928Zm-.072.143c-.018-.006-.024-.018-.024-.024a.04.04,0,0,1,.03-.024V-4.8Zm2.89.2H30.77c0-.03.018-.042.066-.042v.006A.057.057,0,0,1,30.782-4.588Zm-2.652.1a.088.088,0,0,1-.054-.077c0-.006.012-.018.042-.042a.092.092,0,0,1,.042.072C28.154-4.5,28.142-4.487,28.13-4.487Zm7.847-9.171a.742.742,0,0,0-.518.191,2.451,2.451,0,0,0-.411.906c-.209.691-.375,1.2-.489,1.532-.03.006-.2.03-.53.072a12.806,12.806,0,0,0-1.835.334,2.294,2.294,0,0,0-.512.191.172.172,0,0,0-.072.113.528.528,0,0,0-.066.113v.179l.012.018.042-.006h.012l.012.006c0,.024-.006.06-.012.113.024.048.048.077.083.077s.077-.042.167-.119q0-.045.358-.125c.03,0,.072.006.113.006s.077-.012.077-.018a1.491,1.491,0,0,0,.256-.054.524.524,0,0,0,.107.012.018.018,0,0,0,.012-.006A.144.144,0,0,1,32.9-10.2c.012,0,.054,0,.125.006a.748.748,0,0,0,.125-.054,3.1,3.1,0,0,0,.459-.077q.268-.018.268-.089l-.042-.024a.416.416,0,0,0-.1.048.039.039,0,0,1-.03-.012,1.215,1.215,0,0,0-.316.054h-.018a.62.62,0,0,1-.089-.012.511.511,0,0,0-.2.072.644.644,0,0,0-.286.054,1.266,1.266,0,0,0-.167-.036c-.018.012-.03.018-.03.024a2.679,2.679,0,0,0-.358.1.3.3,0,0,1-.077-.012.026.026,0,0,0-.018.006.462.462,0,0,0-.143.066.527.527,0,0,0-.2.042c-.024-.012-.042-.03-.042-.042s.036-.048.107-.077a.322.322,0,0,0,.1-.048c.006,0,.012.006.018.006a.085.085,0,0,0,.036-.012.129.129,0,0,1,.113-.072c.006,0,.018.012.03.036H32.2c.006-.042.012-.06.03-.06h.006c.006.036.018.054.024.054h.036a.44.44,0,0,1,.119-.036.165.165,0,0,0,.054.006h.018c.018,0,.024,0,.03-.006a.219.219,0,0,0,.125-.072h.006a.133.133,0,0,1,.06.018c.113-.012.173-.03.173-.054.018,0,.042.006.072.006A.119.119,0,0,0,33-10.41a.062.062,0,0,0,.024.006.7.7,0,0,1,.179-.03c.006,0,.024-.012.054-.042a.119.119,0,0,0,.048.018c.054,0,.077-.024.077-.072,0-.012-.006-.012-.012-.012h-.006l-.03.024H33.32c-.006,0-.018-.018-.036-.048a.165.165,0,0,0,.072-.03q.107-.009.107-.036h.018a.229.229,0,0,1,.066.054.016.016,0,0,0,.018-.018c0-.012.024-.024.072-.042,0-.006-.012-.018-.042-.03.006,0,.018-.006.048-.012.054.018.083.03.089.03l.1-.03c.03.006.042.018.042.036h.012q.018-.009.018-.018a.155.155,0,0,1,.066.018.161.161,0,0,0,.048-.018v-.018l-.024-.006V-10.7l.042-.006h.083a.529.529,0,0,0,.143-.036h.006a.085.085,0,0,1,.072.036c.036-.006.06-.012.066-.012a.168.168,0,0,1,.048.006q0,.018-.054.036a.223.223,0,0,1-.048-.006l-.03.03H34.3q-.215.009-.215.036v.006c0,.006,0,.012.012.012h.036c.036,0,.125-.018.274-.042h.018a5.3,5.3,0,0,1-.209.6c-.209.685-.4,1.293-.572,1.829-.137.536-.25.93-.334,1.174a6.326,6.326,0,0,1-.173.7,7.535,7.535,0,0,0-.2,1.4v.155a1.189,1.189,0,0,0,.072.423.589.589,0,0,0,.572.405h.077A1.356,1.356,0,0,0,33.975-4a2.656,2.656,0,0,0,1.031-.584.659.659,0,0,0,.173-.244l-.006-.012a.046.046,0,0,1-.018.006c-.113.125-.185.185-.22.185h-.006c0-.006.006-.024.012-.048a1.09,1.09,0,0,0,.22-.2c.1-.107.22-.256.375-.453.06-.089.107-.137.137-.137.012-.048.024-.077.036-.077a.645.645,0,0,0,.161-.215,1.037,1.037,0,0,0,.232-.4c.054-.143.083-.22.083-.232a.013.013,0,0,0-.012-.012c-.036,0-.072.042-.119.125-.042.066-.173.262-.393.6h-.006A.205.205,0,0,0,35.6-5.7H35.6c.042-.054.06-.083.06-.1-.012,0-.03-.012-.042-.042q.072-.027.072-.036v-.006c-.012,0-.03-.012-.06-.036-.006,0-.03.018-.066.06v.03c0,.006.006.018.03.036v.006c0,.006-.018.012-.042.012a.291.291,0,0,1-.054.089v.006a.044.044,0,0,0,.012.036l-.006.03c0,.006-.066.072-.191.2a2.018,2.018,0,0,1-.191.209,1.153,1.153,0,0,1-.417.375c-.006,0-.012-.006-.018-.024a.067.067,0,0,0-.06.054,1.077,1.077,0,0,1-.661.405.348.348,0,0,1-.113-.024c-.113-.066-.167-.209-.167-.429V-4.94a3.871,3.871,0,0,1,.072-.608.468.468,0,0,1,.077-.322c.256-.459.507-.983.763-1.567.316-.7.477-1.067.477-1.091q.152-.358.25-.644a8.05,8.05,0,0,0,.322-.852c.06-.131.119-.322.2-.56,0,0,.006,0,.018.012h.024a.036.036,0,0,0,.036-.018V-10.6l-.018-.024c-.03,0-.048.012-.048.036h-.006V-10.6l.048-.113c.048,0,.072.006.072.012a.345.345,0,0,1,.185.036v.006l-.042.006h-.083l-.012.006c.012.03.024.048.03.048h.006a.5.5,0,0,1,.083-.024.064.064,0,0,1,.042.012l-.024.024v.012l.03.006a.709.709,0,0,1,.1-.018l.03.006h.066a.392.392,0,0,0,.077-.018c.119.018.268.03.453.042a.255.255,0,0,1,.113.054c.006,0,.024-.012.054-.024a.165.165,0,0,0,.077.036h.006a.137.137,0,0,0,.054-.018c.25.036.453.072.608.1.054,0,.077-.006.083-.012l.209.054h.042c.125-.024.191-.083.191-.173v-.042a.573.573,0,0,0-.31-.447,2.875,2.875,0,0,0-1.228-.155h-.244c-.155,0-.328.006-.53.018.137-.429.25-.81.334-1.132a6.433,6.433,0,0,0,.161-.977v-.042a.228.228,0,0,0-.03-.113.315.315,0,0,1-.077.036h-.006c-.024,0-.036-.036-.036-.1a.076.076,0,0,0-.077-.083l-.012.006a.026.026,0,0,1-.018-.006.36.36,0,0,0-.048-.077h-.006c-.006,0-.012.012-.024.03l-.012-.006a.276.276,0,0,0-.167-.036Zm-.113,2.509a5.916,5.916,0,0,0,.179-.6,6.575,6.575,0,0,0,.286-1.234c.018-.161.048-.238.077-.238h.012l.006.072v.054a3.755,3.755,0,0,1-.125.775,8.778,8.778,0,0,1-.316,1.168.89.89,0,0,1-.113.006Zm-.495.042c.036-.1.06-.155.06-.155a8.673,8.673,0,0,1,.423-1.126,1.2,1.2,0,0,1,.209-.417h.006v.03a.606.606,0,0,1-.042.149.73.73,0,0,1-.042.191c0,.006.006.012.006.018l-.018.089c-.054.2-.083.316-.083.334v.03l.006.012c.024-.018.036-.036.036-.048h.006c.006,0,.012,0,.012.012v.077a.124.124,0,0,1-.042.089c-.03.131-.048.2-.066.2l.006.03a.368.368,0,0,1-.024.1h-.006q-.018,0-.018-.036v-.018c.018,0,.03-.006.03-.012v-.024a.085.085,0,0,0-.012-.036.213.213,0,0,0,.054-.155.013.013,0,0,0-.012-.012c-.018,0-.03.036-.042.1a.445.445,0,0,0-.054.2.367.367,0,0,1,.006.077v.077c-.006.036-.012.06-.024.06h-.006v-.012h-.012v.048l-.012-.006c-.006,0-.012,0-.012.012a.209.209,0,0,1,.012.06v.006l-.006.03a1.222,1.222,0,0,1-.334.036Zm.763-1.168h.006v.012a.827.827,0,0,1-.054.244c-.006,0-.012-.006-.018-.024l.024-.089A.735.735,0,0,0,36.132-12.276Zm-.125.471c.018-.1.036-.149.054-.149,0,.054-.012.083-.024.083-.012.06-.018.083-.03.083Zm-.018.036H36v.036a.036.036,0,0,1-.018.036v-.03Zm-.119.143c0-.006,0-.012.012-.012v.018H35.87Zm-.089.185a.013.013,0,0,1,.012-.012l.006.03-.006.012a.013.013,0,0,1-.012-.012Zm.089.1a.137.137,0,0,1,.048-.107v.03a.15.15,0,0,0-.036.1H35.87Zm-.03.1h.006v.024H35.84Zm-.024.06h.006v.03h-.006Zm.185.107a.525.525,0,0,1,.125.036v.024l-.03.006h-.054l-.036.03h-.018l-.012-.006A.477.477,0,0,0,36-11.072Zm-.167.006s.024,0,.077.006a.134.134,0,0,0,.042-.006.476.476,0,0,0-.024.089H35.9a.2.2,0,0,0-.077-.042A.112.112,0,0,0,35.834-11.066Zm-.209.1c0-.06.018-.089.048-.089h.006a.412.412,0,0,1-.012.089l-.012-.006h-.018Zm-.286-.06a2.054,2.054,0,0,1,.28-.024h.006a.159.159,0,0,0-.048.1h-.054a.328.328,0,0,0-.125.03c-.018,0-.048-.006-.089-.006A.621.621,0,0,1,35.34-11.024Zm.924.036a.022.022,0,0,1,.006-.018.623.623,0,0,1,.173-.036.242.242,0,0,1,.1.03v.006a.369.369,0,0,0-.066.018h-.012l-.155-.024c-.006,0-.012.006-.012.024Zm-3.075.34c.006-.03.042-.048.107-.048.1-.036.155-.06.161-.06.143,0,.22-.012.22-.03l.191-.048a.829.829,0,0,0,.22-.048.957.957,0,0,0,.346-.054.321.321,0,0,1,.048.006l.042-.006h.006l-.042.1-.072-.006a.194.194,0,0,0-.077.024c-.089.012-.262.036-.512.077h-.107c-.018.012-.024.018-.024.024a1,1,0,0,0-.215.036l-.036-.006h-.018a.56.56,0,0,1-.226.036Zm3.152-.125a.061.061,0,0,1,.03-.048h.006a.045.045,0,0,0,.012.024c-.012.024-.024.03-.03.03h-.018Zm-1.788.006h.012c.012,0,.012.006.012.012l-.012.018c-.006,0-.006,0-.012-.012Zm1.192.036c.018.018.03.024.036.024l.03-.006a.036.036,0,0,1,.024.006,1.257,1.257,0,0,1-.1.3,8.507,8.507,0,0,1-.3.84,7.562,7.562,0,0,1-.453,1.1,3.627,3.627,0,0,1-.167.423c-.089.173-.173.352-.25.53a1.6,1.6,0,0,0-.179.316c-.072.161-.125.25-.155.262a.006.006,0,0,0-.006-.006.577.577,0,0,1,.077-.143,2.309,2.309,0,0,1,.149-.34c.107-.268.173-.417.2-.459a1.232,1.232,0,0,1,.167-.364,1.81,1.81,0,0,1,.149-.381,3.752,3.752,0,0,1,.149-.364l.125-.334a.8.8,0,0,0,.107-.31c.083-.2.137-.346.167-.435a1.63,1.63,0,0,0,.113-.346A1.056,1.056,0,0,0,35.745-10.732Zm-.495.036c.125-.006.226-.012.316-.024h.012l-.006.012v.072c-.024,0-.036.012-.036.042h-.012c-.012,0-.012-.012-.012-.036h-.006c-.018.006-.024.018-.024.042v.03c.006.012.018.024.024.024a.246.246,0,0,1-.036.113.23.23,0,0,1-.066.185.553.553,0,0,1-.083.215l-.024-.018h-.012v.006l.006.036c-.006.018-.018.03-.024.03a.183.183,0,0,0,.024.054.079.079,0,0,1-.018.042l-.024-.012a.018.018,0,0,0-.012.006.674.674,0,0,0,.006.083.192.192,0,0,0-.036.107c-.024,0-.036,0-.036-.006,0,.012-.006.012-.012.012l.012.042v.077l-.006.042h-.012q-.018,0-.018-.036v-.018h-.018a.328.328,0,0,0-.042.113.052.052,0,0,0,.018.036.085.085,0,0,1-.012.036L35.072-9.4c-.012,0-.018.018-.03.048a.168.168,0,0,0,.006.048c-.006.012-.006.018-.012.018-.012.077-.03.113-.042.113a.013.013,0,0,1-.012-.012l-.012.006.006.03v.036l-.024-.03c-.018,0-.054.089-.107.274a.828.828,0,0,0-.1.238l-.072.161c-.143.31-.238.518-.274.626v.006l.006.042L34.392-7.8a.074.074,0,0,0-.018.012q-.027.072-.036.072a2.075,2.075,0,0,0-.191.387h-.006c.03-.113.161-.512.387-1.2.244-.781.459-1.442.638-1.973.018-.012.03-.024.03-.042a.013.013,0,0,0-.012-.012c.03-.089.048-.137.048-.143A.022.022,0,0,1,35.25-10.7Zm-2.318.06v-.006a.735.735,0,0,1,.143-.042h.012a.013.013,0,0,1,.012.012l-.006.012a.554.554,0,0,0-.125.036A.085.085,0,0,1,32.932-10.637Zm1.138-.048a.013.013,0,0,0-.012.012v.006a.022.022,0,0,1,.018.006c0-.006,0-.012.012-.012a.013.013,0,0,0-.012-.012Zm.87.048q.009-.018.018-.018v.036Q34.941-10.628,34.941-10.637Zm-.441.1c0-.012,0-.012.006-.012.006-.06.024-.089.048-.089v.012c.03.018.042.036.042.054A.808.808,0,0,0,34.5-10.542Zm.518-.06a.036.036,0,0,1,.018-.036h.012q.018.009.018.018v.018a.04.04,0,0,1-.024.042A.04.04,0,0,1,35.018-10.6Zm-1.031-.03a.36.36,0,0,1-.077.048c0,.006.012.012.03.018.06-.018.089-.024.089-.03S34.017-10.613,33.987-10.631Zm-.56.042c-.006,0-.012,0-.012.012l.006.012.036-.006v-.006a.013.013,0,0,0-.012-.012Zm.423.012c-.036.012-.072.018-.113.03v.012c.083-.006.119-.018.119-.03v-.012Zm1.555,0a.036.036,0,0,0-.036.018v.018h.03q.018-.009.018-.018v-.006A.013.013,0,0,0,35.405-10.577Zm-.149.006-.024.006v.006c0,.006,0,.012.012.012h.012c.012,0,.012-.006.012-.012S35.268-10.571,35.256-10.571Zm-2.11.03c.03.006.066.018.107.03v.012a.223.223,0,0,0-.1.03.2.2,0,0,0-.1-.024h-.006a.06.06,0,0,0-.066.054.161.161,0,0,1-.077-.042.167.167,0,0,1,.03-.048c.03.012.048.024.048.03a.1.1,0,0,1,.06-.03h.024l.03.018C33.129-10.524,33.147-10.53,33.147-10.542Zm1.663.024q0-.018.036-.018a.045.045,0,0,0,.006.024l-.024.012a.074.074,0,0,1-.018-.012Zm-1.263-.018a.006.006,0,0,0-.006.006c-.06.012-.089.024-.089.03v.012c0,.012,0,.012.012.012h.018l.054-.018c.012,0,.03.006.048.006l.018-.018C33.6-10.518,33.582-10.53,33.546-10.536Zm.149.012v.006h.012v-.006Zm-1.49.048c0-.006.006-.012.024-.018s.012.012.018.024-.006.012-.012.012h-.006Zm.471-.018h.03v.012h-.018C32.682-10.482,32.676-10.482,32.676-10.494Zm2.181.042c0-.006.012-.018.042-.03q0,.063-.036.072l-.006-.03Zm-.608-.03a.336.336,0,0,0-.072.024c0,.024.006.03.012.03h.042c.048,0,.066-.006.066-.018C34.279-10.47,34.267-10.482,34.249-10.482Zm-.107.006a.165.165,0,0,0-.072.03c.012.024.024.036.042.036s.018-.012.042-.048C34.142-10.464,34.142-10.47,34.142-10.476Zm-.4,2.562a.11.11,0,0,0,.1-.077,2.553,2.553,0,0,1,.089-.25.811.811,0,0,1,.036-.143c.167-.56.28-.906.334-1.037l.191-.566a1.284,1.284,0,0,0,.072-.215c.042-.179.083-.268.113-.268.006,0,.006.012.006.036a1.934,1.934,0,0,0-.066.22.457.457,0,0,0-.077.232,1.948,1.948,0,0,0-.083.268.529.529,0,0,0-.06.155.447.447,0,0,0-.042.119c-.036.113-.072.25-.119.417a.6.6,0,0,0-.06.226,4.543,4.543,0,0,0-.244.763.241.241,0,0,0-.036.066l.006.036v.006a.319.319,0,0,0-.066.167c-.03.1-.054.167-.06.2s.012.048.024.048h.018c.006,0,.012-.012.018-.03s-.006-.036-.006-.054V-7.6a.1.1,0,0,1,.048-.077c-.006-.024-.012-.042-.012-.048a.969.969,0,0,0,.077-.185c.012-.1.03-.155.042-.155a.5.5,0,0,1,.054-.167c.018-.149.042-.22.077-.22l-.006-.072.06-.012-.018.024V-8.5a.365.365,0,0,0,.03.036h.006a.1.1,0,0,0,.048-.018l-.006-.054a.043.043,0,0,1,.024-.042h.018c.006,0,.012.006.018.012h.024q.018-.009.018-.018c-.012-.018-.018-.024-.024-.024h-.054a.268.268,0,0,0,.012-.083v-.012h-.024a.126.126,0,0,1-.048.036V-8.7a.163.163,0,0,1,.024-.03c.024-.1.048-.155.077-.155a.226.226,0,0,0-.006-.048.117.117,0,0,1,.066-.1A.352.352,0,0,1,34.4-9l-.024.119L34.363-8.9h-.018a.013.013,0,0,0-.012.012v.012c.018.018.024.024.024.03v.006a.036.036,0,0,1-.018.036L34.3-8.807a.1.1,0,0,1-.03.012v.024a.7.7,0,0,1,.089.066h.018c.012-.06.03-.089.042-.089h.03a.046.046,0,0,0,.006.018c-.012.054-.03.113-.054.191a1.144,1.144,0,0,1-.06.155h-.006c0-.018-.006-.024-.018-.024l.018-.024v-.012H34.3q0-.036-.018-.036h-.006q-.018.009-.018.018V-8.5a.511.511,0,0,1,.018.1v.006l-.054.036-.024.1c0,.012.012.024.036.03.012-.018.024-.03.03-.03s.006.012.006.018a.3.3,0,0,1-.018.083.273.273,0,0,1-.036-.024h-.006a.052.052,0,0,0-.036.018c0,.018.006.03.012.03h.054c0,.006.006.018.006.024a.562.562,0,0,1-.072.2,3.028,3.028,0,0,1-.125.423v.012q.009.018.018.018h.006l.024-.018v.018a.036.036,0,0,1-.018.036c-.03,0-.048.018-.06.06-.03.1-.048.155-.06.155h-.006c-.006,0-.018-.018-.042-.054H33.9a.13.13,0,0,1-.03.083c0,.006.006.012.006.018.054.012.077.024.077.036-.006.036-.012.06-.024.06H33.91c-.012,0-.012-.012-.018-.03H33.88a.1.1,0,0,1-.03.066v.012c.036.012.048.024.048.036a.254.254,0,0,0-.048.125v.036h-.006c-.042-.018-.06-.036-.06-.066v-.006a.606.606,0,0,1,.024-.1v-.03a.013.013,0,0,0-.012-.012H33.79l-.048.048a1.421,1.421,0,0,1-.06.149.476.476,0,0,0-.054.209c0,.1-.012.161-.042.185v.024l.066.048.018-.012h.012a.181.181,0,0,1-.077.072l.006-.03-.006-.012c-.024,0-.048.06-.066.185a.651.651,0,0,1-.077.328.079.079,0,0,0,.018.042h-.006c-.03,0-.042.024-.048.072a.293.293,0,0,0,.018.072.213.213,0,0,0-.042.042.146.146,0,0,0,.006.042,1.341,1.341,0,0,1-.042.149v.006a.14.14,0,0,0,.072.137A.1.1,0,0,0,33.4-5.2a.105.105,0,0,0-.089.113l.006.012A.253.253,0,0,0,33.29-5v.006a.211.211,0,0,0,.024.1c.03.018.042.03.042.036-.036,0-.054.06-.066.167a.909.909,0,0,0,.006.107.658.658,0,0,0-.006.1.071.071,0,0,0,.024.048V-4.4h-.006c-.03-.018-.042-.054-.042-.107v-.024c0-.006-.006-.012-.024-.018s-.018.018-.024.048q.018.08.018.089l-.024-.006c-.024,0-.048-.119-.077-.364a3.344,3.344,0,0,0,.036-.352,1.167,1.167,0,0,0-.012-.161.549.549,0,0,1,.03-.119s0-.048-.006-.143a.134.134,0,0,1,.03-.089.538.538,0,0,0,.06-.286A.077.077,0,0,0,33.242-6h-.006c-.018,0-.054.1-.1.286h-.006c-.006,0-.012-.012-.018-.042.006-.048.012-.077.018-.077.024-.185.042-.28.06-.28a1.276,1.276,0,0,1,.042-.28.566.566,0,0,1,.054-.2.927.927,0,0,1,.083-.31.86.86,0,0,1,.024-.137.77.77,0,0,0,.048-.226,3.894,3.894,0,0,0,.161-.572.291.291,0,0,0,.048-.143.273.273,0,0,0,.036-.1c.006-.03.066-.22.185-.572a.835.835,0,0,1,.083-.274A1.259,1.259,0,0,1,34-9.111a1.634,1.634,0,0,0,.089-.31.274.274,0,0,0,.077-.2,1.25,1.25,0,0,0,.1-.28.5.5,0,0,1,.089-.256c.048-.179.072-.268.089-.268h.036v.024a.079.079,0,0,0-.018.042v.054l-.042.048v.006l.03.03v.012h-.006l-.018-.012h-.006c-.006,0-.012,0-.012.012l.012.042a.056.056,0,0,1-.036.048,1.2,1.2,0,0,1-.036.161c-.024,0-.042.054-.048.161-.03.03-.048.048-.048.054s.006.012.006.024c-.024.083-.036.131-.036.131.018.018.024.03.03.03,0,.018-.012.042-.048.066a.693.693,0,0,0-.089.286c0,.012.006.018.03.018a.115.115,0,0,0-.048.1v.072c-.03,0-.06.054-.1.167v.018s.012.012.036.042v.018c-.03,0-.06.024-.083.072a.394.394,0,0,1,.006.066.29.29,0,0,0-.066.113l.012.018V-8.5c-.018.024-.036.042-.048.042-.012.066-.024.1-.036.1a.178.178,0,0,1-.03.119c-.018.083-.036.149-.048.2A.064.064,0,0,0,33.767-8c0,.006-.018.018-.048.042C33.719-7.931,33.725-7.919,33.743-7.913Zm1.228-2.515a.05.05,0,0,1,.024-.042c.012,0,.012.006.012.012v.006c0,.03-.006.048-.024.054A.039.039,0,0,0,34.97-10.428Zm-2.92.012c0-.024.018-.042.048-.048h.06v.006c0,.012-.03.03-.083.048h-.012Zm.542-.048H32.6v.006h-.012Zm1.394.018-.048.048.006.012a.589.589,0,0,0,.089-.006V-10.4a.11.11,0,0,0-.042-.048Zm-1.692.054c0-.024.06-.042.185-.042H32.5c0,.006-.006.012-.03.018l-.054-.006a.789.789,0,0,0-.107.042.026.026,0,0,0-.018-.006Zm-.173.018.077-.018c0,.006.006.006.024.006q0,.018-.036.018h-.066Zm-.352.143a.246.246,0,0,0,.042-.066.955.955,0,0,1,.262-.066h.018a.052.052,0,0,1-.054.048h-.048l-.048.042h-.06a.392.392,0,0,1-.107.054H31.77Zm3.051-.06h.006v.036c0,.006-.006.024-.012.054-.036-.012-.054-.018-.054-.024v-.012l.006-.012C34.8-10.261,34.821-10.279,34.821-10.291Zm.083.03c.018.006.024.012.024.018l-.018.024q-.018-.009-.018-.018v-.006Zm-.423.036h.012v.006h-.012Zm.28.077c.006,0,.012,0,.012.006v.006C34.768-10.136,34.762-10.136,34.762-10.148Zm-.1.62c.012-.06.024-.089.03-.089a.234.234,0,0,1,.066-.2c.03-.155.06-.232.083-.232h.006l.006.03a.106.106,0,0,1-.024.06l-.089.3a.255.255,0,0,0-.06.137,3.341,3.341,0,0,1-.137.465c-.006,0-.024-.018-.048-.048v-.012c.018,0,.042-.018.06-.054a.888.888,0,0,1,.113-.34A.036.036,0,0,1,34.66-9.528Zm.048-.465a.033.033,0,0,1,.024-.036c.006,0,.006.006.012.018l-.018.06h-.012l-.006-.03Zm.59.018a.013.013,0,0,1,.012-.012h.006v.024c0,.006,0,.012-.012.012S35.3-9.969,35.3-9.975Zm-.608.054c.006,0,.012.006.018.024s-.006.018-.012.018h-.018C34.678-9.886,34.684-9.9,34.69-9.922Zm.524.107q-.018.009-.018.018c0,.012,0,.012.012.012s.012-.006.018-.018S35.221-9.814,35.215-9.814Zm-.6.083c0-.012.012-.018.024-.024l.012.018v.006c0,.006-.006.012-.024.018A.074.074,0,0,1,34.619-9.731Zm.536.072a.013.013,0,0,0-.012.012v.024h.018v-.024Zm-.745.28h.03a.022.022,0,0,0,.006.018l-.03.119H34.41Zm.608.066V-9.3h.012v-.018Zm-.024.054v.006h.012V-9.26Zm-.56.1c.024-.054.042-.083.054-.083a.022.022,0,0,0,.006.018.074.074,0,0,0-.012.018v.072a.057.057,0,0,1-.042.054l-.024-.024H34.38l-.012.006a.085.085,0,0,0-.012-.036c.012-.024.024-.03.03-.03h.006Zm-.077.149V-9L34.368-9A.013.013,0,0,0,34.357-9.016ZM34.476-9h.03a.013.013,0,0,1,.012.012v.012a.7.7,0,0,1-.06.161h-.006a.038.038,0,0,1-.03-.036A.407.407,0,0,0,34.476-9ZM34-8.825c-.006,0-.012,0-.012.012v.006h.018v-.018Zm.173.215c0-.006,0-.012.006-.012V-8.6h-.006Zm-.2,0h.006V-8.6h-.006Zm.34.215c.012-.018.018-.024.024-.024v.006l-.012.036c-.006,0-.012,0-.012-.006Zm-.173.1a.042.042,0,0,0-.024.03c0,.006.006.012.024.018s.03-.012.03-.018v-.018a.013.013,0,0,0-.012-.012Zm-.054.167v.012c0,.006,0,.012.012.012a.013.013,0,0,0,.012-.012.013.013,0,0,0-.012-.012Zm.089.048c-.018.006-.03.012-.03.024v.018c0,.006,0,.006.012.006h.018q.018-.009.018-.018v-.012Q34.2-8.071,34.178-8.08Zm-.137.089v.006h.012v-.006Zm-.012.072c-.006,0-.012.012-.024.036v.006h.006l.03-.006V-7.89l-.006-.03Zm.054.018a.013.013,0,0,0-.012.012v.03c0,.006.012.018.03.024s.018-.012.024-.03a.013.013,0,0,0-.012-.012l.012-.018V-7.9Zm-.3.006q-.018.009-.018.018v.012c0,.006.006.012.024.018s.012-.006.018-.024C33.79-7.89,33.784-7.9,33.779-7.9Zm.3.072a.013.013,0,0,0-.012.012v.006a.013.013,0,0,0,.012.012.013.013,0,0,0,.012-.012v-.018Zm-.316.018a.045.045,0,0,0-.03.048H33.7a.064.064,0,0,0-.042.018.638.638,0,0,1-.036.137c.006.066.036.1.077.1.006,0,.018-.024.036-.066a.261.261,0,0,1,.042-.179v-.042A.013.013,0,0,0,33.761-7.806Zm.238,0c-.03,0-.048.018-.06.066v.024l.006.054a.215.215,0,0,0-.024.03V-7.6q.009.018.018.018h.012a.688.688,0,0,1,.077-.173A.082.082,0,0,0,34-7.806Zm0,.226a.013.013,0,0,0-.012.012v.006A.013.013,0,0,0,34-7.55H34v-.03Zm-.215.089c-.03.012-.042.042-.042.089a.859.859,0,0,0-.06.22.013.013,0,0,1,.012.012c.024-.012.036-.024.036-.042a1.115,1.115,0,0,1,.066-.238v-.03A.013.013,0,0,0,33.784-7.49Zm.077.083q-.018,0-.054.036c0,.036.006.06.024.06h.006c.012,0,.024-.024.042-.077,0-.012,0-.018-.012-.018Zm-.244.006a.119.119,0,0,0-.072.048v.006c.006.03.018.042.024.042s.012-.006.012-.018h.042a.074.074,0,0,0,.018-.012v-.048C33.641-7.389,33.635-7.4,33.618-7.4Zm.435.048h.006v.012h-.006Zm-.119.006c-.006,0-.012,0-.012.012v.006l.006.012c.024,0,.03-.006.03-.012S33.951-7.341,33.933-7.347Zm-.393.083c-.024.018-.042.072-.054.173a.67.67,0,0,0-.048.22c.006.054.018.077.036.077h.006c.012-.006.03-.048.048-.131L33.5-6.966c0-.006.006-.012.012-.018.048-.036.066-.107.066-.22v-.012a.049.049,0,0,0-.03-.048Zm.137.149c-.018.012-.03.018-.03.024v.024l.012.018c.018-.012.03-.018.03-.024v-.006A.085.085,0,0,0,33.677-7.115Zm-.054.167q-.018.009-.018.018v.018c.012.018.018.024.024.024s.018-.012.018-.018v-.018C33.635-6.936,33.63-6.948,33.624-6.948Zm-.012.077h-.006c-.018,0-.03.036-.042.107v.018a.013.013,0,0,0,.012.012h.012a.482.482,0,0,0,.03-.125Zm.155.06c.048,0,.066.018.066.054a.414.414,0,0,1-.024.1H33.8l-.018-.018-.03-.119Zm-.286.042c-.03,0-.06.024-.1.072a.406.406,0,0,1-.03.125c0,.012.018.018.066.024l.018-.012a1.592,1.592,0,0,1,.06-.2Zm.244.143.03-.006h.024l.006.036v.006c-.024.06-.054.119-.089.2h-.018c-.006,0-.012-.006-.018-.024s.024-.03.048-.048a.626.626,0,0,0-.012-.077.1.1,0,0,1,.048-.054c0-.006-.006-.012-.018-.012Zm-.375.083a.338.338,0,0,0-.06.2A.167.167,0,0,0,33.3-6.3h.012a.7.7,0,0,0,.1-.089l-.018-.06v-.018a.073.073,0,0,0,.018-.054Q33.4-6.534,33.349-6.543Zm.268.25h.006v.006a.076.076,0,0,1-.03.042A.272.272,0,0,1,33.618-6.293Zm2.294.072c-.024,0-.048.024-.066.066v.024l.012.018L35.93-6.2V-6.2Q35.921-6.221,35.912-6.221Zm-2.67.125a.013.013,0,0,0-.012.012c.024.03.042.042.066.042H33.3a.013.013,0,0,0,.012-.012V-6.06A.072.072,0,0,0,33.242-6.1Zm2.61.006a.013.013,0,0,0-.012.012l.006.012a.013.013,0,0,0,.012-.012Zm-.1.054q-.018.009-.018.018v.012a.013.013,0,0,0,.012.012h.012q.018-.009.018-.018v-.012a.013.013,0,0,0-.012-.012Zm-.1.042a.061.061,0,0,0-.03.036c0,.012.006.018.012.018h.006c.024-.018.03-.024.03-.03v-.012c0-.006,0-.012-.012-.012Zm.077.024a.123.123,0,0,0-.083.054l.024.012c.024,0,.042-.018.06-.054Zm-2.354.066a.013.013,0,0,0-.012.012c0,.012,0,.012.012.012h.006v-.012Zm-.024.054a.022.022,0,0,1-.006.018.045.045,0,0,0,.012.024l.018-.012c-.006-.018-.012-.03-.018-.03Zm.179.143a.013.013,0,0,1,.012-.012v.048c-.006,0-.006-.006-.012-.012Zm-.417.048q.009,0,.018.036l-.012.119v.024a.156.156,0,0,1-.018.06c-.012.113-.024.173-.042.173h-.006l-.006-.042v-.018a.239.239,0,0,1,.018-.089C33.075-5.554,33.093-5.643,33.123-5.661Zm.417.03h.012l.006.042c-.006.042-.018.06-.03.06h-.012c-.006,0-.006,0-.012-.012v-.006A.179.179,0,0,1,33.54-5.631Zm2.038.042c.006,0,.012,0,.012.012l-.006.012c-.012,0-.012-.006-.012-.012ZM33.5-5.4h.012c0,.006.006.018.006.024a.713.713,0,0,1-.018.083h-.012a.022.022,0,0,0-.006-.018Zm1.913.1c.024-.042.048-.066.077-.066h.006q-.018.072-.036.072h-.018Zm-2.139.042c-.006,0-.012,0-.012.012v.018l.012.012c.018,0,.03-.006.03-.012v-.006C33.3-5.238,33.29-5.25,33.272-5.256Zm-.018.107c-.012.012-.024.018-.024.024v.006c0,.012.006.012.012.012h.018c0-.006,0-.006.006-.018S33.26-5.136,33.254-5.148Zm2.121.083a.013.013,0,0,0-.012.012v.012a.013.013,0,0,0,.012-.012Zm-2.044.024a.013.013,0,0,1,.012-.012h.006a.013.013,0,0,1,.012.012v.018A.054.054,0,0,0,33.332-5.041Zm.06.018a.036.036,0,0,0,.024-.006h.006l-.006.024h-.024ZM33.236-5q-.009,0-.018.036v.03c.012.012.018.024.024.024h.012c.006,0,.012-.012.018-.024C33.266-4.982,33.26-5,33.254-5ZM35.31-5v.012h.018V-5Zm-.036.048q-.018.009-.018.018v.012h.018q.018-.009.018-.018c0-.006,0-.012-.012-.012Zm-.06.054v.012h.012V-4.9ZM33.4-4.833a.036.036,0,0,0,.024-.006.966.966,0,0,0,.018.125.148.148,0,0,0-.006.054c-.012,0-.024-.018-.036-.048,0-.054.006-.089.006-.107A.026.026,0,0,1,33.4-4.833Zm-.173.006c0,.036.006.077.006.131l-.006.042c.012.036.018.054.03.054h.006v-.018a.932.932,0,0,0-.024-.209Zm.179.34c0-.006,0-.006.012-.012h.012q.018.009.018.018v.036c-.024,0-.036-.006-.042-.024Z" transform="translate(0.258 13.758)" fill="#fff" stroke="#fff" stroke-width="0.2"/>
</svg>
