<svg xmlns="http://www.w3.org/2000/svg" width="62.053" height="14.5" viewBox="0 0 62.053 14.5">
  <path id="パス_312" data-name="パス 312" d="M5.268-10.068a.738.738,0,0,0-.137.017,3.129,3.129,0,0,0-1.252.646A10,10,0,0,0,3-8.576,10.192,10.192,0,0,0,1.855-7.159a4.018,4.018,0,0,1-.32.543A3.739,3.739,0,0,0,.929-5.587v.023H.935l.257-.3q-.12.309-.12.326v.006c.006,0,.109-.154.3-.446q.034,0,.034.017v.011l-.252.446V-5.5h.006c.029-.034.046-.046.051-.046.212-.286.423-.595.629-.932A.564.564,0,0,1,2.1-6.7L2.084-6.77l.006-.04c.1-.034.149-.063.154-.08v-.086a2.592,2.592,0,0,1,.326-.412v-.046A.11.11,0,0,0,2.547-7.5a.5.5,0,0,1,.126-.183c.229-.274.366-.417.412-.417a1.167,1.167,0,0,0,.229-.28l.394-.332h.006c-.1.12-.2.234-.3.343a1.6,1.6,0,0,0-.274.337,11.7,11.7,0,0,0-.737.972c-.109.189-.194.337-.269.446a1.462,1.462,0,0,1-.349.463c-.057,0-.149.16-.286.48a.7.7,0,0,0-.171.28v.029a.688.688,0,0,0,.023.1.325.325,0,0,1-.069.131l-.069-.051H1.209a.186.186,0,0,0-.086.137.449.449,0,0,0,.051.114.431.431,0,0,1-.08.1.711.711,0,0,0,.034-.131v-.006a.063.063,0,0,1-.034-.017,1.382,1.382,0,0,0-.137.246l.029.017a.358.358,0,0,0,.08-.023h.006c-.08.263-.126.394-.126.4a.193.193,0,0,1-.057-.023c-.011.011-.017.011-.023.011-.029.063-.137.343-.332.84a5.916,5.916,0,0,0-.229.966c.006.109.006.212.006.3v.212a.853.853,0,0,0,.011.12,2.3,2.3,0,0,1,.1.263.483.483,0,0,1-.16-.04c.063-.057.1-.091.1-.091v-.006a.484.484,0,0,0-.074-.069C.254-1.865.231-2,.22-2.271a2.284,2.284,0,0,1,.034-.263c-.011-.063-.034-.1-.08-.1-.017,0-.029.08-.029.24v.28a.5.5,0,0,1-.017.137,1.112,1.112,0,0,1,.046.189v.057c0,.034-.006.057-.023.057L.117-1.762C.094-2.088.06-2.248.031-2.248h-.04v-.017l.017-.017a.253.253,0,0,0,.063-.183A.5.5,0,0,0-.02-2.711l.131-.137v-.006a.046.046,0,0,0-.034-.051v-.011a.472.472,0,0,0,.1-.28c0-.057-.051-.1-.149-.114l.48-1.378a.006.006,0,0,1-.006-.006l-.023.011a2.284,2.284,0,0,0-.274.64A4.384,4.384,0,0,0-.123-2.562a3.318,3.318,0,0,0,.166.989,1.181,1.181,0,0,0,.48.657,2.261,2.261,0,0,0,1.1.269A2.5,2.5,0,0,0,2.815-1.03a1.353,1.353,0,0,0,.417-.286l.234-.131a3.322,3.322,0,0,0,.806-.9c.029-.017.051-.16.063-.417a3.943,3.943,0,0,0,.171-.68A.043.043,0,0,0,4.5-3.466a.3.3,0,0,0-.137.16,3.084,3.084,0,0,1-.326.789,1.921,1.921,0,0,1-.577.6v-.006l.04-.057c.246-.24.372-.383.372-.429A.939.939,0,0,0,4.1-2.825v-.011H4.1a1.064,1.064,0,0,0-.16.246,2.557,2.557,0,0,1-.44.532,3.9,3.9,0,0,0-.457.44,1,1,0,0,0-.406.234.483.483,0,0,1-.252.086,2.229,2.229,0,0,1-.892.229A1.41,1.41,0,0,1,1.1-1.133.848.848,0,0,1,.632-2v-.1a.533.533,0,0,1,.006-.126,10.314,10.314,0,0,1,1.652-4A17.551,17.551,0,0,1,3.661-8.193C4.4-9.085,4.953-9.542,5.308-9.571h.057a.167.167,0,0,1,.091.029c.143.086.217.3.217.623a7.385,7.385,0,0,1-.492,2.241c-.314.766-.56,1.149-.732,1.149q-.086,0-.137-.189a.105.105,0,0,0-.074-.091v-.034H4.227a.982.982,0,0,0-.046.252.38.38,0,0,0,.017.12.384.384,0,0,0,.377.32.7.7,0,0,0,.52-.3,4.832,4.832,0,0,0,.417-.715A6.813,6.813,0,0,0,6.137-8.8,1.971,1.971,0,0,0,6-9.617a.906.906,0,0,0-.7-.452ZM3.93-8.919a.015.015,0,0,1,.017-.017v.006a.015.015,0,0,1-.017.017Zm-.154.149q.077-.1.1-.1v.017a.19.19,0,0,1-.091.086Zm1.915.823c.006,0,.011.006.011.017v.023a.26.26,0,0,1-.023.1H5.674a.072.072,0,0,0-.006-.034A.5.5,0,0,1,5.691-7.948ZM1.432-6.261v-.011l.131-.189c0-.057.04-.109.114-.16h.017v.006A.556.556,0,0,1,1.54-6.4c-.023.08-.057.131-.1.143Zm.16-.029c0-.006.017-.017.057-.04v.04l-.034.011H1.609Zm-.263.131c.011-.011.017-.023.023-.023h.017l.006.04a.119.119,0,0,0-.034.011H1.329Zm.212,0h.006v.017H1.54Zm-.326.189a.06.06,0,0,1,.046-.057h.006v.034a.051.051,0,0,1-.046.057H1.215Zm.423.194h.029v.017c0,.011-.006.011-.017.011H1.638Zm-.732.246c-.006,0-.023.017-.046.046a4.553,4.553,0,0,0-.349.7l.017.006a.1.1,0,0,0,.063-.034c.063-.183.1-.274.131-.274a2.1,2.1,0,0,0,.194-.423C.917-5.518.912-5.529.906-5.529Zm.2.137c-.034,0-.051.011-.057.023v.006l.017.051h.017c.029,0,.04-.006.046-.017v-.011A.07.07,0,0,0,1.106-5.392Zm-.051.126a.052.052,0,0,0-.029.006,2.311,2.311,0,0,0-.377.646.123.123,0,0,0-.057.109c-.1.229-.16.354-.16.36a.122.122,0,0,0-.069.1l.006.011a.691.691,0,0,0-.091.217.723.723,0,0,1-.057.24v.023a.365.365,0,0,0,.011.08v.011a.457.457,0,0,0-.086.023v.011c0,.057.017.08.057.08H.209c.057-.017.08-.074.08-.166v-.006L.4-3.557a.984.984,0,0,0-.051-.16l.011-.034a2.3,2.3,0,0,0,.177-.423A4.228,4.228,0,0,0,.723-4.6a1.181,1.181,0,0,0,.1-.166.4.4,0,0,1,.137-.28.382.382,0,0,1,.091-.194Zm-.309.229a.06.06,0,0,0-.029.051v.011a.043.043,0,0,1,.023.006.1.1,0,0,0,.034-.051q0-.009-.017-.017Zm.2.337v.011a.015.015,0,0,0,.017.017V-4.7ZM.86-4.535c-.046,0-.074.051-.091.16v.011H.792a.2.2,0,0,0,.091-.149v-.011c0-.006-.006-.011-.017-.011Zm-.109.28a.071.071,0,0,0-.034.046l.006.051H.729c.011,0,.023-.029.029-.091v-.006Zm-.189.383a.06.06,0,0,0-.029.051l.023.029c.017-.006.029-.023.029-.051Zm-.034.137c-.051,0-.08.04-.08.126,0,.006.011.017.034.023l.046-.023L.5-3.643a.055.055,0,0,0,.051-.034A.281.281,0,0,0,.529-3.734Zm-.1.246C.4-3.477.386-3.466.386-3.46v.046L.391-3.4a.245.245,0,0,1,.057-.017v-.017A.11.11,0,0,0,.431-3.489Zm-.063.217A.484.484,0,0,0,.294-3.2v.057c-.034.1-.057.149-.057.16s.017.006.017.011c.04-.023.063-.04.063-.051a.281.281,0,0,0-.006-.063c.051-.057.08-.1.08-.126S.386-3.266.369-3.271Zm3.864.1a.534.534,0,0,0-.12.257l.011.011c.04,0,.08-.091.126-.269Zm-4.242.086a.046.046,0,0,1,.04-.051v.023a.376.376,0,0,1-.017.074H0Zm.24.3c-.011,0-.023.023-.029.057v.017c0,.006.006.011.017.011l.04-.006A.17.17,0,0,0,.231-2.791Zm-.166.08c-.011,0-.011.006-.017.011v.017c.011.011.017.023.023.023s.011-.006.023-.017C.088-2.7.083-2.711.071-2.711Zm4.053.383.034-.006c.063-.114.109-.177.131-.183a.476.476,0,0,1-.194.309,1.892,1.892,0,0,1-.452.514c-.114.126-.183.189-.2.189H3.421a.838.838,0,0,1,.08-.08c.057-.1.091-.16.12-.171a.555.555,0,0,0,.252-.252.279.279,0,0,0,.1-.091.354.354,0,0,0,.137-.234C4.119-2.334,4.119-2.334,4.119-2.328Zm-.595.572a.043.043,0,0,1,.023.006v.029H3.53a.012.012,0,0,1-.011-.011v-.011Zm-.309.029a.052.052,0,0,0,.029-.006v.011H3.215Zm-2.91.137c.017.006.029.017.029.023v.029H.323c-.006,0-.017-.017-.029-.034C.3-1.573.306-1.579.306-1.591Zm.051.08c.006,0,.017-.006.04-.023.057.074.1.131.137.177A.552.552,0,0,1,.643-1.2v.011C.626-1.2.62-1.2.614-1.2Q.357-1.4.357-1.511ZM7.288-1.4a.77.77,0,0,0,.189-.023,2.049,2.049,0,0,0,.84-.52A3.191,3.191,0,0,0,9-2.614c-.063,0-.263.166-.6.492a1.653,1.653,0,0,1-.635.389l-.034-.006a.281.281,0,0,1,.109-.12,1.241,1.241,0,0,0,.32-.257A1.146,1.146,0,0,0,8.386-2.3c.017-.063.034-.1.046-.1l.086.011q.026,0,.034-.1a.138.138,0,0,1,.074.034l.069-.086c.183-.12.274-.212.274-.269a.513.513,0,0,0-.137.046.228.228,0,0,1,.034-.091c.171-.16.257-.274.257-.349A.536.536,0,0,0,9-3.094c-.057.109-.1.16-.137.166-.823.737-1.412,1.1-1.766,1.1-.1,0-.149-.029-.149-.091a2.477,2.477,0,0,1,.48-1.063A11.292,11.292,0,0,1,8.918-4.758a.883.883,0,0,1,.56-.332.314.314,0,0,1,.183.057.368.368,0,0,1,.12.24l-.011.1.006.046c-.08.223-.137.337-.171.349H9.552l-.017.011a.4.4,0,0,1-.063.12c-.011-.006-.017-.011-.029-.011a.217.217,0,0,0-.08.143c.006.029.017.04.04.04a.538.538,0,0,0,.2-.069,3.043,3.043,0,0,0-.286.44c.006,0,.006,0,.006.006a.153.153,0,0,0,.057-.023c.074-.12.177-.274.3-.457a.822.822,0,0,0,.143-.1h.006L9.4-3.563c0,.006.029.023.091.046l.006-.1c.023.051.051.08.08.08a.123.123,0,0,0,.074-.051.015.015,0,0,0,.017.017c.006,0,.011-.017.017-.046-.006,0-.006,0-.006-.006l-.017.006A.259.259,0,0,0,9.7-3.671a.116.116,0,0,0,.063-.04c0,.017,0,.023-.006.023a.545.545,0,0,1-.126.263A.052.052,0,0,0,9.6-3.431c-.006,0-.011.017-.017.057-.309.406-.48.629-.509.675v.011A.043.043,0,0,0,9.095-2.7a3.283,3.283,0,0,0,.377-.423.285.285,0,0,0-.063.154h.017L9.472-3a.36.36,0,0,1-.04.126l-.011-.006c.006-.023.011-.046.017-.063s-.011-.011-.023-.011-.017.029-.029.091l.017.086a.247.247,0,0,0-.023.08.214.214,0,0,0-.034-.057c-.011,0-.017.011-.017.04a1.4,1.4,0,0,0-.126.589.347.347,0,0,0,.08.274.712.712,0,0,0,.532.32.459.459,0,0,0,.114-.011,1.173,1.173,0,0,0,.72-.354c.263-.234.429-.377.492-.417.726-.749,1.1-1.12,1.126-1.126a.2.2,0,0,0,.114-.183c-.063,0-.091-.017-.091-.046l.006-.149a.328.328,0,0,1-.006-.069c0-.017-.029-.029-.091-.034a.091.091,0,0,0-.057.029.947.947,0,0,1-.109.154,2.309,2.309,0,0,0-.286.3.306.306,0,0,0-.086.074l.006.017.034-.011v.011a.274.274,0,0,0-.046.063,5.286,5.286,0,0,1-.715.686c0-.011.023-.04.063-.086-.029,0-.063.023-.109.074s-.234.2-.555.44a.829.829,0,0,1-.274.189c-.029,0-.046-.034-.046-.109a4.938,4.938,0,0,1,.595-1.721,3.905,3.905,0,0,0,.537-1.532.531.531,0,0,0-.2-.429c-.04-.109-.08-.16-.126-.16-.023,0-.051.023-.091.069L10.73-5.89h-.017c0,.006,0,.011-.006.011a.705.705,0,0,0-.16.246c-.171.44-.263.657-.269.663l-.023-.143h-.011l-.011.212c.006,0,.006,0,.006.006a.174.174,0,0,1-.051.074c-.006,0-.011-.011-.023-.029l.023-.04-.006-.149c.017-.023.029-.034.029-.04a1.408,1.408,0,0,0-.086-.234c.057.017.086.04.086.063h.011q-.017-.069-.034-.069a.413.413,0,0,1-.114-.051c0-.006,0-.006.006-.006a.26.26,0,0,1,.109.046.663.663,0,0,0-.131-.234.174.174,0,0,0-.074-.051.529.529,0,0,0-.389-.137,1.857,1.857,0,0,0-.566.12,2.85,2.85,0,0,0-.743.5L8-4.872a10.478,10.478,0,0,0-.817.938A3.443,3.443,0,0,0,6.351-2.2a.731.731,0,0,0,.149.457.892.892,0,0,0,.7.343ZM9.649-5.215H9.615l.023-.029C9.644-5.244,9.649-5.232,9.649-5.215ZM7.231-2.991A.29.29,0,0,1,7.186-3.1q0-.043.154-.206L7.294-3.34v-.011c.006-.023.017-.029.023-.029s.011.023.034.04h.011A.3.3,0,0,1,7.4-3.426c-.011-.006-.017-.017-.017-.046a.323.323,0,0,0,.154-.086.641.641,0,0,1,.1-.154.3.3,0,0,1-.034-.04.26.26,0,0,0,.114-.029,8.6,8.6,0,0,1,.617-.709,1.5,1.5,0,0,1,.406-.332c0,.034-.114.16-.354.372a2.423,2.423,0,0,1-.229.269c-.269.32-.44.509-.509.572a1.029,1.029,0,0,1-.171.274c-.126.109-.183.166-.183.183C7.294-3.06,7.271-3.008,7.231-2.991Zm2.961-1.686a.015.015,0,0,1-.017-.017.036.036,0,0,1,.029-.034l.006.017Q10.21-4.678,10.193-4.678Zm.532.143-.006-.034c0-.017.017-.029.04-.04l.017.04A.1.1,0,0,1,10.724-4.535Zm-.978.349A.643.643,0,0,1,9.958-4.4a1.354,1.354,0,0,0,.091-.137.052.052,0,0,1,.029.017.718.718,0,0,0-.051.12A.9.9,0,0,1,9.747-4.186Zm.926-.206-.006-.029a.11.11,0,0,1,.063-.1A.139.139,0,0,1,10.673-4.392ZM9.8-1.939a.454.454,0,0,1-.029-.217l-.006-.069a.265.265,0,0,0,.04-.1A.152.152,0,0,0,9.775-2.4v-.006l.069-.063a.383.383,0,0,1,.04-.154c-.006-.017-.017-.029-.023-.029a.089.089,0,0,0-.063.04c-.023.131-.04.194-.051.194a.323.323,0,0,0-.057.154c0,.017.011.023.029.029q-.043.051-.069.051a.214.214,0,0,1-.063.006A.373.373,0,0,1,9.6-2.242a2.224,2.224,0,0,0,.137-.343H9.724a.229.229,0,0,1-.057.091.083.083,0,0,1-.011-.04v-.011L9.7-2.637,9.7-2.654a.053.053,0,0,1,.04-.051h.006l.006.069c.046,0,.069-.034.069-.109l-.006-.04c-.04-.006-.063-.017-.063-.04l-.006.006L9.735-2.8l-.006-.006.006-.011c.109-.1.166-.154.166-.177s-.011-.017-.017-.017-.029.029-.046.08a.076.076,0,0,1-.04-.017v-.011a.079.079,0,0,0,.029-.057A.191.191,0,0,0,9.85-3.1q0-.026.051-.034a.239.239,0,0,1-.017-.051c0-.006.011-.017.034-.023v.063l.006.011a.058.058,0,0,0,.046-.029V-3.18a.313.313,0,0,1-.057-.1l.069.006c.017,0,.023-.017.023-.051,0-.011-.017-.017-.046-.023A.177.177,0,0,1,9.97-3.4l.046.029a.076.076,0,0,0,.017-.04c.029-.04.046-.063.046-.08s.069-.171.2-.486a1.553,1.553,0,0,1,.212-.486l.029.017a.012.012,0,0,1-.011.011.819.819,0,0,0-.1.292,1.517,1.517,0,0,0-.183.474.091.091,0,0,0,.017.046c0,.006,0,.006-.006.006L10.21-3.62a1.01,1.01,0,0,0-.069.183.083.083,0,0,0,.011.04.177.177,0,0,0-.069.017l.006.034a.356.356,0,0,0-.063.1.919.919,0,0,1-.04.217q.009.017.017.017a.069.069,0,0,0,.051-.034.546.546,0,0,1,.069-.24l-.006-.034c0-.006.017-.011.046-.029a.6.6,0,0,1,.046-.2l.051.011c.017,0,.034-.029.051-.091A2.934,2.934,0,0,0,10.473-4c.029-.12.063-.183.1-.183a.691.691,0,0,1,.029.131l-.006.017c-.046.006-.069.017-.069.04l-.034.1a.186.186,0,0,0-.057.1.279.279,0,0,1,.023.074l-.006.011-.046-.011c-.006,0-.006.006-.011.011l.017.029-.006.023a.29.29,0,0,1,.011.074c-.051,0-.08.017-.08.051a.258.258,0,0,1,.017.074.081.081,0,0,1-.011.034l-.057-.011c-.006,0-.011.011-.017.029l.029.04c-.04.006-.057.011-.057.023a.247.247,0,0,1,.023.08.086.086,0,0,1-.023.063L10.2-3.2c-.011,0-.017.006-.023.023a.18.18,0,0,0,.04.063.229.229,0,0,1-.046.091v.051a4.7,4.7,0,0,0-.171.5l-.1.16.023.046a.283.283,0,0,1-.023.074l.006.051a.146.146,0,0,1-.04.069l.006.046C9.867-1.968,9.838-1.939,9.8-1.939Zm.812-2.275c-.029,0-.046-.006-.051-.029s.023-.057.08-.12l.069.029a.128.128,0,0,1-.006.057l-.034-.006C10.644-4.283,10.621-4.26,10.61-4.215Zm-.64.051A.06.06,0,0,1,10-4.215v.006C10-4.192,9.987-4.18,9.97-4.163Zm-.126.034c-.006,0-.006,0-.006-.006a.043.043,0,0,1,.04-.023A.059.059,0,0,1,9.844-4.129Zm.709.183c0-.006-.006-.006-.011-.011l.017-.023c.006,0,.011.011.017.023ZM9.8-3.929c-.006,0-.006,0-.006-.006a.145.145,0,0,0,.011-.04h.011ZM8.072-3.94c-.006,0-.011-.006-.011-.023C8.072-3.963,8.072-3.952,8.072-3.94Zm1.664.223H9.729l.12-.217a.012.012,0,0,1,.011.011l.011-.006A.542.542,0,0,1,9.735-3.717Zm-1.755-.1H7.957c.006-.017.017-.029.029-.029Zm1.646.091H9.6a.049.049,0,0,0-.017-.034v-.011a.1.1,0,0,0,.046-.023Zm-.046.131-.017-.023V-3.62c.023,0,.034.011.034.023Zm.44.086h-.006a.121.121,0,0,1,.057-.114l.006.011c0,.017-.006.029-.017.029C10.061-3.529,10.05-3.506,10.021-3.506ZM7.306-3.517H7.277v-.006l.017-.006.011.006Zm2.018.3A.635.635,0,0,0,9.5-3.409L9.5-3.42l-.051.006c-.011-.034-.023-.051-.029-.051L9.4-3.46c-.017-.04-.029-.057-.034-.057a.549.549,0,0,0-.137.194l.04.006a.1.1,0,0,0,.034-.046c.006,0,.017.017.04.051a.138.138,0,0,0-.034.074C9.312-3.22,9.312-3.214,9.324-3.214Zm1.372,1.1c0-.011.006-.023.023-.04v-.011h-.006a.081.081,0,0,1-.063.023l.017-.046c.08-.063.194-.16.337-.292q.077-.1.1-.1h.046l-.017-.034c0-.011.011-.023.034-.04a.808.808,0,0,0,.246-.257L11.4-2.917a.172.172,0,0,0-.063.04c.029-.046.051-.069.063-.069.063,0,.1-.006.1-.023a1.051,1.051,0,0,1,.189-.143v-.006h-.023a1.235,1.235,0,0,0,.183-.183l.023.006.1-.069-.006-.017a.237.237,0,0,0-.069.04h-.011a.5.5,0,0,1,.1-.091q0-.034.154-.069c-.017.029-.08.109-.183.24-.492.509-.743.76-.76.76-.12.131-.2.2-.24.2A1.292,1.292,0,0,1,10.7-2.111ZM9.4-3.346H9.375L9.324-3.38l.04-.074a.108.108,0,0,1,.04.08Zm2.63-.063a.04.04,0,0,1,.017-.023v-.017l-.017.011-.011-.006c-.006.006-.006.011-.006.023S12.022-3.409,12.028-3.409ZM7.26-3.386,7.231-3.4c.006-.017.011-.023.017-.023l.023.017A.023.023,0,0,0,7.26-3.386ZM9.5-3.031a.062.062,0,0,1-.023-.029c.034-.114.069-.171.091-.171A1.536,1.536,0,0,1,9.5-3.031Zm-.274-.086.023-.006v-.011a.1.1,0,0,1-.029-.011A.043.043,0,0,0,9.221-3.117Zm-.029.086.029-.051a.006.006,0,0,1-.006-.006l-.04.017C9.175-3.048,9.186-3.031,9.192-3.031ZM7.22-3.048c.006,0,.011-.006.011-.017s-.006-.011-.017-.011Zm-.091.1H7.083l-.006-.017a.061.061,0,0,1,.069-.069A.253.253,0,0,1,7.128-2.951Zm2.024-.023c-.006-.006-.006-.017-.006-.034-.011,0-.017.006-.023.029,0,.006.006.006.017.006Zm-.08.08L9.1-2.945l-.011-.006-.069.006Q9.055-2.894,9.072-2.894ZM7.054-2.8a.146.146,0,0,1,.04-.109C7.083-2.837,7.066-2.8,7.054-2.8Zm4.082.126H11.13l.023-.04a.55.55,0,0,0,.126-.109l-.006.017C11.222-2.723,11.176-2.677,11.136-2.677Zm-.069-.063c.034-.029.046-.04.046-.051s0-.011-.011-.011-.017.017-.034.046ZM6.974-2.7c0-.046.011-.063.034-.063l.046.011C7.054-2.734,7.031-2.717,6.974-2.7Zm2.79-.017a.081.081,0,0,1-.034-.011l.011-.017.029.006Zm-.978.074-.074-.023c.023-.051.046-.074.063-.074s.034.011.034.046A.093.093,0,0,1,8.786-2.642Zm.549.011.011-.051c.006,0,.017.011.023.034S9.358-2.631,9.335-2.631Zm-.657.08h-.04v-.034c0-.006.011-.011.034-.011Zm2.184.034h-.034c0-.006.006-.011.017-.011S10.861-2.522,10.861-2.517Zm-1.555.04L9.3-2.494c.006-.011.011-.017.011-.029h.011C9.318-2.494,9.312-2.477,9.306-2.477Zm.314.143L9.6-2.34c0-.006,0-.011.011-.011S9.621-2.345,9.621-2.334Zm.046.206c-.029,0-.04-.006-.04-.011s0-.017.011-.017A.027.027,0,0,1,9.667-2.128Zm5.291-3.956a1.316,1.316,0,0,0-.88.532,1.731,1.731,0,0,0-.492,1.069.959.959,0,0,0,.017.166l-.006.074.063.463a4.2,4.2,0,0,1,.1.469l-.017.149a.491.491,0,0,0,.063.2,6.286,6.286,0,0,1,.143.7c-.114.12-.263.257-.44.417a7.94,7.94,0,0,0-.617.595c-.366.389-.606.64-.72.749a5.783,5.783,0,0,1-.434.463,2.748,2.748,0,0,0-.983,1.715.825.825,0,0,0,.383.7,2.075,2.075,0,0,0,1.046.309h.04a2.6,2.6,0,0,0,1.458-.514,3.213,3.213,0,0,0,.52-.44,2.536,2.536,0,0,0,.7-1.881v-.1a6.244,6.244,0,0,0-.3-1.778.021.021,0,0,1,.006-.017c.183-.154.417-.337.7-.543q1.14-.832,2.121-1.5a.34.34,0,0,0-.006-.063c.017-.023.029-.034.051-.034.04.006.057.011.063.011h.011l.029-.109a.853.853,0,0,1,.16-.131v-.006a.477.477,0,0,0-.137.046.716.716,0,0,1-.257.189A1.265,1.265,0,0,1,17-3.963h-.006c0-.017.029-.046.069-.08v-.006h-.04v-.017c.011,0,.011-.006.011-.006a.29.29,0,0,0,.1-.046.035.035,0,0,1,.034.017c.011,0,.017-.011.017-.029a.167.167,0,0,0,.046-.109q.1-.051.1-.086a2.048,2.048,0,0,1,.3-.24v-.011c-.029,0-.08.034-.166.1l-.314.194c-.08.011-.131.023-.154.029-.24.16-.532.349-.869.572a17.306,17.306,0,0,1-1.744,1.046,3.353,3.353,0,0,1-.217-1.132A1.7,1.7,0,0,1,14.82-5.2a.208.208,0,0,1,.017.063v.006a.188.188,0,0,0-.04.074c.006,0,.006,0,.006.006a.225.225,0,0,0,.034-.011c.04-.011.126-.166.252-.463a3.235,3.235,0,0,1,.046-.417C15.134-6.038,15.077-6.084,14.957-6.084Zm-1.069,1.4c.006,0,.011,0,.011.011v.011c0,.011-.006.011-.011.011Zm-.086.246c.006-.029.011-.046.017-.046a.578.578,0,0,1,.04-.126.012.012,0,0,1,.011.011v.023c-.029.177-.051.263-.074.263a.1.1,0,0,1,.011-.029A.8.8,0,0,0,13.8-4.438Zm3.544.011c-.006,0-.006,0-.006.011l.006.011c.006,0,.006-.006.006-.011Zm.12.057-.04.023a.012.012,0,0,0,.011.011h.006c.006,0,.011-.011.029-.023Zm-3.847.046c.006,0,.017.006.04.011l-.006.029A.085.085,0,0,1,13.62-4.323Zm4.053.04c-.029.011-.04.017-.04.023s0,.011.011.011.029-.023.029-.029Zm-.389.046-.034.011v.017h.011c.011-.006.023-.017.023-.023Zm-.183.091a.188.188,0,0,0,.086-.057V-4.2a.159.159,0,0,1-.086.074ZM13.86-4.02c.006-.04.017-.057.029-.057a1.348,1.348,0,0,0,.029.234,2.361,2.361,0,0,1,.074.372A1.741,1.741,0,0,1,14.14-3l-.006.069a.123.123,0,0,0,.069.12c.006.017.017.1.04.246v.011a.108.108,0,0,1-.074.1l-.023-.017c0-.051-.023-.08-.069-.08-.006.006-.017.006-.034.006,0,.029-.011.046-.046.063-.011-.017-.023-.029-.023-.046V-2.54c.006-.011.04-.029.109-.051-.04-.1-.063-.154-.074-.154H14a.076.076,0,0,0-.04.017c-.023-.011-.034-.017-.034-.023a.361.361,0,0,0,.086-.189q.051-.034.051-.051A.576.576,0,0,0,14-3.226c0-.034-.023-.057-.074-.057h-.017a.012.012,0,0,0-.011.011V-3.2a.28.28,0,0,0,.006.063.994.994,0,0,1,.074.183h-.006c-.08,0-.131-.063-.154-.2a.585.585,0,0,1,.017-.063V-3.22a.125.125,0,0,0-.023-.057c.12-.034.177-.074.177-.12s-.017-.069-.029-.069a.685.685,0,0,1-.046-.16c-.023-.006-.029-.029-.029-.074v-.126A.746.746,0,0,0,13.86-4.02ZM16.884-4H16.9q.069,0,.069.051c0,.057.011.08.04.08a2.1,2.1,0,0,1-.434.28h-.006V-3.6a2.7,2.7,0,0,0,.309-.263v-.011h-.006a1.439,1.439,0,0,1-.212.114.257.257,0,0,1,.011-.046c.08-.046.114-.08.114-.114v-.034a.055.055,0,0,1,.051.034.082.082,0,0,0,.046-.074Zm.263.011h.017c0,.011-.006.011-.011.011h-.011v-.006Zm-3.367.44h.011c.006,0,.011.023.023.063,0,.011-.011.023-.029.029v-.023Zm1.824.28h.006l-.017.023a5.46,5.46,0,0,1-.875.715c-.069.08-.126.12-.16.12h-.023c-.011-.006-.017-.017-.017-.046v-.006a.461.461,0,0,1,.051-.109c-.011-.006-.011-.011-.011-.017v-.023c0-.017.006-.029.023-.029a.992.992,0,0,1,.1.006c.034-.011.046-.023.046-.034a.134.134,0,0,1,.12-.069v-.006c0-.006-.011-.017-.04-.029l.006-.029h.029C15.323-3.094,15.575-3.248,15.6-3.271Zm-.617.783a.065.065,0,0,1,.051-.057c.029.006.04.011.04.023v.006a.1.1,0,0,1-.091.046Zm-.212.023a.012.012,0,0,1,.011-.011l.029.006v.006a.021.021,0,0,0-.017.006Zm.126.051c0-.006,0-.011.011-.011a.012.012,0,0,1,.011.011v.006q-.009.017-.017.017H14.9Zm.034-.006h.011v.006h-.011ZM14.8-2.4c.034.006.051.017.051.046v.006a.214.214,0,0,1-.057-.034v-.006Zm-.555.166c.006-.029.011-.046.023-.046s.017.017.029.051c0,.006-.006.029-.011.063C14.266-2.162,14.254-2.185,14.243-2.231ZM11.5.707a1.748,1.748,0,0,1,.354-.532,4.816,4.816,0,0,0,.412-.5,1.093,1.093,0,0,0,.194-.257,1.173,1.173,0,0,1,.274-.286,2.988,2.988,0,0,0,.32-.366,2.717,2.717,0,0,1,.32-.3c.3-.366.5-.549.589-.549.04.006.057.023.057.057V-2a.086.086,0,0,1-.011.057.435.435,0,0,1-.137.229c-.046,0-.206.16-.492.486-.074.029-.109.051-.109.063a1.093,1.093,0,0,1-.32.292c-.046,0-.091.057-.137.177l-.223.263-.446.486A5.167,5.167,0,0,1,11.5.707Zm2.847-2.5a.855.855,0,0,1,.1.166v.006a.419.419,0,0,1-.069.051.229.229,0,0,1,.04.08v.029a.021.021,0,0,0-.017.006l.023.166v.011l-.006.069a.408.408,0,0,0-.08-.034.069.069,0,0,1-.034.051h-.011a.182.182,0,0,1-.057-.086l-.029.023h-.017V-1.3a.118.118,0,0,1,.109-.069h.023l.006.029v.006l-.017.023v.023c.006.006.011.011.017.011h.046l.011-.006a.11.11,0,0,0-.017-.057,1.126,1.126,0,0,0-.063-.36h-.017c-.029.074-.069.114-.131.114v-.006l.006-.029a.137.137,0,0,0,.086-.034A.487.487,0,0,1,14.346-1.8Zm-.091.217h.04a.021.021,0,0,0,.006.017v.011l-.011-.006h-.006a.464.464,0,0,0,.029.08v.006c-.051,0-.074-.017-.074-.051v-.006A.239.239,0,0,1,14.254-1.579Zm-.537.2c.1-.12.189-.177.252-.177h.023a.077.077,0,0,1,.069.051l.057.389c-.006.051-.011.091-.011.126A.556.556,0,0,0,14.14-.9c-.017.292-.023.457-.023.5,0,.023.006.069.011.137a.43.43,0,0,1-.04.16,2.7,2.7,0,0,1-.1.555,2.473,2.473,0,0,1-.2.486,3.346,3.346,0,0,1-1.029,1.12,2.49,2.49,0,0,1-.869.269H11.87l-.011.006a.006.006,0,0,0-.006-.006h-.029c-.023,0-.051-.006-.074-.006a.317.317,0,0,1-.263-.354V1.954A2.652,2.652,0,0,1,11.962.73c.292-.366.572-.692.84-.989a5.846,5.846,0,0,0,.509-.56c.109-.091.166-.149.166-.171V-1a.264.264,0,0,1-.074-.1l.16-.137a.1.1,0,0,1,.034.063.131.131,0,0,0-.086.114l.006.011c.023,0,.08-.051.16-.16q-.009-.017-.017-.017h-.017l-.011.006-.011-.023v-.006h.023c.086,0,.137-.023.16-.074.1-.074.154-.126.154-.149A.035.035,0,0,0,13.94-1.5l-.029.006c-.074.086-.12.126-.143.126h-.011Zm-.114.063.034-.011.011.006c0,.029-.006.04-.023.04L13.6-1.311Zm.595.08.04.006h.011c0,.006-.011.04-.034.114.011.046.023.069.04.069h.006c.011,0,.029-.034.046-.109h.006a.525.525,0,0,1,.034.189v.011l-.006.034-.029-.023c-.069-.017-.1-.046-.1-.074a.225.225,0,0,0,.011-.034L14.168-1.1,14.2-1.15v-.011a.081.081,0,0,0-.011-.034Zm.166.114c.029-.029.046-.046.051-.046a.336.336,0,0,1,.069.12c-.029.114-.046.171-.046.183a.377.377,0,0,0,.051.149.776.776,0,0,1-.006.1c.006.08.006.131.006.16a.172.172,0,0,1-.023.074c-.006,0-.011-.011-.029-.029-.017-.1-.029-.149-.04-.149h-.006a.114.114,0,0,1-.011.046,1.152,1.152,0,0,1,.006.131v.011c0,.029-.034.051-.1.063.006.04.011.063.011.074h.011V-.253A.068.068,0,0,1,14.328-.3c.023,0,.034.046.04.143v.063a.542.542,0,0,1-.023.171.359.359,0,0,1-.074-.143.134.134,0,0,0,.04-.074V-.144c-.08-.04-.126-.069-.126-.091a.21.21,0,0,1,.091-.137.213.213,0,0,0,.051-.166q0-.034-.017-.034h-.04c-.011,0-.011.006-.011.011v.034h-.006q-.017,0-.017-.034l.006-.011c.063-.011.091-.023.091-.034V-.682l.023.017c0,.046.017.063.051.063.011,0,.017-.017.023-.063,0-.011-.011-.1-.029-.252a.115.115,0,0,1,.017-.063c-.034-.08-.057-.12-.057-.126Zm-.995.08c.023,0,.046.017.063.051v.006h-.011q-.034,0-.051-.051Zm-.177.194c.006-.029.017-.046.023-.046h.04c0,.034-.023.046-.057.046ZM14.22-.853h.006c.029.023.046.046.046.057l-.011.034A.055.055,0,0,1,14.2-.8.239.239,0,0,1,14.22-.853Zm-1.149.166c0-.023.017-.046.057-.069V-.75c-.029.04-.046.063-.051.063Zm1.235.812a.177.177,0,0,1,.046.011l-.006.04V.262c-.006.017-.017.029-.023.029h-.006a.448.448,0,0,1-.011-.08Zm-.978,1.641h.04l-.023.029C13.339,1.794,13.334,1.788,13.328,1.765Zm-.789.48a.319.319,0,0,1,.212-.1h.006v.011c0,.04-.074.069-.217.1ZM21.471-5.89h-.034a2.222,2.222,0,0,0-1.281.555,7.844,7.844,0,0,0-.755.7,4.068,4.068,0,0,0-.44.617c-.051.086-.149.3-.3.64a2.322,2.322,0,0,0-.1.52,1.1,1.1,0,0,0,.366.789,1.731,1.731,0,0,0,1.166.457h.1a3.179,3.179,0,0,0,.423-.04,2.537,2.537,0,0,0,1.1-.56,1.5,1.5,0,0,1,.292-.252,1.293,1.293,0,0,0,.269-.257.006.006,0,0,1-.006-.006c-.046.023-.137.086-.28.183a3.518,3.518,0,0,1-.5.354.593.593,0,0,1-.274.149.326.326,0,0,1,.091-.08,1.346,1.346,0,0,0,.286-.183,1.273,1.273,0,0,0,.229-.143c.109-.057.166-.1.166-.12.114-.1.217-.194.314-.269.051-.057.086-.091.1-.091h.006l-.114.177a.119.119,0,0,0,.074-.04,2.482,2.482,0,0,0,.349-.366,1.211,1.211,0,0,0,.246-.377.471.471,0,0,0,.08-.154v-.017a.081.081,0,0,0-.011-.034v-.017a.66.66,0,0,0,.1-.269.073.073,0,0,0-.006-.034c-.04,0-.091.063-.166.194-.057.1-.171.257-.332.48v.011l.011.017v.006a.45.45,0,0,1-.126.143v.034h.034c.017,0,.023-.023.023-.063.017.011.023.017.023.023V-3.2c0,.029-.029.063-.1.1a.34.34,0,0,0-.051-.1h-.006a.479.479,0,0,0-.16.166c.006,0,.006,0,.006.006h.006c.091-.086.143-.131.16-.131a.456.456,0,0,0,.023.091.187.187,0,0,0-.086.131h-.074c0-.011-.011-.023-.034-.023h-.006l-.051.034c-.034,0-.046.017-.051.051,0,.011-.011.029-.046.051v.011c.017.017.023.029.023.034a1.014,1.014,0,0,1-.1.057A.068.068,0,0,0,22-2.74H22A.507.507,0,0,0,22-2.665l-.091.017v.04a1.209,1.209,0,0,0-.177.137,1.345,1.345,0,0,0-.3.149l.006-.029h-.046a.758.758,0,0,1-.137.051v.034H21.22a.628.628,0,0,1-.16.074.372.372,0,0,0-.234.1h-.017A.911.911,0,0,0,20.517-2a.861.861,0,0,1-.366.091,1.129,1.129,0,0,1-.383-.069.769.769,0,0,1-.5-.783V-2.78a1.734,1.734,0,0,1,.229-.8H19.5c0,.091.023.149.074.177a.226.226,0,0,0,.091.12,1.182,1.182,0,0,0,.412.114,2.6,2.6,0,0,0,1.372-.715c.6-.532.9-.983.9-1.343a.485.485,0,0,0-.189-.372,1.231,1.231,0,0,1-.234-.16C21.889-5.844,21.734-5.89,21.471-5.89ZM19.8-4.054a3.94,3.94,0,0,1,.5-.555,4.866,4.866,0,0,1,.76-.572,2.329,2.329,0,0,1,.732-.292h.063q.1,0,.1.086c0,.091-.091.229-.269.394-.349.349-.7.675-1.04.978a4.174,4.174,0,0,1-.5.372.277.277,0,0,1-.194.074h-.006a.227.227,0,0,1-.183-.08c-.051-.109-.08-.166-.08-.166a.6.6,0,0,1,.126-.223A.021.021,0,0,0,19.8-4.054Zm2.229-1.395h.023c.011.069.017.114.017.126a.569.569,0,0,1-.171.337,4.628,4.628,0,0,1-.715.64h-.011a.361.361,0,0,1,.086-.069,2.539,2.539,0,0,0,.514-.5q.274-.3.274-.394a.747.747,0,0,0-.017-.131Zm-2.167.909c0-.023.011-.034.029-.034v.023A.1.1,0,0,0,19.859-4.54Zm-.806,1.1a.374.374,0,0,1,.069-.149,2.955,2.955,0,0,1,.429-.635.919.919,0,0,1,.246-.263h.011a.218.218,0,0,1-.051.086c-.343.44-.537.7-.577.766q-.077.206-.12.206h-.006Zm.56-.131a.1.1,0,0,1,.029.011c.069.063.114.091.137.091H19.8a.145.145,0,0,0,.08-.04h.029V-3.5a.99.99,0,0,1-.171.086l-.029-.006-.023.011a.255.255,0,0,1-.074-.131Zm-.394.017h.017l.006.029v.006h-.006q-.017-.009-.017-.017Zm-.326.063H18.9v.023h-.006Zm.091.177c0-.029.023-.057.08-.091A.288.288,0,0,1,19-3.271H18.99L18.985-3.3Zm.154-.074a.085.085,0,0,1,.04.006v.011c-.011.017-.023.029-.029.029,0-.017-.006-.023-.017-.023S19.139-3.38,19.139-3.386Zm-.04.069h.046a.51.51,0,0,1-.051.171c-.023.011-.034.063-.034.166A3.274,3.274,0,0,0,19-2.631v.04c.046.234.091.349.126.349q.017-.009.017-.017v-.006a.261.261,0,0,1-.046-.126v-.051l.011.006a1.385,1.385,0,0,1,.229.417V-2a.021.021,0,0,0-.017.006c-.091,0-.194-.1-.32-.286a1.407,1.407,0,0,1-.08-.434,1.4,1.4,0,0,1,.114-.474A.546.546,0,0,0,19.1-3.317Zm-.36.223a.475.475,0,0,1,.046-.143c.011-.046.029-.074.051-.074l.006.029v.017a.394.394,0,0,1-.074.212C18.762-3.054,18.75-3.071,18.739-3.094Zm.183-.069c0-.006.011-.017.04-.029l.006.029c0,.017-.011.029-.023.046-.006,0-.011-.011-.023-.029Zm-.006.069h.006c.017.006.023.017.023.04v.011l-.006.011c-.006,0-.017-.011-.034-.023Zm3.544.12c.074-.08.114-.12.126-.12v.029a.3.3,0,0,0-.1.1Zm-3.744.006a.043.043,0,0,1,.029-.04c.023,0,.04.023.04.074a.176.176,0,0,1-.011.063q.009.214.017.292c0,.04.011.057.034.057a.506.506,0,0,0,.063.149c-.1,0-.16-.143-.177-.429,0-.046.006-.1.006-.154Zm3.487.091h.04c0,.011,0,.017.006.023h-.04A.034.034,0,0,0,22.2-2.877Zm-.857.595a.072.072,0,0,1,.051-.029h.011c0,.006-.023.011-.057.029ZM21-2.088a.044.044,0,0,0,.017-.006h.006v.006A.021.021,0,0,0,21-2.082H21Zm-.955.252.029.017-.006.011-.034-.006v-.006Zm.1.029c.029-.006.046-.011.051-.011H20.2c.057.006.086.017.086.029l-.04.011a.26.26,0,0,1-.1-.023Zm.091.091a1.052,1.052,0,0,0,.234-.029l.051.034c0,.011-.017.017-.057.023a1.1,1.1,0,0,0-.143-.017h-.086Zm15.818-8.741a1.447,1.447,0,0,0-.217.017.982.982,0,0,0-.509.194c0,.04-.086.063-.257.074a1.284,1.284,0,0,1-.366.183,3.008,3.008,0,0,0-.657.394c-.08.1-.143.143-.189.143-.109.029-.166.057-.166.086-.189.149-.3.24-.332.269a.344.344,0,0,1-.217.16l-.114.131a.929.929,0,0,0-.292.194c-.04,0-.086.063-.131.183q-.24.1-.24.154l.017.08v.011c0,.04-.126.183-.383.434a.566.566,0,0,0-.16.034q0,.163-.429.549a1.123,1.123,0,0,0-.28.394.8.8,0,0,0-.137.166C31-6.6,31-6.6,31-6.6q.051,0,.137-.1a2.115,2.115,0,0,1,.36-.406,3.531,3.531,0,0,1,.452-.423,2.809,2.809,0,0,1,.263-.286,4.047,4.047,0,0,1,.577-.514c.189-.177.3-.263.349-.263,0,.017.029.051.091.1v.017c0,.006-.011.017-.046.029a.084.084,0,0,0-.057-.051.314.314,0,0,0-.171.143c0,.011.023.023.063.04a.121.121,0,0,1-.063.046c-.006,0-.017-.011-.046-.04H32.9l-.114.091c.017.057.029.091.029.1a.4.4,0,0,0-.063.023V-8.17l-.011-.011c-.091.034-.137.074-.137.114l.006.011.1-.011c-.011.017-.034.051-.063.1a2.387,2.387,0,0,1-.5.514.434.434,0,0,1-.223.217.807.807,0,0,1-.223.246,5.948,5.948,0,0,1-.469.532,1.007,1.007,0,0,1-.206.274,1.264,1.264,0,0,1-.177.286,1.07,1.07,0,0,1-.154.349,2.378,2.378,0,0,0-.217.737V-4.8a.328.328,0,0,0,.006.069l.08.171v.051a.39.39,0,0,0,.023.114c.154.314.229.48.229.492h-.034a.079.079,0,0,1-.063-.034.307.307,0,0,0-.137-.154.548.548,0,0,1-.154-.3c-.034,0-.074-.149-.114-.446a3.474,3.474,0,0,1,.1-.492c.029-.063.046-.1.046-.1v-.057c0-.011-.017-.029-.063-.034-.011,0-.017.006-.029.017a.234.234,0,0,1-.08.2l.023.034a.552.552,0,0,1-.057.171h-.017l-.023-.011a.784.784,0,0,0,.029-.183,1.455,1.455,0,0,1,.063-.194v-.023l-.017-.023c-.1.086-.143.286-.143.6v.051a1.516,1.516,0,0,0,.1.434,1.935,1.935,0,0,0,.423.629,6.572,6.572,0,0,0,.766.623q.352.189.6.343c.463.229.743.372.84.423.372.16.56.337.56.537a.806.806,0,0,1-.04.206.565.565,0,0,1-.3.3,3.514,3.514,0,0,1-1.458.337,2.358,2.358,0,0,1-.474-.051.716.716,0,0,1-.623-.709,3.34,3.34,0,0,1,.08-.577,1.134,1.134,0,0,0,.137-.286v-.006a.228.228,0,0,0-.1.017.66.66,0,0,1-.189.286c-.011,0-.017-.006-.017-.011v-.006a.539.539,0,0,1,.046-.16c0-.006-.006-.011-.011-.023l-.034.034a2.477,2.477,0,0,0-.412,1.12.868.868,0,0,0,.183.532,1.756,1.756,0,0,0,1.395.5h.051a3.8,3.8,0,0,0,1.481-.3,1.074,1.074,0,0,0,.463-.3.969.969,0,0,0,.286-.549v-.029a.106.106,0,0,0-.023-.057c-.046,0-.074-.074-.1-.223l.074-.029c0-.046-.046-.12-.137-.229-.051-.12-.1-.183-.131-.183a.006.006,0,0,1-.006.006.243.243,0,0,1,.029.069v.023a.015.015,0,0,1-.017.017h-.006c-.04,0-.166-.1-.366-.292-.114-.046-.171-.08-.177-.1l.017-.006h.017c.063.023.091.034.1.034H33.2c.017-.006.023-.011.023-.017v-.017L33.2-2.6a.818.818,0,0,1-.223-.1,9.092,9.092,0,0,1-1.195-.669,4.542,4.542,0,0,1-.737-.595,1.064,1.064,0,0,1-.3-.789q0-.772,1.732-2.5a19.76,19.76,0,0,1,1.589-1.389,5.663,5.663,0,0,1,2.4-1.338.71.71,0,0,1,.154.017.2.2,0,0,1,.114.206v.034a1.357,1.357,0,0,1-.034.3,2.565,2.565,0,0,1-.257.76,2.142,2.142,0,0,1-.28.617A8.437,8.437,0,0,1,35.334-6.9a1.459,1.459,0,0,0-.229.274,1.89,1.89,0,0,0-.206.189,2.621,2.621,0,0,1-.532.406,1.12,1.12,0,0,0-.292.189c-.063.011-.1.034-.1.074s.006.04.029.04q.171.206.309.206h.046c.234,0,.595-.229,1.075-.675a8.114,8.114,0,0,0,.806-.9,4.518,4.518,0,0,0,1.052-2.332V-9.48a.861.861,0,0,0-.257-.646,1.443,1.443,0,0,0-.949-.332Zm-1.515.886c0-.011.017-.017.046-.029a.062.062,0,0,1,.04.063c0,.006-.017.017-.046.034h-.011A.1.1,0,0,0,34.534-9.571Zm-.623.446c.023-.029.034-.051.04-.057.166-.086.252-.131.257-.131a1.625,1.625,0,0,1,.286-.189c.011,0,.029.011.034.04s-.074.069-.212.126c-.034,0-.091.046-.177.126a.362.362,0,0,0-.189.091Zm-.286-.131h.051a.154.154,0,0,1-.046.04h-.006Zm3.3.057.029-.029c.017.011.023.017.023.023V-9.2l-.023.04A.142.142,0,0,1,36.929-9.2Zm-3.184.1c.011-.017.017-.023.023-.023H33.8c-.006.029-.017.04-.034.046,0-.006-.006-.011-.023-.011Zm3.15.1a.089.089,0,0,1,.034-.069.855.855,0,0,1-.017.1h-.017Zm-.057-.063.011.011c0,.006,0,.011-.011.011Zm-3.607.389a.985.985,0,0,1,.212-.234.177.177,0,0,0,.131-.046h.011a.057.057,0,0,1,.029.04c0,.006-.029.034-.1.069a.284.284,0,0,1-.269.171Zm-.114-.177c0-.006.011-.017.034-.023v.04h-.034Zm3.676.109a.171.171,0,0,1,.051-.057.129.129,0,0,1-.051.114Zm-.189.286.057-.04c.023-.006.057-.057.109-.149v.017a.98.98,0,0,1-.177.4c-.04.143-.08.212-.126.212H36.46v-.006l.006-.046a1.055,1.055,0,0,0,.154-.3V-8.4A.1.1,0,0,0,36.6-8.456ZM32.11-8l-.011.011.006.011c.011,0,.011-.006.011-.011V-8Zm4.259.149a.132.132,0,0,1,.074-.126h.011v.051c0,.04-.029.063-.08.074Zm-3.693-.1a.012.012,0,0,1,.011-.011H32.7a.082.082,0,0,0-.011.017Zm-.629.017c-.034,0-.08.034-.131.114,0,.011.011.017.034.029s.04-.046.1-.131Zm4.27.171a.037.037,0,0,1,.029-.04v.029A.031.031,0,0,0,36.317-7.765Zm-4.082.051c-.034.023-.051.034-.051.046v.011a.13.13,0,0,0,.08-.04.015.015,0,0,0-.017-.017ZM36-7.279a1.576,1.576,0,0,1,.246-.389.715.715,0,0,1-.234.389ZM31.7-7.57c-.046,0-.091.04-.143.126,0,.011,0,.011.011.011h.006a.043.043,0,0,0,.029-.006.549.549,0,0,1,.1-.114Zm.36.017c-.046,0-.074.029-.08.091A.015.015,0,0,0,32-7.444h.057c.011-.006.023-.04.046-.1l-.017-.006Zm-.114.091c-.051.051-.08.091-.08.12.006,0,.006,0,.006.006a.093.093,0,0,0,.1-.069C31.961-7.439,31.955-7.462,31.944-7.462Zm-.492.12c-.029.011-.04.023-.046.04s.006.023.017.023h.034a.015.015,0,0,0,.017-.017v-.046Zm.36.029L31.7-7.2v.011a.566.566,0,0,0,.137-.091V-7.3C31.841-7.3,31.835-7.307,31.812-7.313Zm4.11.086.029-.006h.011l-.011.034h-.029Zm-4.608-.006c-.011,0-.011,0-.017.011V-7.2l.011.011c.029-.011.046-.023.046-.029v-.006Zm.337.086c-.029,0-.057.023-.08.063-.074.063-.114.1-.114.126v.011l.006.017a.079.079,0,0,0,.046-.04c.1-.046.154-.1.154-.154v-.011Zm-.44.051c-.011,0-.023.023-.04.063v.006a.1.1,0,0,0,.063-.029C31.235-7.067,31.229-7.079,31.212-7.1Zm4.568.063q0-.017.051-.034h.006v.04c0,.006-.011.017-.034.029h-.017Zm-4.356.1c-.034.023-.051.046-.051.063l.011.006H31.4c.034,0,.051-.017.051-.046v-.011c0-.006-.006-.011-.017-.011Zm-.069.131c-.091.034-.137.08-.137.143v.006a.643.643,0,0,0,.149-.1v-.034Zm-.166.177c-.006,0-.011.006-.011.017v.011c0,.011.006.017.011.017l.029-.023c-.006-.017-.011-.023-.017-.023Zm-.223.051c-.011,0-.023.006-.046.023h-.006a.11.11,0,0,1-.057-.017l-.011.011c0,.011.017.04.057.086.046-.034.069-.063.069-.08A.043.043,0,0,0,30.966-6.57Zm.183.023v.011l.006.017a.015.015,0,0,0,.017-.017c0-.006-.006-.011-.017-.011Zm-.057.057c-.017.006-.023.017-.023.023v.023a.012.012,0,0,0,.011.011h.04a.031.031,0,0,0,.017-.023v-.023c0-.006,0-.011-.011-.011Zm-.074.109c-.023,0-.046.017-.063.057a.092.092,0,0,0,.017.051.106.106,0,0,0,.051-.1Zm-.32.137c-.006,0-.017.017-.023.046a.054.054,0,0,0,.04.034q.034-.026.034-.034V-6.21c-.011-.023-.023-.034-.029-.034Zm.212.023c-.046,0-.074.023-.08.08l.006.011c.057-.023.08-.051.08-.091Zm-.143.194a.425.425,0,0,0-.109.143v.017a.154.154,0,0,0,.12-.143v-.017Zm-.229.349a.13.13,0,0,0-.057.109l.006.011c.051-.006.074-.029.074-.063v-.017C30.561-5.661,30.555-5.672,30.538-5.678Zm-.114.029c-.006,0-.011.006-.023.029l.011.034h.006c.011,0,.011-.006.011-.011v-.04ZM30.7-4.289c.011,0,.017.006.017.011H30.7Zm.177.349c.04,0,.069.029.086.091C30.921-3.849,30.886-3.877,30.875-3.94Zm-.029.1h.006v.023h-.006ZM31-3.792c.074.017.109.046.109.086v.023l-.034.006C31.029-3.729,31-3.763,31-3.786Zm.011.131a.021.021,0,0,0,.017-.006c0,.006.006.006.011.006l-.011.017c-.006-.006-.011-.011-.017-.011Zm.114.006.011-.006c0,.006.006.011.011.023v.006h-.017A.043.043,0,0,0,31.127-3.654Zm.137.086h.006v.017h-.006Zm.091.091a.16.16,0,0,1,.1.034c-.006.011-.011.023-.023.023-.029,0-.051-.017-.08-.051Zm.434.223.029.006v.006h-.006C31.8-3.243,31.79-3.243,31.79-3.254Zm.377.171c.011.006.017.011.023.011s-.006.011-.017.011l-.011-.006Zm.206.212a.089.089,0,0,1,.08-.034h.011V-2.9c0,.011-.029.023-.086.029ZM30.7-2.854a.183.183,0,0,0-.04.006A.45.45,0,0,0,30.5-2.6h.017a.831.831,0,0,0,.183-.24Zm2.127.194h.011a.243.243,0,0,0,.069.029h.023l.034-.011c0,.006.017.017.04.046-.017,0-.029.006-.04.006a.537.537,0,0,1-.137-.063Zm.423.149V-2.5l.051.057a.041.041,0,0,0,.04-.023v-.017c-.011-.017-.017-.029-.029-.029Zm.137.069c-.006,0-.011.006-.017.011v.017a.39.39,0,0,0,.16.1h.011C33.487-2.4,33.436-2.442,33.385-2.442Zm1.006.269v.017H34.4l.017-.006c0-.006-.006-.011-.017-.011Zm-.835.955a.082.082,0,0,0,.011-.051.43.43,0,0,0,.086-.183c0-.063.023-.1.063-.109a.077.077,0,0,1,.029.057v.011c-.074.183-.137.274-.177.274Zm-.086-.2c.029-.069.046-.109.057-.109l-.051.12H33.47ZM32.9-.9c.069-.069.126-.109.16-.109.149-.16.24-.246.292-.246,0,.029-.029.069-.086.131a.806.806,0,0,1-.337.234h-.011Zm.463-.206h.017V-1.1h-.017Zm-.68.3a.546.546,0,0,0,.149-.051.012.012,0,0,1,.011.011.321.321,0,0,1-.12.046h-.04ZM32.264-.7q0-.069.086-.069l.051.011V-.75a.178.178,0,0,1-.131.063h-.006Zm-1.052.034.034-.006c.011,0,.04.006.08.011v.017a.263.263,0,0,0-.057.006c-.006,0-.029-.006-.057-.011Zm.377.051H31.6v.006H31.59Zm8.984-10.124a.711.711,0,0,0-.5.183,2.351,2.351,0,0,0-.394.869c-.2.663-.36,1.155-.469,1.469-.029.006-.194.029-.509.069a12.285,12.285,0,0,0-1.761.32,2.2,2.2,0,0,0-.492.183.165.165,0,0,0-.069.109.507.507,0,0,0-.063.109v.171l.011.017.04-.006h.011l.011.006c0,.023-.006.057-.011.109.023.046.046.074.08.074s.074-.04.16-.114q0-.043.343-.12c.029,0,.069.006.109.006s.074-.011.074-.017a1.43,1.43,0,0,0,.246-.051.5.5,0,0,0,.1.011.018.018,0,0,0,.011-.006.138.138,0,0,1,.109-.069c.011,0,.051,0,.12.006a.718.718,0,0,0,.12-.051,2.975,2.975,0,0,0,.44-.074q.257-.017.257-.086l-.04-.023a.4.4,0,0,0-.091.046A.037.037,0,0,1,38.4-7.61a1.166,1.166,0,0,0-.3.051h-.017a.594.594,0,0,1-.086-.011.49.49,0,0,0-.194.069.618.618,0,0,0-.274.051,1.215,1.215,0,0,0-.16-.034c-.017.011-.029.017-.029.023a2.57,2.57,0,0,0-.343.1.29.29,0,0,1-.074-.011.025.025,0,0,0-.017.006.443.443,0,0,0-.137.063.505.505,0,0,0-.189.04c-.023-.011-.04-.029-.04-.04s.034-.046.1-.074a.309.309,0,0,0,.091-.046c.006,0,.011.006.017.006a.081.081,0,0,0,.034-.011.124.124,0,0,1,.109-.069c.006,0,.017.011.029.034h.034c.006-.04.011-.057.029-.057h.006c.006.034.017.051.023.051h.034a.422.422,0,0,1,.114-.034.158.158,0,0,0,.051.006h.017c.017,0,.023,0,.029-.006a.21.21,0,0,0,.12-.069h.006a.128.128,0,0,1,.057.017c.109-.011.166-.029.166-.051.017,0,.04.006.069.006a.114.114,0,0,0,.046-.017.059.059,0,0,0,.023.006.671.671,0,0,1,.172-.029c.006,0,.023-.011.051-.04a.114.114,0,0,0,.046.017c.051,0,.074-.023.074-.069,0-.011-.006-.011-.011-.011h-.006l-.029.023h-.011c-.006,0-.017-.017-.034-.046a.158.158,0,0,0,.069-.029q.1-.009.1-.034h.017a.22.22,0,0,1,.063.051.015.015,0,0,0,.017-.017c0-.011.023-.023.069-.04,0-.006-.011-.017-.04-.029.006,0,.017-.006.046-.011.051.017.08.029.086.029l.1-.029c.029.006.04.017.04.034h.011q.017-.009.017-.017a.149.149,0,0,1,.063.017.155.155,0,0,0,.046-.017v-.017l-.023-.006V-7.9l.04-.006h.08a.507.507,0,0,0,.137-.034h.006A.081.081,0,0,1,39-7.9c.034-.006.057-.011.063-.011a.161.161,0,0,1,.046.006q0,.017-.051.034a.214.214,0,0,1-.046-.006l-.029.029h-.017q-.206.009-.206.034v.006c0,.006,0,.011.011.011h.034c.034,0,.12-.017.263-.04h.017a5.089,5.089,0,0,1-.2.572c-.2.657-.383,1.241-.549,1.755-.131.514-.24.892-.32,1.126a6.068,6.068,0,0,1-.166.675,7.228,7.228,0,0,0-.194,1.343v.149a1.141,1.141,0,0,0,.069.406.565.565,0,0,0,.549.389h.074a1.3,1.3,0,0,0,.3-.046,2.548,2.548,0,0,0,.989-.56.632.632,0,0,0,.166-.234L39.8-2.277a.044.044,0,0,1-.017.006c-.109.12-.177.177-.212.177h-.006c0-.006.006-.023.011-.046a1.046,1.046,0,0,0,.212-.194c.091-.1.212-.246.36-.434.057-.086.1-.131.131-.131.011-.046.023-.074.034-.074a.619.619,0,0,0,.154-.206.994.994,0,0,0,.223-.383c.051-.137.08-.212.08-.223a.012.012,0,0,0-.011-.011c-.034,0-.069.04-.114.12-.04.063-.166.252-.377.572h-.006a.2.2,0,0,0-.051.006h-.006c.04-.051.057-.08.057-.1-.011,0-.029-.011-.04-.04q.069-.026.069-.034v-.006c-.011,0-.029-.011-.057-.034-.006,0-.029.017-.063.057v.029c0,.006.006.017.029.034v.006c0,.006-.017.011-.04.011a.28.28,0,0,1-.051.086v.006a.042.042,0,0,0,.011.034l-.006.029c0,.006-.063.069-.183.189a1.936,1.936,0,0,1-.183.2,1.106,1.106,0,0,1-.4.36c-.006,0-.011-.006-.017-.023a.065.065,0,0,0-.057.051,1.033,1.033,0,0,1-.635.389.334.334,0,0,1-.109-.023c-.109-.063-.16-.2-.16-.412v-.086a3.714,3.714,0,0,1,.069-.583.449.449,0,0,1,.074-.309c.246-.44.486-.943.732-1.5.3-.675.457-1.023.457-1.046q.146-.343.24-.617a7.723,7.723,0,0,0,.309-.817c.057-.126.114-.309.189-.537,0,0,.006,0,.017.011h.023a.035.035,0,0,0,.034-.017V-7.8L40.5-7.827c-.029,0-.046.011-.046.034h-.006V-7.8l.046-.109c.046,0,.069.006.069.011a.331.331,0,0,1,.177.034v.006l-.04.006h-.08l-.011.006c.011.029.023.046.029.046h.006a.476.476,0,0,1,.08-.023.062.062,0,0,1,.04.011l-.023.023v.011l.029.006a.681.681,0,0,1,.1-.017l.029.006h.063A.376.376,0,0,0,41.03-7.8c.114.017.257.029.434.04a.244.244,0,0,1,.109.051c.006,0,.023-.011.051-.023A.159.159,0,0,0,41.7-7.7h.006a.132.132,0,0,0,.051-.017c.24.034.434.069.583.1.051,0,.074-.006.08-.011l.2.051h.04c.12-.023.183-.08.183-.166v-.04a.549.549,0,0,0-.3-.429,2.758,2.758,0,0,0-1.178-.149h-.234c-.149,0-.314.006-.509.017.131-.412.24-.777.32-1.086a6.171,6.171,0,0,0,.154-.938v-.04a.219.219,0,0,0-.029-.109A.3.3,0,0,1,41-10.48H40.99c-.023,0-.034-.034-.034-.091a.073.073,0,0,0-.074-.08l-.011.006a.025.025,0,0,1-.017-.006.346.346,0,0,0-.046-.074H40.8c-.006,0-.011.011-.023.029l-.011-.006a.265.265,0,0,0-.16-.034Zm-.109,2.407a5.675,5.675,0,0,0,.171-.577,6.308,6.308,0,0,0,.274-1.183c.017-.154.046-.229.074-.229H41l.006.069v.051a3.6,3.6,0,0,1-.12.743,8.421,8.421,0,0,1-.3,1.12.854.854,0,0,1-.109.006Zm-.474.04c.034-.1.057-.149.057-.149a8.32,8.32,0,0,1,.406-1.08,1.152,1.152,0,0,1,.2-.4h.006v.029a.58.58,0,0,1-.04.143.7.7,0,0,1-.04.183c0,.006.006.011.006.017l-.017.086c-.051.194-.08.3-.08.32v.029l.006.011c.023-.017.034-.034.034-.046h.006c.006,0,.011,0,.011.011v.074a.119.119,0,0,1-.04.086c-.029.126-.046.189-.063.189l.006.029a.353.353,0,0,1-.023.091h-.006q-.017,0-.017-.034v-.017c.017,0,.029-.006.029-.011v-.023a.081.081,0,0,0-.011-.034.2.2,0,0,0,.051-.149.012.012,0,0,0-.011-.011c-.017,0-.029.034-.04.1a.427.427,0,0,0-.051.189.352.352,0,0,1,.006.074v.074c-.006.034-.011.057-.023.057h-.006v-.011h-.011v.046l-.011-.006c-.006,0-.011,0-.011.011a.2.2,0,0,1,.011.057v.006l-.006.029a1.172,1.172,0,0,1-.32.034Zm.732-1.12h.006V-9.4a.793.793,0,0,1-.051.234c-.006,0-.011-.006-.017-.023l.023-.086A.7.7,0,0,0,40.722-9.411Zm-.12.452c.017-.1.034-.143.051-.143,0,.051-.011.08-.023.08-.011.057-.017.08-.029.08Zm-.017.034H40.6v.034a.035.035,0,0,1-.017.034v-.029Zm-.114.137c0-.006,0-.011.011-.011v.017H40.47Zm-.086.177a.012.012,0,0,1,.011-.011l.006.029-.006.011a.012.012,0,0,1-.011-.011Zm.086.1a.131.131,0,0,1,.046-.1v.029a.144.144,0,0,0-.034.1H40.47Zm-.029.1h.006v.023h-.006Zm-.023.057h.006v.029h-.006Zm.177.1a.5.5,0,0,1,.12.034V-8.2l-.029.006h-.051l-.034.029h-.017l-.011-.006A.457.457,0,0,0,40.6-8.256Zm-.16.006s.023,0,.074.006a.129.129,0,0,0,.04-.006.457.457,0,0,0-.023.086H40.5a.191.191,0,0,0-.074-.04A.108.108,0,0,0,40.436-8.25Zm-.2.1c0-.057.017-.086.046-.086h.006a.4.4,0,0,1-.011.086l-.011-.006h-.017Zm-.274-.057a1.97,1.97,0,0,1,.269-.023h.006a.153.153,0,0,0-.046.1h-.051a.315.315,0,0,0-.12.029c-.017,0-.046-.006-.086-.006A.6.6,0,0,1,39.961-8.21Zm.886.034a.021.021,0,0,1,.006-.017.6.6,0,0,1,.166-.034.232.232,0,0,1,.1.029v.006a.354.354,0,0,0-.063.017h-.011L40.893-8.2c-.006,0-.011.006-.011.023ZM37.9-7.85c.006-.029.04-.046.1-.046.1-.034.149-.057.154-.057.137,0,.212-.011.212-.029l.183-.046a.8.8,0,0,0,.212-.046.918.918,0,0,0,.332-.051.308.308,0,0,1,.046.006l.04-.006h.006l-.04.1-.069-.006A.186.186,0,0,0,39-8.01c-.086.011-.252.034-.492.074h-.1c-.017.011-.023.017-.023.023a.962.962,0,0,0-.206.034l-.034-.006h-.017a.537.537,0,0,1-.217.034Zm3.024-.12a.058.058,0,0,1,.029-.046h.006a.043.043,0,0,0,.011.023c-.011.023-.023.029-.029.029h-.017Zm-1.715.006h.011c.011,0,.011.006.011.011l-.011.017c-.006,0-.006,0-.011-.011Zm1.143.034c.017.017.029.023.034.023l.029-.006a.034.034,0,0,1,.023.006,1.205,1.205,0,0,1-.1.286,8.161,8.161,0,0,1-.292.806,7.255,7.255,0,0,1-.434,1.058,3.48,3.48,0,0,1-.16.406c-.086.166-.166.337-.24.509a1.535,1.535,0,0,0-.172.3c-.069.154-.12.24-.149.252a.006.006,0,0,0-.006-.006.553.553,0,0,1,.074-.137,2.215,2.215,0,0,1,.143-.326c.1-.257.166-.4.189-.44a1.182,1.182,0,0,1,.16-.349,1.736,1.736,0,0,1,.143-.366,3.6,3.6,0,0,1,.143-.349l.12-.32a.768.768,0,0,0,.1-.3c.08-.189.131-.332.16-.417a1.563,1.563,0,0,0,.109-.332A1.013,1.013,0,0,0,40.35-7.93Zm-.474.034c.12-.006.217-.011.3-.023h.011l-.006.011v.069c-.023,0-.034.011-.034.04h-.011c-.011,0-.011-.011-.011-.034h-.006c-.017.006-.023.017-.023.04v.029c.006.011.017.023.023.023a.236.236,0,0,1-.034.109.221.221,0,0,1-.063.177.53.53,0,0,1-.08.206l-.023-.017H39.91v.006l.006.034c-.006.017-.017.029-.023.029a.176.176,0,0,0,.023.051.076.076,0,0,1-.017.04l-.023-.011a.018.018,0,0,0-.011.006.646.646,0,0,0,.006.08.184.184,0,0,0-.034.1c-.023,0-.034,0-.034-.006,0,.011-.006.011-.011.011l.011.04v.074l-.006.04h-.011q-.017,0-.017-.034v-.017H39.75a.314.314,0,0,0-.04.109.049.049,0,0,0,.017.034.081.081,0,0,1-.011.034L39.7-6.65c-.011,0-.017.017-.029.046a.161.161,0,0,0,.006.046c-.006.011-.006.017-.011.017-.011.074-.029.109-.04.109a.012.012,0,0,1-.011-.011l-.011.006.006.029v.034L39.59-6.4c-.017,0-.051.086-.1.263a.794.794,0,0,0-.1.229l-.069.154c-.137.3-.229.5-.263.6v.006l.006.04-.011-.006a.071.071,0,0,0-.017.011q-.026.069-.034.069a1.99,1.99,0,0,0-.183.372h-.006c.029-.109.154-.492.372-1.155.234-.749.44-1.383.612-1.892.017-.011.029-.023.029-.04a.012.012,0,0,0-.011-.011c.029-.086.046-.131.046-.137A.021.021,0,0,1,39.876-7.9Zm-2.224.057v-.006a.7.7,0,0,1,.137-.04H37.8a.012.012,0,0,1,.011.011l-.006.011a.532.532,0,0,0-.12.034A.081.081,0,0,1,37.652-7.839Zm1.092-.046a.012.012,0,0,0-.011.011v.006a.021.021,0,0,1,.017.006c0-.006,0-.011.011-.011a.012.012,0,0,0-.011-.011Zm.835.046q.009-.017.017-.017v.034Q39.578-7.83,39.578-7.839Zm-.423.091c0-.011,0-.011.006-.011.006-.057.023-.086.046-.086v.011c.029.017.04.034.04.051A.775.775,0,0,0,39.155-7.747Zm.5-.057a.035.035,0,0,1,.017-.034h.011q.017.009.017.017V-7.8a.038.038,0,0,1-.023.04A.038.038,0,0,1,39.653-7.8Zm-.989-.029a.345.345,0,0,1-.074.046c0,.006.011.011.029.017.057-.017.086-.023.086-.029S38.692-7.816,38.664-7.833Zm-.537.04c-.006,0-.011,0-.011.011l.006.011.034-.006v-.006a.012.012,0,0,0-.011-.011Zm.406.011c-.034.011-.069.017-.109.029v.011c.08-.006.114-.017.114-.029v-.011Zm1.492,0a.035.035,0,0,0-.034.017v.017h.029q.017-.009.017-.017V-7.77A.012.012,0,0,0,40.024-7.782Zm-.143.006-.023.006v.006c0,.006,0,.011.011.011h.011c.011,0,.011-.006.011-.011S39.893-7.776,39.881-7.776Zm-2.024.029c.029.006.063.017.1.029v.011a.214.214,0,0,0-.1.029.2.2,0,0,0-.091-.023h-.006a.058.058,0,0,0-.063.051.154.154,0,0,1-.074-.04.16.16,0,0,1,.029-.046c.029.011.046.023.046.029a.091.091,0,0,1,.057-.029h.023l.029.017C37.841-7.73,37.858-7.736,37.858-7.747Zm1.595.023q0-.017.034-.017a.043.043,0,0,0,.006.023l-.023.011a.071.071,0,0,1-.017-.011Zm-1.212-.017a.006.006,0,0,0-.006.006c-.057.011-.086.023-.086.029V-7.7c0,.011,0,.011.011.011h.017l.051-.017c.011,0,.029.006.046.006l.017-.017C38.292-7.725,38.275-7.736,38.241-7.742Zm.143.011v.006H38.4V-7.73Zm-1.429.046c0-.006.006-.011.023-.017s.011.011.017.023-.006.011-.011.011h-.006Zm.452-.017h.029v.011h-.017C37.412-7.69,37.406-7.69,37.406-7.7Zm2.092.04c0-.006.011-.017.04-.029q0,.06-.034.069L39.5-7.65Zm-.583-.029a.322.322,0,0,0-.069.023c0,.023.006.029.011.029h.04c.046,0,.063-.006.063-.017C38.944-7.679,38.932-7.69,38.915-7.69Zm-.1.006a.158.158,0,0,0-.069.029c.011.023.023.034.04.034s.017-.011.04-.046C38.812-7.673,38.812-7.679,38.812-7.685Zm-.383,2.458a.106.106,0,0,0,.1-.074,2.448,2.448,0,0,1,.086-.24.778.778,0,0,1,.034-.137c.16-.537.269-.869.32-.995l.183-.543a1.232,1.232,0,0,0,.069-.206c.04-.171.08-.257.109-.257.006,0,.006.011.006.034a1.856,1.856,0,0,0-.063.212.439.439,0,0,0-.074.223,1.868,1.868,0,0,0-.08.257.508.508,0,0,0-.057.149.429.429,0,0,0-.04.114c-.034.109-.069.24-.114.4a.58.58,0,0,0-.057.217,4.358,4.358,0,0,0-.234.732.231.231,0,0,0-.034.063l.006.034v.006a.306.306,0,0,0-.063.16c-.029.1-.051.16-.057.194s.011.046.023.046H38.5c.006,0,.011-.011.017-.029s-.006-.034-.006-.051v-.006A.1.1,0,0,1,38.561-5c-.006-.023-.011-.04-.011-.046a.93.93,0,0,0,.074-.177c.011-.1.029-.149.04-.149a.478.478,0,0,1,.051-.16c.017-.143.04-.212.074-.212l-.006-.069.057-.011-.017.023v.006a.35.35,0,0,0,.029.034h.006a.091.091,0,0,0,.046-.017L38.9-5.827a.041.041,0,0,1,.023-.04h.017c.006,0,.011.006.017.011h.023Q39-5.864,39-5.872c-.011-.017-.017-.023-.023-.023h-.051a.257.257,0,0,0,.011-.08v-.011H38.91a.12.12,0,0,1-.046.034v-.029a.157.157,0,0,1,.023-.029c.023-.1.046-.149.074-.149a.216.216,0,0,0-.006-.046.112.112,0,0,1,.063-.1.338.338,0,0,1,.046.029l-.023.114-.017-.011h-.017A.012.012,0,0,0,39-6.158v.011c.017.017.023.023.023.029v.006A.035.035,0,0,1,39-6.078l-.034-.006a.1.1,0,0,1-.029.011v.023a.672.672,0,0,1,.086.063h.017c.011-.057.029-.086.04-.086h.029a.044.044,0,0,0,.006.017c-.011.051-.029.109-.051.183a1.1,1.1,0,0,1-.057.149H39c0-.017-.006-.023-.017-.023L39-5.769v-.011h-.04q0-.034-.017-.034h-.006q-.017.009-.017.017v.011a.49.49,0,0,1,.017.1v.006l-.051.034-.023.1c0,.011.011.023.034.029.011-.017.023-.029.029-.029s.006.011.006.017a.287.287,0,0,1-.017.08.261.261,0,0,1-.034-.023h-.006a.049.049,0,0,0-.034.017c0,.017.006.029.011.029H38.9c0,.006.006.017.006.023a.539.539,0,0,1-.069.189,2.9,2.9,0,0,1-.12.406V-4.8q.009.017.017.017h.006l.023-.017v.017a.035.035,0,0,1-.017.034c-.029,0-.046.017-.057.057-.029.1-.046.149-.057.149h-.006c-.006,0-.017-.017-.04-.051h-.006a.125.125,0,0,1-.029.08c0,.006.006.011.006.017.051.011.074.023.074.034-.006.034-.011.057-.023.057h-.023c-.011,0-.011-.011-.017-.029h-.011a.1.1,0,0,1-.029.063v.011c.034.011.046.023.046.034a.244.244,0,0,0-.046.12v.034h-.006c-.04-.017-.057-.034-.057-.063v-.006a.582.582,0,0,1,.023-.091v-.029a.012.012,0,0,0-.011-.011h-.006l-.046.046a1.363,1.363,0,0,1-.057.143.457.457,0,0,0-.051.2c0,.1-.011.154-.04.177v.023l.063.046.017-.011h.011a.174.174,0,0,1-.074.069l.006-.029L38.3-3.723c-.023,0-.046.057-.063.177a.624.624,0,0,1-.074.314.076.076,0,0,0,.017.04h-.006c-.029,0-.04.023-.046.069a.281.281,0,0,0,.017.069.2.2,0,0,0-.04.04.14.14,0,0,0,.006.04,1.286,1.286,0,0,1-.04.143v.006a.135.135,0,0,0,.069.131.092.092,0,0,0-.034.074.1.1,0,0,0-.086.109l.006.011a.243.243,0,0,0-.029.069v.006a.2.2,0,0,0,.023.1c.029.017.04.029.04.034-.034,0-.051.057-.063.16a.873.873,0,0,0,.006.1.632.632,0,0,0-.006.091.068.068,0,0,0,.023.046v.034h-.006c-.029-.017-.04-.051-.04-.1v-.023c0-.006-.006-.011-.023-.017s-.017.017-.023.046q.017.077.017.086l-.023-.006c-.023,0-.046-.114-.074-.349a3.207,3.207,0,0,0,.034-.337,1.12,1.12,0,0,0-.011-.154.527.527,0,0,1,.029-.114s0-.046-.006-.137a.129.129,0,0,1,.029-.086.517.517,0,0,0,.057-.274.074.074,0,0,0-.029-.063h-.006c-.017,0-.051.091-.1.274h-.006c-.006,0-.011-.011-.017-.04.006-.046.011-.074.017-.074.023-.177.04-.269.057-.269a1.225,1.225,0,0,1,.04-.269.543.543,0,0,1,.051-.189.889.889,0,0,1,.08-.3.825.825,0,0,1,.023-.131.738.738,0,0,0,.046-.217,3.735,3.735,0,0,0,.154-.549.279.279,0,0,0,.046-.137.262.262,0,0,0,.034-.091c.006-.029.063-.212.177-.549a.8.8,0,0,1,.08-.263,1.208,1.208,0,0,1,.051-.183,1.568,1.568,0,0,0,.086-.3.263.263,0,0,0,.074-.194,1.2,1.2,0,0,0,.1-.269.484.484,0,0,1,.086-.246c.046-.171.069-.257.086-.257h.034v.023a.076.076,0,0,0-.017.04v.051l-.04.046v.006l.029.029v.011H39.11l-.017-.011h-.006c-.006,0-.011,0-.011.011l.011.04a.054.054,0,0,1-.034.046,1.15,1.15,0,0,1-.034.154c-.023,0-.04.051-.046.154-.029.029-.046.046-.046.051s.006.011.006.023c-.023.08-.034.126-.034.126.017.017.023.029.029.029,0,.017-.011.04-.046.063a.664.664,0,0,0-.086.274c0,.011.006.017.029.017a.111.111,0,0,0-.046.091V-6.3c-.029,0-.057.051-.091.16v.017s.011.011.034.04v.017c-.029,0-.057.023-.08.069a.378.378,0,0,1,.006.063.278.278,0,0,0-.063.109L38.6-5.8v.011c-.017.023-.034.04-.046.04-.011.063-.023.091-.034.091a.17.17,0,0,1-.029.114c-.017.08-.034.143-.046.194a.062.062,0,0,0,.011.046c0,.006-.017.017-.046.04C38.407-5.244,38.412-5.232,38.429-5.226Zm1.178-2.412a.048.048,0,0,1,.023-.04c.011,0,.011.006.011.011v.006c0,.029-.006.046-.023.051A.037.037,0,0,0,39.607-7.639Zm-2.8.011c0-.023.017-.04.046-.046h.057v.006c0,.011-.029.029-.08.046h-.011Zm.52-.046h.011v.006h-.011Zm1.338.017-.046.046.006.011A.565.565,0,0,0,38.71-7.6V-7.61a.106.106,0,0,0-.04-.046ZM37.04-7.6c0-.023.057-.04.177-.04h.023c0,.006-.006.011-.029.017l-.051-.006a.756.756,0,0,0-.1.04A.025.025,0,0,0,37.04-7.6Zm-.166.017.074-.017c0,.006.006.006.023.006q0,.017-.034.017h-.063Zm-.337.137a.236.236,0,0,0,.04-.063.916.916,0,0,1,.252-.063h.017a.05.05,0,0,1-.051.046h-.046l-.046.04h-.057a.376.376,0,0,1-.1.051h-.006Zm2.927-.057h.006v.034c0,.006-.006.023-.011.051-.034-.011-.051-.017-.051-.023v-.011l.006-.011C39.447-7.479,39.464-7.5,39.464-7.507Zm.08.029c.017.006.023.011.023.017l-.017.023q-.017-.009-.017-.017v-.006Zm-.406.034h.011v.006h-.011Zm.269.074c.006,0,.011,0,.011.006v.006C39.413-7.359,39.407-7.359,39.407-7.37Zm-.1.595c.011-.057.023-.086.029-.086A.224.224,0,0,1,39.4-7.05c.029-.149.057-.223.08-.223h.006l.006.029a.1.1,0,0,1-.023.057l-.086.292a.245.245,0,0,0-.057.131,3.2,3.2,0,0,1-.131.446c-.006,0-.023-.017-.046-.046v-.011c.017,0,.04-.017.057-.051a.852.852,0,0,1,.109-.326A.034.034,0,0,1,39.31-6.776Zm.046-.446a.031.031,0,0,1,.023-.034c.006,0,.006.006.011.017l-.017.057h-.011l-.006-.029Zm.566.017a.012.012,0,0,1,.011-.011h.006v.023c0,.006,0,.011-.011.011S39.927-7.2,39.921-7.2Zm-.583.051c.006,0,.011.006.017.023s-.006.017-.011.017h-.017C39.327-7.119,39.333-7.13,39.338-7.153Zm.5.1q-.017.009-.017.017c0,.011,0,.011.011.011s.011-.006.017-.017S39.847-7.05,39.841-7.05Zm-.572.08c0-.011.011-.017.023-.023l.011.017v.006c0,.006-.006.011-.023.017A.071.071,0,0,1,39.27-6.97Zm.514.069a.012.012,0,0,0-.011.011v.023h.017V-6.89Zm-.715.269H39.1a.021.021,0,0,0,.006.017l-.029.114H39.07Zm.583.063v.017h.011V-6.57Zm-.023.051v.006h.011v-.006Zm-.537.091c.023-.051.04-.08.051-.08a.021.021,0,0,0,.006.017.071.071,0,0,0-.011.017V-6.4a.055.055,0,0,1-.04.051l-.023-.023h-.034l-.011.006a.081.081,0,0,0-.011-.034c.011-.023.023-.029.029-.029h.006Zm-.074.143v.017l.011-.006A.012.012,0,0,0,39.018-6.284Zm.114.011h.029a.012.012,0,0,1,.011.011v.011a.669.669,0,0,1-.057.154H39.11a.036.036,0,0,1-.029-.034A.391.391,0,0,0,39.133-6.273Zm-.452.171c-.006,0-.011,0-.011.011v.006h.017V-6.1Zm.166.206c0-.006,0-.011.006-.011v.017h-.006Zm-.194,0h.006v.011h-.006Zm.326.206c.011-.017.017-.023.023-.023v.006l-.011.034c-.006,0-.011,0-.011-.006Zm-.166.1a.04.04,0,0,0-.023.029c0,.006.006.011.023.017s.029-.011.029-.017v-.017a.012.012,0,0,0-.011-.011Zm-.051.16v.011c0,.006,0,.011.011.011a.012.012,0,0,0,.011-.011.012.012,0,0,0-.011-.011Zm.086.046c-.017.006-.029.011-.029.023v.017c0,.006,0,.006.011.006h.017q.017-.009.017-.017v-.011Q38.864-5.378,38.847-5.386Zm-.131.086v.006h.011V-5.3Zm-.011.069c-.006,0-.011.011-.023.034v.006h.006l.029-.006V-5.2l-.006-.029Zm.051.017a.012.012,0,0,0-.011.011v.029c0,.006.011.017.029.023s.017-.011.023-.029a.012.012,0,0,0-.011-.011l.011-.017v-.006Zm-.292.006q-.017.009-.017.017v.011c0,.006.006.011.023.017s.011-.006.017-.023C38.475-5.2,38.469-5.209,38.464-5.209Zm.286.069a.012.012,0,0,0-.011.011v.006a.012.012,0,0,0,.011.011.012.012,0,0,0,.011-.011v-.017Zm-.3.017a.043.043,0,0,0-.029.046h-.034a.062.062,0,0,0-.04.017.612.612,0,0,1-.034.131c.006.063.034.091.074.091.006,0,.017-.023.034-.063a.25.25,0,0,1,.04-.171v-.04A.012.012,0,0,0,38.447-5.123Zm.229,0c-.029,0-.046.017-.057.063v.023l.006.051a.206.206,0,0,0-.023.029v.034q.009.017.017.017h.011a.66.66,0,0,1,.074-.166A.079.079,0,0,0,38.675-5.123Zm0,.217a.012.012,0,0,0-.011.011v.006a.012.012,0,0,0,.011.011h.006v-.029Zm-.206.086c-.029.011-.04.04-.04.086a.825.825,0,0,0-.057.212.012.012,0,0,1,.011.011c.023-.011.034-.023.034-.04a1.069,1.069,0,0,1,.063-.229v-.029A.012.012,0,0,0,38.469-4.821Zm.074.08q-.017,0-.051.034c0,.034.006.057.023.057h.006c.011,0,.023-.023.04-.074,0-.011,0-.017-.011-.017Zm-.234.006a.114.114,0,0,0-.069.046v.006c.006.029.017.04.023.04s.011-.006.011-.017h.04a.071.071,0,0,0,.017-.011v-.046C38.332-4.723,38.327-4.729,38.309-4.735Zm.417.046h.006v.011h-.006Zm-.114.006c-.006,0-.011,0-.011.011v.006l.006.011c.023,0,.029-.006.029-.011S38.629-4.678,38.612-4.683Zm-.377.08c-.023.017-.04.069-.051.166a.643.643,0,0,0-.046.212c.006.051.017.074.034.074h.006c.011-.006.029-.046.046-.126l-.023-.04c0-.006.006-.011.011-.017.046-.034.063-.1.063-.212v-.011a.047.047,0,0,0-.029-.046Zm.131.143c-.017.011-.029.017-.029.023v.023l.011.017c.017-.011.029-.017.029-.023v-.006A.081.081,0,0,0,38.367-4.46Zm-.051.16q-.017.009-.017.017v.017c.011.017.017.023.023.023s.017-.011.017-.017v-.017C38.327-4.289,38.321-4.3,38.315-4.3Zm-.011.074H38.3c-.017,0-.029.034-.04.1v.017a.012.012,0,0,0,.011.011h.011a.462.462,0,0,0,.029-.12Zm.149.057c.046,0,.063.017.063.051a.4.4,0,0,1-.023.1h-.006l-.017-.017-.029-.114Zm-.274.04c-.029,0-.057.023-.1.069a.389.389,0,0,1-.029.12c0,.011.017.017.063.023l.017-.011a1.527,1.527,0,0,1,.057-.194Zm.234.137L38.441-4h.023l.006.034v.006c-.023.057-.051.114-.086.189h-.017c-.006,0-.011-.006-.017-.023s.023-.029.046-.046a.6.6,0,0,0-.011-.074.093.093,0,0,1,.046-.051c0-.006-.006-.011-.017-.011Zm-.36.08a.324.324,0,0,0-.057.194A.16.16,0,0,0,38-3.683h.011a.67.67,0,0,0,.091-.086l-.017-.057v-.017a.07.07,0,0,0,.017-.051Q38.1-3.9,38.052-3.912Zm.257.24h.006v.006a.073.073,0,0,1-.029.04A.26.26,0,0,1,38.309-3.671Zm2.2.069c-.023,0-.046.023-.063.063v.023l.011.017.069-.08v-.006Q40.519-3.6,40.51-3.6Zm-2.561.12a.012.012,0,0,0-.011.011c.023.029.04.04.063.04h.006a.012.012,0,0,0,.011-.011v-.006A.069.069,0,0,0,37.949-3.483Zm2.5.006a.012.012,0,0,0-.011.011l.006.011a.012.012,0,0,0,.011-.011Zm-.091.051q-.017.009-.017.017V-3.4a.012.012,0,0,0,.011.011h.011q.017-.009.017-.017v-.011a.012.012,0,0,0-.011-.011Zm-.091.04a.059.059,0,0,0-.029.034c0,.011.006.017.011.017h.006c.023-.017.029-.023.029-.029v-.011c0-.006,0-.011-.011-.011Zm.074.023a.118.118,0,0,0-.08.051l.023.011c.023,0,.04-.017.057-.051ZM38.086-3.3a.012.012,0,0,0-.011.011c0,.011,0,.011.011.011h.006v-.011Zm-.023.051a.021.021,0,0,1-.006.017.043.043,0,0,0,.011.023l.017-.011c-.006-.017-.011-.029-.017-.029Zm.171.137a.012.012,0,0,1,.011-.011v.046c-.006,0-.006-.006-.011-.011Zm-.4.046q.009,0,.017.034l-.011.114v.023a.149.149,0,0,1-.017.057c-.011.109-.023.166-.04.166h-.006l-.006-.04v-.017a.229.229,0,0,1,.017-.086C37.789-2.963,37.806-3.048,37.835-3.066Zm.4.029h.011l.006.04c-.006.04-.017.057-.029.057h-.011c-.006,0-.006,0-.011-.011v-.006A.172.172,0,0,1,38.235-3.037ZM40.19-3c.006,0,.011,0,.011.011l-.006.011c-.011,0-.011-.006-.011-.011Zm-2,.183h.011c0,.006.006.017.006.023a.684.684,0,0,1-.017.08h-.011a.021.021,0,0,0-.006-.017Zm1.835.1c.023-.04.046-.063.074-.063h.006q-.017.069-.034.069h-.017Zm-2.052.04c-.006,0-.011,0-.011.011v.017l.011.011c.017,0,.029-.006.029-.011v-.006C38.006-2.66,37.995-2.671,37.978-2.677Zm-.017.1c-.011.011-.023.017-.023.023v.006c0,.011.006.011.011.011h.017c0-.006,0-.006.006-.017S37.966-2.562,37.961-2.574ZM40-2.494a.012.012,0,0,0-.011.011v.011A.012.012,0,0,0,40-2.482Zm-1.961.023a.012.012,0,0,1,.011-.011h.006a.012.012,0,0,1,.011.011v.017A.052.052,0,0,0,38.035-2.471Zm.057.017a.034.034,0,0,0,.023-.006h.006l-.006.023h-.023Zm-.149.023q-.009,0-.017.034v.029c.011.011.017.023.023.023h.011c.006,0,.011-.011.017-.023-.006-.046-.011-.063-.017-.063Zm1.989,0v.011h.017v-.011Zm-.034.046q-.017.009-.017.017v.011H39.9q.017-.009.017-.017c0-.006,0-.011-.011-.011Zm-.057.051v.011h.011v-.011ZM38.1-2.271a.034.034,0,0,0,.023-.006.927.927,0,0,0,.017.12.142.142,0,0,0-.006.051c-.011,0-.023-.017-.034-.046,0-.051.006-.086.006-.1A.025.025,0,0,1,38.1-2.271Zm-.166.006c0,.034.006.074.006.126l-.006.04c.011.034.017.051.029.051h.006v-.017a.894.894,0,0,0-.023-.2Zm.172.326c0-.006,0-.006.011-.011h.011q.017.009.017.017V-1.9c-.023,0-.034-.006-.04-.023Zm7.554-3.842-.017.006c-.1.051-.143.1-.143.137a1.122,1.122,0,0,0-.091.12c-.011.091-.017.137-.029.137a.985.985,0,0,1-.091.269v.023l.006.011c-.006,0-.011.017-.017.063-.04.023-.057.046-.057.051a.085.085,0,0,0,.011.051l-.046.063v.023l.006.011c.023-.006.04-.011.04-.029h.006v.017a.853.853,0,0,1-.143.292c-.017.063-.034.091-.051.091a.918.918,0,0,1-.109.177c-.029.091-.051.131-.063.137a.556.556,0,0,0-.057.086.219.219,0,0,1-.046.1,1.371,1.371,0,0,1-.149.223.516.516,0,0,1-.114.177.688.688,0,0,1-.126.2c-.046.074-.086.114-.1.114a.092.092,0,0,1,.023-.057v-.029a.108.108,0,0,1-.051.023.351.351,0,0,0-.074.1.088.088,0,0,0,.017.034.165.165,0,0,0,.074-.051h.006V-3.2a.566.566,0,0,1-.074.109h-.011v-.04a.012.012,0,0,0-.011-.011h-.006l-.017.011V-3.14h-.006c-.04.057-.08.109-.12.16a2.64,2.64,0,0,1-.5.583c-.252.292-.434.434-.56.434h-.006a.1.1,0,0,1-.04-.006c-.086-.04-.126-.16-.126-.366v-.051a5.3,5.3,0,0,1,.1-.84,6.6,6.6,0,0,1,.269-.955,8.576,8.576,0,0,1,.366-.966,1.235,1.235,0,0,0,.126-.36v-.006a.211.211,0,0,0-.011-.074.316.316,0,0,0-.28-.189.631.631,0,0,0-.349.1c-.023,0-.074.1-.149.292l-.189.446c-.046.183-.086.354-.131.509A6.555,6.555,0,0,0,42.1-2.557v.051c0,.046,0,.069.006.069a.974.974,0,0,0,.309.6,1,1,0,0,0,.652.28h.017a.5.5,0,0,0,.274-.12.7.7,0,0,0,.252-.16,4.233,4.233,0,0,0,.549-.612V-2.46a1.239,1.239,0,0,0-.166.166,1.108,1.108,0,0,0-.183.171c0,.04-.063.063-.183.069v-.006a1.169,1.169,0,0,0,.183-.143,4.181,4.181,0,0,0,.457-.48,9.394,9.394,0,0,0,.657-.96h.006v.006a.938.938,0,0,0-.057.372.987.987,0,0,0,.091.434.805.805,0,0,0,.789.457h.006a1.642,1.642,0,0,0,.869-.269c.086-.074.126-.12.126-.137a1.041,1.041,0,0,0,.263-.286c0-.006,0-.011-.011-.011a.257.257,0,0,0-.051-.1c.006-.029.011-.04.011-.046a.012.012,0,0,0-.011-.011.1.1,0,0,0-.051.023.511.511,0,0,1-.143.149l-.011-.006.006-.023c.057-.046.086-.086.086-.114v-.011H46.83a.107.107,0,0,0-.057.029,1.868,1.868,0,0,1-.309.252c-.011.023-.034.029-.074.029q0,.026-.1.069c-.1.011-.154.029-.154.04l.017.029c0,.006-.023.023-.074.051a.86.86,0,0,1-.269-.04.431.431,0,0,1-.28-.446v-.063A.93.93,0,0,1,45.6-3.6a.158.158,0,0,1-.006-.046,3.464,3.464,0,0,0,.1-.412c.137-.423.206-.64.206-.646a2.037,2.037,0,0,0,.12-.434v-.006l-.029-.234v-.057a.177.177,0,0,1,.029-.063c0-.006,0-.011-.011-.023l-.017.011h-.011c-.057-.08-.1-.126-.12-.126-.023.023-.034.034-.04.034s-.011-.011-.023-.04l.011-.017c-.017-.057-.029-.086-.046-.086h-.006c-.034.006-.057.011-.063.011h-.006A.112.112,0,0,0,45.658-5.781Zm.154.3c0-.006.011-.017.04-.029l.011.006c0,.006-.017.017-.046.023ZM45.749-5h.023c.006,0,.011,0,.011.006v.023l-.006.034a.185.185,0,0,1-.057.126v.029l.029.029-.051.034c0,.006.006.011.006.023-.011.04-.023.057-.034.057a.748.748,0,0,1-.051.16,1.058,1.058,0,0,0-.063.217v.011l.006.011a.044.044,0,0,0,.017-.006h.006v.029a.5.5,0,0,1-.029.074c-.011,0-.011-.011-.011-.029h-.017a.437.437,0,0,1-.029.091A.261.261,0,0,1,45.469-4v.011c0,.011.006.011.011.011l.017-.011c.006-.063.017-.091.04-.091a.044.044,0,0,0,.006.017c-.006.017-.011.029-.017.029-.011.063-.057.246-.143.543l-.023-.023a.282.282,0,0,0,.017-.086l-.011-.017h-.006a1.8,1.8,0,0,0-.063.269c0,.006,0,.011.011.011s.029-.04.04-.109V-3.46h.011v.046a.26.26,0,0,1-.023.1.044.044,0,0,1-.029-.011H45.3l-.023.011a.327.327,0,0,1-.057.194c.011.08.023.131.023.143a.25.25,0,0,1-.04.12l-.011-.006a.308.308,0,0,0-.051-.149A.037.037,0,0,0,45.115-3a.778.778,0,0,0,.006.091c-.034,0-.051-.034-.051-.1a.393.393,0,0,0,.017-.143.3.3,0,0,0-.017-.029.247.247,0,0,0,.023-.08c0-.023-.006-.04-.017-.04a.858.858,0,0,0-.051.263L45.029-3l-.011.034h-.006c0-.006,0-.011-.011-.023a.467.467,0,0,0,.006-.08.353.353,0,0,0-.011-.1.5.5,0,0,0,.011-.114.136.136,0,0,0-.017-.086V-3.38a.106.106,0,0,0,.04-.011.321.321,0,0,1,.04-.131l-.017-.023-.011.006c-.006.04-.011.063-.023.063h-.023a.161.161,0,0,0-.006-.046.153.153,0,0,1,.046-.091h.006c0,.011.006.017.011.017a.1.1,0,0,0,.04-.086,1.474,1.474,0,0,0,.057-.189.911.911,0,0,0,.069-.177l.074-.1v.006l-.029.149v.006c0,.011,0,.011.011.011h.006l.011-.006L45.286-4c0-.011,0-.011.011-.011H45.3l.029.006q.051-.017.051-.051a.372.372,0,0,0,.051-.149.446.446,0,0,0,.051-.12l-.006-.006a.716.716,0,0,0,.051-.154.478.478,0,0,0,.057-.177c0-.017.023-.04.069-.08v-.006c0-.011,0-.017-.006-.023Zm-.24.063.011.006c-.011.057-.023.086-.029.086a.289.289,0,0,1-.029.109.045.045,0,0,1-.023-.023c.011,0,.023-.034.034-.1A.215.215,0,0,0,45.509-4.941Zm-2.418.154a.012.012,0,0,1,.011.011h-.011Zm2.035.034q-.017.009-.017.017v.006q.009.017.017.017h.011q.017-.009.017-.017C45.155-4.74,45.144-4.746,45.126-4.752Zm.154.509.046-.171c.034-.029.046-.086.046-.177.029-.086.051-.131.069-.131v.017l-.011.04v.04a.111.111,0,0,1-.006.046c-.034.086-.057.154-.08.217-.006.051-.017.074-.029.074v.029c0,.04-.011.057-.017.057h-.011l-.006-.029Zm-.246-.36A.07.07,0,0,1,45-4.546v.006c.011.017.017.023.023.023a.1.1,0,0,0,.029-.074V-4.6Zm-2.029.011.011.006c-.011.04-.029.063-.04.063A.1.1,0,0,1,43.005-4.592Zm1.989.109h-.011c-.011.034-.029.074-.046.114,0,.006.006.011.006.017h.017l.006-.034c.029-.029.046-.051.046-.069v-.011Q45-4.483,44.995-4.483Zm.652.023h.006v.011h-.006ZM43.554-2.082v-.006c.046-.051.1-.109.149-.177a1.493,1.493,0,0,1,.177-.252.474.474,0,0,1,.091-.126,1.107,1.107,0,0,1,.171-.217.383.383,0,0,1,.149-.234,3.064,3.064,0,0,1,.246-.372c.063-.12.1-.183.1-.183a1.515,1.515,0,0,1,.12-.194c.051-.109.086-.166.1-.166.046-.1.091-.171.12-.223a1.027,1.027,0,0,1,.149-.223,4.038,4.038,0,0,1-.086.429,2.29,2.29,0,0,0-.246.383,3.154,3.154,0,0,1-.44.743,3.884,3.884,0,0,1-.795.817Zm-.623-2.361h.006a.184.184,0,0,0,.006.046c-.04.131-.063.2-.074.2-.011.069-.023.1-.029.1v-.011h-.017v.023a.021.021,0,0,1,.017.006.1.1,0,0,0-.006.034.633.633,0,0,0-.051.131,1.105,1.105,0,0,0-.08.263.9.9,0,0,0-.086.3.8.8,0,0,0-.063.269.977.977,0,0,0-.046.246H42.5a.21.21,0,0,1,.011-.091c-.006-.006-.006-.011-.006-.023v-.091L42.52-3.1v-.04a.158.158,0,0,1,.006-.051.567.567,0,0,0,.046-.154l.04-.189a.176.176,0,0,1,.057-.114v-.017a.63.63,0,0,1,.011-.1.336.336,0,0,0,.057-.143v-.034a.092.092,0,0,0,.029-.063c.034-.12.063-.183.08-.183A.525.525,0,0,1,42.931-4.443Zm1.961.16c-.017.011-.023.017-.023.023v.006q.009.017.017.017H44.9c.006,0,.011,0,.011-.011v-.023c0-.006-.006-.006-.011-.011Zm.452.292h-.029c-.023.069-.034.1-.04.1,0-.029-.006-.046-.011-.046h-.011c-.011,0-.017.017-.023.046a.021.021,0,0,0,.017.006c.006,0,.017.017.04.057-.017.051-.029.08-.04.08h-.006l-.023-.017c.011-.046.023-.074.023-.086v-.017h-.011a.376.376,0,0,0-.046.137l.011.017.011-.006h.029q.017.009.017.017V-3.7a.1.1,0,0,0-.011.046v.011h.017a1.083,1.083,0,0,0,.091-.343Zm-.675.074c-.006,0-.006.006-.011.011l.006.011.017-.011C44.68-3.912,44.68-3.917,44.669-3.917Zm.783.011c-.011,0-.023.023-.029.063.006,0,.006,0,.006.006.017-.006.029-.017.029-.023v-.034Zm2.121.017-.114.12q-.034.1-.069.1v.011c.006.029.017.04.023.04h.006c.011,0,.023-.011.029-.04a1.5,1.5,0,0,0,.137-.217C47.585-3.883,47.579-3.889,47.573-3.889Zm-2.95.046v.017h.011v-.017Zm.452.063.011.006-.006.029h-.011a.021.021,0,0,0-.006-.017Zm-.48,0-.017.011a.274.274,0,0,1-.057.1v.023c.017,0,.046-.034.08-.114V-3.78Zm.606.074h-.017a.429.429,0,0,0-.04.114v.04h.006A.187.187,0,0,0,45.2-3.7Zm.189.029c-.006,0-.011.011-.023.029l.011.006a.071.071,0,0,0,.017-.011v-.023Zm-2.864.051h.006l.006.029-.051.16h-.017v-.006A.43.43,0,0,1,42.525-3.626Zm4.842,0h-.011a.914.914,0,0,1-.189.212l-.051.029v.029h-.034a.054.054,0,0,0-.046.034.012.012,0,0,0,.011.011h.029c.006.04.011.057.017.057h.029a.247.247,0,0,1,.08-.114.073.073,0,0,1,.074-.057c.023,0,.04-.023.057-.074l.063-.057A.139.139,0,0,0,47.367-3.626Zm-2.138.017a.012.012,0,0,0-.011.011v.011l.011.017v.011c-.034.006-.051.046-.051.114q0,.009-.034.017l-.023-.017h-.006a.051.051,0,0,0-.029.046.012.012,0,0,0,.011.011h.011l.017-.011c.017,0,.046.017.074.063h.006q.017-.009.017-.017v-.023c0-.017-.006-.034-.006-.051s.006-.017.006-.023a.1.1,0,0,0-.011-.029c.017,0,.029-.04.029-.12C45.241-3.6,45.235-3.6,45.229-3.609Zm-.743.006a.123.123,0,0,0-.051.074.481.481,0,0,0-.1.154l.006.011a.772.772,0,0,0,.16-.217v-.011C44.5-3.6,44.492-3.6,44.486-3.6Zm2.7.017-.011.006.006.011.011-.006Zm-.034.046v.006l.006.011a.012.012,0,0,0,.011-.011V-3.54Zm-2.007.034c-.017.006-.029.011-.029.017a.012.012,0,0,0,.011.011h.023v-.017Zm-2.7.126c0-.023.006-.034.023-.04h.006V-3.4a.079.079,0,0,1-.029.051Zm2.641.006v.006l.006.011.011-.006a.012.012,0,0,0-.011-.011Zm.217.126a.045.045,0,0,1,.017-.04v.023l-.006.029C45.3-3.237,45.3-3.237,45.3-3.248Zm1.686-.046c-.006,0-.011.011-.017.023a.021.021,0,0,0,.006.017C47-3.266,47-3.277,47-3.283s0-.006-.006-.011Zm-1.829.011q-.017.009-.017.017v.04a.881.881,0,0,0-.017.091c0,.006.006.011.011.023a.13.13,0,0,0,.046-.109v-.046q-.009-.017-.017-.017Zm-.446.011-.011.006a.387.387,0,0,1-.069.109.071.071,0,0,0,.011.017h.006a.417.417,0,0,1,.069-.109V-3.26Zm2.332.04c-.006,0-.006.006-.011.011v.006c0,.011.006.011.011.011s.011,0,.011-.011V-3.22C47.059-3.226,47.059-3.231,47.047-3.231Zm-.194.137c.034-.04.057-.063.074-.063.011.017.023.029.023.034s-.011.006-.011.023.011.011.046.023v.023c0,.006-.023.023-.057.063h-.046c0-.011,0-.017.006-.023l.04-.029v-.034l-.006-.011-.057.017a.012.012,0,0,1-.011-.011Zm-1.7-.006c-.011,0-.023.017-.029.051v.006a.012.012,0,0,0,.011.011h.006c.006,0,.011-.023.017-.063C45.155-3.094,45.155-3.094,45.155-3.1Zm-2.784.011h.011l.011.04a.463.463,0,0,1-.029.08H42.36v-.006C42.36-3,42.365-3.037,42.371-3.088Zm1.715.131v-.011a.335.335,0,0,1,.08-.109h.006A.192.192,0,0,1,44.086-2.957Zm2.6-.063H46.7c0,.006-.006.011-.006.017h-.011Zm-4.327.08q.017.009.017.017c0,.023-.006.034-.023.04A.176.176,0,0,0,42.354-2.94Zm1.686.006h.023a.137.137,0,0,1-.046.091h-.006V-2.86A.082.082,0,0,0,44.04-2.934Zm.446.006c-.006,0-.011.011-.023.034s.006.011.011.011.023-.017.023-.023v-.011C44.5-2.923,44.492-2.923,44.486-2.928Zm-2.144.057h.006l.011.057a.361.361,0,0,1-.023.074h-.006l-.006-.029v-.017A.282.282,0,0,1,42.342-2.871Zm2.784.029a.021.021,0,0,0,.017-.006c0,.011,0,.017.006.023s-.006.006-.006.017h-.011l-.006-.029Zm-.7-.006v.011h.011v-.011Zm.92.011c.011,0,.017.017.017.057a.29.29,0,0,1,.051.143c-.034,0-.057-.057-.069-.183Zm-1.383.04a.039.039,0,0,1,.023-.034h.006v.017c0,.006-.006.011-.029.023Zm2.315.1c.006-.023.051-.046.131-.069a.314.314,0,0,1,.109-.04h.006v.017c-.006,0-.023.006-.046.011a.818.818,0,0,1-.177.091.043.043,0,0,0-.023-.006Zm-1.132-.091c.017,0,.046.023.086.074v.023q-.009.017-.017.017H45.2q-.017-.009-.051-.1Zm-.795.051-.017.011a.012.012,0,0,0,.011.011h.006c.011,0,.011-.006.011-.011S44.366-2.74,44.355-2.74Zm2.189.017h.017v.006h-.017ZM46.5-2.7h.011v.006H46.5Zm-2.207.063a.284.284,0,0,0-.091.109c.034,0,.063-.034.1-.109Zm-1.978.029c0-.006.006-.006.011-.011h.006v.011Zm3.121-.006h.011a.043.043,0,0,0,.011.023v.006l-.023-.006Zm-.114.006q.017.009.017.017a.025.025,0,0,1-.017.006h-.006V-2.6Zm10.87-8.712a.868.868,0,0,0-.532.234,2.506,2.506,0,0,0-.263.377q-.5.892-1.372,2.755-.7,1.586-1.206,2.572h-.006l-.04-.034a1.172,1.172,0,0,0-.829-.4A2.382,2.382,0,0,0,50.32-5.1a5.97,5.97,0,0,0-.537.577,8.69,8.69,0,0,0-.68,1.04,4.395,4.395,0,0,0-.514,1.292.581.581,0,0,0,.349.514c.051.011.074.029.08.051a1.229,1.229,0,0,0,.537.189H49.6a.86.86,0,0,0,.166-.017,1.925,1.925,0,0,0,.875-.389,4.687,4.687,0,0,0,.686-.623A15.131,15.131,0,0,0,52.544-4h.006v.006l-.091.366a18.742,18.742,0,0,0-.514,3.544V0a1.491,1.491,0,0,0,.1.612.514.514,0,0,0-.017.069.381.381,0,0,0,.069.189c.143.223.286.337.423.337a.3.3,0,0,0,.229-.143A1.046,1.046,0,0,1,52.509.3V.182a11,11,0,0,1,.246-1.572c.131-.526.217-.892.269-1.1.217-.8.44-1.555.68-2.264.652-1.8,1.269-3.3,1.835-4.533a6.121,6.121,0,0,1,.509-.943.4.4,0,0,1,.023.1.866.866,0,0,0-.051.149.006.006,0,0,1,.006.006c.046-.011.086-.063.126-.137s.109-.309.229-.669a1.4,1.4,0,0,0,.1-.206v-.023a.2.2,0,0,0-.046-.1C56.368-11.252,56.282-11.32,56.191-11.32Zm-.474.749h.006v.006c-.029.069-.217.452-.56,1.149-.063.149-.149.32-.252.514-.034.011-.051.029-.051.046a6.9,6.9,0,0,1-.406.995c-.229.52-.372.829-.423.915a.569.569,0,0,1-.017-.1l.023-.023a.1.1,0,0,1-.029-.011,1.828,1.828,0,0,0-.137.143v-.006a2.151,2.151,0,0,0,.16-.3c.017-.08.04-.12.074-.12V-7.41a.173.173,0,0,1,.029-.074.177.177,0,0,0,.046-.12q0-.026.086-.12a.1.1,0,0,0-.006-.04c.017-.034.023-.051.029-.051a.122.122,0,0,1,.069-.1v-.006l-.017-.029a.119.119,0,0,1,.074-.1l-.006-.04v-.017l.04-.04v-.034L54.442-8.2c0-.051.029-.091.091-.131v-.006a.173.173,0,0,0-.011-.057V-8.4c0-.011.006-.017.006-.023a.536.536,0,0,1,.091-.08v-.011c-.017,0-.029-.006-.029-.023a.126.126,0,0,1,.034-.069v-.029a.012.012,0,0,0-.011-.011h-.006a4.717,4.717,0,0,0-.2.452c-.2.452-.4.9-.606,1.338H53.8v-.006a2.5,2.5,0,0,0,.069-.263,3.438,3.438,0,0,1,.24-.617q.129-.274.36-.823l-.017-.057c.029-.023.046-.034.057-.034a.762.762,0,0,0,.086-.183v-.017h-.017a.288.288,0,0,1-.063.091H54.5a.743.743,0,0,1,.143-.292l.04.006h.006c.023-.034.2-.377.532-1.018.1-.217.166-.326.194-.332a.682.682,0,0,1-.057.212q-.06.18-.549,1.149a2.015,2.015,0,0,0-.177.36v.006h.011a.173.173,0,0,0,.051-.1.647.647,0,0,0,.091-.034l-.006-.069c.011-.074.023-.114.04-.114h.006l.023.006V-9a.071.071,0,0,0-.011-.017v-.011c0-.029.023-.051.074-.057a.082.082,0,0,0-.011-.04A.146.146,0,0,1,55-9.251c.011,0,.046-.051.109-.154-.023-.029-.034-.046-.034-.046a.277.277,0,0,0,.091-.069v-.023a.012.012,0,0,0-.011-.011h-.006v.011h-.006l-.006-.04c.006,0,.011-.006.029-.011l.011.006a.052.052,0,0,0,.029-.017C55.4-10.017,55.573-10.337,55.716-10.571Zm-.5.84h.023v.006a.025.025,0,0,1-.017.006Zm-.537.583h.011q.017.009.017.017a.012.012,0,0,1-.011.011h-.017Zm-.206.389h.011a.044.044,0,0,0,.006.017c-.011,0-.011.006-.011.023h-.006ZM54.1-7.153c-.017.006-.023.017-.023.023v.017c0,.006,0,.011.011.011H54.1c.006,0,.011-.011.023-.029Zm-.051.063q-.017.009-.017.017v.006h.006a.012.012,0,0,0,.011-.011ZM53.641-7h.006v.006a.771.771,0,0,1-.154.326,2.218,2.218,0,0,1-.08.3.429.429,0,0,0-.1.183.141.141,0,0,1-.074.114v.006l.034.006v.006h-.034q-.043,0-.069.206c-.006-.006-.011-.011-.017-.011H53.15l-.034.029a2.3,2.3,0,0,1,.08-.229Zm.452.274a.172.172,0,0,1,.046-.126c.006-.063.023-.1.051-.1H54.2l-.086.229h-.017Zm-.126-.114A.079.079,0,0,1,54-6.9a.533.533,0,0,1-.011.08C53.978-6.816,53.973-6.821,53.967-6.838Zm-.172.017c.006,0,.011.011.017.029a.385.385,0,0,1-.057.109c-.04.1-.063.166-.08.2h-.011A.829.829,0,0,1,53.8-6.821Zm.131.1c0-.029.017-.04.046-.04,0,.034-.017.051-.046.051Zm-.029.034H53.9a.077.077,0,0,1,.034.04c0,.017-.023.029-.069.051A.273.273,0,0,0,53.9-6.684Zm-.263,1.138c.183-.492.3-.795.354-.909.023-.149.057-.223.1-.223,0,.011-.011.046-.023.1a3.038,3.038,0,0,0-.12.292c-.023.126-.04.189-.063.189-.017.109-.04.16-.051.16a.078.078,0,0,0-.046.074.491.491,0,0,1-.063.2V-5.6C53.716-5.592,53.693-5.575,53.635-5.547Zm.223-1a.044.044,0,0,0,.017.006.128.128,0,0,1-.046.086.245.245,0,0,0,.011.069v.017q0,.034-.051.069h-.006a.308.308,0,0,1-.006-.046A.3.3,0,0,1,53.858-6.547Zm-.372.5a.928.928,0,0,0,.063-.189.383.383,0,0,1,.109-.2,1.058,1.058,0,0,0,.04.171.537.537,0,0,1-.063.137A.291.291,0,0,1,53.487-6.044Zm0-.257c.006,0,.006.006.006.011v.017a.021.021,0,0,1-.006.017l-.011-.006A.062.062,0,0,1,53.487-6.3Zm-.029.3c.006-.011.011-.011.017-.011h.017l-.011.023A.033.033,0,0,1,53.458-6Zm.131.149c.011-.051.029-.08.051-.08h.006a.251.251,0,0,0-.051.086H53.59Zm-.457.823a3.472,3.472,0,0,1,.143-.452,2.713,2.713,0,0,1,.16-.394v.017a1.058,1.058,0,0,1-.029.16A1.869,1.869,0,0,1,53.132-5.032Zm-.223,1.361c.034-.029.051-.04.057-.04a1.975,1.975,0,0,0,.177-.417,9.546,9.546,0,0,1,.3-.915c.074-.269.131-.4.171-.4a.119.119,0,0,1,.029.069v.023c-.069.074-.1.126-.1.149a.081.081,0,0,0,.011.034.2.2,0,0,1-.006.051c0,.011-.017.034-.057.08a.394.394,0,0,1,.011.1v.029a.062.062,0,0,1-.011.046.6.6,0,0,0-.069.16v.023l.006.051a.1.1,0,0,1-.086.057.612.612,0,0,1,.029.091v.017a2.167,2.167,0,0,1-.08.217.222.222,0,0,1-.12.183.234.234,0,0,1,.029.1,1.7,1.7,0,0,1-.126.377.165.165,0,0,0-.046.131l-.074.32a4.944,4.944,0,0,0-.149.566H52.8v-.08l-.006-.011c-.011,0-.017.006-.017.011-.023,0-.034.04-.046.131a2.107,2.107,0,0,0-.126.56h.011c.057-.16.086-.246.091-.252a.409.409,0,0,1,.046-.183h.006v.006c-.166.709-.274,1.2-.314,1.475,0,.1.006.166.006.212a.215.215,0,0,1-.091.166.308.308,0,0,0,.051.1c0,.011-.006.08-.006.2q0,.009-.034.017c-.017,0-.023.04-.023.12v.006L52.3-.1c-.006,0-.011.011-.017.029a.565.565,0,0,1-.04.269h-.006V.187c0-.063.006-.137.006-.206a3.9,3.9,0,0,1,.04-.549V-.573c0-.006-.006-.023-.011-.046h-.006c-.011,0-.023.04-.04.131h-.006a.988.988,0,0,1-.029-.177c.017-.212.046-.314.074-.314.011,0,.017.017.017.04v.011q0,.017-.034.171a.328.328,0,0,0,.023.08c.029,0,.057-.183.086-.543l-.011-.04h-.011c0,.017-.006.029-.023.029l-.029-.006v-.006A.3.3,0,0,0,52.3-1.27a.642.642,0,0,1,.04-.206c0-.12.017-.177.057-.177a.054.054,0,0,1,.034.04.91.91,0,0,0-.051.143v.034l.011.017c.006,0,.017-.011.04-.034a1.986,1.986,0,0,1,.046-.314l-.006-.057c.017-.051.034-.08.04-.08-.011-.051-.017-.074-.017-.08l.023-.194a.158.158,0,0,0-.017-.074,1.906,1.906,0,0,0,.069-.217v-.051a.381.381,0,0,1,.063-.223c.069-.023.1-.046.1-.074,0-.006-.006-.011-.006-.017-.017,0-.034.011-.057.034h-.006a.333.333,0,0,1-.017-.08.088.088,0,0,0,.04-.069v-.034L52.687-3c-.017,0-.029,0-.029.011-.063,0-.1.057-.109.171a.109.109,0,0,1-.069-.04.143.143,0,0,0,.046-.109c0-.006,0-.006-.011-.011l-.04.006a.117.117,0,0,0,.011-.051c0-.006.017-.011.051-.023,0-.034-.011-.046-.034-.046a.233.233,0,0,1,.011-.04.56.56,0,0,1,.1.04h.011l.034-.023c0-.04-.029-.063-.091-.069v-.029a.581.581,0,0,1,.04-.131.127.127,0,0,1,.046-.114v-.023l-.006-.011c-.029,0-.046.023-.063.074h-.006V-3.42a1.264,1.264,0,0,0,.04-.166.306.306,0,0,0,.114-.257c0-.006-.006-.011-.006-.017l-.04.029.017-.08h.006l.023.017h.011a1.213,1.213,0,0,0,.1-.343.006.006,0,0,1-.006-.006l-.04.023H52.8c0-.006.011-.063.04-.171h.006v.006a.647.647,0,0,1-.011.069h.006a.272.272,0,0,0,.1-.223,3.551,3.551,0,0,0,.217-.326c.011,0,.011.006.011.011a.713.713,0,0,0,.12-.057h.006a.863.863,0,0,1-.046.177l-.074-.051h-.006q-.086.069-.086.309c-.063.057-.1.1-.1.137A.1.1,0,0,0,53-4.312q.1.069.1.1a.113.113,0,0,1-.034.08h-.006a.413.413,0,0,0-.057-.1c-.006,0-.011.017-.029.046a.181.181,0,0,0-.057.109l.011.057V-4a.62.62,0,0,0-.1.206c0,.011.006.017.011.017h.017c.029,0,.051-.029.069-.08a.347.347,0,0,1,.12-.2l-.074.326h-.023a.036.036,0,0,0-.04.04v.006Zm-.777-1.595h.006c.04-.046.063-.069.074-.069a.091.091,0,0,1,.046.017c.086.074.126.137.126.189a.915.915,0,0,0-.051.257v.023a.747.747,0,0,1,.046.12v.063a1.859,1.859,0,0,1-.183.326,10.935,10.935,0,0,1-.669.972c-.92.9-1.538,1.349-1.852,1.349h-.04a.169.169,0,0,1-.149-.177,2.744,2.744,0,0,1,.417-.989,10.074,10.074,0,0,1,.737-1.1,4.366,4.366,0,0,1,.52-.543,1.616,1.616,0,0,1,.926-.463Zm.463.692a.256.256,0,0,1,.063-.131A.19.19,0,0,1,52.6-4.575Zm.583-.034.029-.006v.006a.1.1,0,0,1-.04.08c0,.029.006.069.006.109v.006a.194.194,0,0,1-.063-.154V-4.6c0-.006,0-.006.011-.011Zm-.1.28h.04V-4.3l-.029.006h-.006ZM51.315-2.94a.11.11,0,0,1,.069-.1,5.912,5.912,0,0,0,.377-.463,1.583,1.583,0,0,0,.263-.32.686.686,0,0,1,.183-.229h.006A.153.153,0,0,1,52.2-4a1.671,1.671,0,0,0-.1.194v.086a.136.136,0,0,0-.069-.023L52-3.677a1.657,1.657,0,0,0-.3.383.031.031,0,0,0,.023.034h.006l.023-.017c.023-.051.051-.08.08-.08a1.548,1.548,0,0,1,.08-.166q.077,0,.154-.171c.006,0,.011,0,.011.011v.023c0,.1-.074.206-.217.3,0,.04-.034.091-.1.16l-.1.063a.434.434,0,0,1-.177.212,2.541,2.541,0,0,1-.412.446.273.273,0,0,0-.149.114.454.454,0,0,1-.257.143c0-.034.034-.057.109-.08a.54.54,0,0,1,.137-.109c.006-.086.034-.126.086-.126a.935.935,0,0,1,.12-.12.132.132,0,0,0,.114-.063.021.021,0,0,0-.006-.017.1.1,0,0,1,.034-.063c.046,0,.1-.046.16-.143a.586.586,0,0,0,.171-.131v-.006c-.006-.017-.017-.029-.029-.029v-.011q.137-.094.137-.12-.026-.034-.034-.034h-.011A1.818,1.818,0,0,1,51.315-2.94Zm-1.9-.171a.6.6,0,0,1,.154-.263.605.605,0,0,1,.12-.217,1.271,1.271,0,0,1,.217-.3c.086-.1.131-.154.149-.154h.006c-.114.234-.234.469-.349.709a.656.656,0,0,1-.2.109C49.468-3.151,49.434-3.111,49.417-3.111ZM52.738-4h.006v.011h-.006Zm-3.264.412a.172.172,0,0,1,.1-.143.207.207,0,0,1-.091.143ZM53.052-3.7c-.017.011-.029.023-.029.029v.006c.011.017.017.023.023.023s.011-.006.023-.023v-.011Zm-.149.057-.057.046.034.069a.235.235,0,0,0-.04.069.051.051,0,0,0,.029.046.294.294,0,0,0,.08-.206v-.011c0-.006-.006-.006-.011-.011Zm-3.521.194c.011-.023.023-.034.029-.034h.006a.112.112,0,0,0,.006.04c-.006,0-.011.011-.023.029Q49.382-3.414,49.382-3.449Zm3.59.091c-.029,0-.04.011-.04.04v.006l.006.006c.029,0,.04-.017.04-.046v-.006ZM48.816-2.088a1.51,1.51,0,0,1,.143-.509,1.772,1.772,0,0,1,.263-.577q.051-.1.069-.1H49.3a4.206,4.206,0,0,0-.206.429,1.5,1.5,0,0,1-.177.452.408.408,0,0,1-.063.189.176.176,0,0,0,.011.063C48.868-2.128,48.851-2.105,48.816-2.088Zm4.019-1.195c-.029,0-.063.04-.1.12a.8.8,0,0,0,.04.12h.006a.348.348,0,0,0,.069-.189v-.011A.076.076,0,0,0,52.835-3.283Zm.046.16-.023.017a.048.048,0,0,0,.023.04c.006,0,.017-.011.023-.034S52.887-3.123,52.881-3.123Zm-3.521.08c0-.029.011-.04.046-.04,0,.034-.017.057-.04.057h-.006Zm3.476.091a.155.155,0,0,0-.017.046v.046h.006c.034-.023.046-.04.046-.046a.155.155,0,0,0-.017-.046Zm-1.8.269q.009-.06.24-.24v.006a.707.707,0,0,1-.234.234Zm-1.789.149V-2.54a.531.531,0,0,1,.114-.217v.011C49.319-2.6,49.279-2.534,49.251-2.534Zm3.184-.017a.068.068,0,0,0,.046-.023c-.006.057-.011.1-.011.126h-.006a.213.213,0,0,1-.029-.08Zm.354-.006H52.8v.011h-.006Zm-.046.063.046-.046-.023.12h-.006A.13.13,0,0,0,52.744-2.494Zm-3.573.086h.006V-2.4c-.04.166-.074.309-.091.434-.006,0-.023-.023-.057-.057C49.062-2.1,49.108-2.231,49.171-2.408Zm3.241.029c.006,0,.011-.006.023-.006l.011.006.011-.006A3.9,3.9,0,0,1,52.366-2c0,.057-.017.086-.057.086q-.069.086-.086.086c.069-.332.1-.5.1-.509.04.051.063.074.08.074s.017,0,.017-.011v-.006s-.006-.017-.011-.04Zm-2.007.354a.646.646,0,0,1,.223-.154v.006l-.006.011a.532.532,0,0,1-.212.137Zm2.035.16h.006a.3.3,0,0,0,.006.08h-.006a.149.149,0,0,1-.017-.04Zm-.223.057h.006v.051a1.821,1.821,0,0,1-.04.229h-.011Zm.034.063a.351.351,0,0,0,.034.029s-.011.034-.029.091l-.029-.011A.577.577,0,0,0,52.252-1.745Zm.143.006h.011a.287.287,0,0,1,.011.069H52.4a.1.1,0,0,0-.011-.029ZM52.052-.093c0-.12,0-.212.006-.269a5.005,5.005,0,0,1,.08-.846c.023-.166.046-.246.069-.246h.006a1.953,1.953,0,0,1-.023.234c-.051.394-.08.606-.08.629,0,.051,0,.194.011.434A1.474,1.474,0,0,1,52.1.067a.177.177,0,0,1-.046-.011Zm.2-.949a.589.589,0,0,1,.006-.074A.079.079,0,0,1,52.3-1.2a.6.6,0,0,1,.011.086v.023c0,.006-.006.023-.011.057H52.3A.135.135,0,0,1,52.252-1.042Zm-.069.76h.006l.011.046V-.23a.127.127,0,0,1-.029-.023A.058.058,0,0,0,52.183-.282ZM52.052.13h.011l.04.029c-.011.08-.023.143-.034.194h-.006C52.063.319,52.058.244,52.052.13Zm.183.1c.006,0,.011.011.023.029V.262L52.252.3h-.011a.088.088,0,0,0-.017-.034A.1.1,0,0,0,52.235.227Zm7.5-6.185a.345.345,0,0,0-.3.183.405.405,0,0,0-.126.314v.091a.259.259,0,0,1-.017.091.931.931,0,0,0-.1.217,4.037,4.037,0,0,1-.314.474.793.793,0,0,1-.154.28.874.874,0,0,1-.172.274,4.8,4.8,0,0,1-.56.72,3.525,3.525,0,0,1-.32.377,1.115,1.115,0,0,1-.12.177,1.173,1.173,0,0,0-.309.263,1.277,1.277,0,0,1-.4.246,1.149,1.149,0,0,1-.189.1h-.011c-.04,0-.063-.126-.069-.372a5.1,5.1,0,0,1,.143-.806,12,12,0,0,1,.623-1.909,2.122,2.122,0,0,0,.217-.532v-.011c0-.069-.023-.1-.069-.114h-.08a.748.748,0,0,0-.12-.046.667.667,0,0,0-.189.046.315.315,0,0,0-.16.171.8.8,0,0,0-.16.263,10.492,10.492,0,0,0-.612,1.372A6.306,6.306,0,0,0,55.8-2.46V-2.4A.682.682,0,0,0,55.913-2a1.178,1.178,0,0,0,.806.263.768.768,0,0,0,.109-.006.814.814,0,0,0,.412-.183A4.23,4.23,0,0,0,58.1-2.66a2.358,2.358,0,0,0,.32-.394l-.006-.011-.034.011c-.057.074-.091.114-.109.114a.378.378,0,0,1-.063-.006c-.023,0-.04.023-.051.057v.006c0,.011.017.017.04.023v.011c0,.029-.017.046-.057.057a.091.091,0,0,1-.046-.017h-.006a1.289,1.289,0,0,1-.137.12.716.716,0,0,0-.223.177.477.477,0,0,1-.223.149H57.5a.339.339,0,0,1,.023-.046c.069-.063.1-.1.1-.126h-.017l-.023.017H57.56v-.017c0-.006.017-.017.046-.04.069-.006.109-.029.109-.063v-.006L57.7-2.671a2.244,2.244,0,0,0,.372-.412c.051-.023.1-.109.154-.252.1-.12.16-.189.16-.217a.346.346,0,0,0,.069-.1c.057-.08.1-.114.126-.114.011-.086.023-.131.046-.131.017-.017.1-.143.252-.377.109-.183.183-.274.229-.274l.131-.206c-.034.109-.08.24-.143.394a6.47,6.47,0,0,1-.252.669,1.815,1.815,0,0,0-.1.292c0,.006.017.017.057.023l-.017.069-.2.429a4.859,4.859,0,0,1-.3.663,1.106,1.106,0,0,1-.143.292,2.562,2.562,0,0,1-.114.252,5.075,5.075,0,0,1-.332.635A2.318,2.318,0,0,1,57.5-.67a.213.213,0,0,1-.1.183,2.4,2.4,0,0,1-.212.309.273.273,0,0,1-.149.1.984.984,0,0,0-.183.246c-.263.263-.4.4-.4.412a.085.085,0,0,0,.04-.006.631.631,0,0,1,.171-.137h.006a1.868,1.868,0,0,1-.223.286c0,.034-.057.114-.183.234-.069.1-.12.143-.154.143H56.1c.04-.1.069-.149.091-.149a.333.333,0,0,1,.1-.183c.1-.069.149-.126.149-.171V.587h-.006a.485.485,0,0,1-.143.1c-.074.074-.114.114-.126.114a3.4,3.4,0,0,0-.32.383.959.959,0,0,0-.3.555.441.441,0,0,0,.011.086.363.363,0,0,0,.354.263.569.569,0,0,0,.486-.332c.44-.543.715-.909.829-1.086a1.819,1.819,0,0,1,.223-.36c.36-.372.537-.56.537-.572A4.587,4.587,0,0,0,58.44-.71V-.722a1.144,1.144,0,0,1-.149.114H58.28a3.626,3.626,0,0,1,.257-.263c.12-.131.194-.194.223-.194v-.011l-.006-.011c.006-.006.131-.149.372-.434.154-.16.234-.24.234-.246a11.087,11.087,0,0,1,.915-.857c.1-.08.4-.314.892-.692v-.006a.711.711,0,0,0-.143.04h-.006a.751.751,0,0,1,.137-.08c.1-.034.143-.063.143-.074s-.011-.006-.034-.011q.026-.034.034-.034h.051v.011c.017-.006.034-.023.057-.063v-.011H61.4a.1.1,0,0,0-.04.006c-.051,0-.08.011-.08.04a.2.2,0,0,1-.069-.006.2.2,0,0,0-.006.034c0,.017-.023.034-.074.046a1.284,1.284,0,0,1-.337.2h-.006l.017-.057L60.8-3.288c-.069.017-.1.04-.1.08l.017.057a2.754,2.754,0,0,1-.314.223,1.229,1.229,0,0,1-.263.206,1.97,1.97,0,0,1-.229.2,4.905,4.905,0,0,0-.537.5,3.307,3.307,0,0,0-.332.343,1.949,1.949,0,0,0-.309.366c-.029.017-.04.029-.04.034-.514.612-.777.926-.783.943H57.9V-.339a.8.8,0,0,0,.051-.131,3.956,3.956,0,0,1,.532-.675c.091-.08.137-.131.137-.149a.525.525,0,0,0,.126-.171c.04-.029.063-.046.063-.063a.044.044,0,0,0-.006-.017.934.934,0,0,0,.109-.126c.1-.086.149-.143.149-.166a.557.557,0,0,0,.171-.189,2.241,2.241,0,0,0,.332-.337.792.792,0,0,0,.149-.131c.086-.069.131-.12.131-.143A.8.8,0,0,0,60-2.768,2.856,2.856,0,0,0,60.281-3c.086-.057.189-.131.309-.229a2.958,2.958,0,0,0,.32-.194l.154-.063c0-.051.046-.086.137-.109l-.011-.017a.622.622,0,0,0-.212.08,3.418,3.418,0,0,1-.4.246,2.562,2.562,0,0,1-.326.234c-.034,0-.057.023-.069.074a.086.086,0,0,0-.08.051.476.476,0,0,0-.12.08l-.04-.04a.058.058,0,0,0-.029.046v.057a.2.2,0,0,1-.149.086.006.006,0,0,0-.006-.006.341.341,0,0,1-.086.051l.006.051v.017c0,.011-.006.011-.011.011h-.034l-.011-.006.006-.034v-.006a.334.334,0,0,0-.057.046c-.011.069-.029.1-.057.1-.057,0-.137.069-.246.212a2.157,2.157,0,0,0-.532.56.153.153,0,0,1-.08.063,2.888,2.888,0,0,0-.309.423h-.006v-.017a1.349,1.349,0,0,1,.166-.332,1.988,1.988,0,0,1,.246-.292,2.494,2.494,0,0,0,.274-.3c.023,0,.109-.091.263-.269-.029,0-.086.04-.189.12a3.348,3.348,0,0,0-.474.469h-.006v-.006c.172-.349.274-.555.314-.617.091-.246.223-.555.4-.92a5.214,5.214,0,0,0,.269-.663,6.771,6.771,0,0,0,.537-1.6l-.011-.086A.65.65,0,0,0,59.732-5.958ZM59.7-4.895a.131.131,0,0,1,.04-.091.282.282,0,0,1-.029.1H59.7ZM57.1-4.866h.011c0,.006,0,.011-.011.011Zm.892,3.619a1.773,1.773,0,0,1,.257-.532,1.757,1.757,0,0,1,.212-.429c.1-.234.206-.48.326-.743a8.426,8.426,0,0,1,.474-1.012c.051-.011.126-.154.234-.434s.177-.44.217-.44a2.727,2.727,0,0,0-.109.326l-.269.7q-.094.18-.274.617a2.335,2.335,0,0,0-.166.389c.006.006.006.023.011.051-.029,0-.057.029-.08.1.023.023.034.034.04.034s-.017.017-.057.029l.023.023v.006l-.006.029-.04-.029a.458.458,0,0,0-.063.131l.04.12v.006h-.029c-.006,0-.029.023-.063.074a.316.316,0,0,0-.006-.051c-.04.029-.057.046-.057.057a.236.236,0,0,1,.023.086c0,.029-.011.04-.029.04v-.051h-.006c-.006,0-.017.011-.029.034l.029.023c-.011.017-.017.029-.023.029h-.006v-.011h-.017v.011a1.36,1.36,0,0,1-.149.274.1.1,0,0,1,.034.057c-.006,0-.011,0-.023.011q-.009-.017-.017-.017h-.011c-.011,0-.017.011-.023.04s.017.023.051.029a.666.666,0,0,1-.1.166v-.023a.6.6,0,0,0,.046-.114l-.006-.011a.217.217,0,0,0-.086.143v.017a.091.091,0,0,0,.017.046c0,.023-.017.046-.046.074v-.046h-.011a1.148,1.148,0,0,0-.183.349.348.348,0,0,0-.074.131v.006h.006l.046-.029.011.006c0,.057-.029.086-.074.086,0-.006.006-.023.011-.051h-.006L57.943-.9q-.086.154-.12.154c-.006,0-.006-.011-.011-.04h-.034q-.017.009-.017.017v.011c0,.006.023.011.057.017,0,.029-.006.046-.029.046a.532.532,0,0,1-.149.3.591.591,0,0,1-.08.171c-.04.017-.063.034-.063.057v.046L57.5-.11a.3.3,0,0,0-.091.126c0,.051-.08.149-.229.292-.006.046-.017.074-.046.074,0-.011-.006-.023-.029-.023L57.045.4a.233.233,0,0,1,.069-.143A.806.806,0,0,1,57.251.05q.069-.009.069-.017A.09.09,0,0,0,57.3.027V.01h.017a.044.044,0,0,0,.006.017c.029,0,.046-.023.069-.057,0-.011-.006-.023-.006-.046A.155.155,0,0,1,57.4-.121c.074-.051.114-.091.114-.126,0-.011-.006-.017-.023-.023s-.04.017-.074.046h-.006a.452.452,0,0,1,.137-.212c.074,0,.131-.057.166-.166-.051,0-.074-.006-.074-.011a.25.25,0,0,1,.091-.154,1.093,1.093,0,0,1,.223-.412v.006a.176.176,0,0,1-.006.051l.006.011c.069-.034.1-.074.1-.131v-.006l-.006-.011c-.029.006-.051.011-.057.011Zm-1-3.39c0-.023.006-.034.029-.04h.006v.011c-.023.029-.029.04-.029.046h-.006Zm-.457,1.315a.159.159,0,0,1,.04-.126,1.833,1.833,0,0,1,.074-.32.111.111,0,0,0,.04-.1A.258.258,0,0,1,56.737-4c.006-.069.017-.1.023-.1a.563.563,0,0,1,.034-.114c.023-.069.046-.1.057-.1a.358.358,0,0,1,.091-.234.112.112,0,0,0,.006.04c-.029.091-.046.143-.046.149a.26.26,0,0,0-.046.131h-.006c-.006,0-.011,0-.011-.011a.012.012,0,0,0-.011.011v.006c0,.006.006.011.017.011a.281.281,0,0,1-.017.069.235.235,0,0,0-.04.1,1.177,1.177,0,0,0-.08.263.553.553,0,0,0-.069.234.806.806,0,0,0-.074.269l.006.011c-.011,0-.017.017-.029.046-.006.114-.017.171-.029.171a.021.021,0,0,0-.006-.017c.006-.034.011-.057.011-.069s0-.04-.006-.1a.091.091,0,0,1,.017-.046Zm2.875-1.04c0-.006,0-.011.011-.011v.029h-.011Zm-.412.051V-4.3H59v-.011Zm-.5.417c.011-.011.017-.023.029-.023a.851.851,0,0,1,.166-.212H58.7c-.011.029-.023.046-.029.046-.057.143-.109.212-.154.212H58.5A.034.034,0,0,0,58.492-3.894Zm2.847.057a1.81,1.81,0,0,0-.406.137,2.054,2.054,0,0,0-.36.24.012.012,0,0,0,.011.011h.029c.029,0,.074-.034.154-.1l.189-.091a1.413,1.413,0,0,1,.263-.1c.137-.029.212-.046.212-.063v-.006c0-.017-.029-.023-.08-.029Zm-4.865.217a.322.322,0,0,1,.069-.16v.04a1.112,1.112,0,0,1-.051.131Zm2.464-.143c.006,0,.011,0,.011.011v.017a.021.021,0,0,0-.017.006v-.023Zm-.32.023a.181.181,0,0,0-.069.1c0,.011.006.017.011.017h.006c.034,0,.057-.029.063-.086A.081.081,0,0,0,58.617-3.74Zm.56.017c-.006,0-.011.011-.023.029l.017.029c.017-.011.023-.017.023-.023v-.017Q59.186-3.723,59.178-3.723Zm-.44.086v.011h.011v-.011Zm-.206.023a.012.012,0,0,0-.011.011V-3.6h.006c.011,0,.011,0,.011-.011v-.006Zm-2.081.063c.011-.029.023-.046.029-.046h.006v.017c-.006.034-.017.051-.029.051A.034.034,0,0,0,56.451-3.551Zm2.407-.04h.006c.006,0,.011.011.017.023v.011C58.869-3.557,58.858-3.569,58.858-3.591Zm.269-.006a.112.112,0,0,0-.057.1.177.177,0,0,0-.046.131h.011c0-.051.011-.074.034-.074s.063-.051.069-.154Zm2.064.017-.006.011v.023a.012.012,0,0,0,.011.011h.017c.017-.006.023-.017.023-.023S61.224-3.569,61.19-3.58ZM58.5-3.569c-.006,0-.006.006-.011.011v.006H58.5Zm.24.051c-.011,0-.011.006-.011.011v.023h.006c.011-.011.023-.017.023-.023v-.011Zm-.029.046c-.011,0-.017.011-.023.034,0,.006,0,.011.011.011s.017-.011.017-.017V-3.46Zm-.3.011c-.006,0-.011.006-.017.023s.006.011.006.017h.017c0-.011,0-.017.006-.017V-3.46Zm2.653,0-.023.023c0,.006.006.011.023.017s.017-.006.029-.023v-.006a.012.012,0,0,0-.011-.011Zm-.532.011c-.029,0-.063.023-.1.08l.006.011c.063-.006.1-.029.1-.069v-.011Zm.606.046c.011,0,.017-.006.029-.011V-3.4a.044.044,0,0,0-.017.006h-.011ZM58.663-3.4l-.029.006a1.073,1.073,0,0,1-.1.137q-.1.12-.1.154c0,.011,0,.017.006.017a.205.205,0,0,0,.1-.109.576.576,0,0,0,.137-.194Zm-.3.023c-.006,0-.017.011-.029.034v.006l.006.011c.017-.006.029-.011.029-.017v-.034Zm2.561,0-.023.017c.011.011.017.023.023.023h.011c.006,0,.011-.011.017-.023s-.011-.017-.017-.017Zm-2.384.023v.006h.011v-.006Zm.189.006a.042.042,0,0,0-.034.011c-.131.286-.194.44-.2.457v.023l.006.029h.011a.818.818,0,0,1,.137-.234.081.081,0,0,0-.011-.034v-.011a.967.967,0,0,0,.1-.206v-.023Zm1.664.006h-.023a3.2,3.2,0,0,0-.406.292,5.259,5.259,0,0,0-.64.595l.006.011a.106.106,0,0,0,.063-.023c.08-.114.137-.171.166-.171a.9.9,0,0,1,.229-.189.944.944,0,0,1,.154-.126.422.422,0,0,1,.034-.063A.555.555,0,0,0,60.23-3.2a1.513,1.513,0,0,0,.171-.126C60.4-3.34,60.4-3.34,60.39-3.34Zm-4.013.166c0-.074.011-.114.023-.114l.006.04v.006a.279.279,0,0,1-.023.074h-.006Zm4.339-.017q.009-.017.017-.017h.029V-3.2q-.009.017-.017.017h-.029Zm-4.339.046h.006l.006.029v.006q-.009.017-.017.017v-.023Zm2.532.034c-.017.006-.023.023-.023.051v.011H58.9c.029-.023.046-.034.046-.046s-.006-.017-.011-.017Zm-2.544.029h.006l.006.057a.45.45,0,0,1-.023.069h-.006v-.074A.239.239,0,0,1,56.365-3.083Zm2.733.011c.006,0,.006.006.011.023v.011a.061.061,0,0,1-.017-.029Zm-2.761.234c0-.006,0-.011.011-.011h.006v.006l-.006.011Zm2.092.1c-.017.017-.029.029-.029.034V-2.7a.076.076,0,0,0,.017.04c.017-.011.029-.017.034-.034C58.452-2.728,58.44-2.74,58.429-2.74Zm1.686.1c.011,0,.029-.017.046-.04h.017c-.023.034-.04.051-.057.051h-.006Zm-1.721,0c-.046.034-.063.057-.063.063s.011.029.04.029a.045.045,0,0,0,.029-.046v-.046Zm.44.131c0-.006.011-.017.034-.029h.006V-2.5c0,.006-.011.017-.034.029h-.006Zm-.486-.006c-.04,0-.069.04-.086.126a.038.038,0,0,0,.023.04.206.206,0,0,0,.074-.131A.225.225,0,0,0,58.349-2.511Zm.349.149c-.023.006-.029.023-.029.046v.023h.006a.043.043,0,0,0,.029-.04v-.029ZM58.24-2.3l-.029.006a.193.193,0,0,1-.046.109,1.3,1.3,0,0,0-.16.383.006.006,0,0,1,.006.006.171.171,0,0,0,.046-.023.421.421,0,0,1,.046-.137c.029-.006.051-.057.08-.154a.582.582,0,0,0,.074-.16V-2.3Zm.5.029h.011v.029h-.017Zm-.189.24h.006q.017.009.017.017c0,.006-.006.011-.023.017Zm-.623.394q-.034.009-.034.017v.006a.052.052,0,0,1,.029.017h.011v-.029Zm1.006.011h-.006a.2.2,0,0,0-.114.08v.006a.159.159,0,0,0,.126-.08Zm-1.063.057c-.006,0-.017.017-.029.04a.035.035,0,0,0,.017.034c.017-.011.029-.023.029-.029v-.006A.076.076,0,0,0,57.869-1.568Zm-.063.137a.059.059,0,0,0-.029.034.037.037,0,0,1,.011.029.045.045,0,0,0,.046-.029Zm.417.08h.006L58.2-1.3h-.006Zm-.469.006c-.017.006-.029.029-.04.069a.16.16,0,0,0-.051.109l.006.011a.154.154,0,0,0,.109-.143.308.308,0,0,0-.006-.046Zm-.126.229a.1.1,0,0,1-.017.04c.011.017.017.023.023.023h.006c.006,0,.011-.011.023-.029a.039.039,0,0,0-.023-.034Zm.429.08h.006c.006,0,.011.006.017.023-.006,0-.006.006-.006.017A.044.044,0,0,0,58.057-1Zm-.48.023a.118.118,0,0,0-.046.086l.006.011c.057-.017.086-.04.086-.063A.043.043,0,0,0,57.577-1.013Zm.806.023q-.017.009-.017.017v.006c0,.006,0,.011.011.011a.012.012,0,0,0,.011-.011V-.979Zm-.9.189c-.046.006-.069.017-.069.04-.029.08-.063.12-.1.131-.023.074-.04.109-.057.109-.074.16-.12.24-.149.252a.393.393,0,0,1-.04.137v.011c.063,0,.109-.057.137-.166A1.11,1.11,0,0,0,57.337-.5a.076.076,0,0,0-.017-.04V-.544A.429.429,0,0,0,57.486-.8Zm.663.326c.034-.034.051-.057.057-.057,0,.029-.017.046-.051.057Zm-.737.063a.071.071,0,0,1,.011-.017c.011,0,.011.006.011.011s-.006.011-.023.023Zm.314-.006a.044.044,0,0,0,.017-.006h.006a.1.1,0,0,0-.017.04H57.72Zm.32.04c.017-.029.034-.04.04-.04h.006a.082.082,0,0,1-.034.04Zm-.5.017c-.006,0-.011,0-.011.011v.029h.011a.1.1,0,0,1,.011-.029A.012.012,0,0,0,57.537-.362Zm.114.086c0-.006.006-.011.023-.017a.044.044,0,0,0,.006.017l-.029.011Zm.206.051a.251.251,0,0,1,.08-.063c-.017.04-.04.063-.069.063Zm-.274.051c0-.023.011-.04.04-.057l-.029.08h-.011Zm.217.017a.03.03,0,0,1,.034-.034h.006C57.84-.184,57.829-.173,57.8-.156Zm-.9.383a.2.2,0,0,1,.063-.074c.04-.086.08-.131.114-.143,0,.034-.034.091-.109.166-.034.057-.051.086-.057.086A.012.012,0,0,1,56.9.25Zm.3-.034c-.017.011-.023.017-.023.023V.222l.011.017q.017-.009.017-.017V.2Zm-.366.16h.011V.382h-.017Zm-.446.64c.046-.109.086-.166.12-.166V.833a.129.129,0,0,1-.063.1C56.439.97,56.422.993,56.394.993Zm-.16.154c0-.023.04-.069.12-.131,0,.006-.011.029-.023.074-.057.034-.086.057-.086.08h-.006Z" transform="translate(0.373 11.57)" fill="#3963ac" stroke="#3963ac" stroke-width="0.5"/>
</svg>
