<svg xmlns="http://www.w3.org/2000/svg" width="78.007" height="15.135" viewBox="0 0 78.007 15.135">
  <path id="パス_313" data-name="パス 313" d="M6.469-10.294a5.826,5.826,0,0,0-3.09,1.008,7.537,7.537,0,0,0-1.285.992,4.591,4.591,0,0,0-.951,1.2A.118.118,0,0,1,1.2-7.01a.184.184,0,0,1-.081.041.092.092,0,0,0-.024-.065c-.033,0-.073.033-.114.081V-6.9a.521.521,0,0,0,.073.057v.008a1.3,1.3,0,0,1-.179.252L.826-6.595H.794c-.016,0-.033.033-.041.106a.1.1,0,0,0,.065-.016L.834-6.5c0,.041-.024.065-.073.081L.753-6.432a.017.017,0,0,0-.016.016v.073A.2.2,0,0,1,.68-6.2a2.345,2.345,0,0,1-.252.512,2.844,2.844,0,0,1-.211.569A5.6,5.6,0,0,0-.027-3.782a1.787,1.787,0,0,0,.049.3L0-3.326a.892.892,0,0,0,.016.2,3.327,3.327,0,0,0,.358,1.2q.366.378.561.61a3.16,3.16,0,0,0,.5.447c.211.114.325.187.325.22v.041A5.544,5.544,0,0,1,1.493.414a7.568,7.568,0,0,0-.138,1.236v.244a2.525,2.525,0,0,0,.228,1.13,1.934,1.934,0,0,0,1.537.927h.114a3.109,3.109,0,0,0,1.732-.7,6.274,6.274,0,0,0,1.106-.919,2.6,2.6,0,0,0,.48-.488l.545-.659a11.66,11.66,0,0,0,.8-1.2c.22-.382.4-.724.545-1.033a12.512,12.512,0,0,0,.683-1.927,13.813,13.813,0,0,0,.407-2.6V-6.53a5.754,5.754,0,0,0-.049-.594A3.9,3.9,0,0,0,9.258-8.27,2.821,2.821,0,0,0,6.469-10.294ZM1.062-3.457a3.927,3.927,0,0,1,.366-1.585A3.721,3.721,0,0,1,2-6.14,10.775,10.775,0,0,1,3.314-7.668Q5.388-9.607,6.859-9.6c.829,0,1.4.5,1.716,1.512a6.253,6.253,0,0,1,.22,1.472c0,.1.033.163.106.179a.607.607,0,0,1-.024.163H8.867c0-.065-.016-.1-.041-.1L8.8-6.359c.008.22.016.341.016.366s0,.033.016.033h.008c.016,0,.024-.041.033-.122a.2.2,0,0,0,.081.057c.057,0,.081.033.081.1l-.008.089-.081-.049H8.916v.008a.4.4,0,0,0,.024.122q-.146.085-.146.171v.065a1.726,1.726,0,0,1-.033.341c-.057.431-.089.683-.089.74a1.832,1.832,0,0,0-.081.325v.081a.247.247,0,0,0,.163.13v.024c0,.1-.016.138-.041.138a.061.061,0,0,1-.041-.008c-.024-.089-.049-.13-.073-.13a.586.586,0,0,0-.106.2V-3.6a.526.526,0,0,0,.024.081v.041a.314.314,0,0,1-.081.154A3.158,3.158,0,0,1,8.3-2.9a.073.073,0,0,0,.033.065h.008a.256.256,0,0,0,.073-.13c0-.1.024-.154.065-.154s.073-.065.122-.211h.008v.089l-.2.415c-.033.309-.1.463-.171.463H8.225v-.024a1.026,1.026,0,0,1,.106-.268l-.008-.016a.464.464,0,0,0-.2.39v.065h.016c.008,0,.033-.033.073-.089l.024.073v.016c0,.016-.008.024-.016.041a.062.062,0,0,1,.016.041v.033c-.041,0-.065.033-.081.106v.171a.071.071,0,0,0-.033.049H8.111L7.989-1.9a1.476,1.476,0,0,0-.041.187c0,.016.024.024.065.041,0,.049-.033.1-.106.154v.081a.791.791,0,0,1-.049.122v.024a.073.073,0,0,0,.008.041l-.033.122c-.138.138-.211.228-.211.268a.281.281,0,0,0,.024.106C7.477-.619,7.4-.5,7.4-.4v.008A.725.725,0,0,0,7.412-.3c-.016.033-.041.041-.081.041H7.3v.106l.016.024H7.282c-.073,0-.146.073-.2.22q-.561.72-.561.732V.836l.033.1V.958A.155.155,0,0,1,6.461.9a3.038,3.038,0,0,0-.407.48c-.22.276-.358.407-.4.407a6.049,6.049,0,0,1-.61.577,3.714,3.714,0,0,1-1.927.886.576.576,0,0,1-.488-.228,2.115,2.115,0,0,1-.2-.984V1.82c0-.106,0-.22.008-.358l.2-.821c.122-.642.22-.959.285-.959.2-.057.325-.106.407-.138a1.643,1.643,0,0,0,.8-.333,1.948,1.948,0,0,0,.537-.423c.179-.138.268-.22.268-.252a.475.475,0,0,0,.146-.122.061.061,0,0,0-.008-.033c0-.016.024-.057.081-.122,0-.016-.016-.033-.049-.041a1.349,1.349,0,0,0-.26.146,1.024,1.024,0,0,1-.618.309.973.973,0,0,1-.114-.024H4.1a2.386,2.386,0,0,1-.764.26H3.314a.649.649,0,0,1-.13-.024A3.3,3.3,0,0,1,3.6-2.091a1.776,1.776,0,0,1,.39-.667,2.9,2.9,0,0,1,.537-.691q.159-.256.268-.293c.016.065.033.1.041.1s.016-.008.016-.024v-.008a.241.241,0,0,0-.016-.081.828.828,0,0,0,.244-.179.417.417,0,0,0,.3-.39c0-.073-.154-.2-.455-.382a2.643,2.643,0,0,1-.268.016,1.584,1.584,0,0,0-1.016.447,2.841,2.841,0,0,0-.52.691.634.634,0,0,1-.26.35.8.8,0,0,1-.138.26,1.789,1.789,0,0,1-.171.358c-.138.358-.244.626-.333.8a2.609,2.609,0,0,1-.236.5l-.065-.057a3.433,3.433,0,0,1-.439-.585A2.371,2.371,0,0,1,1.062-3.457ZM5.038-9.514A.639.639,0,0,1,5.306-9.6v.024c0,.033-.073.065-.228.1-.024-.008-.041-.016-.041-.033Zm-.5.268a1.466,1.466,0,0,1,.439-.2h.016c0,.033-.033.065-.089.089a.933.933,0,0,1-.358.146H4.534Zm-.374.252c0-.057.016-.081.033-.089h.065C4.257-9.034,4.225-9.01,4.16-8.993Zm-.634.6a.727.727,0,0,1,.252-.187H3.8a.49.49,0,0,1-.089.13,2.842,2.842,0,0,0-.52.358,1.657,1.657,0,0,0-.472.4.79.79,0,0,1-.236.065c-.163.171-.268.26-.309.26H2.168a.191.191,0,0,1,.016-.065c.016-.024.3-.252.846-.691A1.419,1.419,0,0,0,3.452-8.4Zm-.691.211c0-.049.065-.1.2-.138h.008v.008c-.008,0-.016.008-.033.016a.441.441,0,0,1-.146.114ZM2.713-8.1a.1.1,0,0,1,.049-.065h.033l.016.008a.078.078,0,0,1-.081.057ZM2.5-7.936c.033-.033.049-.049.057-.049h.008a.1.1,0,0,0-.016.057H2.5Zm6.594.4H9.1a10.366,10.366,0,0,1,.122,1.707c0,.016,0,.024-.008.024-.024.366-.049.545-.081.545l-.024-.114a3.5,3.5,0,0,0,.041-.4v-.959a.469.469,0,0,0-.016-.114V-6.88a1.151,1.151,0,0,1,.008-.154c-.024-.187-.041-.341-.049-.447Zm-7.472.7c0-.033.041-.081.122-.154q.11-.2.2-.2h.008a.072.072,0,0,1-.041.065c-.163.2-.252.285-.276.285Zm.2.138c0-.073.024-.114.057-.114a.108.108,0,0,1,.024.065A.089.089,0,0,1,1.818-6.7Zm-.6.4a.6.6,0,0,1,.065-.122.48.48,0,0,1,.252-.309H1.55c-.033.065-.057.089-.065.089a.768.768,0,0,1-.26.358H1.217Zm-.033-.309H1.2v.016a.022.022,0,0,1-.024.024A.109.109,0,0,0,1.184-6.611Zm.22.6a.078.078,0,0,0,.049-.073c.2-.244.325-.39.382-.447v.024c-.016.033-.033.049-.041.049a9.255,9.255,0,0,1-.463.813,2.218,2.218,0,0,1-.13.35l-.2-.081c-.024,0-.041.024-.041.073A4.063,4.063,0,0,0,.509-4.066l.008.024c.024,0,.057-.033.106-.089A2.151,2.151,0,0,1,.9-4.644c.016,0,.016.008.016.024v.008a1.286,1.286,0,0,1-.106.285,1.276,1.276,0,0,1-.065.39c-.024.374-.049.61-.065.707a3.158,3.158,0,0,1,.024.35v.049a.215.215,0,0,1-.024.114,5.435,5.435,0,0,1,.081.659,1.311,1.311,0,0,0,.106.268v.016a.7.7,0,0,1-.2-.309v-.024C.7-2.148.721-2.172.721-2.18.68-2.286.647-2.335.639-2.335A2.037,2.037,0,0,0,.566-2.9H.542C.517-2.822.5-2.79.485-2.79v-.024c0-.065-.008-.179-.024-.358a5.043,5.043,0,0,0,.057-.781v-.008H.5v.008c-.049,0-.089.187-.114.569v.138q0,.012-.024.171v.041l.008.122S.355-2.9.322-2.855a.069.069,0,0,1-.049-.016L.355-3.05c0-.041-.033-.081-.1-.114a.693.693,0,0,1,.065-.179C.314-3.432.314-3.481.314-3.489L.33-3.562v-.081L.322-3.668H.33A1.018,1.018,0,0,1,.4-3.92a.1.1,0,0,0-.073-.106c-.016,0-.033.073-.049.228a.022.022,0,0,1-.024-.024v-.041c.016-.187.049-.285.1-.285L.4-4.091H.4c.008,0,.024-.008.041-.041a2.631,2.631,0,0,1,.106-.39L.542-4.538A.828.828,0,0,0,.68-4.863a.411.411,0,0,1,.138-.285,1.439,1.439,0,0,1,.146-.358c0-.016-.008-.057-.016-.114,0-.008.041-.033.122-.081.138-.276.236-.463.3-.577.049,0,.114-.057.211-.179-.008.049-.016.081-.016.081a.268.268,0,0,0-.114.171,1.479,1.479,0,0,0-.081.179L1.4-6.01ZM9.38-6.392c0-.033.008-.057.033-.065l.008.1H9.38Zm-.366.073h.008l.008.073v.008c-.008,0-.016-.016-.033-.041Zm.366.081c.024,0,.041.033.057.1H9.4c-.016,0-.024,0-.024-.016ZM1.07-6.148h.016v.041a.017.017,0,0,1-.016.016c-.024.089-.049.13-.057.13v-.008A.432.432,0,0,1,1.07-6.148Zm-.358.293c0-.033.033-.073.1-.13v.016a.2.2,0,0,0-.057.122H.737Zm.618-.13c-.033.024-.049.033-.049.049V-5.9l.008.016a.086.086,0,0,0,.065-.081v-.024Zm-.106.138a.266.266,0,0,1-.057.13v.033l.016.033c.041,0,.073-.057.1-.179,0-.008-.008-.016-.024-.016Zm-.358.154H.875v.008C.867-5.627.859-5.6.851-5.6c-.033.146-.057.22-.089.22H.753v-.081A.761.761,0,0,1,.867-5.692Zm.228.163c-.024.016-.041.033-.041.041v.033c0,.008.016.024.041.033.016-.008.024-.024.041-.049-.008-.041-.016-.057-.033-.057Zm.114.122v.024h.016v-.024Zm8.13.285q0-.22.049-.22l-.016.26H9.347A.1.1,0,0,0,9.339-5.123Zm-.26-.041c.016-.057.041-.089.073-.089l.016.13v.065a4.641,4.641,0,0,0-.1.594,7.133,7.133,0,0,0-.13.707,2.723,2.723,0,0,0-.073.285c0,.057-.2.667-.577,1.837A5.764,5.764,0,0,1,7.607-.269a1.885,1.885,0,0,1-.2.35l-.4.577a.9.9,0,0,0-.2.244,5.712,5.712,0,0,0-.537.65c-.024.041-.236.236-.626.6-.024-.016-.033-.024-.033-.033V2.08a.664.664,0,0,0,.154-.187c.114-.057.171-.106.179-.154a.542.542,0,0,0,.2-.22.472.472,0,0,0,.163-.236h.008c0,.024.008.033.024.033a1.4,1.4,0,0,0,.114-.163.521.521,0,0,0,.122-.114c0-.065.073-.138.211-.228A1.5,1.5,0,0,1,6.94.544,2.8,2.8,0,0,0,7.168.218C7.274.1,7.323.031,7.323,0l.431-.772a.849.849,0,0,0,.179-.309,6.135,6.135,0,0,1,.325-.707A1.078,1.078,0,0,1,8.4-2.164a.666.666,0,0,1,.106-.3q.024-.171.049-.171a6.137,6.137,0,0,0,.285-1.008,6.452,6.452,0,0,0,.171-.927.612.612,0,0,0,.065-.2c0-.024,0-.081-.008-.179A.657.657,0,0,0,9.1-5.1v-.016Zm-.293.244a1.265,1.265,0,0,1,.049-.146q0-.049.122-.049l.016.106v.016a.022.022,0,0,1-.024.024H8.941l-.065-.057H8.867v.081c0,.041-.016.065-.041.073H8.794ZM.469-4.79c0-.154.041-.252.122-.285-.024.2-.057.285-.114.285Zm-.1.268c.016-.138.057-.211.106-.211A.356.356,0,0,1,.4-4.5Zm8.415-.163h.008v.033H8.786Zm.073.073c0-.024.008-.041.024-.041H8.9v.041c-.016.016-.024.033-.033.033S8.859-4.595,8.859-4.611ZM.347-4.44H.387c.016.008.024.033.024.065v.008c-.033.049-.049.073-.057.073S.339-4.3.33-4.31v-.057Zm8.366.016c.016,0,.033.024.033.057V-4.3H8.721l-.008-.106Zm.52.211H9.25v.073H9.233a.061.061,0,0,0-.008-.033A.109.109,0,0,0,9.233-4.213Zm-.154.528c.057-.154.1-.228.114-.228,0,.154-.016.228-.041.228Zm-.512.033c.016,0,.024,0,.024.016v.041c-.016.033-.033.041-.041.041H8.534V-3.57A.4.4,0,0,1,8.567-3.652Zm.561.114c0-.016,0-.024.016-.024v.041H9.128Zm-.65.244c0-.008.008-.016.016-.024v.065c-.008,0-.016-.008-.016-.024Zm.553.041h.008v.033l-.008.073H9.022v-.024A.277.277,0,0,0,9.03-3.253ZM2.363-1.692a1.935,1.935,0,0,1,.244-.585,3.3,3.3,0,0,1,.463-.8h.008v.041a.487.487,0,0,1-.114.252,3.425,3.425,0,0,1-.374.683c-.065.276-.13.407-.211.407Zm.951-1.089c0-.016.041-.033.106-.049a.3.3,0,0,1,.024.089v.016q0,.024-.1.049A.265.265,0,0,1,3.314-2.782ZM.33-2.635H.387A.069.069,0,0,0,.4-2.587.3.3,0,0,0,.4-2.522H.355c-.016,0-.016-.008-.024-.024ZM2.485-1.2a.225.225,0,0,1,.106-.179c.35-.8.585-1.2.707-1.2h.008v.024a.623.623,0,0,0-.187.358c-.146.179-.22.293-.22.358a.8.8,0,0,1-.171.415.882.882,0,0,1-.211.333C2.5-1.1,2.493-1.139,2.485-1.2Zm.22-.862c0-.065.024-.1.081-.1h.008c-.016.073-.033.106-.049.106H2.721Zm5.732.6c0-.1.016-.138.057-.138a.256.256,0,0,1-.041.163C8.445-1.44,8.436-1.448,8.436-1.465ZM3.078-1.546h.016v.041L3.07-1.513A.061.061,0,0,0,3.078-1.546Zm1.146.138c-.033,0-.049.016-.049.024v.016h.041c.008,0,.016-.008.016-.024Zm-1.4.236c0-.033.041-.057.122-.065h.008c0,.1-.016.146-.057.154A.093.093,0,0,1,2.826-1.172Zm5.358.285c.016-.081.024-.122.041-.122.024-.106.057-.154.089-.154h.008A.341.341,0,0,1,8.2-.887Zm-.122.211c.024-.089.049-.13.065-.13l.008.057v.016C8.136-.717,8.111-.7,8.062-.676Zm-.049.057h.008L8.03-.57v.024c0,.008,0,.008-.008.008a.783.783,0,0,1-.13.211.062.062,0,0,0-.016-.033ZM2.257-.57a.272.272,0,0,0,.114.033,2.821,2.821,0,0,1-.122.423A2.01,2.01,0,0,0,2.1.259V.3c.033.146.065.211.089.211V.552a.4.4,0,0,1-.057.179l-.1-.049L2.07.641H2.054c-.033.008-.041.033-.041.065V.8q-.049.171-.146.171A.16.16,0,0,1,1.794.836V.812c.1-.024.146-.041.146-.057V.731C1.94.722,1.916.706,1.867.7A1.086,1.086,0,0,0,1.908.584L1.9.568A1.239,1.239,0,0,0,1.989.137c.049-.252.089-.374.122-.374a.594.594,0,0,1,.041-.2C2.225-.481,2.257-.521,2.257-.57ZM6.323,1.812l.033-.065A3.647,3.647,0,0,0,6.7,1.3,1.232,1.232,0,0,0,6.981.991c.211-.309.382-.553.528-.748a2.905,2.905,0,0,1,.35-.561v.033c-.008.106-.024.163-.041.163a1.192,1.192,0,0,1-.187.26,8.264,8.264,0,0,1-.512.756,5.6,5.6,0,0,0-.39.5,1.69,1.69,0,0,1-.4.423ZM1.981-.172c.008-.073.024-.106.057-.106h.016v.016A.093.093,0,0,1,1.981-.172Zm-.065.26q.024-.2.073-.2A.546.546,0,0,1,1.94.121C1.924.121,1.924.113,1.916.1Zm.52-.065h.008c.008,0,.024.016.041.057a.132.132,0,0,0-.033.073C2.444.153,2.428.137,2.412.1V.088ZM2.29.462C2.29.34,2.33.275,2.4.275a.132.132,0,0,0,.033.073.065.065,0,0,1-.073.073A.1.1,0,0,0,2.4.5a.108.108,0,0,0-.057.024A.059.059,0,0,1,2.29.495ZM2.184.8c0-.024.033-.041.081-.065A.711.711,0,0,1,2.29.844a.172.172,0,0,1-.081.033H2.192V.853Zm-.431.333.024-.008h.041v.024l-.024.024C1.769,1.17,1.761,1.153,1.753,1.129Zm.309.13c.073-.081.106-.114.114-.114s.033.024.033.057v.065a.521.521,0,0,1-.114.2.562.562,0,0,1,.016.122.288.288,0,0,1-.1.081H2a.04.04,0,0,0-.008-.024c0-.016.033-.1.081-.252V1.381Zm-.5.154c0-.016.016-.024.041-.033.008,0,.016.008.024.033a1.47,1.47,0,0,0-.033.163H1.582a.329.329,0,0,1-.024-.1Zm4.634.5h.041c0,.008-.008.016-.024.016H6.192Zm-.276.309c.081-.1.138-.146.163-.146C6.1,2.023,6.119,2,6.152,2v.033a2.174,2.174,0,0,0-.22.22c-.008,0-.016,0-.016-.016Zm-3.927-.2H2q.049.122.073.122c0,.016-.033.024-.114.024V2.121A.667.667,0,0,1,1.989,2.031ZM1.7,2.17h.008q.012,0,.049.073c-.008,0-.016.008-.033.008S1.7,2.243,1.68,2.21C1.7,2.194,1.7,2.186,1.7,2.17Zm3.756.065c.008-.024.016-.033.033-.033V2.21a.022.022,0,0,1-.024.024Zm-.146.146c0-.057.041-.1.122-.114,0,.057-.033.1-.114.114Zm.4,0c0-.024.041-.049.114-.065h.016v.016a.263.263,0,0,1-.106.106H5.729l-.016-.049Zm-.5.106h.024V2.5H5.209Zm.35.073h.016v.016a.117.117,0,0,0-.016.024H5.542A.045.045,0,0,0,5.558,2.56ZM17.026-3.562,17-3.554c-.138.073-.2.146-.2.2a1.6,1.6,0,0,0-.13.171c-.016.13-.024.2-.041.2a1.4,1.4,0,0,1-.13.382v.033l.008.016c-.008,0-.016.024-.024.089-.057.033-.081.065-.081.073a.121.121,0,0,0,.016.073l-.065.089V-2.2l.008.016c.033-.008.057-.016.057-.041h.008V-2.2a1.213,1.213,0,0,1-.2.415c-.024.089-.049.13-.073.13a1.307,1.307,0,0,1-.154.252c-.041.13-.073.187-.089.2a.792.792,0,0,0-.081.122.312.312,0,0,1-.065.138,1.949,1.949,0,0,1-.211.317.733.733,0,0,1-.163.252A.978.978,0,0,1,15.2-.1c-.065.106-.122.163-.146.163a.131.131,0,0,1,.033-.081V-.058a.153.153,0,0,1-.073.033.5.5,0,0,0-.106.146.126.126,0,0,0,.024.049A.234.234,0,0,0,15.042.1h.008V.113a.8.8,0,0,1-.106.154h-.016V.21a.017.017,0,0,0-.016-.016H14.9L14.88.21V.194h-.008c-.057.081-.114.154-.171.228a3.754,3.754,0,0,1-.715.829c-.358.415-.618.618-.8.618h-.008a.138.138,0,0,1-.057-.008c-.122-.057-.179-.228-.179-.52V1.267a7.542,7.542,0,0,1,.138-1.2,9.381,9.381,0,0,1,.382-1.358,12.2,12.2,0,0,1,.52-1.374,1.757,1.757,0,0,0,.179-.512V-3.18a.3.3,0,0,0-.016-.106.449.449,0,0,0-.4-.268.9.9,0,0,0-.5.138c-.033,0-.106.138-.211.415l-.268.634c-.065.26-.122.5-.187.724a9.323,9.323,0,0,0-.618,2.667V1.1c0,.065,0,.1.008.1a1.385,1.385,0,0,0,.439.854,1.415,1.415,0,0,0,.927.4h.024a.713.713,0,0,0,.39-.171,1,1,0,0,0,.358-.228,6.02,6.02,0,0,0,.781-.87V1.162a1.762,1.762,0,0,0-.236.236,1.575,1.575,0,0,0-.26.244c0,.057-.089.089-.26.1V1.731a1.662,1.662,0,0,0,.26-.2,5.947,5.947,0,0,0,.65-.683,13.361,13.361,0,0,0,.935-1.366h.008v.008a1.334,1.334,0,0,0-.081.528,1.4,1.4,0,0,0,.13.618,1.145,1.145,0,0,0,1.122.65h.008A2.336,2.336,0,0,0,18.408.9c.122-.106.179-.171.179-.2A1.481,1.481,0,0,0,18.961.3c0-.008,0-.016-.016-.016a.366.366,0,0,0-.073-.138c.008-.041.016-.057.016-.065a.017.017,0,0,0-.016-.016A.146.146,0,0,0,18.8.1a.726.726,0,0,1-.2.211L18.579.3l.008-.033c.081-.065.122-.122.122-.163V.088h-.016a.152.152,0,0,0-.081.041,2.657,2.657,0,0,1-.439.358c-.016.033-.049.041-.106.041q0,.037-.146.1c-.146.016-.22.041-.22.057l.024.041c0,.008-.033.033-.106.073a1.222,1.222,0,0,1-.382-.057.614.614,0,0,1-.4-.634V.015a1.322,1.322,0,0,1,.1-.472.225.225,0,0,1-.008-.065,4.926,4.926,0,0,0,.146-.585c.2-.6.293-.911.293-.919a2.9,2.9,0,0,0,.171-.618v-.008L17.5-2.985v-.081a.252.252,0,0,1,.041-.089c0-.008,0-.016-.016-.033l-.024.016h-.016c-.081-.114-.138-.179-.171-.179-.033.033-.049.049-.057.049s-.016-.016-.033-.057l.016-.024c-.024-.081-.041-.122-.065-.122h-.008c-.049.008-.081.016-.089.016h-.008A.159.159,0,0,0,17.026-3.562Zm.22.431c0-.008.016-.024.057-.041l.016.008c0,.008-.024.024-.065.033Zm-.089.675h.033c.008,0,.016,0,.016.008v.033l-.008.049a.263.263,0,0,1-.081.179v.041l.041.041-.073.049c0,.008.008.016.008.033-.016.057-.033.081-.049.081a1.064,1.064,0,0,1-.073.228,1.5,1.5,0,0,0-.089.309v.016l.008.016a.063.063,0,0,0,.024-.008h.008v.041a.71.71,0,0,1-.041.106c-.016,0-.016-.016-.016-.041h-.024a.622.622,0,0,1-.041.13.371.371,0,0,1-.041.122v.016c0,.016.008.016.016.016l.024-.016c.008-.089.024-.13.057-.13a.063.063,0,0,0,.008.024c-.008.024-.016.041-.024.041-.016.089-.081.35-.2.772L16.6-.334a.4.4,0,0,0,.024-.122l-.016-.024H16.6a2.561,2.561,0,0,0-.089.382c0,.008,0,.016.016.016s.041-.057.057-.154V-.261H16.6V-.2a.369.369,0,0,1-.033.146.062.062,0,0,1-.041-.016h-.008L16.49-.05a.465.465,0,0,1-.081.276c.016.114.033.187.033.2A.355.355,0,0,1,16.384.6L16.368.592a.437.437,0,0,0-.073-.211A.053.053,0,0,0,16.254.4a1.107,1.107,0,0,0,.008.13c-.049,0-.073-.049-.073-.138a.559.559,0,0,0,.024-.2.423.423,0,0,0-.024-.041.351.351,0,0,0,.033-.114c0-.033-.008-.057-.024-.057a1.22,1.22,0,0,0-.073.374l.008.041-.016.049h-.008c0-.008,0-.016-.016-.033A.664.664,0,0,0,16.1.292a.5.5,0,0,0-.016-.146A.709.709,0,0,0,16.1-.017a.193.193,0,0,0-.024-.122V-.147a.151.151,0,0,0,.057-.016.457.457,0,0,1,.057-.187l-.024-.033-.016.008c-.008.057-.016.089-.033.089h-.033a.229.229,0,0,0-.008-.065.218.218,0,0,1,.065-.13h.008c0,.016.008.024.016.024a.146.146,0,0,0,.057-.122A2.1,2.1,0,0,0,16.3-.847a1.3,1.3,0,0,0,.1-.252l.106-.138v.008l-.041.211v.008c0,.016,0,.016.016.016h.008L16.506-1,16.5-1.034c0-.016,0-.016.016-.016h.008l.041.008q.073-.024.073-.073a.529.529,0,0,0,.073-.211.635.635,0,0,0,.073-.171l-.008-.008a1.019,1.019,0,0,0,.073-.22.679.679,0,0,0,.081-.252c0-.024.033-.057.1-.114V-2.1c0-.016,0-.024-.008-.033Zm-.341.089.016.008c-.016.081-.033.122-.041.122a.411.411,0,0,1-.041.154.063.063,0,0,1-.033-.033c.016,0,.033-.049.049-.138A.306.306,0,0,0,16.815-2.367Zm-3.439.22a.017.017,0,0,1,.016.016h-.016ZM16.27-2.1q-.024.012-.024.024v.008q.012.024.024.024h.016q.024-.012.024-.024C16.311-2.083,16.294-2.091,16.27-2.1Zm.22.724.065-.244c.049-.041.065-.122.065-.252.041-.122.073-.187.1-.187v.024l-.016.057v.057a.159.159,0,0,1-.008.065c-.049.122-.081.22-.114.309-.008.073-.024.106-.041.106V-1.4c0,.057-.016.081-.024.081H16.5l-.008-.041Zm-.35-.512a.1.1,0,0,1-.049.081V-1.8c.016.024.024.033.033.033a.135.135,0,0,0,.041-.106v-.016Zm-2.886.016.016.008c-.016.057-.041.089-.057.089A.135.135,0,0,1,13.254-1.871Zm2.829.154h-.016c-.016.049-.041.106-.065.163,0,.008.008.016.008.024h.024l.008-.049c.041-.041.065-.073.065-.1v-.016Q16.1-1.717,16.083-1.717Zm.927.033h.008v.016H17.01ZM14.034,1.7V1.69c.065-.073.138-.154.211-.252A2.124,2.124,0,0,1,14.5,1.08.674.674,0,0,1,14.628.9a1.574,1.574,0,0,1,.244-.309.545.545,0,0,1,.211-.333,4.357,4.357,0,0,1,.35-.528c.089-.171.138-.26.138-.26a2.155,2.155,0,0,1,.171-.276c.073-.154.122-.236.146-.236.065-.138.13-.244.171-.317a1.461,1.461,0,0,1,.211-.317,5.745,5.745,0,0,1-.122.61,3.256,3.256,0,0,0-.35.545A4.486,4.486,0,0,1,15.172.535,5.524,5.524,0,0,1,14.042,1.7ZM13.148-1.66h.008a.262.262,0,0,0,.008.065c-.057.187-.089.285-.106.285-.016.1-.033.146-.041.146V-1.18h-.024v.033a.03.03,0,0,1,.024.008.143.143,0,0,0-.008.049.9.9,0,0,0-.073.187,1.572,1.572,0,0,0-.114.374,1.273,1.273,0,0,0-.122.423,1.144,1.144,0,0,0-.089.382,1.39,1.39,0,0,0-.065.35H12.53a.3.3,0,0,1,.016-.13c-.008-.008-.008-.016-.008-.033V.332l.024-.081V.194a.225.225,0,0,1,.008-.073.807.807,0,0,0,.065-.22l.057-.268a.25.25,0,0,1,.081-.163V-.554A.9.9,0,0,1,12.79-.7a.478.478,0,0,0,.081-.2V-.952a.131.131,0,0,0,.041-.089c.049-.171.089-.26.114-.26A.746.746,0,0,1,13.148-1.66Zm2.789.228c-.024.016-.033.024-.033.033v.008q.012.024.024.024h.016c.008,0,.016,0,.016-.016v-.033c0-.008-.008-.008-.016-.016Zm.642.415h-.041c-.033.1-.049.138-.057.138,0-.041-.008-.065-.016-.065h-.016c-.016,0-.024.024-.033.065a.03.03,0,0,0,.024.008c.008,0,.024.024.057.081-.024.073-.041.114-.057.114h-.008L16.4-.7c.016-.065.033-.106.033-.122V-.847h-.016a.534.534,0,0,0-.065.2l.016.024.016-.008h.041q.024.012.024.024V-.6a.14.14,0,0,0-.016.065v.016h.024a1.54,1.54,0,0,0,.13-.488Zm-.959.106c-.008,0-.008.008-.016.016l.008.016L15.636-.9C15.636-.9,15.636-.912,15.62-.912ZM16.734-.9c-.016,0-.033.033-.041.089.008,0,.008,0,.008.008.024-.008.041-.024.041-.033V-.879Zm3.016.024L19.587-.7q-.049.146-.1.146v.016c.008.041.024.057.033.057h.008c.016,0,.033-.016.041-.057a2.126,2.126,0,0,0,.2-.309C19.766-.863,19.758-.871,19.75-.871Zm-4.2.065v.024h.016V-.806Zm.642.089.016.008-.008.041h-.016a.03.03,0,0,0-.008-.024Zm-.683,0L15.49-.7a.389.389,0,0,1-.081.138V-.53c.024,0,.065-.049.114-.163V-.717Zm.862.106h-.024a.61.61,0,0,0-.057.163v.057H16.3A.266.266,0,0,0,16.376-.6Zm.268.041c-.008,0-.016.016-.033.041l.016.008a.1.1,0,0,0,.024-.016V-.57ZM12.571-.5h.008l.008.041-.073.228h-.024V-.237A.612.612,0,0,1,12.571-.5Zm6.887,0h-.016a1.3,1.3,0,0,1-.268.3L19.1-.156v.041h-.049a.076.076,0,0,0-.065.049A.017.017,0,0,0,19-.05h.041c.008.057.016.081.024.081h.041a.352.352,0,0,1,.114-.163.1.1,0,0,1,.106-.081c.033,0,.057-.033.081-.106L19.5-.4A.2.2,0,0,0,19.457-.5Zm-3.041.024a.017.017,0,0,0-.016.016V-.44l.016.024V-.4c-.049.008-.073.065-.073.163q0,.012-.049.024l-.033-.024h-.008a.072.072,0,0,0-.041.065.017.017,0,0,0,.016.016h.016l.024-.016c.024,0,.065.024.106.089h.008q.024-.012.024-.024V-.139c0-.024-.008-.049-.008-.073,0-.008.008-.024.008-.033a.137.137,0,0,0-.016-.041c.024,0,.041-.057.041-.171C16.433-.465,16.425-.465,16.416-.473Zm-1.057.008a.175.175,0,0,0-.073.106.683.683,0,0,0-.146.22l.008.016a1.1,1.1,0,0,0,.228-.309V-.448C15.376-.456,15.368-.456,15.359-.465Zm3.846.024-.016.008.008.016.016-.008Zm-.049.065v.008l.008.016a.017.017,0,0,0,.016-.016V-.375ZM16.3-.326c-.024.008-.041.016-.041.024a.017.017,0,0,0,.016.016h.033V-.31Zm-3.846.179c0-.033.008-.049.033-.057H12.5v.033a.112.112,0,0,1-.041.073Zm3.756.008v.008l.008.016.016-.008a.017.017,0,0,0-.016-.016Zm.309.179a.063.063,0,0,1,.024-.057V.015l-.008.041C16.522.056,16.522.056,16.522.04Zm2.4-.065c-.008,0-.016.016-.024.033A.03.03,0,0,0,18.9.031c.024-.016.033-.033.033-.041s0-.008-.008-.016Zm-2.6.016q-.024.012-.024.024V.072A1.252,1.252,0,0,0,16.27.2c0,.008.008.016.016.033A.184.184,0,0,0,16.351.08V.015q-.012-.024-.024-.024Zm-.634.016-.016.008a.55.55,0,0,1-.1.154.1.1,0,0,0,.016.024H15.6a.593.593,0,0,1,.1-.154V.023ZM19,.064c-.008,0-.008.008-.016.016V.088c0,.016.008.016.016.016s.016,0,.016-.016V.08C19.018.072,19.018.064,19,.064Zm-.276.2c.049-.057.081-.089.106-.089.016.024.033.041.033.049s-.016.008-.016.033c0,.008.016.016.065.033V.316c0,.008-.033.033-.081.089h-.065c0-.016,0-.024.008-.033.033-.024.057-.041.057-.041V.283L18.823.267l-.081.024a.017.017,0,0,1-.016-.016ZM16.311.251c-.016,0-.033.024-.041.073V.332a.017.017,0,0,0,.016.016h.008c.008,0,.016-.033.024-.089C16.311.259,16.311.259,16.311.251Zm-3.96.016h.016l.016.057a.66.66,0,0,1-.041.114h-.008V.43C12.335.4,12.343.34,12.351.267ZM14.79.454V.438A.477.477,0,0,1,14.9.283h.008A.272.272,0,0,1,14.79.454ZM18.482.365h.024c0,.008-.008.016-.008.024h-.016ZM12.327.479q.024.012.024.024c0,.033-.008.049-.033.057A.251.251,0,0,0,12.327.479Zm2.4.008h.033a.194.194,0,0,1-.065.13h-.008V.592A.116.116,0,0,0,14.725.487Zm.634.008c-.008,0-.016.016-.033.049,0,.016.008.016.016.016.024-.008.033-.024.033-.033V.511C15.376.5,15.368.5,15.359.495ZM12.311.576h.008l.016.081A.514.514,0,0,1,12.3.763h-.008L12.286.722V.7A.4.4,0,0,1,12.311.576Zm3.96.041a.03.03,0,0,0,.024-.008c0,.016,0,.024.008.033-.008,0-.008.008-.008.024h-.016L16.27.625ZM15.278.609V.625h.016V.609Zm1.309.016c.016,0,.024.024.024.081a.413.413,0,0,1,.073.2c-.049,0-.081-.081-.1-.26ZM14.62.682a.055.055,0,0,1,.033-.049h.008V.657c0,.008-.008.016-.041.033ZM17.912.82c.008-.033.073-.065.187-.1a.447.447,0,0,1,.154-.057h.008V.69c-.008,0-.033.008-.065.016a1.164,1.164,0,0,1-.252.13.061.061,0,0,0-.033-.008ZM16.3.69c.024,0,.065.033.122.106V.828q-.012.024-.024.024h-.024Q16.351.84,16.3.706Zm-1.13.073-.024.016A.017.017,0,0,0,15.164.8h.008c.016,0,.016-.008.016-.016S15.189.763,15.172.763Zm3.114.024h.024V.8h-.024ZM18.221.82h.016V.828h-.016ZM15.083.909a.4.4,0,0,0-.13.154c.049,0,.089-.049.138-.154ZM12.27.95c0-.008.008-.008.016-.016h.008V.95ZM16.709.942h.016a.062.062,0,0,0,.016.033V.983L16.709.975ZM16.547.95q.024.012.024.024a.036.036,0,0,1-.024.008h-.008V.966Zm7.167-4.6a.687.687,0,0,0-.472.236,2.509,2.509,0,0,0-.447.821c-.341.976-.577,1.61-.7,1.9a3.142,3.142,0,0,0-.309.8A22.375,22.375,0,0,0,21.112,2.8V2.82a.548.548,0,0,1,.106.122.342.342,0,0,0,.22.171.386.386,0,0,0,.2.081c.049,0,.081-.008.081-.016.1,0,.187-.114.276-.35.488-.813.87-1.423,1.138-1.813A6.92,6.92,0,0,0,23.673.007a3.83,3.83,0,0,1,.7-1.163c.407-.626.732-.935.992-.935h.057a.369.369,0,0,1,.146.033,4.1,4.1,0,0,1,.537.439.526.526,0,0,0-.024-.081v-.049h.008a.439.439,0,0,1,.138.154,1.056,1.056,0,0,1,.252.211h.008L26.51-1.4h.016a.207.207,0,0,0,.13.13c.016,0,.024-.008.024-.016v-.049q.122.037.122.073v.016q-.073.012-.073.024v.008q.11.122.171.122l.057-.008c.065.016.1.033.114.033l.041-.008V-1.1l-.024-.033v-.008h.073c.008.041.016.065.033.065s.016-.008.016-.016V-1.1L27.2-1.139h.041a1.088,1.088,0,0,0,.854-.594v-.008h-.008a.751.751,0,0,0-.276.276q-.085,0-.244.171a3.021,3.021,0,0,1-.512.089h-.008l-.016.008c0-.008-.016-.008-.049-.008-.041-.065-.065-.1-.081-.1a.116.116,0,0,1-.049.016c0-.008-.008-.024-.033-.049a.332.332,0,0,1-.154-.114l-.187-.138a.125.125,0,0,1-.081-.13.1.1,0,0,1,.081.049c.1.049.146.081.154.106a.6.6,0,0,1,.114.081l.179.065A.1.1,0,0,1,27-1.465a.435.435,0,0,1,.073.057h.016q.024-.012.024-.024l.057.065h.016a.365.365,0,0,0,.089-.008c.024,0,.041-.033.057-.114a.3.3,0,0,0,.089.024h.024c.114,0,.276-.114.472-.35a.976.976,0,0,1,.415-.293c0-.106-.033-.163-.1-.163l-.049.008a.216.216,0,0,1-.106-.081l-.033.033.016.106c-.024.024-.033.041-.033.049a.4.4,0,0,0,.033.089v.024h-.008c-.016,0-.024-.033-.041-.081-.008,0-.016.008-.024.033L28-2.042c-.309.309-.52.463-.626.463a.182.182,0,0,1-.122-.065h-.008a.182.182,0,0,0-.081.024h-.008c-.033-.065-.065-.1-.089-.1l-.13.016a1.153,1.153,0,0,1-.756-.472c-.374-.472-.715-.715-1.016-.715-.276,0-.561.2-.878.577a.352.352,0,0,1-.114.163v.033c0,.008,0,.016.016.016H24.2a.017.017,0,0,0,.016-.016.414.414,0,0,0,.089.033v.008c-.033,0-.073.065-.114.2v.008q.012.024.024.024h.008a.129.129,0,0,0,.1-.041v.008c0,.049-.073.122-.211.211q-.012,0-.049-.073c-.049,0-.089.057-.122.163-.049.024-.073.081-.073.179l.057-.008v.016a.225.225,0,0,1-.089.2h-.008q-.11-.1-.146-.1h-.016a.062.062,0,0,0-.065.049c0,.008,0,.016.016.016h.024c0-.016.008-.024.033-.033a.766.766,0,0,1,.033.081.086.086,0,0,0-.089.065.054.054,0,0,0,.041.033v.008a.6.6,0,0,0-.138.211c0,.057-.049.089-.154.122a.26.26,0,0,0,.065.138v.008c-.114.016-.163.033-.163.057v.065a.153.153,0,0,1-.016.065.076.076,0,0,0-.049.065v.024l.008.016L23.25-.31a1.66,1.66,0,0,1,.138-.2v.049a.311.311,0,0,1-.1.171,1.4,1.4,0,0,1-.244.561c-.089.171-.154.26-.187.26L22.843.527,22.762.69A9.158,9.158,0,0,1,22.006,2.1H22V2.088a.4.4,0,0,1,.049-.138,10.107,10.107,0,0,0,.61-1.333,4.383,4.383,0,0,0,.22-.455.276.276,0,0,0,.1-.1,1.159,1.159,0,0,1,.089-.285l-.016-.008h-.008q-.012,0-.1.1c-.122.268-.211.407-.276.407h-.016V.267c.114-.415.2-.724.276-.911,0-.065.3-.756.886-2.073a1.588,1.588,0,0,0,.138-.642V-3.4C23.933-3.57,23.852-3.652,23.713-3.652Zm.634,1.707c.016-.016.024-.033.041-.033a.3.3,0,0,1,.146-.154c.033-.089.073-.13.122-.13l.049.008v.016c-.016,0-.024.008-.041.024l.008.081a.218.218,0,0,1-.122.187,1.04,1.04,0,0,1-.138.211.98.98,0,0,1-.244.35L24.1-1.44l.024-.065q.146-.146.2-.146c0-.057.057-.138.154-.244v-.016l-.057.008h-.057l-.016.008Zm-1.057-.1h.016c0,.008-.008.016-.008.033h-.008Zm.016.211c0-.033.024-.057.065-.1h.008V-1.9a.154.154,0,0,1-.057.114c-.008,0-.008-.008-.016-.016Zm-.171.13c.008-.024.016-.041.041-.049V-1.7Zm-.163.528a1.485,1.485,0,0,0,.163-.325.29.29,0,0,1,.138-.2c-.089.163-.2.423-.35.764a4.355,4.355,0,0,0-.317.87c0,.081-.057.138-.171.163a.084.084,0,0,1,.008-.033c.065-.211.13-.407.2-.585V-.521c-.016,0-.041-.016-.057-.065,0-.041.033-.1.106-.187a3.549,3.549,0,0,1,.211-.455.03.03,0,0,0-.008-.024c.073-.171.13-.26.179-.268h.008a1.676,1.676,0,0,0-.13.35Zm.146-.472q.024,0,.024.049h-.008c-.008,0-.016-.016-.024-.033Zm.821.179a.094.094,0,0,1,.065-.073.139.139,0,0,1,.049-.073h.016v.049q-.061,0-.073.1v.033c-.008,0-.024.008-.033.008s-.016-.008-.024-.008Zm2.488-.1h.008v.016h-.008Zm-3.659.016.033.008v.008h-.016C22.77-1.53,22.77-1.538,22.77-1.546Zm.041.154h.008l.008.024-.016.008Zm1.024.033c-.008,0-.008.008-.016.016l.008.041h.008c.016,0,.016-.008.016-.016v-.024C23.852-1.351,23.852-1.359,23.835-1.359Zm.154.2a.082.082,0,0,1,.073-.089l.016.008c-.016.057-.033.081-.049.081Zm-1.285.073c.024-.073.041-.114.065-.114V-1.2C22.746-1.131,22.722-1.091,22.705-1.091Zm1.016-.024c0-.016.016-.024.041-.024h.008a.166.166,0,0,1-.016.089c-.016-.016-.033-.024-.033-.033Zm.2.057c0-.049.016-.073.041-.073h.016l-.041.081Zm-1.26.041A.017.017,0,0,1,22.681-1,2.632,2.632,0,0,1,22.5-.57h-.016V-.587c.016-.081.024-.114.041-.114A2.58,2.58,0,0,1,22.665-1.017Zm.951.276c.008-.024.024-.033.033-.033a.03.03,0,0,0,.008.024v.008ZM23.6-.562c0-.016,0-.016.016-.016h.024c-.016.016-.024.024-.024.041H23.6Zm-.439.122a.017.017,0,0,0-.016.016v.008c0,.016,0,.016.016.016h.024V-.424c0-.008-.008-.008-.016-.016ZM23.1-.383q-.024.012-.024.024v.041A.017.017,0,0,0,23.1-.3q.024-.012.024-.024V-.383Zm.268.325q.024-.171.049-.171h.049V-.2a.721.721,0,0,1-.089.154h-.008Zm-.033.041h.008c.008,0,.016.008.024.016-.008.033-.041.057-.081.089A.43.43,0,0,1,23.339-.017Zm-.333.138-.024.016A.081.081,0,0,0,22.99.17H23a.017.017,0,0,0,.016-.016V.137Zm.252.008c.008,0,.016.008.016.033L23.266.17H23.25Zm-.13.244c0-.057.016-.081.065-.081V.324c-.024.033-.033.049-.041.049Zm-.919.008h.008V.414h-.008ZM22.169.5h.016V.511a3.275,3.275,0,0,1-.163.642c-.049.252-.106.382-.154.382,0,0,0-.008-.016-.008l.008-.016V1.389l.008-.008-.008-.008-.033.008V1.357h.024c.049,0,.073-.049.073-.13V1.2a.366.366,0,0,0-.065.016c0-.016,0-.024-.008-.033.008,0,.016-.016.016-.057.033.024.049.049.049.065h.008c.016,0,.024-.024.033-.073a.647.647,0,0,0,.106-.285A3.219,3.219,0,0,0,22.169.5Zm-.553.789c.016-.033.033-.041.041-.041l.008.041v.016q0,.012-.049.024Zm-.081.341a.161.161,0,0,1,.049-.114.251.251,0,0,0,.016.065c-.033.041-.049.057-.057.057h-.008Zm.22.033c0-.008,0-.016.016-.016s.016.008.024.033l-.041-.008Zm-.228,0h.008a.03.03,0,0,0,.008.024.03.03,0,0,0-.008.024l-.016-.008ZM47.462-10.026a.473.473,0,0,0-.285.171,1.64,1.64,0,0,0-.358.171,8.666,8.666,0,0,0-1.073.943A19.312,19.312,0,0,0,44.056-6.5q-.573.8-.829,1.2a12.561,12.561,0,0,0-.642,1.122l.016.073a.323.323,0,0,0-.154.236c-.057.016-.089.033-.089.049v.033h.049v.008a4.2,4.2,0,0,1-.244.415c-.415.748-.634,1.163-.667,1.244a.72.72,0,0,0-.146.3h.016c.049-.016.138-.171.276-.455a8.743,8.743,0,0,0,.537-.935,2.708,2.708,0,0,0,.4-.659,2.408,2.408,0,0,0,.2-.276,6.43,6.43,0,0,1,.5-.781.575.575,0,0,1-.041.13,7.157,7.157,0,0,1-.439.8,1.255,1.255,0,0,0-.341.659.322.322,0,0,0-.138.276c-.008,0-.016-.016-.016-.041h-.008c-.016,0-.041.049-.073.154,0,.057-.041.081-.114.081l-.041.122v.016l.016.024v.057l-.049-.016h-.024a1.883,1.883,0,0,0-.171.252c0,.016.008.016.016.016s.016,0,.033-.016c.008,0,.016.008.033.016l-.187.382h-.008l-.033-.016a.33.33,0,0,1,.065-.154c-.008,0-.008-.008-.008-.016-.033,0-.073.065-.13.2,0,.024.008.033.024.033l.033-.016h.016a1.252,1.252,0,0,1-.13.341v.049h.016c.033-.033.057-.057.057-.081a8.733,8.733,0,0,1,.724-1.236,6.374,6.374,0,0,1,.333-.569c0-.065.081-.122.236-.171l.081-.3.041.033h.016c.041-.041.065-.073.065-.106a1.013,1.013,0,0,0,.179-.358c.073-.073.114-.13.114-.171.065-.1.211-.317.455-.659a10.174,10.174,0,0,1,.951-1.333h.016c-.081.13-.537.837-1.366,2.106a1.848,1.848,0,0,1-.171.366,17.259,17.259,0,0,0-.959,1.569c-.179.293-.35.585-.512.886a.3.3,0,0,0,.008.065l-.008.073c-.081,0-.146.1-.187.285a2.09,2.09,0,0,0-.285.528.126.126,0,0,0,.024.049.192.192,0,0,1-.041.106h-.024c-.016,0-.049-.049-.1-.138a.622.622,0,0,0-.146.35v.016h.033c0-.057.016-.089.057-.106l.057.024a1.1,1.1,0,0,1-.081.3c-.122.244-.2.407-.236.5a.208.208,0,0,1-.13.106l.008.049V.69c-.024,0-.041.033-.065.106,0,.089-.049.13-.146.13V.958a.526.526,0,0,0,.024.081v.081a.2.2,0,0,1-.106.033v.033c.024,0,.033.008.033.024-.008,0-.024.033-.041.1a.13.13,0,0,1-.065-.024l-.008.024c0,.041.008.1.008.163-.041.073-.073.106-.1.106a1.428,1.428,0,0,1-.187.561q0,.11-.268.146a.061.061,0,0,1-.033-.008V2.267a.783.783,0,0,1,.138-.39,3.136,3.136,0,0,1,.228-.65L40.186,1.2a.2.2,0,0,1-.057.008.529.529,0,0,0-.073.154c-.073.252-.13.374-.179.374-.106.244-.187.415-.244.528h-.008a.062.062,0,0,0-.016-.033A6.838,6.838,0,0,1,40.2.649V.641c-.033.016-.065.081-.114.179a5.7,5.7,0,0,0-.618,1.667h-.016c0-.008-.049-.154-.154-.439a9.469,9.469,0,0,1-.2-1.2c-.057-.968-.089-1.52-.114-1.642V-2.2c0-.057,0-.146-.008-.276q.024-.256.073-.976c.146-1.561.236-2.407.276-2.537a10.043,10.043,0,0,1,.285-1.5,5.987,5.987,0,0,1,.4-.927,1.092,1.092,0,0,0,.211-.407c0-.138-.13-.211-.39-.211a.918.918,0,0,0-.626.309,1.144,1.144,0,0,0-.382.528,6.238,6.238,0,0,0-.528,1.553c-.016.228-.1.821-.236,1.789a10.2,10.2,0,0,1-.1,1.293v.317a1.669,1.669,0,0,1-.024.228.517.517,0,0,0,.024.122,2.049,2.049,0,0,0-.057.4c0,.374.016.65.033.829-.024.236-.041.39-.041.463V-1.1a.482.482,0,0,0,.033.171c0,.033-.008.065-.008.114l.041.317a.4.4,0,0,1-.024.1c.024.049.057.1.081.138a.256.256,0,0,0-.057.089.564.564,0,0,1,.057.2c.033-.016.041-.033.041-.041V-.074h.033L38.1.031V.1c0,.008-.024.024-.089.033,0,.252.008.447.016.561a2.528,2.528,0,0,1,.089.447,3.492,3.492,0,0,0,.472,1.415.543.543,0,0,1,.268.285,1.313,1.313,0,0,0,1.016.553.351.351,0,0,0,.114-.033c.033,0,.081-.179.146-.545a18.76,18.76,0,0,1,1.1-2.626c.594-1.244,1.041-2.122,1.342-2.626l1.089-1.854c.39-.642.626-1.016.707-1.13a23.7,23.7,0,0,1,1.683-2.358,4.9,4.9,0,0,0,.35-.382,13.165,13.165,0,0,1,1.4-1.2c.2-.106.285-.2.285-.293v-.065a.28.28,0,0,0-.041-.13A1.249,1.249,0,0,0,47.462-10.026ZM44.909-6.66h.016v.016h-.016Zm-.837.48H44.1a.137.137,0,0,0-.016.041h-.008ZM43.3-4.961c.024-.073.041-.114.049-.114a5.6,5.6,0,0,1,.577-.862,2.073,2.073,0,0,1-.293.5C43.43-5.14,43.324-4.977,43.3-4.961Zm-4.334-.878c.016.008.024.024.024.065v.041h-.008c0-.008-.008-.041-.016-.1Zm-.1.366a.022.022,0,0,1,.024-.024H38.9v.033h-.033Zm-.016.1h.008v.081h-.008Zm0,.114h.016a.758.758,0,0,0,.057.2.139.139,0,0,1-.065.1l.024.081-.016.041c-.049-.016-.073-.041-.073-.057a.932.932,0,0,1,.057-.325Zm-.065.488c.057,0,.081.049.081.138,0,.163-.033.26-.1.3v.041a.153.153,0,0,1,.057.106.882.882,0,0,0-.073.211,1.028,1.028,0,0,1,.024.171V-3.8a.632.632,0,0,1-.073.211,1.371,1.371,0,0,1,.024.179,3.925,3.925,0,0,1-.057.431.132.132,0,0,0,.033.073v.081h-.024c.008.049.016.081.016.081l-.041.187a.534.534,0,0,1,.024.106v.057h-.008a.26.26,0,0,1-.008-.057h-.024c-.008.073-.016.122-.016.138v.016a3.2,3.2,0,0,1,.073.8c0,.008-.016.041-.033.089.008.065.024.463.049,1.179a.022.022,0,0,1,.024.024v.041a.022.022,0,0,1-.024.024,1.37,1.37,0,0,0,.033.268,10.926,10.926,0,0,0,.244,1.935l.13.407a1.655,1.655,0,0,1,.163.382.135.135,0,0,1-.114-.081,2.349,2.349,0,0,0-.22-.39.028.028,0,0,0,.016-.008V2.365c0-.016-.024-.138-.073-.35a.576.576,0,0,0-.114-.1.073.073,0,0,1,.041.008c.016,0,.016-.008.016-.024s-.024-.033-.081-.081c.041,0,.057-.008.057-.016V1.731c0-.016-.041-.033-.114-.065-.041-.317-.065-.472-.1-.472-.073,0-.114-.033-.114-.089V1.088a.5.5,0,0,1,.13.033.354.354,0,0,0,.1-.016c0-.041-.008-.065-.041-.073h-.049a.786.786,0,0,1-.033-.187l.081-.065V.763c-.065,0-.106-.089-.114-.268V.34c0-.033-.008-.089-.016-.163L38.551.1h.089A.022.022,0,0,0,38.665.08V.04c0-.041-.041-.089-.114-.13V-.107a.37.37,0,0,1,.089-.024V-.156h-.016c-.049,0-.081-.008-.081-.033V-.237c.057-.008.089-.024.089-.041L38.625-.3c-.065-.008-.1-.033-.1-.065V-.66c0-.016,0-.114-.016-.276V-1a.267.267,0,0,1,.033-.138L38.527-1.2c.008-.081.016-.146.016-.187a.526.526,0,0,1-.024-.081v-.089a.132.132,0,0,0,.033-.073A.6.6,0,0,0,38.5-1.79.777.777,0,0,1,38.576-2v-.008c0-.024-.016-.081-.033-.171v-.073a.251.251,0,0,1,.016-.065c0-.114-.008-.268-.016-.439a3.354,3.354,0,0,0,.089-.675.251.251,0,0,1-.008-.081c.024-.2.041-.374.049-.5l.057-.114V-4.27c0-.049.008-.171.024-.382v-.057A.16.16,0,0,1,38.787-4.774Zm-.772,2.155a.061.061,0,0,0,.033-.008h.008v.065h-.041Zm.008.106a.062.062,0,0,1,.049.065v.008l-.016.024c-.041,0-.057-.024-.057-.065v-.008A.022.022,0,0,0,38.023-2.513Zm.358.22c0-.008.016-.024.049-.041h.008v.008a.241.241,0,0,1-.016.081C38.4-2.245,38.389-2.261,38.381-2.294Zm-.358.122c.024,0,.041.089.049.276v.114a1.1,1.1,0,0,1-.024.236c-.024,0-.049-.057-.081-.187A1.328,1.328,0,0,0,38.023-2.172Zm3.268.455c-.049.024-.114.154-.2.374a.747.747,0,0,0-.122.3h.016l.024-.008a1.785,1.785,0,0,1,.309-.594l-.016-.073Zm.228.179c-.008,0-.033.033-.073.089H41.34c-.008,0-.041.049-.081.154v.008h.008c.065-.057.1-.081.1-.1.008,0,.016.008.016.024v.065a2.232,2.232,0,0,0-.171.35,1.419,1.419,0,0,0-.138.285l.008.024a.245.245,0,0,0,.106-.089,3.112,3.112,0,0,1,.382-.715v-.073q0-.012-.024-.024Zm-3.512.065a.017.017,0,0,1,.016-.016c.016,0,.024,0,.024.016v.024a.044.044,0,0,1-.033.024Zm-.041.13a.086.086,0,0,1,.057-.049.4.4,0,0,1,.024.122.4.4,0,0,1-.024.1h-.008a.165.165,0,0,0-.049-.122Zm.39.024a.064.064,0,0,1,.065.041l-.016.049H38.4a.086.086,0,0,1-.049-.057A.061.061,0,0,1,38.356-1.318Zm2.854.146a.114.114,0,0,0-.065.089v.024h.024a.2.2,0,0,1,.049-.106v-.008Zm-3.236.1c0-.008.033-.024.081-.049v.146c0,.033-.008.057-.033.057a.313.313,0,0,1-.049-.138Zm2.968.114a.478.478,0,0,0-.122.268v.016h.008a.478.478,0,0,0,.122-.268V-.961Zm-2.52.3h.008v.024h-.008ZM40.8-.587c-.049,0-.073.033-.073.089v.016h.008c.008,0,.033-.033.073-.089Zm.236,0c-.016,0-.041.041-.057.122V-.44l.008.016c.057,0,.081-.057.081-.163Zm-.35.171q-.049.024-.049.049v.049h.016c.033-.016.041-.033.041-.041V-.391Zm.26.1h-.033a.991.991,0,0,0-.154.341V.031h.024A1.8,1.8,0,0,0,40.942-.318Zm-.317.049v.024h.008V-.269Zm-2.317.1.1.008v.041a.28.28,0,0,0-.073.008C38.324-.115,38.307-.131,38.307-.172Zm2.2.122c-.106.2-.154.3-.154.309V.275l.081-.1a.644.644,0,0,1,.1-.211V-.05Zm-2.146.033h.057c0,.008-.016.016-.041.024l-.016-.016Zm2.35.1c-.033,0-.065.065-.106.187V.275c.081,0,.114-.065.114-.2ZM38.4.3l.041-.024c0,.008.024.016.065.024a.3.3,0,0,1-.057.073A.139.139,0,0,1,38.4.3Zm2.138.122a.287.287,0,0,0-.13.26V.69h.016c.024-.008.073-.089.13-.244Zm-.317.089V.535l.008.016c.016,0,.024,0,.024-.016V.511Zm.154.244c-.016,0-.033.024-.041.089l.008.016c.024,0,.041-.033.041-.1V.755Zm-.122.236c-.008,0-.016,0-.024.016v.041h.016c.024-.016.041-.033.041-.041V.991Zm-.683,1.3a.049.049,0,0,0,.033-.008c0,.081-.016.122-.033.122H39.56l.008-.049Zm.22.106c0-.024.041-.033.114-.041h.008l-.081.146C39.812,2.5,39.8,2.471,39.787,2.4Zm-.276.138h.008l.024.008c-.016.041-.024.057-.033.057Zm.358.13q0-.012.024-.024H39.9v.016l-.008.016Zm-.553.024c0-.016.008-.024.016-.024v.041h-.016Zm.537.057c0-.008,0-.016.016-.016l.008.049c-.008.016-.016.033-.024.033Zm6.354-.081a1.1,1.1,0,0,0,.268-.033,2.914,2.914,0,0,0,1.2-.74,4.539,4.539,0,0,0,.976-.951c-.089,0-.374.236-.854.7a2.351,2.351,0,0,1-.9.553l-.049-.008a.4.4,0,0,1,.154-.171,1.765,1.765,0,0,0,.455-.366,1.63,1.63,0,0,0,.317-.26c.024-.089.049-.138.065-.138l.122.016q.037,0,.049-.146a.2.2,0,0,1,.106.049l.1-.122c.26-.171.39-.3.39-.382a.73.73,0,0,0-.2.065A.325.325,0,0,1,48.45.6c.244-.228.366-.39.366-.5a.762.762,0,0,0-.171.154c-.081.154-.146.228-.2.236-1.171,1.049-2.008,1.569-2.512,1.569-.138,0-.211-.041-.211-.13A3.523,3.523,0,0,1,46.409.422a16.06,16.06,0,0,1,2.114-2.529,1.256,1.256,0,0,1,.8-.472.447.447,0,0,1,.26.081.524.524,0,0,1,.171.341l-.016.146.008.065c-.114.317-.2.48-.244.5h-.073l-.024.016a.576.576,0,0,1-.089.171c-.016-.008-.024-.016-.041-.016a.308.308,0,0,0-.114.2c.008.041.024.057.057.057a.765.765,0,0,0,.285-.1,4.328,4.328,0,0,0-.407.626c.008,0,.008,0,.008.008a.217.217,0,0,0,.081-.033c.106-.171.252-.39.423-.65a1.168,1.168,0,0,0,.2-.146h.008l-.6.9c0,.008.041.033.13.065l.008-.146c.033.073.073.114.114.114a.175.175,0,0,0,.106-.073.022.022,0,0,0,.024.024c.008,0,.016-.024.024-.065-.008,0-.008,0-.008-.008l-.024.008a.369.369,0,0,0,.041-.073.166.166,0,0,0,.089-.057c0,.024,0,.033-.008.033a.776.776,0,0,1-.179.374.073.073,0,0,0-.041-.008c-.008,0-.016.024-.024.081-.439.577-.683.894-.724.959V.836A.062.062,0,0,0,48.775.82a4.669,4.669,0,0,0,.537-.6.406.406,0,0,0-.089.22h.024L49.312.4a.513.513,0,0,1-.057.179L49.239.568c.008-.033.016-.065.024-.089,0-.008-.016-.016-.033-.016s-.024.041-.041.13l.024.122a.351.351,0,0,0-.033.114.3.3,0,0,0-.049-.081c-.016,0-.024.016-.024.057a1.989,1.989,0,0,0-.179.837.494.494,0,0,0,.114.39,1.013,1.013,0,0,0,.756.455.652.652,0,0,0,.163-.016,1.668,1.668,0,0,0,1.024-.5c.374-.333.61-.537.7-.594,1.033-1.065,1.569-1.594,1.6-1.6a.284.284,0,0,0,.163-.26c-.089,0-.13-.024-.13-.065l.008-.211a.467.467,0,0,1-.008-.1c0-.024-.041-.041-.13-.049a.129.129,0,0,0-.081.041,1.347,1.347,0,0,1-.154.22,3.284,3.284,0,0,0-.407.423.435.435,0,0,0-.122.106l.008.024.049-.016V-.1a.389.389,0,0,0-.065.089A7.518,7.518,0,0,1,51.4.966c0-.016.033-.057.089-.122-.041,0-.089.033-.154.106s-.333.285-.789.626a1.178,1.178,0,0,1-.39.268c-.041,0-.065-.049-.065-.154a7.023,7.023,0,0,1,.846-2.447A5.554,5.554,0,0,0,51.7-2.936a.756.756,0,0,0-.285-.61c-.057-.154-.114-.228-.179-.228-.033,0-.073.033-.13.1L51.1-3.717h-.024c0,.008,0,.016-.008.016a1,1,0,0,0-.228.35c-.244.626-.374.935-.382.943l-.033-.2H50.41l-.016.3c.008,0,.008,0,.008.008a.248.248,0,0,1-.073.106c-.008,0-.016-.016-.033-.041l.033-.057-.008-.211c.024-.033.041-.049.041-.057a2,2,0,0,0-.122-.333c.081.024.122.057.122.089h.016q-.024-.1-.049-.1a.587.587,0,0,1-.163-.073c0-.008,0-.008.008-.008a.37.37,0,0,1,.154.065.943.943,0,0,0-.187-.333.248.248,0,0,0-.106-.073.752.752,0,0,0-.553-.2,2.641,2.641,0,0,0-.8.171,4.054,4.054,0,0,0-1.057.715l-.407.366A14.9,14.9,0,0,0,46.052-.936a4.9,4.9,0,0,0-1.179,2.464,1.04,1.04,0,0,0,.211.65,1.269,1.269,0,0,0,1,.488Zm3.358-5.423h-.049l.033-.041C49.556-2.8,49.564-2.782,49.564-2.757ZM46.125.405A.412.412,0,0,1,46.06.251q0-.061.22-.293l-.065-.049V-.107c.008-.033.024-.041.033-.041,0,.016.016.033.049.057h.016a.428.428,0,0,1,.049-.122c-.016-.008-.024-.024-.024-.065a.459.459,0,0,0,.22-.122.911.911,0,0,1,.146-.22.42.42,0,0,1-.049-.057.37.37,0,0,0,.163-.041,12.23,12.23,0,0,1,.878-1.008,2.132,2.132,0,0,1,.577-.472c0,.049-.163.228-.5.528a3.446,3.446,0,0,1-.325.382c-.382.455-.626.724-.724.813a1.464,1.464,0,0,1-.244.39c-.179.154-.26.236-.26.26C46.214.308,46.182.381,46.125.405Zm4.212-2.4a.022.022,0,0,1-.024-.024.052.052,0,0,1,.041-.049l.008.024Q50.361-1.993,50.336-1.993Zm.756.2-.008-.049c0-.024.024-.041.057-.057l.024.057A.139.139,0,0,1,51.092-1.79Zm-1.39.5A.914.914,0,0,1,50-1.6a1.926,1.926,0,0,0,.13-.2.074.074,0,0,1,.041.024A1.021,1.021,0,0,0,50.1-1.6,1.286,1.286,0,0,1,49.7-1.294Zm1.317-.293-.008-.041a.156.156,0,0,1,.089-.146A.2.2,0,0,1,51.019-1.587ZM49.775,1.9a.646.646,0,0,1-.041-.309l-.008-.1a.378.378,0,0,0,.057-.146.217.217,0,0,0-.041-.106V1.235l.1-.089A.545.545,0,0,1,49.9.926C49.889.9,49.873.885,49.865.885a.126.126,0,0,0-.089.057c-.033.187-.057.276-.073.276a.46.46,0,0,0-.081.22c0,.024.016.033.041.041q-.061.073-.1.073a.3.3,0,0,1-.089.008.531.531,0,0,1,.016-.089,3.163,3.163,0,0,0,.2-.488H49.67a.325.325,0,0,1-.081.13.118.118,0,0,1-.016-.057V1.04l.065-.13L49.629.885a.075.075,0,0,1,.057-.073h.008l.008.1c.065,0,.1-.049.1-.154L49.792.7C49.735.69,49.7.674,49.7.641l-.008.008-.008.024L49.678.666l.008-.016c.154-.138.236-.22.236-.252Q49.91.373,49.9.373c-.016,0-.041.041-.065.114a.108.108,0,0,1-.057-.024V.446a.113.113,0,0,0,.041-.081.272.272,0,0,0,.033-.114q0-.037.073-.049A.34.34,0,0,1,49.9.129c0-.008.016-.024.049-.033V.186L49.954.2a.083.083,0,0,0,.065-.041V.137a.445.445,0,0,1-.081-.146l.1.008c.024,0,.033-.024.033-.073,0-.016-.024-.024-.065-.033a.251.251,0,0,1,.016-.065l.065.041a.108.108,0,0,0,.024-.057c.041-.057.065-.089.065-.114s.1-.244.285-.691a2.209,2.209,0,0,1,.3-.691l.041.024a.017.017,0,0,1-.016.016,1.165,1.165,0,0,0-.138.415,2.158,2.158,0,0,0-.26.675.13.13,0,0,0,.024.065c0,.008,0,.008-.008.008l-.041-.008a1.436,1.436,0,0,0-.1.26.118.118,0,0,0,.016.057.252.252,0,0,0-.1.024L50.19-.1A.507.507,0,0,0,50.1.04a1.306,1.306,0,0,1-.057.309q.012.024.024.024a.1.1,0,0,0,.073-.049.776.776,0,0,1,.1-.341l-.008-.049c0-.008.024-.016.065-.041a.848.848,0,0,1,.065-.285l.073.016c.024,0,.049-.041.073-.13a4.173,4.173,0,0,0,.228-.52c.041-.171.089-.26.146-.26a.983.983,0,0,1,.041.187l-.008.024c-.065.008-.1.024-.1.057l-.049.146a.265.265,0,0,0-.081.146.4.4,0,0,1,.033.106L50.71-.6l-.065-.016c-.008,0-.008.008-.016.016l.024.041-.008.033a.412.412,0,0,1,.016.106c-.073,0-.114.024-.114.073a.367.367,0,0,1,.024.106.116.116,0,0,1-.016.049l-.081-.016c-.008,0-.016.016-.024.041l.041.057c-.057.008-.081.016-.081.033a.351.351,0,0,1,.033.114.122.122,0,0,1-.033.089L50.353.1c-.016,0-.024.008-.033.033a.256.256,0,0,0,.057.089.326.326,0,0,1-.065.13V.43a6.68,6.68,0,0,0-.244.715l-.146.228.033.065a.4.4,0,0,1-.033.106l.008.073a.208.208,0,0,1-.057.1l.008.065C49.873,1.861,49.832,1.9,49.775,1.9ZM50.93-1.335c-.041,0-.065-.008-.073-.041s.033-.081.114-.171l.1.041a.182.182,0,0,1-.008.081l-.049-.008C50.979-1.432,50.946-1.4,50.93-1.335Zm-.911.073a.085.085,0,0,1,.041-.073v.008C50.06-1.3,50.044-1.286,50.019-1.261Zm-.179.049c-.008,0-.008,0-.008-.008a.061.061,0,0,1,.057-.033A.083.083,0,0,1,49.84-1.213Zm1.008.26c0-.008-.008-.008-.016-.016L50.857-1c.008,0,.016.016.024.033Zm-1.065.024c-.008,0-.008,0-.008-.008a.207.207,0,0,0,.016-.057h.016ZM47.32-.944c-.008,0-.016-.008-.016-.033C47.32-.977,47.32-.961,47.32-.944Zm2.366.317h-.008l.171-.309a.017.017,0,0,1,.016.016l.016-.008A.771.771,0,0,1,49.686-.627Zm-2.5-.138h-.033c.008-.024.024-.041.041-.041Zm2.342.13h-.041a.07.07,0,0,0-.024-.049V-.7a.146.146,0,0,0,.065-.033Zm-.065.187-.024-.033V-.489c.033,0,.049.016.049.033Zm.626.122h-.008a.172.172,0,0,1,.081-.163l.008.016c0,.024-.008.041-.024.041C50.149-.359,50.133-.326,50.092-.326ZM46.23-.343H46.19V-.351l.024-.008.016.008ZM49.1.088a.9.9,0,0,0,.252-.276L49.344-.2,49.271-.2c-.016-.049-.033-.073-.041-.073l-.016.008c-.024-.057-.041-.081-.049-.081a.782.782,0,0,0-.2.276l.057.008a.149.149,0,0,0,.049-.065c.008,0,.024.024.057.073a.2.2,0,0,0-.049.106C49.084.08,49.084.088,49.1.088Zm1.951,1.569c0-.016.008-.033.033-.057V1.584h-.008a.115.115,0,0,1-.089.033l.024-.065c.114-.089.276-.228.48-.415q.11-.146.146-.146H51.7L51.678.942c0-.016.016-.033.049-.057a1.149,1.149,0,0,0,.35-.366L52.052.511a.245.245,0,0,0-.089.057c.041-.065.073-.1.089-.1.089,0,.138-.008.138-.033a1.5,1.5,0,0,1,.268-.2V.227h-.033a1.757,1.757,0,0,0,.26-.26l.033.008.146-.1-.008-.024a.337.337,0,0,0-.1.057h-.016a.706.706,0,0,1,.138-.13q0-.049.22-.1c-.024.041-.114.154-.26.341-.7.724-1.057,1.081-1.081,1.081-.171.187-.285.285-.341.285A1.837,1.837,0,0,1,51.052,1.657ZM49.206-.1h-.033L49.1-.147l.057-.106a.154.154,0,0,1,.057.114Zm3.74-.089a.056.056,0,0,1,.024-.033V-.245l-.024.016L52.93-.237c-.008.008-.008.016-.008.033S52.938-.188,52.946-.188Zm-6.781.033L46.125-.18c.008-.024.016-.033.024-.033l.033.024A.032.032,0,0,0,46.165-.156Zm3.179.5a.088.088,0,0,1-.033-.041c.049-.163.1-.244.13-.244A2.185,2.185,0,0,1,49.344.348Zm-.39-.122.033-.008V.2a.137.137,0,0,1-.041-.016A.061.061,0,0,0,48.954.227Zm-.041.122.041-.073a.008.008,0,0,1-.008-.008l-.057.024C48.889.324,48.905.348,48.914.348ZM46.109.324c.008,0,.016-.008.016-.024S46.117.283,46.1.283Zm-.13.138h-.065L45.905.438a.086.086,0,0,1,.1-.1A.36.36,0,0,1,45.978.462ZM48.857.43c-.008-.008-.008-.024-.008-.049-.016,0-.024.008-.033.041,0,.008.008.008.024.008Zm-.114.114L48.783.47,48.767.462l-.1.008Q48.718.544,48.743.544Zm-2.87.13A.208.208,0,0,1,45.93.519C45.913.625,45.889.674,45.873.674Zm5.805.179H51.67L51.7.8a.782.782,0,0,0,.179-.154l-.008.024C51.8.788,51.735.853,51.678.853Zm-.1-.089c.049-.041.065-.057.065-.073s0-.016-.016-.016S51.6.7,51.58.739ZM45.759.82c0-.065.016-.089.049-.089l.065.016C45.873.771,45.84.8,45.759.82ZM49.727.8a.116.116,0,0,1-.049-.016l.016-.024.041.008ZM48.336.9,48.231.869C48.263.8,48.3.763,48.32.763s.049.016.049.065A.132.132,0,0,1,48.336.9Zm.781.016.016-.073c.008,0,.024.016.033.049Q49.166.918,49.117.918Zm-.935.114h-.057V.983c0-.008.016-.016.049-.016Zm3.106.049h-.049c0-.008.008-.016.024-.016S51.288,1.072,51.288,1.08Zm-2.211.057-.008-.024c.008-.016.016-.024.016-.041H49.1C49.092,1.113,49.084,1.137,49.076,1.137Zm.447.2-.033-.008c0-.008,0-.016.016-.016S49.523,1.324,49.523,1.34Zm.065.293c-.041,0-.057-.008-.057-.016s0-.024.016-.024A.038.038,0,0,1,49.588,1.633Zm6.655.992a1.883,1.883,0,0,0,.244-.024,2.469,2.469,0,0,0,1.138-.594,1.9,1.9,0,0,0,.447-.431h.016v.033H58.1a.149.149,0,0,0,.049-.065l-.073.024a1.411,1.411,0,0,1-.382.268l-.024-.065a.084.084,0,0,0,.008-.033c.138-.114.374-.341.715-.683A3.928,3.928,0,0,0,59.072.17a2.362,2.362,0,0,0,.382-.878l-.016-.1h-.024a4.029,4.029,0,0,1-.3.585l.024.049.041-.008v.008c-.033.057-.057.089-.065.089,0-.016,0-.024-.016-.024a.99.99,0,0,1-.138.13.822.822,0,0,1-.179.39V.43H58.8a.217.217,0,0,1-.089.106A.127.127,0,0,1,58.6.625L58.69.4,58.682.389a.154.154,0,0,0-.138.1,1.057,1.057,0,0,1-.431.472,4.478,4.478,0,0,1-.577.528,2.126,2.126,0,0,1-1.187.594c-.317-.033-.48-.252-.48-.675A6.047,6.047,0,0,1,56.08.056a2.1,2.1,0,0,1,.447-.911A33.981,33.981,0,0,0,58.82-5.164,15.719,15.719,0,0,0,60.4-10.229a.319.319,0,0,0-.024-.114l-.22-.081c-.163-.179-.285-.26-.366-.26h-.057a1.046,1.046,0,0,0-.659.317,3.492,3.492,0,0,0-.707,1.1c-.594,1.431-1.008,2.464-1.22,3.09q-.927,2.6-.927,2.781v.138l-.041-.008a1.868,1.868,0,0,1-.163.594.584.584,0,0,1-.106.341.963.963,0,0,1-.2.4.13.13,0,0,0,.033.1l-.008.024c-.049.033-.065.179-.065.439-.065.2-.114.4-.171.61a.986.986,0,0,1-.13.154l.065.024a.1.1,0,0,1-.033.073.406.406,0,0,0-.154.211,11.268,11.268,0,0,0-.22,1.634,4.17,4.17,0,0,0,.041.455.807.807,0,0,0,.163.439A1.282,1.282,0,0,0,56.243,2.625Zm1.2-5.447c.016-.049.423-.886,1.22-2.52a2.017,2.017,0,0,1,.171-.463,2.843,2.843,0,0,1,.228-.512,2.333,2.333,0,0,1,.211-.48,5.518,5.518,0,0,1,.228-.764,1.86,1.86,0,0,0,.171-.545,10.578,10.578,0,0,0,.309-1.024c.089-.667.163-1,.211-1a.548.548,0,0,1,.024.138,3.206,3.206,0,0,1-.024.325c-.106.545-.154.837-.154.87a.489.489,0,0,1-.114.317,1.632,1.632,0,0,1-.13.48,4.407,4.407,0,0,1-.268.764,15.084,15.084,0,0,1-.813,2c-.13.382-.244.594-.325.634a.061.061,0,0,0,.008.041l-.081.244a.376.376,0,0,1-.146.171,2.2,2.2,0,0,1-.341.707A1.847,1.847,0,0,1,57.438-2.822ZM56.967-2.9a1.213,1.213,0,0,1,.049-.211Q57.7-5.168,58.5-7.2a11.617,11.617,0,0,1,1.114-2.374,3.021,3.021,0,0,1-.114.52,2.934,2.934,0,0,0-.122.626,1.3,1.3,0,0,0-.154.545,2.01,2.01,0,0,1-.276.618,1.14,1.14,0,0,1-.114.423.564.564,0,0,1-.114.325c-.073.22-.122.333-.154.341-.089.26-.187.5-.285.724-.2.382-.35.7-.455.935a1.865,1.865,0,0,1-.3.594l-.276.594A1.548,1.548,0,0,1,56.967-2.9ZM59.04-9.213h-.008v-.041c0-.008.016-.024.057-.049v.049C59.089-9.245,59.072-9.237,59.04-9.213Zm-.22.35-.041-.008a2.023,2.023,0,0,1,.2-.285l.008.041q0,.049-.073.1A.471.471,0,0,1,58.82-8.863Zm-.228.48h-.016a.509.509,0,0,1,.187-.439h.008A1.67,1.67,0,0,1,58.593-8.384Zm1.187-.382h-.008V-8.8h.008ZM55.414-.034a1.2,1.2,0,0,1,.041-.276q.122-.5.512-1.951c.366-1.122.626-1.878.781-2.252A4.09,4.09,0,0,1,57-5.229c.073-.236.2-.594.374-1.057a9.134,9.134,0,0,1,.642-1.447,1.182,1.182,0,0,1-.073.252c-.455,1.2-.732,1.9-.8,2.138a7.942,7.942,0,0,0-.5,1.488c.008,0,.033-.024.073-.065a2.11,2.11,0,0,0,.22-.642l-.008-.016.089-.171c.049-.154.106-.228.179-.228,0,.008-.049.2-.163.594a.008.008,0,0,1,.008.008.294.294,0,0,0,.073-.073,1,1,0,0,1,.1-.325.829.829,0,0,1,.057-.26c0-.016,0-.024-.016-.024L57.186-5l-.008-.057.008-.122a3.158,3.158,0,0,1,.22-.545c.016,0,.024.033.033.1a1.409,1.409,0,0,1-.081.317v.016c.024,0,.057-.041.106-.122a2.614,2.614,0,0,1,.106-.39.516.516,0,0,0-.1-.057.216.216,0,0,1,.065-.179.117.117,0,0,1,.049.057l-.073.073v.024q.037.049.049.049a.888.888,0,0,0,.171-.415.008.008,0,0,1-.008-.008.251.251,0,0,0-.065.016l.008.033a.066.066,0,0,1-.065.033.173.173,0,0,1,.106-.179c.008,0,.008,0,.008.008a.022.022,0,0,0-.024.024c.008.016.016.024.033.024s.024-.016.024-.049l-.008-.024c.049,0,.065-.057.065-.163,0-.008-.024-.024-.081-.049.008-.024.016-.041.024-.041.065-.179.106-.3.138-.366h.008l.024.154.033-.008a.673.673,0,0,0,.146-.341l-.041.008c-.016,0-.016-.016-.016-.065a.416.416,0,0,1,.171-.341.245.245,0,0,0-.033-.106.875.875,0,0,0,.138-.114l-.065.276h.016a8.719,8.719,0,0,1,.512-1.057,17.2,17.2,0,0,1-.634,1.675,2.592,2.592,0,0,1-.187.553c-.114.35-.2.585-.244.715a3.779,3.779,0,0,0-.276.829,7.358,7.358,0,0,0-.285.707,5.972,5.972,0,0,1-.293.837A5,5,0,0,1,56.1-1.424c.081-.325.122-.5.122-.52-.016,0-.041.024-.065.065a2.168,2.168,0,0,1-.138.439h-.008v-.016H56c-.057.1-.1.146-.114.146v-.016h-.008a.392.392,0,0,0-.065.1c.008,0,.008,0,.008.008l.041-.008.008.057a.141.141,0,0,1-.041.041c-.049,0-.106.1-.163.3a.352.352,0,0,1,.008.041.17.17,0,0,1,.057.138h-.008c-.008-.016-.024-.041-.049-.081h-.008C55.536-.261,55.454-.034,55.414-.034Zm2.927-7.838a.088.088,0,0,1-.033-.041.278.278,0,0,0,.073-.138c.065-.163.122-.244.171-.26a.567.567,0,0,1-.065.163A.637.637,0,0,1,58.341-7.871Zm-.114-.35v-.016a.044.044,0,0,1,.033-.024l.008.024Zm-.171.431h-.008a.634.634,0,0,1,.114-.3l.016.008A1.174,1.174,0,0,1,58.056-7.79Zm.2.008c-.016,0-.016-.008-.024-.016v-.008a.352.352,0,0,0,.041.008A.017.017,0,0,1,58.251-7.782Zm-.293.772H57.95a.054.054,0,0,1-.033-.057.2.2,0,0,1,.041-.089.1.1,0,0,1,.033.089A.1.1,0,0,0,57.959-7.01Zm-.041.341.008-.049h-.008a.044.044,0,0,0-.024.033C57.894-6.676,57.9-6.668,57.918-6.668Zm-.089.081.024-.016c0-.024-.008-.041-.024-.041s-.024.016-.024.033S57.82-6.587,57.828-6.587Zm.951.138h-.016v-.024h.016Zm-.089.2h-.008v-.033h.008Zm-1.716,2c.024-.016.041-.033.041-.049l-.008-.016c-.024.024-.041.041-.041.049Zm.26.073v-.041h.008l.008.024C57.251-4.18,57.251-4.172,57.235-4.172Zm-.293.065.049-.041a.072.072,0,0,0-.041-.065l-.049.041A.072.072,0,0,0,56.942-4.107Zm-.122.3c.057,0,.089-.081.106-.252a.017.017,0,0,0-.016-.016H56.9c-.024,0-.057.089-.089.26A.008.008,0,0,1,56.82-3.806Zm.358-.154v-.033c.008,0,.008,0,.008.016S57.186-3.961,57.178-3.961Zm-.439.089c.016,0,.024-.008.033-.033h-.008c-.016.008-.033.024-.033.033Zm.382.041v-.041h.008l.008.033Zm-.594.285a.586.586,0,0,0,.106-.293h-.008c-.041,0-.081.1-.114.285Zm-.285,1.407c.033,0,.081-.1.154-.3l-.008-.016a.03.03,0,0,1,.008-.024,1.581,1.581,0,0,0,.13-.366,8.4,8.4,0,0,0,.268-.846h-.008c-.016,0-.057.073-.114.22a4.78,4.78,0,0,1-.26.715.246.246,0,0,0-.081.073c0,.041.016.057.049.057a.7.7,0,0,1-.065.228.269.269,0,0,0-.122-.033.4.4,0,0,0-.081.163c0,.016.016.033.057.041l.065-.008v.1Zm.26-1.276c0-.016.008-.024.024-.041,0-.016-.008-.016-.024-.016s-.016.016-.016.057Zm.106.049L56.6-3.416h-.008l-.049.033C56.544-3.367,56.56-3.367,56.609-3.367Zm-.2.22.033-.106H56.43c-.024.024-.041.033-.041.041v.065Zm.081.041.049-.033a.045.045,0,0,0-.033-.049c-.024.016-.033.024-.033.041S56.479-3.123,56.487-3.107Zm-.2.374a.748.748,0,0,0,.057-.236c-.016-.041-.033-.057-.057-.057a2.086,2.086,0,0,0-.057.276C56.235-2.741,56.259-2.733,56.292-2.733Zm.122-.138c.024-.016.041-.033.041-.049s-.016-.024-.016-.033h-.016c-.008,0-.024.008-.033.033A.07.07,0,0,0,56.414-2.871Zm.48.122.033-.081h.008v.049C56.934-2.765,56.918-2.757,56.893-2.749Zm-.5.081v-.041h.008l.008.033Zm-.2.187a.225.225,0,0,0,.041-.13c.008,0,.024.033.041.106a.121.121,0,0,0,.049-.057c-.049-.089-.073-.13-.081-.13l-.016.008c0-.008,0-.008-.008-.008s-.033.057-.057.154l.016.057Zm1.089-.073a.134.134,0,0,1,.065-.122A.127.127,0,0,1,57.292-2.554Zm-1.008.2h-.008v-.033h.016Zm-.008.057h-.033V-2.31h.049C56.292-2.294,56.292-2.294,56.276-2.294Zm-.179.252c.057,0,.089-.049.089-.13,0-.008-.016-.016-.041-.024-.057,0-.081.033-.081.106Zm-.1.106c.008,0,.033-.057.057-.179H56.04c-.041.033-.065.057-.065.1A.265.265,0,0,0,56-1.936Zm-.114.5L55.9-1.44l-.008-.106.033-.2c-.033,0-.065.106-.1.309l.016.008Zm-.561,1.26q-.012,0-.024-.049h.024Zm.463.033c-.008-.008-.016-.008-.041-.008A.5.5,0,0,1,55.788-.2Zm-.138.024h-.016V-.156h.008Zm.106.423A.452.452,0,0,1,55.65.218a1.136,1.136,0,0,1,.114-.276q.037.012.049.073c0,.065-.008.13-.008.2A.194.194,0,0,1,55.755.308Zm-.236-.13h-.049a1.1,1.1,0,0,1,.081-.228A.2.2,0,0,1,55.609.1C55.609.137,55.576.17,55.519.178ZM55.381.161a.017.017,0,0,1-.016-.016V.1c.008-.041.024-.065.033-.065l.008.049A.34.34,0,0,1,55.381.161ZM55.5.348c0-.041.024-.057.065-.057A.058.058,0,0,1,55.5.348Zm-.2.252c-.016-.008-.033-.024-.033-.033l.033-.049a.281.281,0,0,0-.024-.1.13.13,0,0,1,.024-.065c.041.024.057.049.057.073A.443.443,0,0,1,55.308.6Zm.309,1.081h-.008c-.033-.179-.049-.268-.049-.276-.024-.187-.033-.285-.049-.285a.088.088,0,0,0-.057.024H55.43A.738.738,0,0,0,55.5.958q.049,0,.122-.415L55.617.487c0-.073.049-.106.138-.106.016,0,.016.033.016.106L55.69,1.1a.5.5,0,0,1-.089.024v.016l.065.13ZM55.528.462c0-.016-.008-.024-.016-.024l.016-.049c.008,0,.016.016.033.049Zm.122.1a.017.017,0,0,0,.016-.016c0-.016-.008-.016-.016-.024h-.008V.544ZM55.471.9h-.008c0-.041-.024-.073-.073-.114a.112.112,0,0,0,.073-.041c.008-.122.024-.187.065-.187A.942.942,0,0,1,55.471.9Zm2.651.309-.033-.016A2.6,2.6,0,0,1,58.3.95c.13-.187.22-.285.285-.3a.334.334,0,0,1-.057.1A5.64,5.64,0,0,0,58.121,1.21ZM55.276,1h-.033l.024-.341.049.13Zm-.065.114V1.072h.008c0,.016,0,.024.008.033Zm.211.138h-.033l.008-.016c.008,0,.016.008.024.008ZM66.443-3.562l-.024.008c-.138.073-.2.146-.2.2a1.6,1.6,0,0,0-.13.171c-.016.13-.024.2-.041.2a1.4,1.4,0,0,1-.13.382v.033l.008.016c-.008,0-.016.024-.024.089-.057.033-.081.065-.081.073a.121.121,0,0,0,.016.073l-.065.089V-2.2l.008.016c.033-.008.057-.016.057-.041h.008V-2.2a1.213,1.213,0,0,1-.2.415c-.024.089-.049.13-.073.13a1.307,1.307,0,0,1-.154.252c-.041.13-.073.187-.089.2a.792.792,0,0,0-.081.122.312.312,0,0,1-.065.138,1.949,1.949,0,0,1-.211.317.733.733,0,0,1-.163.252.978.978,0,0,1-.179.285c-.065.106-.122.163-.146.163a.131.131,0,0,1,.033-.081V-.058a.153.153,0,0,1-.073.033.5.5,0,0,0-.106.146.126.126,0,0,0,.024.049A.234.234,0,0,0,64.459.1h.008V.113a.8.8,0,0,1-.106.154h-.016V.21a.017.017,0,0,0-.016-.016h-.008L64.3.21V.194h-.008c-.057.081-.114.154-.171.228a3.754,3.754,0,0,1-.715.829c-.358.415-.618.618-.8.618H62.6a.138.138,0,0,1-.057-.008c-.122-.057-.179-.228-.179-.52V1.267A7.542,7.542,0,0,1,62.5.072a9.381,9.381,0,0,1,.382-1.358A12.2,12.2,0,0,1,63.4-2.66a1.757,1.757,0,0,0,.179-.512V-3.18a.3.3,0,0,0-.016-.106.449.449,0,0,0-.4-.268.9.9,0,0,0-.5.138c-.033,0-.106.138-.211.415l-.268.634c-.065.26-.122.5-.187.724a9.323,9.323,0,0,0-.618,2.667V1.1c0,.065,0,.1.008.1a1.385,1.385,0,0,0,.439.854,1.415,1.415,0,0,0,.927.4h.024a.713.713,0,0,0,.39-.171,1,1,0,0,0,.358-.228,6.019,6.019,0,0,0,.781-.87V1.162a1.762,1.762,0,0,0-.236.236,1.575,1.575,0,0,0-.26.244c0,.057-.089.089-.26.1V1.731a1.662,1.662,0,0,0,.26-.2,5.947,5.947,0,0,0,.65-.683A13.36,13.36,0,0,0,65.4-.521h.008v.008a1.334,1.334,0,0,0-.081.528,1.4,1.4,0,0,0,.13.618,1.145,1.145,0,0,0,1.122.65h.008A2.336,2.336,0,0,0,67.825.9C67.947.8,68,.731,68,.706A1.482,1.482,0,0,0,68.378.3c0-.008,0-.016-.016-.016a.366.366,0,0,0-.073-.138C68.3.1,68.3.088,68.3.08a.017.017,0,0,0-.016-.016A.146.146,0,0,0,68.215.1a.726.726,0,0,1-.2.211L68,.3,68,.267c.081-.065.122-.122.122-.163V.088h-.016a.152.152,0,0,0-.081.041,2.657,2.657,0,0,1-.439.358c-.016.033-.049.041-.106.041q0,.037-.146.1c-.146.016-.22.041-.22.057l.024.041c0,.008-.033.033-.106.073a1.222,1.222,0,0,1-.382-.057.614.614,0,0,1-.4-.634V.015a1.322,1.322,0,0,1,.1-.472.225.225,0,0,1-.008-.065,4.928,4.928,0,0,0,.146-.585c.2-.6.293-.911.293-.919a2.9,2.9,0,0,0,.171-.618v-.008l-.041-.333v-.081a.252.252,0,0,1,.041-.089c0-.008,0-.016-.016-.033l-.024.016H66.9c-.081-.114-.138-.179-.171-.179-.033.033-.049.049-.057.049s-.016-.016-.033-.057l.016-.024c-.024-.081-.041-.122-.065-.122h-.008c-.049.008-.081.016-.089.016h-.008A.159.159,0,0,0,66.443-3.562Zm.22.431c0-.008.016-.024.057-.041l.016.008c0,.008-.024.024-.065.033Zm-.089.675h.033c.008,0,.016,0,.016.008v.033l-.008.049a.263.263,0,0,1-.081.179v.041l.041.041-.073.049c0,.008.008.016.008.033-.016.057-.033.081-.049.081a1.064,1.064,0,0,1-.073.228,1.505,1.505,0,0,0-.089.309v.016l.008.016a.063.063,0,0,0,.024-.008h.008v.041a.71.71,0,0,1-.041.106c-.016,0-.016-.016-.016-.041h-.024a.622.622,0,0,1-.041.13.371.371,0,0,1-.041.122v.016c0,.016.008.016.016.016l.024-.016c.008-.089.024-.13.057-.13a.063.063,0,0,0,.008.024c-.008.024-.016.041-.024.041-.016.089-.081.35-.2.772L66.02-.334a.4.4,0,0,0,.024-.122l-.016-.024H66.02A2.56,2.56,0,0,0,65.93-.1c0,.008,0,.016.016.016s.041-.057.057-.154V-.261h.016V-.2a.369.369,0,0,1-.033.146.062.062,0,0,1-.041-.016h-.008l-.033.016a.465.465,0,0,1-.081.276c.016.114.033.187.033.2A.355.355,0,0,1,65.8.6L65.784.592a.437.437,0,0,0-.073-.211A.053.053,0,0,0,65.67.4a1.106,1.106,0,0,0,.008.13c-.049,0-.073-.049-.073-.138a.559.559,0,0,0,.024-.2.423.423,0,0,0-.024-.041.351.351,0,0,0,.033-.114c0-.033-.008-.057-.024-.057a1.22,1.22,0,0,0-.073.374l.008.041-.016.049h-.008c0-.008,0-.016-.016-.033a.664.664,0,0,0,.008-.114A.5.5,0,0,0,65.5.145a.708.708,0,0,0,.016-.163.193.193,0,0,0-.024-.122V-.147a.151.151,0,0,0,.057-.016.457.457,0,0,1,.057-.187l-.024-.033-.016.008c-.008.057-.016.089-.033.089H65.5a.229.229,0,0,0-.008-.065.218.218,0,0,1,.065-.13h.008c0,.016.008.024.016.024a.146.146,0,0,0,.057-.122,2.1,2.1,0,0,0,.081-.268,1.3,1.3,0,0,0,.1-.252l.106-.138v.008l-.041.211v.008c0,.016,0,.016.016.016h.008L65.922-1l-.008-.033c0-.016,0-.016.016-.016h.008l.041.008q.073-.024.073-.073a.529.529,0,0,0,.073-.211A.635.635,0,0,0,66.2-1.5l-.008-.008a1.019,1.019,0,0,0,.073-.22.679.679,0,0,0,.081-.252c0-.024.033-.057.1-.114V-2.1c0-.016,0-.024-.008-.033Zm-.341.089.016.008c-.016.081-.033.122-.041.122a.411.411,0,0,1-.041.154.063.063,0,0,1-.033-.033c.016,0,.033-.049.049-.138A.306.306,0,0,0,66.231-2.367Zm-3.439.22a.017.017,0,0,1,.016.016h-.016Zm2.894.049q-.024.012-.024.024v.008q.012.024.024.024H65.7q.024-.012.024-.024C65.727-2.083,65.711-2.091,65.686-2.1Zm.22.724.065-.244c.049-.041.065-.122.065-.252.041-.122.073-.187.1-.187v.024l-.016.057v.057a.158.158,0,0,1-.008.065c-.049.122-.081.22-.114.309-.008.073-.024.106-.041.106V-1.4c0,.057-.016.081-.024.081h-.016l-.008-.041Zm-.35-.512a.1.1,0,0,1-.049.081V-1.8c.016.024.024.033.033.033a.135.135,0,0,0,.041-.106v-.016Zm-2.886.016.016.008c-.016.057-.041.089-.057.089A.135.135,0,0,1,62.67-1.871Zm2.829.154h-.016c-.016.049-.041.106-.065.163,0,.008.008.016.008.024h.024l.008-.049c.041-.041.065-.073.065-.1v-.016Q65.512-1.717,65.5-1.717Zm.927.033h.008v.016h-.008ZM63.451,1.7V1.69c.065-.073.138-.154.211-.252a2.124,2.124,0,0,1,.252-.358A.674.674,0,0,1,64.044.9a1.574,1.574,0,0,1,.244-.309A.545.545,0,0,1,64.5.259a4.357,4.357,0,0,1,.35-.528c.089-.171.138-.26.138-.26a2.154,2.154,0,0,1,.171-.276c.073-.154.122-.236.146-.236.065-.138.13-.244.171-.317a1.46,1.46,0,0,1,.211-.317,5.747,5.747,0,0,1-.122.61,3.256,3.256,0,0,0-.35.545A4.486,4.486,0,0,1,64.589.535,5.524,5.524,0,0,1,63.459,1.7ZM62.564-1.66h.008a.262.262,0,0,0,.008.065c-.057.187-.089.285-.106.285-.016.1-.033.146-.041.146V-1.18H62.41v.033a.03.03,0,0,1,.024.008.143.143,0,0,0-.008.049.9.9,0,0,0-.073.187,1.572,1.572,0,0,0-.114.374,1.273,1.273,0,0,0-.122.423,1.144,1.144,0,0,0-.089.382,1.39,1.39,0,0,0-.065.35h-.016a.3.3,0,0,1,.016-.13c-.008-.008-.008-.016-.008-.033V.332l.024-.081V.194a.225.225,0,0,1,.008-.073.807.807,0,0,0,.065-.22l.057-.268A.25.25,0,0,1,62.19-.53V-.554A.9.9,0,0,1,62.207-.7a.478.478,0,0,0,.081-.2V-.952a.131.131,0,0,0,.041-.089c.049-.171.089-.26.114-.26A.746.746,0,0,1,62.564-1.66Zm2.789.228c-.024.016-.033.024-.033.033v.008q.012.024.024.024h.016c.008,0,.016,0,.016-.016v-.033c0-.008-.008-.008-.016-.016ZM66-1.017h-.041c-.033.1-.049.138-.057.138,0-.041-.008-.065-.016-.065h-.016c-.016,0-.024.024-.033.065a.03.03,0,0,0,.024.008c.008,0,.024.024.057.081-.024.073-.041.114-.057.114h-.008L65.817-.7c.016-.065.033-.106.033-.122V-.847h-.016a.534.534,0,0,0-.065.2l.016.024L65.8-.635h.041q.024.012.024.024V-.6a.14.14,0,0,0-.016.065v.016h.024A1.54,1.54,0,0,0,66-1.009Zm-.959.106c-.008,0-.008.008-.016.016l.008.016L65.052-.9C65.052-.9,65.052-.912,65.036-.912ZM66.15-.9c-.016,0-.033.033-.041.089.008,0,.008,0,.008.008.024-.008.041-.024.041-.033V-.879Zm3.016.024L69-.7q-.049.146-.1.146v.016c.008.041.024.057.033.057h.008c.016,0,.033-.016.041-.057a2.127,2.127,0,0,0,.2-.309C69.183-.863,69.174-.871,69.166-.871Zm-4.2.065v.024h.016V-.806Zm.642.089.016.008-.008.041h-.016A.03.03,0,0,0,65.6-.692Zm-.683,0L64.906-.7a.389.389,0,0,1-.081.138V-.53c.024,0,.065-.049.114-.163V-.717Zm.862.106h-.024a.61.61,0,0,0-.057.163v.057h.008A.266.266,0,0,0,65.792-.6Zm.268.041c-.008,0-.016.016-.033.041l.016.008a.1.1,0,0,0,.024-.016V-.57ZM61.987-.5H62L62-.456l-.073.228h-.024V-.237A.612.612,0,0,1,61.987-.5Zm6.887,0h-.016a1.3,1.3,0,0,1-.268.3l-.073.041v.041h-.049a.076.076,0,0,0-.065.049.017.017,0,0,0,.016.016h.041c.008.057.016.081.024.081h.041a.352.352,0,0,1,.114-.163.1.1,0,0,1,.106-.081c.033,0,.057-.033.081-.106L68.914-.4A.2.2,0,0,0,68.874-.5Zm-3.041.024a.017.017,0,0,0-.016.016V-.44l.016.024V-.4c-.049.008-.073.065-.073.163q0,.012-.049.024l-.033-.024H65.67a.072.072,0,0,0-.041.065.017.017,0,0,0,.016.016h.016l.024-.016c.024,0,.065.024.106.089H65.8q.024-.012.024-.024V-.139c0-.024-.008-.049-.008-.073,0-.008.008-.024.008-.033a.137.137,0,0,0-.016-.041c.024,0,.041-.057.041-.171C65.849-.465,65.841-.465,65.833-.473Zm-1.057.008a.175.175,0,0,0-.073.106.683.683,0,0,0-.146.22l.008.016a1.1,1.1,0,0,0,.228-.309V-.448C64.792-.456,64.784-.456,64.776-.465Zm3.846.024-.016.008.008.016.016-.008Zm-.049.065v.008l.008.016A.017.017,0,0,0,68.6-.367V-.375Zm-2.854.049c-.024.008-.041.016-.041.024a.017.017,0,0,0,.016.016h.033V-.31Zm-3.846.179c0-.033.008-.049.033-.057h.008v.033a.112.112,0,0,1-.041.073Zm3.756.008v.008l.008.016.016-.008a.017.017,0,0,0-.016-.016Zm.309.179a.063.063,0,0,1,.024-.057V.015l-.008.041C65.939.056,65.939.056,65.939.04Zm2.4-.065c-.008,0-.016.016-.024.033a.03.03,0,0,0,.008.024c.024-.016.033-.033.033-.041s0-.008-.008-.016Zm-2.6.016q-.024.012-.024.024V.072a1.251,1.251,0,0,0-.024.13c0,.008.008.016.016.033A.184.184,0,0,0,65.768.08V.015q-.012-.024-.024-.024ZM65.1.007l-.016.008a.55.55,0,0,1-.1.154A.1.1,0,0,0,65,.194h.008a.593.593,0,0,1,.1-.154V.023Zm3.317.057c-.008,0-.008.008-.016.016V.088c0,.016.008.016.016.016s.016,0,.016-.016V.08C68.435.072,68.435.064,68.418.064Zm-.276.2c.049-.057.081-.089.106-.089.016.024.033.041.033.049s-.016.008-.016.033c0,.008.016.016.065.033V.316c0,.008-.033.033-.081.089h-.065c0-.016,0-.024.008-.033.033-.024.057-.041.057-.041V.283L68.239.267l-.081.024a.017.017,0,0,1-.016-.016ZM65.727.251c-.016,0-.033.024-.041.073V.332A.017.017,0,0,0,65.7.348h.008c.008,0,.016-.033.024-.089C65.727.259,65.727.259,65.727.251Zm-3.96.016h.016L61.8.324a.66.66,0,0,1-.041.114h-.008V.43C61.751.4,61.759.34,61.768.267Zm2.439.187V.438a.477.477,0,0,1,.114-.154h.008A.272.272,0,0,1,64.207.454ZM67.9.365h.024c0,.008-.008.016-.008.024H67.9ZM61.743.479q.024.012.024.024c0,.033-.008.049-.033.057A.251.251,0,0,0,61.743.479Zm2.4.008h.033a.194.194,0,0,1-.065.13H64.1V.592A.116.116,0,0,0,64.142.487Zm.634.008c-.008,0-.016.016-.033.049,0,.016.008.016.016.016.024-.008.033-.024.033-.033V.511C64.792.5,64.784.5,64.776.495ZM61.727.576h.008l.016.081a.514.514,0,0,1-.033.106h-.008L61.7.722V.7A.4.4,0,0,1,61.727.576Zm3.96.041a.03.03,0,0,0,.024-.008c0,.016,0,.024.008.033-.008,0-.008.008-.008.024h-.016L65.686.625ZM64.695.609V.625h.016V.609ZM66,.625c.016,0,.024.024.024.081a.413.413,0,0,1,.073.2c-.049,0-.081-.081-.1-.26ZM64.036.682a.055.055,0,0,1,.033-.049h.008V.657c0,.008-.008.016-.041.033ZM67.329.82c.008-.033.073-.065.187-.1A.447.447,0,0,1,67.67.666h.008V.69c-.008,0-.033.008-.065.016a1.163,1.163,0,0,1-.252.13.061.061,0,0,0-.033-.008ZM65.719.69c.024,0,.065.033.122.106V.828q-.012.024-.024.024h-.024Q65.768.84,65.719.706Zm-1.13.073-.024.016A.017.017,0,0,0,64.581.8h.008c.016,0,.016-.008.016-.016S64.605.763,64.589.763ZM67.7.788h.024V.8H67.7ZM67.638.82h.016V.828h-.016ZM64.5.909a.4.4,0,0,0-.13.154c.049,0,.089-.049.138-.154ZM61.686.95c0-.008.008-.008.016-.016h.008V.95ZM66.126.942h.016a.062.062,0,0,0,.016.033V.983L66.126.975ZM65.963.95q.024.012.024.024a.036.036,0,0,1-.024.008h-.008V.966Zm9.159-4.667h-.049a3.16,3.16,0,0,0-1.821.789,11.156,11.156,0,0,0-1.073.992,5.785,5.785,0,0,0-.626.878c-.073.122-.211.431-.423.911a3.3,3.3,0,0,0-.146.74,1.568,1.568,0,0,0,.52,1.122,2.462,2.462,0,0,0,1.659.65H73.3a4.522,4.522,0,0,0,.6-.057,3.608,3.608,0,0,0,1.569-.8,2.132,2.132,0,0,1,.415-.358,1.84,1.84,0,0,0,.382-.366A.008.008,0,0,1,76.26.779c-.065.033-.2.122-.4.26a5,5,0,0,1-.707.5.844.844,0,0,1-.39.211.463.463,0,0,1,.13-.114,1.915,1.915,0,0,0,.407-.26,1.811,1.811,0,0,0,.325-.2c.154-.081.236-.138.236-.171.163-.146.309-.276.447-.382.073-.081.122-.13.138-.13h.008l-.163.252A.169.169,0,0,0,76.4.69a3.53,3.53,0,0,0,.5-.52,1.722,1.722,0,0,0,.35-.537.67.67,0,0,0,.114-.22V-.611a.116.116,0,0,0-.016-.049V-.684a.939.939,0,0,0,.138-.382.1.1,0,0,0-.008-.049c-.057,0-.13.089-.236.276-.081.138-.244.366-.472.683v.016l.016.024v.008A.64.64,0,0,1,76.6.1V.145h.049c.024,0,.033-.033.033-.089.024.016.033.024.033.033V.113c0,.041-.041.089-.138.146A.484.484,0,0,0,76.5.113H76.5a.681.681,0,0,0-.228.236c.008,0,.008,0,.008.008h.008c.13-.122.2-.187.228-.187a.648.648,0,0,0,.033.13.266.266,0,0,0-.122.187h-.106c0-.016-.016-.033-.049-.033H76.26L76.187.5c-.049,0-.065.024-.073.073,0,.016-.016.041-.065.073V.666c.024.024.033.041.033.049A1.441,1.441,0,0,1,75.943.8a.1.1,0,0,0-.065-.033H75.87a.721.721,0,0,0,.008.106l-.13.024V.95a1.72,1.72,0,0,0-.252.2,1.913,1.913,0,0,0-.431.211l.008-.041h-.065a1.077,1.077,0,0,1-.2.073v.049h-.049a.893.893,0,0,1-.228.106.53.53,0,0,0-.333.146h-.024a1.3,1.3,0,0,0-.415.122,1.224,1.224,0,0,1-.52.13,1.606,1.606,0,0,1-.545-.1A1.094,1.094,0,0,1,71.992.731V.706a2.466,2.466,0,0,1,.325-1.138h.008c0,.13.033.211.106.252a.321.321,0,0,0,.13.171,1.681,1.681,0,0,0,.585.163A3.7,3.7,0,0,0,75.1-.863c.854-.756,1.276-1.4,1.276-1.911a.69.69,0,0,0-.268-.528,1.751,1.751,0,0,1-.333-.228C75.715-3.652,75.5-3.717,75.122-3.717ZM72.74-1.107a5.6,5.6,0,0,1,.707-.789,6.921,6.921,0,0,1,1.081-.813,3.312,3.312,0,0,1,1.041-.415h.089q.146,0,.146.122c0,.13-.13.325-.382.561-.5.5-.992.959-1.48,1.39a5.936,5.936,0,0,1-.715.528.393.393,0,0,1-.276.106h-.008a.324.324,0,0,1-.26-.114c-.073-.154-.114-.236-.114-.236a.853.853,0,0,1,.179-.317A.03.03,0,0,0,72.74-1.107ZM75.91-3.091h.033c.016.1.024.163.024.179a.81.81,0,0,1-.244.48,6.582,6.582,0,0,1-1.016.911h-.016a.513.513,0,0,1,.122-.1,3.612,3.612,0,0,0,.732-.715q.39-.427.39-.561a1.062,1.062,0,0,0-.024-.187ZM72.829-1.8c0-.033.016-.049.041-.049v.033A.137.137,0,0,0,72.829-1.8ZM71.683-.229a.531.531,0,0,1,.1-.211,4.2,4.2,0,0,1,.61-.9,1.307,1.307,0,0,1,.35-.374h.016a.311.311,0,0,1-.073.122c-.488.626-.764.992-.821,1.089q-.11.293-.171.293h-.008Zm.8-.187A.137.137,0,0,1,72.52-.4c.1.089.163.13.2.13h.033a.206.206,0,0,0,.114-.057H72.9v.008a1.408,1.408,0,0,1-.244.122L72.618-.2l-.033.016a.362.362,0,0,1-.106-.187Zm-.561.024h.024l.008.041v.008h-.008q-.024-.012-.024-.024ZM71.455-.3h.008v.033h-.008Zm.13.252c0-.041.033-.081.114-.13a.41.41,0,0,1-.089.187h-.016l-.008-.041Zm.22-.106a.121.121,0,0,1,.057.008v.016c-.016.024-.033.041-.041.041,0-.024-.008-.033-.024-.033C71.8-.139,71.8-.147,71.8-.156Zm-.057.1h.065a.725.725,0,0,1-.073.244c-.033.016-.049.089-.049.236a4.657,4.657,0,0,0-.089.5V.975c.065.333.13.5.179.5q.024-.012.024-.024V1.438a.371.371,0,0,1-.065-.179V1.186l.016.008a1.97,1.97,0,0,1,.325.594V1.82a.03.03,0,0,0-.024.008c-.13,0-.276-.138-.455-.407A2,2,0,0,1,71.487.8,1.992,1.992,0,0,1,71.65.129.777.777,0,0,0,71.748-.058Zm-.512.317a.676.676,0,0,1,.065-.2c.016-.065.041-.106.073-.106l.008.041V.015a.561.561,0,0,1-.106.3C71.268.316,71.252.292,71.235.259Zm.26-.1c0-.008.016-.024.057-.041l.008.041c0,.024-.016.041-.033.065-.008,0-.016-.016-.033-.041Zm-.008.1H71.5c.024.008.033.024.033.057V.332L71.52.348c-.008,0-.024-.016-.049-.033ZM76.528.43c.106-.114.163-.171.179-.171V.3a.42.42,0,0,0-.146.146ZM71.2.438a.061.061,0,0,1,.041-.057c.033,0,.057.033.057.106a.25.25,0,0,1-.016.089q.012.3.024.415c0,.057.016.081.049.081a.72.72,0,0,0,.089.211c-.138,0-.228-.2-.252-.61,0-.065.008-.138.008-.22Zm4.96.13h.057c0,.016,0,.024.008.033h-.057A.049.049,0,0,0,76.162.568Zm-1.22.846a.1.1,0,0,1,.073-.041h.016c0,.008-.033.016-.081.041Zm-.5.276a.063.063,0,0,0,.024-.008h.008V1.69a.03.03,0,0,0-.024.008h-.008Zm-1.358.358.041.024-.008.016-.049-.008V2.072Zm.138.041c.041-.008.065-.016.073-.016h.008c.081.008.122.024.122.041,0,0-.024.008-.057.016a.369.369,0,0,1-.146-.033Zm.13.13a1.5,1.5,0,0,0,.333-.041l.073.049c0,.016-.024.024-.081.033a1.567,1.567,0,0,0-.2-.024h-.122Z" transform="translate(0.277 10.935)" fill="#fff" stroke="#fff" stroke-width="0.5"/>
</svg>
