<svg xmlns="http://www.w3.org/2000/svg" width="60.216" height="14.5" viewBox="0 0 60.216 14.5">
  <path id="パス_314" data-name="パス 314" d="M5.117-10.15a3.118,3.118,0,0,0-1.515.38c0-.172-.071-.261-.214-.261a.24.24,0,0,0-.107-.059c-.178.018-.261.036-.261.053a1.048,1.048,0,0,0-.113.374c-.042.2-.083.291-.125.291a10.037,10.037,0,0,0-1.052.862,4.085,4.085,0,0,1-.41.493.706.706,0,0,0-.113.279v.024c.024.107.059.16.089.16a4.913,4.913,0,0,1,.1.8,4.5,4.5,0,0,1-.053.505l.024.172a.931.931,0,0,1-.036.166,1.842,1.842,0,0,1-.071.434,1.055,1.055,0,0,0-.071.285.151.151,0,0,0,.012.042.313.313,0,0,0-.036.089v.065c0,.012.012.018.048.018a.519.519,0,0,0-.018.083c-.065.042-.1.077-.1.113v.036a.08.08,0,0,0,.012.048.678.678,0,0,1-.048.172,4.412,4.412,0,0,0-.267.636v.024H.8c.036-.036.232-.374.588-1h.006v.006c-.2.618-.357,1.087-.487,1.39-.125.048-.19.1-.19.166v.024A.227.227,0,0,0,.737-3.2v.006a.988.988,0,0,0-.16.4v.03c0,.071.048.107.137.107H.737a.016.016,0,0,0,.018-.018V-2.68a.387.387,0,0,0-.1-.1v-.018A.348.348,0,0,1,.82-3c.006.024.018.036.024.036C.88-3,.9-3.019.9-3.049a.214.214,0,0,1,.065.012H.969a3,3,0,0,1-.2.582.006.006,0,0,0,.006.006L.69-2.223A.188.188,0,0,0,.612-2.1a.7.7,0,0,0-.1.19V-1.9c0,.006.006.012.018.012a.788.788,0,0,1-.077.19c-.119.333-.208.505-.267.505H.178a.8.8,0,0,0,.077-.25H.25l-.018.006A.365.365,0,0,1,.149-1.3H.143l.018-.172L.143-1.486H.119l-.036.012c-.012.059-.024.089-.03.089-.006.113-.03.172-.059.172H-.018c0-.012-.018-.042-.059-.077.024-.048.036-.071.042-.071a6.771,6.771,0,0,1,.368-1.01A7.27,7.27,0,0,1,.814-3.7v-.006H.785c-.03.03-.048.053-.048.065l-.119.089v.024c0,.012.006.012.024.012,0,.012-.018.018-.053.024-.1.339-.244.79-.44,1.355H.143a.11.11,0,0,0-.012-.042.436.436,0,0,0-.065.273H.054L.06-1.973A.1.1,0,0,1,.054-2H.036A4.494,4.494,0,0,0-.226-.868c0,.327.137.487.4.487H.2C.321-.381.4-.4.434-.446.565-.5.63-.535.63-.565V-.589a.194.194,0,0,1-.143-.19V-.82c.315-1,.553-1.723.719-2.169.006-.065.03-.1.071-.1.315-.125.618-.261.921-.416A6.348,6.348,0,0,0,3.28-4.1a13.092,13.092,0,0,0,1.408-.927c.63-.511.98-.8,1.046-.868a6.622,6.622,0,0,0,.921-1.046A2.4,2.4,0,0,0,7.19-8.45a1.631,1.631,0,0,0-.3-.957,2.187,2.187,0,0,0-1.771-.743Zm-.024.226H5.14v.03c-.03-.006-.048-.012-.048-.024Zm.226,0H5.4v.006c-.006.018-.018.024-.024.024H5.342c-.018-.006-.024-.018-.024-.024Zm-.713.036a.887.887,0,0,1,.113-.006h.03q-.027.036-.036.036H4.7l-.1-.024Zm1.141.048H5.77v.018H5.746ZM1.5-3.726c.006-.018.012-.024.018-.024.446-1.052.844-2.1,1.194-3.12.119-.374.19-.582.208-.624l.226-.784a8.005,8.005,0,0,0,.386-1.07A1.085,1.085,0,0,1,3.827-9.5a4.868,4.868,0,0,1,1.456-.315A2.587,2.587,0,0,1,6.02-9.7a.9.9,0,0,1,.671.915,2.3,2.3,0,0,1-.053.44,2.085,2.085,0,0,1-.273.749,1.968,1.968,0,0,1-.446.606,2.956,2.956,0,0,1-.374.41,6.114,6.114,0,0,0-.511.535,6.363,6.363,0,0,0-.576.505,1.954,1.954,0,0,0-.41.309v.006l.036-.006h.012v.03a.347.347,0,0,1-.077.03H3.993c0-.018,0-.03-.006-.036S3.97-5.2,3.964-5.2l-.154.113a4.151,4.151,0,0,0-.529.374v.024a.1.1,0,0,0,.018.048l.172-.1a1.762,1.762,0,0,1,.345-.226v-.012c0-.012-.006-.012-.018-.018H3.762c0-.053.036-.083.1-.083s.071-.03.071-.089h.059A.157.157,0,0,0,3.97-5.1v.012h.012a.79.79,0,0,0,.143-.113,10.685,10.685,0,0,0,.909-.7,1.539,1.539,0,0,1,.291-.25h.012a.173.173,0,0,1-.03.059c-.232.22-.487.446-.784.677a2.663,2.663,0,0,0-.315.256v.006a.834.834,0,0,0,.261-.154,2.635,2.635,0,0,0,.422-.362,1.376,1.376,0,0,0,.273-.2c.006,0,.012.012.018.03L5.176-5.8c-.1.077-.261.232-.505.463A.957.957,0,0,1,4.5-5.2c-.042.065-.083.1-.131.1L4.3-5.111v.036c0,.036-.053.089-.166.16a1.88,1.88,0,0,0-.368.256q-.481.3-.57.357a.315.315,0,0,1-.256.113H2.936v.018h.053v.053a1.114,1.114,0,0,0-.256.107.507.507,0,0,1-.208.137A.169.169,0,0,1,2.454-3.9a.3.3,0,0,0-.172.077v.006a.022.022,0,0,1,.018.006c0,.03-.006.048-.03.053-.018-.012-.03-.024-.03-.03H2.229c-.053.065-.1.1-.131.1H2.092c0-.012-.012-.024-.03-.03s-.071.03-.2.089l.006.042v.03a.452.452,0,0,1-.125-.018,2.211,2.211,0,0,0-.368.16H1.367a.659.659,0,0,1,.053-.137c0-.042.065-.077.19-.1l.879-.5c0-.024-.006-.042-.024-.042H2.4c-.006,0-.006,0-.006.006-.107.059-.4.214-.885.458Zm2.08-5.806.006-.053c0-.03.125-.071.374-.137v.03Zm-.618.582h.006v.024c-.178.582-.3.963-.345,1.147a1.436,1.436,0,0,0-.107.351,3.173,3.173,0,0,0-.208.725.205.205,0,0,1,.018.071v.012H2.324c-.012,0-.018-.006-.03-.012s-.018.012-.042.03a.14.14,0,0,0,.03.077.081.081,0,0,0-.065.077v.006a.1.1,0,0,0,.048-.018.016.016,0,0,1,.018.018v.006c-.036,0-.065.059-.1.184L2.2-6.24v.018a1.05,1.05,0,0,0-.1.267l.018.107v.006l-.071-.024q-.062,0-.089.107v.042c.024.03.042.042.048.042a.22.22,0,0,1-.077.119l.048.042a.178.178,0,0,1-.113.053c-.042,0-.059.048-.059.149a.054.054,0,0,1,.018.042l-.012.149a.221.221,0,0,0-.113-.053,3.05,3.05,0,0,0,.1-.475c.351-1.028.535-1.545.553-1.557q.045-.1.339-.963A3.432,3.432,0,0,1,2.965-8.949ZM1.64-7.731a1.939,1.939,0,0,1,.339-.386A3.974,3.974,0,0,1,2.6-8.753c0,.018-.149.463-.446,1.343-.1.327-.172.493-.2.493a5.183,5.183,0,0,0-.03-.535.224.224,0,0,0-.083-.2C1.706-7.684,1.64-7.707,1.64-7.731Zm1.266-.214a.308.308,0,0,1,.065-.214l.006.042v.03c-.036.089-.059.137-.059.143Zm-.071.2a.2.2,0,0,1,.059-.137v.036a.316.316,0,0,1-.036.143c-.012-.006-.024-.012-.024-.024Zm-.036.1.012.006a.339.339,0,0,1-.006.077,6.41,6.41,0,0,1-.232.731,3.056,3.056,0,0,1-.19.618l-.042.131a.365.365,0,0,0-.083.261,2.469,2.469,0,0,0-.3.654Q1.8-4.793,1.5-4.035c-.089.279-.16.416-.22.416H1.272l.19-.505c.107-.22.184-.4.238-.541l.291-.755a1.833,1.833,0,0,0,.16-.446A3.114,3.114,0,0,0,2.377-6.5v-.03c0-.012-.006-.012-.012-.018s.012-.018.048-.042C2.437-6.632,2.561-6.983,2.8-7.654ZM5.818-6.638c0-.036.024-.077.083-.125.036-.083.071-.125.1-.125A.521.521,0,0,1,5.818-6.638Zm-.446.452A.274.274,0,0,1,5.5-6.323Q5.55-6.43,5.6-6.43H5.61a.513.513,0,0,1-.232.244ZM1.438-5.8H1.45v.018H1.444A.022.022,0,0,0,1.438-5.8Zm-.048.178c.012-.018.018-.024.024-.024H1.42c0,.006.006.012.012.024s-.012.03-.036.036L1.391-5.6Zm-.065.19c0-.042.018-.059.059-.071L1.4-5.5c0,.006-.012.048-.036.131h-.03L1.325-5.4Zm-.03.16c.006-.018.012-.03.024-.03h.012v.018c0,.006-.012.012-.03.024C1.3-5.265,1.3-5.271,1.3-5.271Zm-.018.113c.012-.018.024-.03.03-.03A.223.223,0,0,0,1.3-5.14ZM4.2-5.146a.1.1,0,0,0-.1.071v.012C4.166-5.081,4.2-5.111,4.2-5.146Zm-2.448.059h.006a.045.045,0,0,0,.006.024c0,.018-.006.03-.024.03l.012.089q-.018,0-.053.036Q1.667-4.8,1.64-4.8v-.024A1.1,1.1,0,0,0,1.747-5.087Zm-.505.059c0-.006.006-.012.012-.018v.018ZM3.97-4.98a.175.175,0,0,0-.119.065,1.806,1.806,0,0,0-.428.291v.018h.006a.11.11,0,0,0,.1-.053,2.782,2.782,0,0,0,.44-.315Zm-2.347.214h.012v.018H1.622Zm-.1.172a.437.437,0,0,1,.077-.1c0,.012-.012.059-.024.131Zm1.694-.083a.32.32,0,0,0-.006.065l-.1-.012-.154.113a2.606,2.606,0,0,0-.487.309v.012a2.438,2.438,0,0,0,.416-.184c.238-.149.357-.226.368-.226-.012-.048-.024-.077-.036-.077Zm.166.083c-.053.012-.077.024-.077.03v.018a.016.016,0,0,0,.018.018h.036c.012-.006.018-.018.03-.042A.045.045,0,0,0,3.387-4.594Zm-.226.125v.012c0,.012.006.018.012.018a.016.016,0,0,0,.018-.018c0-.006-.006-.012-.018-.012ZM3.1-4.415V-4.4c0,.012,0,.018.012.018A.016.016,0,0,0,3.132-4.4c0-.006-.006-.012-.018-.012Zm-1.848.208a.256.256,0,0,1,.083-.19h.012C1.308-4.273,1.278-4.207,1.254-4.207Zm.19-.137c0-.006.006-.012.018-.012H1.48c-.006.018-.012.03-.018.03H1.444Zm-.2.416c.012,0,.018.006.018.012V-3.9a.8.8,0,0,1-.1.273c0,.048-.036.083-.119.107l-.006-.012A.92.92,0,0,1,1.248-3.928Zm-.238.547a.362.362,0,0,1,.1-.065Q1.07-3.3,1.052-3.3h-.03A.624.624,0,0,0,1.01-3.382Zm-.2.267a.038.038,0,0,1,.042.03c0,.006-.006.012-.03.018C.82-3.067.814-3.078.814-3.1Zm-.071.261c0,.006,0,.006-.006.006a.053.053,0,0,0,.03.048H.785C.791-2.8.8-2.805.8-2.817v-.012C.8-2.841.779-2.847.743-2.853ZM.785-2.6c-.03.03-.042.048-.048.048S.725-2.556.725-2.567C.7-2.556.69-2.544.69-2.538H.737a.222.222,0,0,0-.03.089v.012H.713a.174.174,0,0,0,.077-.137C.791-2.579.785-2.585.785-2.6Zm-.214.065c-.006,0-.012.012-.024.03l.018.012H.6a.016.016,0,0,0,.018-.018C.606-2.52.6-2.532.594-2.532ZM.422-2.4A.079.079,0,0,0,.4-2.348v.006H.428c.024-.012.036-.024.036-.03v-.006A.1.1,0,0,1,.422-2.4Zm.238,0a.186.186,0,0,0-.065.119.079.079,0,0,0,.018.042c.018-.018.03-.024.042-.024A.507.507,0,0,1,.69-2.371c0-.012-.006-.018-.006-.024Zm-.232.083a.372.372,0,0,0-.083.024A.536.536,0,0,1,.363-2.2H.369C.386-2.2.41-2.235.434-2.288A.045.045,0,0,0,.428-2.312Zm.077.024c-.024.012-.03.024-.03.03v.006c.006.018.012.024.024.024l.018-.018A.242.242,0,0,0,.505-2.288Zm.053.1c-.006,0-.018.006-.048.012a.245.245,0,0,1-.059.125v.024l.006.012c.077-.03.113-.077.113-.131v-.018Zm-.351.238c-.036.006-.059.018-.059.03s.024.03.03.03H.22l.012-.012Zm.214.077c-.03.018-.048.036-.048.048S.386-1.8.4-1.8H.4c.012,0,.018-.018.024-.059Zm-.214.19v.006a.016.016,0,0,0,.018.018H.232v-.024ZM.2-1.617c-.006,0-.018.006-.036.03,0,.024.006.036.018.042H.19c.012,0,.024-.018.03-.059Zm.125.042c-.048,0-.071.018-.071.048l.006.012C.3-1.522.321-1.539.321-1.575Zm10.271-8.961a.858.858,0,0,0-.107.071.548.548,0,0,0-.25.208.179.179,0,0,1,.042.083l-.048.053c-.071.166-.214.523-.422,1.07a2.165,2.165,0,0,0-.184.535,5.253,5.253,0,0,0-.291.826,11.678,11.678,0,0,0-.351,1.141,2.269,2.269,0,0,0-.113.374A1.568,1.568,0,0,0,8.78-6a.462.462,0,0,1-.059.214.74.74,0,0,1-.071.184q-.116.339-.125.392c0,.006.006.012.006.018h.006A.246.246,0,0,1,8.6-5.319c.024-.107.053-.16.083-.16.006,0,.006.012.012.048a.183.183,0,0,0-.006.059,2.659,2.659,0,0,0-.131.345H8.495c-.006,0-.018.024-.048.077a1.655,1.655,0,0,0-.119.345L8.34-4.6h.006c.018-.077.048-.119.071-.119l.012.006a1.8,1.8,0,0,1-.036.2.945.945,0,0,1-.125.3.5.5,0,0,1-.083.25c-.018.113-.048.172-.1.172,0,.012.006.042.012.089-.012.036-.018.053-.03.053s-.03-.006-.03-.018l.042-.149a.9.9,0,0,0,.071-.19c-.036,0-.059.012-.059.042a1.748,1.748,0,0,0-.154.458.022.022,0,0,0,.006.018c.024,0,.048-.048.077-.137h.036a1.931,1.931,0,0,1-.077.279,1.2,1.2,0,0,1-.143.374c-.059.006-.089.018-.089.03s.03.024.077.03a.406.406,0,0,0-.053.2v.048l-.03.006H7.71v-.018c0-.006-.006-.018-.03-.024s-.036.03-.042.083v.018H7.7c0,.036-.012.107-.024.2h.006a.051.051,0,0,0,.036-.018c.1-.279.16-.452.19-.511.03-.083.065-.2.113-.351a2.11,2.11,0,0,1,.1-.267,1.564,1.564,0,0,1,.172-.44,2.265,2.265,0,0,1,.113-.392q.053-.116.374-1.034A3.373,3.373,0,0,1,9.006-6a.7.7,0,0,0,.077-.238l.1-.25q.062-.276.107-.3c.012-.125.042-.184.089-.184a1.8,1.8,0,0,1-.065.172.669.669,0,0,1-.083.285L8.774-5.194a4,4,0,0,1-.232.654,5.6,5.6,0,0,0-.178.594c-.053.143-.113.357-.19.642-.03,0-.071.107-.119.321,0,.006,0,.012.006.012a.519.519,0,0,0,.149-.22q.053-.2.071-.2a.648.648,0,0,0,.1-.256.874.874,0,0,0,.053-.16c0-.006,0-.012-.012-.012h-.03l.006-.059.042.012h.024c.012,0,.03-.042.048-.119A1.514,1.514,0,0,1,8.6-4.3a2.166,2.166,0,0,0,.125-.3v-.024l-.006-.012-.024.012c-.006,0-.012-.006-.012-.03v-.012c.053,0,.1-.059.125-.166a.563.563,0,0,1,.1-.273,2.555,2.555,0,0,1,.125-.38.26.26,0,0,1,.077-.19,1.572,1.572,0,0,1,.089-.226c.024-.1.059-.214.107-.351a1.359,1.359,0,0,0,.166-.481c0-.03.024-.059.059-.1a1.554,1.554,0,0,1,.1-.285.993.993,0,0,1,.137-.345c.048-.166.089-.291.119-.368a.584.584,0,0,0,.083-.238h.012l.012.042a.253.253,0,0,1-.012.065,3.44,3.44,0,0,0-.131.368,2.616,2.616,0,0,0-.143.374,4.485,4.485,0,0,1-.208.624c-.048.2-.077.291-.1.291a1.868,1.868,0,0,1-.077.238c-.042.083-.155.4-.351.951a3.934,3.934,0,0,1-.2.6,4.033,4.033,0,0,1-.16.452c-.089.208-.327.9-.707,2.1a4.392,4.392,0,0,0-.184.63,3.148,3.148,0,0,0-.113.321.553.553,0,0,1-.1.25,3.081,3.081,0,0,0-.3.588H7.193V-.191a.471.471,0,0,1,.03-.089.061.061,0,0,0-.048-.03A2.519,2.519,0,0,0,7.033,0H7.027V-.006c.012-.1.018-.166.024-.2L7.039-.214A.445.445,0,0,1,7.08-.345,1.576,1.576,0,0,1,7.193-.7.3.3,0,0,0,7.17-.8s.024-.03.065-.077a.688.688,0,0,1,.1-.261c-.059-.048-.089-.083-.089-.113a.523.523,0,0,0,.048-.19v-.053h.006a.05.05,0,0,1,.042.024v.006a.4.4,0,0,1-.012.083l.006.012h.012c.042-.018.065-.071.065-.149v-.006H7.4a.155.155,0,0,0-.065.018H7.324c0-.077.024-.113.065-.113H7.4l.012.036h.012v-.048a.318.318,0,0,0,.059-.154c-.036-.012-.059-.018-.059-.03v-.065a.756.756,0,0,0,.1-.172v-.018L7.508-2.11H7.5a.079.079,0,0,0-.042.018,1.421,1.421,0,0,1-.119.333v.006a.083.083,0,0,0,.03.059h.012L7.389-1.7v.042a.122.122,0,0,0-.113.071,1.3,1.3,0,0,1-.119.362A7.323,7.323,0,0,0,6.831-.012V.023A1.092,1.092,0,0,0,6.9.208a.3.3,0,0,0,.166.131A.39.39,0,0,0,7.146.321c.059.006.089.006.1.006A.553.553,0,0,0,7.4.273h.048c.03,0,.071-.036.143-.113A8.235,8.235,0,0,0,8.18-.945c.321-.576.909-1.474,1.753-2.7.178-.261.3-.392.357-.4H10.3c.024,0,.036.006.042.03q-.089.677-.214,1.23a6.968,6.968,0,0,0-.261,1.248v.012L9.861-1.5a.654.654,0,0,0,.042.19.757.757,0,0,0,.642.315L10.675-1a2.4,2.4,0,0,0,.969-.5c.315-.256.469-.41.475-.458.042-.053.1-.119.178-.208a.006.006,0,0,1-.006-.006,2.05,2.05,0,0,0-.374.3c-.048-.012-.065-.024-.065-.053l.036.006a.234.234,0,0,0,.036-.012l-.006-.03v-.018a.113.113,0,0,1,.018-.053A3.537,3.537,0,0,0,12.28-2.4c.166-.166.25-.267.25-.3q.232-.16.232-.285l.012.006h.03l.012-.006a.084.084,0,0,1,.012.036h.018l.012-.006a.439.439,0,0,1,.083-.2c-.006,0-.006,0-.006-.006a.547.547,0,0,0-.125.077c-.2.2-.392.392-.594.57q-.071.08-.143.178c-.03,0-.065.03-.113.1-.006.03-.018.048-.036.048-.042,0-.155.089-.351.267-.374.351-.642.523-.79.523-.107,0-.16-.1-.16-.279a6.7,6.7,0,0,1,.256-1.313,4.915,4.915,0,0,0,.244-1.218,1.932,1.932,0,0,0-.012-.2.3.3,0,0,0-.083-.226c-.053-.113-.1-.178-.131-.19a.363.363,0,0,0-.267-.1h-.071q-.089,0-.214.2a3.206,3.206,0,0,0-.357.416c-.523.666-.891,1.147-1.111,1.456a5.5,5.5,0,0,1-.458.66q-.3.455-.392.57l.036-.113.214-.642c.024-.059.089-.232.184-.517q1-2.781,1.45-4.118c.238-.666.357-1.016.357-1.058.261-.719.434-1.206.523-1.456.1-.333.166-.547.2-.636-.012-.071-.018-.137-.024-.19,0-.125-.065-.184-.2-.184a.488.488,0,0,1-.125.012A.088.088,0,0,1,10.592-10.536ZM10.057-8.32h.018l-.006.042h-.012ZM10-8.147c0-.053.006-.077.018-.077h.006c0,.006-.006.036-.012.077ZM9.481-7.4h.012a.5.5,0,0,1-.012.113H9.469C9.469-7.3,9.475-7.345,9.481-7.4ZM9.4-7.131H9.41v.006c-.012.071-.024.107-.042.107A.226.226,0,0,1,9.4-7.131ZM8.786-5.776c.012-.113.036-.172.065-.172l-.006.059a.3.3,0,0,0-.048.113ZM8.744-5.7h.024l.006.03v.006a.062.062,0,0,1-.042.059Zm-.25.713H8.5c0,.012.006.018.006.024s0,.012-.012.012Zm-.006.053c.024.012.03.018.03.024V-4.9c-.012.03-.024.048-.03.048H8.465A.47.47,0,0,1,8.489-4.932Zm-.036.113h.012v.012H8.453Zm.386,2.46a1.458,1.458,0,0,1,.125-.368c0-.03.3-.446.891-1.254l.083-.071a.576.576,0,0,1,.107-.154,1.4,1.4,0,0,1,.4-.416.28.28,0,0,1,.03.083.521.521,0,0,1-.1.143,1.314,1.314,0,0,1-.208.279A.214.214,0,0,0,10.087-4c0,.006-.315.416-.939,1.242a2.219,2.219,0,0,1-.3.4Zm-.5-2.216c-.024,0-.036.024-.042.059l.012.006h.018c.006,0,.012-.018.018-.059C8.34-4.57,8.34-4.57,8.34-4.576ZM8.227-4.3c-.048,0-.077.059-.089.172v.042h.006a.373.373,0,0,0,.1-.19C8.239-4.273,8.233-4.279,8.227-4.3Zm.232.178H8.5v.024H8.477q-.018-.009-.018-.018Zm-.541.666c0,.006-.006.024-.012.053l.03-.006v-.018l-.006-.03Zm5.182.19h-.012a.158.158,0,0,1-.131.065c.012.053.024.077.024.083a.116.116,0,0,0,.048-.006c.065,0,.113-.042.143-.131A.171.171,0,0,0,13.1-3.263Zm-.119.166c-.03.006-.048.012-.048.024v.006c.012.018.024.03.03.03s.018-.018.024-.048Zm-.089.077q-.009,0-.018.053l.012.006a.056.056,0,0,0,.036-.048.013.013,0,0,0-.012-.012ZM10.58-2.93a.026.026,0,0,1,.018.006v.012a.065.065,0,0,1-.024.012v-.006Zm2.246.018c-.03,0-.042.018-.048.059a.006.006,0,0,1,.006.006A.075.075,0,0,0,12.827-2.912ZM7.74-2.906a.2.2,0,0,0-.048.107.006.006,0,0,1,.006.006c.048,0,.071-.03.071-.1v-.012Zm.315.048c-.006,0-.012.006-.018.006a.5.5,0,0,1-.048.2V-2.6c-.042.03-.059.053-.059.065v.012h.012A.1.1,0,0,0,8-2.538a1.351,1.351,0,0,0,.089-.285v-.006A.072.072,0,0,0,8.055-2.859Zm-.368.475c-.036,0-.059.048-.065.137,0,.006.012.012.03.024A.243.243,0,0,0,7.7-2.342v-.024C7.692-2.377,7.692-2.383,7.686-2.383Zm.2.036a.106.106,0,0,0-.042.048c.012.024.03.042.042.042s.018-.03.018-.077v-.012Zm-.345.03v.024l.006.012.012-.006-.006-.03Zm.089.113q-.036,0-.071.053v.006a.1.1,0,0,0,.03.065c.012,0,.024-.036.048-.107A.026.026,0,0,1,7.633-2.2Zm1,.012a.223.223,0,0,0,.048.006v.006l-.03.006H8.637A.046.046,0,0,0,8.631-2.193Zm1.444.119a.013.013,0,0,1,.012.012v.024h-.012Zm-2.5.012c-.036,0-.053.012-.053.03l.012.006h.03a.013.013,0,0,0,.012-.012Zm2.466.1a.045.045,0,0,1,.042-.048l-.006.053h-.036ZM7.788-2.015Q7.77-2.006,7.77-2v.024a.013.013,0,0,0,.012.012h.012q.018,0,.018-.036c0-.012,0-.018-.012-.018Zm-.238.036c-.03,0-.053.042-.065.131l.006.012c.006,0,.012-.006.018-.006a.227.227,0,0,0,.053-.089A.112.112,0,0,0,7.55-1.979Zm.16.083v.048l.006.03H7.71a.546.546,0,0,0-.1.16c0,.012.018.036.053.065h.018c.006,0,.012-.03.024-.077l.059-.2C7.764-1.89,7.752-1.9,7.728-1.9Zm3.981.042c.042,0,.059.012.059.024v.006a.238.238,0,0,1-.071.059l-.006-.03A.133.133,0,0,1,11.692-1.854Zm-1.4.25a.5.5,0,0,1,.03-.16h.006q0,.027-.018.16ZM7.4-1.741a.013.013,0,0,1,.012-.012h.024c0,.024-.006.036-.006.048H7.4Zm2.882.178H10.3v.036l.006.053c-.012,0-.018-.018-.024-.042Zm-.024.172h.059l-.006.03v.024h-.006l-.042-.006v-.018Zm-2.692.018q-.018.053-.053.053c-.03,0-.042.024-.042.077l.006.012.03-.006c.03,0,.053-.048.071-.137ZM7.294-1.3v.006c0,.012-.006.03-.006.053l.018.036c.024,0,.036-.024.042-.065a.039.039,0,0,0-.024-.03Zm.22.131v.018l.006.012.012-.006-.006-.024Zm-.083.03c-.006,0-.012.018-.024.042a.006.006,0,0,1,.006.006c.036-.006.048-.012.048-.024S7.449-1.123,7.431-1.135ZM7.4-1.076q-.009,0-.018.036v.012a.013.013,0,0,0,.012.012h.059l.018-.012c0-.03-.006-.048-.018-.048Zm-.214.048h.006v.006l-.006.03H7.175V-1A.059.059,0,0,0,7.181-1.028Zm.232.083c-.006,0-.018.036-.03.113L7.4-.826c.012,0,.018-.036.024-.107ZM7.36-.892q-.018,0-.018.036c0,.006,0,.012.012.012S7.36-.85,7.36-.856Zm-.012.125c-.03,0-.048.012-.053.03v.024h.042c.006,0,.012,0,.012-.012Zm-.071.149a.2.2,0,0,0-.065.172l.006.03h.012c.042-.024.065-.083.065-.178Zm9-5.8c-.089.018-.137.03-.137.042a.519.519,0,0,0-.077-.03c-.042,0-.107.1-.19.291a2.913,2.913,0,0,0-.137.63q.018.214.143.214h.006q.16,0,.339-.3a1.98,1.98,0,0,0,.244-.576v-.018C16.466-6.258,16.407-6.335,16.276-6.418ZM15.783-4.95a.6.6,0,0,0-.238.077.863.863,0,0,0-.273.238,6.754,6.754,0,0,0-.487.891,6.171,6.171,0,0,0-.6,2.038v.1a.59.59,0,0,0,.024.166A.754.754,0,0,0,15-1a1.836,1.836,0,0,0,1.058-.446,3.678,3.678,0,0,0,.606-.535,1.8,1.8,0,0,0,.392-.434v-.006a.045.045,0,0,0-.048.036,2.265,2.265,0,0,0-.285.279,2.019,2.019,0,0,0-.273.261,1.1,1.1,0,0,0-.172.137.722.722,0,0,1-.22.172.44.44,0,0,1-.22.113H15.83a.117.117,0,0,1,.024-.048q.16-.125.16-.2h-.006a.448.448,0,0,1-.178.077h-.012c.012-.012.012-.018.012-.024l.232-.184a.959.959,0,0,0,.226-.184c.083-.048.125-.089.125-.137h-.024v-.036h.018a.234.234,0,0,1,.036.012c.089-.03.131-.053.131-.077s0-.018-.012-.018h-.024c0,.018-.024.042-.071.065h-.012l-.006-.042a.125.125,0,0,1,.036-.048v-.006H16.46a.434.434,0,0,1-.113.071,2.113,2.113,0,0,0-.267.232c-.03.024-.208.154-.547.386a1.581,1.581,0,0,0-.3.137.582.582,0,0,1-.154.024l-.1.048a.53.53,0,0,1-.131-.018c-.018,0-.03-.048-.03-.149a5.143,5.143,0,0,1,.463-1.842,2.166,2.166,0,0,1,.309-.517H15.6c.012.059.018.089.018.1a.629.629,0,0,0-.042.131.046.046,0,0,0,.006.018.276.276,0,0,0,.071-.065,6.46,6.46,0,0,0,.226-.719.693.693,0,0,0,.1-.279c0-.16-.059-.238-.178-.238ZM14.737-3.3h.018q0,.036-.018.036Zm.291.048c.012-.018.024-.024.03-.024l-.006.03Zm-.083.006h.006v.018h-.006Zm2.567.042v.024c0,.012,0,.012.012.012s.006,0,.006-.012v-.012c0-.006,0-.006-.006-.012ZM14.9-2.977a.918.918,0,0,1,.119-.208h.006l.012.042a.439.439,0,0,1-.012.071.292.292,0,0,1-.065.16C14.951-2.912,14.933-2.936,14.9-2.977Zm-.107-.03c.048-.107.071-.166.089-.172l.018.071c-.012.071-.042.107-.1.107C14.8-3.007,14.8-3.007,14.8-3.007Zm2.626-.143-.042.036.006.012a.04.04,0,0,0,.042-.024V-3.15Zm.03.024a.013.013,0,0,0-.012.012V-3.1c0,.006,0,.012.012.012l.024-.018q-.009-.018-.018-.018Zm-2.722.1a.088.088,0,0,1,.036-.077.1.1,0,0,1-.036.089Zm2.632-.018c-.018.012-.03.024-.03.03s.012.012.036.024a.1.1,0,0,1,.042-.018v-.006c0-.006-.012-.018-.036-.03Zm-.2.042a2.3,2.3,0,0,0-.315.321v.006a.022.022,0,0,0,.018-.006c.131-.131.232-.238.3-.315ZM17.453-3c-.012,0-.018,0-.018.012v.006l.006.012c.018-.006.03-.012.03-.018V-3C17.464-3,17.458-3,17.453-3Zm-.16.036v.018a.055.055,0,0,0,.042.053q.036,0,.036-.018l-.059-.053Zm-2.5.077a.032.032,0,0,1,.036-.036h.006C14.838-2.9,14.826-2.888,14.8-2.888ZM17.245-2.9c-.012.012-.024.03-.042.048l.042.048.042-.012v-.018Zm-2.573.018a.148.148,0,0,1,.03.042.356.356,0,0,1-.053.143q-.018-.009-.018-.018v-.006a.13.13,0,0,0,.03-.071.064.064,0,0,1-.012-.042A.323.323,0,0,0,14.672-2.882Zm-.006.582a1.5,1.5,0,0,0,.184-.463c0-.065.03-.1.1-.1,0,.006,0,.006.012.006v.053c-.065.232-.107.386-.125.469a.162.162,0,0,1-.065.03l.036.1c-.042.178-.065.279-.071.309h-.006V-1.9c0-.172-.006-.3-.006-.386v-.018l-.006-.012a.092.092,0,0,0-.036.018Zm.125-.517a.036.036,0,0,1,.018-.036l.006.03v.006L14.8-2.8c-.006,0-.012,0-.012-.012Zm2.329.03v.012c0,.006,0,.012.012.012v-.024Zm.1.042c-.024.006-.042.012-.042.024V-2.7h.006l.042-.036Zm-2.537.184a.061.061,0,0,0,.042-.03c.018-.089.042-.131.059-.131a.575.575,0,0,1-.065.232A.1.1,0,0,0,14.677-2.561Zm2.466-.113v.006l.006.012.024-.006v-.012Zm-2.537.024h.006l.018.089a.652.652,0,0,0-.048.154h-.03C14.588-2.556,14.606-2.639,14.606-2.651Zm2.341.042c-.018.012-.03.024-.03.03s.018.012.042.018c.006,0,.018-.006.042-.024-.006-.018-.018-.024-.042-.024Zm.154,0c-.048.012-.071.03-.071.048a.006.006,0,0,1,.006.006c.042-.012.065-.03.065-.048Zm-.351.042c-.006,0-.012,0-.012.006v.012h.012c0-.006,0-.012.012-.018Zm.41.018-.077.089v.012h.006a.381.381,0,0,0,.083-.089V-2.55Zm-.184.03-.018.012c.006.024.012.03.018.03h.018q.018-.009.018-.018v-.012c0-.006-.006-.006-.012-.012Zm-.327.036a.064.064,0,0,0-.024.03c.024,0,.042-.006.042-.018a.013.013,0,0,0-.012-.012Zm.137.012c-.012,0-.012.006-.012.012v.006l.006.012q.018-.009.018-.018A.013.013,0,0,0,16.787-2.472Zm.16.03c-.042,0-.077.03-.119.083v.006a.164.164,0,0,0,.119-.077Zm-.261.071c-.006,0-.018.012-.024.03v.006h.012a.051.051,0,0,1,.036-.018v-.012C16.7-2.365,16.692-2.365,16.686-2.371Zm-2.163.018h.006v.03h-.006Zm2.288.018v.018h.006v-.018Zm-.1.077-.006.012v.03h.018c.012-.012.024-.018.024-.024v-.012Zm-2.086.024h.006c.006,0,.012,0,.012.012H14.63Zm-.3.053c0-.018.012-.03.042-.042v.03a.388.388,0,0,1-.012.065h-.012ZM16.686-2.2c-.018.012-.024.018-.024.024h.006c.018-.006.024-.018.024-.024Zm-.125.113q-.053.036-.053.053l.006.012c.036-.012.053-.024.053-.03v-.024Zm-.285.238q-.018.009-.018.018v.012c0,.012.006.012.012.012h.006l.012-.006A.234.234,0,0,0,16.276-1.848Zm-.065.059a.061.061,0,0,0-.03.042v.006c.036-.006.048-.012.048-.024v-.024Zm-1.587.333h.006v.024h-.006Zm1.141.059H15.8a.044.044,0,0,1-.048.048A.08.08,0,0,0,15.765-1.4Zm3.889.44a1.377,1.377,0,0,0,.178-.018,1.8,1.8,0,0,0,.832-.434,1.388,1.388,0,0,0,.327-.315H21V-1.7h.006a.109.109,0,0,0,.036-.048l-.053.018a1.031,1.031,0,0,1-.279.2l-.018-.048A.061.061,0,0,0,20.7-1.6c.1-.083.273-.25.523-.5a2.871,2.871,0,0,0,.5-.648A1.727,1.727,0,0,0,22-3.393l-.012-.071h-.018a2.945,2.945,0,0,1-.22.428L21.77-3l.03-.006V-3c-.024.042-.042.065-.048.065s0-.018-.012-.018a.724.724,0,0,1-.1.1.6.6,0,0,1-.131.285v.012h.012a.158.158,0,0,1-.065.077.093.093,0,0,1-.077.065l.065-.166-.006-.006a.112.112,0,0,0-.1.071.772.772,0,0,1-.315.345,3.273,3.273,0,0,1-.422.386,1.554,1.554,0,0,1-.868.434c-.232-.024-.351-.184-.351-.493a4.419,4.419,0,0,1,.154-.986,1.534,1.534,0,0,1,.327-.666A24.835,24.835,0,0,0,21.538-6.65a11.488,11.488,0,0,0,1.153-3.7.233.233,0,0,0-.018-.083l-.16-.059c-.119-.131-.208-.19-.267-.19H22.2a.765.765,0,0,0-.481.232,2.552,2.552,0,0,0-.517.8c-.434,1.046-.737,1.8-.891,2.258q-.677,1.9-.677,2.032v.1l-.03-.006a1.366,1.366,0,0,1-.119.434.427.427,0,0,1-.077.25.7.7,0,0,1-.149.291.1.1,0,0,0,.024.071L19.28-4.2c-.036.024-.048.131-.048.321-.048.143-.083.291-.125.446a.721.721,0,0,1-.1.113l.048.018a.073.073,0,0,1-.024.053.3.3,0,0,0-.113.154,8.235,8.235,0,0,0-.16,1.194,3.047,3.047,0,0,0,.03.333.59.59,0,0,0,.119.321A.937.937,0,0,0,19.654-.957Zm.874-3.981c.012-.036.309-.648.891-1.842a1.475,1.475,0,0,1,.125-.339,2.078,2.078,0,0,1,.166-.374,1.705,1.705,0,0,1,.154-.351,4.033,4.033,0,0,1,.166-.559,1.359,1.359,0,0,0,.125-.4,7.732,7.732,0,0,0,.226-.749c.065-.487.119-.731.154-.731a.4.4,0,0,1,.018.1,2.343,2.343,0,0,1-.018.238c-.077.4-.113.612-.113.636a.357.357,0,0,1-.083.232,1.193,1.193,0,0,1-.1.351,3.221,3.221,0,0,1-.2.559A11.024,11.024,0,0,1,21.455-6.7c-.1.279-.178.434-.238.463a.045.045,0,0,0,.006.03l-.059.178a.275.275,0,0,1-.107.125,1.61,1.61,0,0,1-.25.517A1.35,1.35,0,0,1,20.528-4.938Zm-.345-.053a.887.887,0,0,1,.036-.154q.5-1.506,1.087-2.989A8.49,8.49,0,0,1,22.12-9.87a2.208,2.208,0,0,1-.083.38,2.145,2.145,0,0,0-.089.458.951.951,0,0,0-.113.4,1.469,1.469,0,0,1-.2.452.833.833,0,0,1-.083.309.412.412,0,0,1-.083.238c-.053.16-.089.244-.113.25-.065.19-.137.362-.208.529-.143.279-.256.511-.333.683a1.363,1.363,0,0,1-.22.434l-.2.434A1.131,1.131,0,0,1,20.183-4.992ZM21.7-9.609h-.006v-.03c0-.006.012-.018.042-.036v.036C21.734-9.633,21.722-9.627,21.7-9.609Zm-.16.256-.03-.006a1.478,1.478,0,0,1,.143-.208l.006.03q0,.036-.053.071A.344.344,0,0,1,21.538-9.354ZM21.371-9H21.36a.372.372,0,0,1,.137-.321H21.5A1.22,1.22,0,0,1,21.371-9Zm.868-.279h-.006v-.024h.006ZM19.048-2.9a.875.875,0,0,1,.03-.2q.089-.365.374-1.426c.267-.82.458-1.373.57-1.646a2.989,2.989,0,0,1,.184-.523c.053-.172.143-.434.273-.772a6.676,6.676,0,0,1,.469-1.058.864.864,0,0,1-.053.184c-.333.874-.535,1.39-.588,1.563a5.8,5.8,0,0,0-.368,1.087c.006,0,.024-.018.053-.048a1.542,1.542,0,0,0,.16-.469l-.006-.012.065-.125c.036-.113.077-.166.131-.166,0,.006-.036.149-.119.434a.006.006,0,0,1,.006.006.215.215,0,0,0,.053-.053.729.729,0,0,1,.071-.238.606.606,0,0,1,.042-.19c0-.012,0-.018-.012-.018l-.042.042-.006-.042.006-.089a2.308,2.308,0,0,1,.16-.4c.012,0,.018.024.024.071a1.03,1.03,0,0,1-.059.232v.012c.018,0,.042-.03.077-.089a1.91,1.91,0,0,1,.077-.285.377.377,0,0,0-.071-.042.158.158,0,0,1,.048-.131.086.086,0,0,1,.036.042l-.053.053v.018q.027.036.036.036a.649.649,0,0,0,.125-.3.006.006,0,0,1-.006-.006.184.184,0,0,0-.048.012l.006.024a.048.048,0,0,1-.048.024.127.127,0,0,1,.077-.131c.006,0,.006,0,.006.006a.016.016,0,0,0-.018.018c.006.012.012.018.024.018s.018-.012.018-.036l-.006-.018c.036,0,.048-.042.048-.119,0-.006-.018-.018-.059-.036.006-.018.012-.03.018-.03.048-.131.077-.22.1-.267h.006l.018.113L20.9-7.88a.492.492,0,0,0,.107-.25l-.03.006c-.012,0-.012-.012-.012-.048a.3.3,0,0,1,.125-.25.179.179,0,0,0-.024-.077.64.64,0,0,0,.1-.083l-.048.2h.012a6.373,6.373,0,0,1,.374-.772,12.571,12.571,0,0,1-.463,1.224,1.894,1.894,0,0,1-.137.4c-.083.256-.143.428-.178.523a2.762,2.762,0,0,0-.2.606,5.378,5.378,0,0,0-.208.517,4.365,4.365,0,0,1-.214.612,3.652,3.652,0,0,1-.559,1.349c.059-.238.089-.362.089-.38-.012,0-.03.018-.048.048a1.585,1.585,0,0,1-.1.321h-.006V-3.94h-.006c-.042.071-.071.107-.083.107v-.012h-.006a.287.287,0,0,0-.048.071c.006,0,.006,0,.006.006l.03-.006.006.042a.1.1,0,0,1-.03.03c-.036,0-.077.071-.119.22a.257.257,0,0,1,.006.03.124.124,0,0,1,.042.1h-.006c-.006-.012-.018-.03-.036-.059h-.006C19.137-3.067,19.078-2.9,19.048-2.9Zm2.139-5.728a.064.064,0,0,1-.024-.03.2.2,0,0,0,.053-.1c.048-.119.089-.178.125-.19a.415.415,0,0,1-.048.119A.465.465,0,0,1,21.187-8.629ZM21.1-8.884V-8.9a.032.032,0,0,1,.024-.018l.006.018Zm-.125.315h-.006a.464.464,0,0,1,.083-.22l.012.006A.858.858,0,0,1,20.979-8.569Zm.143.006c-.012,0-.012-.006-.018-.012v-.006a.257.257,0,0,0,.03.006A.013.013,0,0,1,21.122-8.563ZM20.908-8H20.9a.04.04,0,0,1-.024-.042.149.149,0,0,1,.03-.065.074.074,0,0,1,.024.065A.075.075,0,0,0,20.908-8Zm-.03.25.006-.036h-.006a.032.032,0,0,0-.018.024C20.86-7.755,20.866-7.749,20.878-7.749Zm-.065.059.018-.012c0-.018-.006-.03-.018-.03s-.018.012-.018.024S20.807-7.69,20.813-7.69Zm.7.1H21.5v-.018h.012Zm-.065.149h-.006v-.024h.006ZM20.189-5.978c.018-.012.03-.024.03-.036l-.006-.012c-.018.018-.03.03-.03.036Zm.19.053v-.03h.006l.006.018C20.391-5.931,20.391-5.925,20.379-5.925Zm-.214.048.036-.03a.053.053,0,0,0-.03-.048l-.036.03A.053.053,0,0,0,20.165-5.877Zm-.089.22c.042,0,.065-.059.077-.184a.013.013,0,0,0-.012-.012h-.006c-.018,0-.042.065-.065.19A.006.006,0,0,1,20.076-5.657Zm.261-.113v-.024c.006,0,.006,0,.006.012S20.343-5.77,20.337-5.77Zm-.321.065c.012,0,.018-.006.024-.024h-.006c-.012.006-.024.018-.024.024Zm.279.03V-5.7H20.3l.006.024Zm-.434.208a.428.428,0,0,0,.077-.214h-.006c-.03,0-.059.071-.083.208Zm-.208,1.028c.024,0,.059-.071.113-.22l-.006-.012a.022.022,0,0,1,.006-.018,1.156,1.156,0,0,0,.1-.267,6.141,6.141,0,0,0,.2-.618h-.006c-.012,0-.042.053-.083.16a3.494,3.494,0,0,1-.19.523.18.18,0,0,0-.059.053c0,.03.012.042.036.042a.513.513,0,0,1-.048.166.2.2,0,0,0-.089-.024.3.3,0,0,0-.059.119c0,.012.012.024.042.03l.048-.006v.071Zm.19-.933c0-.012.006-.018.018-.03s-.006-.012-.018-.012-.012.012-.012.042Zm.077.036-.006-.036H19.91l-.036.024C19.874-5.337,19.886-5.337,19.921-5.337Zm-.149.16.024-.077h-.006c-.018.018-.03.024-.03.03v.048Zm.059.03.036-.024a.033.033,0,0,0-.024-.036c-.018.012-.024.018-.024.03S19.826-5.158,19.832-5.146Zm-.143.273a.547.547,0,0,0,.042-.172c-.012-.03-.024-.042-.042-.042a1.525,1.525,0,0,0-.042.2C19.648-4.879,19.666-4.873,19.69-4.873Zm.089-.1c.018-.012.03-.024.03-.036s-.012-.018-.012-.024h-.012c-.006,0-.018.006-.024.024A.051.051,0,0,0,19.779-4.974Zm.351.089.024-.059h.006v.036C20.159-4.9,20.147-4.891,20.129-4.885Zm-.362.059v-.03h.006l.006.024Zm-.143.137a.164.164,0,0,0,.03-.1c.006,0,.018.024.03.077a.089.089,0,0,0,.036-.042c-.036-.065-.053-.1-.059-.1l-.012.006c0-.006,0-.006-.006-.006s-.024.042-.042.113l.012.042Zm.8-.053a.1.1,0,0,1,.048-.089A.093.093,0,0,1,20.421-4.742Zm-.737.149h-.006v-.024h.012Zm-.006.042h-.024v-.012h.036C19.69-4.552,19.69-4.552,19.678-4.552Zm-.131.184c.042,0,.065-.036.065-.1,0-.006-.012-.012-.03-.018-.042,0-.059.024-.059.077Zm-.071.077c.006,0,.024-.042.042-.131h-.012c-.03.024-.048.042-.048.071A.194.194,0,0,0,19.476-4.291Zm-.083.368.012-.006L19.4-4.005l.024-.149c-.024,0-.048.077-.071.226l.012.006ZM18.983-3q-.009,0-.018-.036h.018Zm.339.024c-.006-.006-.012-.006-.03-.006a.364.364,0,0,1,.03-.036Zm-.1.018h-.012v-.03h.006Zm.077.309a.331.331,0,0,1-.077-.065.83.83,0,0,1,.083-.2q.027.009.036.053c0,.048-.006.1-.006.149A.141.141,0,0,1,19.3-2.651Zm-.172-.1H19.09a.8.8,0,0,1,.059-.166.147.147,0,0,1,.042.107C19.191-2.775,19.167-2.752,19.125-2.746Zm-.1-.012a.013.013,0,0,1-.012-.012V-2.8c.006-.03.018-.048.024-.048l.006.036A.248.248,0,0,1,19.024-2.758Zm.089.137c0-.03.018-.042.048-.042A.042.042,0,0,1,19.113-2.621Zm-.143.184c-.012-.006-.024-.018-.024-.024l.024-.036a.205.205,0,0,0-.018-.071.1.1,0,0,1,.018-.048c.03.018.042.036.042.053A.324.324,0,0,1,18.971-2.437Zm.226.79h-.006c-.024-.131-.036-.2-.036-.2-.018-.137-.024-.208-.036-.208a.064.064,0,0,0-.042.018H19.06a.539.539,0,0,0,.053-.137q.036,0,.089-.3L19.2-2.52c0-.053.036-.077.1-.077.012,0,.012.024.012.077l-.059.452a.368.368,0,0,1-.065.018v.012l.048.1Zm-.065-.891c0-.012-.006-.018-.012-.018l.012-.036c.006,0,.012.012.024.036Zm.089.071a.013.013,0,0,0,.012-.012c0-.012-.006-.012-.012-.018h-.006v.018Zm-.131.25h-.006c0-.03-.018-.053-.053-.083a.082.082,0,0,0,.053-.03c.006-.089.018-.137.048-.137A.688.688,0,0,1,19.09-2.217Zm1.937.226L21-2a1.9,1.9,0,0,1,.154-.178c.1-.137.16-.208.208-.22a.244.244,0,0,1-.042.071A4.122,4.122,0,0,0,21.027-1.991Zm-2.08-.154h-.024l.018-.25.036.1Zm-.048.083v-.03h.006c0,.012,0,.018.006.024Zm.155.1H19.03l.006-.012c.006,0,.012.006.018.006Zm5.084,1a1.792,1.792,0,0,0,1-.428,4.247,4.247,0,0,0,.66-.588,2.7,2.7,0,0,0,.844-1.6c.065-.024.184-.053.351-.1a2.671,2.671,0,0,0,.7-.244q0-.009-.036-.018a.188.188,0,0,1-.137.053,1.257,1.257,0,0,1-.279.077.112.112,0,0,1-.048-.012q.116-.062.553-.232a.43.43,0,0,0,.22-.065q.214-.045.214-.071L28.1-4.184l-.012.03a.1.1,0,0,1-.048-.018.428.428,0,0,1-.154.048.192.192,0,0,1-.107.036L27.762-4.1a.823.823,0,0,1-.184.042.409.409,0,0,1-.077-.012c-.006,0-.012,0-.012.012,0,.048-.071.083-.214.1a1.063,1.063,0,0,1-.285.065.21.21,0,0,1-.083-.018l.006-.018a.1.1,0,0,0,.059-.036l-.006-.006c-.071.006-.2.024-.392.059l-.042-.083a1.937,1.937,0,0,0-.38-.5,1.427,1.427,0,0,0-.547-.351l.012-.024q.16-.134.16-.214a.315.315,0,0,0-.065-.16.44.44,0,0,0-.315-.125h-.042a1.189,1.189,0,0,0-.725.392,4.8,4.8,0,0,0-.523.648,2.876,2.876,0,0,0-.547,1.177.082.082,0,0,0,.03.053.225.225,0,0,1-.065.19l-.012-.143H23.5l-.006.042a3.436,3.436,0,0,0-.2.98.979.979,0,0,0,.357.838A.662.662,0,0,0,24.137-.957Zm-.16-2.888-.024-.006v-.036c0-.006.036-.071.1-.19a2.244,2.244,0,0,1,.386-.582c.113-.16.2-.261.279-.285a.173.173,0,0,0-.03.059c-.053.053-.25.321-.588.79A1.145,1.145,0,0,1,23.977-3.845Zm1.4-.874h-.012v-.018h.006Zm.279.915a.682.682,0,0,1-.38-.1c-.107-.024-.16-.119-.16-.291,0-.125.024-.184.065-.184a.038.038,0,0,1,.03.036h.012v-.024a.289.289,0,0,1,.006-.071c-.006,0-.018.006-.036.024-.006,0-.012-.006-.018-.024.042-.113.077-.166.119-.166l.006.042H25.3a.177.177,0,0,1,.083-.03c.113,0,.267.1.469.3a1.18,1.18,0,0,1,.3.44A3.492,3.492,0,0,1,25.653-3.8Zm-.386-.131a1.109,1.109,0,0,1-.053-.362H25.2a.466.466,0,0,0-.012.131.473.473,0,0,0,.012.155c.024,0,.048.024.053.077Zm2.995-.273c.065-.006.1-.024.1-.059,0-.006-.018-.018-.048-.024s-.053.03-.059.077Zm-.077-.006c.006,0,.012-.006.012-.018s-.006-.012-.012-.018-.012.006-.012.018S28.178-4.213,28.184-4.213Zm.048.036a.036.036,0,0,0,.036-.018L28.2-4.213a.013.013,0,0,0-.012.012C28.2-4.184,28.208-4.178,28.232-4.178Zm-1.016.166.012-.006a.013.013,0,0,0-.012-.012h-.024C27.2-4.017,27.2-4.011,27.216-4.011Zm-.089.03.018-.006V-4l-.012-.018c-.018.006-.024.012-.024.03ZM24.155-1.4l-.178-.012a1.82,1.82,0,0,1-.077-.428,2.061,2.061,0,0,1,.16-.707,9.154,9.154,0,0,1,.368-.933,3.78,3.78,0,0,1,.3-.523.813.813,0,0,0,.059.16.9.9,0,0,0,.9.428,2.2,2.2,0,0,0,.44-.042,1.783,1.783,0,0,1-.351.749,3.668,3.668,0,0,0-.267.374.006.006,0,0,1,.006.006l.053-.018a1.519,1.519,0,0,1,.16-.143c.042.006.059.018.059.036q.045,0,.071-.071a3.641,3.641,0,0,0,.458-.957c0-.012.042-.024.113-.036h.006v.036a3.312,3.312,0,0,1-.238.642c-.083.107-.149.2-.208.285-.065.059-.1.107-.1.154-.042.012-.059.024-.059.036l.042.024v.006a.024.024,0,0,0-.012.024l-.018-.006c-.018,0-.024,0-.024.006-.059,0-.1.053-.113.166l-.071-.006a1.26,1.26,0,0,0-.083.125c-.048.024-.065.042-.065.065l.036.053a.232.232,0,0,0-.083-.012c-.137.071-.208.131-.208.178l.018.077a.153.153,0,0,0-.077-.053c-.012,0-.024.036-.042.113-.024-.018-.036-.03-.042-.03h-.071c.143-.16.22-.25.226-.261.065-.048.1-.083.1-.125-.018,0-.048.018-.089.059-.279.261-.481.392-.594.392A1.932,1.932,0,0,1,24.155-1.4Zm2.87-2.567v-.006L27-3.982A.006.006,0,0,1,27-3.976C27-3.97,27.008-3.97,27.025-3.97Zm.7.042.042-.006c0-.006,0-.012-.012-.018l-.036.012Zm-1.414.065h-.006l.006-.018Zm.291.012q.009-.018.018-.018Q26.612-3.851,26.6-3.851Zm-2.478.41v-.077c0-.006.012-.012.042-.03C24.167-3.477,24.149-3.441,24.126-3.441Zm-.244.475H23.87a.428.428,0,0,0,.048-.16h.065l-.006.042C23.965-3.007,23.935-2.966,23.882-2.966Zm-.226.683a.092.092,0,0,0-.018-.036,1.081,1.081,0,0,1,.065-.25c.03-.149.053-.226.077-.226a.6.6,0,0,1,.012.113.046.046,0,0,0-.042.048c0,.006.006.024.012.065l-.024.083C23.739-2.371,23.71-2.306,23.656-2.282Zm.16-.22.006-.059c.018.018.03.024.036.024v.012Zm.012.149a.144.144,0,0,1-.077-.024.348.348,0,0,0,.077-.083Zm1.515.327a.211.211,0,0,0,.1-.036c.172-.143.261-.267.261-.374h-.006l-.083.1a.12.12,0,0,1-.119.1.235.235,0,0,1-.042-.03.815.815,0,0,0-.113.16Zm-1.551-.25v-.048H23.8l.006.03C23.8-2.282,23.8-2.276,23.793-2.276Zm-.113.553a.292.292,0,0,1-.018-.071c.018-.143.03-.232.03-.256.024-.083.042-.137.042-.149l-.006-.036a.248.248,0,0,1,.053-.018,1.013,1.013,0,0,1-.018.22C23.745-1.825,23.721-1.724,23.68-1.724Zm-.113.214a.453.453,0,0,1-.089-.315,1.788,1.788,0,0,1,.048-.362c.065,0,.1.03.1.083s-.018.226-.053.505c.006.042.012.065.024.065C23.585-1.522,23.573-1.51,23.567-1.51ZM25.2-1.617c-.018-.006-.024-.012-.024-.024l.036.006a.022.022,0,0,1,.018-.006v.012C25.219-1.629,25.213-1.623,25.2-1.617Zm-.19.131V-1.5c0-.03.018-.042.059-.042A.053.053,0,0,1,25.011-1.486Zm-1.248.048h-.024l.006-.089h.018ZM30.9-5.794a1.368,1.368,0,0,0-.915.553,1.8,1.8,0,0,0-.511,1.111,1,1,0,0,0,.018.172l-.006.077.065.481a4.365,4.365,0,0,1,.107.487l-.018.154a.511.511,0,0,0,.065.208,6.536,6.536,0,0,1,.149.725c-.119.125-.273.267-.458.434a8.254,8.254,0,0,0-.642.618c-.38.4-.63.666-.749.778a6.011,6.011,0,0,1-.452.481A2.857,2.857,0,0,0,26.529,2.27a.858.858,0,0,0,.4.725,2.156,2.156,0,0,0,1.087.321h.042a2.7,2.7,0,0,0,1.515-.535,3.34,3.34,0,0,0,.541-.458A2.636,2.636,0,0,0,30.843.368V.261a6.49,6.49,0,0,0-.309-1.848A.022.022,0,0,1,30.54-1.6c.19-.16.434-.351.731-.565q1.185-.865,2.2-1.557a.353.353,0,0,0-.006-.065c.018-.024.03-.036.053-.036.042.006.059.012.065.012H33.6l.03-.113a.887.887,0,0,1,.166-.137v-.006a.5.5,0,0,0-.143.048.745.745,0,0,1-.267.2,1.315,1.315,0,0,1-.368.238h-.006c0-.018.03-.048.071-.083v-.006h-.042V-3.7c.012,0,.012-.006.012-.006a.3.3,0,0,0,.107-.048.036.036,0,0,1,.036.018c.012,0,.018-.012.018-.03a.174.174,0,0,0,.048-.113q.107-.053.107-.089a2.129,2.129,0,0,1,.315-.25v-.012c-.03,0-.083.036-.172.1l-.327.2c-.083.012-.137.024-.16.03-.25.166-.553.362-.9.594a17.989,17.989,0,0,1-1.812,1.087,3.485,3.485,0,0,1-.226-1.177,1.765,1.765,0,0,1,.671-1.486.216.216,0,0,1,.018.065V-4.8a.2.2,0,0,0-.042.077c.006,0,.006,0,.006.006a.233.233,0,0,0,.036-.012c.042-.012.131-.172.261-.481a3.363,3.363,0,0,1,.048-.434C31.081-5.747,31.022-5.794,30.9-5.794ZM29.786-4.338c.006,0,.012,0,.012.012v.012c0,.012-.006.012-.012.012Zm-.089.256c.006-.03.012-.048.018-.048a.6.6,0,0,1,.042-.131.013.013,0,0,1,.012.012v.024c-.03.184-.053.273-.077.273a.1.1,0,0,1,.012-.03A.827.827,0,0,0,29.7-4.083Zm3.684.012c-.006,0-.006,0-.006.012l.006.012c.006,0,.006-.006.006-.012Zm.125.059-.042.024a.013.013,0,0,0,.012.012h.006c.006,0,.012-.012.03-.024Zm-4,.048c.006,0,.018.006.042.012l-.006.03A.089.089,0,0,1,29.506-3.964Zm4.213.042c-.03.012-.042.018-.042.024s0,.012.012.012.03-.024.03-.03Zm-.4.048-.036.012v.018h.012c.012-.006.024-.018.024-.024Zm-.19.1a.2.2,0,0,0,.089-.059v.006a.165.165,0,0,1-.089.077Zm-3.369.131c.006-.042.018-.059.03-.059a1.4,1.4,0,0,0,.03.244,2.454,2.454,0,0,1,.077.386,1.809,1.809,0,0,1,.154.493l-.006.071a.128.128,0,0,0,.071.125c.006.018.018.107.042.256v.012a.113.113,0,0,1-.077.1l-.024-.018c0-.053-.024-.083-.071-.083-.006.006-.018.006-.036.006,0,.03-.012.048-.048.065-.012-.018-.024-.03-.024-.048V-2.11c.006-.012.042-.03.113-.053-.042-.107-.065-.16-.077-.16H29.9a.079.079,0,0,0-.042.018c-.024-.012-.036-.018-.036-.024a.375.375,0,0,0,.089-.2q.053-.036.053-.053a.6.6,0,0,0-.071-.244c0-.036-.024-.059-.077-.059H29.8a.013.013,0,0,0-.012.012v.077a.292.292,0,0,0,.006.065,1.033,1.033,0,0,1,.077.19h-.006c-.083,0-.137-.065-.16-.208a.608.608,0,0,1,.018-.065v-.006a.129.129,0,0,0-.024-.059c.125-.036.184-.077.184-.125s-.018-.071-.03-.071a.712.712,0,0,1-.048-.166c-.024-.006-.03-.03-.03-.077v-.131A.775.775,0,0,0,29.756-3.649Zm3.143.018h.018q.071,0,.071.053c0,.059.012.083.042.083a2.182,2.182,0,0,1-.452.291h-.006v-.006a2.811,2.811,0,0,0,.321-.273v-.012h-.006a1.5,1.5,0,0,1-.22.119.268.268,0,0,1,.012-.048c.083-.048.119-.083.119-.119v-.036a.057.057,0,0,1,.053.036.086.086,0,0,0,.048-.077Zm.273.012h.018c0,.012-.006.012-.012.012h-.012v-.006Zm-3.5.458h.012c.006,0,.012.024.024.065,0,.012-.012.024-.03.03V-3.09Zm1.9.291h.006l-.018.024a5.676,5.676,0,0,1-.909.743c-.071.083-.131.125-.166.125h-.024c-.012-.006-.018-.018-.018-.048v-.006a.479.479,0,0,1,.053-.113c-.012-.006-.012-.012-.012-.018v-.024c0-.018.006-.03.024-.03a1.031,1.031,0,0,1,.107.006c.036-.012.048-.024.048-.036a.14.14,0,0,1,.125-.071v-.006c0-.006-.012-.018-.042-.03l.006-.03h.03C31.277-2.686,31.538-2.847,31.568-2.87Zm-.642.814a.067.067,0,0,1,.053-.059c.03.006.042.012.042.024v.006a.108.108,0,0,1-.1.048Zm-.22.024a.013.013,0,0,1,.012-.012l.03.006v.006a.022.022,0,0,0-.018.006Zm.131.053c0-.006,0-.012.012-.012a.013.013,0,0,1,.012.012v.006q-.009.018-.018.018h-.006Zm.036-.006h.012v.006h-.012Zm-.143.024c.036.006.053.018.053.048v.006a.222.222,0,0,1-.059-.036v-.006Zm-.576.172c.006-.03.012-.048.024-.048s.018.018.03.053c0,.006-.006.03-.012.065C30.178-1.718,30.166-1.741,30.154-1.789ZM27.3,1.265A1.817,1.817,0,0,1,27.67.713,5.006,5.006,0,0,0,28.1.2a1.136,1.136,0,0,0,.2-.267,1.22,1.22,0,0,1,.285-.3,3.106,3.106,0,0,0,.333-.38,2.824,2.824,0,0,1,.333-.309c.315-.38.517-.57.612-.57.042.006.059.024.059.059v.024a.089.089,0,0,1-.012.059.452.452,0,0,1-.143.238c-.048,0-.214.166-.511.505-.077.03-.113.053-.113.065a1.136,1.136,0,0,1-.333.3c-.048,0-.1.059-.143.184l-.232.273-.463.505A5.371,5.371,0,0,1,27.3,1.265Zm2.959-2.6a.889.889,0,0,1,.107.172v.006a.435.435,0,0,1-.071.053.238.238,0,0,1,.042.083v.03a.022.022,0,0,0-.018.006l.024.172V-.8l-.006.071a.424.424,0,0,0-.083-.036.072.072,0,0,1-.036.053h-.012A.189.189,0,0,1,30.148-.8l-.03.024H30.1V-.82a.122.122,0,0,1,.113-.071h.024l.006.03v.006l-.018.024v.024c.006.006.012.012.018.012h.048L30.3-.8a.115.115,0,0,0-.018-.059,1.17,1.17,0,0,0-.065-.374H30.2c-.03.077-.071.119-.137.119v-.006l.006-.03a.143.143,0,0,0,.089-.036A.506.506,0,0,1,30.261-1.337Zm-.1.226h.042a.022.022,0,0,0,.006.018v.012L30.2-1.088H30.2a.482.482,0,0,0,.03.083V-1c-.053,0-.077-.018-.077-.053v-.006A.248.248,0,0,1,30.166-1.112ZM29.607-.9c.107-.125.2-.184.261-.184h.024a.08.08,0,0,1,.071.053l.059.4c-.006.053-.012.1-.012.131a.578.578,0,0,0,.036.089c-.018.3-.024.475-.024.523,0,.024.006.071.012.143a.447.447,0,0,1-.042.166A2.809,2.809,0,0,1,29.887,1a2.571,2.571,0,0,1-.208.505,3.479,3.479,0,0,1-1.07,1.165,2.588,2.588,0,0,1-.9.279h-.018l-.012.006a.006.006,0,0,0-.006-.006h-.03c-.024,0-.053-.006-.077-.006a.33.33,0,0,1-.273-.368V2.561a2.757,2.757,0,0,1,.493-1.272c.3-.38.594-.719.874-1.028a6.076,6.076,0,0,0,.529-.582c.113-.1.172-.154.172-.178V-.505a.274.274,0,0,1-.077-.1l.166-.143a.1.1,0,0,1,.036.065.136.136,0,0,0-.089.119l.006.012c.024,0,.083-.053.166-.166q-.009-.018-.018-.018H29.53l-.012.006-.012-.024V-.761h.024c.089,0,.143-.024.166-.077.107-.077.16-.131.16-.154a.036.036,0,0,0-.018-.036l-.03.006c-.077.089-.125.131-.149.131h-.012Zm-.119.065.036-.012.012.006c0,.03-.006.042-.024.042l-.024-.03Zm.618.083.042.006h.012c0,.006-.012.042-.036.119.012.048.024.071.042.071h.006c.012,0,.03-.036.048-.113h.006a.546.546,0,0,1,.036.2v.012l-.006.036-.03-.024c-.071-.018-.107-.048-.107-.077a.233.233,0,0,0,.012-.036l-.053-.053.036-.048V-.678A.084.084,0,0,0,30.1-.713Zm.172.119c.03-.03.048-.048.053-.048a.349.349,0,0,1,.071.125c-.03.119-.048.178-.048.19a.391.391,0,0,0,.053.154.806.806,0,0,1-.006.107c.006.083.006.137.006.166a.179.179,0,0,1-.024.077c-.006,0-.012-.012-.03-.03-.018-.1-.03-.154-.042-.154h-.006A.118.118,0,0,1,30.3,0,1.2,1.2,0,0,1,30.3.136V.148c0,.03-.036.053-.107.065.006.042.012.065.012.077h.012V.267A.071.071,0,0,1,30.243.22c.024,0,.036.048.042.149V.433a.563.563,0,0,1-.024.178.373.373,0,0,1-.077-.149.139.139,0,0,0,.042-.077V.38c-.083-.042-.131-.071-.131-.1a.218.218,0,0,1,.1-.143.221.221,0,0,0,.053-.172q0-.036-.018-.036h-.042c-.012,0-.012.006-.012.012v.036h-.006q-.018,0-.018-.036l.006-.012c.065-.012.1-.024.1-.036V-.179l.024.018c0,.048.018.065.053.065.012,0,.018-.018.024-.065,0-.012-.012-.1-.03-.261a.12.12,0,0,1,.018-.065c-.036-.083-.059-.125-.059-.131Zm-1.034.083c.024,0,.048.018.065.053v.006H29.3q-.036,0-.053-.053Zm-.184.2c.006-.03.018-.048.024-.048h.042c0,.036-.024.048-.059.048Zm1.07-.006h.006c.03.024.048.048.048.059l-.012.036A.057.057,0,0,1,30.112-.3.248.248,0,0,1,30.13-.357Zm-1.194.172c0-.024.018-.048.059-.071V-.25c-.03.042-.048.065-.053.065Zm1.284.844a.184.184,0,0,1,.048.012l-.006.042V.8c-.006.018-.018.03-.024.03h-.006a.466.466,0,0,1-.012-.083ZM29.2,2.365h.042l-.024.03C29.215,2.394,29.209,2.388,29.2,2.365Zm-.82.5a.332.332,0,0,1,.22-.107h.006v.012c0,.042-.077.071-.226.1ZM35.44-.957a1.792,1.792,0,0,0,1-.428,4.247,4.247,0,0,0,.66-.588,2.7,2.7,0,0,0,.844-1.6c.065-.024.184-.053.351-.1a2.671,2.671,0,0,0,.7-.244q0-.009-.036-.018a.188.188,0,0,1-.137.053,1.257,1.257,0,0,1-.279.077.112.112,0,0,1-.048-.012q.116-.062.553-.232a.43.43,0,0,0,.22-.065q.214-.045.214-.071L39.4-4.184l-.012.03a.1.1,0,0,1-.048-.018.428.428,0,0,1-.154.048.192.192,0,0,1-.107.036L39.064-4.1a.823.823,0,0,1-.184.042.409.409,0,0,1-.077-.012c-.006,0-.012,0-.012.012,0,.048-.071.083-.214.1a1.063,1.063,0,0,1-.285.065.21.21,0,0,1-.083-.018l.006-.018a.1.1,0,0,0,.059-.036l-.006-.006c-.071.006-.2.024-.392.059l-.042-.083a1.937,1.937,0,0,0-.38-.5,1.427,1.427,0,0,0-.547-.351l.012-.024q.16-.134.16-.214a.315.315,0,0,0-.065-.16.44.44,0,0,0-.315-.125h-.042a1.189,1.189,0,0,0-.725.392,4.8,4.8,0,0,0-.523.648,2.876,2.876,0,0,0-.547,1.177.082.082,0,0,0,.03.053.225.225,0,0,1-.065.19l-.012-.143H34.8l-.006.042a3.436,3.436,0,0,0-.2.98.979.979,0,0,0,.357.838A.662.662,0,0,0,35.44-.957Zm-.16-2.888-.024-.006v-.036c0-.006.036-.071.1-.19a2.244,2.244,0,0,1,.386-.582c.113-.16.2-.261.279-.285a.173.173,0,0,0-.03.059c-.053.053-.25.321-.588.79A1.145,1.145,0,0,1,35.279-3.845Zm1.4-.874h-.012v-.018h.006Zm.279.915a.682.682,0,0,1-.38-.1c-.107-.024-.16-.119-.16-.291,0-.125.024-.184.065-.184a.038.038,0,0,1,.03.036h.012v-.024a.289.289,0,0,1,.006-.071c-.006,0-.018.006-.036.024-.006,0-.012-.006-.018-.024.042-.113.077-.166.119-.166l.006.042H36.6a.177.177,0,0,1,.083-.03c.113,0,.267.1.469.3a1.18,1.18,0,0,1,.3.44A3.492,3.492,0,0,1,36.955-3.8Zm-.386-.131a1.109,1.109,0,0,1-.053-.362H36.5a.466.466,0,0,0-.012.131.473.473,0,0,0,.012.155c.024,0,.048.024.053.077Zm2.995-.273c.065-.006.1-.024.1-.059,0-.006-.018-.018-.048-.024s-.053.03-.059.077Zm-.077-.006c.006,0,.012-.006.012-.018s-.006-.012-.012-.018-.012.006-.012.018S39.48-4.213,39.486-4.213Zm.048.036a.036.036,0,0,0,.036-.018L39.5-4.213a.013.013,0,0,0-.012.012C39.5-4.184,39.51-4.178,39.534-4.178Zm-1.016.166.012-.006a.013.013,0,0,0-.012-.012h-.024C38.5-4.017,38.506-4.011,38.518-4.011Zm-.089.03.018-.006V-4l-.012-.018c-.018.006-.024.012-.024.03ZM35.457-1.4l-.178-.012a1.819,1.819,0,0,1-.077-.428,2.061,2.061,0,0,1,.16-.707,9.155,9.155,0,0,1,.368-.933,3.78,3.78,0,0,1,.3-.523.812.812,0,0,0,.059.16.9.9,0,0,0,.9.428,2.2,2.2,0,0,0,.44-.042,1.783,1.783,0,0,1-.351.749,3.669,3.669,0,0,0-.267.374.006.006,0,0,1,.006.006l.053-.018a1.519,1.519,0,0,1,.16-.143c.042.006.059.018.059.036q.045,0,.071-.071a3.641,3.641,0,0,0,.458-.957c0-.012.042-.024.113-.036h.006v.036a3.312,3.312,0,0,1-.238.642c-.083.107-.149.2-.208.285-.065.059-.1.107-.1.154-.042.012-.059.024-.059.036l.042.024v.006a.024.024,0,0,0-.012.024l-.018-.006c-.018,0-.024,0-.024.006-.059,0-.1.053-.113.166l-.071-.006a1.26,1.26,0,0,0-.083.125c-.048.024-.065.042-.065.065l.036.053a.232.232,0,0,0-.083-.012c-.137.071-.208.131-.208.178l.018.077a.153.153,0,0,0-.077-.053c-.012,0-.024.036-.042.113-.024-.018-.036-.03-.042-.03h-.071c.143-.16.22-.25.226-.261.065-.048.1-.083.1-.125-.018,0-.048.018-.089.059-.279.261-.481.392-.594.392A1.932,1.932,0,0,1,35.457-1.4Zm2.87-2.567v-.006L38.3-3.982a.006.006,0,0,1-.006.006C38.3-3.97,38.31-3.97,38.327-3.97Zm.7.042.042-.006c0-.006,0-.012-.012-.018l-.036.012Zm-1.414.065h-.006l.006-.018Zm.291.012q.009-.018.018-.018Q37.914-3.851,37.906-3.851Zm-2.478.41v-.077c0-.006.012-.012.042-.03C35.469-3.477,35.451-3.441,35.428-3.441Zm-.244.475h-.012a.428.428,0,0,0,.048-.16h.065l-.006.042C35.267-3.007,35.237-2.966,35.184-2.966Zm-.226.683a.092.092,0,0,0-.018-.036,1.081,1.081,0,0,1,.065-.25c.03-.149.053-.226.077-.226a.6.6,0,0,1,.012.113.046.046,0,0,0-.042.048c0,.006.006.024.012.065l-.024.083C35.041-2.371,35.012-2.306,34.958-2.282Zm.16-.22.006-.059c.018.018.03.024.036.024v.012Zm.012.149a.144.144,0,0,1-.077-.024.348.348,0,0,0,.077-.083Zm1.515.327a.211.211,0,0,0,.1-.036C36.913-2.2,37-2.33,37-2.437H37l-.083.1a.12.12,0,0,1-.119.1.235.235,0,0,1-.042-.03.815.815,0,0,0-.113.16Zm-1.551-.25v-.048H35.1l.006.03C35.107-2.282,35.1-2.276,35.095-2.276Zm-.113.553a.292.292,0,0,1-.018-.071c.018-.143.03-.232.03-.256.024-.083.042-.137.042-.149l-.006-.036a.248.248,0,0,1,.053-.018,1.012,1.012,0,0,1-.018.22C35.047-1.825,35.024-1.724,34.982-1.724Zm-.113.214a.453.453,0,0,1-.089-.315,1.788,1.788,0,0,1,.048-.362c.065,0,.1.03.1.083s-.018.226-.053.505c.006.042.012.065.024.065C34.887-1.522,34.875-1.51,34.869-1.51ZM36.5-1.617c-.018-.006-.024-.012-.024-.024l.036.006a.022.022,0,0,1,.018-.006v.012C36.521-1.629,36.515-1.623,36.5-1.617Zm-.19.131V-1.5c0-.03.018-.042.059-.042A.053.053,0,0,1,36.313-1.486Zm-1.248.048h-.024l.006-.089h.018ZM42.211-5.5a.166.166,0,0,1-.059.006.824.824,0,0,0-.333.125,12.468,12.468,0,0,0-1,2.068c-.327.9-.523,1.42-.576,1.551-.125.357-.25.671-.362.945-.077.2-.16.44-.25.719-.208.594-.345,1.022-.416,1.3-.131.666-.2,1.046-.2,1.135v.018c0,.2.16.291.475.291a.427.427,0,0,0,.131-.024.182.182,0,0,0,.071-.077,2.274,2.274,0,0,1,.143-.517c.178-.493.44-1.105.778-1.842.125-.232.232-.452.327-.654a2.1,2.1,0,0,1,.149-.327c.048.059.077.083.089.083,0,.03.119.059.362.1h.024a2.12,2.12,0,0,0,.879-.547,9.613,9.613,0,0,0,.8-.749A7.33,7.33,0,0,0,44-2.894a2.839,2.839,0,0,1,1.177-.357.4.4,0,0,1,.273.083.373.373,0,0,1,.065.267v.006a.03.03,0,0,0,.03.024q.089-.018.089-.16v-.042a.367.367,0,0,0-.012-.107.593.593,0,0,0-.63-.44H44.95a.793.793,0,0,0-.208.018.033.033,0,0,0,.012.03c0,.012-.018.03-.048.053a.393.393,0,0,1,.006-.065.026.026,0,0,1-.006-.018,2.493,2.493,0,0,0-.351.1H44.35a2.537,2.537,0,0,0,.315-1,.838.838,0,0,0-.172-.523.866.866,0,0,0-.7-.345.744.744,0,0,0-.3.065,1.679,1.679,0,0,0-.505.41,7.686,7.686,0,0,0-.7.986c-.1.19-.178.333-.244.434q0,.036-.41.82a4.646,4.646,0,0,1-.232.452,1.551,1.551,0,0,1-.226.392,3.259,3.259,0,0,1-.345.683,1.482,1.482,0,0,1-.22.422V-.713c.16-.481.41-1.147.743-1.991a13.843,13.843,0,0,1,.879-1.985,1.7,1.7,0,0,0,.291-.57V-5.3a.128.128,0,0,0-.036-.077A.436.436,0,0,0,42.211-5.5Zm1.242.351q.009-.018.018-.018h.012c-.012.018-.024.03-.03.03Zm-.226.166V-5a.332.332,0,0,1,.19-.131h.006v.006c-.077.1-.143.137-.19.137Zm-.131.392c.03,0,.059-.024.089-.077.261-.3.475-.44.648-.44a.23.23,0,0,1,.2.065v.083a.646.646,0,0,1,.083.273v.166a3.131,3.131,0,0,1-.321.832,5.1,5.1,0,0,0-.291.428c-.089.149-.166.232-.22.25-.018.012-.1.048-.226.107a1.261,1.261,0,0,0-.226.143,5.166,5.166,0,0,0-.475.3,6.9,6.9,0,0,0-.719.588,1.734,1.734,0,0,0,.119-.25c.1-.232.166-.368.19-.41.036-.065.143-.256.315-.576.119-.25.184-.392.19-.422a.958.958,0,0,0,.143-.244,2.8,2.8,0,0,0,.16-.3.667.667,0,0,0,.1-.137A1.643,1.643,0,0,0,43-4.439c.036-.03.059-.053.059-.077s-.012-.018-.018-.018c-.024,0-.03.006-.03.012a.193.193,0,0,1-.1.107.714.714,0,0,1-.16.214.381.381,0,0,1-.1.166.725.725,0,0,1-.137.232,5.249,5.249,0,0,1-.3.576.156.156,0,0,1-.065.149,1.778,1.778,0,0,0-.172.357.458.458,0,0,0-.1.2,1.178,1.178,0,0,0-.149.279,2.435,2.435,0,0,1-.226.422.606.606,0,0,1-.178.261l.452-.885a.386.386,0,0,1,.077-.16c.178-.327.285-.547.333-.66.166-.321.267-.5.291-.529A.507.507,0,0,1,42.6-4a1.591,1.591,0,0,1,.178-.327.712.712,0,0,0,.178-.22c.107-.125.178-.184.2-.184v.006a.045.045,0,0,1-.006.024.265.265,0,0,0-.059.089v.018ZM40.262.481,40.285.35l.131-.291a5.347,5.347,0,0,0,.327-.66.728.728,0,0,1,.113-.279.769.769,0,0,1,.137-.362.865.865,0,0,1,.1-.22,1.443,1.443,0,0,1,.178-.315,4.052,4.052,0,0,1,.256-.481,1.369,1.369,0,0,1,.125-.273,3.042,3.042,0,0,1,.154-.315,1,1,0,0,1,.16-.291,3.231,3.231,0,0,1,.208-.4l.2-.4a.157.157,0,0,0,.083-.125,1.009,1.009,0,0,0,.107-.184c.071-.083.143-.172.214-.273q0-.08.178-.214.214-.232.25-.232,0,.045-.071.107a1.325,1.325,0,0,1-.178.178.691.691,0,0,1-.155.214l-.333.535c-.077.154-.113.238-.119.244-.042.059-.16.3-.362.7a1,1,0,0,0-.16.285c-.042.077-.119.22-.226.44-.083.2-.137.3-.154.3a.48.48,0,0,1-.1.172,2.175,2.175,0,0,1-.137.3,1.075,1.075,0,0,0-.19.416l.006.012-.006.006V-1h-.006v-.012H41.01L41-.981h.006l.018-.012.012.077L41.016-.9A.073.073,0,0,1,41-.921a.022.022,0,0,0,.006-.018L41-.969h-.018a.283.283,0,0,1-.089.113l-.1.2a2.939,2.939,0,0,0-.125.291c-.059.125-.113.25-.154.362a1.492,1.492,0,0,0-.19.351A.323.323,0,0,1,40.262.481Zm2.8-5.063v.018h.006l.012-.006c0-.006,0-.012-.012-.012ZM44.38-4.1c.006,0,.012.006.018.024a.263.263,0,0,1-.059.143v-.018C44.362-4.041,44.38-4.089,44.38-4.1Zm-.119.838h.006c0-.012.024-.024.065-.048a4.8,4.8,0,0,1,.654-.208h.024a.434.434,0,0,1,.41.166v.006a.059.059,0,0,0-.036-.012,2.117,2.117,0,0,0-.273-.125h-.018l-.036.006c-.024.03-.042.042-.048.042a1.051,1.051,0,0,1-.137.024l-.024-.048a.148.148,0,0,0-.048.006.78.78,0,0,0-.208.131h-.018a.14.14,0,0,1-.048-.012l-.006.012v.03c-.006,0-.012,0-.012.006a.919.919,0,0,0-.238.059.065.065,0,0,0-.024-.012.161.161,0,0,0-.048.018H44.2a.116.116,0,0,0,.03-.053A.044.044,0,0,1,44.261-3.263ZM44.3-3.4c0-.018.024-.036.065-.048l.089-.042h.012c.012.012.018.018.018.024a.151.151,0,0,1-.042.012A.381.381,0,0,1,44.3-3.4Zm.493.006q.009-.018.018-.018h.012v.006c0,.012-.012.018-.03.018Zm-.4,0h.006v.012h-.006ZM41.3-3.227q0-.036.071-.036l.012.024c-.006.024-.018.03-.042.03A.155.155,0,0,1,41.3-3.227Zm-.458,1.052.012-.03a.326.326,0,0,0,.077-.19l.2-.452c.077-.22.143-.333.19-.333a.046.046,0,0,0,.018.006v.024l-.059.036a.092.092,0,0,1,.018.036.468.468,0,0,0-.024.131.088.088,0,0,0-.077.036v.048a.055.055,0,0,1-.042.053.3.3,0,0,1,.012.053v.006a.036.036,0,0,1-.018.036c-.042.119-.077.22-.107.3l-.107.154.012.053a1.859,1.859,0,0,1-.089.22c-.018,0-.024,0-.03-.006s0,.006-.006.006c.012.059.024.1.024.107l-.006.024c-.036,0-.071.083-.113.238l.006.012.03-.006V-1.6a.258.258,0,0,1-.048.119L40.684-1.5c-.012.012-.018.012-.018.018-.048.024-.071.036-.071.042v.006a.048.048,0,0,0,.024.048v.024a1.981,1.981,0,0,0-.119.357V-1h.012a.32.32,0,0,1,.053-.1h.006V-1.1a4.683,4.683,0,0,1-.285.8A7.956,7.956,0,0,1,39.869.814c-.042,0-.065.036-.083.113a.4.4,0,0,1-.119.226c-.024.071-.042.107-.065.107H39.6l.006-.03a.238.238,0,0,0,.048-.119c.053-.172.089-.285.1-.327,0-.012-.006-.018-.012-.018h-.006c-.03.018-.048.036-.048.059a.971.971,0,0,0-.065.154v.089a.064.064,0,0,1-.018.042c-.024.024-.042.042-.042.059v.018a.925.925,0,0,1-.006.119,1.631,1.631,0,0,0-.059.214,2.209,2.209,0,0,0-.143.446.381.381,0,0,1,.03.065c-.036.208-.065.309-.089.309h-.012l-.012-.006c.024-.03.036-.042.036-.053a.409.409,0,0,0-.012-.107c.012-.089.018-.149.018-.172a4.864,4.864,0,0,1,.16-.707.867.867,0,0,1,.1-.339.673.673,0,0,1,.071-.232,6.8,6.8,0,0,1,.226-.689c.018-.083.042-.131.059-.131A3.021,3.021,0,0,1,40.1-.583a.678.678,0,0,1,.083-.244,1.81,1.81,0,0,1,.089-.214,2.032,2.032,0,0,1,.16-.446.125.125,0,0,1,.036.048h.018a.161.161,0,0,1,.018-.048.18.18,0,0,0-.036-.053v-.006a.642.642,0,0,0,.048-.154q.071-.036.071-.071v-.053a.16.16,0,0,1,.024-.077.512.512,0,0,1,.03-.113.1.1,0,0,0,.083-.113,2.968,2.968,0,0,1,.107-.368c.03-.024.048-.048.048-.065v-.012a.038.038,0,0,1,.03.012l.012-.006a.046.046,0,0,1,.018.006.676.676,0,0,1-.089.273.49.49,0,0,1-.089.208v.024c.012.018.018.024.024.024H40.8a.325.325,0,0,0,.053-.077C40.85-2.128,40.844-2.146,40.844-2.175Zm2.306-.654a.022.022,0,0,0,.006-.018c0-.012.036-.042.107-.077h.006a.49.49,0,0,1-.083.1h-.024Zm-.077.048.042-.053h.024v.006c0,.03-.018.048-.059.053h-.006Zm-2.08,0c.012,0,.012.006.012.012v.006L41-2.752l-.012-.006Zm2,.006.059.006v.006a.2.2,0,0,1-.1.065v-.024A.072.072,0,0,0,43-2.775Zm-.119.119c0-.024.018-.036.048-.042v.036c-.006,0-.012,0-.024.012h-.012Zm.636.006q.018.009.018.018v.006a.022.022,0,0,0-.018.006h-.006A.044.044,0,0,0,43.512-2.651Zm-.553.077h.024v.012h-.012c-.006,0-.012,0-.012-.006Zm-1.777.012c.006,0,.012,0,.012.006v.03c0,.006-.006.012-.024.018v-.018Zm2.211.083c0-.012,0-.018.012-.018h.018v.03L43.4-2.46A.026.026,0,0,1,43.393-2.478Zm-.315.374c.012,0,.012.006.012.012v.006c0,.006-.006.012-.024.018H43.06A.092.092,0,0,0,43.078-2.1ZM41.5-1.159a1.352,1.352,0,0,1,.125-.178,7,7,0,0,1,.945-.731,1.681,1.681,0,0,0-.232.232,2.449,2.449,0,0,0-.309.273,1.568,1.568,0,0,0-.172.125,2.767,2.767,0,0,1-.351.279Zm-.648-.885v.012h.012v-.012Zm2.074.119h.006v.006c0,.036-.03.065-.083.1h-.012l.018-.036C42.9-1.9,42.924-1.92,42.924-1.926Zm-2.187.012q-.009,0-.018.036v.006h.012a.013.013,0,0,0,.012-.012v-.03Zm.089.119q.018.009.018.018v.012a.238.238,0,0,1-.059.107h-.006A.629.629,0,0,1,40.826-1.795Zm1.89.065c0-.018.03-.036.077-.059H42.8c0,.006,0,.006-.006.006,0,.048-.024.071-.071.089h-.006Zm-1.979-.053a.064.064,0,0,0-.024.03c.006.018.006.024.018.024h.006c.006,0,.012-.006.018-.024l-.006-.03Zm-.309.018a.022.022,0,0,0,.018.006.358.358,0,0,1-.071.149l-.012-.006C40.4-1.688,40.416-1.736,40.428-1.765Zm-.083.184h.012v.024h-.006a.022.022,0,0,0-.006-.018Zm.368-.006c-.012.006-.024.018-.024.024v.012l.012.018c.018-.006.024-.012.024-.018v-.024A.013.013,0,0,0,40.713-1.587ZM40.3-1.5c0-.03.018-.048.053-.048v.006a.063.063,0,0,1-.048.065H40.3Zm2.026,0a.061.061,0,0,1,.036-.03h.012c0,.006-.018.018-.042.03Zm.042.107.006-.012a.207.207,0,0,1,.1-.083h.012c-.048.065-.083.1-.107.1Zm-1.735.1a.187.187,0,0,1,.059-.143.164.164,0,0,1-.006.053.6.6,0,0,0-.048.1h-.006Zm-.1-.137q-.018.009-.018.018v.012l.006.012c.012-.006.024-.018.024-.024v-.018Zm-.327.273c.006-.024.012-.03.018-.03a.274.274,0,0,1,.065-.2v.012a.48.48,0,0,1-.077.232A.021.021,0,0,1,40.208-1.165Zm.38,0a.136.136,0,0,1,.048-.125c-.018.089-.036.131-.048.131Zm-.63.57a1.226,1.226,0,0,1,.113-.238.611.611,0,0,1,.119-.273v.024c-.089.261-.131.4-.131.41a5.146,5.146,0,0,0-.172.505.471.471,0,0,0-.059.125c-.083.261-.16.487-.232.683a5.931,5.931,0,0,1-.232.7h-.006l-.006-.036a.787.787,0,0,1,.053-.2c.024-.059.089-.285.2-.677a2.69,2.69,0,0,0,.083-.261,1.1,1.1,0,0,0,.077-.214.915.915,0,0,1,.137-.333.348.348,0,0,1,.059-.2A.022.022,0,0,0,39.959-.595Zm1.747-.357c.024,0,.03.006.03.018l-.03.006Zm-.879.463V-.535A1.038,1.038,0,0,1,41-.85a.1.1,0,0,1-.036.071.155.155,0,0,1-.048.131c-.042.107-.065.16-.083.16ZM40.8-.44h.006v.006a.242.242,0,0,1-.077.149V-.309A.283.283,0,0,1,40.8-.44Zm-.677.089c-.006,0-.012.018-.024.048a.013.013,0,0,0,.012.012c.018-.012.024-.018.024-.024V-.321l-.006-.03Zm.428.434a.1.1,0,0,1,.036-.077c.03-.113.059-.166.071-.166a.234.234,0,0,0,.012.036A.5.5,0,0,1,40.6,0C40.594.053,40.577.083,40.553.083Zm-.048.089c.006-.018.018-.024.024-.024h.006a.036.036,0,0,0,.006.024c-.018.012-.024.024-.03.024h-.006Zm-.059.137a.059.059,0,0,1,.03-.042h.006a.107.107,0,0,0-.024.048ZM39.887.3c-.006,0-.012.012-.018.024s.012.024.018.024h.006L39.9.321V.315C39.9.309,39.893.309,39.887.3Zm.119.03a.013.013,0,0,0-.012.012V.356H40c.012,0,.012,0,.012-.012Zm-.143.036c-.018,0-.036.036-.059.107V.481q.009.018.018.018h.012c.012,0,.024-.036.042-.107V.38A.013.013,0,0,0,39.863.368Zm.285.4a.013.013,0,0,1,.012.012c0,.018-.018.042-.042.077A.3.3,0,0,1,40.149.772Zm-.9,1.61q0-.009.036-.018h.006c.006,0,.012.012.018.03s-.012.024-.036.024-.018-.006-.024-.006Zm10.7-12.919a.858.858,0,0,0-.107.071.548.548,0,0,0-.25.208.179.179,0,0,1,.042.083l-.048.053c-.071.166-.214.523-.422,1.07a2.166,2.166,0,0,0-.184.535,5.253,5.253,0,0,0-.291.826,11.679,11.679,0,0,0-.351,1.141,2.269,2.269,0,0,0-.113.374A1.567,1.567,0,0,0,48.138-6a.462.462,0,0,1-.059.214.74.74,0,0,1-.071.184q-.116.339-.125.392c0,.006.006.012.006.018h.006a.246.246,0,0,1,.059-.125c.024-.107.053-.16.083-.16.006,0,.006.012.012.048a.183.183,0,0,0-.006.059,2.659,2.659,0,0,0-.131.345h-.059c-.006,0-.018.024-.048.077a1.656,1.656,0,0,0-.119.345L47.7-4.6H47.7c.018-.077.048-.119.071-.119l.012.006a1.8,1.8,0,0,1-.036.2.945.945,0,0,1-.125.3.5.5,0,0,1-.083.25c-.018.113-.048.172-.1.172,0,.012.006.042.012.089-.012.036-.018.053-.03.053s-.03-.006-.03-.018l.042-.149a.9.9,0,0,0,.071-.19c-.036,0-.059.012-.059.042a1.748,1.748,0,0,0-.154.458.022.022,0,0,0,.006.018c.024,0,.048-.048.077-.137h.036a1.93,1.93,0,0,1-.077.279,1.2,1.2,0,0,1-.143.374c-.059.006-.089.018-.089.03s.03.024.077.03a.406.406,0,0,0-.053.2v.048l-.03.006h-.03v-.018c0-.006-.006-.018-.03-.024S47-2.68,47-2.627v.018h.065c0,.036-.012.107-.024.2h.006a.051.051,0,0,0,.036-.018c.1-.279.16-.452.19-.511.03-.083.065-.2.113-.351a2.11,2.11,0,0,1,.1-.267,1.564,1.564,0,0,1,.172-.44,2.265,2.265,0,0,1,.113-.392q.053-.116.374-1.034A3.373,3.373,0,0,1,48.364-6a.7.7,0,0,0,.077-.238l.1-.25q.062-.276.107-.3c.012-.125.042-.184.089-.184a1.8,1.8,0,0,1-.065.172.669.669,0,0,1-.083.285l-.452,1.325a4,4,0,0,1-.232.654,5.6,5.6,0,0,0-.178.594c-.053.143-.113.357-.19.642-.03,0-.071.107-.119.321,0,.006,0,.012.006.012a.519.519,0,0,0,.149-.22q.053-.2.071-.2a.648.648,0,0,0,.1-.256.874.874,0,0,0,.053-.16c0-.006,0-.012-.012-.012h-.03l.006-.059.042.012h.024c.012,0,.03-.042.048-.119a1.514,1.514,0,0,1,.089-.321,2.166,2.166,0,0,0,.125-.3v-.024l-.006-.012-.024.012c-.006,0-.012-.006-.012-.03v-.012c.053,0,.1-.059.125-.166a.563.563,0,0,1,.1-.273,2.555,2.555,0,0,1,.125-.38.26.26,0,0,1,.077-.19,1.571,1.571,0,0,1,.089-.226c.024-.1.059-.214.107-.351a1.359,1.359,0,0,0,.166-.481c0-.03.024-.059.059-.1a1.554,1.554,0,0,1,.1-.285.993.993,0,0,1,.137-.345c.048-.166.089-.291.119-.368a.584.584,0,0,0,.083-.238h.012l.012.042a.252.252,0,0,1-.012.065A3.44,3.44,0,0,0,49.2-7.6a2.615,2.615,0,0,0-.143.374,4.485,4.485,0,0,1-.208.624c-.048.2-.077.291-.1.291a1.87,1.87,0,0,1-.077.238c-.042.083-.154.4-.351.951a3.934,3.934,0,0,1-.2.6,4.032,4.032,0,0,1-.16.452c-.089.208-.327.9-.707,2.1a4.391,4.391,0,0,0-.184.63,3.148,3.148,0,0,0-.113.321.553.553,0,0,1-.1.25,3.081,3.081,0,0,0-.3.588h-.006V-.191a.472.472,0,0,1,.03-.089.061.061,0,0,0-.048-.03A2.519,2.519,0,0,0,46.391,0h-.006V-.006c.012-.1.018-.166.024-.2L46.4-.214a.445.445,0,0,1,.042-.131A1.577,1.577,0,0,1,46.551-.7a.3.3,0,0,0-.024-.1s.024-.03.065-.077a.688.688,0,0,1,.1-.261c-.059-.048-.089-.083-.089-.113a.523.523,0,0,0,.048-.19v-.053h.006a.05.05,0,0,1,.042.024v.006a.4.4,0,0,1-.012.083l.006.012H46.7c.042-.018.065-.071.065-.149v-.006h-.006a.155.155,0,0,0-.065.018h-.012c0-.077.024-.113.065-.113h.006l.012.036h.012v-.048a.318.318,0,0,0,.059-.154c-.036-.012-.059-.018-.059-.03v-.065a.756.756,0,0,0,.1-.172v-.018l-.006-.042h-.012a.079.079,0,0,0-.042.018,1.421,1.421,0,0,1-.119.333v.006a.083.083,0,0,0,.03.059h.012l.012-.006v.042a.122.122,0,0,0-.113.071,1.3,1.3,0,0,1-.119.362,7.323,7.323,0,0,0-.327,1.212V.023a1.092,1.092,0,0,0,.071.184.3.3,0,0,0,.166.131A.39.39,0,0,0,46.5.321c.059.006.089.006.1.006a.553.553,0,0,0,.16-.053h.048c.03,0,.071-.036.143-.113a8.235,8.235,0,0,0,.588-1.105c.321-.576.909-1.474,1.753-2.7.178-.261.3-.392.357-.4h.012c.024,0,.036.006.042.03q-.089.677-.214,1.23a6.969,6.969,0,0,0-.261,1.248v.012L49.22-1.5a.654.654,0,0,0,.042.19.757.757,0,0,0,.642.315L50.034-1A2.4,2.4,0,0,0,51-1.5c.315-.256.469-.41.475-.458.042-.053.1-.119.178-.208a.006.006,0,0,1-.006-.006,2.05,2.05,0,0,0-.374.3c-.048-.012-.065-.024-.065-.053l.036.006a.234.234,0,0,0,.036-.012l-.006-.03v-.018a.113.113,0,0,1,.018-.053,3.537,3.537,0,0,0,.345-.357c.166-.166.25-.267.25-.3q.232-.16.232-.285l.012.006h.03l.012-.006a.084.084,0,0,1,.012.036H52.2l.012-.006a.439.439,0,0,1,.083-.2c-.006,0-.006,0-.006-.006a.547.547,0,0,0-.125.077c-.2.2-.392.392-.594.57q-.071.08-.143.178c-.03,0-.065.03-.113.1-.006.03-.018.048-.036.048-.042,0-.154.089-.351.267-.374.351-.642.523-.79.523-.107,0-.16-.1-.16-.279a6.7,6.7,0,0,1,.256-1.313,4.915,4.915,0,0,0,.244-1.218,1.932,1.932,0,0,0-.012-.2.3.3,0,0,0-.083-.226c-.053-.113-.1-.178-.131-.19a.363.363,0,0,0-.267-.1h-.071q-.089,0-.214.2a3.206,3.206,0,0,0-.357.416c-.523.666-.891,1.147-1.111,1.456a5.5,5.5,0,0,1-.458.66q-.3.455-.392.57l.036-.113.214-.642c.024-.059.089-.232.184-.517q1-2.781,1.45-4.118c.238-.666.357-1.016.357-1.058.261-.719.434-1.206.523-1.456.1-.333.166-.547.2-.636-.012-.071-.018-.137-.024-.19,0-.125-.065-.184-.2-.184a.489.489,0,0,1-.125.012A.088.088,0,0,1,49.95-10.536ZM49.416-8.32h.018l-.006.042h-.012Zm-.053.172c0-.053.006-.077.018-.077h.006c0,.006-.006.036-.012.077Zm-.523.749h.012a.5.5,0,0,1-.012.113h-.012C48.827-7.3,48.833-7.345,48.839-7.4Zm-.077.267h.006v.006c-.012.071-.024.107-.042.107A.226.226,0,0,1,48.762-7.131Zm-.618,1.355c.012-.113.036-.172.065-.172l-.006.059a.3.3,0,0,0-.048.113ZM48.1-5.7h.024l.006.03v.006a.062.062,0,0,1-.042.059Zm-.25.713h.006c0,.012.006.018.006.024s0,.012-.012.012Zm-.006.053c.024.012.03.018.03.024V-4.9c-.012.03-.024.048-.03.048h-.024A.469.469,0,0,1,47.847-4.932Zm-.036.113h.012v.012h-.012Zm.386,2.46a1.458,1.458,0,0,1,.125-.368c0-.03.3-.446.891-1.254l.083-.071a.576.576,0,0,1,.107-.154,1.4,1.4,0,0,1,.4-.416.281.281,0,0,1,.03.083.521.521,0,0,1-.1.143,1.314,1.314,0,0,1-.208.279A.214.214,0,0,0,49.445-4c0,.006-.315.416-.939,1.242a2.219,2.219,0,0,1-.3.4Zm-.5-2.216c-.024,0-.036.024-.042.059l.012.006h.018c.006,0,.012-.018.018-.059C47.7-4.57,47.7-4.57,47.7-4.576Zm-.113.279c-.048,0-.077.059-.089.172v.042H47.5a.373.373,0,0,0,.1-.19C47.6-4.273,47.591-4.279,47.585-4.3Zm.232.178h.042v.024h-.024q-.018-.009-.018-.018Zm-.541.666c0,.006-.006.024-.012.053l.03-.006v-.018l-.006-.03Zm5.182.19h-.012a.158.158,0,0,1-.131.065c.012.053.024.077.024.083a.116.116,0,0,0,.048-.006c.065,0,.113-.042.143-.131A.171.171,0,0,0,52.458-3.263Zm-.119.166c-.03.006-.048.012-.048.024v.006c.012.018.024.03.03.03s.018-.018.024-.048Zm-.089.077q-.009,0-.018.053l.012.006a.056.056,0,0,0,.036-.048.013.013,0,0,0-.012-.012Zm-2.312.089a.026.026,0,0,1,.018.006v.012a.065.065,0,0,1-.024.012v-.006Zm2.246.018c-.03,0-.042.018-.048.059a.006.006,0,0,1,.006.006A.075.075,0,0,0,52.185-2.912ZM47.1-2.906a.2.2,0,0,0-.048.107.006.006,0,0,1,.006.006c.048,0,.071-.03.071-.1v-.012Zm.315.048c-.006,0-.012.006-.018.006a.5.5,0,0,1-.048.2V-2.6c-.042.03-.059.053-.059.065v.012H47.3a.1.1,0,0,0,.053-.018,1.351,1.351,0,0,0,.089-.285v-.006A.072.072,0,0,0,47.413-2.859Zm-.368.475c-.036,0-.059.048-.065.137,0,.006.012.012.03.024a.243.243,0,0,0,.053-.119v-.024C47.051-2.377,47.051-2.383,47.045-2.383Zm.2.036a.106.106,0,0,0-.042.048c.012.024.03.042.042.042s.018-.03.018-.077v-.012Zm-.345.03v.024l.006.012.012-.006-.006-.03Zm.089.113q-.036,0-.071.053v.006a.1.1,0,0,0,.03.065c.012,0,.024-.036.048-.107A.026.026,0,0,1,46.991-2.2Zm1,.012a.223.223,0,0,0,.048.006v.006l-.03.006H48A.046.046,0,0,0,47.989-2.193Zm1.444.119a.013.013,0,0,1,.012.012v.024h-.012Zm-2.5.012c-.036,0-.053.012-.053.03l.012.006h.03a.013.013,0,0,0,.012-.012Zm2.466.1a.045.045,0,0,1,.042-.048l-.006.053H49.4Zm-2.258-.048q-.018.009-.018.018v.024a.013.013,0,0,0,.012.012h.012q.018,0,.018-.036c0-.012,0-.018-.012-.018Zm-.238.036c-.03,0-.053.042-.065.131l.006.012c.006,0,.012-.006.018-.006a.227.227,0,0,0,.053-.089A.112.112,0,0,0,46.908-1.979Zm.16.083v.048l.006.03h-.006a.546.546,0,0,0-.1.16c0,.012.018.036.053.065h.018c.006,0,.012-.03.024-.077l.059-.2c-.006-.018-.018-.024-.042-.024Zm3.981.042c.042,0,.059.012.059.024v.006a.238.238,0,0,1-.071.059l-.006-.03A.133.133,0,0,1,51.05-1.854Zm-1.4.25a.5.5,0,0,1,.03-.16h.006q0,.027-.018.16Zm-2.888-.137a.013.013,0,0,1,.012-.012H46.8c0,.024-.006.036-.006.048h-.03Zm2.882.178h.018v.036l.006.053c-.012,0-.018-.018-.024-.042Zm-.024.172h.059l-.006.03v.024h-.006l-.042-.006v-.018Zm-2.692.018q-.018.053-.053.053c-.03,0-.042.024-.042.077l.006.012.03-.006c.03,0,.053-.048.071-.137Zm-.273.077v.006c0,.012-.006.03-.006.053l.018.036c.024,0,.036-.024.042-.065a.039.039,0,0,0-.024-.03Zm.22.131v.018l.006.012.012-.006-.006-.024Zm-.083.03c-.006,0-.012.018-.024.042a.006.006,0,0,1,.006.006c.036-.006.048-.012.048-.024S46.807-1.123,46.789-1.135Zm-.036.059q-.009,0-.018.036v.012a.013.013,0,0,0,.012.012h.059l.018-.012c0-.03-.006-.048-.018-.048Zm-.214.048h.006v.006l-.006.03h-.006V-1A.059.059,0,0,0,46.54-1.028Zm.232.083c-.006,0-.018.036-.03.113l.012.006c.012,0,.018-.036.024-.107Zm-.053.053q-.018,0-.018.036c0,.006,0,.012.012.012s.006-.006.006-.012Zm-.012.125c-.03,0-.048.012-.053.03v.024h.042c.006,0,.012,0,.012-.012Zm-.071.149a.2.2,0,0,0-.065.172l.006.03h.012c.042-.024.065-.083.065-.178ZM57.726-5.663a.358.358,0,0,0-.309.19.421.421,0,0,0-.131.327v.1a.269.269,0,0,1-.018.1.968.968,0,0,0-.1.226,4.2,4.2,0,0,1-.327.493.825.825,0,0,1-.16.291.908.908,0,0,1-.178.285,4.991,4.991,0,0,1-.582.749,3.664,3.664,0,0,1-.333.392,1.159,1.159,0,0,1-.125.184,1.219,1.219,0,0,0-.321.273,1.327,1.327,0,0,1-.416.256,1.194,1.194,0,0,1-.2.107h-.012c-.042,0-.065-.131-.071-.386a5.3,5.3,0,0,1,.149-.838,12.473,12.473,0,0,1,.648-1.985,2.206,2.206,0,0,0,.226-.553v-.012c0-.071-.024-.107-.071-.119h-.083a.777.777,0,0,0-.125-.048.693.693,0,0,0-.2.048.327.327,0,0,0-.166.178.837.837,0,0,0-.166.273,10.906,10.906,0,0,0-.636,1.426,6.555,6.555,0,0,0-.386,1.688v.059a.709.709,0,0,0,.119.422,1.225,1.225,0,0,0,.838.273.8.8,0,0,0,.113-.006.846.846,0,0,0,.428-.19,4.4,4.4,0,0,0,.891-.767,2.451,2.451,0,0,0,.333-.41l-.006-.012-.036.012c-.059.077-.1.119-.113.119a.393.393,0,0,1-.065-.006c-.024,0-.042.024-.053.059v.006c0,.012.018.018.042.024v.012c0,.03-.018.048-.059.059a.1.1,0,0,1-.048-.018h-.006a1.339,1.339,0,0,1-.143.125.744.744,0,0,0-.232.184.5.5,0,0,1-.232.154H55.4a.353.353,0,0,1,.024-.048c.071-.065.107-.107.107-.131h-.018l-.024.018h-.024V-2.1c0-.006.018-.018.048-.042.071-.006.113-.03.113-.065v-.006l-.018-.03A2.332,2.332,0,0,0,56-2.674c.053-.024.107-.113.16-.261.107-.125.166-.2.166-.226a.359.359,0,0,0,.071-.107c.059-.083.1-.119.131-.119.012-.089.024-.137.048-.137.018-.018.107-.149.261-.392.113-.19.19-.285.238-.285l.137-.214c-.036.113-.083.25-.149.41a6.729,6.729,0,0,1-.261.7,1.887,1.887,0,0,0-.1.3c0,.006.018.018.059.024l-.018.071-.208.446a5.05,5.05,0,0,1-.315.689,1.15,1.15,0,0,1-.149.3,2.665,2.665,0,0,1-.119.261,5.276,5.276,0,0,1-.345.66,2.41,2.41,0,0,1-.2.386.221.221,0,0,1-.107.19,2.5,2.5,0,0,1-.22.321.284.284,0,0,1-.154.1,1.023,1.023,0,0,0-.19.256c-.273.273-.416.416-.416.428a.088.088,0,0,0,.042-.006A.656.656,0,0,1,54.535.98h.006a1.941,1.941,0,0,1-.232.3c0,.036-.059.119-.19.244-.071.1-.125.149-.16.149h-.006c.042-.1.071-.154.1-.154a.346.346,0,0,1,.107-.19c.107-.071.154-.131.154-.178V1.141H54.3a.5.5,0,0,1-.149.107c-.077.077-.119.119-.131.119a3.537,3.537,0,0,0-.333.4,1,1,0,0,0-.309.576.459.459,0,0,0,.012.089.378.378,0,0,0,.368.273.592.592,0,0,0,.505-.345c.458-.565.743-.945.862-1.129a1.891,1.891,0,0,1,.232-.374c.374-.386.559-.582.559-.594a4.768,4.768,0,0,0,.463-.469V-.22a1.189,1.189,0,0,1-.154.119h-.012a3.764,3.764,0,0,1,.267-.273c.125-.137.2-.2.232-.2V-.589L56.71-.6c.006-.006.137-.154.386-.452.16-.166.244-.25.244-.256A11.525,11.525,0,0,1,58.29-2.2c.107-.083.416-.327.927-.719v-.006a.739.739,0,0,0-.149.042h-.006a.781.781,0,0,1,.143-.083c.1-.036.149-.065.149-.077s-.012-.006-.036-.012q.027-.036.036-.036h.053v.012c.018-.006.036-.024.059-.065v-.012h-.012a.1.1,0,0,0-.042.006c-.053,0-.083.012-.083.042a.205.205,0,0,1-.071-.006.21.21,0,0,0-.006.036c0,.018-.024.036-.077.048a1.334,1.334,0,0,1-.351.208h-.006l.018-.059-.006-.006c-.071.018-.107.042-.107.083l.018.059a2.863,2.863,0,0,1-.327.232,1.278,1.278,0,0,1-.273.214,2.048,2.048,0,0,1-.238.208,5.1,5.1,0,0,0-.559.523A3.437,3.437,0,0,0,57-1.213a2.026,2.026,0,0,0-.321.38c-.03.018-.042.03-.042.036-.535.636-.808.963-.814.98h-.006V.178a.833.833,0,0,0,.053-.137,4.112,4.112,0,0,1,.553-.7c.1-.083.143-.137.143-.154A.546.546,0,0,0,56.7-.993c.042-.03.065-.048.065-.065a.046.046,0,0,0-.006-.018.97.97,0,0,0,.113-.131c.1-.089.155-.149.155-.172a.579.579,0,0,0,.178-.2,2.329,2.329,0,0,0,.345-.351.823.823,0,0,0,.155-.137c.089-.071.137-.125.137-.149a.836.836,0,0,0,.166-.137,2.968,2.968,0,0,0,.291-.238c.089-.059.2-.137.321-.238a3.076,3.076,0,0,0,.333-.2l.16-.065c0-.053.048-.089.143-.113l-.012-.018a.646.646,0,0,0-.22.083,3.554,3.554,0,0,1-.416.256,2.663,2.663,0,0,1-.339.244c-.036,0-.059.024-.071.077a.09.09,0,0,0-.083.053.5.5,0,0,0-.125.083l-.042-.042a.061.061,0,0,0-.03.048v.059a.2.2,0,0,1-.154.089.006.006,0,0,0-.006-.006.355.355,0,0,1-.089.053l.006.053v.018c0,.012-.006.012-.012.012h-.036l-.012-.006.006-.036v-.006a.347.347,0,0,0-.059.048c-.012.071-.03.107-.059.107-.059,0-.143.071-.256.22a2.242,2.242,0,0,0-.553.582.159.159,0,0,1-.083.065,3,3,0,0,0-.321.44h-.006V-.743a1.4,1.4,0,0,1,.172-.345,2.066,2.066,0,0,1,.256-.3,2.593,2.593,0,0,0,.285-.315c.024,0,.113-.1.273-.279-.03,0-.089.042-.2.125a3.48,3.48,0,0,0-.493.487h-.006v-.006c.178-.362.285-.576.327-.642.1-.256.232-.576.416-.957a5.419,5.419,0,0,0,.279-.689,7.038,7.038,0,0,0,.559-1.664l-.012-.089A.676.676,0,0,0,57.726-5.663ZM57.7-4.558a.136.136,0,0,1,.042-.1.293.293,0,0,1-.03.107H57.7Zm-2.71.03H55c0,.006,0,.012-.012.012Zm.927,3.761a1.843,1.843,0,0,1,.267-.553,1.827,1.827,0,0,1,.22-.446c.1-.244.214-.5.339-.772a8.759,8.759,0,0,1,.493-1.052c.053-.012.131-.16.244-.452S57.66-4.5,57.7-4.5a2.836,2.836,0,0,0-.113.339l-.279.731q-.1.187-.285.642a2.427,2.427,0,0,0-.172.4c.006.006.006.024.012.053-.03,0-.059.03-.083.1.024.024.036.036.042.036s-.018.018-.059.03l.024.024v.006l-.006.03-.042-.03A.476.476,0,0,0,56.674-2l.042.125v.006h-.03c-.006,0-.03.024-.065.077a.328.328,0,0,0-.006-.053c-.042.03-.059.048-.059.059a.245.245,0,0,1,.024.089c0,.03-.012.042-.03.042v-.053h-.006c-.006,0-.018.012-.03.036l.03.024c-.012.018-.018.03-.024.03h-.006v-.012H56.5v.012a1.413,1.413,0,0,1-.154.285.109.109,0,0,1,.036.059c-.006,0-.012,0-.024.012q-.009-.018-.018-.018h-.012c-.012,0-.018.012-.024.042s.018.024.053.03a.693.693,0,0,1-.1.172v-.024a.62.62,0,0,0,.048-.119l-.006-.012a.225.225,0,0,0-.089.149v.018a.1.1,0,0,0,.018.048c0,.024-.018.048-.048.077V-.945h-.012a1.194,1.194,0,0,0-.19.362.362.362,0,0,0-.077.137V-.44H55.9l.048-.03.012.006c0,.059-.03.089-.077.089,0-.006.006-.024.012-.053H55.89L55.866-.4q-.089.16-.125.16c-.006,0-.006-.012-.012-.042h-.036q-.018.009-.018.018v.012c0,.006.024.012.059.018,0,.03-.006.048-.03.048a.553.553,0,0,1-.154.309A.615.615,0,0,1,55.468.3c-.042.018-.065.036-.065.059V.4l.006.012a.317.317,0,0,0-.1.131c0,.053-.083.154-.238.3-.006.048-.018.077-.048.077C55.028.915,55.022.9,55,.9L54.933.95A.243.243,0,0,1,55,.8a.838.838,0,0,1,.143-.22q.071-.009.071-.018a.094.094,0,0,0-.024-.006V.54h.018a.046.046,0,0,0,.006.018c.03,0,.048-.024.071-.059,0-.012-.006-.024-.006-.048A.161.161,0,0,1,55.3.4c.077-.053.119-.1.119-.131,0-.012-.006-.018-.024-.024s-.042.018-.077.048h-.006a.47.47,0,0,1,.143-.22c.077,0,.137-.059.172-.172-.053,0-.077-.006-.077-.012a.26.26,0,0,1,.1-.16A1.136,1.136,0,0,1,55.878-.7V-.69a.183.183,0,0,1-.006.053l.006.012c.071-.036.107-.077.107-.137V-.767l-.006-.012c-.03.006-.053.012-.059.012Zm-1.04-3.524c0-.024.006-.036.03-.042h.006v.012c-.024.03-.03.042-.03.048h-.006ZM54.4-2.924a.165.165,0,0,1,.042-.131,1.905,1.905,0,0,1,.077-.333.116.116,0,0,0,.042-.1.268.268,0,0,1,.053-.137c.006-.071.018-.1.024-.1a.585.585,0,0,1,.036-.119c.024-.071.048-.107.059-.107a.372.372,0,0,1,.1-.244.116.116,0,0,0,.006.042c-.03.1-.048.149-.048.154a.271.271,0,0,0-.048.137h-.006c-.006,0-.012,0-.012-.012a.013.013,0,0,0-.012.012v.006c0,.006.006.012.018.012a.292.292,0,0,1-.018.071.244.244,0,0,0-.042.1,1.223,1.223,0,0,0-.083.273.575.575,0,0,0-.071.244.838.838,0,0,0-.077.279l.006.012c-.012,0-.018.018-.03.048-.006.119-.018.178-.03.178a.022.022,0,0,0-.006-.018c.006-.036.012-.059.012-.071s0-.042-.006-.107a.1.1,0,0,1,.018-.048Zm2.989-1.081c0-.006,0-.012.012-.012v.03h-.012Zm-.428.053v.012h.006v-.012Zm-.523.434c.012-.012.018-.024.03-.024a.884.884,0,0,1,.172-.22h.012c-.012.03-.024.048-.03.048-.059.149-.113.22-.16.22h-.018A.036.036,0,0,0,56.436-3.518Zm2.959.059a1.881,1.881,0,0,0-.422.143,2.136,2.136,0,0,0-.374.25.013.013,0,0,0,.012.012h.03c.03,0,.077-.036.16-.1l.2-.1a1.469,1.469,0,0,1,.273-.107c.143-.03.22-.048.22-.065v-.006c0-.018-.03-.024-.083-.03Zm-5.057.226A.335.335,0,0,1,54.41-3.4v.042a1.154,1.154,0,0,1-.053.137ZM56.9-3.382c.006,0,.012,0,.012.012v.018a.022.022,0,0,0-.018.006V-3.37Zm-.333.024a.188.188,0,0,0-.071.107c0,.012.006.018.012.018h.006c.036,0,.059-.03.065-.089A.084.084,0,0,0,56.567-3.358Zm.582.018c-.006,0-.012.012-.024.03l.018.03c.018-.012.024-.018.024-.024v-.018Q57.158-3.34,57.149-3.34Zm-.458.089v.012H56.7v-.012Zm-.214.024a.013.013,0,0,0-.012.012v.006h.006c.012,0,.012,0,.012-.012v-.006Zm-2.163.065c.012-.03.024-.048.03-.048h.006v.018c-.006.036-.018.053-.03.053A.036.036,0,0,0,54.315-3.162Zm2.5-.042h.006c.006,0,.012.012.018.024v.012C56.829-3.168,56.817-3.179,56.817-3.2Zm.279-.006a.117.117,0,0,0-.059.1.184.184,0,0,0-.048.137H57c0-.053.012-.077.036-.077s.065-.053.071-.16Zm2.145.018-.006.012v.024a.013.013,0,0,0,.012.012h.018c.018-.006.024-.018.024-.024S59.277-3.179,59.241-3.191Zm-2.793.012c-.006,0-.006.006-.012.012v.006h.012Zm.25.053c-.012,0-.012.006-.012.012v.024h.006c.012-.012.024-.018.024-.024v-.012Zm-.03.048c-.012,0-.018.012-.024.036,0,.006,0,.012.012.012s.018-.012.018-.018v-.018Zm-.309.012c-.006,0-.012.006-.018.024s.006.012.006.018h.018c0-.012,0-.018.006-.018v-.024Zm2.757,0-.024.024c0,.006.006.012.024.018s.018-.006.03-.024v-.006a.013.013,0,0,0-.012-.012Zm-.553.012c-.03,0-.065.024-.1.083l.006.012c.065-.006.1-.03.1-.071v-.012Zm.63.048c.012,0,.018-.006.03-.012v.012A.046.046,0,0,0,59.205-3h-.012ZM56.615-3,56.585-3a1.114,1.114,0,0,1-.107.143q-.107.125-.107.16c0,.012,0,.018.006.018a.213.213,0,0,0,.1-.113.6.6,0,0,0,.143-.2Zm-.315.024c-.006,0-.018.012-.03.036v.006l.006.012c.018-.006.03-.012.03-.018v-.036Zm2.662,0-.024.018c.012.012.018.024.024.024h.012c.006,0,.012-.012.018-.024s-.012-.018-.018-.018Zm-2.478.024v.006H56.5v-.006Zm.2.006a.044.044,0,0,0-.036.012c-.137.3-.2.458-.208.475v.024l.006.03h.012a.85.85,0,0,1,.143-.244.084.084,0,0,0-.012-.036V-2.7a1,1,0,0,0,.1-.214v-.024Zm1.729.006h-.024a3.322,3.322,0,0,0-.422.3,5.466,5.466,0,0,0-.666.618l.006.012a.111.111,0,0,0,.065-.024c.083-.119.143-.178.172-.178a.931.931,0,0,1,.238-.2.981.981,0,0,1,.16-.131.439.439,0,0,1,.036-.065.577.577,0,0,0,.267-.2,1.572,1.572,0,0,0,.178-.131C58.421-2.942,58.415-2.942,58.409-2.942Zm-4.171.172c0-.077.012-.119.024-.119l.006.042v.006a.29.29,0,0,1-.024.077h-.006Zm4.51-.018q.009-.018.018-.018h.03v.012q-.009.018-.018.018h-.03Zm-4.51.048h.006l.006.03V-2.7q-.009.018-.018.018V-2.71ZM56.87-2.7c-.018.006-.024.024-.024.053v.012h.012c.03-.024.048-.036.048-.048S56.9-2.7,56.894-2.7Zm-2.644.03h.006l.006.059a.467.467,0,0,1-.024.071h-.006v-.077A.248.248,0,0,1,54.226-2.674Zm2.84.012c.006,0,.006.006.012.024v.012a.063.063,0,0,1-.018-.03Zm-2.87.244c0-.006,0-.012.012-.012h.006v.006l-.006.012Zm2.175.1c-.018.018-.03.03-.03.036v.006a.079.079,0,0,0,.018.042c.018-.012.03-.018.036-.036C56.395-2.306,56.383-2.318,56.371-2.318Zm1.753.107c.012,0,.03-.018.048-.042h.018c-.024.036-.042.053-.059.053h-.006Zm-1.789,0c-.048.036-.065.059-.065.065s.012.03.042.03a.047.047,0,0,0,.03-.048v-.048Zm.458.137c0-.006.012-.018.036-.03h.006v.036c0,.006-.012.018-.036.03h-.006Zm-.505-.006c-.042,0-.071.042-.089.131a.04.04,0,0,0,.024.042.214.214,0,0,0,.077-.137A.234.234,0,0,0,56.288-2.08Zm.362.154c-.024.006-.03.024-.03.048v.024h.006a.045.045,0,0,0,.03-.042v-.03Zm-.475.065-.03.006a.2.2,0,0,1-.048.113,1.353,1.353,0,0,0-.166.4.006.006,0,0,1,.006.006.178.178,0,0,0,.048-.024.437.437,0,0,1,.048-.143c.03-.006.053-.059.083-.16a.605.605,0,0,0,.077-.166v-.03Zm.517.03H56.7v.03h-.018Zm-.2.25H56.5q.018.009.018.018c0,.006-.006.012-.024.018Zm-.648.41q-.036.009-.036.018v.006a.054.054,0,0,1,.03.018h.012v-.03Zm1.046.012h-.006a.2.2,0,0,0-.119.083v.006a.166.166,0,0,0,.131-.083ZM55.789-1.1c-.006,0-.018.018-.03.042a.036.036,0,0,0,.018.036c.018-.012.03-.024.03-.03v-.006A.079.079,0,0,0,55.789-1.1Zm-.065.143a.061.061,0,0,0-.03.036.038.038,0,0,1,.012.03.047.047,0,0,0,.048-.03Zm.434.083h.006l-.03.048h-.006Zm-.487.006c-.018.006-.03.03-.042.071a.166.166,0,0,0-.053.113l.006.012a.16.16,0,0,0,.113-.149.32.32,0,0,0-.006-.048Zm-.131.238a.1.1,0,0,1-.018.042c.012.018.018.024.024.024h.006c.006,0,.012-.012.024-.03a.04.04,0,0,0-.024-.036Zm.446.083h.006c.006,0,.012.006.018.024C56-.523,56-.517,56-.505a.046.046,0,0,0-.018-.006Zm-.5.024a.122.122,0,0,0-.048.089l.006.012c.059-.018.089-.042.089-.065A.045.045,0,0,0,55.486-.523Zm.838.024q-.018.009-.018.018v.006c0,.006,0,.012.012.012a.013.013,0,0,0,.012-.012V-.488Zm-.939.2c-.048.006-.071.018-.071.042-.03.083-.065.125-.1.137-.024.077-.042.113-.059.113-.077.166-.125.25-.154.261a.409.409,0,0,1-.042.143V.4c.065,0,.113-.059.143-.172a1.154,1.154,0,0,0,.137-.22.079.079,0,0,0-.018-.042V-.036A.446.446,0,0,0,55.39-.3Zm.689.339c.036-.036.053-.059.059-.059,0,.03-.018.048-.053.059ZM55.307.1a.074.074,0,0,1,.012-.018c.012,0,.012.006.012.012s-.006.012-.024.024Zm.327-.006a.046.046,0,0,0,.018-.006h.006A.1.1,0,0,0,55.64.13h-.006Zm.333.042c.018-.03.036-.042.042-.042h.006a.086.086,0,0,1-.036.042Zm-.523.018c-.006,0-.012,0-.012.012V.2h.012a.1.1,0,0,1,.012-.03A.013.013,0,0,0,55.444.154Zm.119.089c0-.006.006-.012.024-.018a.046.046,0,0,0,.006.018l-.03.012ZM55.777.3A.261.261,0,0,1,55.86.231c-.018.042-.042.065-.071.065ZM55.492.35c0-.024.012-.042.042-.059L55.5.374h-.012Zm.226.018a.032.032,0,0,1,.036-.036h.006C55.759.338,55.747.35,55.717.368Zm-.933.4A.207.207,0,0,1,54.85.689c.042-.089.083-.137.119-.149,0,.036-.036.1-.113.172C54.82.772,54.8.8,54.8.8A.013.013,0,0,1,54.784.79ZM55.1.731c-.018.012-.024.018-.024.024V.76l.012.018q.018-.009.018-.018V.742ZM54.719.9h.012v.03h-.018Zm-.463.666c.048-.113.089-.172.125-.172V1.4a.134.134,0,0,1-.065.107C54.3,1.539,54.285,1.562,54.256,1.562Zm-.166.16c0-.024.042-.071.125-.137,0,.006-.012.03-.024.077-.059.036-.089.059-.089.083H54.1Z" transform="translate(0.476 10.935)" fill="#3963ac" stroke="#3963ac" stroke-width="0.5"/>
</svg>
