<svg xmlns="http://www.w3.org/2000/svg" width="53.461" height="10.5" viewBox="0 0 53.461 10.5">
  <path id="パス_313" data-name="パス 313" d="M4.412-10.418A3.981,3.981,0,0,0,2.3-9.729a5.15,5.15,0,0,0-.878.678,3.137,3.137,0,0,0-.65.822.08.08,0,0,1,.039.056.126.126,0,0,1-.056.028A.063.063,0,0,0,.739-8.19c-.022,0-.05.022-.078.056V-8.1a.356.356,0,0,0,.05.039v.006a.887.887,0,0,1-.122.172L.556-7.89H.534c-.011,0-.022.022-.028.072A.067.067,0,0,0,.55-7.829l.011.006c0,.028-.017.044-.05.056L.506-7.779a.012.012,0,0,0-.011.011v.05a.139.139,0,0,1-.039.094,1.6,1.6,0,0,1-.172.35,1.943,1.943,0,0,1-.144.389,3.829,3.829,0,0,0-.167.917,1.221,1.221,0,0,0,.033.206l-.017.106A.61.61,0,0,0,0-5.523a2.273,2.273,0,0,0,.244.817q.25.258.383.417a2.159,2.159,0,0,0,.344.306c.144.078.222.128.222.15v.028a3.788,3.788,0,0,1-.183.706,5.172,5.172,0,0,0-.094.844v.167a1.725,1.725,0,0,0,.156.772,1.321,1.321,0,0,0,1.05.633H2.2a2.124,2.124,0,0,0,1.183-.478,4.287,4.287,0,0,0,.756-.628,1.773,1.773,0,0,0,.328-.333l.372-.45a7.967,7.967,0,0,0,.55-.817c.15-.261.272-.494.372-.706a8.549,8.549,0,0,0,.467-1.317A9.439,9.439,0,0,0,6.506-7.19v-.656a3.932,3.932,0,0,0-.033-.406,2.668,2.668,0,0,0-.156-.783A1.928,1.928,0,0,0,4.412-10.418ZM.717-5.746a2.683,2.683,0,0,1,.25-1.083,2.542,2.542,0,0,1,.389-.75,7.362,7.362,0,0,1,.9-1.044A3.937,3.937,0,0,1,4.678-9.946c.567,0,.956.344,1.172,1.033A4.273,4.273,0,0,1,6-7.907c0,.067.022.111.072.122a.415.415,0,0,1-.017.111H6.05c0-.044-.011-.067-.028-.067l-.017.011c.006.15.011.233.011.25s0,.022.011.022h.006c.011,0,.017-.028.022-.083a.134.134,0,0,0,.056.039c.039,0,.056.022.056.067l-.006.061-.056-.033H6.084V-7.4a.274.274,0,0,0,.017.083Q6-7.26,6-7.2v.044a1.18,1.18,0,0,1-.022.233c-.039.294-.061.467-.061.506a1.252,1.252,0,0,0-.056.222v.056a.169.169,0,0,0,.111.089v.017c0,.067-.011.094-.028.094a.042.042,0,0,1-.028-.006c-.017-.061-.033-.089-.05-.089a.4.4,0,0,0-.072.139v.05a.36.36,0,0,0,.017.056v.028a.215.215,0,0,1-.056.106,2.157,2.157,0,0,1-.094.289.05.05,0,0,0,.022.044h.006a.175.175,0,0,0,.05-.089c0-.067.017-.106.044-.106s.05-.044.083-.144h.006V-5.6l-.133.283C5.717-5.107,5.673-5,5.623-5H5.612v-.017A.7.7,0,0,1,5.684-5.2l-.006-.011a.317.317,0,0,0-.133.267V-4.9h.011c.006,0,.022-.022.05-.061l.017.05V-4.9c0,.011-.006.017-.011.028a.042.042,0,0,1,.011.028v.022c-.028,0-.044.022-.056.072v.117a.049.049,0,0,0-.022.033H5.534L5.45-4.679a1.008,1.008,0,0,0-.028.128c0,.011.017.017.044.028,0,.033-.022.067-.072.106v.056a.54.54,0,0,1-.033.083v.017a.05.05,0,0,0,.006.028l-.022.083C5.25-4.057,5.2-4,5.2-3.968a.192.192,0,0,0,.017.072c-.117.089-.172.172-.172.239v.006a.5.5,0,0,0,.011.061c-.011.022-.028.028-.056.028H4.978v.072l.011.017H4.967c-.05,0-.1.05-.139.15q-.383.492-.383.5v.011l.022.067v.017a.106.106,0,0,1-.061-.039,2.076,2.076,0,0,0-.278.328c-.15.189-.244.278-.272.278a4.134,4.134,0,0,1-.417.394,2.538,2.538,0,0,1-1.317.606.394.394,0,0,1-.333-.156,1.445,1.445,0,0,1-.133-.672v-.15c0-.072,0-.15.006-.244l.133-.561c.083-.439.15-.656.194-.656.133-.039.222-.072.278-.094a1.123,1.123,0,0,0,.544-.228,1.331,1.331,0,0,0,.367-.289c.122-.094.183-.15.183-.172a.325.325,0,0,0,.1-.083.042.042,0,0,0-.006-.022c0-.011.017-.039.056-.083,0-.011-.011-.022-.033-.028a.922.922,0,0,0-.178.1.7.7,0,0,1-.422.211A.665.665,0,0,1,2.8-4.307H2.795a1.63,1.63,0,0,1-.522.178H2.256a.443.443,0,0,1-.089-.017,2.257,2.257,0,0,1,.283-.667,1.213,1.213,0,0,1,.267-.456,1.981,1.981,0,0,1,.367-.472q.108-.175.183-.2c.011.044.022.067.028.067s.011-.006.011-.017V-5.9a.164.164,0,0,0-.011-.056.566.566,0,0,0,.167-.122.285.285,0,0,0,.206-.267c0-.05-.106-.133-.311-.261a1.806,1.806,0,0,1-.183.011,1.082,1.082,0,0,0-.694.306,1.941,1.941,0,0,0-.356.472.433.433,0,0,1-.178.239A.55.55,0,0,1,1.85-5.4a1.222,1.222,0,0,1-.117.244c-.094.244-.167.428-.228.544a1.783,1.783,0,0,1-.161.339L1.3-4.307a2.346,2.346,0,0,1-.3-.4A1.62,1.62,0,0,1,.717-5.746ZM3.434-9.885a.437.437,0,0,1,.183-.056v.017c0,.022-.05.044-.156.067-.017-.006-.028-.011-.028-.022ZM3.089-9.7a1,1,0,0,1,.3-.139H3.4c0,.022-.022.044-.061.061a.638.638,0,0,1-.244.1H3.089Zm-.256.172c0-.039.011-.056.022-.061H2.9C2.9-9.557,2.878-9.54,2.834-9.529ZM2.4-9.118a.5.5,0,0,1,.172-.128h.017a.335.335,0,0,1-.061.089,1.942,1.942,0,0,0-.356.244,1.132,1.132,0,0,0-.322.272.54.54,0,0,1-.161.044c-.111.117-.183.178-.211.178H1.473a.131.131,0,0,1,.011-.044c.011-.017.206-.172.578-.472a.97.97,0,0,0,.289-.189Zm-.472.144c0-.033.044-.067.133-.094h.006v.006c-.006,0-.011.006-.022.011a.3.3,0,0,1-.1.078Zm-.083.056a.069.069,0,0,1,.033-.044H1.9l.011.006a.053.053,0,0,1-.056.039ZM1.7-8.807c.022-.022.033-.033.039-.033h.006a.068.068,0,0,0-.011.039H1.7Zm4.506.272h.006a7.083,7.083,0,0,1,.083,1.167c0,.011,0,.017-.006.017-.017.25-.033.372-.056.372l-.017-.078a2.39,2.39,0,0,0,.028-.272v-.656a.321.321,0,0,0-.011-.078v-.022a.787.787,0,0,1,.006-.106c-.017-.128-.028-.233-.033-.306ZM1.1-8.057c0-.022.028-.056.083-.106q.075-.133.133-.133h.006a.049.049,0,0,1-.028.044c-.111.133-.172.194-.189.194Zm.133.094c0-.05.017-.078.039-.078A.074.074,0,0,1,1.289-8,.061.061,0,0,1,1.234-7.962ZM.823-7.69a.413.413,0,0,1,.044-.083.328.328,0,0,1,.172-.211H1.05c-.022.044-.039.061-.044.061a.524.524,0,0,1-.178.244H.823ZM.8-7.9H.812v.011a.015.015,0,0,1-.017.017A.074.074,0,0,0,.8-7.9Zm.15.411a.053.053,0,0,0,.033-.05c.133-.167.222-.267.261-.306v.017c-.011.022-.022.033-.028.033A6.324,6.324,0,0,1,.9-7.24,1.516,1.516,0,0,1,.812-7L.678-7.057c-.017,0-.028.017-.028.05a2.776,2.776,0,0,0-.311.844l.006.017c.017,0,.039-.022.072-.061a1.47,1.47,0,0,1,.189-.35c.011,0,.011.006.011.017v.006a.878.878,0,0,1-.072.194A.872.872,0,0,1,.5-6.073c-.017.256-.033.417-.044.483a2.158,2.158,0,0,1,.017.239v.033a.147.147,0,0,1-.017.078,3.713,3.713,0,0,1,.056.45.9.9,0,0,0,.072.183V-4.6a.48.48,0,0,1-.139-.211v-.017c.028-.028.039-.044.039-.05-.028-.072-.05-.106-.056-.106a1.392,1.392,0,0,0-.05-.383H.362c-.017.05-.028.072-.039.072v-.017c0-.044-.006-.122-.017-.244a3.446,3.446,0,0,0,.039-.533V-6.09H.334v.006c-.033,0-.061.128-.078.389V-5.6q0,.008-.017.117v.028l.006.083s-.011.011-.033.039a.047.047,0,0,1-.033-.011l.056-.122c0-.028-.022-.056-.067-.078a.474.474,0,0,1,.044-.122c-.006-.061-.006-.094-.006-.1l.011-.05v-.056L.212-5.89H.217a.7.7,0,0,1,.044-.172.068.068,0,0,0-.05-.072c-.011,0-.022.05-.033.156A.015.015,0,0,1,.162-6v-.028c.011-.128.033-.194.067-.194l.033.039H.267c.006,0,.017-.006.028-.028a1.8,1.8,0,0,1,.072-.267L.362-6.485a.566.566,0,0,0,.094-.222A.281.281,0,0,1,.55-6.9a.984.984,0,0,1,.1-.244c0-.011-.006-.039-.011-.078,0-.006.028-.022.083-.056.094-.189.161-.317.206-.394.033,0,.078-.039.144-.122-.006.033-.011.056-.011.056a.183.183,0,0,0-.078.117A1.011,1.011,0,0,0,.928-7.5l.017.011ZM6.4-7.751c0-.022.006-.039.022-.044l.006.067H6.4Zm-.25.05h.006l.006.05v.006c-.006,0-.011-.011-.022-.028Zm.25.056c.017,0,.028.022.039.067H6.417c-.011,0-.017,0-.017-.011ZM.723-7.585H.734v.028a.012.012,0,0,1-.011.011c-.017.061-.033.089-.039.089v-.006A.3.3,0,0,1,.723-7.585Zm-.244.2c0-.022.022-.05.067-.089v.011a.137.137,0,0,0-.039.083H.495ZM.9-7.473c-.022.017-.033.022-.033.033v.028L.873-7.4a.058.058,0,0,0,.044-.056v-.017Zm-.072.094a.182.182,0,0,1-.039.089v.022L.8-7.246c.028,0,.05-.039.067-.122,0-.006-.006-.011-.017-.011Zm-.244.106H.589v.006c-.006.039-.011.056-.017.056-.022.1-.039.15-.061.15H.506v-.056A.52.52,0,0,1,.584-7.273Zm.156.111c-.017.011-.028.022-.028.028v.022c0,.006.011.017.028.022s.017-.017.028-.033C.762-7.151.756-7.162.745-7.162Zm.078.083v.017H.828v-.017Zm5.556.194q0-.15.033-.15l-.011.178H6.378A.067.067,0,0,0,6.373-6.885Zm-.178-.028c.011-.039.028-.061.05-.061l.011.089v.044a3.171,3.171,0,0,0-.067.406,4.874,4.874,0,0,0-.089.483,1.861,1.861,0,0,0-.05.194c0,.039-.133.456-.394,1.256a3.939,3.939,0,0,1-.467.933,1.288,1.288,0,0,1-.133.239l-.272.394a.613.613,0,0,0-.133.167,3.9,3.9,0,0,0-.367.444c-.017.028-.161.161-.428.411-.017-.011-.022-.017-.022-.022v-.028a.454.454,0,0,0,.106-.128c.078-.039.117-.072.122-.106a.37.37,0,0,0,.133-.15.322.322,0,0,0,.111-.161h.006c0,.017.006.022.017.022A.958.958,0,0,0,4.406-2.6a.356.356,0,0,0,.083-.078c0-.044.05-.094.144-.156a1.022,1.022,0,0,1,.1-.183,1.913,1.913,0,0,0,.156-.222c.072-.078.106-.128.106-.15l.294-.528a.58.58,0,0,0,.122-.211,4.192,4.192,0,0,1,.222-.483.737.737,0,0,1,.1-.256.455.455,0,0,1,.072-.206q.017-.117.033-.117a4.194,4.194,0,0,0,.194-.689,4.409,4.409,0,0,0,.117-.633.418.418,0,0,0,.044-.133c0-.017,0-.056-.006-.122a.449.449,0,0,0,.017-.106v-.011Zm-.2.167a.865.865,0,0,1,.033-.1q0-.033.083-.033l.011.072V-6.8a.015.015,0,0,1-.017.017H6.1l-.044-.039H6.05v.056c0,.028-.011.044-.028.05H6ZM.312-6.657c0-.106.028-.172.083-.194-.017.133-.039.194-.078.194Zm-.067.183c.011-.094.039-.144.072-.144a.243.243,0,0,1-.05.161Zm5.75-.111H6v.022H5.995Zm.05.05c0-.017.006-.028.017-.028h.011v.028c-.011.011-.017.022-.022.022S6.045-6.523,6.045-6.535ZM.228-6.418H.256c.011.006.017.022.017.044v.006c-.022.033-.033.05-.039.05S.223-6.323.217-6.329v-.039Zm5.717.011c.011,0,.022.017.022.039v.044H5.95L5.945-6.4Zm.356.144h.011v.05H6.3a.042.042,0,0,0-.006-.022A.074.074,0,0,0,6.3-6.262ZM6.195-5.9c.039-.106.067-.156.078-.156,0,.106-.011.156-.028.156Zm-.35.022c.011,0,.017,0,.017.011v.028c-.011.022-.022.028-.028.028H5.823v-.011A.273.273,0,0,1,5.845-5.879Zm.383.078c0-.011,0-.017.011-.017v.028H6.228Zm-.444.167c0-.006.006-.011.011-.017v.044c-.006,0-.011-.006-.011-.017Zm.378.028h.006v.022l-.006.05H6.156v-.017A.189.189,0,0,0,6.162-5.607ZM1.606-4.54a1.322,1.322,0,0,1,.167-.4,2.254,2.254,0,0,1,.317-.544h.006v.028a.333.333,0,0,1-.078.172,2.34,2.34,0,0,1-.256.467c-.044.189-.089.278-.144.278Zm.65-.744c0-.011.028-.022.072-.033a.2.2,0,0,1,.017.061v.011q0,.017-.067.033A.181.181,0,0,1,2.256-5.285Zm-2.039.1H.256a.047.047,0,0,0,.011.033.208.208,0,0,0-.006.044H.234c-.011,0-.011-.006-.017-.017Zm1.472.978a.154.154,0,0,1,.072-.122c.239-.544.4-.822.483-.822H2.25v.017a.425.425,0,0,0-.128.244c-.1.122-.15.2-.15.244a.548.548,0,0,1-.117.283.6.6,0,0,1-.144.228C1.7-4.135,1.695-4.162,1.689-4.207Zm.15-.589c0-.044.017-.067.056-.067H1.9c-.011.05-.022.072-.033.072H1.85Zm3.917.411c0-.067.011-.094.039-.094a.175.175,0,0,1-.028.111C5.762-4.368,5.756-4.373,5.756-4.385ZM2.095-4.44h.011v.028l-.017-.006A.042.042,0,0,0,2.095-4.44Zm.783.094c-.022,0-.033.011-.033.017v.011h.028c.006,0,.011-.006.011-.017Zm-.956.161c0-.022.028-.039.083-.044h.006c0,.067-.011.1-.039.106A.064.064,0,0,1,1.923-4.185Zm3.661.194c.011-.056.017-.083.028-.083.017-.072.039-.106.061-.106h.006a.233.233,0,0,1-.083.189ZM5.5-3.846c.017-.061.033-.089.044-.089L5.55-3.9v.011C5.55-3.873,5.534-3.862,5.5-3.846Zm-.033.039h.006l.006.033v.017c0,.006,0,.006-.006.006a.535.535,0,0,1-.089.144.042.042,0,0,0-.011-.022Zm-3.933.033a.186.186,0,0,0,.078.022,1.927,1.927,0,0,1-.083.289,1.373,1.373,0,0,0-.1.256v.028c.022.1.044.144.061.144v.028a.273.273,0,0,1-.039.122l-.067-.033.022-.028H1.395c-.022.006-.028.022-.028.044v.067q-.033.117-.1.117a.109.109,0,0,1-.05-.094v-.017c.067-.017.1-.028.1-.039v-.017c0-.006-.017-.017-.05-.022a.742.742,0,0,0,.028-.078L1.289-3A.846.846,0,0,0,1.35-3.29c.033-.172.061-.256.083-.256a.406.406,0,0,1,.028-.133C1.512-3.712,1.534-3.74,1.534-3.773ZM4.312-2.146l.022-.044A2.492,2.492,0,0,0,4.573-2.5a.842.842,0,0,0,.189-.211c.144-.211.261-.378.361-.511A1.985,1.985,0,0,1,5.362-3.6v.022c-.006.072-.017.111-.028.111a.814.814,0,0,1-.128.178,5.647,5.647,0,0,1-.35.517,3.828,3.828,0,0,0-.267.339,1.155,1.155,0,0,1-.272.289ZM1.345-3.5c.006-.05.017-.072.039-.072h.011v.011A.064.064,0,0,1,1.345-3.5ZM1.3-3.323q.017-.133.05-.133a.373.373,0,0,1-.033.156c-.011,0-.011-.006-.017-.011Zm.356-.044h.006c.006,0,.017.011.028.039a.09.09,0,0,0-.022.05c-.006,0-.017-.011-.028-.033v-.011Zm-.1.3c0-.083.028-.128.078-.128a.09.09,0,0,0,.022.05.044.044,0,0,1-.05.05.068.068,0,0,0,.028.056.074.074,0,0,0-.039.017.04.04,0,0,1-.039-.022Zm-.072.228c0-.017.022-.028.056-.044a.486.486,0,0,1,.017.078.117.117,0,0,1-.056.022H1.489V-2.8Zm-.294.228.017-.006h.028V-2.6l-.017.017C1.2-2.585,1.195-2.6,1.189-2.612Zm.211.089c.05-.056.072-.078.078-.078s.022.017.022.039v.044a.356.356,0,0,1-.078.139.384.384,0,0,1,.011.083.2.2,0,0,1-.067.056H1.356a.027.027,0,0,0-.006-.017c0-.011.022-.067.056-.172V-2.44Zm-.344.106c0-.011.011-.017.028-.022s.011.006.017.022a1,1,0,0,0-.022.111H1.073a.225.225,0,0,1-.017-.067Zm3.167.344H4.25c0,.006-.006.011-.017.011H4.223Zm-.189.211c.056-.067.094-.1.111-.1.017-.039.028-.056.05-.056V-2a1.486,1.486,0,0,0-.15.15c-.006,0-.011,0-.011-.011ZM1.35-2h.006q.033.083.05.083c0,.011-.022.017-.078.017v-.039A.455.455,0,0,1,1.35-2ZM1.156-1.9h.006q.008,0,.033.05c-.006,0-.011.006-.022.006s-.022-.006-.033-.028C1.15-1.885,1.156-1.89,1.156-1.9Zm2.567.044c.006-.017.011-.022.022-.022v.006a.015.015,0,0,1-.017.017Zm-.1.1c0-.039.028-.067.083-.078,0,.039-.022.067-.078.078Zm.272,0c0-.017.028-.033.078-.044h.011v.011a.179.179,0,0,1-.072.072H3.906l-.011-.033Zm-.344.072h.017v.011H3.55Zm.239.05H3.8v.011a.08.08,0,0,0-.011.017H3.778A.031.031,0,0,0,3.789-1.635Zm7.836-4.183-.017.006c-.094.05-.139.1-.139.133a1.09,1.09,0,0,0-.089.117c-.011.089-.017.133-.028.133a.957.957,0,0,1-.089.261v.022l.006.011c-.006,0-.011.017-.017.061-.039.022-.056.044-.056.05a.083.083,0,0,0,.011.05l-.044.061v.022l.006.011c.022-.006.039-.011.039-.028h.006v.017a.829.829,0,0,1-.139.283c-.017.061-.033.089-.05.089a.893.893,0,0,1-.106.172c-.028.089-.05.128-.061.133a.541.541,0,0,0-.056.083.213.213,0,0,1-.044.094,1.332,1.332,0,0,1-.144.217.5.5,0,0,1-.111.172.668.668,0,0,1-.122.194c-.044.072-.083.111-.1.111A.09.09,0,0,1,10.3-3.4v-.028a.1.1,0,0,1-.05.022.341.341,0,0,0-.072.1.086.086,0,0,0,.017.033.16.16,0,0,0,.072-.05h.006v.011A.55.55,0,0,1,10.2-3.2h-.011V-3.24a.012.012,0,0,0-.011-.011h-.006l-.017.011v-.011h-.006c-.039.056-.078.106-.117.156a2.565,2.565,0,0,1-.489.567c-.244.283-.422.422-.544.422H9a.1.1,0,0,1-.039-.006c-.083-.039-.122-.156-.122-.356v-.05a5.153,5.153,0,0,1,.094-.817,6.41,6.41,0,0,1,.261-.928A8.334,8.334,0,0,1,9.548-5.2a1.2,1.2,0,0,0,.122-.35v-.006a.205.205,0,0,0-.011-.072.307.307,0,0,0-.272-.183.613.613,0,0,0-.339.094c-.022,0-.072.094-.144.283L8.72-5c-.044.178-.083.344-.128.494A6.371,6.371,0,0,0,8.17-2.685v.05c0,.044,0,.067.006.067a.946.946,0,0,0,.3.583.967.967,0,0,0,.633.272h.017a.487.487,0,0,0,.267-.117.683.683,0,0,0,.244-.156,4.113,4.113,0,0,0,.533-.594V-2.59a1.2,1.2,0,0,0-.161.161,1.076,1.076,0,0,0-.178.167c0,.039-.061.061-.178.067V-2.2a1.136,1.136,0,0,0,.178-.139,4.064,4.064,0,0,0,.444-.467,9.129,9.129,0,0,0,.639-.933h.006v.006a.912.912,0,0,0-.056.361.959.959,0,0,0,.089.422.783.783,0,0,0,.767.444h.006a1.6,1.6,0,0,0,.844-.261c.083-.072.122-.117.122-.133a1.012,1.012,0,0,0,.256-.278c0-.006,0-.011-.011-.011a.25.25,0,0,0-.05-.094c.006-.028.011-.039.011-.044a.012.012,0,0,0-.011-.011.1.1,0,0,0-.05.022.5.5,0,0,1-.139.144l-.011-.006.006-.022c.056-.044.083-.083.083-.111v-.011h-.011a.1.1,0,0,0-.056.028,1.815,1.815,0,0,1-.3.244c-.011.022-.033.028-.072.028q0,.025-.1.067c-.1.011-.15.028-.15.039l.017.028c0,.006-.022.022-.072.05a.835.835,0,0,1-.261-.039.419.419,0,0,1-.272-.433v-.061a.9.9,0,0,1,.067-.322.154.154,0,0,1-.006-.044,3.366,3.366,0,0,0,.1-.4c.133-.411.2-.622.2-.628a1.98,1.98,0,0,0,.117-.422V-5.2l-.028-.228v-.056a.172.172,0,0,1,.028-.061c0-.006,0-.011-.011-.022l-.017.011h-.011c-.056-.078-.094-.122-.117-.122-.022.022-.033.033-.039.033s-.011-.011-.022-.039L11.77-5.7c-.017-.056-.028-.083-.044-.083H11.72c-.033.006-.056.011-.061.011h-.006A.109.109,0,0,0,11.625-5.818Zm.15.294c0-.006.011-.017.039-.028l.011.006c0,.006-.017.017-.044.022Zm-.061.461h.022c.006,0,.011,0,.011.006v.022L11.742-5a.179.179,0,0,1-.056.122v.028l.028.028-.05.033c0,.006.006.011.006.022-.011.039-.022.056-.033.056a.727.727,0,0,1-.05.156,1.028,1.028,0,0,0-.061.211v.011l.006.011a.043.043,0,0,0,.017-.006h.006V-4.3a.485.485,0,0,1-.028.072c-.011,0-.011-.011-.011-.028H11.5a.425.425,0,0,1-.028.089.254.254,0,0,1-.028.083v.011c0,.011.006.011.011.011l.017-.011c.006-.061.017-.089.039-.089a.043.043,0,0,0,.006.017c-.006.017-.011.028-.017.028-.011.061-.056.239-.139.528l-.022-.022a.274.274,0,0,0,.017-.083l-.011-.017h-.006a1.75,1.75,0,0,0-.061.261c0,.006,0,.011.011.011s.028-.039.039-.106v-.017h.011v.044a.252.252,0,0,1-.022.1.042.042,0,0,1-.028-.011h-.006l-.022.011a.318.318,0,0,1-.056.189c.011.078.022.128.022.139a.243.243,0,0,1-.039.117l-.011-.006a.3.3,0,0,0-.05-.144.036.036,0,0,0-.028.011.756.756,0,0,0,.006.089c-.033,0-.05-.033-.05-.094a.382.382,0,0,0,.017-.139.289.289,0,0,0-.017-.028.24.24,0,0,0,.022-.078c0-.022-.006-.039-.017-.039a.834.834,0,0,0-.05.256l.006.028L11-3.085H11c0-.006,0-.011-.011-.022a.454.454,0,0,0,.006-.078.343.343,0,0,0-.011-.1.484.484,0,0,0,.011-.111.132.132,0,0,0-.017-.083v-.006a.1.1,0,0,0,.039-.011.312.312,0,0,1,.039-.128l-.017-.022-.011.006c-.006.039-.011.061-.022.061h-.022a.156.156,0,0,0-.006-.044.149.149,0,0,1,.044-.089h.006c0,.011.006.017.011.017a.1.1,0,0,0,.039-.083,1.432,1.432,0,0,0,.056-.183.885.885,0,0,0,.067-.172l.072-.094v.006l-.028.144v.006c0,.011,0,.011.011.011h.006l.011-.006-.006-.022c0-.011,0-.011.011-.011h.006l.028.006q.05-.017.05-.05a.361.361,0,0,0,.05-.144.434.434,0,0,0,.05-.117l-.006-.006a.7.7,0,0,0,.05-.15.464.464,0,0,0,.056-.172c0-.017.022-.039.067-.078v-.006c0-.011,0-.017-.006-.022ZM11.481-5,11.492-5c-.011.056-.022.083-.028.083a.281.281,0,0,1-.028.106.043.043,0,0,1-.022-.022c.011,0,.022-.033.033-.094A.209.209,0,0,0,11.481-5Zm-2.35.15a.012.012,0,0,1,.011.011H9.131Zm1.978.033q-.017.008-.017.017V-4.8q.008.017.017.017h.011q.017-.008.017-.017C11.136-4.807,11.125-4.812,11.109-4.818Zm.15.494L11.3-4.49c.033-.028.044-.083.044-.172.028-.083.05-.128.067-.128v.017l-.011.039V-4.7a.108.108,0,0,1-.006.044c-.033.083-.056.15-.078.211-.006.05-.017.072-.028.072v.028c0,.039-.011.056-.017.056h-.011l-.006-.028Zm-.239-.35a.068.068,0,0,1-.033.056v.006c.011.017.017.022.022.022a.092.092,0,0,0,.028-.072v-.011Zm-1.972.011.011.006c-.011.039-.028.061-.039.061A.092.092,0,0,1,9.048-4.662Zm1.933.106H10.97c-.011.033-.028.072-.044.111,0,.006.006.011.006.017h.017l.006-.033c.028-.028.044-.05.044-.067V-4.54Q10.989-4.557,10.981-4.557Zm.633.022h.006v.011h-.006ZM9.581-2.223v-.006c.044-.05.094-.106.144-.172A1.451,1.451,0,0,1,9.9-2.646a.461.461,0,0,1,.089-.122,1.075,1.075,0,0,1,.167-.211.372.372,0,0,1,.144-.228,2.977,2.977,0,0,1,.239-.361c.061-.117.094-.178.094-.178a1.472,1.472,0,0,1,.117-.189c.05-.106.083-.161.1-.161.044-.094.089-.167.117-.217a1,1,0,0,1,.144-.217,3.926,3.926,0,0,1-.083.417,2.225,2.225,0,0,0-.239.372,3.065,3.065,0,0,1-.428.722,3.774,3.774,0,0,1-.772.794ZM8.975-4.518h.006a.179.179,0,0,0,.006.044c-.039.128-.061.194-.072.194-.011.067-.022.1-.028.1V-4.19H8.87v.022a.02.02,0,0,1,.017.006.1.1,0,0,0-.006.033A.616.616,0,0,0,8.831-4a1.074,1.074,0,0,0-.078.256.87.87,0,0,0-.083.289.782.782,0,0,0-.061.261.95.95,0,0,0-.044.239H8.553a.2.2,0,0,1,.011-.089c-.006-.006-.006-.011-.006-.022v-.089l.017-.056v-.039a.154.154,0,0,1,.006-.05.551.551,0,0,0,.044-.15l.039-.183a.171.171,0,0,1,.056-.111v-.017a.612.612,0,0,1,.011-.1A.327.327,0,0,0,8.786-4v-.033A.089.089,0,0,0,8.814-4.1c.033-.117.061-.178.078-.178A.51.51,0,0,1,8.975-4.518Zm1.906.156c-.017.011-.022.017-.022.022v.006q.008.017.017.017h.011c.006,0,.011,0,.011-.011v-.022c0-.006-.006-.006-.011-.011Zm.439.283h-.028c-.022.067-.033.094-.039.094,0-.028-.006-.044-.011-.044h-.011c-.011,0-.017.017-.022.044a.02.02,0,0,0,.017.006c.006,0,.017.017.039.056-.017.05-.028.078-.039.078H11.22L11.2-3.862c.011-.044.022-.072.022-.083v-.017h-.011a.365.365,0,0,0-.044.133l.011.017.011-.006h.028q.017.008.017.017V-3.8a.1.1,0,0,0-.011.044v.011h.017a1.052,1.052,0,0,0,.089-.333Zm-.656.072c-.006,0-.006.006-.011.011l.006.011L10.675-4C10.675-4,10.675-4.007,10.664-4.007ZM11.425-4c-.011,0-.022.022-.028.061.006,0,.006,0,.006.006.017-.006.028-.017.028-.022v-.033Zm2.061.017-.111.117q-.033.1-.067.1v.011c.006.028.017.039.022.039h.006c.011,0,.022-.011.028-.039a1.453,1.453,0,0,0,.133-.211C13.5-3.973,13.492-3.979,13.486-3.979Zm-2.867.044v.017h.011v-.017Zm.439.061.011.006-.006.028h-.011a.02.02,0,0,0-.006-.017Zm-.467,0-.017.011a.266.266,0,0,1-.056.094v.022c.017,0,.044-.033.078-.111v-.017Zm.589.072h-.017a.417.417,0,0,0-.039.111v.039h.006a.182.182,0,0,0,.05-.144Zm.183.028c-.006,0-.011.011-.022.028l.011.006a.069.069,0,0,0,.017-.011v-.022Zm-2.783.05h.006l.006.028-.05.156H8.525v-.006A.418.418,0,0,1,8.581-3.723Zm4.706,0h-.011a.888.888,0,0,1-.183.206l-.05.028v.028h-.033a.052.052,0,0,0-.044.033.012.012,0,0,0,.011.011H13c.006.039.011.056.017.056h.028a.24.24,0,0,1,.078-.111.071.071,0,0,1,.072-.056c.022,0,.039-.022.056-.072l.061-.056A.135.135,0,0,0,13.286-3.723Zm-2.078.017A.012.012,0,0,0,11.2-3.7v.011l.011.017v.011c-.033.006-.05.044-.05.111q0,.008-.033.017L11.1-3.546H11.1a.049.049,0,0,0-.028.044.012.012,0,0,0,.011.011h.011l.017-.011c.017,0,.044.017.072.061h.006q.017-.008.017-.017v-.022c0-.017-.006-.033-.006-.05s.006-.017.006-.022a.094.094,0,0,0-.011-.028c.017,0,.028-.039.028-.117C11.22-3.7,11.214-3.7,11.209-3.707Zm-.722.006a.119.119,0,0,0-.05.072.467.467,0,0,0-.1.15l.006.011a.75.75,0,0,0,.156-.211V-3.69C10.5-3.7,10.492-3.7,10.486-3.7Zm2.628.017-.011.006.006.011.011-.006Zm-.033.044v.006l.006.011a.012.012,0,0,0,.011-.011V-3.64Zm-1.95.033c-.017.006-.028.011-.028.017a.012.012,0,0,0,.011.011h.022V-3.6ZM8.5-3.485c0-.022.006-.033.022-.039h.006V-3.5a.077.077,0,0,1-.028.05Zm2.567.006v.006l.006.011.011-.006a.012.012,0,0,0-.011-.011Zm.211.122A.043.043,0,0,1,11.3-3.4v.022l-.006.028C11.281-3.346,11.281-3.346,11.281-3.357ZM12.92-3.4c-.006,0-.011.011-.017.022a.02.02,0,0,0,.006.017c.017-.011.022-.022.022-.028s0-.006-.006-.011Zm-1.778.011q-.017.008-.017.017v.039a.856.856,0,0,0-.017.089c0,.006.006.011.011.022a.126.126,0,0,0,.044-.106v-.044q-.008-.017-.017-.017Zm-.433.011-.011.006a.376.376,0,0,1-.067.106.069.069,0,0,0,.011.017h.006a.405.405,0,0,1,.067-.106v-.011Zm2.267.039c-.006,0-.006.006-.011.011v.006c0,.011.006.011.011.011s.011,0,.011-.011v-.006C12.986-3.335,12.986-3.34,12.975-3.34Zm-.189.133c.033-.039.056-.061.072-.061.011.017.022.028.022.033s-.011.006-.011.022.011.011.044.022v.022c0,.006-.022.022-.056.061h-.044c0-.011,0-.017.006-.022l.039-.028V-3.19L12.853-3.2l-.056.017a.012.012,0,0,1-.011-.011Zm-1.65-.006c-.011,0-.022.017-.028.05v.006a.012.012,0,0,0,.011.011h.006c.006,0,.011-.022.017-.061C11.136-3.207,11.136-3.207,11.136-3.212ZM8.431-3.2h.011l.011.039a.451.451,0,0,1-.028.078H8.42V-3.09C8.42-3.112,8.425-3.151,8.431-3.2Zm1.667.128v-.011a.326.326,0,0,1,.078-.106h.006A.186.186,0,0,1,10.1-3.073Zm2.522-.061h.017c0,.006-.006.011-.006.017H12.62Zm-4.206.078q.017.008.017.017c0,.022-.006.033-.022.039A.171.171,0,0,0,8.414-3.057Zm1.639.006h.022a.133.133,0,0,1-.044.089h-.006v-.017A.079.079,0,0,0,10.053-3.051Zm.433.006c-.006,0-.011.011-.022.033S10.47-3,10.475-3s.022-.017.022-.022v-.011C10.5-3.04,10.492-3.04,10.486-3.046ZM8.4-2.99h.006l.011.056a.351.351,0,0,1-.022.072H8.392L8.386-2.89v-.017A.274.274,0,0,1,8.4-2.99Zm2.706.028a.02.02,0,0,0,.017-.006c0,.011,0,.017.006.022s-.006.006-.006.017h-.011l-.006-.028Zm-.678-.006v.011h.011v-.011Zm.894.011c.011,0,.017.017.017.056a.282.282,0,0,1,.05.139c-.033,0-.056-.056-.067-.178Zm-1.344.039A.038.038,0,0,1,10-2.951h.006v.017c0,.006-.006.011-.028.022Zm2.25.094c.006-.022.05-.044.128-.067a.306.306,0,0,1,.106-.039h.006v.017c-.006,0-.022.006-.044.011a.8.8,0,0,1-.172.089.042.042,0,0,0-.022-.006Zm-1.1-.089c.017,0,.044.022.083.072v.022q-.008.017-.017.017h-.017q-.017-.008-.05-.1Zm-.772.05-.017.011a.012.012,0,0,0,.011.011h.006c.011,0,.011-.006.011-.011S10.37-2.862,10.359-2.862Zm2.128.017H12.5v.006h-.017Zm-.044.022h.011v.006h-.011ZM10.3-2.762a.276.276,0,0,0-.089.106c.033,0,.061-.033.094-.106Zm-1.922.028c0-.006.006-.006.011-.011h.006v.011Zm3.033-.006h.011a.042.042,0,0,0,.011.022v.006l-.022-.006Zm-.111.006q.017.008.017.017a.024.024,0,0,1-.017.006h-.006v-.011Zm4.9-3.144a.469.469,0,0,0-.322.161,1.714,1.714,0,0,0-.306.561c-.233.667-.394,1.1-.478,1.3a2.147,2.147,0,0,0-.211.55,15.288,15.288,0,0,0-.461,1.833v.017a.375.375,0,0,1,.072.083.234.234,0,0,0,.15.117.264.264,0,0,0,.133.056c.033,0,.056-.006.056-.011.067,0,.128-.078.189-.239.333-.556.594-.972.778-1.239a4.729,4.729,0,0,0,.372-.689,2.617,2.617,0,0,1,.478-.794c.278-.428.5-.639.678-.639h.039a.252.252,0,0,1,.1.022,2.8,2.8,0,0,1,.367.3.359.359,0,0,0-.017-.056v-.033h.006a.3.3,0,0,1,.094.106.722.722,0,0,1,.172.144h.006l.017-.011h.011a.141.141,0,0,0,.089.089c.011,0,.017-.006.017-.011V-4.3q.083.025.083.05v.011q-.05.008-.05.017v.006q.075.083.117.083l.039-.006c.044.011.067.022.078.022l.028-.006v-.017L18.5-4.157v-.006h.05c.006.028.011.044.022.044s.011-.006.011-.011v-.006l-.006-.028h.028a.743.743,0,0,0,.583-.406v-.006h-.006a.513.513,0,0,0-.189.189q-.058,0-.167.117a2.064,2.064,0,0,1-.35.061h-.006l-.011.006c0-.006-.011-.006-.033-.006-.028-.044-.044-.067-.056-.067a.079.079,0,0,1-.033.011c0-.006-.006-.017-.022-.033a.227.227,0,0,1-.106-.078l-.128-.094a.086.086,0,0,1-.056-.089.068.068,0,0,1,.056.033c.067.033.1.056.106.072a.408.408,0,0,1,.078.056l.122.044a.067.067,0,0,1,.05-.033.3.3,0,0,1,.05.039H18.5q.017-.008.017-.017l.039.044h.011a.249.249,0,0,0,.061-.006c.017,0,.028-.022.039-.078a.2.2,0,0,0,.061.017h.017c.078,0,.189-.078.322-.239a.667.667,0,0,1,.283-.2c0-.072-.022-.111-.067-.111l-.033.006a.148.148,0,0,1-.072-.056l-.022.022.011.072c-.017.017-.022.028-.022.033a.271.271,0,0,0,.022.061v.017h-.006c-.011,0-.017-.022-.028-.056-.006,0-.011.006-.017.022l.006.033c-.211.211-.356.317-.428.317a.125.125,0,0,1-.083-.044h-.006a.124.124,0,0,0-.056.017h-.006c-.022-.044-.044-.067-.061-.067l-.089.011a.788.788,0,0,1-.517-.322c-.256-.322-.489-.489-.694-.489-.189,0-.383.133-.6.394a.24.24,0,0,1-.078.111v.022c0,.006,0,.011.011.011h.011a.012.012,0,0,0,.011-.011.283.283,0,0,0,.061.022V-4.8c-.022,0-.05.044-.078.133v.006q.008.017.017.017h.006a.088.088,0,0,0,.067-.028v.006c0,.033-.05.083-.144.144q-.008,0-.033-.05c-.033,0-.061.039-.083.111-.033.017-.05.056-.05.122l.039-.006v.011a.154.154,0,0,1-.061.133h-.006q-.075-.067-.1-.067h-.011a.042.042,0,0,0-.044.033c0,.006,0,.011.011.011h.017c0-.011.006-.017.022-.022a.523.523,0,0,1,.022.056.059.059,0,0,0-.061.044.037.037,0,0,0,.028.022v.006a.408.408,0,0,0-.094.144c0,.039-.033.061-.106.083A.178.178,0,0,0,16-3.8v.006c-.078.011-.111.022-.111.039v.044a.1.1,0,0,1-.011.044.052.052,0,0,0-.033.044V-3.6l.006.011.028-.006a1.134,1.134,0,0,1,.094-.133V-3.7a.212.212,0,0,1-.067.117.954.954,0,0,1-.167.383c-.061.117-.106.178-.128.178L15.6-3.023l-.056.111a6.258,6.258,0,0,1-.517.961h-.006v-.006a.27.27,0,0,1,.033-.094,6.906,6.906,0,0,0,.417-.911,3,3,0,0,0,.15-.311.189.189,0,0,0,.067-.067.792.792,0,0,1,.061-.194l-.011-.006h-.006q-.008,0-.067.067c-.083.183-.144.278-.189.278h-.011V-3.2c.078-.283.139-.494.189-.622,0-.044.206-.517.606-1.417a1.085,1.085,0,0,0,.094-.439v-.028C16.345-5.823,16.289-5.879,16.195-5.879Zm.433,1.167c.011-.011.017-.022.028-.022a.207.207,0,0,1,.1-.106c.022-.061.05-.089.083-.089l.033.006v.011c-.011,0-.017.006-.028.017l.006.056a.149.149,0,0,1-.083.128.711.711,0,0,1-.094.144.67.67,0,0,1-.167.239l-.044-.039.017-.044q.1-.1.133-.1c0-.039.039-.094.106-.167V-4.69l-.039.006h-.039l-.011.006Zm-.722-.067h.011c0,.006-.006.011-.006.022h-.006Zm.011.144c0-.022.017-.039.044-.067h.006v.017a.105.105,0,0,1-.039.078c-.006,0-.006-.006-.011-.011Zm-.117.089c.006-.017.011-.028.028-.033v.033Zm-.111.361a1.014,1.014,0,0,0,.111-.222.2.2,0,0,1,.094-.133c-.061.111-.139.289-.239.522a2.976,2.976,0,0,0-.217.594c0,.056-.039.094-.117.111a.057.057,0,0,1,.006-.022c.044-.144.089-.278.139-.4V-3.74c-.011,0-.028-.011-.039-.044s.022-.067.072-.128a2.425,2.425,0,0,1,.144-.311.02.02,0,0,0-.006-.017c.05-.117.089-.178.122-.183h.006a1.146,1.146,0,0,0-.089.239Zm.1-.322q.017,0,.017.033H15.8c-.006,0-.011-.011-.017-.022Zm.561.122a.064.064,0,0,1,.044-.05.1.1,0,0,1,.033-.05h.011v.033q-.042,0-.05.067v.022c-.006,0-.017.006-.022.006s-.011-.006-.017-.006Zm1.7-.067h.006v.011H18.05Zm-2.5.011.022.006v.006h-.011C15.55-4.429,15.55-4.435,15.55-4.44Zm.028.106h.006l.006.017-.011.006Zm.7.022c-.006,0-.006.006-.011.011l.006.028h.006c.011,0,.011-.006.011-.011V-4.3C16.289-4.307,16.289-4.312,16.278-4.312Zm.106.133a.056.056,0,0,1,.05-.061l.011.006c-.011.039-.022.056-.033.056Zm-.878.05c.017-.05.028-.078.044-.078V-4.2C15.534-4.157,15.517-4.129,15.506-4.129Zm.694-.017c0-.011.011-.017.028-.017h.006a.113.113,0,0,1-.011.061c-.011-.011-.022-.017-.022-.022Zm.139.039c0-.033.011-.05.028-.05h.011L16.35-4.1Zm-.861.028a.012.012,0,0,1,.011.011,1.8,1.8,0,0,1-.122.294h-.011v-.011c.011-.056.017-.078.028-.078A1.763,1.763,0,0,1,15.478-4.079Zm.65.189c.006-.017.017-.022.022-.022a.02.02,0,0,0,.006.017v.006Zm-.011.122c0-.011,0-.011.011-.011h.017c-.011.011-.017.017-.017.028h-.011Zm-.3.083a.012.012,0,0,0-.011.011v.006c0,.011,0,.011.011.011h.017v-.017c0-.006-.006-.006-.011-.011Zm-.039.039q-.017.008-.017.017V-3.6a.012.012,0,0,0,.011.011q.017-.008.017-.017v-.039Zm.183.222q.017-.117.033-.117h.033v.017a.493.493,0,0,1-.061.106h-.006Zm-.022.028h.006c.006,0,.011.006.017.011-.006.022-.028.039-.056.061A.294.294,0,0,1,15.939-3.4Zm-.228.094-.017.011a.055.055,0,0,0,.006.022h.006a.012.012,0,0,0,.011-.011V-3.29Zm.172.006c.006,0,.011.006.011.022l-.006.006h-.011Zm-.089.167c0-.039.011-.056.044-.056v.022c-.017.022-.022.033-.028.033Zm-.628.006h.006V-3.1h-.006Zm-.028.083h.011v.006a2.238,2.238,0,0,1-.111.439c-.033.172-.072.261-.106.261,0,0,0-.006-.011-.006l.006-.011v-.083l.006-.006-.006-.006-.022.006v-.017h.017c.033,0,.05-.033.05-.089v-.017a.25.25,0,0,0-.044.011c0-.011,0-.017-.006-.022s.011-.011.011-.039c.022.017.033.033.033.044h.006c.011,0,.017-.017.022-.05a.442.442,0,0,0,.072-.194A2.2,2.2,0,0,0,15.139-3.04Zm-.378.539c.011-.022.022-.028.028-.028l.006.028v.011q0,.008-.033.017Zm-.056.233a.11.11,0,0,1,.033-.078.172.172,0,0,0,.011.044c-.022.028-.033.039-.039.039h-.006Zm.15.022c0-.006,0-.011.011-.011s.011.006.017.022l-.028-.006Zm-.156,0h.006a.02.02,0,0,0,.006.017.02.02,0,0,0-.006.017l-.011-.006Zm17.722-7.989a.323.323,0,0,0-.194.117,1.121,1.121,0,0,0-.244.117,5.922,5.922,0,0,0-.733.644,13.2,13.2,0,0,0-1.156,1.533q-.392.55-.567.817a8.583,8.583,0,0,0-.439.767l.011.05a.221.221,0,0,0-.106.161c-.039.011-.061.022-.061.033v.022h.033v.006a2.872,2.872,0,0,1-.167.283c-.283.511-.433.794-.456.85a.492.492,0,0,0-.1.206h.011c.033-.011.094-.117.189-.311a5.974,5.974,0,0,0,.367-.639,1.85,1.85,0,0,0,.272-.45,1.646,1.646,0,0,0,.133-.189,4.394,4.394,0,0,1,.344-.533.393.393,0,0,1-.028.089,4.89,4.89,0,0,1-.3.55.858.858,0,0,0-.233.45.22.22,0,0,0-.094.189c-.006,0-.011-.011-.011-.028h-.006c-.011,0-.028.033-.05.106,0,.039-.028.056-.078.056l-.028.083v.011l.011.017v.039L28.711-5.2h-.017a1.287,1.287,0,0,0-.117.172c0,.011.006.011.011.011s.011,0,.022-.011.011.006.022.011l-.128.261H28.5l-.022-.011a.226.226,0,0,1,.044-.106c-.006,0-.006-.006-.006-.011-.022,0-.05.044-.089.133,0,.017.006.022.017.022l.022-.011h.011a.856.856,0,0,1-.089.233v.033H28.4c.022-.022.039-.039.039-.056a5.967,5.967,0,0,1,.494-.844,4.356,4.356,0,0,1,.228-.389c0-.044.056-.083.161-.117l.056-.206.028.022h.011c.028-.028.044-.05.044-.072a.692.692,0,0,0,.122-.244c.05-.05.078-.089.078-.117.044-.067.144-.217.311-.45a6.953,6.953,0,0,1,.65-.911h.011c-.056.089-.367.572-.933,1.439a1.263,1.263,0,0,1-.117.25A11.794,11.794,0,0,0,28.928-5.1c-.122.2-.239.4-.35.606a.208.208,0,0,0,.006.044l-.006.05c-.056,0-.1.067-.128.194a1.428,1.428,0,0,0-.194.361.086.086,0,0,0,.017.033.131.131,0,0,1-.028.072h-.017c-.011,0-.033-.033-.067-.094a.425.425,0,0,0-.1.239v.011h.022c0-.039.011-.061.039-.072l.039.017a.748.748,0,0,1-.056.206c-.083.167-.139.278-.161.339a.142.142,0,0,1-.089.072l.006.033v.072c-.017,0-.028.022-.044.072,0,.061-.033.089-.1.089v.022a.36.36,0,0,0,.017.056v.056a.135.135,0,0,1-.072.022v.022c.017,0,.022.006.022.017s-.017.022-.028.067a.089.089,0,0,1-.044-.017l-.006.017c0,.028.006.067.006.111-.028.05-.05.072-.067.072a.976.976,0,0,1-.128.383q0,.075-.183.1a.042.042,0,0,1-.022-.006v-.006a.535.535,0,0,1,.094-.267,2.143,2.143,0,0,1,.156-.444l-.011-.017a.136.136,0,0,1-.039.006.362.362,0,0,0-.05.106c-.05.172-.089.256-.122.256-.072.167-.128.283-.167.361h-.006a.042.042,0,0,0-.011-.022,4.672,4.672,0,0,1,.406-1.083v-.006c-.022.011-.044.056-.078.122a3.9,3.9,0,0,0-.422,1.139H26.95c0-.006-.033-.106-.106-.3a6.47,6.47,0,0,1-.139-.817c-.039-.661-.061-1.039-.078-1.122V-4.89c0-.039,0-.1-.006-.189q.017-.175.05-.667c.1-1.067.161-1.644.189-1.733a6.863,6.863,0,0,1,.194-1.028,4.091,4.091,0,0,1,.272-.633.746.746,0,0,0,.144-.278c0-.094-.089-.144-.267-.144a.627.627,0,0,0-.428.211.781.781,0,0,0-.261.361,4.263,4.263,0,0,0-.361,1.061c-.011.156-.067.561-.161,1.222a6.968,6.968,0,0,1-.067.883v.217a1.14,1.14,0,0,1-.017.156.353.353,0,0,0,.017.083,1.4,1.4,0,0,0-.039.272c0,.256.011.444.022.567-.017.161-.028.267-.028.317v.078a.329.329,0,0,0,.022.117c0,.022-.006.044-.006.078l.028.217a.273.273,0,0,1-.017.067c.017.033.039.067.056.094a.175.175,0,0,0-.039.061.385.385,0,0,1,.039.139c.022-.011.028-.022.028-.028v-.044h.022l.006.072v.05c0,.006-.017.017-.061.022,0,.172.006.306.011.383a1.728,1.728,0,0,1,.061.306,2.386,2.386,0,0,0,.322.967.371.371,0,0,1,.183.194.9.9,0,0,0,.694.378.24.24,0,0,0,.078-.022c.022,0,.056-.122.1-.372a12.819,12.819,0,0,1,.75-1.794c.406-.85.711-1.45.917-1.794l.744-1.267c.267-.439.428-.694.483-.772A16.194,16.194,0,0,1,31.456-8.7a3.349,3.349,0,0,0,.239-.261,9,9,0,0,1,.956-.817c.133-.072.194-.139.194-.2v-.044a.191.191,0,0,0-.028-.089A.854.854,0,0,0,32.422-10.235Zm-1.744,2.3h.011v.011h-.011Zm-.572.328h.017a.094.094,0,0,0-.011.028h-.006Zm-.528.833c.017-.05.028-.078.033-.078a3.828,3.828,0,0,1,.394-.589,1.416,1.416,0,0,1-.2.344C29.667-6.9,29.595-6.785,29.578-6.773Zm-2.961-.6c.011.006.017.017.017.044V-7.3h-.006c0-.006-.006-.028-.011-.067Zm-.067.25a.015.015,0,0,1,.017-.017h.006v.022H26.55Zm-.011.067h.006V-7h-.006Zm0,.078h.011a.518.518,0,0,0,.039.133.1.1,0,0,1-.044.067l.017.056L26.55-6.7c-.033-.011-.05-.028-.05-.039a.637.637,0,0,1,.039-.222Zm-.044.333c.039,0,.056.033.056.094,0,.111-.022.178-.067.206v.028a.1.1,0,0,1,.039.072.6.6,0,0,0-.05.144.7.7,0,0,1,.017.117v.006a.432.432,0,0,1-.05.144.937.937,0,0,1,.017.122,2.682,2.682,0,0,1-.039.294.09.09,0,0,0,.022.05v.056h-.017c.006.033.011.056.011.056l-.028.128a.365.365,0,0,1,.017.072v.039h-.006a.178.178,0,0,1-.006-.039h-.017c-.006.05-.011.083-.011.094v.011a2.185,2.185,0,0,1,.05.55c0,.006-.011.028-.022.061.006.044.017.317.033.806a.015.015,0,0,1,.017.017v.028a.015.015,0,0,1-.017.017.936.936,0,0,0,.022.183,7.466,7.466,0,0,0,.167,1.322l.089.278a1.131,1.131,0,0,1,.111.261.092.092,0,0,1-.078-.056,1.605,1.605,0,0,0-.15-.267.019.019,0,0,0,.011-.006v-.011c0-.011-.017-.094-.05-.239a.393.393,0,0,0-.078-.067.05.05,0,0,1,.028.006c.011,0,.011-.006.011-.017s-.017-.022-.056-.056c.028,0,.039-.006.039-.011V-2.2c0-.011-.028-.022-.078-.044-.028-.217-.044-.322-.067-.322-.05,0-.078-.022-.078-.061V-2.64a.344.344,0,0,1,.089.022.242.242,0,0,0,.067-.011c0-.028-.006-.044-.028-.05h-.033a.537.537,0,0,1-.022-.128l.056-.044v-.011c-.044,0-.072-.061-.078-.183v-.106c0-.022-.006-.061-.011-.111l.006-.05h.061a.015.015,0,0,0,.017-.017v-.028c0-.028-.028-.061-.078-.089v-.011a.253.253,0,0,1,.061-.017V-3.49h-.011c-.033,0-.056-.006-.056-.022v-.033c.039-.006.061-.017.061-.028l-.006-.017c-.044-.006-.067-.022-.067-.044v-.2c0-.011,0-.078-.011-.189v-.044a.183.183,0,0,1,.022-.094L26.317-4.2c.006-.056.011-.1.011-.128a.36.36,0,0,1-.017-.056v-.061a.09.09,0,0,0,.022-.05.411.411,0,0,0-.033-.111.531.531,0,0,1,.05-.144v-.006c0-.017-.011-.056-.022-.117v-.05a.172.172,0,0,1,.011-.044c0-.078-.006-.183-.011-.3a2.292,2.292,0,0,0,.061-.461.171.171,0,0,1-.006-.056c.017-.139.028-.256.033-.344l.039-.078V-6.3c0-.033.006-.117.017-.261V-6.6A.109.109,0,0,1,26.495-6.646Zm-.528,1.472a.042.042,0,0,0,.022-.006h.006v.044h-.028Zm.006.072a.042.042,0,0,1,.033.044v.006l-.011.017c-.028,0-.039-.017-.039-.044v-.006A.015.015,0,0,0,25.972-5.1Zm.244.15c0-.006.011-.017.033-.028h.006v.006a.164.164,0,0,1-.011.056C26.233-4.918,26.222-4.929,26.217-4.951Zm-.244.083c.017,0,.028.061.033.189V-4.6a.754.754,0,0,1-.017.161c-.017,0-.033-.039-.056-.128A.907.907,0,0,0,25.972-4.868Zm2.233.311c-.033.017-.078.106-.133.256a.51.51,0,0,0-.083.206H28l.017-.006a1.22,1.22,0,0,1,.211-.406l-.011-.05Zm.156.122c-.006,0-.022.022-.05.061h-.072c-.006,0-.028.033-.056.106v.006h.006c.044-.039.067-.056.067-.067s.011.006.011.017v.044a1.525,1.525,0,0,0-.117.239.969.969,0,0,0-.094.194l.006.017a.168.168,0,0,0,.072-.061,2.126,2.126,0,0,1,.261-.489v-.05q0-.008-.017-.017Zm-2.4.044a.012.012,0,0,1,.011-.011c.011,0,.017,0,.017.011v.017a.03.03,0,0,1-.022.017Zm-.028.089a.059.059,0,0,1,.039-.033.274.274,0,0,1,.017.083.273.273,0,0,1-.017.067h-.006a.113.113,0,0,0-.033-.083Zm.267.017a.044.044,0,0,1,.044.028l-.011.033h-.006a.059.059,0,0,1-.033-.039A.042.042,0,0,1,26.2-4.285Zm1.95.1a.078.078,0,0,0-.044.061v.017h.017a.134.134,0,0,1,.033-.072v-.006Zm-2.211.067c0-.006.022-.017.056-.033v.1c0,.022-.006.039-.022.039a.214.214,0,0,1-.033-.094Zm2.028.078a.326.326,0,0,0-.083.183v.011h.006a.326.326,0,0,0,.083-.183V-4.04Zm-1.722.206h.006v.017h-.006Zm1.622.05c-.033,0-.05.022-.05.061v.011h.006c.006,0,.022-.022.05-.061Zm.161,0c-.011,0-.028.028-.039.083v.017l.006.011c.039,0,.056-.039.056-.111Zm-.239.117q-.033.017-.033.033V-3.6h.011c.022-.011.028-.022.028-.028v-.022Zm.178.067h-.022a.677.677,0,0,0-.106.233v.006h.017A1.233,1.233,0,0,0,27.967-3.6Zm-.217.033v.017h.006v-.017ZM26.167-3.5l.067.006v.028a.191.191,0,0,0-.05.006C26.178-3.462,26.167-3.473,26.167-3.5Zm1.506.083c-.072.139-.106.206-.106.211V-3.2l.056-.067a.44.44,0,0,1,.067-.144v-.011ZM26.206-3.4h.039c0,.006-.011.011-.028.017l-.011-.011Zm1.606.067c-.022,0-.044.044-.072.128V-3.2c.056,0,.078-.044.078-.133Zm-1.583.15.028-.017c0,.006.017.011.044.017a.2.2,0,0,1-.039.05A.1.1,0,0,1,26.228-3.179Zm1.461.083a.2.2,0,0,0-.089.178v.006h.011c.017-.006.05-.061.089-.167Zm-.217.061v.017l.006.011c.011,0,.017,0,.017-.011v-.017Zm.106.167c-.011,0-.022.017-.028.061l.006.011c.017,0,.028-.022.028-.067v-.006Zm-.083.161c-.006,0-.011,0-.017.011v.028h.011c.017-.011.028-.022.028-.028v-.011Zm-.467.889a.033.033,0,0,0,.022-.006c0,.056-.011.083-.022.083h-.006l.006-.033Zm.15.072c0-.017.028-.022.078-.028h.006l-.056.1C27.195-1.673,27.183-1.7,27.178-1.746Zm-.189.094h.006l.017.006c-.011.028-.017.039-.022.039Zm.244.089q0-.008.017-.017h.006v.011l-.006.011Zm-.378.017c0-.011.006-.017.011-.017v.028h-.011Zm.367.039c0-.006,0-.011.011-.011l.006.033c-.006.011-.011.022-.017.022Zm4.342-.056a.748.748,0,0,0,.183-.022,1.991,1.991,0,0,0,.817-.506,3.1,3.1,0,0,0,.667-.65c-.061,0-.256.161-.583.478a1.607,1.607,0,0,1-.617.378L32-1.89a.273.273,0,0,1,.106-.117,1.206,1.206,0,0,0,.311-.25,1.113,1.113,0,0,0,.217-.178c.017-.061.033-.094.044-.094l.083.011q.025,0,.033-.1a.134.134,0,0,1,.072.033l.067-.083c.178-.117.267-.206.267-.261a.5.5,0,0,0-.133.044.222.222,0,0,1,.033-.089c.167-.156.25-.267.25-.339a.521.521,0,0,0-.117.106c-.056.106-.1.156-.133.161-.8.717-1.372,1.072-1.717,1.072-.094,0-.144-.028-.144-.089A2.407,2.407,0,0,1,31.7-3.1a10.974,10.974,0,0,1,1.444-1.728.858.858,0,0,1,.544-.322.305.305,0,0,1,.178.056.358.358,0,0,1,.117.233l-.011.1.006.044c-.078.217-.133.328-.167.339h-.05l-.017.011a.393.393,0,0,1-.061.117c-.011-.006-.017-.011-.028-.011a.21.21,0,0,0-.078.139c.006.028.017.039.039.039a.523.523,0,0,0,.194-.067,2.958,2.958,0,0,0-.278.428c.006,0,.006,0,.006.006a.148.148,0,0,0,.056-.022c.072-.117.172-.267.289-.444a.8.8,0,0,0,.139-.1h.006l-.411.617c0,.006.028.022.089.044l.006-.1c.022.05.05.078.078.078a.119.119,0,0,0,.072-.05.015.015,0,0,0,.017.017c.006,0,.011-.017.017-.044-.006,0-.006,0-.006-.006l-.017.006a.252.252,0,0,0,.028-.05.113.113,0,0,0,.061-.039c0,.017,0,.022-.006.022a.53.53,0,0,1-.122.256.05.05,0,0,0-.028-.006c-.006,0-.011.017-.017.056-.3.394-.467.611-.494.656v.011a.042.042,0,0,0,.022-.011,3.19,3.19,0,0,0,.367-.411.277.277,0,0,0-.061.15h.017l.044-.028a.35.35,0,0,1-.039.122L33.636-3c.006-.022.011-.044.017-.061s-.011-.011-.022-.011-.017.028-.028.089l.017.083a.24.24,0,0,0-.022.078.208.208,0,0,0-.033-.056c-.011,0-.017.011-.017.039a1.359,1.359,0,0,0-.122.572A.338.338,0,0,0,33.5-2a.692.692,0,0,0,.517.311.446.446,0,0,0,.111-.011,1.14,1.14,0,0,0,.7-.344c.256-.228.417-.367.478-.406.706-.728,1.072-1.089,1.094-1.094a.194.194,0,0,0,.111-.178c-.061,0-.089-.017-.089-.044l.006-.144a.319.319,0,0,1-.006-.067c0-.017-.028-.028-.089-.033a.088.088,0,0,0-.056.028.921.921,0,0,1-.106.15,2.244,2.244,0,0,0-.278.289.3.3,0,0,0-.083.072l.006.017.033-.011v.011a.266.266,0,0,0-.044.061,5.137,5.137,0,0,1-.694.667c0-.011.022-.039.061-.083-.028,0-.061.022-.106.072s-.228.194-.539.428a.805.805,0,0,1-.267.183c-.028,0-.044-.033-.044-.106A4.8,4.8,0,0,1,34.8-3.9,3.8,3.8,0,0,0,35.32-5.39a.516.516,0,0,0-.194-.417c-.039-.106-.078-.156-.122-.156-.022,0-.05.022-.089.067l-.006-.028h-.017c0,.006,0,.011-.006.011a.685.685,0,0,0-.156.239c-.167.428-.256.639-.261.644l-.022-.139h-.011l-.011.206c.006,0,.006,0,.006.006a.17.17,0,0,1-.05.072c-.006,0-.011-.011-.022-.028l.022-.039L34.375-5.1c.017-.022.028-.033.028-.039a1.368,1.368,0,0,0-.083-.228c.056.017.083.039.083.061h.011q-.017-.067-.033-.067a.4.4,0,0,1-.111-.05c0-.006,0-.006.006-.006a.253.253,0,0,1,.106.044.644.644,0,0,0-.128-.228.169.169,0,0,0-.072-.05A.514.514,0,0,0,33.8-5.79a1.8,1.8,0,0,0-.55.117,2.77,2.77,0,0,0-.722.489l-.278.25a10.184,10.184,0,0,0-.794.911,3.346,3.346,0,0,0-.806,1.683A.711.711,0,0,0,30.8-1.9a.867.867,0,0,0,.683.333Zm2.294-3.706h-.033l.022-.028C33.853-5.3,33.858-5.285,33.858-5.268Zm-2.35,2.161a.281.281,0,0,1-.044-.106q0-.042.15-.2l-.044-.033v-.011c.006-.022.017-.028.022-.028s.011.022.033.039h.011a.292.292,0,0,1,.033-.083c-.011-.006-.017-.017-.017-.044a.314.314,0,0,0,.15-.083.622.622,0,0,1,.1-.15.287.287,0,0,1-.033-.039.253.253,0,0,0,.111-.028,8.356,8.356,0,0,1,.6-.689,1.457,1.457,0,0,1,.394-.322c0,.033-.111.156-.344.361a2.355,2.355,0,0,1-.222.261c-.261.311-.428.494-.494.556a1,1,0,0,1-.167.267c-.122.106-.178.161-.178.178C31.57-3.173,31.547-3.123,31.508-3.107Zm2.878-1.639a.015.015,0,0,1-.017-.017A.035.035,0,0,1,34.4-4.8l.006.017Q34.4-4.746,34.386-4.746Zm.517.139L34.9-4.64c0-.017.017-.028.039-.039l.017.039A.1.1,0,0,1,34.9-4.607Zm-.95.339a.625.625,0,0,1,.206-.211,1.317,1.317,0,0,0,.089-.133.051.051,0,0,1,.028.017.7.7,0,0,0-.05.117A.878.878,0,0,1,33.953-4.268Zm.9-.2L34.847-4.5a.107.107,0,0,1,.061-.1A.135.135,0,0,1,34.853-4.468ZM34-2.085a.441.441,0,0,1-.028-.211l-.006-.067a.258.258,0,0,0,.039-.1.148.148,0,0,0-.028-.072V-2.54l.067-.061a.373.373,0,0,1,.039-.15c-.006-.017-.017-.028-.022-.028A.086.086,0,0,0,34-2.74c-.022.128-.039.189-.05.189a.314.314,0,0,0-.056.15c0,.017.011.022.028.028q-.042.05-.067.05a.208.208,0,0,1-.061.006.363.363,0,0,1,.011-.061,2.161,2.161,0,0,0,.133-.333h-.011a.222.222,0,0,1-.056.089.08.08,0,0,1-.011-.039v-.011l.044-.089L33.9-2.779a.052.052,0,0,1,.039-.05h.006l.006.067c.044,0,.067-.033.067-.106l-.006-.039c-.039-.006-.061-.017-.061-.039l-.006.006-.006.017-.006-.006.006-.011c.106-.094.161-.15.161-.172s-.011-.017-.017-.017-.028.028-.044.078A.074.074,0,0,1,34-3.068v-.011a.077.077,0,0,0,.028-.056.186.186,0,0,0,.022-.078q0-.025.05-.033a.232.232,0,0,1-.017-.05c0-.006.011-.017.033-.022v.061l.006.011a.057.057,0,0,0,.044-.028V-3.29a.3.3,0,0,1-.056-.1l.067.006c.017,0,.022-.017.022-.05,0-.011-.017-.017-.044-.022A.172.172,0,0,1,34.17-3.5l.044.028a.074.074,0,0,0,.017-.039c.028-.039.044-.061.044-.078s.067-.167.194-.472a1.509,1.509,0,0,1,.206-.472l.028.017a.012.012,0,0,1-.011.011.8.8,0,0,0-.094.283,1.475,1.475,0,0,0-.178.461.089.089,0,0,0,.017.044c0,.006,0,.006-.006.006L34.4-3.718a.982.982,0,0,0-.067.178.08.08,0,0,0,.011.039.172.172,0,0,0-.067.017l.006.033a.346.346,0,0,0-.061.094.893.893,0,0,1-.039.211q.008.017.017.017a.067.067,0,0,0,.05-.033A.53.53,0,0,1,34.32-3.4l-.006-.033c0-.006.017-.011.044-.028a.579.579,0,0,1,.044-.194l.05.011c.017,0,.033-.028.05-.089a2.851,2.851,0,0,0,.156-.356c.028-.117.061-.178.1-.178a.671.671,0,0,1,.028.128l-.006.017c-.044.006-.067.017-.067.039l-.033.1a.181.181,0,0,0-.056.1.271.271,0,0,1,.022.072l-.006.011L34.6-3.807c-.006,0-.006.006-.011.011l.017.028-.006.022a.281.281,0,0,1,.011.072c-.05,0-.078.017-.078.05a.251.251,0,0,1,.017.072.079.079,0,0,1-.011.033l-.056-.011c-.006,0-.011.011-.017.028l.028.039c-.039.006-.056.011-.056.022a.24.24,0,0,1,.022.078.084.084,0,0,1-.022.061L34.4-3.312c-.011,0-.017.006-.022.022a.175.175,0,0,0,.039.061.223.223,0,0,1-.044.089v.05A4.564,4.564,0,0,0,34.2-2.6l-.1.156.022.044a.275.275,0,0,1-.022.072l.006.05a.142.142,0,0,1-.039.067l.006.044C34.07-2.112,34.042-2.085,34-2.085ZM34.792-4.3c-.028,0-.044-.006-.05-.028s.022-.056.078-.117l.067.028a.125.125,0,0,1-.006.056l-.033-.006C34.825-4.362,34.8-4.34,34.792-4.3Zm-.622.05A.058.058,0,0,1,34.2-4.3v.006C34.2-4.273,34.186-4.262,34.17-4.246Zm-.122.033c-.006,0-.006,0-.006-.006a.042.042,0,0,1,.039-.022A.057.057,0,0,1,34.047-4.212Zm.689.178c0-.006-.006-.006-.011-.011l.017-.022c.006,0,.011.011.017.022Zm-.728.017c-.006,0-.006,0-.006-.006a.141.141,0,0,0,.011-.039h.011Zm-1.683-.011c-.006,0-.011-.006-.011-.022C32.325-4.051,32.325-4.04,32.325-4.029Zm1.617.217h-.006l.117-.211a.012.012,0,0,1,.011.011l.011-.006A.527.527,0,0,1,33.942-3.812Zm-1.706-.094h-.022c.006-.017.017-.028.028-.028Zm1.6.089h-.028a.048.048,0,0,0-.017-.033v-.011a.1.1,0,0,0,.044-.022Zm-.044.128-.017-.022v-.006c.022,0,.033.011.033.022Zm.428.083h-.006a.118.118,0,0,1,.056-.111l.006.011c0,.017-.006.028-.017.028C34.258-3.629,34.247-3.607,34.22-3.607Zm-2.639-.011h-.028v-.006l.017-.006.011.006Zm1.961.294a.617.617,0,0,0,.172-.189l-.006-.011-.05.006c-.011-.033-.022-.05-.028-.05l-.011.006c-.017-.039-.028-.056-.033-.056a.534.534,0,0,0-.133.189l.039.006a.1.1,0,0,0,.033-.044c.006,0,.017.017.039.05a.134.134,0,0,0-.033.072C33.531-3.329,33.531-3.323,33.542-3.323Zm1.333,1.072c0-.011.006-.022.022-.039V-2.3h-.006a.079.079,0,0,1-.061.022l.017-.044c.078-.061.189-.156.328-.283q.075-.1.1-.1h.044L35.3-2.74c0-.011.011-.022.033-.039a.785.785,0,0,0,.239-.25l-.017-.006A.168.168,0,0,0,35.5-3c.028-.044.05-.067.061-.067.061,0,.094-.006.094-.022a1.022,1.022,0,0,1,.183-.139v-.006h-.022a1.2,1.2,0,0,0,.178-.178l.022.006.1-.067-.006-.017a.23.23,0,0,0-.067.039h-.011a.483.483,0,0,1,.094-.089q0-.033.15-.067c-.017.028-.078.106-.178.233-.478.494-.722.739-.739.739-.117.128-.194.194-.233.194A1.255,1.255,0,0,1,34.875-2.251Zm-1.261-1.2h-.022l-.05-.033.039-.072a.105.105,0,0,1,.039.078Zm2.556-.061a.039.039,0,0,1,.017-.022v-.017l-.017.011-.011-.006c-.006.006-.006.011-.006.022S36.164-3.512,36.17-3.512Zm-4.633.022-.028-.017c.006-.017.011-.022.017-.022l.022.017A.022.022,0,0,0,31.536-3.49Zm2.172.344a.06.06,0,0,1-.022-.028c.033-.111.067-.167.089-.167A1.493,1.493,0,0,1,33.708-3.146Zm-.267-.083.022-.006v-.011a.094.094,0,0,1-.028-.011A.042.042,0,0,0,33.442-3.229Zm-.028.083.028-.05a.005.005,0,0,1-.006-.006l-.039.017C33.4-3.162,33.408-3.146,33.414-3.146ZM31.5-3.162c.006,0,.011-.006.011-.017s-.006-.011-.017-.011Zm-.089.094h-.044l-.006-.017a.059.059,0,0,1,.067-.067A.246.246,0,0,1,31.408-3.068Zm1.967-.022c-.006-.006-.006-.017-.006-.033-.011,0-.017.006-.022.028,0,.006.006.006.017.006Zm-.078.078.028-.05-.011-.006-.067.006Q33.281-3.012,33.3-3.012Zm-1.961.089a.142.142,0,0,1,.039-.106C31.364-2.957,31.347-2.923,31.336-2.923ZM35.3-2.8H35.3l.022-.039a.535.535,0,0,0,.122-.106l-.006.017C35.386-2.846,35.342-2.8,35.3-2.8Zm-.067-.061c.033-.028.044-.039.044-.05s0-.011-.011-.011-.017.017-.033.044Zm-3.978.039c0-.044.011-.061.033-.061l.044.011C31.336-2.857,31.314-2.84,31.258-2.823ZM33.97-2.84a.079.079,0,0,1-.033-.011l.011-.017.028.006Zm-.95.072-.072-.022c.022-.05.044-.072.061-.072s.033.011.033.044A.09.09,0,0,1,33.02-2.768Zm.533.011.011-.05c.006,0,.017.011.022.033S33.575-2.757,33.553-2.757Zm-.639.078h-.039v-.033c0-.006.011-.011.033-.011Zm2.122.033H35c0-.006.006-.011.017-.011S35.036-2.651,35.036-2.646Zm-1.511.039-.006-.017c.006-.011.011-.017.011-.028h.011C33.536-2.623,33.531-2.607,33.525-2.607Zm.306.139-.022-.006c0-.006,0-.011.011-.011S33.831-2.479,33.831-2.468Zm.044.2c-.028,0-.039-.006-.039-.011s0-.017.011-.017A.026.026,0,0,1,33.875-2.268Zm4.547.678a1.287,1.287,0,0,0,.167-.017,1.687,1.687,0,0,0,.778-.406,1.3,1.3,0,0,0,.306-.294h.011v.022h.006a.1.1,0,0,0,.033-.044l-.05.017a.964.964,0,0,1-.261.183l-.017-.044A.057.057,0,0,0,39.4-2.2c.094-.078.256-.233.489-.467a2.684,2.684,0,0,0,.467-.606,1.614,1.614,0,0,0,.261-.6l-.011-.067h-.017a2.753,2.753,0,0,1-.206.4L40.4-3.5l.028-.006V-3.5c-.022.039-.039.061-.044.061s0-.017-.011-.017a.677.677,0,0,1-.094.089.562.562,0,0,1-.122.267v.011h.011a.148.148,0,0,1-.061.072.087.087,0,0,1-.072.061l.061-.156-.006-.006a.105.105,0,0,0-.094.067.722.722,0,0,1-.294.322,3.06,3.06,0,0,1-.394.361,1.453,1.453,0,0,1-.811.406c-.217-.022-.328-.172-.328-.461a4.132,4.132,0,0,1,.144-.922,1.434,1.434,0,0,1,.306-.622,23.219,23.219,0,0,0,1.567-2.944,10.741,10.741,0,0,0,1.078-3.461.218.218,0,0,0-.017-.078l-.15-.056c-.111-.122-.194-.178-.25-.178h-.039a.715.715,0,0,0-.45.217,2.386,2.386,0,0,0-.483.75c-.406.978-.689,1.683-.833,2.111q-.633,1.775-.633,1.9v.094l-.028-.006a1.277,1.277,0,0,1-.111.406.4.4,0,0,1-.072.233.658.658,0,0,1-.139.272.089.089,0,0,0,.022.067l-.006.017c-.033.022-.044.122-.044.3-.044.133-.078.272-.117.417a.674.674,0,0,1-.089.106l.044.017a.068.068,0,0,1-.022.05.278.278,0,0,0-.106.144,7.7,7.7,0,0,0-.15,1.117,2.849,2.849,0,0,0,.028.311.552.552,0,0,0,.111.3A.876.876,0,0,0,38.422-1.59Zm.817-3.722c.011-.033.289-.606.833-1.722a1.378,1.378,0,0,1,.117-.317,1.943,1.943,0,0,1,.156-.35,1.594,1.594,0,0,1,.144-.328,3.771,3.771,0,0,1,.156-.522,1.271,1.271,0,0,0,.117-.372,7.228,7.228,0,0,0,.211-.7c.061-.456.111-.683.144-.683a.375.375,0,0,1,.017.094,2.192,2.192,0,0,1-.017.222c-.072.372-.106.572-.106.594a.334.334,0,0,1-.078.217,1.115,1.115,0,0,1-.089.328,3.011,3.011,0,0,1-.183.522,10.307,10.307,0,0,1-.556,1.367c-.089.261-.167.406-.222.433a.042.042,0,0,0,.006.028l-.056.167a.257.257,0,0,1-.1.117,1.506,1.506,0,0,1-.233.483A1.262,1.262,0,0,1,39.239-5.312Zm-.322-.05a.829.829,0,0,1,.033-.144q.467-1.408,1.017-2.794a7.938,7.938,0,0,1,.761-1.622,2.065,2.065,0,0,1-.078.356,2,2,0,0,0-.083.428.889.889,0,0,0-.106.372,1.373,1.373,0,0,1-.189.422.779.779,0,0,1-.078.289.386.386,0,0,1-.078.222c-.05.15-.083.228-.106.233-.061.178-.128.339-.194.494-.133.261-.239.478-.311.639a1.275,1.275,0,0,1-.206.406l-.189.406A1.058,1.058,0,0,1,38.917-5.362Zm1.417-4.317h-.006v-.028c0-.006.011-.017.039-.033v.033C40.367-9.7,40.356-9.7,40.333-9.679Zm-.15.239-.028-.006a1.382,1.382,0,0,1,.133-.194l.006.028q0,.033-.05.067A.322.322,0,0,1,40.183-9.44Zm-.156.328h-.011a.348.348,0,0,1,.128-.3h.006A1.141,1.141,0,0,1,40.028-9.112Zm.811-.261h-.006V-9.4h.006ZM37.856-3.407a.817.817,0,0,1,.028-.189q.083-.342.35-1.333c.25-.767.428-1.283.533-1.539a2.794,2.794,0,0,1,.172-.489c.05-.161.133-.406.256-.722a6.241,6.241,0,0,1,.439-.989.808.808,0,0,1-.05.172c-.311.817-.5,1.3-.55,1.461a5.427,5.427,0,0,0-.344,1.017c.006,0,.022-.017.05-.044a1.442,1.442,0,0,0,.15-.439l-.006-.011.061-.117c.033-.106.072-.156.122-.156,0,.006-.033.139-.111.406a.005.005,0,0,1,.006.006.2.2,0,0,0,.05-.05.681.681,0,0,1,.067-.222.566.566,0,0,1,.039-.178c0-.011,0-.017-.011-.017l-.039.039-.006-.039.006-.083a2.158,2.158,0,0,1,.15-.372c.011,0,.017.022.022.067a.963.963,0,0,1-.056.217V-7c.017,0,.039-.028.072-.083a1.786,1.786,0,0,1,.072-.267.353.353,0,0,0-.067-.039.147.147,0,0,1,.044-.122.08.08,0,0,1,.033.039l-.05.05v.017q.025.033.033.033a.607.607,0,0,0,.117-.283.005.005,0,0,1-.006-.006.172.172,0,0,0-.044.011l.006.022a.045.045,0,0,1-.044.022.119.119,0,0,1,.072-.122c.006,0,.006,0,.006.006a.015.015,0,0,0-.017.017c.006.011.011.017.022.017s.017-.011.017-.033l-.006-.017c.033,0,.044-.039.044-.111,0-.006-.017-.017-.056-.033.006-.017.011-.028.017-.028.044-.122.072-.206.094-.25h.006l.017.106.022-.006a.46.46,0,0,0,.1-.233l-.028.006c-.011,0-.011-.011-.011-.044a.284.284,0,0,1,.117-.233.168.168,0,0,0-.022-.072.6.6,0,0,0,.094-.078l-.044.189h.011a5.957,5.957,0,0,1,.35-.722,11.753,11.753,0,0,1-.433,1.144,1.771,1.771,0,0,1-.128.378c-.078.239-.133.4-.167.489a2.582,2.582,0,0,0-.189.567,5.028,5.028,0,0,0-.194.483,4.081,4.081,0,0,1-.2.572,3.414,3.414,0,0,1-.522,1.261c.056-.222.083-.339.083-.356-.011,0-.028.017-.044.044a1.482,1.482,0,0,1-.094.3h-.006v-.011h-.006c-.039.067-.067.1-.078.1V-4.29h-.006a.268.268,0,0,0-.044.067c.006,0,.006,0,.006.006l.028-.006.006.039a.1.1,0,0,1-.028.028c-.033,0-.072.067-.111.206a.241.241,0,0,1,.006.028.116.116,0,0,1,.039.094h-.006c-.006-.011-.017-.028-.033-.056h-.006C37.939-3.562,37.883-3.407,37.856-3.407Zm2-5.356a.06.06,0,0,1-.022-.028.19.19,0,0,0,.05-.094c.044-.111.083-.167.117-.178a.388.388,0,0,1-.044.111A.435.435,0,0,1,39.856-8.762ZM39.778-9v-.011a.03.03,0,0,1,.022-.017l.006.017Zm-.117.294h-.006a.433.433,0,0,1,.078-.206l.011.006A.8.8,0,0,1,39.661-8.707Zm.133.006c-.011,0-.011-.006-.017-.011v-.006a.241.241,0,0,0,.028.006A.012.012,0,0,1,39.794-8.7Zm-.2.528h-.006a.037.037,0,0,1-.022-.039.139.139,0,0,1,.028-.061.069.069,0,0,1,.022.061A.07.07,0,0,0,39.594-8.173Zm-.028.233.006-.033h-.006a.03.03,0,0,0-.017.022C39.55-7.946,39.556-7.94,39.567-7.94Zm-.061.056.017-.011c0-.017-.006-.028-.017-.028s-.017.011-.017.022S39.5-7.885,39.506-7.885Zm.65.094h-.011v-.017h.011Zm-.061.139h-.006v-.022h.006ZM38.922-6.285c.017-.011.028-.022.028-.033l-.006-.011c-.017.017-.028.028-.028.033Zm.178.05v-.028h.006l.006.017C39.111-6.24,39.111-6.235,39.1-6.235Zm-.2.044.033-.028a.049.049,0,0,0-.028-.044l-.033.028A.049.049,0,0,0,38.9-6.19Zm-.083.206c.039,0,.061-.056.072-.172a.012.012,0,0,0-.011-.011h-.006c-.017,0-.039.061-.061.178A.005.005,0,0,1,38.817-5.985Zm.244-.106v-.022c.006,0,.006,0,.006.011S39.067-6.09,39.061-6.09Zm-.3.061c.011,0,.017-.006.022-.022h-.006c-.011.006-.022.017-.022.022ZM39.022-6v-.028h.006l.006.022Zm-.406.194a.4.4,0,0,0,.072-.2h-.006c-.028,0-.056.067-.078.194Zm-.194.961c.022,0,.056-.067.106-.206l-.006-.011a.02.02,0,0,1,.006-.017,1.081,1.081,0,0,0,.089-.25,5.741,5.741,0,0,0,.183-.578h-.006c-.011,0-.039.05-.078.15a3.267,3.267,0,0,1-.178.489.168.168,0,0,0-.056.05c0,.028.011.039.033.039a.48.48,0,0,1-.044.156.184.184,0,0,0-.083-.022.276.276,0,0,0-.056.111c0,.011.011.022.039.028l.044-.006v.067Zm.178-.872c0-.011.006-.017.017-.028s-.006-.011-.017-.011-.011.011-.011.039Zm.072.033-.006-.033h-.006l-.033.022C38.628-5.685,38.639-5.685,38.672-5.685Zm-.139.15.022-.072H38.55c-.017.017-.028.022-.028.028v.044Zm.056.028.033-.022a.03.03,0,0,0-.022-.033c-.017.011-.022.017-.022.028S38.583-5.518,38.589-5.507Zm-.133.256a.511.511,0,0,0,.039-.161c-.011-.028-.022-.039-.039-.039a1.425,1.425,0,0,0-.039.189C38.417-5.257,38.433-5.251,38.456-5.251Zm.083-.094c.017-.011.028-.022.028-.033s-.011-.017-.011-.022h-.011c-.006,0-.017.006-.022.022A.048.048,0,0,0,38.539-5.346Zm.328.083.022-.056h.006v.033C38.894-5.273,38.883-5.268,38.867-5.262Zm-.339.056v-.028h.006l.006.022Zm-.133.128a.154.154,0,0,0,.028-.089c.006,0,.017.022.028.072a.083.083,0,0,0,.033-.039c-.033-.061-.05-.089-.056-.089l-.011.006c0-.006,0-.006-.006-.006s-.022.039-.039.106l.011.039Zm.744-.05a.091.091,0,0,1,.044-.083A.087.087,0,0,1,39.139-5.129Zm-.689.139h-.006v-.022h.011Zm-.006.039h-.022v-.011h.033C38.456-4.951,38.456-4.951,38.444-4.951Zm-.122.172c.039,0,.061-.033.061-.089,0-.006-.011-.011-.028-.017-.039,0-.056.022-.056.072Zm-.067.072c.006,0,.022-.039.039-.122h-.011c-.028.022-.044.039-.044.067A.181.181,0,0,0,38.256-4.707Zm-.078.344.011-.006-.006-.072.022-.139c-.022,0-.044.072-.067.211l.011.006Zm-.383.861q-.008,0-.017-.033h.017Zm.317.022c-.006-.006-.011-.006-.028-.006a.34.34,0,0,1,.028-.033Zm-.094.017h-.011V-3.49h.006Zm.072.289a.309.309,0,0,1-.072-.061.776.776,0,0,1,.078-.189q.025.008.033.05c0,.044-.006.089-.006.139A.132.132,0,0,1,38.089-3.173Zm-.161-.089h-.033a.749.749,0,0,1,.056-.156.138.138,0,0,1,.039.1C37.989-3.29,37.967-3.268,37.928-3.262Zm-.094-.011a.012.012,0,0,1-.011-.011v-.028c.006-.028.017-.044.022-.044l.006.033A.232.232,0,0,1,37.833-3.273Zm.083.128c0-.028.017-.039.044-.039A.04.04,0,0,1,37.917-3.146Zm-.133.172c-.011-.006-.022-.017-.022-.022l.022-.033a.192.192,0,0,0-.017-.067.089.089,0,0,1,.017-.044c.028.017.039.033.039.05A.3.3,0,0,1,37.783-2.973Zm.211.739h-.006c-.022-.122-.033-.183-.033-.189-.017-.128-.022-.194-.033-.194a.06.06,0,0,0-.039.017h-.017a.5.5,0,0,0,.05-.128q.033,0,.083-.283l-.006-.039c0-.05.033-.072.094-.072.011,0,.011.022.011.072l-.056.422a.344.344,0,0,1-.061.017V-2.6l.044.089Zm-.061-.833c0-.011-.006-.017-.011-.017l.011-.033c.006,0,.011.011.022.033ZM38.017-3a.012.012,0,0,0,.011-.011c0-.011-.006-.011-.011-.017h-.006v.017Zm-.122.233h-.006c0-.028-.017-.05-.05-.078a.077.077,0,0,0,.05-.028c.006-.083.017-.128.044-.128A.643.643,0,0,1,37.894-2.768Zm1.811.211-.022-.011a1.775,1.775,0,0,1,.144-.167c.089-.128.15-.194.194-.206a.228.228,0,0,1-.039.067A3.853,3.853,0,0,0,39.706-2.557ZM37.761-2.7h-.022l.017-.233.033.089Zm-.044.078v-.028h.006c0,.011,0,.017.006.022Zm.144.094h-.022l.006-.011c.006,0,.011.006.017.006Zm7.53-3.289-.017.006c-.094.05-.139.1-.139.133a1.09,1.09,0,0,0-.089.117c-.011.089-.017.133-.028.133a.957.957,0,0,1-.089.261v.022l.006.011c-.006,0-.011.017-.017.061-.039.022-.056.044-.056.05a.083.083,0,0,0,.011.05l-.044.061v.022l.006.011c.022-.006.039-.011.039-.028h.006v.017a.829.829,0,0,1-.139.283c-.017.061-.033.089-.05.089a.893.893,0,0,1-.106.172c-.028.089-.05.128-.061.133a.541.541,0,0,0-.056.083.213.213,0,0,1-.044.094,1.332,1.332,0,0,1-.144.217.5.5,0,0,1-.111.172.668.668,0,0,1-.122.194c-.044.072-.083.111-.1.111a.09.09,0,0,1,.022-.056v-.028a.1.1,0,0,1-.05.022.341.341,0,0,0-.072.1.086.086,0,0,0,.017.033.16.16,0,0,0,.072-.05h.006v.011a.55.55,0,0,1-.072.106h-.011V-3.24a.012.012,0,0,0-.011-.011h-.006l-.017.011v-.011h-.006c-.039.056-.078.106-.117.156a2.565,2.565,0,0,1-.489.567c-.244.283-.422.422-.544.422h-.006a.1.1,0,0,1-.039-.006c-.083-.039-.122-.156-.122-.356v-.05a5.153,5.153,0,0,1,.094-.817,6.41,6.41,0,0,1,.261-.928,8.334,8.334,0,0,1,.356-.939,1.2,1.2,0,0,0,.122-.35v-.006a.2.2,0,0,0-.011-.072.307.307,0,0,0-.272-.183.613.613,0,0,0-.339.094c-.022,0-.072.094-.144.283L42.486-5c-.044.178-.083.344-.128.494a6.371,6.371,0,0,0-.422,1.822v.05c0,.044,0,.067.006.067a.946.946,0,0,0,.3.583.967.967,0,0,0,.633.272h.017a.487.487,0,0,0,.267-.117.683.683,0,0,0,.244-.156,4.113,4.113,0,0,0,.533-.594V-2.59a1.2,1.2,0,0,0-.161.161,1.076,1.076,0,0,0-.178.167c0,.039-.061.061-.178.067V-2.2A1.136,1.136,0,0,0,43.6-2.34a4.064,4.064,0,0,0,.444-.467,9.129,9.129,0,0,0,.639-.933h.006v.006a.912.912,0,0,0-.056.361.959.959,0,0,0,.089.422.783.783,0,0,0,.767.444h.006a1.6,1.6,0,0,0,.844-.261c.083-.072.122-.117.122-.133a1.012,1.012,0,0,0,.256-.278c0-.006,0-.011-.011-.011a.25.25,0,0,0-.05-.094c.006-.028.011-.039.011-.044a.012.012,0,0,0-.011-.011.1.1,0,0,0-.05.022.5.5,0,0,1-.139.144l-.011-.006.006-.022c.056-.044.083-.083.083-.111v-.011h-.011a.1.1,0,0,0-.056.028,1.816,1.816,0,0,1-.3.244c-.011.022-.033.028-.072.028q0,.025-.1.067c-.1.011-.15.028-.15.039l.017.028c0,.006-.022.022-.072.05a.835.835,0,0,1-.261-.039.419.419,0,0,1-.272-.433v-.061a.9.9,0,0,1,.067-.322.154.154,0,0,1-.006-.044,3.367,3.367,0,0,0,.1-.4c.133-.411.2-.622.2-.628a1.98,1.98,0,0,0,.117-.422V-5.2l-.028-.228v-.056a.172.172,0,0,1,.028-.061c0-.006,0-.011-.011-.022l-.017.011H45.7c-.056-.078-.094-.122-.117-.122-.022.022-.033.033-.039.033s-.011-.011-.022-.039l.011-.017c-.017-.056-.028-.083-.044-.083h-.006c-.033.006-.056.011-.061.011h-.006A.109.109,0,0,0,45.392-5.818Zm.15.294c0-.006.011-.017.039-.028l.011.006c0,.006-.017.017-.044.022Zm-.061.461H45.5c.006,0,.011,0,.011.006v.022L45.508-5a.179.179,0,0,1-.056.122v.028l.028.028-.05.033c0,.006.006.011.006.022-.011.039-.022.056-.033.056a.727.727,0,0,1-.05.156,1.028,1.028,0,0,0-.061.211v.011l.006.011a.043.043,0,0,0,.017-.006h.006V-4.3a.485.485,0,0,1-.028.072c-.011,0-.011-.011-.011-.028h-.017a.425.425,0,0,1-.028.089.254.254,0,0,1-.028.083v.011c0,.011.006.011.011.011l.017-.011c.006-.061.017-.089.039-.089a.043.043,0,0,0,.006.017c-.006.017-.011.028-.017.028-.011.061-.056.239-.139.528L45.1-3.612a.274.274,0,0,0,.017-.083l-.011-.017H45.1a1.75,1.75,0,0,0-.061.261c0,.006,0,.011.011.011s.028-.039.039-.106v-.017H45.1v.044a.252.252,0,0,1-.022.1.042.042,0,0,1-.028-.011h-.006l-.022.011a.318.318,0,0,1-.056.189c.011.078.022.128.022.139a.243.243,0,0,1-.039.117l-.011-.006a.3.3,0,0,0-.05-.144.036.036,0,0,0-.028.011.756.756,0,0,0,.006.089c-.033,0-.05-.033-.05-.094a.382.382,0,0,0,.017-.139.288.288,0,0,0-.017-.028.24.24,0,0,0,.022-.078c0-.022-.006-.039-.017-.039a.833.833,0,0,0-.05.256l.006.028-.011.033h-.006c0-.006,0-.011-.011-.022a.454.454,0,0,0,.006-.078.343.343,0,0,0-.011-.1.484.484,0,0,0,.011-.111.132.132,0,0,0-.017-.083v-.006a.1.1,0,0,0,.039-.011.312.312,0,0,1,.039-.128L44.8-3.646l-.011.006c-.006.039-.011.061-.022.061h-.022a.156.156,0,0,0-.006-.044.149.149,0,0,1,.044-.089h.006c0,.011.006.017.011.017a.1.1,0,0,0,.039-.083,1.433,1.433,0,0,0,.056-.183.885.885,0,0,0,.067-.172l.072-.094v.006l-.028.144v.006c0,.011,0,.011.011.011h.006l.011-.006-.006-.022c0-.011,0-.011.011-.011h.006l.028.006q.05-.017.05-.05a.361.361,0,0,0,.05-.144.434.434,0,0,0,.05-.117l-.006-.006a.7.7,0,0,0,.05-.15.464.464,0,0,0,.056-.172c0-.017.022-.039.067-.078v-.006c0-.011,0-.017-.006-.022ZM45.247-5,45.258-5c-.011.056-.022.083-.028.083a.281.281,0,0,1-.028.106.043.043,0,0,1-.022-.022c.011,0,.022-.033.033-.094A.209.209,0,0,0,45.247-5Zm-2.35.15a.012.012,0,0,1,.011.011H42.9Zm1.978.033q-.017.008-.017.017V-4.8q.008.017.017.017h.011q.017-.008.017-.017C44.9-4.807,44.892-4.812,44.875-4.818Zm.15.494.044-.167c.033-.028.044-.083.044-.172.028-.083.05-.128.067-.128v.017l-.011.039V-4.7a.108.108,0,0,1-.006.044c-.033.083-.056.15-.078.211-.006.05-.017.072-.028.072v.028c0,.039-.011.056-.017.056h-.011l-.006-.028Zm-.239-.35a.068.068,0,0,1-.033.056v.006c.011.017.017.022.022.022a.092.092,0,0,0,.028-.072v-.011Zm-1.972.011.011.006c-.011.039-.028.061-.039.061A.092.092,0,0,1,42.814-4.662Zm1.933.106h-.011c-.011.033-.028.072-.044.111,0,.006.006.011.006.017h.017l.006-.033c.028-.028.044-.05.044-.067V-4.54Q44.756-4.557,44.747-4.557Zm.633.022h.006v.011h-.006ZM43.347-2.223v-.006c.044-.05.094-.106.144-.172a1.452,1.452,0,0,1,.172-.244.461.461,0,0,1,.089-.122,1.076,1.076,0,0,1,.167-.211.372.372,0,0,1,.144-.228,2.977,2.977,0,0,1,.239-.361c.061-.117.094-.178.094-.178a1.472,1.472,0,0,1,.117-.189c.05-.106.083-.161.1-.161.044-.094.089-.167.117-.217a1,1,0,0,1,.144-.217,3.926,3.926,0,0,1-.083.417,2.224,2.224,0,0,0-.239.372,3.066,3.066,0,0,1-.428.722,3.774,3.774,0,0,1-.772.794Zm-.606-2.294h.006a.179.179,0,0,0,.006.044c-.039.128-.061.194-.072.194-.011.067-.022.1-.028.1V-4.19h-.017v.022a.02.02,0,0,1,.017.006.1.1,0,0,0-.006.033A.616.616,0,0,0,42.6-4a1.074,1.074,0,0,0-.078.256.87.87,0,0,0-.083.289.782.782,0,0,0-.061.261.95.95,0,0,0-.044.239h-.011a.2.2,0,0,1,.011-.089c-.006-.006-.006-.011-.006-.022v-.089l.017-.056v-.039a.154.154,0,0,1,.006-.05.551.551,0,0,0,.044-.15l.039-.183a.171.171,0,0,1,.056-.111v-.017a.612.612,0,0,1,.011-.1A.327.327,0,0,0,42.553-4v-.033a.089.089,0,0,0,.028-.061c.033-.117.061-.178.078-.178A.51.51,0,0,1,42.742-4.518Zm1.906.156c-.017.011-.022.017-.022.022v.006q.008.017.017.017h.011c.006,0,.011,0,.011-.011v-.022c0-.006-.006-.006-.011-.011Zm.439.283h-.028c-.022.067-.033.094-.039.094,0-.028-.006-.044-.011-.044H45c-.011,0-.017.017-.022.044a.02.02,0,0,0,.017.006c.006,0,.017.017.039.056-.017.05-.028.078-.039.078h-.006l-.022-.017c.011-.044.022-.072.022-.083v-.017h-.011a.365.365,0,0,0-.044.133l.011.017.011-.006h.028Q45-3.81,45-3.8V-3.8a.1.1,0,0,0-.011.044v.011H45a1.052,1.052,0,0,0,.089-.333Zm-.656.072c-.006,0-.006.006-.011.011l.006.011L44.442-4C44.442-4,44.442-4.007,44.431-4.007ZM45.192-4c-.011,0-.022.022-.028.061.006,0,.006,0,.006.006.017-.006.028-.017.028-.022v-.033Zm2.061.017-.111.117q-.033.1-.067.1v.011c.006.028.017.039.022.039H47.1c.011,0,.022-.011.028-.039a1.453,1.453,0,0,0,.133-.211C47.264-3.973,47.258-3.979,47.253-3.979Zm-2.867.044v.017H44.4v-.017Zm.439.061.011.006-.006.028h-.011a.02.02,0,0,0-.006-.017Zm-.467,0-.017.011a.266.266,0,0,1-.056.094v.022c.017,0,.044-.033.078-.111v-.017Zm.589.072h-.017a.417.417,0,0,0-.039.111v.039H44.9a.182.182,0,0,0,.05-.144Zm.183.028c-.006,0-.011.011-.022.028l.011.006a.069.069,0,0,0,.017-.011v-.022Zm-2.783.05h.006l.006.028-.05.156h-.017v-.006A.418.418,0,0,1,42.347-3.723Zm4.706,0h-.011a.888.888,0,0,1-.183.206l-.05.028v.028h-.033a.052.052,0,0,0-.044.033.012.012,0,0,0,.011.011h.028c.006.039.011.056.017.056h.028a.24.24,0,0,1,.078-.111.071.071,0,0,1,.072-.056c.022,0,.039-.022.056-.072l.061-.056A.135.135,0,0,0,47.053-3.723Zm-2.078.017a.012.012,0,0,0-.011.011v.011l.011.017v.011c-.033.006-.05.044-.05.111q0,.008-.033.017l-.022-.017h-.006a.049.049,0,0,0-.028.044.012.012,0,0,0,.011.011h.011l.017-.011c.017,0,.044.017.072.061h.006q.017-.008.017-.017v-.022c0-.017-.006-.033-.006-.05s.006-.017.006-.022a.094.094,0,0,0-.011-.028c.017,0,.028-.039.028-.117C44.986-3.7,44.981-3.7,44.975-3.707Zm-.722.006a.119.119,0,0,0-.05.072.467.467,0,0,0-.1.15l.006.011a.75.75,0,0,0,.156-.211V-3.69C44.264-3.7,44.258-3.7,44.253-3.7Zm2.628.017-.011.006.006.011.011-.006Zm-.033.044v.006l.006.011a.012.012,0,0,0,.011-.011V-3.64Zm-1.95.033c-.017.006-.028.011-.028.017a.012.012,0,0,0,.011.011H44.9V-3.6Zm-2.628.122c0-.022.006-.033.022-.039H42.3V-3.5a.077.077,0,0,1-.028.05Zm2.567.006v.006l.006.011.011-.006a.012.012,0,0,0-.011-.011Zm.211.122a.043.043,0,0,1,.017-.039v.022l-.006.028C45.047-3.346,45.047-3.346,45.047-3.357ZM46.686-3.4c-.006,0-.011.011-.017.022a.02.02,0,0,0,.006.017c.017-.011.022-.022.022-.028s0-.006-.006-.011Zm-1.778.011q-.017.008-.017.017v.039a.854.854,0,0,0-.017.089c0,.006.006.011.011.022a.126.126,0,0,0,.044-.106v-.044q-.008-.017-.017-.017Zm-.433.011-.011.006a.376.376,0,0,1-.067.106.069.069,0,0,0,.011.017h.006a.405.405,0,0,1,.067-.106v-.011Zm2.267.039c-.006,0-.006.006-.011.011v.006c0,.011.006.011.011.011s.011,0,.011-.011v-.006C46.753-3.335,46.753-3.34,46.742-3.34Zm-.189.133c.033-.039.056-.061.072-.061.011.017.022.028.022.033s-.011.006-.011.022.011.011.044.022v.022c0,.006-.022.022-.056.061h-.044c0-.011,0-.017.006-.022l.039-.028V-3.19L46.619-3.2l-.056.017a.012.012,0,0,1-.011-.011ZM44.9-3.212c-.011,0-.022.017-.028.05v.006a.012.012,0,0,0,.011.011h.006c.006,0,.011-.022.017-.061C44.9-3.207,44.9-3.207,44.9-3.212ZM42.2-3.2h.011l.011.039a.451.451,0,0,1-.028.078h-.006V-3.09C42.186-3.112,42.192-3.151,42.2-3.2Zm1.667.128v-.011a.326.326,0,0,1,.078-.106h.006A.186.186,0,0,1,43.864-3.073Zm2.522-.061H46.4c0,.006-.006.011-.006.017h-.011Zm-4.206.078q.017.008.017.017c0,.022-.006.033-.022.039A.171.171,0,0,0,42.181-3.057Zm1.639.006h.022a.133.133,0,0,1-.044.089h-.006v-.017A.079.079,0,0,0,43.819-3.051Zm.433.006c-.006,0-.011.011-.022.033s.006.011.011.011.022-.017.022-.022v-.011C44.264-3.04,44.258-3.04,44.253-3.046Zm-2.083.056h.006l.011.056a.351.351,0,0,1-.022.072h-.006l-.006-.028v-.017A.274.274,0,0,1,42.169-2.99Zm2.706.028a.02.02,0,0,0,.017-.006c0,.011,0,.017.006.022s-.006.006-.006.017h-.011l-.006-.028ZM44.2-2.968v.011h.011v-.011Zm.894.011c.011,0,.017.017.017.056a.282.282,0,0,1,.05.139c-.033,0-.056-.056-.067-.178Zm-1.344.039a.038.038,0,0,1,.022-.033h.006v.017c0,.006-.006.011-.028.022ZM46-2.823c.006-.022.05-.044.128-.067a.306.306,0,0,1,.106-.039h.006v.017c-.006,0-.022.006-.044.011a.8.8,0,0,1-.172.089A.042.042,0,0,0,46-2.818Zm-1.1-.089c.017,0,.044.022.083.072v.022q-.008.017-.017.017h-.017q-.017-.008-.05-.1Zm-.772.05-.017.011a.012.012,0,0,0,.011.011h.006c.011,0,.011-.006.011-.011S44.136-2.862,44.125-2.862Zm2.128.017h.017v.006h-.017Zm-.044.022h.011v.006h-.011Zm-2.144.061a.276.276,0,0,0-.089.106c.033,0,.061-.033.094-.106Zm-1.922.028c0-.006.006-.006.011-.011h.006v.011Zm3.033-.006h.011a.042.042,0,0,0,.011.022v.006l-.022-.006Zm-.111.006q.017.008.017.017a.024.024,0,0,1-.017.006h-.006v-.011Zm6.258-3.189h-.033a2.159,2.159,0,0,0-1.244.539,7.623,7.623,0,0,0-.733.678,3.953,3.953,0,0,0-.428.6c-.05.083-.144.294-.289.622a2.256,2.256,0,0,0-.1.506,1.071,1.071,0,0,0,.356.767,1.683,1.683,0,0,0,1.133.444h.094a3.09,3.09,0,0,0,.411-.039,2.465,2.465,0,0,0,1.072-.544,1.457,1.457,0,0,1,.283-.244,1.257,1.257,0,0,0,.261-.25.005.005,0,0,1-.006-.006c-.044.022-.133.083-.272.178a3.419,3.419,0,0,1-.483.344.577.577,0,0,1-.267.144.317.317,0,0,1,.089-.078,1.308,1.308,0,0,0,.278-.178,1.238,1.238,0,0,0,.222-.139c.106-.056.161-.094.161-.117.111-.1.211-.189.306-.261.05-.056.083-.089.094-.089h.006l-.111.172a.116.116,0,0,0,.072-.039,2.412,2.412,0,0,0,.339-.356,1.177,1.177,0,0,0,.239-.367.458.458,0,0,0,.078-.15V-3.8a.079.079,0,0,0-.011-.033v-.017a.642.642,0,0,0,.094-.261.07.07,0,0,0-.006-.033c-.039,0-.089.061-.161.189-.056.094-.167.25-.322.467v.011l.011.017v.006a.437.437,0,0,1-.122.139v.033h.033c.017,0,.022-.022.022-.061.017.011.022.017.022.022v.017c0,.028-.028.061-.094.1a.331.331,0,0,0-.05-.1h-.006a.465.465,0,0,0-.156.161c.006,0,.006,0,.006.006h.006c.089-.083.139-.128.156-.128a.443.443,0,0,0,.022.089.182.182,0,0,0-.083.128h-.072c0-.011-.011-.022-.033-.022H52.1l-.05.033c-.033,0-.044.017-.05.05,0,.011-.011.028-.044.05v.011c.017.017.022.028.022.033a.985.985,0,0,1-.094.056.066.066,0,0,0-.044-.022h-.006a.492.492,0,0,0,.006.072l-.089.017v.039a1.175,1.175,0,0,0-.172.133,1.307,1.307,0,0,0-.294.144l.006-.028h-.044a.736.736,0,0,1-.133.05V-2.4h-.033a.61.61,0,0,1-.156.072.362.362,0,0,0-.228.1h-.017a.885.885,0,0,0-.283.083.836.836,0,0,1-.356.089,1.1,1.1,0,0,1-.372-.067.747.747,0,0,1-.483-.761V-2.9a1.685,1.685,0,0,1,.222-.778h.006c0,.089.022.144.072.172a.219.219,0,0,0,.089.117,1.149,1.149,0,0,0,.4.111,2.525,2.525,0,0,0,1.333-.694c.583-.517.872-.956.872-1.306a.471.471,0,0,0-.183-.361,1.2,1.2,0,0,1-.228-.156C51.728-5.879,51.578-5.923,51.322-5.923ZM49.694-4.14a3.83,3.83,0,0,1,.483-.539,4.729,4.729,0,0,1,.739-.556,2.263,2.263,0,0,1,.711-.283h.061q.1,0,.1.083c0,.089-.089.222-.261.383-.339.339-.678.656-1.011.95a4.057,4.057,0,0,1-.489.361.269.269,0,0,1-.189.072h-.006a.221.221,0,0,1-.178-.078c-.05-.106-.078-.161-.078-.161a.583.583,0,0,1,.122-.217A.02.02,0,0,0,49.694-4.14ZM51.861-5.5h.022c.011.067.017.111.017.122a.553.553,0,0,1-.167.328,4.5,4.5,0,0,1-.694.622h-.011a.351.351,0,0,1,.083-.067,2.468,2.468,0,0,0,.5-.489q.267-.292.267-.383a.726.726,0,0,0-.017-.128Zm-2.106.883c0-.022.011-.033.028-.033v.022A.094.094,0,0,0,49.755-4.612ZM48.972-3.54a.363.363,0,0,1,.067-.144,2.871,2.871,0,0,1,.417-.617.893.893,0,0,1,.239-.256h.011a.212.212,0,0,1-.05.083c-.333.428-.522.678-.561.744q-.075.2-.117.2h-.006Zm.544-.128a.094.094,0,0,1,.028.011c.067.061.111.089.133.089H49.7a.141.141,0,0,0,.078-.039h.028V-3.6a.962.962,0,0,1-.167.083l-.028-.006-.022.011a.248.248,0,0,1-.072-.128Zm-.383.017h.017l.006.028v.006H49.15q-.017-.008-.017-.017Zm-.317.061h.006v.022h-.006Zm.089.172c0-.028.022-.056.078-.089a.28.28,0,0,1-.061.128h-.011l-.006-.028Zm.15-.072a.082.082,0,0,1,.039.006v.011c-.011.017-.022.028-.028.028,0-.017-.006-.022-.017-.022S49.055-3.485,49.055-3.49Zm-.039.067h.044a.5.5,0,0,1-.05.167c-.022.011-.033.061-.033.161a3.183,3.183,0,0,0-.061.339v.039c.044.228.089.339.122.339q.017-.008.017-.017V-2.4a.254.254,0,0,1-.044-.122v-.05l.011.006a1.346,1.346,0,0,1,.222.406v.022a.02.02,0,0,0-.017.006c-.089,0-.189-.094-.311-.278a1.367,1.367,0,0,1-.078-.422A1.361,1.361,0,0,1,48.95-3.3.531.531,0,0,0,49.017-3.423Zm-.35.217a.462.462,0,0,1,.044-.139c.011-.044.028-.072.05-.072l.006.028v.017a.383.383,0,0,1-.072.206C48.689-3.168,48.678-3.185,48.667-3.207Zm.178-.067c0-.006.011-.017.039-.028l.006.028c0,.017-.011.028-.022.044-.006,0-.011-.011-.022-.028Zm-.006.067h.006c.017.006.022.017.022.039v.011l-.006.011c-.006,0-.017-.011-.033-.022Zm3.444.117c.072-.078.111-.117.122-.117v.028a.287.287,0,0,0-.1.1Zm-3.639.006a.042.042,0,0,1,.028-.039c.022,0,.039.022.039.072a.171.171,0,0,1-.011.061q.008.208.017.283c0,.039.011.056.033.056a.492.492,0,0,0,.061.144c-.094,0-.156-.139-.172-.417,0-.044.006-.094.006-.15ZM52.033-3h.039c0,.011,0,.017.006.022h-.039A.033.033,0,0,0,52.033-3Zm-.833.578a.07.07,0,0,1,.05-.028h.011c0,.006-.022.011-.056.028Zm-.339.189a.043.043,0,0,0,.017-.006h.006v.006a.02.02,0,0,0-.017.006h-.006Zm-.928.244.028.017-.006.011-.033-.006v-.006Zm.094.028c.028-.006.044-.011.05-.011h.006c.056.006.083.017.083.028l-.039.011a.252.252,0,0,1-.1-.022Zm.089.089a1.023,1.023,0,0,0,.228-.028l.05.033c0,.011-.017.017-.056.022a1.071,1.071,0,0,0-.139-.017h-.083Z" transform="translate(0.277 10.935)" fill="#3963ac" stroke="#3963ac" stroke-width="0.5"/>
</svg>
