<svg xmlns="http://www.w3.org/2000/svg" width="53.486" height="29.293" viewBox="0 0 53.486 29.293">
  <path id="パス_473" data-name="パス 473" d="M14.344-21.12a6.479,6.479,0,0,1,.181,1.279,1.178,1.178,0,0,1-.121.615.5.5,0,0,1,.084.145v.229a.219.219,0,0,0,.193.1h.012a.032.032,0,0,0,.036-.036v-.4a.026.026,0,0,1,.024-.024c.06,0,.121.157.169.483a.493.493,0,0,1-.048.193h-.012c0-.06-.048-.1-.133-.109h-.048c-.036,0-.048.048-.048.169v.024a5.824,5.824,0,0,0,.084.772v.229a.272.272,0,0,0,.133.217,1.034,1.034,0,0,0-.036.205v.29c0,.048.012.157.036.338a.8.8,0,0,1-.012.169l.012.084a10.992,10.992,0,0,0-.072,1.351v.072q0,.109-.036.109c-.048.555-.121,1.122-.229,1.7-.012,0-.024-.024-.048-.072a9.542,9.542,0,0,0,.1-1.074v-.109l-.072-.084-.048.036a5.8,5.8,0,0,1-.205.772c-.072.688-.133,1.086-.145,1.182a13.554,13.554,0,0,1-.422,1.677c0,.109-.579,1.532-1.749,4.283a.191.191,0,0,1-.157.193,2.62,2.62,0,0,0-.3.579v.024a.238.238,0,0,1,.048.1v.024c-.1-.012-.145-.024-.157-.024s-.084.1-.169.265a4.42,4.42,0,0,1-.446.808,1,1,0,0,0-.265.434.211.211,0,0,0,.012.06l-.169.181c-.06.193-.109.29-.157.29l-.82,1.037c-.265.422-.434.639-.519.639H8.771c-.024,0-.06-.036-.121-.121a5.588,5.588,0,0,1-.386-1.255,50.866,50.866,0,0,1-.519-7.407v-.35c.072-1.834.109-2.8.109-2.883,0-.181-.012-.519-.024-1.025q-.217-2.823-.615-2.823c0-.1-.241-.157-.7-.193a.435.435,0,0,0-.265.084q-.127,0-.29.688c-.193.47-.386.989-.567,1.556Q4.977-14.376,4.2-12.2c-.229.567-.386.989-.483,1.279C3.029-9.08,2.582-7.85,2.377-7.21a18.005,18.005,0,0,0-.857,2.292C1.4-4.677,1.231-4.255,1-3.64a1.27,1.27,0,0,1-.265.676C.7-2.9.411-2.252-.12-1.01A12.678,12.678,0,0,0-.7.354a5.618,5.618,0,0,0-.29.82c0,.169.121.265.362.3a1.538,1.538,0,0,0,.374.217,2.088,2.088,0,0,0,.362-.048A.163.163,0,0,0,.23,1.7c.229-.157.338-.29.338-.374A2.6,2.6,0,0,0,1.134.366V.317C1.134.269,1.086.2.978.1V.088Q1.05-.147,4.561-9.165c.857-2.352,1.375-3.788,1.52-4.295h.012L6.2-12.313c0,.012.012.024.024.048a2.233,2.233,0,0,0-.06.555v3.535c.024.193.1.29.229.29a.452.452,0,0,0,.084-.145.744.744,0,0,1-.024-.217.2.2,0,0,1,.024-.121.2.2,0,0,1,.157.048c0,.072-.012.169-.012.29l.084.4h.036c.012,0,.024-.036.036-.084a1.246,1.246,0,0,0-.012-.169c0-.048.012-.145.012-.29l-.036-.253c.012-.1.048-.145.121-.145q.036.253.072.253h.012v-.048A.917.917,0,0,1,7-8.694c.121-.157.217-.241.29-.241h.036c.012,0,.036.036.048.1q.036.923.036,1.158v.012a1.877,1.877,0,0,1-.012.241,1.9,1.9,0,0,1,.06.35v.169A5.032,5.032,0,0,0,7.7-5.473a.141.141,0,0,0-.084.024,2.6,2.6,0,0,1,.048.47c.072.47.121.736.121.772v.277c0,.084.06.157.181.205a.091.091,0,0,1-.012.048,1.333,1.333,0,0,0,.012.193c-.012.157-.012.265-.012.326a2.966,2.966,0,0,0,.169.724v.024H8.1c-.048-.133-.084-.205-.109-.205H7.963v.06a.479.479,0,0,0,.229.446,1.323,1.323,0,0,1,.169.627v.06c0,.241-.072.362-.205.362a.539.539,0,0,1-.314-.193,3.048,3.048,0,0,1-.434-1.013l.024-.024c-.024-.121-.048-.181-.06-.181-.06-.4-.121-.591-.193-.591-.036,0-.06.06-.072.169v.169a3.847,3.847,0,0,0,.109.507.11.11,0,0,1-.036.06c-.012,0-.024-.024-.036-.06l.024-.012A.294.294,0,0,0,7.046-2.4c-.048-.253-.1-.386-.133-.386.024-.109.036-.157.036-.169l-.084-.277a2.956,2.956,0,0,0-.205-1c0-.1-.012-.362-.036-.76a.371.371,0,0,1,.024-.133.3.3,0,0,0-.06-.181v-.072a.62.62,0,0,0-.048-.3c0-.519-.048-.772-.133-.772H6.358l-.036.024a3.7,3.7,0,0,0,.1,1.05,10.476,10.476,0,0,0,.29,1.882,4.057,4.057,0,0,0,.3,1.375c.35,1.11.9,1.677,1.665,1.677a3.454,3.454,0,0,0,2.509-1.677,24.567,24.567,0,0,0,1.93-3.293,26.852,26.852,0,0,0,1.6-4.114,20.466,20.466,0,0,0,.712-3.5v-.217a2.958,2.958,0,0,0,.109-.591v-.133a.336.336,0,0,0-.157-.326H15.37q-.217.235-.217.326c0,.024.012.084.024.169a.781.781,0,0,1-.036.121.293.293,0,0,0,.048.133l-.217.76.036.193a3.085,3.085,0,0,1-.133.507c-.169.965-.338,1.436-.519,1.436h-.012a15.035,15.035,0,0,0,.386-1.8,3.148,3.148,0,0,1,.3-1c-.024-.145-.06-.229-.084-.229a.6.6,0,0,0,.121-.265v-.29c0-.024.012-.145.036-.374v-.048H15.08c-.024,0-.072.072-.169.193a.981.981,0,0,1-.048-.205v-.048a3.955,3.955,0,0,0,.241-.917v-.024a.338.338,0,0,0-.024-.133.86.86,0,0,1,.072-.169c.024,0,.036.024.048.084.109,0,.169-.06.169-.181v-.157c0-.1,0-.229-.012-.374a.415.415,0,0,0,.012-.109c-.024-.181-.06-.277-.1-.277a1.069,1.069,0,0,0-.181.217.764.764,0,0,0-.048-.229c.012-.1.024-.145.024-.157l-.024-.1a1.688,1.688,0,0,1-.1-.7c0-.121.024-.181.06-.181h.012c0,.229.036.35.084.35h.048c.048,0,.084-.072.1-.229V-18.1a.481.481,0,0,0-.109-.253.661.661,0,0,0,.1-.205.259.259,0,0,0-.048-.145c-.048-.29-.084-.434-.145-.434a3.978,3.978,0,0,0-.181-1.037,1.844,1.844,0,0,0-.507-.941Zm.893,3.414c-.036,0-.072.072-.109.205v.048a.263.263,0,0,0,.048.121,1.092,1.092,0,0,0,.1-.314ZM15.1-16.669a.341.341,0,0,1,.1.277,2.525,2.525,0,0,0-.012.29v.036a.144.144,0,0,0-.1-.048l.048-.157a.83.83,0,0,0-.072-.253A1.252,1.252,0,0,1,15.1-16.669Zm-7.938.193h.012L7.2-16.4v.386a.45.45,0,0,0-.169.06H7.01C7.118-16.282,7.166-16.463,7.166-16.476Zm8.252.531-.1.072a.119.119,0,0,0,.084.06c.024-.012.036-.024.06-.024v-.048Zm-.145.483a.373.373,0,0,1-.072.145c.012.024.036.048.048.048a.306.306,0,0,0,.109-.157c0-.024-.012-.024-.036-.036Zm-8.107.121h.012c.06,0,.084.1.084.277v.253l-.024.1a.026.026,0,0,1,.024.024c-.012.072-.036.121-.06.121a1.252,1.252,0,0,1-.036-.277v-.036l.012-.072q-.072-.054-.072-.072v-.012c.048-.072.072-.1.1-.1A1.436,1.436,0,0,0,7.166-15.342Zm8.252.193c-.157.036-.229.109-.229.193v.036c0,.024.048.048.121.084,0,.036-.012.06-.012.109v.157a.248.248,0,0,0-.06.084.13.13,0,0,0,.084.036h.157c.012,0,.036-.036.06-.1a.06.06,0,0,1-.012-.036l.036-.446a.121.121,0,0,0-.072-.121Zm-8.3.772c.109.048.157.109.157.169a2.3,2.3,0,0,1-.036.338c0,.036.036.217.084.555a1.074,1.074,0,0,1-.036.229c0,.121.012.386.036.772-.012.314-.024.567-.024.748,0,.543.012,1.122.036,1.725q-.018.688-.072.688H7.239c0-.024,0-.048-.012-.048a6.264,6.264,0,0,0-.241-1.411A.7.7,0,0,1,7-10.733a2.127,2.127,0,0,0-.024-.229H6.925a3.446,3.446,0,0,0-.048.531c.012.519.012.965.012,1.363,0,.121-.012.253-.024.374-.06,0-.084-.145-.1-.458V-9.3q0-.271.036-1.411A1.352,1.352,0,0,0,6.768-11c.024-.084.06-.121.109-.121,0,.012,0,.012.012.012h.06c.048,0,.084-.1.1-.3a.262.262,0,0,0-.06-.169.121.121,0,0,0-.121.072v.169H6.841a.5.5,0,0,0-.036-.109c.024-.109.036-.157.036-.169a.583.583,0,0,0-.024-.145c0-.048.012-.084.048-.1,0,0,.048.072.133.229l.036-.012c-.012-.072-.024-.121-.024-.121,0-.072.012-.169.024-.314-.024-.024-.036-.036-.048-.036s-.036.024-.06.072c-.024,0-.036-.036-.048-.1v-.024l.181-.169v-.1L7-12.482a1.269,1.269,0,0,0,.121-.109,1.258,1.258,0,0,1-.06-.205v-.121c0-.181.012-.41.012-.676.072-.169.121-.241.145-.241a.192.192,0,0,0-.145-.193C7.07-14.256,7.094-14.376,7.118-14.376Zm7.347,1.532h.024v.024h-.024Zm-7.6.084c.036,0,.06,0,.072-.012l.012.109v.012h-.06Zm7.48.386c.036-.06.06-.084.072-.084v.012c-.024.048-.036.072-.06.072Zm-9.591.579h.06v.048h-.06Zm1.785.06h.048v.024l-.012.024c-.024,0-.036-.012-.036-.024Zm-1.894.314c.036-.084.06-.133.109-.145v.157C4.742-11.421,4.705-11.421,4.645-11.421ZM-.579.921c0-.1.326-.881.965-2.389.434-1.1.724-1.8.881-2.075l.941-2.389c.543-1.52.881-2.4.989-2.642a14.206,14.206,0,0,1,.736-1.906,3.054,3.054,0,0,1,.4-1.025.091.091,0,0,0,.012.048,3.018,3.018,0,0,0-.181.627A12.172,12.172,0,0,1,3.5-8.948c-.446,1.315-.748,2.123-.893,2.413C2.329-5.763,2.039-5,1.7-4.243c-.229.651-.446,1.231-.664,1.737A5.746,5.746,0,0,0,.519-1.166l.024.036a.359.359,0,0,0,.169-.06,2.321,2.321,0,0,1,.193-.519l.121-.374a10.01,10.01,0,0,0,.627-1.3V-3.41l-.012-.109L1.955-3.9c.084,0,.157-.133.217-.386l-.048-.157c0-.012.012-.024.024-.048l.084.024c.048,0,.1-.133.145-.386a.748.748,0,0,1-.036-.133v-.024c0-.036.084-.121.265-.253,0-.048-.048-.072-.133-.072a.217.217,0,0,1,.048-.109c.012,0,.012,0,.012.012.024,0,.048-.036.072-.1a.174.174,0,0,1-.024-.036,1.3,1.3,0,0,1,.06-.3,1.126,1.126,0,0,0,.109-.205h.012c.012.084.024.133.024.145v.024h.024c0-.012.012-.048.024-.1a2.824,2.824,0,0,0,.3-.844v-.06l-.012-.072.072.012h.012a1.063,1.063,0,0,0,.145-.253h.012v.012a1.467,1.467,0,0,1-.217.639c-.229.664-.41,1.122-.531,1.375q-.308.941-.47,1.3a23.436,23.436,0,0,1-.917,2.184c-.241.6-.4.989-.483,1.146A4.074,4.074,0,0,1,.338.33H.326V.317A2.953,2.953,0,0,1,.5-.225H.483C.423-.2.338-.02.218.33A1.441,1.441,0,0,1-.024.872C-.048.872-.072.824-.108.728A.622.622,0,0,0-.084.595H-.108L-.144.631c-.181.29-.3.458-.35.531A.622.622,0,0,1-.579.921ZM6.491-10.926h.024a.43.43,0,0,1,.145.193,1.377,1.377,0,0,0-.133.205c-.072-.012-.109-.024-.121-.024A2.23,2.23,0,0,0,6.491-10.926Zm7.685.917c0-.048.048-.133.157-.265.036-.193.084-.29.133-.29h.024a.877.877,0,0,0-.133.3.21.21,0,0,1,.036.084.489.489,0,0,1-.181.217c-.024,0-.036-.012-.036-.024Zm-7.817-.41.133-.06h.024c0,.121.012.205.012.265v.374a2.534,2.534,0,0,1-.181,1.267.45.45,0,0,0-.024-.145l.048-1.544A.742.742,0,0,1,6.358-10.419Zm-2.027.036a.089.089,0,0,1,.036-.06l.048.024a2.122,2.122,0,0,1-.169.434H4.2c-.012,0-.024-.036-.06-.084v-.012l.205-.241v-.036Zm.169.06c0-.036,0-.048.024-.048l-.012.1H4.5Zm-.422.314H4.1v.036H4.078Zm-.036.193h.072a.338.338,0,0,1,.024.133v.048a.126.126,0,0,1-.084.121v-.048C4.054-9.611,4.042-9.708,4.042-9.816Zm-.072.724.1-.084a1.688,1.688,0,0,1,.157-.434h.012a.278.278,0,0,0,.036.109q-.145.308-.4,1.05c-.229.736-.386,1.134-.495,1.182v-.1a2.332,2.332,0,0,0,.157-.458c-.012,0-.024,0-.024-.012a1.272,1.272,0,0,0-.157.1H3.33a.09.09,0,0,0-.012-.06c.048-.253.121-.374.181-.374h.012l.084.024c.036-.036.06-.06.06-.072v-.012a.705.705,0,0,1-.169-.024c0-.012,0-.024.012-.024l.157-.362-.012-.1v-.133l.012-.1c.072-.193.157-.3.241-.326C3.909-9.165,3.933-9.092,3.97-9.092ZM7.034-8.2c-.024,0-.048.024-.06.072a1.242,1.242,0,0,0,.012.157v.012h.048c.024-.012.036-.036.036-.1v-.06C7.07-8.163,7.058-8.188,7.034-8.2Zm-.639.362c-.06.024-.084.072-.084.157v.133a1.918,1.918,0,0,0,.169.929c.024,0,.06-.072.1-.241-.024,0-.048-.048-.084-.133l.048-.084V-7.09c-.024-.145-.036-.217-.06-.217C6.467-7.657,6.431-7.838,6.394-7.838Zm.651.048-.06.048a1.343,1.343,0,0,1,.048.277v.024A.032.032,0,0,1,7-7.4c.012.06.024.1.048.1l.072-.06a.429.429,0,0,0-.024-.121c0-.012,0-.084.012-.205l-.036-.1Zm-3.824.35H3.27l.036.012-.012.084H3.258A.16.16,0,0,0,3.222-7.44Zm3.559.012-.024.048c.024.036.048.06.06.06s.024-.012.024-.024v-.036C6.841-7.391,6.829-7.4,6.78-7.428Zm.277.205a.307.307,0,0,0-.024.084v.157c.012.121.06.181.169.181a.1.1,0,0,0,.072-.109v-.012c0-.024-.036-.048-.121-.06v-.193C7.154-7.2,7.118-7.21,7.058-7.223Zm-.229.229c-.012,0-.036.024-.06.072v.048c.012.024.036.048.048.048s.024-.012.024-.036v-.109Zm5.718.181c.012-.036.024-.048.048-.048h.024v.036A.026.026,0,0,1,12.6-6.8h-.048Zm-9.651.4h.012v.024H2.9ZM6.768-6.2a.012.012,0,0,1-.012.012c.024.193.06.29.121.29a.411.411,0,0,1-.1.121v.036l.024.024a.4.4,0,0,0,.145-.121v-.133a.334.334,0,0,1,.06-.145A.563.563,0,0,0,6.768-6.2Zm5.791.205h.012c.024,0,.048.036.06.109q0,.018-.036.036c0-.024-.024-.036-.048-.036v-.024Zm-.519.109c.012.012.048.012.1.012a5.472,5.472,0,0,1-.615,1.11h-.048A10.558,10.558,0,0,1,12.04-5.883Zm-5.127.217c-.048,0-.072.072-.084.229v.024c0,.109.024.326.06.676v.012c-.012,0-.024.012-.048.024l.109.253-.012.084a.469.469,0,0,0,.109.133H7.07c0-.06.012-.145.024-.265l-.06-.422v-.036a1.4,1.4,0,0,1,.012-.205.858.858,0,0,1-.072-.229,1.6,1.6,0,0,1,.012-.205Q6.931-5.666,6.913-5.666Zm4.633.121c0-.012.012-.024.036-.024h.012l-.024.1h-.024Zm.917.072h.048l.036.024a.1.1,0,0,0-.024.072C12.511-5.377,12.487-5.413,12.463-5.473Zm-.145.1h.012v.012a.576.576,0,0,1-.048.145l-.072-.024c-.1,0-.145.048-.145.121v.1a.374.374,0,0,0,.133-.06.208.208,0,0,0,.06.181v.012A.6.6,0,0,1,12-5.027c-.036.06-.072.1-.084.1v-.036a2.478,2.478,0,0,1,.133-.4h.036a.957.957,0,0,1,.181.06C12.294-5.3,12.306-5.328,12.318-5.377ZM7.2-5.148v.121c0,.06.012.1.06.109h.06l.024-.012c-.072-.133-.121-.205-.121-.217Zm4.826.29c.012,0,.036.048.072.133V-4.7a.18.18,0,0,1-.072-.084ZM2.208-4.7H2.22v.036H2.208Zm9.675,0H12a.121.121,0,0,1-.121.072ZM10.375-3.06a.191.191,0,0,1,.1-.145c.048-.181.1-.265.121-.265a1.217,1.217,0,0,0,.362-.651A1.151,1.151,0,0,0,11.16-4.3c.024-.253.109-.374.241-.374h.012c-.024.133-.048.193-.072.205a3.253,3.253,0,0,1-.567.893,2.469,2.469,0,0,1-.386.519ZM7.528-4.3l-.084.084c0,.036.048.1.133.205.024,0,.036-.024.048-.06-.012-.157-.036-.229-.06-.229Zm-.157.072c-.024,0-.036.012-.036.024v.024c0,.012.012.024.036.024A.026.026,0,0,0,7.4-4.182v-.024A.026.026,0,0,0,7.372-4.231Zm-.3.048c-.024,0-.048.048-.06.133,0,.036.036.169.084.4a.193.193,0,0,1-.036.1.3.3,0,0,0,.084.06.161.161,0,0,0,.084-.1.857.857,0,0,1-.084-.338v-.205c-.024-.036-.036-.048-.048-.048Zm.567.3-.024.012c0,.133.024.205.06.205L7.7-3.676l-.024-.205Zm3.486.35a.861.861,0,0,0,.217-.133h.012v.06c0,.024-.012.024-.048.024v.036a.7.7,0,0,1,.1.121l-.084-.012h-.06c-.048,0-.072.06-.072.193l-.06-.024c-.048.1-.084.169-.133.193h-.024a.958.958,0,0,0,.169-.29.541.541,0,0,1-.012-.133ZM1.147-3.652h.024v.012a1.435,1.435,0,0,1-.048.169H1.086A.477.477,0,0,0,1.147-3.652Zm-.3.7H.857v.084c0,.012-.024.024-.072.06A.512.512,0,0,1,.845-2.952Zm9,.543h.109V-2.4c-.072.1-.109.157-.133.157v-.1ZM8.119-2.4h.012v.024H8.119Zm1.6.181.024.012.036-.012a.379.379,0,0,1-.205.3H9.567A1.8,1.8,0,0,1,9.724-2.216Zm.664,0h.06a.474.474,0,0,0-.024.072h-.048ZM.374-1.89c.048-.193.109-.277.169-.277A.294.294,0,0,1,.374-1.89ZM-.579-.165l-.012.072h.048V-.165ZM.145.764c0-.205.048-.3.145-.3C.29.643.242.74.145.764Zm-.29.217c0-.06.012-.084.036-.1h.084c0,.012-.036.048-.109.1ZM23.45-10.311h-.072a4.689,4.689,0,0,0-2.7,1.17,16.555,16.555,0,0,0-1.592,1.472,8.585,8.585,0,0,0-.929,1.3c-.109.181-.314.639-.627,1.351a4.9,4.9,0,0,0-.217,1.1,2.326,2.326,0,0,0,.772,1.665,3.654,3.654,0,0,0,2.461.965h.205a6.709,6.709,0,0,0,.893-.084,5.353,5.353,0,0,0,2.328-1.182,3.164,3.164,0,0,1,.615-.531,2.73,2.73,0,0,0,.567-.543.012.012,0,0,1-.012-.012c-.1.048-.29.181-.591.386a7.424,7.424,0,0,1-1.05.748,1.252,1.252,0,0,1-.579.314.688.688,0,0,1,.193-.169,2.841,2.841,0,0,0,.6-.386,2.687,2.687,0,0,0,.483-.3c.229-.121.35-.205.35-.253.241-.217.458-.41.664-.567.109-.121.181-.193.205-.193h.012l-.241.374a.251.251,0,0,0,.157-.084,5.237,5.237,0,0,0,.736-.772,2.556,2.556,0,0,0,.519-.8,1,1,0,0,0,.169-.326V-5.7a.171.171,0,0,0-.024-.072v-.036a1.394,1.394,0,0,0,.205-.567.153.153,0,0,0-.012-.072c-.084,0-.193.133-.35.41-.121.205-.362.543-.7,1.013V-5l.024.036v.012a.95.95,0,0,1-.265.3v.072h.072c.036,0,.048-.048.048-.133.036.024.048.036.048.048v.036c0,.06-.06.133-.205.217a.718.718,0,0,0-.109-.217h-.012a1.011,1.011,0,0,0-.338.35c.012,0,.012,0,.012.012h.012c.193-.181.3-.277.338-.277a.962.962,0,0,0,.048.193.4.4,0,0,0-.181.277h-.157c0-.024-.024-.048-.072-.048h-.012l-.109.072c-.072,0-.1.036-.109.109,0,.024-.024.06-.1.109v.024c.036.036.048.06.048.072a2.14,2.14,0,0,1-.205.121.144.144,0,0,0-.1-.048H24.56a1.07,1.07,0,0,0,.012.157l-.193.036v.084a2.551,2.551,0,0,0-.374.29,2.839,2.839,0,0,0-.639.314l.012-.06h-.1a1.6,1.6,0,0,1-.29.109v.072H22.92a1.325,1.325,0,0,1-.338.157.786.786,0,0,0-.495.217h-.036a1.922,1.922,0,0,0-.615.181,1.816,1.816,0,0,1-.772.193,2.383,2.383,0,0,1-.808-.145,1.623,1.623,0,0,1-1.05-1.653v-.036a3.658,3.658,0,0,1,.483-1.689H19.3c0,.193.048.314.157.374a.476.476,0,0,0,.193.253,2.5,2.5,0,0,0,.869.241,5.483,5.483,0,0,0,2.9-1.508c1.267-1.122,1.894-2.075,1.894-2.835a1.023,1.023,0,0,0-.4-.784,2.6,2.6,0,0,1-.495-.338C24.331-10.214,24.005-10.311,23.45-10.311ZM19.916-6.438a8.315,8.315,0,0,1,1.05-1.17,10.269,10.269,0,0,1,1.6-1.206,4.915,4.915,0,0,1,1.544-.615h.133q.217,0,.217.181c0,.193-.193.483-.567.832-.736.736-1.472,1.424-2.2,2.063a8.807,8.807,0,0,1-1.062.784.584.584,0,0,1-.41.157h-.012a.48.48,0,0,1-.386-.169c-.109-.229-.169-.35-.169-.35a1.266,1.266,0,0,1,.265-.47A.044.044,0,0,0,19.916-6.438Zm4.7-2.944h.048c.024.145.036.241.036.265a1.2,1.2,0,0,1-.362.712,9.767,9.767,0,0,1-1.508,1.351h-.024a.762.762,0,0,1,.181-.145A5.359,5.359,0,0,0,24.078-8.26q.579-.633.579-.832a1.576,1.576,0,0,0-.036-.277ZM20.048-7.464c0-.048.024-.072.06-.072v.048A.2.2,0,0,0,20.048-7.464Zm-1.7,2.328a.788.788,0,0,1,.145-.314,6.235,6.235,0,0,1,.9-1.339,1.939,1.939,0,0,1,.519-.555h.024a.461.461,0,0,1-.109.181c-.724.929-1.134,1.472-1.218,1.617q-.163.434-.253.434h-.012Zm1.182-.277a.2.2,0,0,1,.06.024c.145.133.241.193.29.193h.048A.305.305,0,0,0,20.1-5.28h.06v.012a2.089,2.089,0,0,1-.362.181l-.06-.012-.048.024a.538.538,0,0,1-.157-.277Zm-.832.036h.036l.012.06V-5.3h-.012q-.036-.018-.036-.036Zm-.688.133h.012V-5.2h-.012Zm.193.374c0-.06.048-.121.169-.193a.608.608,0,0,1-.133.277h-.024l-.012-.06Zm.326-.157a.179.179,0,0,1,.084.012v.024c-.024.036-.048.06-.06.06,0-.036-.012-.048-.036-.048C18.516-5,18.528-5.015,18.528-5.027Zm-.084.145h.1a1.076,1.076,0,0,1-.109.362c-.048.024-.072.133-.072.35a6.909,6.909,0,0,0-.133.736v.084c.1.495.193.736.265.736q.036-.018.036-.036v-.012a.551.551,0,0,1-.1-.265v-.109l.024.012a2.922,2.922,0,0,1,.483.881V-2.1a.044.044,0,0,0-.036.012c-.193,0-.41-.205-.676-.6a2.969,2.969,0,0,1-.169-.917,2.956,2.956,0,0,1,.241-1A1.152,1.152,0,0,0,18.444-4.882Zm-.76.47a1,1,0,0,1,.1-.3c.024-.1.06-.157.109-.157l.012.06v.036a.832.832,0,0,1-.157.446C17.732-4.327,17.708-4.363,17.684-4.412Zm.386-.145c0-.012.024-.036.084-.06l.012.06c0,.036-.024.06-.048.1-.012,0-.024-.024-.048-.06Zm-.012.145h.012c.036.012.048.036.048.084V-4.3l-.012.024c-.012,0-.036-.024-.072-.048Zm7.48.253c.157-.169.241-.253.265-.253v.06a.623.623,0,0,0-.217.217Zm-7.9.012a.091.091,0,0,1,.06-.084c.048,0,.084.048.084.157a.371.371,0,0,1-.024.133q.018.452.036.615c0,.084.024.121.072.121A1.068,1.068,0,0,0,18-2.892c-.205,0-.338-.3-.374-.9,0-.1.012-.205.012-.326Zm7.359.193h.084c0,.024,0,.036.012.048h-.084A.073.073,0,0,0,24.995-3.953ZM23.185-2.7a.151.151,0,0,1,.109-.06h.024c0,.012-.048.024-.121.06Zm-.736.41a.093.093,0,0,0,.036-.012H22.5v.012a.044.044,0,0,0-.036.012h-.012Zm-2.015.531.06.036-.012.024-.072-.012v-.012Zm.205.06c.06-.012.1-.024.109-.024h.012c.121.012.181.036.181.06,0,0-.036.012-.084.024a.548.548,0,0,1-.217-.048Zm.193.193a2.22,2.22,0,0,0,.495-.06l.109.072c0,.024-.036.036-.121.048a2.325,2.325,0,0,0-.3-.036h-.181Zm14.583-9.711a.389.389,0,0,0-.241.109c-.036.06-.084.169-.157.326a1.864,1.864,0,0,1-.1.567l-.121-.048a3.182,3.182,0,0,1-.217.555c-.084.048-.157.193-.241.446a1.9,1.9,0,0,0-.229.615,1.2,1.2,0,0,0-.241.495,1.042,1.042,0,0,0-.181.434c-.145.265-.277.519-.386.76a2.266,2.266,0,0,1-.386.784q0,.127-.217.217a4.43,4.43,0,0,1-.386.832,1.755,1.755,0,0,0-.265.3c0,.1-.109.253-.338.483a3.373,3.373,0,0,1-.615.76v.012a.376.376,0,0,0,.109.181.053.053,0,0,1-.036.012.574.574,0,0,1-.157-.024h-.024a.794.794,0,0,0-.265.519l.048.205v.012a.564.564,0,0,1-.193.024h-.012v.012l.036.048v.024a.094.094,0,0,1-.036.084c0,.072-.06.109-.193.109a.872.872,0,0,1-.265.169H30.1v-.036a1.806,1.806,0,0,0,.374-.507.631.631,0,0,1,.253-.277v-.024A.026.026,0,0,0,30.7-3.06h-.06c-.121.133-.338.374-.627.736q0,.072-.253.145l-.483.29c-.024,0-.036-.084-.036-.241v-.012a11.321,11.321,0,0,1,.82-3.052c.374-1.134.627-1.846.748-2.159a9.692,9.692,0,0,0,1.146-2.763.7.7,0,0,0-.036-.169,1.111,1.111,0,0,0-.627-.205.659.659,0,0,0-.483.145,13.225,13.225,0,0,0-1.6,3.4c-.326.953-.591,1.749-.8,2.377-.072.422-.133.688-.157.8a5.466,5.466,0,0,0-.362,1.424v.109a.849.849,0,0,0,.265.627,2.118,2.118,0,0,0,1.3.458h.133a.977.977,0,0,0,.567-.157,14.034,14.034,0,0,0,1.894-1.761.543.543,0,0,1,.265-.277.153.153,0,0,1,.084-.157,2.934,2.934,0,0,1,.362-.507,1.661,1.661,0,0,1,.35-.495,3.566,3.566,0,0,1,.253-.386.778.778,0,0,1,.205-.314A3.954,3.954,0,0,1,34-6h.012v.012c-.012.06-.024.145-.036.265a3.365,3.365,0,0,0-.133.748,17.334,17.334,0,0,0-.109,2.087,1.909,1.909,0,0,0,.205.869,1.511,1.511,0,0,0,1.363.929h.084a2.988,2.988,0,0,0,1.966-.929,5.621,5.621,0,0,0,1.17-1.5h-.012a.929.929,0,0,0-.217.265q-.452.507-.47.507c-.121.012-.193.024-.193.048v.012h.072l.024.012c-.036.145-.1.205-.193.205l-.024-.012c0-.036.036-.06.084-.1V-2.6l-.012-.024a.656.656,0,0,0-.1.048c-.265.253-.422.374-.47.374h-.012l.024-.048a4.577,4.577,0,0,0,.519-.7l.024.012H37.6a.773.773,0,0,1,.229-.422c.193-.314.362-.591.531-.82a1.692,1.692,0,0,1,.3-.639c.145-.338.253-.591.338-.76a8.753,8.753,0,0,1,.4-1.182,3.953,3.953,0,0,1,.265-.989.283.283,0,0,1,.024.133v.133a3.3,3.3,0,0,1,.06.579v.084a.987.987,0,0,1-.024.193v.145l.012.084a.329.329,0,0,1-.072.145v.036h.024l.036-.024h.012l.012.121a.987.987,0,0,1-.024.193V-5.9a.026.026,0,0,0,.024.024h.012l.362-.844c.012-.314.036-.47.084-.47l.024.084h.012a2.027,2.027,0,0,0,.1-.3,3.837,3.837,0,0,0,.157-.953,1.652,1.652,0,0,0-.048-.205c.072-.072.1-.109.1-.121a.588.588,0,0,0-.048-.133.2.2,0,0,0,.06-.024c.036,0,.072-.181.109-.531a1.751,1.751,0,0,0-.362-1.158,1.78,1.78,0,0,0-1.218-.664h-.205c-.422.133-.639.241-.639.338a.334.334,0,0,0,.06.145,1.385,1.385,0,0,1,.29-.024.808.808,0,0,1,.483.133c.229.169.35.615.35,1.327v.121A.485.485,0,0,0,39.469-9l-.036.121a1.251,1.251,0,0,0,.012.193l-.06.277c.036.036.048.048.06.048h.012a.076.076,0,0,0,.084-.084v-.012c0-.024-.024-.024-.048-.024v-.012c0-.024.024-.036.06-.048a.093.093,0,0,1,.036.012,1.508,1.508,0,0,1-.06.434,1.082,1.082,0,0,1-.072.41h-.012c0-.012-.012-.036-.024-.084.012-.133.024-.229.024-.277s-.024-.048-.036-.048h-.036l-.024.012c-.012.084-.024.133-.06.157q.036.072.072.072a.2.2,0,0,1-.048.109,1.715,1.715,0,0,1-.072.507q.018.036.036.036h.072l.012.06v.024a.123.123,0,0,1-.06.1,5.179,5.179,0,0,1-.133.567l-.181.4q-.054.326-.109.326l-.012-.084v-.024a3.608,3.608,0,0,0,.253-.748c0-.012,0-.024-.024-.024h-.012a.169.169,0,0,1-.133.1.961.961,0,0,1,.012.133l-.133.507a1.293,1.293,0,0,1-.229.41c-.036.217-.072.326-.133.326s-.181.241-.4.712a.349.349,0,0,0-.121.277l-.241.29c0,.072-.036.121-.133.169A9.8,9.8,0,0,1,36.694-2.6c-.555.531-.953.8-1.206.8h-.036a.277.277,0,0,1-.169-.048,2.048,2.048,0,0,1-.4-1.387v-.133c.048-.857.1-1.411.133-1.641a23.542,23.542,0,0,1,.6-2.871c.193-.567.326-.977.41-1.255a12.4,12.4,0,0,0,.422-1.46c0-.229-.157-.362-.483-.422a1.551,1.551,0,0,0-.229.048A1.4,1.4,0,0,0,35.415-11.216Zm.181.012v.012q.018.036.036.036H35.7v-.012c0-.024-.036-.036-.1-.036Zm-.676,1.158c0-.024.048-.048.133-.084l.012.024a2.659,2.659,0,0,1-.1.314h-.012A1.955,1.955,0,0,1,34.921-10.045Zm-.35.929c0-.012,0-.012.024-.024V-9.1Zm5.923.1h.084l-.012.121v.024h-.012c-.024,0-.036-.036-.06-.109Zm-.41.314H40.1l.012.084v.012a.026.026,0,0,1-.024-.024Zm-5.875.169c0-.012.012-.024.048-.036,0,.012.012.024.036.024v.036q-.018.036-.036.036A.131.131,0,0,1,34.209-8.537Zm.6,1.556.024-.036a6.759,6.759,0,0,0,.265-.627,2.773,2.773,0,0,1,.314-.869h.012l.012.06v.036a1.125,1.125,0,0,1-.084.29.865.865,0,0,0,.012.157l-.109.193c-.048.362-.109.555-.169.555a4.1,4.1,0,0,1-.145.615,3.775,3.775,0,0,1-.1.555,2.84,2.84,0,0,0-.145.627,1.8,1.8,0,0,0,.024.205.3.3,0,0,0-.109.181v.012a1.311,1.311,0,0,0,.012.217.388.388,0,0,0-.012.1.793.793,0,0,1,.036.157.171.171,0,0,1-.024.072l-.06-.048c-.024,0-.036.048-.048.133l.024.121a.287.287,0,0,0-.036.145c0,.024.012.109.036.29v.024a.464.464,0,0,0-.109.133l.048.121a.9.9,0,0,1-.06.386.263.263,0,0,0,.048.121c0,.012-.024.06-.048.157,0,.072.012.121.024.121a.794.794,0,0,0,.084.362.144.144,0,0,0-.048.1V-2.3a.466.466,0,0,0,.024.133v.024a.048.048,0,0,0-.024.048h-.06c-.024-.145-.036-.217-.06-.217a3.475,3.475,0,0,0-.121-.374V-2.7a.18.18,0,0,0,.072-.084l-.048-.241a1.128,1.128,0,0,0,.048-.157.241.241,0,0,0-.036-.1l.012-.109q0-.072-.036-.072a1.516,1.516,0,0,1,.084-.422.576.576,0,0,1-.048-.145l.048-.157a1.315,1.315,0,0,0-.012-.205.9.9,0,0,1,.084-.229v-.024a.167.167,0,0,0-.06-.109.434.434,0,0,0,.084-.217l-.012-.109a3.772,3.772,0,0,0,.121-.591l.1-.3-.036-.048v-.048a.739.739,0,0,1,.06-.072,4.178,4.178,0,0,1,.169-.724A.365.365,0,0,0,34.812-6.981ZM40.1-8.332a.172.172,0,0,1,.072.145q-.018.036-.036.036H40.12c-.024,0-.036-.036-.048-.1A.307.307,0,0,1,40.1-8.332Zm-.724.072v.048H39.4V-8.26Zm-5.344.253h.012v.024h-.012Zm6.092.133a.044.044,0,0,1,.048-.048.886.886,0,0,0-.024.1,1.085,1.085,0,0,1,.036.145v.012l-.012.024a.044.044,0,0,1-.036-.012c0-.048,0-.072.012-.072C40.132-7.814,40.12-7.862,40.12-7.874Zm-6.08.1a.091.091,0,0,1,.048.012v.024h-.036A.044.044,0,0,0,34.04-7.777Zm.35.012H34.4v.012l-.169.748a4.511,4.511,0,0,1-.47.953,11.471,11.471,0,0,1-1.037,1.713.6.6,0,0,0-.181.133v.133a.209.209,0,0,1-.217.181h-.048a.073.073,0,0,1-.072-.036v-.012q0-.054.145-.181a6.208,6.208,0,0,1,.507-.772c.29-.495.483-.8.555-.917Q33.956-6.788,34.39-7.765Zm5.031.109a.026.026,0,0,1,.024.024v.012c0,.133-.024.205-.084.217A.922.922,0,0,1,39.421-7.657Zm-9.506.145a.107.107,0,0,1,.1-.06h.012l.024.012A.322.322,0,0,1,30-7.44H29.95q-.036-.018-.036-.036Zm10.254-.024h.012v.024h-.012Zm-6.37.012a.026.026,0,0,1,.024.024v.012h-.036V-7.5Zm.941.169a.147.147,0,0,1,.072-.121h.012a.34.34,0,0,1-.048.181h-.012c-.012,0-.012-.012-.024-.024Zm-4.391,0a.066.066,0,0,1,.072-.048.21.21,0,0,0,.036.084l-.084.06h-.012l-.012-.084ZM33.9-7.4l.024.012q-.072.217-.109.217H33.8v-.084l.024-.036v-.012a.026.026,0,0,0-.024-.024C33.859-7.367,33.9-7.391,33.9-7.4Zm5.441.1a.026.026,0,0,1,.024-.024v.024Zm-9.1.277a.234.234,0,0,1,.121-.193h.012c0,.036,0,.06.012.072a.247.247,0,0,1-.109.181C30.252-6.969,30.24-6.993,30.24-7.029ZM28.973-5.051q.326-.869.326-.9c.157-.362.241-.555.241-.579a1.341,1.341,0,0,1,.241-.555l.06.036a1.379,1.379,0,0,0-.169.639,3.369,3.369,0,0,0-.265.917.255.255,0,0,0,.072.193h-.072a1.187,1.187,0,0,0-.133.35.147.147,0,0,0,.036.109.473.473,0,0,0-.157.024l.036.072q-.072,0-.145.362v.145A.484.484,0,0,1,29-4.086l.024.048a.158.158,0,0,0,.145-.084c.024-.29.048-.446.1-.458a.415.415,0,0,0-.012-.109c.072-.048.109-.1.109-.157l-.012-.024a1.356,1.356,0,0,1,.048-.29h.012a.416.416,0,0,1,.109.012c.036,0,.06-.06.1-.181A5.658,5.658,0,0,0,29.89-6.1c.048-.277.109-.41.181-.41a.483.483,0,0,1,.1.277v.012l-.012.024c-.084,0-.133.036-.133.109a.607.607,0,0,0-.048.193.365.365,0,0,0-.109.217v.012a.176.176,0,0,0,.06.1v.012l-.012.06c-.048-.012-.084-.024-.1-.024s-.012.012-.024.024q.018.036.036.036l-.012.072a.3.3,0,0,1,.048.109l-.012.06c-.109,0-.169.036-.169.1a.635.635,0,0,1,.072.181l-.024.06L29.6-4.894c-.024,0-.024,0-.024.024v.024c.036.036.06.06.06.072l-.121.036.072.205a.27.27,0,0,1-.036.121c-.012,0-.048-.012-.109-.024a.026.026,0,0,0-.024.024v.06c.048.048.084.072.084.084v.012a.714.714,0,0,1-.084.205l.012.072v.024c-.205.7-.3,1.062-.3,1.086a1.647,1.647,0,0,0-.169.314v.012a.326.326,0,0,1,.036.1.359.359,0,0,1-.024.145.882.882,0,0,1,.012.157.489.489,0,0,0-.06.109c0,.012.012.06.024.121,0,.084-.06.133-.157.145H28.78v-.012c-.036,0-.072-.193-.1-.579,0-.012.024-.084.06-.205a.3.3,0,0,0-.084-.181q.145-.127.145-.145a.547.547,0,0,1-.012-.1.586.586,0,0,1,.072-.205c-.024-.048-.036-.072-.06-.084-.048,0-.1.048-.133.121a1.4,1.4,0,0,1-.06.374.631.631,0,0,0-.109.35c0,.012.024.024.072.048a.307.307,0,0,1-.29.133.044.044,0,0,0-.012-.036l.1-.808v-.012h-.036a1.651,1.651,0,0,1-.084.193h-.024a.11.11,0,0,0-.036-.06v-.036a.606.606,0,0,1,.084-.193.173.173,0,0,0-.024-.084.715.715,0,0,1,.1-.1h.012v.036a.323.323,0,0,0,.024.133.162.162,0,0,0,.121-.157V-3.41c0-.1-.024-.145-.084-.145l-.024.012-.048-.048V-3.6a.085.085,0,0,1,.06-.048l.084.072a1.561,1.561,0,0,0,.181-.362c0-.048-.024-.072-.072-.1a.612.612,0,0,0-.084.181c-.048,0-.072-.012-.084-.036,0-.048.024-.072.048-.072V-4.05l-.012-.024c.024,0,.048-.024.06-.084a.044.044,0,0,1-.012-.036v-.036a.241.241,0,0,0,.1-.036.224.224,0,0,0-.048-.121l.06-.036q.018,0,.036.145h.012a.123.123,0,0,0,.1-.06v-.024a.452.452,0,0,0-.109-.193v-.036c.024,0,.06.012.133.024.048-.012.072-.06.072-.133v-.012c-.084-.012-.121-.036-.121-.048l.012-.084.121.06a.447.447,0,0,1,.109-.193ZM39.228-7.042c-.012,0-.024.024-.036.06v.024l.012.024c.012,0,.036-.024.06-.084C39.252-7.029,39.24-7.042,39.228-7.042Zm-9.036.133a.478.478,0,0,0,.181.06V-6.8c0,.06-.024.1-.06.1a.012.012,0,0,0-.012-.012h-.072c-.048.1-.084.145-.121.145a.08.08,0,0,1-.06-.084A.829.829,0,0,1,30.192-6.909Zm4.476.072c.012,0,.012.012.012.024V-6.8c-.012,0-.012,0-.012-.024Zm-5.332.374c.012,0,.024,0,.024.024v.012h-.036v-.012Zm3.788.193h.024l.06.012v.024a.171.171,0,0,0-.072.024l-.012-.024Zm-3.873.012a.081.081,0,0,1,.072.048v.048c-.012,0-.048.012-.1.024h-.012v-.024A.241.241,0,0,1,29.251-6.257Zm4.874,1.231a.834.834,0,0,1,.133-.326,1.372,1.372,0,0,1,.072-.386c.072-.229.121-.35.145-.35h.012v.072c-.036,0-.048.024-.048.072v.06c.024.036.048.06.048.072l-.012.072a.9.9,0,0,0-.133.4l.012.072v.048a1.114,1.114,0,0,1-.109.386v.012l.012.072a.728.728,0,0,1-.072.229c0,.1-.024.446-.072,1.074.012.1.024.181.036.241l-.024.121a.124.124,0,0,0,.06.072l-.012.024V-2.9c-.012,0-.012-.012-.036-.012A.093.093,0,0,0,34.1-2.9c0,.06.012.169.024.326a.044.044,0,0,1-.048.048,1.4,1.4,0,0,1-.1-.47A.513.513,0,0,1,34-3.133a2.526,2.526,0,0,1-.048-.338l.072-.688a7.045,7.045,0,0,1,.109-.8ZM30.059-6.04q.018-.036.036-.036a.026.026,0,0,1,.024.024v.012l-.012.024-.048-.012Zm9.567-.036-.048.036c0,.012,0,.024.024.024h.024a.026.026,0,0,0,.024-.024v-.012A.026.026,0,0,0,39.626-6.076ZM33.1-5.956c0-.024.024-.036.084-.048v.048l-.036.06c-.036-.024-.048-.036-.048-.048Zm-.145-.012.06.012v.024a.026.026,0,0,1-.024.024h-.072A.11.11,0,0,0,32.954-5.968Zm6.611.06q-.036.018-.036.036v.036h.024a.026.026,0,0,0,.024-.024v-.024Zm-10.471.133q.036.018.036.036v.024l-.06-.012v-.012Zm9.434.784a1.925,1.925,0,0,1,.29-.615h.024v.012C38.673-5.2,38.564-4.991,38.528-4.991Zm1.11-.615h-.012a.654.654,0,0,1-.109.217,1.26,1.26,0,0,0-.145.29v.012q.018.036.036.036h.012a1.87,1.87,0,0,0,.241-.519ZM28.84-5.1a.237.237,0,0,1,.109-.205c.012,0,.012.012.012.024v.012l-.036.072v.024l.012.084a.475.475,0,0,1-.072.024h-.012C28.853-5.075,28.84-5.087,28.84-5.1Zm3.788-.06a.091.091,0,0,1,.048.012c0,.012-.012.024-.012.036l-.048-.024ZM32.556-5c0-.012.024-.024.048-.036v.012c-.012.036-.036.06-.048.06Zm-.169,0c.012,0,.024-.012.048-.012,0,.012.012.024.048.024v.036h-.072a.026.026,0,0,1-.024-.024Zm6.5.084v.024H38.9v-.024Zm.434.012c-.012,0-.036.036-.06.1l.012.024a.123.123,0,0,0,.06-.1Zm-.953.193a.207.207,0,0,1,.1-.145.483.483,0,0,1-.084.157h-.012Zm.857,0v.024c.012,0,.024,0,.024-.024Zm-.495.06a.026.026,0,0,0-.024.024V-4.6h.024a.026.026,0,0,0,.024-.024A.026.026,0,0,0,38.733-4.653ZM39-4.629c-.012,0-.012.012-.024.024v.024H39c.024,0,.024-.012.024-.024S39.022-4.629,39-4.629Zm.193.012a.582.582,0,0,0-.157.229c0,.012.012.024.024.048.1-.121.145-.193.145-.241v-.036Zm-.917.084c.024,0,.024.012.024.024s0,.024-.024.024h-.012v-.024ZM39-4.255v.012h.024v-.012Zm-.036.072c-.06,0-.084.036-.084.133a1.886,1.886,0,0,0-.29.434v.024H38.6a1.886,1.886,0,0,0,.374-.579Zm-10.3.024c-.012,0-.024,0-.024.012v.012l.012.024a.12.12,0,0,0,.048-.012v-.024c0-.012-.012-.012-.024-.012Zm.712,0a.026.026,0,0,0-.024.024l.012.024c.012,0,.024,0,.024-.024Zm-.4.181v.024H29v-.024Zm3.016.338c0-.048.048-.1.121-.133l.121.121a1.46,1.46,0,0,1-.217.217.379.379,0,0,1-.145-.048l.012-.084h.084q.036.018.036.036l.024-.012c0-.024-.012-.024-.036-.024Zm2.545-.109h.012a.026.026,0,0,1,.024.024v.036l-.012.06q-.036,0-.036-.072Zm-5.61,0c-.036.012-.06.036-.072.1,0,.024.012.036.048.06h.012a.149.149,0,0,0,.048-.1v-.036a.026.026,0,0,0-.024-.024Zm5.694.133c0-.012,0-.024.024-.024h.012V-3.6h-.012Zm-5.706.109c-.072,0-.1.024-.1.084v.06c0,.024,0,.024.024.024.072,0,.109-.024.109-.1A.1.1,0,0,0,28.913-3.507Zm-.591.072c0-.012.012-.012.024-.012h.036c.024,0,.024,0,.024.012v.012l-.012.024A.073.073,0,0,1,28.322-3.434Zm3.5-.012a.288.288,0,0,1,.145.048c-.012.072-.036.109-.1.109L31.8-3.362A.492.492,0,0,0,31.82-3.446Zm-.121.205.084.012h.048v.048q0,.018-.036.036C31.76-3.145,31.736-3.181,31.7-3.241Zm6.37.084a.026.026,0,0,0-.024.024c0,.012,0,.024.024.024a.026.026,0,0,0,.024-.024A.026.026,0,0,0,38.069-3.157Zm-6.527.109c.072.024.121.06.121.1s-.048.06-.121.06c-.012,0-.012-.012-.024-.036s.012-.024.048-.036l-.036-.06Zm-.591.012a.131.131,0,0,1,.06.048h-.048c0-.012-.012-.024-.012-.036Zm3.523.06A.2.2,0,0,0,34.535-3l.024.012c0,.012-.036.024-.084.048Zm3.45-.012c-.06.012-.084.024-.084.048V-2.9l.012.024a.107.107,0,0,0,.1-.06v-.012Zm-6.647.29.06-.012h.036v.024c0,.012-.012.024-.024.036a.073.073,0,0,1-.072-.036Zm3.354.024h.036c.024,0,.024.012.024.024v.012c0,.024,0,.024-.024.024s-.024-.012-.036-.048ZM28.1-2.6c0-.012,0-.012.024-.024a.026.026,0,0,1,.024.024v.012h-.024Zm6.551.145a.1.1,0,0,1,.024-.072h.012l.1.253a.675.675,0,0,0,.121.362l.157.338v.012h-.048c-.06-.036-.084-.072-.084-.109A.773.773,0,0,1,34.7-2.1l.012-.072a1,1,0,0,1-.06-.241ZM28.37-2.2h.072c.012,0,.024.012.036.048h-.1a.044.044,0,0,0-.012-.036Zm6.177.06h.012v.024h-.012Zm.615.555a.026.026,0,0,1,.024.024H35.15ZM46.21-10.721A2.778,2.778,0,0,0,44.352-9.6a3.653,3.653,0,0,0-1.037,2.256,2.024,2.024,0,0,0,.036.35l-.012.157.133.977a8.862,8.862,0,0,1,.217.989l-.036.314a1.037,1.037,0,0,0,.133.422,13.266,13.266,0,0,1,.3,1.472c-.241.253-.555.543-.929.881a16.755,16.755,0,0,0-1.3,1.255c-.772.82-1.279,1.351-1.52,1.58a12.2,12.2,0,0,1-.917.977c-1.387,1.411-2.075,2.618-2.075,3.619a1.742,1.742,0,0,0,.808,1.472,4.378,4.378,0,0,0,2.208.651h.084A5.485,5.485,0,0,0,43.52,6.687a6.78,6.78,0,0,0,1.1-.929A5.351,5.351,0,0,0,46.1,1.789V1.572a13.176,13.176,0,0,0-.627-3.752.044.044,0,0,1,.012-.036c.386-.326.881-.712,1.484-1.146q2.407-1.755,4.476-3.161a.716.716,0,0,0-.012-.133c.036-.048.06-.072.109-.072.084.012.121.024.133.024H51.7l.06-.229A1.8,1.8,0,0,1,52.1-7.21v-.012a1.006,1.006,0,0,0-.29.1,1.512,1.512,0,0,1-.543.4,2.67,2.67,0,0,1-.748.483H50.5c0-.036.06-.1.145-.169v-.012h-.084v-.036c.024,0,.024-.012.024-.012a.611.611,0,0,0,.217-.1.073.073,0,0,1,.072.036c.024,0,.036-.024.036-.06a.353.353,0,0,0,.1-.229q.217-.109.217-.181a4.321,4.321,0,0,1,.639-.507v-.024c-.06,0-.169.072-.35.205l-.664.41c-.169.024-.277.048-.326.06-.507.338-1.122.736-1.834,1.206a36.519,36.519,0,0,1-3.679,2.208,7.075,7.075,0,0,1-.458-2.389,3.584,3.584,0,0,1,1.363-3.016.438.438,0,0,1,.036.133v.012a.4.4,0,0,0-.084.157c.012,0,.012,0,.012.012a.475.475,0,0,0,.072-.024c.084-.024.265-.35.531-.977a6.827,6.827,0,0,1,.1-.881C46.584-10.625,46.463-10.721,46.21-10.721ZM43.954-7.765c.012,0,.024,0,.024.024v.024c0,.024-.012.024-.024.024Zm-.181.519c.012-.06.024-.1.036-.1a1.22,1.22,0,0,1,.084-.265.026.026,0,0,1,.024.024v.048c-.06.374-.109.555-.157.555a.2.2,0,0,1,.024-.06A1.679,1.679,0,0,0,43.773-7.247Zm7.48.024c-.012,0-.012,0-.012.024l.012.024c.012,0,.012-.012.012-.024Zm.253.121-.084.048a.026.026,0,0,0,.024.024h.012c.012,0,.024-.024.06-.048Zm-8.119.1c.012,0,.036.012.084.024l-.012.06A.18.18,0,0,1,43.387-7.005Zm8.553.084c-.06.024-.084.036-.084.048s0,.024.024.024c.036-.024.06-.048.06-.06Zm-.82.1-.072.024v.036h.024c.024-.012.048-.036.048-.048Zm-.386.193a.4.4,0,0,0,.181-.121v.012a.335.335,0,0,1-.181.157Zm-6.84.265c.012-.084.036-.121.06-.121a2.843,2.843,0,0,0,.06.495,4.983,4.983,0,0,1,.157.784,3.673,3.673,0,0,1,.314,1l-.012.145a.259.259,0,0,0,.145.253c.012.036.036.217.084.519v.024a.229.229,0,0,1-.157.205L44.5-3.1c0-.109-.048-.169-.145-.169-.012.012-.036.012-.072.012,0,.06-.024.1-.1.133-.024-.036-.048-.06-.048-.1v-.024c.012-.024.084-.06.229-.109-.084-.217-.133-.326-.157-.326H44.2a.16.16,0,0,0-.084.036c-.048-.024-.072-.036-.072-.048a.761.761,0,0,0,.181-.4q.109-.072.109-.109a1.215,1.215,0,0,0-.145-.495c0-.072-.048-.121-.157-.121H43.99a.026.026,0,0,0-.024.024v.157a.592.592,0,0,0,.012.133,2.1,2.1,0,0,1,.157.386h-.012c-.169,0-.277-.133-.326-.422a1.234,1.234,0,0,1,.036-.133v-.012a.263.263,0,0,0-.048-.121c.253-.072.374-.157.374-.253S44.123-5.2,44.1-5.2a1.446,1.446,0,0,1-.1-.338c-.048-.012-.06-.06-.06-.157v-.265A1.575,1.575,0,0,0,43.894-6.366Zm6.382.036h.036q.145,0,.145.109c0,.121.024.169.084.169a4.43,4.43,0,0,1-.917.591h-.012v-.012a5.707,5.707,0,0,0,.651-.555v-.024h-.012a3.035,3.035,0,0,1-.446.241.542.542,0,0,1,.024-.1c.169-.1.241-.169.241-.241v-.072a.116.116,0,0,1,.109.072.174.174,0,0,0,.1-.157Zm.555.024h.036c0,.024-.012.024-.024.024h-.024v-.012Zm-7.106.929h.024c.012,0,.024.048.048.133,0,.024-.024.048-.06.06v-.048Zm3.848.591h.012l-.036.048A11.523,11.523,0,0,1,45.7-3.229c-.145.169-.265.253-.338.253h-.048c-.024-.012-.036-.036-.036-.1v-.012a.972.972,0,0,1,.109-.229c-.024-.012-.024-.024-.024-.036V-3.4c0-.036.012-.06.048-.06a2.094,2.094,0,0,1,.217.012c.072-.024.1-.048.1-.072a.284.284,0,0,1,.253-.145v-.012c0-.012-.024-.036-.084-.06l.012-.06h.06C46.982-4.412,47.513-4.737,47.573-4.786Zm-1.3,1.653a.137.137,0,0,1,.109-.121c.06.012.084.024.084.048v.012a.219.219,0,0,1-.193.1Zm-.446.048a.026.026,0,0,1,.024-.024l.06.012v.012a.044.044,0,0,0-.036.012Zm.265.109c0-.012,0-.024.024-.024a.026.026,0,0,1,.024.024v.012q-.018.036-.036.036h-.012Zm.072-.012h.024v.012h-.024Zm-.29.048c.072.012.109.036.109.1v.012A.452.452,0,0,1,45.86-2.9v-.012Zm-1.17.35c.012-.06.024-.1.048-.1s.036.036.06.109c0,.012-.012.06-.024.133C44.75-2.445,44.726-2.493,44.7-2.59Zm-5.791,6.2a3.69,3.69,0,0,1,.748-1.122,10.165,10.165,0,0,0,.869-1.05A2.308,2.308,0,0,0,40.938.9a2.476,2.476,0,0,1,.579-.6,6.306,6.306,0,0,0,.676-.772,5.732,5.732,0,0,1,.676-.627c.639-.772,1.05-1.158,1.243-1.158.084.012.121.048.121.121V-2.1a.181.181,0,0,1-.024.121.917.917,0,0,1-.29.483c-.1,0-.434.338-1.037,1.025-.157.06-.229.109-.229.133a2.307,2.307,0,0,1-.676.615c-.1,0-.193.121-.29.374l-.47.555-.941,1.025A10.9,10.9,0,0,1,38.911,3.611Zm6.008-5.284a1.8,1.8,0,0,1,.217.35v.012a.884.884,0,0,1-.145.109.483.483,0,0,1,.084.169v.06a.044.044,0,0,0-.036.012l.048.35v.024l-.012.145a.86.86,0,0,0-.169-.072.146.146,0,0,1-.072.109h-.024a.384.384,0,0,1-.121-.181l-.06.048h-.036V-.624a.248.248,0,0,1,.229-.145h.048l.012.06V-.7l-.036.048V-.6c.012.012.024.024.036.024h.1L45-.587a.233.233,0,0,0-.036-.121,2.376,2.376,0,0,0-.133-.76H44.8c-.06.157-.145.241-.277.241v-.012l.012-.06a.29.29,0,0,0,.181-.072A1.028,1.028,0,0,1,44.919-1.673Zm-.193.458h.084a.044.044,0,0,0,.012.036v.024L44.8-1.166h-.012a.98.98,0,0,0,.06.169v.012c-.109,0-.157-.036-.157-.109v-.012A.5.5,0,0,1,44.726-1.215Zm-1.134.422c.217-.253.4-.374.531-.374h.048a.163.163,0,0,1,.145.109l.121.82c-.012.109-.024.193-.024.265a1.173,1.173,0,0,0,.072.181c-.036.615-.048.965-.048,1.062,0,.048.012.145.024.29a.907.907,0,0,1-.084.338,5.7,5.7,0,0,1-.217,1.17,5.218,5.218,0,0,1-.422,1.025,7.062,7.062,0,0,1-2.172,2.365,5.254,5.254,0,0,1-1.834.567H39.7l-.024.012a.012.012,0,0,0-.012-.012H39.6c-.048,0-.109-.012-.157-.012a.67.67,0,0,1-.555-.748V6.241a5.6,5.6,0,0,1,1-2.582C40.5,2.887,41.1,2.2,41.662,1.572A12.337,12.337,0,0,0,42.736.39c.229-.193.35-.314.35-.362V.016a.556.556,0,0,1-.157-.205l.338-.29a.21.21,0,0,1,.072.133.276.276,0,0,0-.181.241l.012.024c.048,0,.169-.109.338-.338q-.018-.036-.036-.036h-.036l-.024.012-.024-.048V-.5h.048c.181,0,.29-.048.338-.157.217-.157.326-.265.326-.314a.073.073,0,0,0-.036-.072L44-1.034c-.157.181-.253.265-.3.265h-.024Zm-.241.133.072-.024.024.012c0,.06-.012.084-.048.084l-.048-.06Zm1.255.169.084.012h.024c0,.012-.024.084-.072.241.024.1.048.145.084.145h.012c.024,0,.06-.072.1-.229h.012a1.109,1.109,0,0,1,.072.4V.1l-.012.072-.06-.048c-.145-.036-.217-.1-.217-.157A.475.475,0,0,0,44.654-.1l-.109-.109.072-.1V-.334a.171.171,0,0,0-.024-.072Zm.35.241c.06-.06.1-.1.109-.1a.708.708,0,0,1,.145.253c-.06.241-.1.362-.1.386a.8.8,0,0,0,.109.314,1.638,1.638,0,0,1-.012.217c.012.169.012.277.012.338a.364.364,0,0,1-.048.157c-.012,0-.024-.024-.06-.06-.036-.205-.06-.314-.084-.314h-.012a.24.24,0,0,1-.024.1A2.432,2.432,0,0,1,45,1.319v.024c0,.06-.072.109-.217.133.012.084.024.133.024.157h.024V1.584a.144.144,0,0,1,.048-.1c.048,0,.072.1.084.3v.133a1.143,1.143,0,0,1-.048.362.757.757,0,0,1-.157-.3.283.283,0,0,0,.084-.157V1.813c-.169-.084-.265-.145-.265-.193a.443.443,0,0,1,.193-.29.449.449,0,0,0,.109-.35q0-.072-.036-.072h-.084c-.024,0-.024.012-.024.024v.072h-.012q-.036,0-.036-.072L44.7.909C44.835.884,44.9.86,44.9.836V.679l.048.036c0,.1.036.133.109.133.024,0,.036-.036.048-.133,0-.024-.024-.205-.06-.531a.243.243,0,0,1,.036-.133C45-.117,44.955-.2,44.955-.213Zm-2.1.169c.048,0,.1.036.133.109V.04h-.024q-.072,0-.109-.109Zm-.374.41c.012-.06.036-.1.048-.1h.084c0,.072-.048.1-.121.1ZM44.654.317h.012c.06.048.1.1.1.121L44.738.51a.116.116,0,0,1-.121-.084A.5.5,0,0,1,44.654.317Zm-2.425.35c0-.048.036-.1.121-.145V.535c-.06.084-.1.133-.109.133ZM44.835,2.38a.373.373,0,0,1,.1.024l-.012.084V2.67c-.012.036-.036.06-.048.06h-.012a.946.946,0,0,1-.024-.169ZM42.772,5.843h.084l-.048.06C42.8,5.9,42.784,5.891,42.772,5.843ZM41.107,6.856a.673.673,0,0,1,.446-.217h.012v.024c0,.084-.157.145-.458.205Z" transform="translate(1.189 21.32)" fill="#3963ac" stroke="#3963ac" stroke-width="0.4"/>
</svg>
