<svg xmlns="http://www.w3.org/2000/svg" width="195.359" height="31.347" viewBox="0 0 195.359 31.347">
  <path id="パス_471" data-name="パス 471" d="M27.916-26.117l-.848.163H13.89v4.045H17.8l-2.512.815a22,22,0,0,0,3.392,4.632,22.928,22.928,0,0,1-5.806,2.283c-.391-.881-.815-1.761-1.272-2.577L9.095-15.711c1.435-1.957,2.871-4.045,4.11-5.937L9.388-23.377a55.5,55.5,0,0,1-2.707,4.991c-.2-.261-.424-.555-.652-.815,1.142-1.827,2.446-4.338,3.653-6.622L5.6-27.324a40.725,40.725,0,0,1-2.153,5.513l-.587-.555L.646-19.1A28.619,28.619,0,0,1,4.3-14.765q-.587.832-1.174,1.566l-2.479.1.391,4.077,4.534-.294V-7.23L1.821-7.882A24.669,24.669,0,0,1,.32-.347a23.827,23.827,0,0,1,3.556,1.7,29.612,29.612,0,0,0,1.7-7.242V3.632h4.11V-5.6c.522,1.631,1.044,3.36,1.3,4.6l3.458-1.24a50.746,50.746,0,0,0-1.99-5.937l-2.773.913V-9.611l1.076-.065a9.261,9.261,0,0,1,.326,1.468l3.295-1.468a19.357,19.357,0,0,0-1.207-3.816,20.964,20.964,0,0,1,2.055,3.327A28.856,28.856,0,0,0,22.4-13.428a24.7,24.7,0,0,0,6.915,3.034,18.007,18.007,0,0,1,2.871-3.816,26.1,26.1,0,0,1-6.132-2.12,20.871,20.871,0,0,0,5.023-8.416Zm-3.295,4.208a15.826,15.826,0,0,1-2.446,2.9,14.818,14.818,0,0,1-2.479-2.9ZM7.268-13.33c.457-.587.946-1.207,1.435-1.859.261.555.522,1.174.783,1.761Zm17.615,9h5.48V-8.47h-5.48v-3.425H20.218V-8.47H15.064v4.143h5.154v2.968H13.172V2.784H31.7V-1.358H24.883ZM63.537-5.534v-9H57.926v-1.24h2.838v-1.631a15.159,15.159,0,0,0,1.794,1.272,25.344,25.344,0,0,1,2.349-4.11c-2.838-1.272-5.545-4.208-7.437-7.111H53.392a20.326,20.326,0,0,1-6.785,7.633v-1.533H44.193v-1.174h3.034v-3.784H34.962v18.5h9.166c-.065,1.011-.1,1.925-.13,2.675a16.41,16.41,0,0,0-.783-1.892l-1.729.555a19.69,19.69,0,0,1,1.272,4.208L43.8-2.533a5.318,5.318,0,0,1-.489,2.186.955.955,0,0,1-.848.424,12.185,12.185,0,0,1-1.7-.1A9.355,9.355,0,0,1,41.747,3.6a12.453,12.453,0,0,0,2.871-.163A2.837,2.837,0,0,0,46.64,2.164a3.236,3.236,0,0,0,.424-.946A14.834,14.834,0,0,1,49.119,3.73a15.173,15.173,0,0,0,7.046-6.491A14.159,14.159,0,0,0,61.808,3.6a17.451,17.451,0,0,1,3-3.719A12.414,12.414,0,0,1,59.1-5.534ZM52.707-19.364a23.163,23.163,0,0,0,2.871-3.882,23.825,23.825,0,0,0,3.034,3.882ZM40.475-22.431v1.174H38.811v-1.174ZM44.193-11.34v-1.435h2.414V-16.3H44.193v-1.435h2.414v-1.3a21.957,21.957,0,0,1,1.761,3.327,17.24,17.24,0,0,0,2.381-1.761v1.7h3v1.24H48.434v9h4.208A11.459,11.459,0,0,1,47.358-.119a90.1,90.1,0,0,0,.685-9.721c.033-.489.033-1.5.033-1.5Zm-3.719-6.393V-16.3H38.811v-1.435Zm-1.664,4.958h1.664v1.435H38.811ZM52.25-8.894v-2.283h1.5c-.033.75-.065,1.5-.163,2.283Zm7.274,0h-1.7c.065-.783.1-1.533.1-2.283h1.6ZM37.213-5.86v-.294L34.7-6.643c-.13,2.805-.522,5.513-1.664,7.176l2.316,1.24c1.3-1.794,1.664-4.6,1.827-7.535a34.282,34.282,0,0,1,.163,6l2.022-.261A32.273,32.273,0,0,0,39.1-6.056ZM39.4-5.99a28.09,28.09,0,0,1,.815,5.35l1.99-.391a28.547,28.547,0,0,0-.913-5.284Zm56.889-7.666V-17.8H89.665a43.8,43.8,0,0,0,5.676-6.622l-4.077-2.088A33.827,33.827,0,0,1,88.1-22.463v-1.7H81.575v-3.2h-4.7v3.2H69.571v4.077h7.307V-17.8H66.766v4.143H76.878A55.23,55.23,0,0,1,65.592-8.828,27.989,27.989,0,0,1,68.4-4.914c1.5-.555,3.034-1.142,4.5-1.794V3.665h4.73V2.752H87.741v.783H92.7V-11.5H81.739c1.044-.685,2.088-1.4,3.066-2.153ZM81.575-20.082h4.175c-.848.783-1.729,1.566-2.675,2.283h-1.5Zm6.165,13.9H77.629V-7.654H87.741ZM77.629-1.2V-2.663H87.741V-1.2Zm43.286.489c-1.207,0-1.4-.1-1.4-1.011V-4.555a17.474,17.474,0,0,1,3.262,2.544l3.131-3.2a12.3,12.3,0,0,0-2.153-1.6h9.655V-19.723h-6.687a31.645,31.645,0,0,0,2.446-3.523L125.906-25.3l-.718.2h-6.165l.881-1.468-5.056-.979a21.563,21.563,0,0,1-8.807,8.644,15.972,15.972,0,0,1,3.295,3.49c.489-.326.979-.652,1.435-.979v.424h17.941v.946H111.455v3.458h17.256v1.011H110.248v3.751h7.894l-.946.946c.489.228.979.522,1.5.815H114.88v3.392c0,3.686.979,4.958,5.382,4.958h4.11c3.229,0,4.436-1.044,4.926-5.154a12.069,12.069,0,0,1-4.045-1.6c-.163,2.381-.359,2.74-1.337,2.74Zm1.533-20.713c-.391.587-.848,1.174-1.272,1.7h-6.459c.555-.555,1.076-1.109,1.566-1.7ZM127.7-3.968a33.253,33.253,0,0,1,5.219,6.785L137.192.37a34.322,34.322,0,0,0-5.545-6.524Zm-17.745,6.72a13.377,13.377,0,0,0,4.73-6.883L110.444-5.7a11.019,11.019,0,0,1-4.4,5.676Zm36.6-24.073h4.6v-.848h6.132v.848h4.665v-.848h6.622v-3.686H161.95v-1.5h-4.665v1.5h-6.132v-1.5h-4.6v1.5h-6.622v3.686h6.622ZM169.029-7.034v-3.621H152.654l.391-.783H165.8v-9.394H142.868v9.394h5.284l-.489.783h-8.155v3.621h4.143a21.131,21.131,0,0,1-5.284,2.186,11.6,11.6,0,0,1,2.642,3.36,26.818,26.818,0,0,0,3.621-1.566v1.109h4.4C147.728-1,145.64-.282,142.15.207A11.76,11.76,0,0,1,144.368,3.8c6.067-1.142,8.84-3,10.21-5.741h4.567a3.282,3.282,0,0,1-.555,1.6,1.44,1.44,0,0,1-1.011.294,28.294,28.294,0,0,1-2.9-.163,9.291,9.291,0,0,1,1.109,3.686,28.241,28.241,0,0,0,3.947-.1,4.076,4.076,0,0,0,2.61-1.076c.685-.75,1.076-2.251,1.37-5.023a18.539,18.539,0,0,0,3.588,1.6,18.339,18.339,0,0,1,2.968-3.751,22.006,22.006,0,0,1-5.806-2.153ZM147.4-18.19h13.635v.815H147.4Zm0,3.295h13.635v.815H147.4Zm3.882,8.285c-.065.489-.13.946-.228,1.37h-2.968a17.264,17.264,0,0,0,1.957-1.794h8.448a22.447,22.447,0,0,0,1.729,1.794h-4.632l.2-1.37Zm32.881-18.854c-.294,3.653-.75,14.972-.75,19.572,0,.555,0,1.044.033,1.4l-4.7-.13c-.033-.652-.033-1.533-.033-2.577,0-4.893.261-13.374.75-18.5Zm11.515,0c-.294,3.653-.75,14.972-.75,19.572,0,.555,0,1.044.033,1.4l-4.7-.13c-.033-.652-.033-1.533-.033-2.577,0-4.893.261-13.374.75-18.5ZM180.968,2.98a2.719,2.719,0,0,1-2.74-2.838,2.792,2.792,0,0,1,2.838-2.805,2.8,2.8,0,0,1,2.74,2.936A2.621,2.621,0,0,1,180.968,2.98Zm11.515,0a2.719,2.719,0,0,1-2.74-2.838,2.792,2.792,0,0,1,2.838-2.805A2.8,2.8,0,0,1,195.32.273,2.621,2.621,0,0,1,192.482,2.98Z" transform="translate(-0.32 27.552)" fill="#19253a"/>
</svg>
