<svg xmlns="http://www.w3.org/2000/svg" xmlns:xlink="http://www.w3.org/1999/xlink" width="17.483" height="507.662" viewBox="0 0 17.483 507.662">
  <defs>
    <clipPath id="clip-path">
      <rect width="17.483" height="507.662" fill="none"/>
    </clipPath>
  </defs>
  <g id="リピートグリッド_8" data-name="リピートグリッド 8" clip-path="url(#clip-path)">
    <g transform="translate(594.841 -4170.708)">
      <path id="パス_374" data-name="パス 374" d="M-594.308,4187.877l-.264,1.6,16.964-16.691v-1.482Z" fill="#88b4f3"/>
    </g>
    <g transform="translate(594.841 -4152.708)">
      <path id="パス_374-2" data-name="パス 374" d="M-594.308,4187.877l-.264,1.6,16.964-16.691v-1.482Z" fill="#88b4f3"/>
    </g>
    <g transform="translate(594.841 -4134.708)">
      <path id="パス_374-3" data-name="パス 374" d="M-594.308,4187.877l-.264,1.6,16.964-16.691v-1.482Z" fill="#88b4f3"/>
    </g>
    <g transform="translate(594.841 -4116.708)">
      <path id="パス_374-4" data-name="パス 374" d="M-594.308,4187.877l-.264,1.6,16.964-16.691v-1.482Z" fill="#88b4f3"/>
    </g>
    <g transform="translate(594.841 -4098.708)">
      <path id="パス_374-5" data-name="パス 374" d="M-594.308,4187.877l-.264,1.6,16.964-16.691v-1.482Z" fill="#88b4f3"/>
    </g>
    <g transform="translate(594.841 -4080.708)">
      <path id="パス_374-6" data-name="パス 374" d="M-594.308,4187.877l-.264,1.6,16.964-16.691v-1.482Z" fill="#88b4f3"/>
    </g>
    <g transform="translate(594.841 -4062.708)">
      <path id="パス_374-7" data-name="パス 374" d="M-594.308,4187.877l-.264,1.6,16.964-16.691v-1.482Z" fill="#88b4f3"/>
    </g>
    <g transform="translate(594.841 -4044.708)">
      <path id="パス_374-8" data-name="パス 374" d="M-594.308,4187.877l-.264,1.6,16.964-16.691v-1.482Z" fill="#88b4f3"/>
    </g>
    <g transform="translate(594.841 -4026.708)">
      <path id="パス_374-9" data-name="パス 374" d="M-594.308,4187.877l-.264,1.6,16.964-16.691v-1.482Z" fill="#88b4f3"/>
    </g>
    <g transform="translate(594.841 -4008.708)">
      <path id="パス_374-10" data-name="パス 374" d="M-594.308,4187.877l-.264,1.6,16.964-16.691v-1.482Z" fill="#88b4f3"/>
    </g>
    <g transform="translate(594.841 -3990.708)">
      <path id="パス_374-11" data-name="パス 374" d="M-594.308,4187.877l-.264,1.6,16.964-16.691v-1.482Z" fill="#88b4f3"/>
    </g>
    <g transform="translate(594.841 -3972.708)">
      <path id="パス_374-12" data-name="パス 374" d="M-594.308,4187.877l-.264,1.6,16.964-16.691v-1.482Z" fill="#88b4f3"/>
    </g>
    <g transform="translate(594.841 -3954.708)">
      <path id="パス_374-13" data-name="パス 374" d="M-594.308,4187.877l-.264,1.6,16.964-16.691v-1.482Z" fill="#88b4f3"/>
    </g>
    <g transform="translate(594.841 -3936.708)">
      <path id="パス_374-14" data-name="パス 374" d="M-594.308,4187.877l-.264,1.6,16.964-16.691v-1.482Z" fill="#88b4f3"/>
    </g>
    <g transform="translate(594.841 -3918.708)">
      <path id="パス_374-15" data-name="パス 374" d="M-594.308,4187.877l-.264,1.6,16.964-16.691v-1.482Z" fill="#88b4f3"/>
    </g>
    <g transform="translate(594.841 -3900.708)">
      <path id="パス_374-16" data-name="パス 374" d="M-594.308,4187.877l-.264,1.6,16.964-16.691v-1.482Z" fill="#88b4f3"/>
    </g>
    <g transform="translate(594.841 -3882.708)">
      <path id="パス_374-17" data-name="パス 374" d="M-594.308,4187.877l-.264,1.6,16.964-16.691v-1.482Z" fill="#88b4f3"/>
    </g>
    <g transform="translate(594.841 -3864.708)">
      <path id="パス_374-18" data-name="パス 374" d="M-594.308,4187.877l-.264,1.6,16.964-16.691v-1.482Z" fill="#88b4f3"/>
    </g>
    <g transform="translate(594.841 -3846.708)">
      <path id="パス_374-19" data-name="パス 374" d="M-594.308,4187.877l-.264,1.6,16.964-16.691v-1.482Z" fill="#88b4f3"/>
    </g>
    <g transform="translate(594.841 -3828.708)">
      <path id="パス_374-20" data-name="パス 374" d="M-594.308,4187.877l-.264,1.6,16.964-16.691v-1.482Z" fill="#88b4f3"/>
    </g>
    <g transform="translate(594.841 -3810.708)">
      <path id="パス_374-21" data-name="パス 374" d="M-594.308,4187.877l-.264,1.6,16.964-16.691v-1.482Z" fill="#88b4f3"/>
    </g>
    <g transform="translate(594.841 -3792.708)">
      <path id="パス_374-22" data-name="パス 374" d="M-594.308,4187.877l-.264,1.6,16.964-16.691v-1.482Z" fill="#88b4f3"/>
    </g>
    <g transform="translate(594.841 -3774.708)">
      <path id="パス_374-23" data-name="パス 374" d="M-594.308,4187.877l-.264,1.6,16.964-16.691v-1.482Z" fill="#88b4f3"/>
    </g>
    <g transform="translate(594.841 -3756.708)">
      <path id="パス_374-24" data-name="パス 374" d="M-594.308,4187.877l-.264,1.6,16.964-16.691v-1.482Z" fill="#88b4f3"/>
    </g>
    <g transform="translate(594.841 -3738.708)">
      <path id="パス_374-25" data-name="パス 374" d="M-594.308,4187.877l-.264,1.6,16.964-16.691v-1.482Z" fill="#88b4f3"/>
    </g>
    <g transform="translate(594.841 -3720.708)">
      <path id="パス_374-26" data-name="パス 374" d="M-594.308,4187.877l-.264,1.6,16.964-16.691v-1.482Z" fill="#88b4f3"/>
    </g>
    <g transform="translate(594.841 -3702.708)">
      <path id="パス_374-27" data-name="パス 374" d="M-594.308,4187.877l-.264,1.6,16.964-16.691v-1.482Z" fill="#88b4f3"/>
    </g>
    <g transform="translate(594.841 -3684.708)">
      <path id="パス_374-28" data-name="パス 374" d="M-594.308,4187.877l-.264,1.6,16.964-16.691v-1.482Z" fill="#88b4f3"/>
    </g>
    <g transform="translate(594.841 -3666.708)">
      <path id="パス_374-29" data-name="パス 374" d="M-594.308,4187.877l-.264,1.6,16.964-16.691v-1.482Z" fill="#88b4f3"/>
    </g>
  </g>
</svg>
