<svg xmlns="http://www.w3.org/2000/svg" width="99.517" height="28.025" viewBox="0 0 99.517 28.025">
  <path id="パス_318" data-name="パス 318" d="M-72.132-10.414c.138-.015.214-.031.214-.076a1.228,1.228,0,0,0-.26-.183,1.355,1.355,0,0,1-.321-.932,21.445,21.445,0,0,1,1.253-4.814,14,14,0,0,0,1.9.978,11.578,11.578,0,0,0,3.576.657q.894,0,.917-.092c0-.031-.015-.061-.046-.061,0-.107.076-.153.214-.153a1.759,1.759,0,0,1,.336.138l.061-.153a3.217,3.217,0,0,0,.841-.107.162.162,0,0,1,.183-.183l.168.168c.015,0,.061-.061.138-.168.061-.153.26-.214.611-.214v-.046a1.637,1.637,0,0,0-.352-.092.6.6,0,0,0-.275.122,8.062,8.062,0,0,0-1.421.153,2.243,2.243,0,0,1-.26-.061.287.287,0,0,1,.26-.122q0-.046-.092-.092c0-.107.107-.183.321-.214a1.235,1.235,0,0,0,.245.015c-.015.076-.168.122-.474.122,0,.046.092.076.275.076.015.061.031.092.061.092.031-.015.061-.031.061-.061.107-.061.168-.107.168-.153a.122.122,0,0,1,.138-.138,8.585,8.585,0,0,1,1.62-.26,8.4,8.4,0,0,0,2.751-.993c0,.076-.168.245-.52.52l.015.061c0,.046-.061.138-.2.229l.031.2a.132.132,0,0,1-.046.092,5.315,5.315,0,0,0-.581.367v.046a1.775,1.775,0,0,0,.7-.352,1.5,1.5,0,0,0,.825-1.345.514.514,0,0,0-.214-.458h-.107a3.1,3.1,0,0,1-.871.611,13.982,13.982,0,0,1-5.166.948h-.459a9.8,9.8,0,0,1-4.906-1.421,1.422,1.422,0,0,1,.092-.321,9.632,9.632,0,0,0,1.681-.321,10.2,10.2,0,0,0,1.712-.672,18.188,18.188,0,0,0,2.72-1.758q2.017-1.6,2.063-1.6a2.579,2.579,0,0,0,.672-.6c.52-.458.764-.718.764-.825a9.938,9.938,0,0,0,.825-.779c.076-.107.565-.672,1.482-1.712q3.553-4.516,3.546-7.229A2.83,2.83,0,0,0-57-36.335,3.365,3.365,0,0,0-59.11-36.9q-3.92,0-8.864,2.919a3.766,3.766,0,0,1-.443.321c-.26,0-1.223.749-2.889,2.277q-2.247,2.155-2.247,3.576c0,.4.275.7.795.917a15.015,15.015,0,0,1,.413,3.271v.015a.139.139,0,0,0,.107-.046c-.061-.871-.092-1.452-.092-1.758h.015c0,.061.015.107.046.107.031.26.107.963.2,2.109-.031,1.681-.122,2.522-.245,2.522l-.015-.046c.046-.978.061-1.62.061-1.926q0-.115-.046-.138c-.015,0-.046.061-.076.153l.031.611a7.758,7.758,0,0,0-.076.978l.015.138a3.942,3.942,0,0,0-.183.871c-.031.474-.076.718-.153.718a.517.517,0,0,0-.352.489,1.36,1.36,0,0,0,.168.581,1.094,1.094,0,0,1-.168.321,25.928,25.928,0,0,0-1.07,4.417q.046,0,.092.183c-.138.107-.214.2-.214.245,0,.092.031.153.076.168a1.372,1.372,0,0,0-.076.52,1.816,1.816,0,0,0,.459,1.223A2.56,2.56,0,0,0-72.132-10.414Zm6.4-24.178a.833.833,0,0,0-.26-.046c0-.138.2-.26.565-.367a9.529,9.529,0,0,1,4.05-1.116,10.263,10.263,0,0,1,2.506-.413c.29.015.428.031.428.076-.046,0-.076.015-.076.046-.046,0-.565.061-1.544.183a8.936,8.936,0,0,0-1.758.428,1,1,0,0,1-.336-.153.814.814,0,0,0-.367.092A3.729,3.729,0,0,0-64.2-35.3,6.829,6.829,0,0,1-65.728-34.592Zm-4.478,14.9h-.015a31.7,31.7,0,0,0,1.177-3.179c1.437-3.485,2.231-5.456,2.4-5.915a25.573,25.573,0,0,0,1.131-2.98,6.971,6.971,0,0,0,.611-2.109.641.641,0,0,0-.321-.535v-.015a1,1,0,0,0,.29-.138,20.616,20.616,0,0,1,6.281-1.5,3.217,3.217,0,0,1,1.345.2,1.645,1.645,0,0,1,.688,1.482c0,1.192-.688,2.827-2.063,4.891-.688.917-1.269,1.727-1.742,2.415a8.621,8.621,0,0,0-1.024,1.192q-.55.413-.55.6c-.138.092-.26.183-.352.245-.336.413-.535.627-.6.627a2.091,2.091,0,0,1-.474.581l-.031-.061a.5.5,0,0,0-.183.153A26.276,26.276,0,0,1-66.9-21.174,18.413,18.413,0,0,1-70.206-19.691Zm1.36-13.082h-.015l.031-.061c.963-.825,1.574-1.238,1.849-1.238,0,.245-.214.443-.611.581A7.454,7.454,0,0,1-68.846-32.774Zm-2.629,12.838h-.015c0-.015.076-.306.229-.841a.258.258,0,0,0-.046-.153c-.076.015-.153.092-.26.229-.031,0-.046-.031-.061-.092q.023,0,.092-.275a1.819,1.819,0,0,1,.229-.795v-.076c0-.046-.061-.076-.183-.122l.015-.031c0-.122-.031-.382-.076-.779a1.862,1.862,0,0,1,.092-.52c0-.718,0-1.162-.015-1.345a16.071,16.071,0,0,1-.122-2.017l-.076-.046-.031.015-.122-.031a.825.825,0,0,0-.29-.336.48.48,0,0,1-.382-.474c.107-.948,1.284-2.461,3.561-4.509a9.6,9.6,0,0,1,1.452-.978c.031,0,.046.031.046.061a1.782,1.782,0,0,1-.122.565c-.5,1.3-.825,2.17-.978,2.613C-69.4-27.7-69.87-26.416-69.961-26a1.732,1.732,0,0,0-.29.718.623.623,0,0,1,.031.107.489.489,0,0,1-.245.29c-.076.352-.183.841-.352,1.437h-.046Q-71-23.566-71-23.588a.377.377,0,0,0-.122.26.771.771,0,0,0,.076.26l-.031.2a2.936,2.936,0,0,0-.29.7.38.38,0,0,0,.107.076h.015c.52-1.3.779-1.972.779-2,.183-.352.611-1.253,1.253-2.705q.183-.642.367-.642a1.4,1.4,0,0,1-.229.7,2.439,2.439,0,0,1-.306.688c-.076.245-.229.688-.474,1.345a3.7,3.7,0,0,0-.458,1.192c0,.031.031.046.076.046.061,0,.168-.214.29-.642.046-.26.138-.382.306-.382a3.954,3.954,0,0,1-.168.6l.015.061c.061-.015.122-.092.2-.214a3.792,3.792,0,0,1,.306-.841q.183-.481.367-.55a3.143,3.143,0,0,0,.459-.917,12.182,12.182,0,0,1,.825-1.849h.015a1.724,1.724,0,0,1-.061.458,13.074,13.074,0,0,0-.993,2.476h.061c.153-.2.245-.306.275-.306a5.112,5.112,0,0,1-.52,1.452c-.275.856-.672,1.865-1.177,3.057-.107.474-.275.718-.489.718,0-.031.015-.092.031-.183v-.015h-.031q-.115.413-.413.413l.153-.611c0-.031-.076-.061-.245-.092-.061,0-.107.168-.153.5h.015A.364.364,0,0,1-71-20.425a1.048,1.048,0,0,1-.183.413c-.031,0-.031-.031-.046-.092q0-.092.046-.092c-.015-.046-.046-.061-.061-.061l-.076.061A.284.284,0,0,1-71.474-19.936Zm13.3-9.567c.015-.153.092-.229.214-.229C-57.964-29.579-58.04-29.5-58.178-29.5Zm-.061.214h-.092v-.031a.241.241,0,0,1,.107-.107.542.542,0,0,0,.015.107Zm-9.323,1.009h-.031l-.015-.107c.138-.29.26-.565.367-.856.015,0,.015.015.015.031A1.923,1.923,0,0,1-67.562-28.28Zm2.354,6.4c-.015,0-.015-.015-.015-.031q.138-.138.138-.183a10.286,10.286,0,0,1,1.116-.917,27.141,27.141,0,0,0,3.546-3.622A15.525,15.525,0,0,0-59.018-28.4a2.316,2.316,0,0,1,.5-.581.473.473,0,0,1-.031.122,11.57,11.57,0,0,0-.642.978,10.866,10.866,0,0,0-.734.932c-.321.336-.474.55-.474.642v.153l.031.031a.947.947,0,0,1-.168-.046,2.024,2.024,0,0,0-.29.29c-.795.871-1.788,1.849-2.98,2.919A8.351,8.351,0,0,1-65.208-21.877Zm-2.384-5.594-.015-.122.138-.015C-67.531-27.516-67.562-27.47-67.592-27.47Zm-.336.948a.033.033,0,0,1-.031-.031,1.523,1.523,0,0,1,.031-.245.681.681,0,0,1,.321-.52A2.5,2.5,0,0,1-67.929-26.523Zm7.978.107v-.092h.122C-59.828-26.462-59.874-26.431-59.951-26.416Zm-8.681.107c-.046-.031-.061-.046-.061-.061a.1.1,0,0,1,.092-.061A.205.205,0,0,1-68.632-26.309Zm7.81.917h-.015l-.015-.076a.764.764,0,0,1,.245-.122c.2-.367.367-.581.535-.642h.015A4.119,4.119,0,0,1-60.822-25.392Zm-8.253-.382a.27.27,0,0,1-.122-.138c0-.092.031-.138.107-.153.031,0,.076.061.107.2Q-69.052-25.774-69.075-25.774Zm.153.138h-.015a.764.764,0,0,1,.061-.352l.092-.015v.138A1.244,1.244,0,0,0-68.922-25.636Zm-.718,1.009h-.031a2.469,2.469,0,0,1,.214-.7c.076.015.107.046.107.107A.751.751,0,0,1-69.64-24.628Zm8.513-.443a.222.222,0,0,1,.153-.229l.061.092A.266.266,0,0,1-61.128-25.071Zm-8.543,1.482.076-.061c.092-.275.168-.413.245-.443h.214c.061,0,.107-.092.168-.29l.321-.657a.633.633,0,0,0-.061-.183h-.061a.6.6,0,0,1-.138.26l-.245-.015c-.061,0-.107.107-.122.336.015,0,.015,0,.015.015-.29.657-.443,1.009-.443,1.039Zm8.222-1.116-.046-.138c0-.046.092-.107.29-.153v.031C-61.25-24.8-61.326-24.7-61.449-24.7Zm-2.98,2.751h-.031v-.092a4.206,4.206,0,0,1,.825-.627,12.481,12.481,0,0,1,1.024-.948c.535-.627.871-.932,1.009-.932a.4.4,0,0,1-.138.275.976.976,0,0,0-.428.382c-.229.168-.352.275-.352.306l.015.061a1.454,1.454,0,0,0-.52.489c-.138.2-.26.306-.367.306a1.152,1.152,0,0,1-.443.352C-64.123-22.106-64.322-21.953-64.429-21.953Zm-5.64-1.207c.046,0,.122-.183.229-.52,0-.046-.015-.061-.046-.061s-.107.168-.214.489C-70.1-23.191-70.084-23.161-70.068-23.161Zm-.352.076c.092-.061.138-.122.138-.2-.031-.046-.061-.076-.076-.076q-.046,0-.138.138C-70.5-23.145-70.466-23.1-70.42-23.084Zm.458.229q.092-.069.092-.092V-23.1h-.046a.223.223,0,0,1-.076.183Zm-.535.55a.424.424,0,0,0,.183-.076c0-.046-.076-.061-.214-.061,0-.26.031-.382.092-.382a.36.36,0,0,0-.031-.122c-.092,0-.168.092-.214.275A.528.528,0,0,0-70.5-22.3Zm.2-.29c.031,0,.046-.046.076-.122,0-.031-.061-.061-.168-.061v.046Zm6.923.076H-63.4c.092-.138.183-.214.275-.214C-63.13-22.6-63.221-22.519-63.374-22.519Zm-6.8.29c.031,0,.061-.061.076-.2,0-.031-.046-.031-.122-.031-.031,0-.046.046-.061.168C-70.282-22.244-70.252-22.228-70.175-22.228Zm.092.581.046-.015.245-.627v-.076h-.046a3.445,3.445,0,0,1-.321.7Zm-.917.076v-.214a.669.669,0,0,0,.245-.55H-70.8a2.448,2.448,0,0,0-.306.718C-71.108-21.586-71.077-21.571-71-21.571Zm5.762.29h-.031c.076-.2.306-.382.7-.581C-64.566-21.709-64.8-21.51-65.239-21.281Zm-5.67.275a.2.2,0,0,0,.107-.046.314.314,0,0,0-.076-.138c-.031.015-.061.061-.092.153Zm4.554.458a.015.015,0,0,1-.015-.015.564.564,0,0,1,.352-.229c.031,0,.061,0,.061.031A1.582,1.582,0,0,1-66.354-20.547Zm6.388,3.974a.056.056,0,0,0,.061-.061h-.076l-.046.015C-60.027-16.589-60-16.573-59.966-16.573Zm-3.347.306h-.015v-.107h.015Zm1.5.245a.162.162,0,0,0,.092-.107c-.015,0-.015-.015-.015-.031-.076.046-.107.076-.107.138Zm-1.36.138c.061-.015.092-.031.092-.076h-.107A.138.138,0,0,0-63.176-15.886Zm-1.9.092c-.046-.031-.076-.046-.076-.076,0-.015.015-.031.061-.031a.151.151,0,0,0,.092.031v.046A.258.258,0,0,0-65.071-15.794Zm-.657.076q-.229-.046-.229-.092c.015-.031.031-.061.046-.061a.387.387,0,0,1,.214.107Zm.428-.092-.046-.061.107.031v.015Zm1.544,0a.317.317,0,0,0,.092-.031c0-.031,0-.046-.031-.046l-.107.015Zm-1.116.336c-.046,0-.076-.046-.076-.122a.22.22,0,0,1,.168-.214A2.346,2.346,0,0,0-64.872-15.473Zm2.889-.2q.046,0,.046-.138H-62l-.015.092C-62.014-15.687-62-15.672-61.983-15.672Zm-3.5.229c-.015-.031-.031-.061-.046-.061l.076-.092c.015,0,.031.031.076.092v.031A.389.389,0,0,0-65.483-15.442Zm1.284.214h-.015c-.061-.031-.076-.061-.076-.092l.015-.046C-64.261-15.366-64.23-15.32-64.2-15.229Zm1.391-.061.092-.015c0-.031-.015-.046-.046-.061-.046,0-.061.015-.061.046Zm-3.5.4c-.046,0-.061-.046-.061-.138.046,0,.061.015.061.031Zm.153-.031h-.015l.015-.107h.046C-66.11-14.953-66.125-14.923-66.156-14.923Zm.932.031-.138-.061c0-.031.061-.061.153-.076a.472.472,0,0,1,.122.031C-65.086-14.969-65.132-14.938-65.223-14.892Zm-.764-.061A.041.041,0,0,1-66.033-15h.092A.041.041,0,0,1-65.988-14.953Zm.214.015c-.031,0-.046-.015-.046-.061C-65.789-14.969-65.774-14.953-65.774-14.938Zm-7.886.474h-.046a.2.2,0,0,1-.092-.183.178.178,0,0,1,.2-.168A.849.849,0,0,1-73.66-14.464Zm.4-.168h-.015l-.107-.076.015-.092.107.015Zm-.183.275c-.031,0-.046-.031-.061-.076a.138.138,0,0,1,.076-.015Zm.5,3.072a.275.275,0,0,1-.168-.229,2.034,2.034,0,0,0-.076-.611,4.029,4.029,0,0,1,.122-.718L-73.079-13c0-.092.107-.229.306-.413h.015a.117.117,0,0,0,.031.076c-.046.382-.122.81-.214,1.284l.046.55A.767.767,0,0,1-72.942-11.285Zm25.489-13.694h-.092A5.94,5.94,0,0,0-50.967-23.5a20.972,20.972,0,0,0-2.017,1.865,10.876,10.876,0,0,0-1.177,1.651c-.138.229-.4.81-.795,1.712a6.208,6.208,0,0,0-.275,1.391,2.947,2.947,0,0,0,.978,2.109,4.629,4.629,0,0,0,3.118,1.223h.26a8.5,8.5,0,0,0,1.131-.107,6.782,6.782,0,0,0,2.95-1.5,4.008,4.008,0,0,1,.779-.672,3.458,3.458,0,0,0,.718-.688.015.015,0,0,1-.015-.015c-.122.061-.367.229-.749.489a9.406,9.406,0,0,1-1.33.948,1.586,1.586,0,0,1-.734.4.871.871,0,0,1,.245-.214,3.6,3.6,0,0,0,.764-.489,3.4,3.4,0,0,0,.611-.382c.29-.153.443-.26.443-.321.306-.275.581-.52.841-.718.138-.153.229-.245.26-.245h.015l-.306.474a.318.318,0,0,0,.2-.107,6.635,6.635,0,0,0,.932-.978,3.238,3.238,0,0,0,.657-1.009,1.26,1.26,0,0,0,.214-.413v-.046a.217.217,0,0,0-.031-.092v-.046A1.765,1.765,0,0,0-43.02-20a.194.194,0,0,0-.015-.092c-.107,0-.245.168-.443.52-.153.26-.458.688-.886,1.284v.031l.031.046v.015a1.2,1.2,0,0,1-.336.382v.092h.092c.046,0,.061-.061.061-.168.046.031.061.046.061.061v.046c0,.076-.076.168-.26.275a.91.91,0,0,0-.138-.275h-.015a1.28,1.28,0,0,0-.428.443c.015,0,.015,0,.015.015h.015c.245-.229.382-.352.428-.352a1.219,1.219,0,0,0,.061.245.5.5,0,0,0-.229.352h-.2c0-.031-.031-.061-.092-.061h-.015l-.138.092c-.092,0-.122.046-.138.138,0,.031-.031.076-.122.138v.031c.046.046.061.076.061.092a2.71,2.71,0,0,1-.26.153.183.183,0,0,0-.122-.061h-.015a1.355,1.355,0,0,0,.015.2l-.245.046v.107a3.233,3.233,0,0,0-.474.367,3.6,3.6,0,0,0-.81.4l.015-.076h-.122a2.025,2.025,0,0,1-.367.138v.092h-.092a1.679,1.679,0,0,1-.428.2,1,1,0,0,0-.627.275h-.046a2.435,2.435,0,0,0-.779.229,2.3,2.3,0,0,1-.978.245,3.019,3.019,0,0,1-1.024-.183,2.056,2.056,0,0,1-1.33-2.094v-.046a4.635,4.635,0,0,1,.611-2.14h.015c0,.245.061.4.2.474a.6.6,0,0,0,.245.321,3.161,3.161,0,0,0,1.1.306c.871,0,2.094-.642,3.668-1.91,1.6-1.421,2.4-2.629,2.4-3.592a1.3,1.3,0,0,0-.5-.993,3.292,3.292,0,0,1-.627-.428C-46.336-24.857-46.749-24.979-47.452-24.979Zm-4.478,4.906a10.534,10.534,0,0,1,1.33-1.482,13.009,13.009,0,0,1,2.033-1.528,6.227,6.227,0,0,1,1.956-.779h.168q.275,0,.275.229c0,.245-.245.611-.718,1.055-.932.932-1.865,1.8-2.782,2.613a11.158,11.158,0,0,1-1.345.993.739.739,0,0,1-.52.2h-.015a.608.608,0,0,1-.489-.214c-.138-.29-.214-.443-.214-.443a1.6,1.6,0,0,1,.336-.6A.056.056,0,0,0-51.93-20.073Zm5.96-3.729h.061c.031.183.046.306.046.336a1.522,1.522,0,0,1-.458.9,12.373,12.373,0,0,1-1.91,1.712h-.031a.965.965,0,0,1,.229-.183,6.789,6.789,0,0,0,1.375-1.345q.734-.8.734-1.055a2,2,0,0,0-.046-.352Zm-5.792,2.43c0-.061.031-.092.076-.092v.061A.258.258,0,0,0-51.762-21.372Zm-2.155,2.95a1,1,0,0,1,.183-.4,7.9,7.9,0,0,1,1.146-1.7,2.456,2.456,0,0,1,.657-.7h.031a.584.584,0,0,1-.138.229c-.917,1.177-1.437,1.865-1.544,2.048q-.206.55-.321.55h-.015Zm1.5-.352a.258.258,0,0,1,.076.031c.183.168.306.245.367.245h.061a.387.387,0,0,0,.214-.107h.076v.015a2.646,2.646,0,0,1-.458.229l-.076-.015-.061.031a.681.681,0,0,1-.2-.352Zm-1.055.046h.046l.015.076v.015h-.015q-.046-.023-.046-.046Zm-.871.168h.015v.061h-.015Zm.245.474c0-.076.061-.153.214-.245a.77.77,0,0,1-.168.352h-.031l-.015-.076Zm.413-.2a.227.227,0,0,1,.107.015v.031c-.031.046-.061.076-.076.076,0-.046-.015-.061-.046-.061C-53.7-18.255-53.688-18.27-53.688-18.285Zm-.107.183h.122a1.363,1.363,0,0,1-.138.458c-.061.031-.092.168-.092.443a8.754,8.754,0,0,0-.168.932v.107c.122.627.245.932.336.932q.046-.023.046-.046v-.015a.7.7,0,0,1-.122-.336v-.138l.031.015a3.7,3.7,0,0,1,.611,1.116v.061a.056.056,0,0,0-.046.015c-.245,0-.52-.26-.856-.764a3.762,3.762,0,0,1-.214-1.162,3.745,3.745,0,0,1,.306-1.269A1.46,1.46,0,0,0-53.795-18.1Zm-.963.6a1.27,1.27,0,0,1,.122-.382c.031-.122.076-.2.138-.2l.015.076v.046a1.054,1.054,0,0,1-.2.565C-54.7-17.4-54.727-17.445-54.757-17.506Zm.489-.183c0-.015.031-.046.107-.076l.015.076c0,.046-.031.076-.061.122-.015,0-.031-.031-.061-.076Zm-.015.183h.015c.046.015.061.046.061.107v.031l-.015.031c-.015,0-.046-.031-.092-.061Zm9.476.321c.2-.214.306-.321.336-.321v.076a.789.789,0,0,0-.275.275Zm-10.011.015a.115.115,0,0,1,.076-.107c.061,0,.107.061.107.2a.471.471,0,0,1-.031.168q.023.573.046.779c0,.107.031.153.092.153a1.353,1.353,0,0,0,.168.4c-.26,0-.428-.382-.474-1.146,0-.122.015-.26.015-.413Zm9.323.245h.107c0,.031,0,.046.015.061h-.107A.092.092,0,0,0-45.5-16.925Zm-2.292,1.589a.191.191,0,0,1,.138-.076h.031c0,.015-.061.031-.153.076Zm-.932.52a.118.118,0,0,0,.046-.015h.015v.015a.056.056,0,0,0-.046.015h-.015Zm-2.552.672.076.046-.015.031-.092-.015V-14.1Zm.26.076c.076-.015.122-.031.138-.031h.015c.153.015.229.046.229.076,0,0-.046.015-.107.031a.694.694,0,0,1-.275-.061Zm.245.245a2.813,2.813,0,0,0,.627-.076l.138.092c0,.031-.046.046-.153.061a2.945,2.945,0,0,0-.382-.046h-.229ZM-38.316-13a6.606,6.606,0,0,0,2.415-.581,6.5,6.5,0,0,0,1.421-.81v-.031l-.336.076v-.015c.092-.138.29-.2.581-.2.138,0,.413-.245.841-.749.336-.214.55-.367.657-.443a1.582,1.582,0,0,1,.52-.535,8.1,8.1,0,0,1,.672-.611,3.356,3.356,0,0,0,.672-.841,2.416,2.416,0,0,0,.718-1.3c0-.092-.046-.122-.138-.122a.557.557,0,0,0-.29.458H-30.6l-.061-.061-.031.015a2.793,2.793,0,0,1-.352.672,1.064,1.064,0,0,1-.29-.061l-.015.015.015.046a.423.423,0,0,1-.138-.015,3.274,3.274,0,0,0-.26.26v.153l-.107-.015c-.183.076-.275.168-.275.29l.229.015c.092-.122.153-.183.229-.183.015,0,.031.031.031.107l-.015.076a1.274,1.274,0,0,0-.352.306l.015.031a3.706,3.706,0,0,1-.428.306c-.428.4-.7.6-.841.6v-.015l.046-.061a15.315,15.315,0,0,0,1.116-1.055.126.126,0,0,0-.122.076.36.36,0,0,1-.122-.031l-.046.031c0,.076-.031.122-.107.122a1.88,1.88,0,0,1-.413.382l-.046-.015a1.556,1.556,0,0,1-.4.306c-2.17,1.33-3.836,2-4.967,2-.779,0-1.162-.367-1.162-1.085,0-1.024.627-2.4,1.849-4.157a15.475,15.475,0,0,1,1.926-2.369,3.856,3.856,0,0,1,2.124-1.33c.107,0,.168.092.168.245a6.246,6.246,0,0,1-1.024,1.819c0-.015-.015-.061-.031-.168a1.248,1.248,0,0,0,.076-.26l-.015-.015a.612.612,0,0,0-.214.321c-.107.4-.214.81-.352,1.238a.309.309,0,0,0-.138.275c0,.336.107.5.29.5h.107c.2,0,.489-.26.871-.795a6.79,6.79,0,0,0,1.33-3.087v-.183a.851.851,0,0,0-.413-.7,2.686,2.686,0,0,0-1.284-.336q-1.88,0-4.906,3.347c-1.9,2.323-2.843,4.172-2.843,5.533a2.49,2.49,0,0,0,.565,1.574,2.4,2.4,0,0,0,1.284.9h.031v-.092A6.017,6.017,0,0,0-38.316-13Zm5.441-9.98h-.015v-.076h.015Zm-5.792,2.95-.046-.031c.107-.122.168-.168.183-.168.046.015.061.031.061.046s-.031.031-.107.076C-38.606-20.058-38.637-20.027-38.667-20.027Zm-1.62,2.537a1.605,1.605,0,0,0-.2-.031.422.422,0,0,1,.153-.29c.168-.382.29-.565.336-.565a11.125,11.125,0,0,0,.871-1.223c.153-.122.229-.214.229-.306h.015a.9.9,0,0,1-.443.871c-.076.214-.153.352-.229.382a6.349,6.349,0,0,1-.6.871.174.174,0,0,0,.046.122h-.046a.2.2,0,0,0-.107-.046c-.031,0-.046.031-.061.107Zm9.078-.4c-.015,0-.046-.031-.061-.076q0-.023.092-.046c.015,0,.015.015.031.046C-31.148-17.949-31.163-17.934-31.209-17.888Zm-.306.26a.245.245,0,0,1,.153-.2A.194.194,0,0,1-31.515-17.628Zm.245.183h-.107c.092-.2.183-.29.26-.29l.015.092A.2.2,0,0,0-31.27-17.445ZM-41.4-16.329h-.031v-.122l.061-.321-.015-.214a.371.371,0,0,1,.153-.2,1.672,1.672,0,0,1,.275-.443c.015,0,.031.015.031.046C-41.143-16.742-41.3-16.329-41.4-16.329Zm.9-.352h-.061c0-.031.061-.076.153-.183.031,0,.031.015.031.046C-40.379-16.726-40.41-16.68-40.5-16.68Zm7.947.306a.033.033,0,0,0-.031-.031l.031-.046.061.015C-32.493-16.421-32.523-16.39-32.554-16.375Zm-8.436,1.559a.753.753,0,0,1-.076-.275l.015-.2a2.853,2.853,0,0,1,.382-1.116h.015l.015.107a8.6,8.6,0,0,1-.229.856C-40.868-15.03-40.914-14.816-40.99-14.816Zm7.565-1.406h-.031c0-.076.046-.107.122-.107C-33.333-16.252-33.364-16.222-33.425-16.222Zm-8.115.336a.266.266,0,0,0-.046-.107l.061-.107-.015-.092a.217.217,0,0,0,.031-.092l.122.046v.046c-.015.046-.031.061-.046.061C-41.449-15.962-41.479-15.886-41.541-15.886Zm8.1-.046h-.046c0-.046.031-.076.092-.076C-33.41-15.962-33.425-15.932-33.44-15.932Zm-.321.29c-.015,0-.031-.015-.031-.046l.031-.046.046.031Zm-7.626.092c-.015,0-.046-.031-.061-.061.015-.061.031-.076.046-.076l.092.061C-41.342-15.58-41.372-15.549-41.388-15.549Zm-.183.367c-.046-.015-.061-.046-.061-.061a.1.1,0,0,1,.076-.061v.092Zm7.412.5h-.031c0-.076.046-.107.168-.107v.015A.147.147,0,0,1-34.159-14.678Zm-6.8.26a.226.226,0,0,1-.138-.2c0-.015.031-.046.107-.107a.236.236,0,0,1,.107.183C-40.9-14.464-40.929-14.418-40.96-14.418Zm16.35-10.438a1.291,1.291,0,0,0-.886.443,4.716,4.716,0,0,0-.841,1.544c-.642,1.834-1.085,3.026-1.314,3.576a5.906,5.906,0,0,0-.581,1.513A42.059,42.059,0,0,0-29.5-12.737v.046a1.03,1.03,0,0,1,.2.229.644.644,0,0,0,.413.321.726.726,0,0,0,.367.153c.092,0,.153-.015.153-.031.183,0,.352-.214.52-.657.917-1.528,1.635-2.675,2.14-3.408a13.008,13.008,0,0,0,1.024-1.9,7.2,7.2,0,0,1,1.314-2.186c.764-1.177,1.375-1.758,1.865-1.758h.107a.694.694,0,0,1,.275.061,7.712,7.712,0,0,1,1.009.825.989.989,0,0,0-.046-.153v-.092h.015a.825.825,0,0,1,.26.29,1.985,1.985,0,0,1,.474.4h.015l.046-.031h.031a.388.388,0,0,0,.245.245c.031,0,.046-.015.046-.031V-20.5q.229.069.229.138v.031q-.138.023-.138.046v.015q.206.229.321.229l.107-.015c.122.031.183.061.214.061l.076-.015v-.046l-.046-.061v-.015h.138c.015.076.031.122.061.122s.031-.015.031-.031v-.015l-.015-.076h.076a2.045,2.045,0,0,0,1.6-1.116v-.015h-.015a1.412,1.412,0,0,0-.52.52q-.16,0-.458.321a5.678,5.678,0,0,1-.963.168h-.015l-.031.015c0-.015-.031-.015-.092-.015-.076-.122-.122-.183-.153-.183a.217.217,0,0,1-.092.031c0-.015-.015-.046-.061-.092a.625.625,0,0,1-.29-.214l-.352-.26a.236.236,0,0,1-.153-.245.186.186,0,0,1,.153.092c.183.092.275.153.29.2a1.122,1.122,0,0,1,.214.153l.336.122a.185.185,0,0,1,.138-.092.818.818,0,0,1,.138.107h.031q.046-.023.046-.046l.107.122h.031a.685.685,0,0,0,.168-.015c.046,0,.076-.061.107-.214a.555.555,0,0,0,.168.046h.046c.214,0,.52-.214.886-.657a1.835,1.835,0,0,1,.779-.55c0-.2-.061-.306-.183-.306l-.092.015a.406.406,0,0,1-.2-.153l-.061.061.031.2c-.046.046-.061.076-.061.092a.745.745,0,0,0,.061.168v.046h-.015c-.031,0-.046-.061-.076-.153-.015,0-.031.015-.046.061l.015.092c-.581.581-.978.871-1.177.871a.343.343,0,0,1-.229-.122h-.015a.342.342,0,0,0-.153.046h-.015c-.061-.122-.122-.183-.168-.183l-.245.031a2.167,2.167,0,0,1-1.421-.886c-.7-.886-1.345-1.345-1.91-1.345-.52,0-1.055.367-1.651,1.085a.661.661,0,0,1-.214.306v.061c0,.015,0,.031.031.031h.031a.033.033,0,0,0,.031-.031.778.778,0,0,0,.168.061v.015c-.061,0-.138.122-.214.367v.015q.023.046.046.046h.015a.242.242,0,0,0,.183-.076v.015c0,.092-.138.229-.4.4q-.023,0-.092-.138c-.092,0-.168.107-.229.306-.092.046-.138.153-.138.336l.107-.015v.031a.423.423,0,0,1-.168.367H-24.4q-.206-.183-.275-.183H-24.7a.116.116,0,0,0-.122.092c0,.015,0,.031.031.031h.046c0-.031.015-.046.061-.061a1.439,1.439,0,0,1,.061.153.161.161,0,0,0-.168.122.1.1,0,0,0,.076.061v.015a1.121,1.121,0,0,0-.26.4c0,.107-.092.168-.29.229a.489.489,0,0,0,.122.26v.015c-.214.031-.306.061-.306.107v.122a.288.288,0,0,1-.031.122.143.143,0,0,0-.092.122v.046l.015.031.076-.015a3.12,3.12,0,0,1,.26-.367v.092a.584.584,0,0,1-.183.321,2.624,2.624,0,0,1-.458,1.055c-.168.321-.29.489-.352.489L-26.245-17l-.153.306a17.215,17.215,0,0,1-1.421,2.644h-.015v-.015a.743.743,0,0,1,.092-.26A19,19,0,0,0-26.6-16.833a8.239,8.239,0,0,0,.413-.856A.519.519,0,0,0-26-17.873a2.178,2.178,0,0,1,.168-.535l-.031-.015h-.015q-.023,0-.183.183c-.229.5-.4.764-.52.764h-.031v-.015c.214-.779.382-1.36.52-1.712,0-.122.565-1.421,1.666-3.9a2.985,2.985,0,0,0,.26-1.207v-.076C-24.2-24.7-24.35-24.857-24.61-24.857Zm1.192,3.209c.031-.031.046-.061.076-.061a.569.569,0,0,1,.275-.29c.061-.168.138-.245.229-.245l.092.015v.031c-.031,0-.046.015-.076.046l.015.153a.41.41,0,0,1-.229.352,1.955,1.955,0,0,1-.26.4,1.842,1.842,0,0,1-.458.657l-.122-.107.046-.122q.275-.275.367-.275c0-.107.107-.26.29-.458v-.031l-.107.015h-.107l-.031.015Zm-1.987-.183h.031c0,.015-.015.031-.015.061H-25.4Zm.031.4c0-.061.046-.107.122-.183h.015v.046a.289.289,0,0,1-.107.214c-.015,0-.015-.015-.031-.031Zm-.321.245c.015-.046.031-.076.076-.092v.092ZM-26-20.2a2.791,2.791,0,0,0,.306-.611.546.546,0,0,1,.26-.367c-.168.306-.382.795-.657,1.437a8.187,8.187,0,0,0-.6,1.635c0,.153-.107.26-.321.306a.158.158,0,0,1,.015-.061c.122-.4.245-.764.382-1.1v-.015c-.031,0-.076-.031-.107-.122,0-.076.061-.183.2-.352a6.672,6.672,0,0,1,.4-.856.056.056,0,0,0-.015-.046c.138-.321.245-.489.336-.5h.015a3.152,3.152,0,0,0-.245.657Zm.275-.886q.046,0,.046.092h-.015c-.015,0-.031-.031-.046-.061Zm1.544.336a.177.177,0,0,1,.122-.138.261.261,0,0,1,.092-.138h.031v.092q-.115,0-.138.183v.061c-.015,0-.046.015-.061.015s-.031-.015-.046-.015Zm4.677-.183h.015v.031h-.015Zm-6.877.031.061.015v.015h-.031C-26.383-20.868-26.383-20.883-26.383-20.9Zm.076.29h.015l.015.046-.031.015Zm1.926.061c-.015,0-.015.015-.031.031l.015.076h.015c.031,0,.031-.015.031-.031v-.046C-24.35-20.532-24.35-20.547-24.38-20.547Zm.29.367a.154.154,0,0,1,.138-.168l.031.015c-.031.107-.061.153-.092.153Zm-2.415.138c.046-.138.076-.214.122-.214v.015C-26.428-20.119-26.474-20.043-26.5-20.043Zm1.91-.046c0-.031.031-.046.076-.046h.015a.311.311,0,0,1-.031.168c-.031-.031-.061-.046-.061-.061Zm.382.107c0-.092.031-.138.076-.138h.031l-.076.153Zm-2.369.076a.033.033,0,0,1,.031.031,4.948,4.948,0,0,1-.336.81h-.031V-19.1c.031-.153.046-.214.076-.214A4.85,4.85,0,0,1-26.581-19.905Zm1.788.52c.015-.046.046-.061.061-.061a.056.056,0,0,0,.015.046v.015Zm-.031.336c0-.031,0-.031.031-.031h.046c-.031.031-.046.046-.046.076h-.031Zm-.825.229a.033.033,0,0,0-.031.031v.015c0,.031,0,.031.031.031h.046v-.046c0-.015-.015-.015-.031-.031Zm-.107.107q-.046.023-.046.046v.076a.033.033,0,0,0,.031.031q.046-.023.046-.046v-.107Zm.5.611q.046-.321.092-.321h.092v.046a1.356,1.356,0,0,1-.168.29h-.015Zm-.061.076h.015c.015,0,.031.015.046.031-.015.061-.076.107-.153.168A.809.809,0,0,1-25.313-18.025Zm-.627.26-.046.031a.152.152,0,0,0,.015.061h.015a.033.033,0,0,0,.031-.031v-.031Zm.474.015c.015,0,.031.015.031.061l-.015.015h-.031Zm-.245.458c0-.107.031-.153.122-.153v.061c-.046.061-.061.092-.076.092Zm-1.727.015h.015v.061h-.015Zm-.076.229h.031v.015a6.157,6.157,0,0,1-.306,1.207c-.092.474-.2.718-.29.718,0,0,0-.015-.031-.015l.015-.031v-.229l.015-.015-.015-.015-.061.015v-.046h.046c.092,0,.138-.092.138-.245v-.046a.688.688,0,0,0-.122.031c0-.031,0-.046-.015-.061.015,0,.031-.031.031-.107.061.046.092.092.092.122h.015c.031,0,.046-.046.061-.138a1.217,1.217,0,0,0,.2-.535A6.049,6.049,0,0,0-27.514-17.047Zm-1.039,1.482c.031-.061.061-.076.076-.076l.015.076v.031q0,.023-.092.046Zm-.153.642a.3.3,0,0,1,.092-.214.472.472,0,0,0,.031.122c-.061.076-.092.107-.107.107h-.015Zm.413.061c0-.015,0-.031.031-.031.015,0,.031.015.046.061l-.076-.015Zm-.428,0h.015a.056.056,0,0,0,.015.046.056.056,0,0,0-.015.046l-.031-.015ZM-5.8-24.689l-.046.015c-.26.138-.382.275-.382.367a3,3,0,0,0-.245.321c-.031.245-.046.367-.076.367a2.633,2.633,0,0,1-.245.718v.061l.015.031c-.015,0-.031.046-.046.168-.107.061-.153.122-.153.138a.227.227,0,0,0,.031.138l-.122.168v.061l.015.031c.061-.015.107-.031.107-.076h.015v.046a2.28,2.28,0,0,1-.382.779c-.046.168-.092.245-.138.245a2.456,2.456,0,0,1-.29.474c-.076.245-.138.352-.168.367a1.489,1.489,0,0,0-.153.229.586.586,0,0,1-.122.26,3.663,3.663,0,0,1-.4.6,1.378,1.378,0,0,1-.306.474,1.839,1.839,0,0,1-.336.535c-.122.2-.229.306-.275.306a.247.247,0,0,1,.061-.153V-18.1a.288.288,0,0,1-.138.061.939.939,0,0,0-.2.275.236.236,0,0,0,.046.092.44.44,0,0,0,.2-.138h.015v.031a1.513,1.513,0,0,1-.2.29h-.031V-17.6a.033.033,0,0,0-.031-.031h-.015l-.046.031v-.031h-.015c-.107.153-.214.29-.321.428a7.057,7.057,0,0,1-1.345,1.559c-.672.779-1.162,1.162-1.5,1.162h-.015a.26.26,0,0,1-.107-.015c-.229-.107-.336-.428-.336-.978v-.138a14.177,14.177,0,0,1,.26-2.247,17.633,17.633,0,0,1,.718-2.552,22.927,22.927,0,0,1,.978-2.583,3.3,3.3,0,0,0,.336-.963v-.015a.564.564,0,0,0-.031-.2.844.844,0,0,0-.749-.5,1.688,1.688,0,0,0-.932.26c-.061,0-.2.26-.4.779l-.5,1.192c-.122.489-.229.948-.352,1.36a17.526,17.526,0,0,0-1.162,5.013v.138c0,.122,0,.183.015.183a2.6,2.6,0,0,0,.825,1.6,2.659,2.659,0,0,0,1.742.749h.046a1.339,1.339,0,0,0,.734-.321,1.878,1.878,0,0,0,.672-.428A11.315,11.315,0,0,0-9.8-15.779v-.031a3.313,3.313,0,0,0-.443.443,2.961,2.961,0,0,0-.489.458c0,.107-.168.168-.489.183v-.015a3.124,3.124,0,0,0,.489-.382,11.18,11.18,0,0,0,1.223-1.284,25.114,25.114,0,0,0,1.758-2.568h.015v.015a2.508,2.508,0,0,0-.153.993A2.638,2.638,0,0,0-7.648-16.8,2.153,2.153,0,0,0-5.539-15.58h.015A4.391,4.391,0,0,0-3.2-16.3c.229-.2.336-.321.336-.367a2.785,2.785,0,0,0,.7-.764c0-.015,0-.031-.031-.031a.688.688,0,0,0-.138-.26c.015-.076.031-.107.031-.122a.033.033,0,0,0-.031-.031.275.275,0,0,0-.138.061,1.365,1.365,0,0,1-.382.4l-.031-.015.015-.061c.153-.122.229-.229.229-.306v-.031h-.031a.285.285,0,0,0-.153.076,5,5,0,0,1-.825.672c-.031.061-.092.076-.2.076q0,.069-.275.183c-.275.031-.413.076-.413.107l.046.076c0,.015-.061.061-.2.138A2.3,2.3,0,0,1-5.4-16.6,1.153,1.153,0,0,1-6.151-17.8v-.168a2.486,2.486,0,0,1,.183-.886.423.423,0,0,1-.015-.122,9.262,9.262,0,0,0,.275-1.1c.367-1.131.55-1.712.55-1.727a5.447,5.447,0,0,0,.321-1.162v-.015l-.076-.627v-.153a.474.474,0,0,1,.076-.168c0-.015,0-.031-.031-.061l-.046.031h-.031c-.153-.214-.26-.336-.321-.336-.061.061-.092.092-.107.092s-.031-.031-.061-.107l.031-.046c-.046-.153-.076-.229-.122-.229h-.015c-.092.015-.153.031-.168.031h-.015A.3.3,0,0,0-5.8-24.689Zm.413.81c0-.015.031-.046.107-.076l.031.015c0,.015-.046.046-.122.061Zm-.168,1.269h.061c.015,0,.031,0,.031.015v.061l-.015.092a.494.494,0,0,1-.153.336v.076l.076.076-.138.092c0,.015.015.031.015.061-.031.107-.061.153-.092.153a2,2,0,0,1-.138.428,2.829,2.829,0,0,0-.168.581v.031l.015.031a.118.118,0,0,0,.046-.015H-6v.076a1.334,1.334,0,0,1-.076.2c-.031,0-.031-.031-.031-.076h-.046a1.168,1.168,0,0,1-.076.245.7.7,0,0,1-.076.229v.031c0,.031.015.031.031.031l.046-.031c.015-.168.046-.245.107-.245a.118.118,0,0,0,.015.046c-.015.046-.031.076-.046.076-.031.168-.153.657-.382,1.452l-.061-.061a.754.754,0,0,0,.046-.229l-.031-.046h-.015a4.813,4.813,0,0,0-.168.718c0,.015,0,.031.031.031s.076-.107.107-.29v-.046h.031v.122a.694.694,0,0,1-.061.275.117.117,0,0,1-.076-.031h-.015l-.061.031a.874.874,0,0,1-.153.52c.031.214.061.352.061.382a.668.668,0,0,1-.107.321l-.031-.015a.822.822,0,0,0-.138-.4.1.1,0,0,0-.076.031A2.08,2.08,0,0,0-7.236-17c-.092,0-.138-.092-.138-.26a1.051,1.051,0,0,0,.046-.382.8.8,0,0,0-.046-.076.66.66,0,0,0,.061-.214c0-.061-.015-.107-.046-.107a2.293,2.293,0,0,0-.138.7l.015.076-.031.092h-.015c0-.015,0-.031-.031-.061a1.248,1.248,0,0,0,.015-.214.943.943,0,0,0-.031-.275,1.332,1.332,0,0,0,.031-.306.363.363,0,0,0-.046-.229v-.015A.283.283,0,0,0-7.48-18.3a.859.859,0,0,1,.107-.352l-.046-.061-.031.015c-.015.107-.031.168-.061.168h-.061a.43.43,0,0,0-.015-.122.41.41,0,0,1,.122-.245h.015c0,.031.015.046.031.046a.275.275,0,0,0,.107-.229,3.94,3.94,0,0,0,.153-.5,2.436,2.436,0,0,0,.183-.474l.2-.26v.015l-.076.4v.015c0,.031,0,.031.031.031h.015l.031-.015-.015-.061c0-.031,0-.031.031-.031h.015l.076.015q.138-.046.138-.138a.994.994,0,0,0,.138-.4,1.193,1.193,0,0,0,.138-.321l-.015-.015a1.915,1.915,0,0,0,.138-.413,1.277,1.277,0,0,0,.153-.474c0-.046.061-.107.183-.214v-.015c0-.031,0-.046-.015-.061Zm-.642.168.031.015c-.031.153-.061.229-.076.229a.772.772,0,0,1-.076.29.119.119,0,0,1-.061-.061c.031,0,.061-.092.092-.26A.576.576,0,0,0-6.2-22.442Zm-6.465.413a.033.033,0,0,1,.031.031h-.031Zm5.441.092q-.046.023-.046.046v.015q.023.046.046.046h.031q.046-.023.046-.046C-7.144-21.907-7.175-21.923-7.22-21.938Zm.413,1.36.122-.458c.092-.076.122-.229.122-.474.076-.229.138-.352.183-.352v.046l-.031.107v.107a.3.3,0,0,1-.015.122c-.092.229-.153.413-.214.581-.015.138-.046.2-.076.2v.076c0,.107-.031.153-.046.153h-.031l-.015-.076Zm-.657-.963a.186.186,0,0,1-.092.153v.015c.031.046.046.061.061.061a.253.253,0,0,0,.076-.2v-.031Zm-5.426.031.031.015c-.031.107-.076.168-.107.168A.253.253,0,0,1-12.89-21.51Zm5.319.29H-7.6c-.031.092-.076.2-.122.306,0,.015.015.031.015.046h.046l.015-.092c.076-.076.122-.138.122-.183v-.031Q-7.549-21.22-7.572-21.22Zm1.742.061h.015v.031H-5.83ZM-11.423-14.8v-.015c.122-.138.26-.29.4-.474a3.993,3.993,0,0,1,.474-.672,1.268,1.268,0,0,1,.245-.336,2.959,2.959,0,0,1,.459-.581,1.025,1.025,0,0,1,.4-.627,8.189,8.189,0,0,1,.657-.993c.168-.321.26-.489.26-.489a4.051,4.051,0,0,1,.321-.52c.138-.29.229-.443.275-.443.122-.26.245-.458.321-.6a2.746,2.746,0,0,1,.4-.6A10.8,10.8,0,0,1-7.45-20a6.12,6.12,0,0,0-.657,1.024,8.433,8.433,0,0,1-1.177,1.987A10.383,10.383,0,0,1-11.408-14.8Zm-1.666-6.312h.015a.492.492,0,0,0,.015.122c-.107.352-.168.535-.2.535-.031.183-.061.275-.076.275v-.031h-.046v.061a.056.056,0,0,1,.046.015.269.269,0,0,0-.015.092,1.694,1.694,0,0,0-.138.352,2.955,2.955,0,0,0-.214.7,2.393,2.393,0,0,0-.229.795,2.15,2.15,0,0,0-.168.718,2.612,2.612,0,0,0-.122.657h-.031a.56.56,0,0,1,.031-.245c-.015-.015-.015-.031-.015-.061v-.245l.046-.153v-.107a.423.423,0,0,1,.015-.138,1.517,1.517,0,0,0,.122-.413l.107-.5a.47.47,0,0,1,.153-.306v-.046a1.684,1.684,0,0,1,.031-.275.9.9,0,0,0,.153-.382v-.092a.245.245,0,0,0,.076-.168c.092-.321.168-.489.214-.489A1.4,1.4,0,0,1-13.089-21.113Zm5.242.428c-.046.031-.061.046-.061.061v.015q.023.046.046.046h.031c.015,0,.031,0,.031-.031v-.061c0-.015-.015-.015-.031-.031Zm1.207.779h-.076c-.061.183-.092.26-.107.26,0-.076-.015-.122-.031-.122h-.031c-.031,0-.046.046-.061.122a.056.056,0,0,0,.046.015c.015,0,.046.046.107.153-.046.138-.076.214-.107.214h-.015l-.061-.046c.031-.122.061-.2.061-.229v-.046h-.031a1,1,0,0,0-.122.367l.031.046.031-.015h.076q.046.023.046.046v.015A.263.263,0,0,0-6.915-19v.031h.046a2.9,2.9,0,0,0,.245-.917Zm-1.8.2c-.015,0-.015.015-.031.031l.015.031.046-.031C-8.412-19.691-8.412-19.707-8.443-19.707Zm2.094.031c-.031,0-.061.061-.076.168.015,0,.015,0,.015.015.046-.015.076-.046.076-.061v-.092Zm5.67.046-.306.321q-.092.275-.183.275V-19c.015.076.046.107.061.107h.015c.031,0,.061-.031.076-.107a4,4,0,0,0,.367-.581C-.649-19.615-.664-19.63-.679-19.63Zm-7.886.122v.046h.031v-.046Zm1.207.168.031.015-.015.076h-.031a.056.056,0,0,0-.015-.046Zm-1.284,0-.046.031a.731.731,0,0,1-.153.26v.061c.046,0,.122-.092.214-.306v-.046Zm1.62.2h-.046a1.148,1.148,0,0,0-.107.306v.107h.015a.5.5,0,0,0,.138-.4Zm.5.076c-.015,0-.031.031-.061.076l.031.015A.189.189,0,0,0-6.5-19v-.061Zm-7.657.138h.015l.015.076-.138.428h-.046v-.015A1.15,1.15,0,0,1-14.174-18.927Zm12.945,0H-1.26a2.444,2.444,0,0,1-.5.565l-.138.076v.076h-.092a.143.143,0,0,0-.122.092.033.033,0,0,0,.031.031h.076c.015.107.031.153.046.153h.076a.661.661,0,0,1,.214-.306.194.194,0,0,1,.2-.153c.061,0,.107-.061.153-.2l.168-.153A.371.371,0,0,0-1.229-18.927Zm-5.716.046a.033.033,0,0,0-.031.031v.031l.031.046v.031c-.092.015-.138.122-.138.306q0,.023-.092.046l-.061-.046h-.015a.136.136,0,0,0-.076.122.033.033,0,0,0,.031.031h.031l.046-.031c.046,0,.122.046.2.168h.015q.046-.023.046-.046v-.061c0-.046-.015-.092-.015-.138,0-.015.015-.046.015-.061a.258.258,0,0,0-.031-.076c.046,0,.076-.107.076-.321C-6.915-18.866-6.93-18.866-6.945-18.881Zm-1.987.015a.328.328,0,0,0-.138.2,1.285,1.285,0,0,0-.275.413l.015.031A2.064,2.064,0,0,0-8.9-18.8v-.031C-8.9-18.851-8.917-18.851-8.932-18.866Zm7.229.046-.031.015.015.031.031-.015Zm-.092.122v.015l.015.031a.033.033,0,0,0,.031-.031V-18.7Zm-5.364.092c-.046.015-.076.031-.076.046a.033.033,0,0,0,.031.031h.061v-.046Zm-7.229.336c0-.061.015-.092.061-.107h.015v.061a.211.211,0,0,1-.076.138Zm7.061.015v.015l.015.031.031-.015a.033.033,0,0,0-.031-.031Zm.581.336a.119.119,0,0,1,.046-.107v.061l-.015.076C-6.747-17.888-6.747-17.888-6.747-17.918Zm4.509-.122c-.015,0-.031.031-.046.061a.056.056,0,0,0,.015.046c.046-.031.061-.061.061-.076s0-.015-.015-.031Zm-4.891.031q-.046.023-.046.046v.107a2.356,2.356,0,0,0-.046.245c0,.015.015.031.031.061a.347.347,0,0,0,.122-.29v-.122q-.023-.046-.046-.046Zm-1.192.031-.031.015a1.034,1.034,0,0,1-.183.29.189.189,0,0,0,.031.046h.015a1.115,1.115,0,0,1,.183-.29v-.031Zm6.236.107c-.015,0-.015.015-.031.031v.015c0,.031.015.031.031.031.031,0,.031,0,.031-.031v-.015C-2.055-17.857-2.055-17.873-2.085-17.873Zm-.52.367c.092-.107.153-.168.2-.168.031.046.061.076.061.092-.015,0-.031.015-.031.061,0,.015.031.031.122.061v.061c0,.015-.061.061-.153.168h-.122c0-.031,0-.046.015-.061.061-.046.107-.076.107-.076v-.092l-.015-.031-.153.046a.033.033,0,0,1-.031-.031Zm-4.539-.015c-.031,0-.061.046-.076.138v.015a.033.033,0,0,0,.031.031h.015c.015,0,.031-.061.046-.168C-7.144-17.506-7.144-17.506-7.144-17.521Zm-7.443.031h.031l.031.107a1.24,1.24,0,0,1-.076.214h-.015v-.015C-14.617-17.246-14.6-17.353-14.587-17.49Zm4.585.352v-.031a.9.9,0,0,1,.214-.29h.015A.512.512,0,0,1-10-17.139Zm6.939-.168h.046c0,.015-.015.031-.015.046h-.031Zm-11.569.214q.046.023.046.046c0,.061-.015.092-.061.107A.471.471,0,0,0-14.633-17.093Zm4.509.015h.061a.365.365,0,0,1-.122.245H-10.2v-.046A.218.218,0,0,0-10.124-17.078Zm1.192.015c-.015,0-.031.031-.061.092,0,.031.015.031.031.031.046-.015.061-.046.061-.061v-.031C-8.9-17.047-8.917-17.047-8.932-17.062Zm-5.731.153h.015l.031.153a.965.965,0,0,1-.061.2h-.015l-.015-.076v-.046A.754.754,0,0,1-14.663-16.91Zm7.443.076a.056.056,0,0,0,.046-.015c0,.031,0,.046.015.061-.015,0-.015.015-.015.046h-.031l-.015-.076Zm-1.865-.015v.031h.031v-.031Zm2.461.031c.031,0,.046.046.046.153a.776.776,0,0,1,.138.382c-.092,0-.153-.153-.183-.489Zm-3.7.107a.1.1,0,0,1,.061-.092h.015v.046c0,.015-.015.031-.076.061Zm6.19.26c.015-.061.138-.122.352-.183a.84.84,0,0,1,.29-.107h.015v.046c-.015,0-.061.015-.122.031a2.187,2.187,0,0,1-.474.245.116.116,0,0,0-.061-.015ZM-7.159-16.7c.046,0,.122.061.229.2v.061q-.023.046-.046.046h-.046q-.046-.023-.138-.275Zm-2.124.138-.046.031A.033.033,0,0,0-9.3-16.5h.015c.031,0,.031-.015.031-.031S-9.253-16.558-9.284-16.558Zm5.853.046h.046v.015H-3.43Zm-.122.061h.031v.015h-.031Zm-5.9.168a.76.76,0,0,0-.245.29c.092,0,.168-.092.26-.29Zm-5.288.076c0-.015.015-.015.031-.031h.015v.031Zm8.345-.015h.031a.116.116,0,0,0,.031.061v.015l-.061-.015Zm-.306.015q.046.023.046.046a.067.067,0,0,1-.046.015h-.015v-.031ZM6.088-27.1c-.229.046-.352.076-.352.107a1.334,1.334,0,0,0-.2-.076c-.107,0-.275.245-.489.749A7.491,7.491,0,0,0,4.7-24.7q.046.55.367.55H5.08q.413,0,.871-.779a5.094,5.094,0,0,0,.627-1.482v-.046C6.577-26.691,6.425-26.89,6.088-27.1ZM4.82-23.329a1.55,1.55,0,0,0-.611.2,2.219,2.219,0,0,0-.7.611,17.371,17.371,0,0,0-1.253,2.292A15.873,15.873,0,0,0,.709-14.984v.245a1.518,1.518,0,0,0,.061.428A1.939,1.939,0,0,0,2.8-13.165a4.723,4.723,0,0,0,2.72-1.146,9.46,9.46,0,0,0,1.559-1.375A4.621,4.621,0,0,0,8.09-16.8v-.015a.116.116,0,0,0-.122.092,5.826,5.826,0,0,0-.734.718,5.192,5.192,0,0,0-.7.672,2.842,2.842,0,0,0-.443.352,1.857,1.857,0,0,1-.565.443,1.132,1.132,0,0,1-.565.29H4.942A.3.3,0,0,1,5-14.373q.413-.321.413-.5H5.4a1.151,1.151,0,0,1-.458.2H4.911c.031-.031.031-.046.031-.061l.6-.474a2.467,2.467,0,0,0,.581-.474c.214-.122.321-.229.321-.352H6.379v-.092h.046a.6.6,0,0,1,.092.031c.229-.076.336-.138.336-.2,0-.031,0-.046-.031-.046H6.761c0,.046-.061.107-.183.168H6.547l-.015-.107a.322.322,0,0,1,.092-.122v-.015H6.562a1.115,1.115,0,0,1-.29.183,5.437,5.437,0,0,0-.688.6c-.076.061-.535.4-1.406.993A4.066,4.066,0,0,0,3.4-14.3a1.5,1.5,0,0,1-.4.061l-.245.122a1.363,1.363,0,0,1-.336-.046c-.046,0-.076-.122-.076-.382a13.228,13.228,0,0,1,1.192-4.738,5.571,5.571,0,0,1,.795-1.33h.015c.031.153.046.229.046.245a1.616,1.616,0,0,0-.107.336.118.118,0,0,0,.015.046.709.709,0,0,0,.183-.168A16.614,16.614,0,0,0,5.064-22a1.783,1.783,0,0,0,.26-.718c0-.413-.153-.611-.458-.611ZM2.13-19.08h.046q0,.092-.046.092Zm.749.122c.031-.046.061-.061.076-.061l-.015.076Zm-.214.015H2.68v.046H2.665Zm6.6.107v.061c0,.031,0,.031.031.031.015,0,.015,0,.015-.031V-18.8c0-.015,0-.015-.015-.031Zm-6.709.581a2.361,2.361,0,0,1,.306-.535h.015l.031.107a1.129,1.129,0,0,1-.031.183.751.751,0,0,1-.168.413C2.68-18.086,2.634-18.148,2.558-18.255Zm-.275-.076c.122-.275.183-.428.229-.443l.046.183c-.031.183-.107.275-.26.275C2.3-18.331,2.3-18.331,2.283-18.331ZM9.038-18.7l-.107.092.015.031a.1.1,0,0,0,.107-.061V-18.7Zm.076.061a.033.033,0,0,0-.031.031v.031c0,.015,0,.031.031.031l.061-.046q-.023-.046-.046-.046Zm-7,.245a.227.227,0,0,1,.092-.2.268.268,0,0,1-.092.229Zm6.77-.046c-.046.031-.076.061-.076.076s.031.031.092.061a.266.266,0,0,1,.107-.046v-.015c0-.015-.031-.046-.092-.076Zm-.5.107a5.91,5.91,0,0,0-.81.825v.015a.056.056,0,0,0,.046-.015c.336-.336.6-.611.764-.81Zm.734.015c-.031,0-.046,0-.046.031v.015l.015.031c.046-.015.076-.031.076-.046V-18.3C9.145-18.3,9.13-18.316,9.114-18.316Zm-.413.092v.046a.142.142,0,0,0,.107.138q.092,0,.092-.046l-.153-.138Zm-6.419.2a.081.081,0,0,1,.092-.092H2.39C2.39-18.056,2.359-18.025,2.283-18.025Zm6.3-.031c-.031.031-.061.076-.107.122l.107.122.107-.031v-.046Zm-6.618.046a.38.38,0,0,1,.076.107.916.916,0,0,1-.138.367q-.046-.023-.046-.046V-17.6a.335.335,0,0,0,.076-.183.165.165,0,0,1-.031-.107A.831.831,0,0,0,1.962-18.01Zm-.015,1.5A3.853,3.853,0,0,0,2.42-17.7c0-.168.076-.26.245-.26,0,.015,0,.015.031.015v.138c-.168.6-.275.993-.321,1.207a.416.416,0,0,1-.168.076l.092.26c-.107.458-.168.718-.183.795H2.1v-.015c0-.443-.015-.764-.015-.993v-.046l-.015-.031a.236.236,0,0,0-.092.046Zm.321-1.33a.092.092,0,0,1,.046-.092l.015.076v.015L2.3-17.8c-.015,0-.031,0-.031-.031Zm5.991.076v.031c0,.015,0,.031.031.031v-.061Zm.245.107c-.061.015-.107.031-.107.061v.061h.015l.107-.092Zm-6.526.474a.158.158,0,0,0,.107-.076c.046-.229.107-.336.153-.336a1.48,1.48,0,0,1-.168.6A.264.264,0,0,0,1.977-17.185Zm6.343-.29v.015l.015.031.061-.015v-.031Zm-6.526.061h.015l.046.229a1.678,1.678,0,0,0-.122.4H1.656C1.748-17.169,1.794-17.383,1.794-17.414Zm6.022.107c-.046.031-.076.061-.076.076s.046.031.107.046c.015,0,.046-.015.107-.061-.015-.046-.046-.061-.107-.061Zm.4,0c-.122.031-.183.076-.183.122a.015.015,0,0,1,.015.015c.107-.031.168-.076.168-.122Zm-.9.107c-.015,0-.031,0-.031.015v.031h.031c0-.015,0-.031.031-.046Zm1.055.046-.2.229v.031h.015a.979.979,0,0,0,.214-.229v-.031Zm-.474.076-.046.031c.015.061.031.076.046.076h.046q.046-.023.046-.046v-.031c0-.015-.015-.015-.031-.031Zm-.841.092a.165.165,0,0,0-.061.076c.061,0,.107-.015.107-.046a.033.033,0,0,0-.031-.031Zm.352.031c-.031,0-.031.015-.031.031v.015l.015.031q.046-.023.046-.046A.033.033,0,0,0,7.4-16.956Zm.413.076c-.107,0-.2.076-.306.214v.015a.422.422,0,0,0,.306-.2Zm-.672.183c-.015,0-.046.031-.061.076v.015h.031A.132.132,0,0,1,7.2-16.65v-.031C7.173-16.68,7.158-16.68,7.143-16.7ZM1.58-16.65H1.6v.076H1.58Zm5.884.046v.046h.015V-16.6Zm-.245.2-.015.031v.076H7.25c.031-.031.061-.046.061-.061v-.031Zm-5.364.061H1.87c.015,0,.031,0,.031.031H1.855Zm-.764.138c0-.046.031-.076.107-.107v.076a1,1,0,0,1-.031.168H1.137Zm6.052-.046c-.046.031-.061.046-.061.061H7.1c.046-.015.061-.046.061-.061Zm-.321.29q-.138.092-.138.138l.015.031c.092-.031.138-.061.138-.076v-.061Zm-.734.611q-.046.023-.046.046v.031c0,.031.015.031.031.031h.015l.031-.015A.6.6,0,0,0,6.088-15.351ZM5.92-15.2a.158.158,0,0,0-.076.107v.015c.092-.015.122-.031.122-.061V-15.2Zm-4.081.856h.015v.061H1.84Zm2.934.153h.092a.112.112,0,0,1-.122.122A.206.206,0,0,0,4.774-14.189Zm13.874-23.75a1.9,1.9,0,0,0-1.33.489,6.285,6.285,0,0,0-1.055,2.323c-.535,1.773-.963,3.087-1.253,3.928-.076.015-.52.076-1.36.183a32.843,32.843,0,0,0-4.707.856,5.883,5.883,0,0,0-1.314.489.441.441,0,0,0-.183.29,1.356,1.356,0,0,0-.168.29v.458l.031.046.107-.015h.031l.031.015c0,.061-.015.153-.031.29.061.122.122.2.214.2.061,0,.2-.107.428-.306q0-.115.917-.321c.076,0,.183.015.29.015.122-.015.2-.031.2-.046a3.823,3.823,0,0,0,.657-.138,1.344,1.344,0,0,0,.275.031.047.047,0,0,0,.031-.015.369.369,0,0,1,.29-.183c.031,0,.138,0,.321.015a1.919,1.919,0,0,0,.321-.138,7.955,7.955,0,0,0,1.177-.2q.688-.046.688-.229c-.031-.015-.076-.046-.107-.061a1.066,1.066,0,0,0-.245.122.1.1,0,0,1-.076-.031,3.117,3.117,0,0,0-.81.138h-.046a1.59,1.59,0,0,1-.229-.031,1.311,1.311,0,0,0-.52.183,1.652,1.652,0,0,0-.734.138,3.247,3.247,0,0,0-.428-.092c-.046.031-.076.046-.076.061a6.872,6.872,0,0,0-.917.26.774.774,0,0,1-.2-.031.067.067,0,0,0-.046.015,1.184,1.184,0,0,0-.367.168,1.351,1.351,0,0,0-.5.107c-.061-.031-.107-.076-.107-.107,0-.046.092-.122.275-.2a.825.825,0,0,0,.245-.122c.015,0,.031.015.046.015a.217.217,0,0,0,.092-.031.331.331,0,0,1,.29-.183c.015,0,.046.031.076.092h.092c.015-.107.031-.153.076-.153H9.05c.015.092.046.138.061.138H9.2a1.129,1.129,0,0,1,.306-.092.423.423,0,0,0,.138.015h.046c.046,0,.061,0,.076-.015a.561.561,0,0,0,.321-.183H10.1a.342.342,0,0,1,.153.046c.29-.031.443-.076.443-.138.046,0,.107.015.183.015a.305.305,0,0,0,.122-.046.158.158,0,0,0,.061.015,1.792,1.792,0,0,1,.458-.076c.015,0,.061-.031.138-.107a.305.305,0,0,0,.122.046c.138,0,.2-.061.2-.183,0-.031-.015-.031-.031-.031h-.015l-.076.061h-.031c-.015,0-.046-.046-.092-.122a.424.424,0,0,0,.183-.076q.275-.023.275-.092h.046a.588.588,0,0,1,.168.138.041.041,0,0,0,.046-.046c0-.031.061-.061.183-.107,0-.015-.031-.046-.107-.076.015,0,.046-.015.122-.031.138.046.214.076.229.076l.26-.076c.076.015.107.046.107.092h.031q.046-.023.046-.046a.4.4,0,0,1,.168.046.414.414,0,0,0,.122-.046V-30.3l-.061-.015v-.031l.107-.015h.214a1.356,1.356,0,0,0,.367-.092h.015a.218.218,0,0,1,.183.092c.092-.015.153-.031.168-.031a.43.43,0,0,1,.122.015q0,.046-.138.092a.573.573,0,0,1-.122-.015l-.076.076h-.046q-.55.023-.55.092v.015c0,.015,0,.031.031.031h.092c.092,0,.321-.046.7-.107h.046a13.6,13.6,0,0,1-.535,1.528c-.535,1.758-1.024,3.316-1.467,4.692-.352,1.375-.642,2.384-.856,3.011a16.224,16.224,0,0,1-.443,1.8,19.324,19.324,0,0,0-.52,3.592v.4a3.05,3.05,0,0,0,.183,1.085A1.51,1.51,0,0,0,12.5-13.043h.2a3.477,3.477,0,0,0,.81-.122,6.812,6.812,0,0,0,2.644-1.5,1.69,1.69,0,0,0,.443-.627l-.015-.031a.118.118,0,0,1-.046.015c-.29.321-.474.474-.565.474h-.015c0-.015.015-.061.031-.122a2.8,2.8,0,0,0,.565-.52c.245-.275.565-.657.963-1.162.153-.229.275-.352.352-.352.031-.122.061-.2.092-.2a1.655,1.655,0,0,0,.413-.55,2.659,2.659,0,0,0,.6-1.024c.138-.367.214-.565.214-.6a.033.033,0,0,0-.031-.031c-.092,0-.183.107-.306.321-.107.168-.443.672-1.009,1.528h-.015a.526.526,0,0,0-.138.015H17.67c.107-.138.153-.214.153-.26-.031,0-.076-.031-.107-.107q.183-.069.183-.092v-.015c-.031,0-.076-.031-.153-.092-.015,0-.076.046-.168.153v.076c0,.015.015.046.076.092v.015c0,.015-.046.031-.107.031a.747.747,0,0,1-.138.229v.015a.112.112,0,0,0,.031.092l-.015.076c0,.015-.168.183-.489.5a5.174,5.174,0,0,1-.489.535,2.957,2.957,0,0,1-1.07.963c-.015,0-.031-.015-.046-.061a.173.173,0,0,0-.153.138,2.762,2.762,0,0,1-1.7,1.039.894.894,0,0,1-.29-.061c-.29-.168-.428-.535-.428-1.1v-.229a9.928,9.928,0,0,1,.183-1.559,1.2,1.2,0,0,1,.2-.825c.657-1.177,1.3-2.522,1.956-4.02.81-1.8,1.223-2.736,1.223-2.8q.39-.917.642-1.651a20.646,20.646,0,0,0,.825-2.186c.153-.336.306-.825.5-1.437,0,0,.015,0,.046.031H18.4a.092.092,0,0,0,.092-.046V-30.1l-.046-.061c-.076,0-.122.031-.122.092h-.015v-.015l.122-.29c.122,0,.183.015.183.031a.885.885,0,0,1,.474.092v.015l-.107.015H18.77l-.031.015c.031.076.061.122.076.122h.015a1.273,1.273,0,0,1,.214-.061.165.165,0,0,1,.107.031l-.061.061v.031l.076.015a1.82,1.82,0,0,1,.26-.046l.076.015h.168a1,1,0,0,0,.2-.046c.306.046.688.076,1.162.107a.653.653,0,0,1,.29.138c.015,0,.061-.031.138-.061a.424.424,0,0,0,.2.092h.015a.352.352,0,0,0,.138-.046c.642.092,1.162.183,1.559.26.138,0,.2-.015.214-.031l.535.138h.107c.321-.061.489-.214.489-.443v-.107a1.469,1.469,0,0,0-.795-1.146,7.374,7.374,0,0,0-3.148-.4h-.627c-.4,0-.841.015-1.36.046.352-1.1.642-2.079.856-2.9a16.5,16.5,0,0,0,.413-2.506v-.107a.585.585,0,0,0-.076-.29.809.809,0,0,1-.2.092h-.015c-.061,0-.092-.092-.092-.245a.2.2,0,0,0-.2-.214l-.031.015a.067.067,0,0,1-.046-.015.924.924,0,0,0-.122-.2h-.015c-.015,0-.031.031-.061.076l-.031-.015a.707.707,0,0,0-.428-.092Zm-.29,6.434a15.168,15.168,0,0,0,.458-1.544,16.864,16.864,0,0,0,.734-3.164c.046-.413.122-.611.2-.611h.031l.015.183v.138a9.631,9.631,0,0,1-.321,1.987,22.513,22.513,0,0,1-.81,3,2.282,2.282,0,0,1-.29.015Zm-1.269.107c.092-.26.153-.4.153-.4a22.242,22.242,0,0,1,1.085-2.889,3.08,3.08,0,0,1,.535-1.07h.015v.076a1.552,1.552,0,0,1-.107.382,1.873,1.873,0,0,1-.107.489c0,.015.015.031.015.046l-.046.229c-.138.52-.214.81-.214.856v.076l.015.031c.061-.046.092-.092.092-.122h.015c.015,0,.031,0,.031.031v.2a.319.319,0,0,1-.107.229c-.076.336-.122.5-.168.5l.015.076a.946.946,0,0,1-.061.245h-.015q-.046,0-.046-.092v-.046c.046,0,.076-.015.076-.031v-.061a.217.217,0,0,0-.031-.092.546.546,0,0,0,.138-.4.033.033,0,0,0-.031-.031c-.046,0-.076.092-.107.26a1.141,1.141,0,0,0-.138.5.94.94,0,0,1,.015.2v.2c-.015.092-.031.153-.061.153h-.015v-.031h-.031v.122l-.031-.015c-.015,0-.031,0-.031.031a.535.535,0,0,1,.031.153v.015l-.015.076a3.134,3.134,0,0,1-.856.092Zm1.956-3h.015v.031a2.12,2.12,0,0,1-.138.627c-.015,0-.031-.015-.046-.061l.061-.229A1.884,1.884,0,0,0,19.045-34.394Zm-.321,1.207c.046-.26.092-.382.138-.382,0,.138-.031.214-.061.214-.031.153-.046.214-.076.214Zm-.046.092h.031V-33a.092.092,0,0,1-.046.092v-.076Zm-.306.367c0-.015,0-.031.031-.031v.046h-.031Zm-.229.474a.033.033,0,0,1,.031-.031l.015.076-.015.031a.033.033,0,0,1-.031-.031Zm.229.26a.352.352,0,0,1,.122-.275v.076a.386.386,0,0,0-.092.26h-.031Zm-.076.26h.015v.061H18.3Zm-.061.153h.015v.076h-.015Zm.474.275a1.345,1.345,0,0,1,.321.092v.061l-.076.015h-.138l-.092.076h-.046l-.031-.015A1.222,1.222,0,0,0,18.709-31.307Zm-.428.015s.061,0,.2.015a.344.344,0,0,0,.107-.015,1.222,1.222,0,0,0-.061.229h-.076a.512.512,0,0,0-.2-.107A.288.288,0,0,0,18.281-31.291Zm-.535.26c0-.153.046-.229.122-.229h.015a1.057,1.057,0,0,1-.031.229l-.031-.015h-.046Zm-.734-.153a5.269,5.269,0,0,1,.718-.061h.015a.408.408,0,0,0-.122.26h-.138a.842.842,0,0,0-.321.076c-.046,0-.122-.015-.229-.015A1.593,1.593,0,0,1,17.013-31.184Zm2.369.092a.056.056,0,0,1,.015-.046,1.6,1.6,0,0,1,.443-.092.62.62,0,0,1,.26.076v.015a.947.947,0,0,0-.168.046H19.9l-.4-.061c-.015,0-.031.015-.031.061Zm-7.886.871c.015-.076.107-.122.275-.122.26-.092.4-.153.413-.153.367,0,.565-.031.565-.076l.489-.122a2.125,2.125,0,0,0,.565-.122,2.454,2.454,0,0,0,.886-.138.823.823,0,0,1,.122.015l.107-.015h.015l-.107.26-.183-.015a.5.5,0,0,0-.2.061c-.229.031-.672.092-1.314.2h-.275c-.046.031-.061.046-.061.061a2.573,2.573,0,0,0-.55.092l-.092-.015h-.046a1.437,1.437,0,0,1-.581.092Zm8.085-.321a.156.156,0,0,1,.076-.122h.015a.116.116,0,0,0,.031.061c-.031.061-.061.076-.076.076H19.58ZM15-30.527h.031c.031,0,.031.015.031.031l-.031.046c-.015,0-.015,0-.031-.031Zm3.057.092c.046.046.076.061.092.061l.076-.015a.092.092,0,0,1,.061.015,3.223,3.223,0,0,1-.26.764,21.819,21.819,0,0,1-.779,2.155,19.394,19.394,0,0,1-1.162,2.827,9.3,9.3,0,0,1-.428,1.085c-.229.443-.443.9-.642,1.36a4.1,4.1,0,0,0-.458.81c-.183.413-.321.642-.4.672a.015.015,0,0,0-.015-.015,1.479,1.479,0,0,1,.2-.367,5.922,5.922,0,0,1,.382-.871c.275-.688.443-1.07.5-1.177a3.159,3.159,0,0,1,.428-.932,4.641,4.641,0,0,1,.382-.978,9.624,9.624,0,0,1,.382-.932l.321-.856a2.053,2.053,0,0,0,.275-.795c.214-.5.352-.886.428-1.116a4.181,4.181,0,0,0,.29-.886A2.709,2.709,0,0,0,18.052-30.435Zm-1.269.092c.321-.015.581-.031.81-.061h.031l-.015.031v.183c-.061,0-.092.031-.092.107h-.031c-.031,0-.031-.031-.031-.092h-.015c-.046.015-.061.046-.061.107v.076c.015.031.046.061.061.061a.63.63,0,0,1-.092.29.591.591,0,0,1-.168.474,1.418,1.418,0,0,1-.214.55l-.061-.046h-.031v.015l.015.092c-.015.046-.046.076-.061.076a.47.47,0,0,0,.061.138.2.2,0,0,1-.046.107l-.061-.031a.047.047,0,0,0-.031.015,1.728,1.728,0,0,0,.015.214.493.493,0,0,0-.092.275c-.061,0-.092,0-.092-.015,0,.031-.015.031-.031.031l.031.107v.2l-.015.107h-.031q-.046,0-.046-.092v-.046h-.046a.841.841,0,0,0-.107.29.132.132,0,0,0,.046.092.217.217,0,0,1-.031.092l-.031-.015c-.031,0-.046.046-.076.122a.43.43,0,0,0,.015.122c-.015.031-.015.046-.031.046-.031.2-.076.29-.107.29a.033.033,0,0,1-.031-.031l-.031.015.015.076v.092l-.061-.076c-.046,0-.138.229-.275.7a2.124,2.124,0,0,0-.26.611l-.183.413c-.367.795-.611,1.33-.7,1.6v.015l.015.107-.031-.015a.189.189,0,0,0-.046.031q-.069.183-.092.183a5.32,5.32,0,0,0-.489.993h-.015c.076-.29.413-1.314.993-3.087.627-2,1.177-3.7,1.635-5.059.046-.031.076-.061.076-.107a.033.033,0,0,0-.031-.031c.076-.229.122-.352.122-.367A.056.056,0,0,1,16.784-30.344Zm-5.945.153v-.015a1.885,1.885,0,0,1,.367-.107h.031a.033.033,0,0,1,.031.031l-.015.031a1.421,1.421,0,0,0-.321.092A.217.217,0,0,1,10.838-30.191Zm2.919-.122a.033.033,0,0,0-.031.031v.015a.056.056,0,0,1,.046.015c0-.015,0-.031.031-.031a.033.033,0,0,0-.031-.031Zm2.231.122q.023-.046.046-.046v.092Q15.989-30.168,15.989-30.191Zm-1.131.245c0-.031,0-.031.015-.031.015-.153.061-.229.122-.229v.031c.076.046.107.092.107.138A2.071,2.071,0,0,0,14.858-29.946Zm1.33-.153a.092.092,0,0,1,.046-.092h.031q.046.023.046.046v.046a.1.1,0,0,1-.061.107A.1.1,0,0,1,16.187-30.1Zm-2.644-.076a.922.922,0,0,1-.2.122c0,.015.031.031.076.046.153-.046.229-.061.229-.076S13.62-30.13,13.543-30.176Zm-1.437.107c-.015,0-.031,0-.031.031l.015.031.092-.015v-.015a.033.033,0,0,0-.031-.031Zm1.085.031c-.092.031-.183.046-.29.076v.031c.214-.015.306-.046.306-.076v-.031Zm3.989,0a.092.092,0,0,0-.092.046v.046h.076q.046-.023.046-.046v-.015A.033.033,0,0,0,17.181-30.038Zm-.382.015-.061.015v.015c0,.015,0,.031.031.031H16.8c.031,0,.031-.015.031-.031S16.829-30.023,16.8-30.023Zm-5.41.076c.076.015.168.046.275.076v.031a.573.573,0,0,0-.26.076.521.521,0,0,0-.245-.061h-.015a.154.154,0,0,0-.168.138.412.412,0,0,1-.2-.107.427.427,0,0,1,.076-.122c.076.031.122.061.122.076a.243.243,0,0,1,.153-.076h.061l.076.046C11.343-29.9,11.389-29.916,11.389-29.946Zm4.264.061q0-.046.092-.046a.116.116,0,0,0,.015.061l-.061.031a.189.189,0,0,1-.046-.031Zm-3.24-.046a.015.015,0,0,0-.015.015c-.153.031-.229.061-.229.076v.031c0,.031,0,.031.031.031h.046l.138-.046c.031,0,.076.015.122.015l.046-.046C12.55-29.885,12.5-29.916,12.413-29.931Zm.382.031v.015h.031V-29.9Zm-3.821.122c0-.015.015-.031.061-.046.015,0,.031.031.046.061,0,.031-.015.031-.031.031H9.035Zm1.207-.046h.076v.031h-.046C10.2-29.793,10.181-29.793,10.181-29.824Zm5.594.107c0-.015.031-.046.107-.076q0,.16-.092.183l-.015-.076Zm-1.559-.076a.862.862,0,0,0-.183.061c0,.061.015.076.031.076h.107c.122,0,.168-.015.168-.046C14.292-29.763,14.262-29.793,14.216-29.793Zm-.275.015a.424.424,0,0,0-.183.076c.031.061.061.092.107.092.015,0,.046-.031.107-.122C13.941-29.748,13.941-29.763,13.941-29.778Zm-1.024,6.572a.283.283,0,0,0,.26-.2,6.548,6.548,0,0,1,.229-.642,2.08,2.08,0,0,1,.092-.367c.428-1.437.718-2.323.856-2.659l.489-1.452a3.293,3.293,0,0,0,.183-.55c.107-.458.214-.688.29-.688.015,0,.015.031.015.092a4.964,4.964,0,0,0-.168.565,1.173,1.173,0,0,0-.2.6,5,5,0,0,0-.214.688,1.358,1.358,0,0,0-.153.4,1.147,1.147,0,0,0-.107.306c-.092.29-.183.642-.306,1.07a1.55,1.55,0,0,0-.153.581,11.652,11.652,0,0,0-.627,1.956.618.618,0,0,0-.092.168l.015.092v.015a.818.818,0,0,0-.168.428c-.076.26-.138.428-.153.52.015.076.031.122.061.122h.046c.015,0,.031-.031.046-.076,0-.046-.015-.092-.015-.138V-22.4a.26.26,0,0,1,.122-.2c-.015-.061-.031-.107-.031-.122a2.487,2.487,0,0,0,.2-.474c.031-.26.076-.4.107-.4a1.279,1.279,0,0,1,.138-.428c.046-.382.107-.565.2-.565l-.015-.183.153-.031-.046.061v.015a.935.935,0,0,0,.076.092h.015a.244.244,0,0,0,.122-.046l-.015-.138a.11.11,0,0,1,.061-.107h.046c.015,0,.031.015.046.031h.061q.046-.023.046-.046c-.031-.046-.046-.061-.061-.061h-.138a.688.688,0,0,0,.031-.214v-.031H14.2a.322.322,0,0,1-.122.092v-.076a.418.418,0,0,1,.061-.076c.061-.26.122-.4.2-.4a.579.579,0,0,0-.015-.122.3.3,0,0,1,.168-.26.9.9,0,0,1,.122.076l-.061.306-.046-.031H14.46a.033.033,0,0,0-.031.031v.031c.046.046.061.061.061.076v.015a.092.092,0,0,1-.046.092l-.092-.015a.258.258,0,0,1-.076.031v.061a1.8,1.8,0,0,1,.229.168h.046c.031-.153.076-.229.107-.229h.076a.118.118,0,0,0,.015.046c-.031.138-.076.29-.138.489a2.933,2.933,0,0,1-.153.4h-.015c0-.046-.015-.061-.046-.061l.046-.061v-.031h-.107q0-.092-.046-.092h-.015q-.046.023-.046.046v.031a1.31,1.31,0,0,1,.046.26v.015l-.138.092-.061.26c0,.031.031.061.092.076.031-.046.061-.076.076-.076,0,.015.015.031.015.046a.767.767,0,0,1-.046.214.7.7,0,0,1-.092-.061h-.015a.132.132,0,0,0-.092.046c0,.046.015.076.031.076h.138c0,.015.015.046.015.061a1.442,1.442,0,0,1-.183.5,7.765,7.765,0,0,1-.321,1.085v.031q.023.046.046.046h.015l.061-.046v.046a.092.092,0,0,1-.046.092c-.076,0-.122.046-.153.153-.076.26-.122.4-.153.4h-.015c-.015,0-.046-.046-.107-.138H13.33a.334.334,0,0,1-.076.214c0,.015.015.031.015.046.138.031.2.061.2.092-.015.092-.031.153-.061.153h-.061c-.031,0-.031-.031-.046-.076h-.031a.261.261,0,0,1-.076.168v.031c.092.031.122.061.122.092a.652.652,0,0,0-.122.321v.092h-.015c-.107-.046-.153-.092-.153-.168v-.015a1.555,1.555,0,0,1,.061-.245V-20.9a.033.033,0,0,0-.031-.031h-.015l-.122.122a3.646,3.646,0,0,1-.153.382,1.222,1.222,0,0,0-.138.535c0,.26-.031.413-.107.474v.061l.168.122.046-.031h.031a.464.464,0,0,1-.2.183l.015-.076-.015-.031c-.061,0-.122.153-.168.474a1.668,1.668,0,0,1-.2.841.2.2,0,0,0,.046.107h-.015c-.076,0-.107.061-.122.183a.75.75,0,0,0,.046.183.545.545,0,0,0-.107.107.373.373,0,0,0,.015.107,3.437,3.437,0,0,1-.107.382v.015a.36.36,0,0,0,.183.352.246.246,0,0,0-.092.2.27.27,0,0,0-.229.29l.015.031a.649.649,0,0,0-.076.183v.015a.54.54,0,0,0,.061.26c.076.046.107.076.107.092-.092,0-.138.153-.168.428a2.332,2.332,0,0,0,.015.275,1.688,1.688,0,0,0-.015.245.183.183,0,0,0,.061.122v.092H11.8c-.076-.046-.107-.138-.107-.275v-.061c0-.015-.015-.031-.061-.046-.015,0-.046.046-.061.122q.046.206.046.229l-.061-.015c-.061,0-.122-.306-.2-.932a8.573,8.573,0,0,0,.092-.9,2.994,2.994,0,0,0-.031-.413A1.408,1.408,0,0,1,11.5-16.8s0-.122-.015-.367a.344.344,0,0,1,.076-.229,1.381,1.381,0,0,0,.153-.734.2.2,0,0,0-.076-.168h-.015c-.046,0-.138.245-.26.734h-.015c-.015,0-.031-.031-.046-.107.015-.122.031-.2.046-.2.061-.474.107-.718.153-.718a3.273,3.273,0,0,1,.107-.718,1.453,1.453,0,0,1,.138-.5,2.376,2.376,0,0,1,.214-.795,2.2,2.2,0,0,1,.061-.352,1.974,1.974,0,0,0,.122-.581,9.986,9.986,0,0,0,.413-1.467.745.745,0,0,0,.122-.367.7.7,0,0,0,.092-.245c.015-.076.168-.565.474-1.467a2.142,2.142,0,0,1,.214-.7,3.229,3.229,0,0,1,.138-.489,4.191,4.191,0,0,0,.229-.795.7.7,0,0,0,.2-.52,3.2,3.2,0,0,0,.26-.718,1.293,1.293,0,0,1,.229-.657c.122-.458.183-.688.229-.688h.092v.061a.2.2,0,0,0-.046.107v.138l-.107.122v.015l.076.076v.031h-.015l-.046-.031h-.015c-.015,0-.031,0-.031.031l.031.107a.143.143,0,0,1-.092.122,3.069,3.069,0,0,1-.092.413c-.061,0-.107.138-.122.413-.076.076-.122.122-.122.138s.015.031.015.061c-.061.214-.092.336-.092.336.046.046.061.076.076.076,0,.046-.031.107-.122.168a1.776,1.776,0,0,0-.229.734c0,.031.015.046.076.046a.3.3,0,0,0-.122.245v.183c-.076,0-.153.138-.245.428v.046s.031.031.092.107v.046c-.076,0-.153.061-.214.183a1.01,1.01,0,0,1,.015.168.744.744,0,0,0-.168.29l.031.046v.031c-.046.061-.092.107-.122.107-.031.168-.061.245-.092.245a.456.456,0,0,1-.076.306c-.046.214-.092.382-.122.52a.165.165,0,0,0,.031.122c0,.015-.046.046-.122.107C12.856-23.252,12.871-23.222,12.917-23.206Zm3.148-6.45a.129.129,0,0,1,.061-.107c.031,0,.031.015.031.031v.015c0,.076-.015.122-.061.138A.1.1,0,0,0,16.065-29.656Zm-7.489.031c0-.061.046-.107.122-.122h.153v.015c0,.031-.076.076-.214.122H8.607Zm1.391-.122H10v.015H9.967Zm3.576.046-.122.122.015.031a1.511,1.511,0,0,0,.229-.015v-.015a.283.283,0,0,0-.107-.122Zm-4.34.138c0-.061.153-.107.474-.107h.061c0,.015-.015.031-.076.046l-.138-.015a2.022,2.022,0,0,0-.275.107.067.067,0,0,0-.046-.015Zm-.443.046.2-.046c0,.015.015.015.061.015q0,.046-.092.046H8.76Zm-.9.367a.631.631,0,0,0,.107-.168,2.448,2.448,0,0,1,.672-.168h.046a.134.134,0,0,1-.138.122H8.424l-.122.107H8.148a1,1,0,0,1-.275.138H7.858Zm7.825-.153H15.7v.092c0,.015-.015.061-.031.138-.092-.031-.138-.046-.138-.061v-.031l.015-.031C15.637-29.228,15.683-29.274,15.683-29.3Zm.214.076c.046.015.061.031.061.046l-.046.061q-.046-.023-.046-.046v-.015Zm-1.085.092h.031v.015h-.031Zm.718.2c.015,0,.031,0,.031.015v.015C15.546-28.907,15.53-28.907,15.53-28.938Zm-.26,1.589c.031-.153.061-.229.076-.229a.6.6,0,0,1,.168-.5c.076-.4.153-.6.214-.6h.015l.015.076a.272.272,0,0,1-.061.153l-.229.779a.654.654,0,0,0-.153.352,8.568,8.568,0,0,1-.352,1.192c-.015,0-.061-.046-.122-.122v-.031c.046,0,.107-.046.153-.138a2.277,2.277,0,0,1,.29-.871A.092.092,0,0,1,15.27-27.348Zm.122-1.192a.084.084,0,0,1,.061-.092c.015,0,.015.015.031.046l-.046.153h-.031l-.015-.076Zm1.513.046a.033.033,0,0,1,.031-.031h.015v.061c0,.015,0,.031-.031.031C16.921-28.464,16.921-28.479,16.906-28.494Zm-1.559.138c.015,0,.031.015.046.061,0,.031-.015.046-.031.046h-.046C15.316-28.265,15.332-28.3,15.347-28.357Zm1.345.275q-.046.023-.046.046c0,.031,0,.031.031.031q.023,0,.046-.046C16.722-28.082,16.707-28.082,16.692-28.082Zm-1.528.214c0-.031.031-.046.061-.061l.031.046v.015c0,.015-.015.031-.061.046A.189.189,0,0,1,15.163-27.868Zm1.376.183a.033.033,0,0,0-.031.031v.061h.046v-.061Zm-1.91.718h.076a.056.056,0,0,0,.015.046l-.076.306h-.015Zm1.559.168v.046h.031V-26.8Zm-.061.138v.015h.031v-.015Zm-1.437.245c.061-.138.107-.214.138-.214a.056.056,0,0,0,.015.046.189.189,0,0,0-.031.046v.183a.147.147,0,0,1-.107.138l-.061-.061h-.092l-.031.015a.217.217,0,0,0-.031-.092c.031-.061.061-.076.076-.076h.015Zm-.2.382v.046L14.522-26A.033.033,0,0,0,14.491-26.034ZM14.8-26h.076a.033.033,0,0,1,.031.031v.031a1.788,1.788,0,0,1-.153.413h-.015a.1.1,0,0,1-.076-.092A1.044,1.044,0,0,0,14.8-26Zm-1.207.458c-.015,0-.031,0-.031.031v.015H13.6v-.046Zm.443.55c0-.015,0-.031.015-.031v.046h-.015Zm-.52,0h.015v.031h-.015Zm.871.55c.031-.046.046-.061.061-.061v.015l-.031.092c-.015,0-.031,0-.031-.015Zm-.443.26a.108.108,0,0,0-.061.076c0,.015.015.031.061.046.046-.015.076-.031.076-.046v-.046a.033.033,0,0,0-.031-.031Zm-.138.428v.031c0,.015,0,.031.031.031a.033.033,0,0,0,.031-.031.033.033,0,0,0-.031-.031Zm.229.122c-.046.015-.076.031-.076.061v.046c0,.015,0,.015.031.015h.046q.046-.023.046-.046v-.031Q14.078-23.611,14.033-23.634Zm-.352.229v.015h.031v-.015Zm-.031.183c-.015,0-.031.031-.061.092v.015H13.6l.076-.015v-.015l-.015-.076Zm.138.046a.033.033,0,0,0-.031.031v.076c0,.015.031.046.076.061.031,0,.046-.031.061-.076a.033.033,0,0,0-.031-.031l.031-.046v-.015Zm-.779.015q-.046.023-.046.046v.031c0,.015.015.031.061.046.015,0,.031-.015.046-.061C13.039-23.145,13.024-23.161,13.009-23.161Zm.764.183a.033.033,0,0,0-.031.031v.015a.033.033,0,0,0,.031.031.033.033,0,0,0,.031-.031v-.046Zm-.81.046a.115.115,0,0,0-.076.122h-.092a.165.165,0,0,0-.107.046,1.637,1.637,0,0,1-.092.352c.015.168.092.245.2.245.015,0,.046-.061.092-.168a.67.67,0,0,1,.107-.458V-22.9A.033.033,0,0,0,12.963-22.931Zm.611,0c-.076,0-.122.046-.153.168v.061l.015.138a.552.552,0,0,0-.061.076v.092q.023.046.046.046h.031a1.765,1.765,0,0,1,.2-.443A.211.211,0,0,0,13.574-22.931Zm0,.581a.033.033,0,0,0-.031.031v.015a.033.033,0,0,0,.031.031h.015v-.076Zm-.55.229c-.076.031-.107.107-.107.229a2.2,2.2,0,0,0-.153.565.033.033,0,0,1,.031.031c.061-.031.092-.061.092-.107a2.858,2.858,0,0,1,.168-.611v-.076A.033.033,0,0,0,13.024-22.121Zm.2.214q-.046,0-.138.092c0,.092.015.153.061.153h.015c.031,0,.061-.061.107-.2,0-.031,0-.046-.031-.046Zm-.627.015a.3.3,0,0,0-.183.122v.015c.015.076.046.107.061.107.031,0,.031-.015.031-.046h.107a.189.189,0,0,0,.046-.031v-.122C12.657-21.861,12.642-21.877,12.6-21.892Zm1.116.122h.015v.031h-.015Zm-.306.015c-.015,0-.031,0-.031.031v.015l.015.031c.061,0,.076-.015.076-.031S13.452-21.739,13.406-21.754ZM12.4-21.54c-.061.046-.107.183-.138.443a1.718,1.718,0,0,0-.122.565c.015.138.046.2.092.2h.015c.031-.015.076-.122.122-.336l-.061-.107c0-.015.015-.031.031-.046.122-.092.168-.275.168-.565v-.031a.126.126,0,0,0-.076-.122Zm.352.382c-.046.031-.076.046-.076.061v.061l.031.046c.046-.031.076-.046.076-.061v-.015A.217.217,0,0,0,12.749-21.158Zm-.138.428q-.046.023-.046.046v.046c.031.046.046.061.061.061q.046-.023.046-.046v-.046C12.642-20.7,12.626-20.73,12.611-20.73Zm-.031.2h-.015c-.046,0-.076.092-.107.275v.046a.033.033,0,0,0,.031.031h.031A1.235,1.235,0,0,0,12.6-20.5Zm.4.153c.122,0,.168.046.168.138a1.062,1.062,0,0,1-.061.26H13.07l-.046-.046-.076-.306Zm-.734.107c-.076,0-.153.061-.26.183a1.041,1.041,0,0,1-.076.321c0,.031.046.046.168.061l.046-.031a4.079,4.079,0,0,1,.153-.52Zm.627.367.076-.015h.061l.015.092v.015c-.061.153-.138.306-.229.5h-.046c-.015,0-.031-.015-.046-.061.015-.046.061-.076.122-.122a1.605,1.605,0,0,0-.031-.2.249.249,0,0,1,.122-.138c0-.015-.015-.031-.046-.031Zm-.963.214a.867.867,0,0,0-.153.52.428.428,0,0,0,.015.092H11.8a1.79,1.79,0,0,0,.245-.229L12-19.462v-.046a.187.187,0,0,0,.046-.138Q12.046-19.668,11.908-19.691Zm.688.642h.015v.015a.2.2,0,0,1-.076.107A.7.7,0,0,1,12.6-19.049Zm5.884.183c-.061,0-.122.061-.168.168v.061l.031.046.183-.214v-.015Q18.5-18.866,18.48-18.866Zm-6.847.321a.033.033,0,0,0-.031.031c.061.076.107.107.168.107h.015a.033.033,0,0,0,.031-.031v-.015A.185.185,0,0,0,11.633-18.545Zm6.694.015a.033.033,0,0,0-.031.031l.015.031a.033.033,0,0,0,.031-.031Zm-.245.138q-.046.023-.046.046v.031a.033.033,0,0,0,.031.031H18.1q.046-.023.046-.046v-.031a.033.033,0,0,0-.031-.031Zm-.245.107a.157.157,0,0,0-.076.092c0,.031.015.046.031.046h.015c.061-.046.076-.061.076-.076v-.031c0-.015,0-.031-.031-.031Zm.2.061a.316.316,0,0,0-.214.138l.061.031c.061,0,.107-.046.153-.138ZM12-18.056a.033.033,0,0,0-.031.031c0,.031,0,.031.031.031h.015v-.031Zm-.061.138a.056.056,0,0,1-.015.046.116.116,0,0,0,.031.061L12-17.842c-.015-.046-.031-.076-.046-.076Zm.459.367a.033.033,0,0,1,.031-.031v.122c-.015,0-.015-.015-.031-.031Zm-1.07.122q.023,0,.046.092l-.031.306v.061a.4.4,0,0,1-.046.153c-.031.29-.061.443-.107.443h-.015l-.015-.107v-.046a.613.613,0,0,1,.046-.229C11.205-17.154,11.251-17.383,11.327-17.429Zm1.07.076h.031l.015.107c-.015.107-.046.153-.076.153h-.031c-.015,0-.015,0-.031-.031v-.015A.46.46,0,0,1,12.4-17.353Zm5.227.107c.015,0,.031,0,.031.031l-.015.031c-.031,0-.031-.015-.031-.031Zm-5.334.489h.031c0,.015.015.046.015.061a1.829,1.829,0,0,1-.046.214H12.26a.056.056,0,0,0-.015-.046Zm4.906.26c.061-.107.122-.168.2-.168h.015q-.046.183-.092.183h-.046Zm-5.487.107c-.015,0-.031,0-.031.031v.046l.031.031c.046,0,.076-.015.076-.031v-.015C11.786-16.344,11.755-16.375,11.709-16.39Zm-.046.275c-.031.031-.061.046-.061.061v.015c0,.031.015.031.031.031h.046c0-.015,0-.015.015-.046C11.694-16.069,11.679-16.084,11.664-16.115ZM17.1-15.9a.033.033,0,0,0-.031.031v.031a.033.033,0,0,0,.031-.031Zm-5.242.061a.033.033,0,0,1,.031-.031h.015a.033.033,0,0,1,.031.031v.046A.14.14,0,0,0,11.862-15.84Zm.153.046a.092.092,0,0,0,.061-.015h.015l-.015.061h-.061Zm-.4.061q-.023,0-.046.092v.076c.031.031.046.061.061.061h.031c.015,0,.031-.031.046-.061-.015-.122-.031-.168-.046-.168Zm5.319,0v.031h.046v-.031Zm-.092.122q-.046.023-.046.046v.031h.046q.046-.023.046-.046c0-.015,0-.031-.031-.031Zm-.153.138v.031h.031v-.031ZM12.03-15.3a.092.092,0,0,0,.061-.015,2.477,2.477,0,0,0,.046.321.379.379,0,0,0-.015.138c-.031,0-.061-.046-.092-.122,0-.138.015-.229.015-.275A.067.067,0,0,1,12.03-15.3Zm-.443.015c0,.092.015.2.015.336l-.015.107c.031.092.046.138.076.138h.015v-.046a2.391,2.391,0,0,0-.061-.535Zm.458.871c0-.015,0-.015.031-.031h.031q.046.023.046.046v.092c-.061,0-.092-.015-.107-.061Z" transform="translate(74.552 38.189)" fill="#3963ac" stroke="#3963ac" stroke-width="0.5"/>
</svg>
