<svg xmlns="http://www.w3.org/2000/svg" width="124.899" height="25.606" viewBox="0 0 124.899 25.606">
  <path id="パス_476" data-name="パス 476" d="M11.409-19.973a10.279,10.279,0,0,0-5.451,1.779,13.3,13.3,0,0,0-2.267,1.75,8.1,8.1,0,0,0-1.678,2.123.207.207,0,0,1,.1.143.325.325,0,0,1-.143.072.163.163,0,0,0-.043-.115c-.057,0-.129.057-.2.143v.086a.919.919,0,0,0,.129.1v.014a2.291,2.291,0,0,1-.316.445l-.086-.014H1.4c-.029,0-.057.057-.072.186a.172.172,0,0,0,.115-.029l.029.014c0,.072-.043.115-.129.143l-.014-.029a.031.031,0,0,0-.029.029V-13a.36.36,0,0,1-.1.244,4.138,4.138,0,0,1-.445.9,5.018,5.018,0,0,1-.373,1,9.888,9.888,0,0,0-.43,2.367,3.153,3.153,0,0,0,.086.531l-.043.273a1.574,1.574,0,0,0,.029.344A5.87,5.87,0,0,0,.65-5.226q.646.667.99,1.076a5.576,5.576,0,0,0,.889.789c.373.2.574.33.574.387V-2.9A9.782,9.782,0,0,1,2.63-1.08,13.354,13.354,0,0,0,2.386,1.1v.43a4.454,4.454,0,0,0,.4,1.994A3.412,3.412,0,0,0,5.5,5.16h.2A5.485,5.485,0,0,0,8.755,3.926a11.07,11.07,0,0,0,1.951-1.621,4.579,4.579,0,0,0,.846-.861L12.514.283a20.573,20.573,0,0,0,1.42-2.109c.387-.674.7-1.277.961-1.822a22.075,22.075,0,0,0,1.205-3.4,24.372,24.372,0,0,0,.717-4.591v-1.693a10.153,10.153,0,0,0-.086-1.047,6.888,6.888,0,0,0-.4-2.023A4.977,4.977,0,0,0,11.409-19.973ZM1.87-7.909a6.929,6.929,0,0,1,.646-2.8,6.565,6.565,0,0,1,1-1.937,19.011,19.011,0,0,1,2.324-2.7Q9.5-18.761,12.1-18.754c1.463,0,2.467.889,3.027,2.668a11.033,11.033,0,0,1,.387,2.6c0,.172.057.287.186.316a1.072,1.072,0,0,1-.043.287h-.014c0-.115-.029-.172-.072-.172l-.043.029c.014.387.029.6.029.646s0,.057.029.057H15.6c.029,0,.043-.072.057-.215a.345.345,0,0,0,.143.1c.1,0,.143.057.143.172l-.014.158-.143-.086h-.057v.014a.708.708,0,0,0,.043.215q-.258.151-.258.3v.115a3.046,3.046,0,0,1-.057.6c-.1.76-.158,1.205-.158,1.305a3.232,3.232,0,0,0-.143.574v.143a.436.436,0,0,0,.287.23v.043c0,.172-.029.244-.072.244a.108.108,0,0,1-.072-.014c-.043-.158-.086-.23-.129-.23a1.033,1.033,0,0,0-.186.359v.129a.929.929,0,0,0,.043.143v.072a.554.554,0,0,1-.143.273,5.571,5.571,0,0,1-.244.746.128.128,0,0,0,.057.115h.014a.451.451,0,0,0,.129-.23c0-.172.043-.273.115-.273s.129-.115.215-.373h.014v.158l-.344.732c-.057.545-.172.818-.3.818h-.029v-.043a1.81,1.81,0,0,1,.186-.473l-.014-.029a.818.818,0,0,0-.344.689v.115h.029c.014,0,.057-.057.129-.158l.043.129v.029c0,.029-.014.043-.029.072a.11.11,0,0,1,.029.072v.057c-.072,0-.115.057-.143.186v.3a.125.125,0,0,0-.057.086h-.029l-.215-.2a2.6,2.6,0,0,0-.072.33c0,.029.043.043.115.072,0,.086-.057.172-.186.273v.143a1.4,1.4,0,0,1-.086.215v.043a.129.129,0,0,0,.014.072l-.057.215c-.244.244-.373.4-.373.473a.5.5,0,0,0,.043.186c-.3.23-.445.445-.445.617V-2.5a1.279,1.279,0,0,0,.029.158c-.029.057-.072.072-.143.072h-.057v.186l.029.043h-.057c-.129,0-.258.129-.359.387Q11.5-.385,11.5-.363v.029l.057.172v.043a.273.273,0,0,1-.158-.1,5.36,5.36,0,0,0-.717.846c-.387.488-.631.717-.7.717A10.673,10.673,0,0,1,8.9,2.363,6.553,6.553,0,0,1,5.5,3.926a1.017,1.017,0,0,1-.861-.4,3.732,3.732,0,0,1-.344-1.736V1.4c0-.186,0-.387.014-.631L4.653-.679c.215-1.133.387-1.693.5-1.693.344-.1.574-.186.717-.244A2.9,2.9,0,0,0,7.278-3.2a3.436,3.436,0,0,0,.947-.746c.316-.244.473-.387.473-.445a.839.839,0,0,0,.258-.215.108.108,0,0,0-.014-.057c0-.029.043-.1.143-.215,0-.029-.029-.057-.086-.072A2.38,2.38,0,0,0,8.54-4.7a1.807,1.807,0,0,1-1.09.545,1.717,1.717,0,0,1-.2-.043H7.235a4.209,4.209,0,0,1-1.348.459H5.843a1.145,1.145,0,0,1-.23-.043A5.827,5.827,0,0,1,6.345-5.5a3.133,3.133,0,0,1,.689-1.176,5.115,5.115,0,0,1,.947-1.219q.28-.452.473-.516c.029.115.057.172.072.172s.029-.014.029-.043V-8.3a.424.424,0,0,0-.029-.143,1.462,1.462,0,0,0,.43-.316.736.736,0,0,0,.531-.689c0-.129-.273-.344-.8-.674a4.665,4.665,0,0,1-.473.029A2.8,2.8,0,0,0,6.417-9.3,5.012,5.012,0,0,0,5.5-8.081a1.119,1.119,0,0,1-.459.617A1.42,1.42,0,0,1,4.8-7a3.156,3.156,0,0,1-.3.631c-.244.631-.43,1.1-.588,1.406a4.6,4.6,0,0,1-.416.875l-.115-.1A6.058,6.058,0,0,1,2.6-5.226,4.184,4.184,0,0,1,1.87-7.909ZM8.884-18.6a1.128,1.128,0,0,1,.473-.143v.043c0,.057-.129.115-.4.172-.043-.014-.072-.029-.072-.057ZM8-18.123a2.587,2.587,0,0,1,.775-.359H8.8c0,.057-.057.115-.158.158a1.647,1.647,0,0,1-.631.258H8Zm-.66.445c0-.1.029-.143.057-.158h.115C7.507-17.75,7.45-17.707,7.335-17.678ZM6.216-16.616a1.283,1.283,0,0,1,.445-.33H6.7a.865.865,0,0,1-.158.23,5.014,5.014,0,0,0-.918.631,2.924,2.924,0,0,0-.832.7,1.393,1.393,0,0,1-.416.115c-.287.3-.473.459-.545.459H3.821a.338.338,0,0,1,.029-.115c.029-.043.531-.445,1.492-1.219a2.5,2.5,0,0,0,.746-.488ZM5-16.243c0-.086.115-.172.344-.244h.014v.014c-.014,0-.029.014-.057.029a.779.779,0,0,1-.258.2Zm-.215.143a.178.178,0,0,1,.086-.115h.057l.029.014a.138.138,0,0,1-.143.1Zm-.373.287c.057-.057.086-.086.1-.086h.014a.177.177,0,0,0-.029.1H4.409Zm11.634.7h.014a18.29,18.29,0,0,1,.215,3.013c0,.029,0,.043-.014.043-.043.646-.086.961-.143.961l-.043-.2a6.173,6.173,0,0,0,.072-.7V-13.69a.828.828,0,0,0-.029-.2v-.057a2.031,2.031,0,0,1,.014-.273c-.043-.33-.072-.6-.086-.789ZM2.859-13.876c0-.057.072-.143.215-.273q.194-.344.344-.344h.014a.128.128,0,0,1-.072.115c-.287.344-.445.5-.488.5Zm.344.244c0-.129.043-.2.1-.2a.191.191,0,0,1,.043.115A.158.158,0,0,1,3.2-13.632Zm-1.062.7a1.065,1.065,0,0,1,.115-.215A.848.848,0,0,1,2.7-13.69H2.73c-.057.115-.1.158-.115.158a1.354,1.354,0,0,1-.459.631H2.142Zm-.057-.545h.029v.029a.038.038,0,0,1-.043.043A.192.192,0,0,0,2.085-13.475Zm.387,1.062a.138.138,0,0,0,.086-.129c.344-.43.574-.689.674-.789v.043c-.029.057-.057.086-.072.086a16.329,16.329,0,0,1-.818,1.435,3.914,3.914,0,0,1-.23.617l-.344-.143c-.043,0-.072.043-.072.129a7.169,7.169,0,0,0-.8,2.181l.014.043c.043,0,.1-.057.186-.158a3.8,3.8,0,0,1,.488-.9c.029,0,.029.014.029.043v.014a2.268,2.268,0,0,1-.186.5,2.251,2.251,0,0,1-.115.689c-.043.66-.086,1.076-.115,1.248a5.572,5.572,0,0,1,.043.617V-6.8a.38.38,0,0,1-.043.2,9.589,9.589,0,0,1,.143,1.162,2.313,2.313,0,0,0,.186.473v.029a1.24,1.24,0,0,1-.359-.545v-.043c.072-.072.1-.115.1-.129-.072-.186-.129-.273-.143-.273a3.593,3.593,0,0,0-.129-.99H.951c-.043.129-.072.186-.1.186v-.043c0-.115-.014-.316-.043-.631a8.9,8.9,0,0,0,.1-1.377V-8.8H.88v.014c-.086,0-.158.33-.2,1v.244q0,.022-.043.3v.072l.014.215s-.029.029-.086.1a.121.121,0,0,1-.086-.029l.143-.316c0-.072-.057-.143-.172-.2a1.223,1.223,0,0,1,.115-.316C.55-7.866.55-7.952.55-7.966L.578-8.1v-.143L.564-8.282H.578a1.8,1.8,0,0,1,.115-.445.174.174,0,0,0-.129-.186c-.029,0-.057.129-.086.4a.038.038,0,0,1-.043-.043v-.072c.029-.33.086-.5.172-.5l.086.1H.708c.014,0,.043-.014.072-.072a4.642,4.642,0,0,1,.186-.689L.951-9.817A1.462,1.462,0,0,0,1.2-10.39a.725.725,0,0,1,.244-.5,2.54,2.54,0,0,1,.258-.631c0-.029-.014-.1-.029-.2,0-.014.072-.057.215-.143.244-.488.416-.818.531-1.019.086,0,.2-.1.373-.316-.014.086-.029.143-.029.143a.473.473,0,0,0-.2.3,2.609,2.609,0,0,0-.143.316l.043.029Zm14.073-.674c0-.057.014-.1.057-.115l.014.172h-.072Zm-.646.129h.014l.014.129v.014c-.014,0-.029-.029-.057-.072Zm.646.143c.043,0,.072.057.1.172h-.057c-.029,0-.043,0-.043-.029Zm-14.661.158h.029v.072a.031.031,0,0,1-.029.029c-.043.158-.086.23-.1.23v-.014A.761.761,0,0,1,1.884-12.657Zm-.631.516c0-.057.057-.129.172-.23v.029a.355.355,0,0,0-.1.215H1.3Zm1.09-.23c-.057.043-.086.057-.086.086v.072l.014.029a.151.151,0,0,0,.115-.143v-.043Zm-.186.244a.47.47,0,0,1-.1.23v.057l.029.057c.072,0,.129-.1.172-.316,0-.014-.014-.029-.043-.029Zm-.631.273H1.54v.014c-.014.1-.029.143-.043.143-.057.258-.1.387-.158.387H1.324v-.143A1.342,1.342,0,0,1,1.525-11.854Zm.4.287c-.043.029-.072.057-.072.072v.057c0,.014.029.043.072.057.029-.014.043-.043.072-.086-.014-.072-.029-.1-.057-.1Zm.2.215v.043h.029v-.043Zm14.345.5q0-.387.086-.387l-.029.459h-.043A.174.174,0,0,0,16.473-10.849Zm-.459-.072c.029-.1.072-.158.129-.158l.029.23v.115A8.188,8.188,0,0,0,16-9.687a12.584,12.584,0,0,0-.23,1.248,4.8,4.8,0,0,0-.129.5c0,.1-.344,1.176-1.019,3.242a10.17,10.17,0,0,1-1.205,2.41,3.326,3.326,0,0,1-.344.617L12.37-.65a1.583,1.583,0,0,0-.344.43A10.078,10.078,0,0,0,11.079.928c-.043.072-.416.416-1.1,1.062-.043-.029-.057-.043-.057-.057V1.861a1.172,1.172,0,0,0,.273-.33c.2-.1.3-.186.316-.273A.956.956,0,0,0,10.85.871a.832.832,0,0,0,.287-.416h.014c0,.043.014.057.043.057a2.473,2.473,0,0,0,.2-.287.919.919,0,0,0,.215-.2c0-.115.129-.244.373-.4a2.638,2.638,0,0,1,.258-.473,4.939,4.939,0,0,0,.4-.574c.186-.2.273-.33.273-.387l.76-1.363a1.5,1.5,0,0,0,.316-.545,10.824,10.824,0,0,1,.574-1.248,1.9,1.9,0,0,1,.258-.66,1.175,1.175,0,0,1,.186-.531q.043-.3.086-.3a10.829,10.829,0,0,0,.5-1.779,11.383,11.383,0,0,0,.3-1.635,1.08,1.08,0,0,0,.115-.344c0-.043,0-.143-.014-.316a1.159,1.159,0,0,0,.043-.273v-.029Zm-.516.43a2.233,2.233,0,0,1,.086-.258q0-.086.215-.086l.029.186v.029a.038.038,0,0,1-.043.043H15.77l-.115-.1h-.014v.143c0,.072-.029.115-.072.129h-.057Zm-14.675.23c0-.273.072-.445.215-.5-.043.344-.1.5-.2.5ZM.65-9.788c.029-.244.1-.373.186-.373a.628.628,0,0,1-.129.416ZM15.5-10.075h.014v.057H15.5Zm.129.129c0-.043.014-.072.043-.072H15.7v.072c-.029.029-.043.057-.057.057S15.627-9.917,15.627-9.946Zm-15.02.3H.679c.029.014.043.057.043.115v.014c-.057.086-.086.129-.1.129S.593-9.4.578-9.415v-.1Zm14.761.029c.029,0,.057.043.057.1V-9.4h-.043l-.014-.186Zm.918.373h.029v.129h-.029a.108.108,0,0,0-.014-.057A.192.192,0,0,0,16.287-9.243Zm-.273.932c.1-.273.172-.4.2-.4,0,.273-.029.4-.072.4Zm-.9.057c.029,0,.043,0,.043.029v.072c-.029.057-.057.072-.072.072h-.029V-8.11A.7.7,0,0,1,15.11-8.253Zm.99.2c0-.029,0-.043.029-.043v.072H16.1Zm-1.148.43c0-.014.014-.029.029-.043v.115c-.014,0-.029-.014-.029-.043Zm.975.072h.014v.057l-.014.129h-.014v-.043A.488.488,0,0,0,15.928-7.55ZM4.165-4.8A3.414,3.414,0,0,1,4.6-5.829a5.821,5.821,0,0,1,.818-1.406h.014v.072a.859.859,0,0,1-.2.445,6.043,6.043,0,0,1-.66,1.205c-.115.488-.23.717-.373.717ZM5.843-6.718c0-.029.072-.057.186-.086a.521.521,0,0,1,.043.158v.029q0,.043-.172.086A.467.467,0,0,1,5.843-6.718ZM.578-6.46h.1a.121.121,0,0,0,.029.086.537.537,0,0,0-.014.115H.621c-.029,0-.029-.014-.043-.043Zm3.8,2.525a.4.4,0,0,1,.186-.316C5.183-5.656,5.6-6.374,5.815-6.374h.014v.043A1.1,1.1,0,0,0,5.5-5.7c-.258.316-.387.516-.387.631a1.416,1.416,0,0,1-.3.732,1.556,1.556,0,0,1-.373.588C4.409-3.749,4.394-3.82,4.38-3.935Zm.387-1.521c0-.115.043-.172.143-.172h.014c-.029.129-.057.186-.086.186H4.8ZM14.881-4.394c0-.172.029-.244.1-.244a.451.451,0,0,1-.072.287C14.9-4.351,14.881-4.365,14.881-4.394ZM5.427-4.538h.029v.072L5.413-4.48A.108.108,0,0,0,5.427-4.538Zm2.023.244c-.057,0-.086.029-.086.043v.029h.072c.014,0,.029-.014.029-.043Zm-2.467.416c0-.057.072-.1.215-.115h.014c0,.172-.029.258-.1.273A.165.165,0,0,1,4.982-3.878Zm9.454.5c.029-.143.043-.215.072-.215.043-.186.1-.273.158-.273h.014a.6.6,0,0,1-.215.488ZM14.221-3c.043-.158.086-.23.115-.23l.014.1V-3.1C14.35-3.074,14.307-3.046,14.221-3Zm-.086.1h.014l.014.086v.043c0,.014,0,.014-.014.014a1.382,1.382,0,0,1-.23.373.109.109,0,0,0-.029-.057ZM3.978-2.816a.48.48,0,0,0,.2.057,4.977,4.977,0,0,1-.215.746,3.546,3.546,0,0,0-.258.66v.072c.057.258.115.373.158.373v.072a.706.706,0,0,1-.1.316L3.591-.607l.057-.072H3.62c-.057.014-.072.057-.072.115v.172q-.086.3-.258.3a.282.282,0,0,1-.129-.244V-.377c.172-.043.258-.072.258-.1V-.521c0-.014-.043-.043-.129-.057a1.916,1.916,0,0,0,.072-.2L3.347-.808a2.186,2.186,0,0,0,.158-.76c.086-.445.158-.66.215-.66a1.049,1.049,0,0,1,.072-.344C3.921-2.658,3.978-2.73,3.978-2.816Zm7.173,4.2.057-.115a6.435,6.435,0,0,0,.617-.789,2.173,2.173,0,0,0,.488-.545c.373-.545.674-.975.932-1.32a5.126,5.126,0,0,1,.617-.99v.057c-.014.186-.043.287-.072.287a2.1,2.1,0,0,1-.33.459,14.582,14.582,0,0,1-.9,1.334,9.883,9.883,0,0,0-.689.875,2.982,2.982,0,0,1-.7.746Zm-7.66-3.5c.014-.129.043-.186.1-.186H3.62v.029A.165.165,0,0,1,3.491-2.113Zm-.115.459Q3.419-2,3.5-2a.963.963,0,0,1-.086.4c-.029,0-.029-.014-.043-.029Zm.918-.115h.014c.014,0,.043.029.072.1a.233.233,0,0,0-.057.129c-.014,0-.043-.029-.072-.086v-.029Zm-.258.775c0-.215.072-.33.2-.33a.233.233,0,0,0,.057.129.114.114,0,0,1-.129.129.175.175,0,0,0,.072.143.191.191,0,0,0-.1.043.1.1,0,0,1-.1-.057Zm-.186.588c0-.043.057-.072.143-.115a1.254,1.254,0,0,1,.043.2.3.3,0,0,1-.143.057H3.864V-.306Zm-.76.588L3.132.168H3.2V.211L3.161.254C3.118.254,3.1.225,3.089.182Zm.545.23c.129-.143.186-.2.2-.2s.057.043.057.1V.426a.92.92,0,0,1-.2.359A.992.992,0,0,1,3.72,1a.508.508,0,0,1-.172.143H3.519A.071.071,0,0,0,3.5,1.1c0-.029.057-.172.143-.445V.627ZM2.745.684c0-.029.029-.043.072-.057.014,0,.029.014.043.057A2.594,2.594,0,0,0,2.8.971H2.788A.581.581,0,0,1,2.745.8Zm8.177.889h.072c0,.014-.014.029-.043.029h-.029Zm-.488.545c.143-.172.244-.258.287-.258.043-.1.072-.143.129-.143v.057a3.836,3.836,0,0,0-.387.387c-.014,0-.029,0-.029-.029ZM3.5,1.774h.014q.086.215.129.215c0,.029-.057.043-.2.043v-.1A1.176,1.176,0,0,1,3.5,1.774ZM3,2.018h.014q.022,0,.086.129c-.014,0-.029.014-.057.014s-.057-.014-.086-.072C2.988,2.061,3,2.047,3,2.018Zm6.628.115c.014-.043.029-.057.057-.057V2.09a.038.038,0,0,1-.043.043Zm-.258.258c0-.1.072-.172.215-.2,0,.1-.057.172-.2.2Zm.7,0c0-.043.072-.086.2-.115H10.3v.029a.463.463,0,0,1-.186.186H10.1l-.029-.086Zm-.889.186h.043v.029H9.186Zm.617.129h.029v.029a.206.206,0,0,0-.029.043H9.774A.079.079,0,0,0,9.8,2.707ZM26.041-8.1,26-8.081c-.244.129-.359.258-.359.344a2.815,2.815,0,0,0-.23.3c-.029.23-.043.344-.072.344a2.471,2.471,0,0,1-.23.674v.057l.014.029c-.014,0-.029.043-.043.158-.1.057-.143.115-.143.129a.213.213,0,0,0,.029.129l-.115.158V-5.7l.014.029c.057-.014.1-.029.1-.072h.014V-5.7a2.14,2.14,0,0,1-.359.732c-.043.158-.086.23-.129.23a2.305,2.305,0,0,1-.273.445c-.072.23-.129.33-.158.344a1.4,1.4,0,0,0-.143.215.55.55,0,0,1-.115.244,3.438,3.438,0,0,1-.373.559,1.294,1.294,0,0,1-.287.445,1.726,1.726,0,0,1-.316.5c-.115.186-.215.287-.258.287a.232.232,0,0,1,.057-.143v-.072a.27.27,0,0,1-.129.057.881.881,0,0,0-.186.258.222.222,0,0,0,.043.086.413.413,0,0,0,.186-.129h.014v.029a1.42,1.42,0,0,1-.186.273H22.34v-.1a.031.031,0,0,0-.029-.029H22.3l-.043.029v-.029h-.014c-.1.143-.2.273-.3.4A6.624,6.624,0,0,1,20.676.4c-.631.732-1.09,1.09-1.406,1.09h-.014a.244.244,0,0,1-.1-.014c-.215-.1-.316-.4-.316-.918V.426a13.307,13.307,0,0,1,.244-2.109,16.552,16.552,0,0,1,.674-2.4A21.519,21.519,0,0,1,20.676-6.5a3.1,3.1,0,0,0,.316-.9v-.014a.53.53,0,0,0-.029-.186.793.793,0,0,0-.7-.473,1.584,1.584,0,0,0-.875.244c-.057,0-.186.244-.373.732l-.473,1.119c-.115.459-.215.889-.33,1.277A16.45,16.45,0,0,0,17.118,0V.125c0,.115,0,.172.014.172A2.444,2.444,0,0,0,17.907,1.8a2.5,2.5,0,0,0,1.635.7h.043a1.257,1.257,0,0,0,.689-.3,1.763,1.763,0,0,0,.631-.4A10.621,10.621,0,0,0,22.282.268V.24a3.109,3.109,0,0,0-.416.416,2.779,2.779,0,0,0-.459.43c0,.1-.158.158-.459.172V1.244a2.932,2.932,0,0,0,.459-.359A10.493,10.493,0,0,0,22.555-.32,23.573,23.573,0,0,0,24.2-2.73h.014v.014a2.354,2.354,0,0,0-.143.932,2.476,2.476,0,0,0,.23,1.09A2.021,2.021,0,0,0,26.285.455H26.3A4.121,4.121,0,0,0,28.48-.22c.215-.186.316-.3.316-.344a2.614,2.614,0,0,0,.66-.717c0-.014,0-.029-.029-.029a.645.645,0,0,0-.129-.244c.014-.072.029-.1.029-.115A.031.031,0,0,0,29.3-1.7a.258.258,0,0,0-.129.057,1.281,1.281,0,0,1-.359.373l-.029-.014.014-.057c.143-.115.215-.215.215-.287v-.029h-.029a.268.268,0,0,0-.143.072,4.688,4.688,0,0,1-.775.631c-.029.057-.086.072-.186.072q0,.065-.258.172c-.258.029-.387.072-.387.1l.043.072c0,.014-.057.057-.186.129a2.157,2.157,0,0,1-.674-.1,1.083,1.083,0,0,1-.7-1.119v-.158a2.333,2.333,0,0,1,.172-.832.4.4,0,0,1-.014-.115,8.693,8.693,0,0,0,.258-1.033c.344-1.062.516-1.607.516-1.621a5.113,5.113,0,0,0,.3-1.09v-.014l-.072-.588V-7.22a.445.445,0,0,1,.072-.158c0-.014,0-.029-.029-.057l-.043.029h-.029c-.143-.2-.244-.316-.3-.316-.057.057-.086.086-.1.086s-.029-.029-.057-.1l.029-.043c-.043-.143-.072-.215-.115-.215h-.014c-.086.014-.143.029-.158.029h-.014A.281.281,0,0,0,26.041-8.1Zm.387.76c0-.014.029-.043.1-.072l.029.014c0,.014-.043.043-.115.057ZM26.27-6.144h.057c.014,0,.029,0,.029.014v.057l-.014.086a.463.463,0,0,1-.143.316V-5.6l.072.072-.129.086c0,.014.014.029.014.057-.029.1-.057.143-.086.143a1.877,1.877,0,0,1-.129.4,2.655,2.655,0,0,0-.158.545v.029l.014.029a.111.111,0,0,0,.043-.014h.014v.072a1.252,1.252,0,0,1-.072.186c-.029,0-.029-.029-.029-.072h-.043a1.1,1.1,0,0,1-.072.23.655.655,0,0,1-.072.215v.029c0,.029.014.029.029.029l.043-.029c.014-.158.043-.23.1-.23a.111.111,0,0,0,.014.043c-.014.043-.029.072-.043.072-.029.158-.143.617-.359,1.363L25.295-2.4a.708.708,0,0,0,.043-.215l-.029-.043h-.014a4.519,4.519,0,0,0-.158.674c0,.014,0,.029.029.029s.072-.1.1-.273v-.043h.029v.115a.651.651,0,0,1-.057.258.11.11,0,0,1-.072-.029h-.014l-.057.029a.821.821,0,0,1-.143.488c.029.2.057.33.057.359a.627.627,0,0,1-.1.3l-.029-.014a.772.772,0,0,0-.129-.373.093.093,0,0,0-.072.029,1.953,1.953,0,0,0,.014.23c-.086,0-.129-.086-.129-.244a.986.986,0,0,0,.043-.359.746.746,0,0,0-.043-.072.619.619,0,0,0,.057-.2c0-.057-.014-.1-.043-.1a2.153,2.153,0,0,0-.129.66l.014.072-.029.086H24.42c0-.014,0-.029-.029-.057a1.172,1.172,0,0,0,.014-.2.885.885,0,0,0-.029-.258,1.25,1.25,0,0,0,.029-.287.34.34,0,0,0-.043-.215V-2.07a.266.266,0,0,0,.1-.029.807.807,0,0,1,.1-.33l-.043-.057-.029.014c-.014.1-.029.158-.057.158h-.057a.4.4,0,0,0-.014-.115.385.385,0,0,1,.115-.23h.014c0,.029.014.043.029.043a.258.258,0,0,0,.1-.215,3.7,3.7,0,0,0,.143-.473,2.286,2.286,0,0,0,.172-.445l.186-.244v.014l-.072.373v.014c0,.029,0,.029.029.029h.014l.029-.014-.014-.057c0-.029,0-.029.029-.029h.014l.072.014q.129-.043.129-.129a.933.933,0,0,0,.129-.373,1.12,1.12,0,0,0,.129-.3L25.6-4.466a1.8,1.8,0,0,0,.129-.387,1.2,1.2,0,0,0,.143-.445c0-.043.057-.1.172-.2v-.014c0-.029,0-.043-.014-.057Zm-.6.158.029.014c-.029.143-.057.215-.072.215a.725.725,0,0,1-.072.273.112.112,0,0,1-.057-.057c.029,0,.057-.086.086-.244A.54.54,0,0,0,25.668-5.986ZM19.6-5.6a.031.031,0,0,1,.029.029H19.6Zm5.107.086q-.043.022-.043.043v.014q.022.043.043.043h.029q.043-.022.043-.043C24.779-5.484,24.75-5.5,24.707-5.513Zm.387,1.277.115-.43c.086-.072.115-.215.115-.445.072-.215.129-.33.172-.33V-5.4l-.029.1v.1a.28.28,0,0,1-.014.115c-.086.215-.143.387-.2.545-.014.129-.043.186-.072.186v.072c0,.1-.029.143-.043.143h-.029l-.014-.072Zm-.617-.9A.175.175,0,0,1,24.391-5v.014c.029.043.043.057.057.057a.238.238,0,0,0,.072-.186V-5.14Zm-5.093.029.029.014c-.029.1-.072.158-.1.158A.238.238,0,0,1,19.385-5.111Zm4.992.273h-.029c-.029.086-.072.186-.115.287,0,.014.014.029.014.043h.043l.014-.086c.072-.072.115-.129.115-.172V-4.8Q24.4-4.839,24.377-4.839Zm1.635.057h.014v.029h-.014Zm-5.25,5.968V1.172c.115-.129.244-.273.373-.445A3.748,3.748,0,0,1,21.58.1a1.19,1.19,0,0,1,.23-.316,2.777,2.777,0,0,1,.43-.545.962.962,0,0,1,.373-.588,7.687,7.687,0,0,1,.617-.932c.158-.3.244-.459.244-.459a3.8,3.8,0,0,1,.3-.488c.129-.273.215-.416.258-.416.115-.244.23-.43.3-.559a2.577,2.577,0,0,1,.373-.559,10.137,10.137,0,0,1-.215,1.076,5.745,5.745,0,0,0-.617.961,7.916,7.916,0,0,1-1.1,1.865,9.746,9.746,0,0,1-1.994,2.051ZM19.2-4.738h.014a.461.461,0,0,0,.014.115c-.1.33-.158.5-.186.5-.029.172-.057.258-.072.258v-.029h-.043v.057a.053.053,0,0,1,.043.014.252.252,0,0,0-.014.086,1.59,1.59,0,0,0-.129.33,2.773,2.773,0,0,0-.2.66A2.246,2.246,0,0,0,18.409-2a2.018,2.018,0,0,0-.158.674,2.452,2.452,0,0,0-.115.617h-.029a.526.526,0,0,1,.029-.23c-.014-.014-.014-.029-.014-.057v-.23l.043-.143v-.1A.4.4,0,0,1,18.18-1.6a1.423,1.423,0,0,0,.115-.387l.1-.473a.442.442,0,0,1,.143-.287v-.043a1.581,1.581,0,0,1,.029-.258A.844.844,0,0,0,18.71-3.4V-3.49a.23.23,0,0,0,.072-.158c.086-.3.158-.459.2-.459A1.316,1.316,0,0,1,19.2-4.738Zm4.92.4c-.043.029-.057.043-.057.057v.014q.022.043.043.043h.029c.014,0,.029,0,.029-.029v-.057c0-.014-.014-.014-.029-.029Zm1.133.732H25.18c-.057.172-.086.244-.1.244,0-.072-.014-.115-.029-.115h-.029c-.029,0-.043.043-.057.115a.053.053,0,0,0,.043.014c.014,0,.043.043.1.143-.043.129-.072.2-.1.2h-.014l-.057-.043c.029-.115.057-.186.057-.215V-3.3h-.029a.943.943,0,0,0-.115.344l.029.043.029-.014h.072q.043.022.043.043v.014a.246.246,0,0,0-.029.115v.029h.043a2.717,2.717,0,0,0,.23-.861Zm-1.693.186c-.014,0-.014.014-.029.029l.014.029.043-.029C23.588-3.4,23.588-3.419,23.559-3.419Zm1.965.029c-.029,0-.057.057-.072.158.014,0,.014,0,.014.014.043-.014.072-.043.072-.057v-.086Zm5.322.043-.287.3q-.086.258-.172.258v.029c.014.072.043.1.057.1h.014c.029,0,.057-.029.072-.1a3.752,3.752,0,0,0,.344-.545C30.875-3.332,30.861-3.347,30.847-3.347Zm-7.4.115v.043h.029v-.043Zm1.133.158.029.014-.014.072h-.029a.053.053,0,0,0-.014-.043Zm-1.205,0-.043.029a.686.686,0,0,1-.143.244v.057c.043,0,.115-.086.2-.287v-.043Zm1.521.186H24.85a1.077,1.077,0,0,0-.1.287v.1h.014a.47.47,0,0,0,.129-.373Zm.473.072c-.014,0-.029.029-.057.072l.029.014a.177.177,0,0,0,.043-.029v-.057Zm-7.187.129h.014l.014.072-.129.4h-.043v-.014A1.079,1.079,0,0,1,18.18-2.687Zm12.151,0H30.3a2.294,2.294,0,0,1-.473.531l-.129.072v.072h-.086a.135.135,0,0,0-.115.086.031.031,0,0,0,.029.029H29.6c.014.1.029.143.043.143h.072a.621.621,0,0,1,.2-.287.182.182,0,0,1,.186-.143c.057,0,.1-.057.143-.186l.158-.143A.348.348,0,0,0,30.33-2.687Zm-5.365.043a.031.031,0,0,0-.029.029v.029l.029.043v.029c-.086.014-.129.115-.129.287q0,.022-.086.043l-.057-.043h-.014a.128.128,0,0,0-.072.115.031.031,0,0,0,.029.029h.029l.043-.029c.043,0,.115.043.186.158h.014q.043-.022.043-.043v-.057c0-.043-.014-.086-.014-.129,0-.014.014-.043.014-.057a.242.242,0,0,0-.029-.072c.043,0,.072-.1.072-.3C24.994-2.63,24.979-2.63,24.965-2.644ZM23.1-2.63a.308.308,0,0,0-.129.186,1.206,1.206,0,0,0-.258.387l.014.029a1.938,1.938,0,0,0,.4-.545V-2.6C23.129-2.615,23.114-2.615,23.1-2.63Zm6.785.043-.029.014.014.029.029-.014Zm-.086.115v.014l.014.029a.031.031,0,0,0,.029-.029v-.014Zm-5.035.086c-.043.014-.072.029-.072.043a.031.031,0,0,0,.029.029h.057v-.043Zm-6.785.316c0-.057.014-.086.057-.1h.014v.057a.2.2,0,0,1-.072.129Zm6.628.014v.014l.014.029.029-.014a.031.031,0,0,0-.029-.029Zm.545.316a.112.112,0,0,1,.043-.1v.057l-.014.072C25.152-1.711,25.152-1.711,25.152-1.74Zm4.232-.115c-.014,0-.029.029-.043.057a.053.053,0,0,0,.014.043c.043-.029.057-.057.057-.072s0-.014-.014-.029Zm-4.591.029q-.043.022-.043.043v.1a2.209,2.209,0,0,0-.043.23c0,.014.014.029.029.057a.325.325,0,0,0,.115-.273v-.115q-.022-.043-.043-.043ZM23.674-1.8l-.029.014a.971.971,0,0,1-.172.273.178.178,0,0,0,.029.043h.014a1.047,1.047,0,0,1,.172-.273v-.029Zm5.853.1c-.014,0-.014.014-.029.029v.014c0,.029.014.029.029.029s.029,0,.029-.029v-.014C29.556-1.683,29.556-1.7,29.527-1.7Zm-.488.344c.086-.1.143-.158.186-.158.029.043.057.072.057.086s-.029.014-.029.057c0,.014.029.029.115.057v.057c0,.014-.057.057-.143.158h-.115c0-.029,0-.043.014-.057.057-.043.1-.072.1-.072V-1.31l-.014-.029-.143.043a.031.031,0,0,1-.029-.029Zm-4.261-.014c-.029,0-.057.043-.072.129v.014a.031.031,0,0,0,.029.029h.014c.014,0,.029-.057.043-.158C24.779-1.353,24.779-1.353,24.779-1.367Zm-6.986.029h.029l.029.1a1.164,1.164,0,0,1-.072.2h-.014v-.014C17.764-1.109,17.778-1.209,17.792-1.338Zm4.3.33v-.029a.841.841,0,0,1,.2-.273h.014A.481.481,0,0,1,22.1-1.009Zm6.513-.158h.043c0,.014-.014.029-.014.043h-.029Zm-10.859.2q.043.022.043.043c0,.057-.014.086-.057.1A.442.442,0,0,0,17.749-.966Zm4.232.014h.057a.343.343,0,0,1-.115.23h-.014V-.765A.2.2,0,0,0,21.981-.951ZM23.1-.937c-.014,0-.029.029-.057.086,0,.029.014.029.029.029.043-.014.057-.043.057-.057V-.908C23.129-.922,23.114-.922,23.1-.937Zm-5.38.143h.014l.029.143a.906.906,0,0,1-.057.186h-.014l-.014-.072V-.578A.708.708,0,0,1,17.721-.793Zm6.986.072a.053.053,0,0,0,.043-.014c0,.029,0,.043.014.057-.014,0-.014.014-.014.043h-.029l-.014-.072Zm-1.75-.014v.029h.029V-.736Zm2.31.029c.029,0,.043.043.043.143a.729.729,0,0,1,.129.359c-.086,0-.143-.143-.172-.459Zm-3.472.1a.1.1,0,0,1,.057-.086h.014V-.65c0,.014-.014.029-.072.057Zm5.81.244c.014-.057.129-.115.33-.172a.789.789,0,0,1,.273-.1h.014v.043c-.014,0-.057.014-.115.029a2.053,2.053,0,0,1-.445.23A.108.108,0,0,0,27.6-.349Zm-2.84-.23c.043,0,.115.057.215.186v.057q-.022.043-.043.043h-.043q-.043-.022-.129-.258ZM22.77-.463l-.043.029a.031.031,0,0,0,.029.029h.014c.029,0,.029-.014.029-.029S22.8-.463,22.77-.463Zm5.494.043h.043v.014h-.043Zm-.115.057h.029v.014H28.15Zm-5.537.158a.713.713,0,0,0-.23.273c.086,0,.158-.086.244-.273Zm-4.964.072c0-.014.014-.014.029-.029h.014v.029Zm7.833-.014h.029a.109.109,0,0,0,.029.057v.014L25.481-.09Zm-.287.014q.043.022.043.043a.063.063,0,0,1-.043.014H25.18V-.1Zm8.65-8.119a1.212,1.212,0,0,0-.832.416,4.426,4.426,0,0,0-.789,1.449c-.6,1.721-1.019,2.84-1.234,3.357a5.543,5.543,0,0,0-.545,1.42,39.478,39.478,0,0,0-1.191,4.734v.043a.967.967,0,0,1,.186.215.6.6,0,0,0,.387.3.681.681,0,0,0,.344.143c.086,0,.143-.014.143-.029.172,0,.33-.2.488-.617.861-1.435,1.535-2.51,2.008-3.2A12.21,12.21,0,0,0,33.773-1.8a6.758,6.758,0,0,1,1.234-2.051c.717-1.1,1.291-1.65,1.75-1.65h.1a.651.651,0,0,1,.258.057,7.239,7.239,0,0,1,.947.775.929.929,0,0,0-.043-.143V-4.9h.014a.774.774,0,0,1,.244.273,1.863,1.863,0,0,1,.445.373h.014l.043-.029h.029a.365.365,0,0,0,.23.23c.029,0,.043-.014.043-.029v-.086q.215.065.215.129v.029q-.129.022-.129.043v.014q.194.215.3.215l.1-.014c.115.029.172.057.2.057l.072-.014v-.043L39.8-3.806V-3.82h.129c.014.072.029.115.057.115s.029-.014.029-.029v-.014L40-3.82h.072a1.92,1.92,0,0,0,1.506-1.047v-.014h-.014a1.325,1.325,0,0,0-.488.488q-.151,0-.43.3a5.33,5.33,0,0,1-.9.158h-.014l-.029.014c0-.014-.029-.014-.086-.014-.072-.115-.115-.172-.143-.172a.2.2,0,0,1-.086.029c0-.014-.014-.043-.057-.086a.587.587,0,0,1-.273-.2l-.33-.244a.221.221,0,0,1-.143-.23.175.175,0,0,1,.143.086c.172.086.258.143.273.186a1.053,1.053,0,0,1,.2.143l.316.115a.173.173,0,0,1,.129-.086.768.768,0,0,1,.129.1H39.8q.043-.022.043-.043l.1.115h.029a.643.643,0,0,0,.158-.014c.043,0,.072-.057.1-.2a.521.521,0,0,0,.158.043h.043c.2,0,.488-.2.832-.617a1.722,1.722,0,0,1,.732-.516c0-.186-.057-.287-.172-.287l-.086.014a.381.381,0,0,1-.186-.143l-.057.057.029.186c-.043.043-.057.072-.057.086a.7.7,0,0,0,.057.158v.043H41.5c-.029,0-.043-.057-.072-.143-.014,0-.029.014-.043.057l.014.086c-.545.545-.918.818-1.1.818a.322.322,0,0,1-.215-.115H40.07a.321.321,0,0,0-.143.043h-.014c-.057-.115-.115-.172-.158-.172l-.23.029a2.034,2.034,0,0,1-1.334-.832C37.531-6.474,36.929-6.9,36.4-6.9c-.488,0-.99.344-1.549,1.019a.621.621,0,0,1-.2.287v.057c0,.014,0,.029.029.029H34.7a.031.031,0,0,0,.029-.029.731.731,0,0,0,.158.057v.014c-.057,0-.129.115-.2.344v.014q.022.043.043.043h.014a.227.227,0,0,0,.172-.072v.014c0,.086-.129.215-.373.373q-.022,0-.086-.129c-.086,0-.158.1-.215.287-.086.043-.129.143-.129.316l.1-.014v.029a.4.4,0,0,1-.158.344h-.014q-.194-.172-.258-.172h-.029a.109.109,0,0,0-.115.086c0,.014,0,.029.029.029h.043c0-.029.014-.043.057-.057a1.351,1.351,0,0,1,.057.143.151.151,0,0,0-.158.115.1.1,0,0,0,.072.057v.014a1.052,1.052,0,0,0-.244.373c0,.1-.086.158-.273.215a.459.459,0,0,0,.115.244v.014c-.2.029-.287.057-.287.1v.115a.27.27,0,0,1-.029.115.135.135,0,0,0-.086.115v.043l.014.029.072-.014A2.929,2.929,0,0,1,33.27-2.7v.086a.549.549,0,0,1-.172.3,2.463,2.463,0,0,1-.43.99c-.158.3-.273.459-.33.459l-.029-.014-.143.287a16.158,16.158,0,0,1-1.334,2.482h-.014V1.875a.7.7,0,0,1,.086-.244A17.832,17.832,0,0,0,31.979-.722a7.732,7.732,0,0,0,.387-.8.487.487,0,0,0,.172-.172,2.044,2.044,0,0,1,.158-.5l-.029-.014h-.014q-.022,0-.172.172c-.215.473-.373.717-.488.717h-.029v-.014c.2-.732.359-1.277.488-1.607,0-.115.531-1.334,1.564-3.658a2.8,2.8,0,0,0,.244-1.133v-.072C34.232-8.11,34.088-8.253,33.844-8.253ZM34.963-5.24c.029-.029.043-.057.072-.057a.534.534,0,0,1,.258-.273c.057-.158.129-.23.215-.23l.086.014v.029c-.029,0-.043.014-.072.043l.014.143a.385.385,0,0,1-.215.33,1.836,1.836,0,0,1-.244.373,1.729,1.729,0,0,1-.43.617l-.115-.1.043-.115q.258-.258.344-.258c0-.1.1-.244.273-.43v-.029l-.1.014h-.1l-.029.014ZM33.1-5.413h.029c0,.014-.014.029-.014.057H33.1Zm.029.373c0-.057.043-.1.115-.172h.014v.043a.271.271,0,0,1-.1.2c-.014,0-.014-.014-.029-.029Zm-.3.23c.014-.043.029-.072.072-.086v.086Zm-.287.932a2.619,2.619,0,0,0,.287-.574A.512.512,0,0,1,33.07-4.8c-.158.287-.359.746-.617,1.348a7.685,7.685,0,0,0-.559,1.535c0,.143-.1.244-.3.287a.148.148,0,0,1,.014-.057c.115-.373.23-.717.359-1.033V-2.73c-.029,0-.072-.029-.1-.115,0-.072.057-.172.186-.33a6.262,6.262,0,0,1,.373-.8.053.053,0,0,0-.014-.043c.129-.3.23-.459.316-.473h.014a2.958,2.958,0,0,0-.23.617ZM32.8-4.71q.043,0,.043.086h-.014c-.014,0-.029-.029-.043-.057Zm1.449.316a.166.166,0,0,1,.115-.129.245.245,0,0,1,.086-.129h.029v.086q-.108,0-.129.172v.057c-.014,0-.043.014-.057.014s-.029-.014-.043-.014Zm4.39-.172h.014v.029h-.014Zm-6.455.029.057.014v.014h-.029C32.18-4.509,32.18-4.523,32.18-4.538Zm.072.273h.014l.014.043-.029.014Zm1.808.057c-.014,0-.014.014-.029.029l.014.072h.014c.029,0,.029-.014.029-.029v-.043C34.088-4.193,34.088-4.208,34.059-4.208Zm.273.344a.145.145,0,0,1,.129-.158l.029.014c-.029.1-.057.143-.086.143Zm-2.267.129c.043-.129.072-.2.115-.2v.014C32.137-3.806,32.094-3.734,32.065-3.734Zm1.793-.043c0-.029.029-.043.072-.043h.014a.292.292,0,0,1-.029.158c-.029-.029-.057-.043-.057-.057Zm.359.1c0-.086.029-.129.072-.129h.029l-.072.143Zm-2.224.072a.031.031,0,0,1,.029.029,4.644,4.644,0,0,1-.316.76h-.029v-.029c.029-.143.043-.2.072-.2A4.553,4.553,0,0,1,31.994-3.605Zm1.678.488c.014-.043.043-.057.057-.057a.053.053,0,0,0,.014.043v.014Zm-.029.316c0-.029,0-.029.029-.029h.043c-.029.029-.043.043-.043.072h-.029Zm-.775.215a.031.031,0,0,0-.029.029v.014c0,.029,0,.029.029.029h.043v-.043c0-.014-.014-.014-.029-.029Zm-.1.1q-.043.022-.043.043v.072a.031.031,0,0,0,.029.029q.043-.022.043-.043v-.1Zm.473.574q.043-.3.086-.3h.086v.043a1.272,1.272,0,0,1-.158.273h-.014Zm-.057.072H33.2c.014,0,.029.014.043.029-.014.057-.072.1-.143.158A.759.759,0,0,1,33.184-1.841ZM32.6-1.6l-.043.029a.143.143,0,0,0,.014.057h.014a.031.031,0,0,0,.029-.029v-.029Zm.445.014c.014,0,.029.014.029.057l-.014.014h-.029Zm-.23.43c0-.1.029-.143.115-.143v.057c-.043.057-.057.086-.072.086Zm-1.621.014H31.2v.057H31.19Zm-.072.215h.029v.014A5.78,5.78,0,0,1,30.86.225C30.774.67,30.674.9,30.588.9c0,0,0-.014-.029-.014l.014-.029V.641l.014-.014L30.574.612l-.057.014V.584h.043c.086,0,.129-.086.129-.23V.311a.645.645,0,0,0-.115.029c0-.029,0-.043-.014-.057.014,0,.029-.029.029-.1.057.043.086.086.086.115h.014c.029,0,.043-.043.057-.129a1.142,1.142,0,0,0,.186-.5A5.68,5.68,0,0,0,31.119-.922ZM30.143.469C30.172.412,30.2.4,30.215.4l.014.072V.5q0,.022-.086.043Zm-.143.6a.283.283,0,0,1,.086-.2.443.443,0,0,0,.029.115c-.057.072-.086.1-.1.1H30Zm.387.057c0-.014,0-.029.029-.029s.029.014.043.057l-.072-.014Zm-.4,0H30a.053.053,0,0,0,.014.043A.053.053,0,0,0,30,1.215L29.971,1.2ZM65.618-19.83a3.631,3.631,0,0,0-.545.043A2.465,2.465,0,0,0,63.8-19.3c0,.1-.215.158-.646.186a3.222,3.222,0,0,1-.918.459,7.549,7.549,0,0,0-1.65.99c-.2.244-.359.359-.473.359-.273.072-.416.143-.416.215-.473.373-.76.6-.832.674a.864.864,0,0,1-.545.4l-.287.33a2.331,2.331,0,0,0-.732.488c-.1,0-.215.158-.33.459q-.6.258-.6.387l.043.2v.029c0,.1-.316.459-.961,1.09a1.42,1.42,0,0,0-.4.086q0,.409-1.076,1.377a2.817,2.817,0,0,0-.7.99,2,2,0,0,0-.344.416c.014,0,.014,0,.014.014q.129,0,.344-.258a5.307,5.307,0,0,1,.9-1.019,8.863,8.863,0,0,1,1.133-1.062,7.05,7.05,0,0,1,.66-.717,10.158,10.158,0,0,1,1.449-1.291c.473-.445.76-.66.875-.66,0,.043.072.129.23.244v.043c0,.014-.029.043-.115.072a.212.212,0,0,0-.143-.129.788.788,0,0,0-.43.359c0,.029.057.057.158.1a.3.3,0,0,1-.158.115c-.014,0-.043-.029-.115-.1h-.014l-.287.23c.043.143.072.23.072.244a1,1,0,0,0-.158.057v-.172l-.029-.029c-.23.086-.344.186-.344.287l.014.029.244-.029c-.029.043-.086.129-.158.258a5.989,5.989,0,0,1-1.248,1.291,1.09,1.09,0,0,1-.559.545,2.025,2.025,0,0,1-.559.617,14.926,14.926,0,0,1-1.176,1.334,2.527,2.527,0,0,1-.516.689,3.172,3.172,0,0,1-.445.717,2.684,2.684,0,0,1-.387.875,5.967,5.967,0,0,0-.545,1.851v.029a.823.823,0,0,0,.014.172l.2.43V-4.9a.979.979,0,0,0,.057.287c.387.789.574,1.205.574,1.234h-.086a.2.2,0,0,1-.158-.086.77.77,0,0,0-.344-.387,1.374,1.374,0,0,1-.387-.746c-.086,0-.186-.373-.287-1.119a8.72,8.72,0,0,1,.258-1.234c.072-.158.115-.244.115-.258v-.143c0-.029-.043-.072-.158-.086-.029,0-.043.014-.072.043a.588.588,0,0,1-.2.5l.057.086a1.384,1.384,0,0,1-.143.43h-.043L50.972-6.4a1.967,1.967,0,0,0,.072-.459,3.651,3.651,0,0,1,.158-.488v-.057l-.043-.057c-.244.215-.359.717-.359,1.506v.129a3.8,3.8,0,0,0,.244,1.09A4.856,4.856,0,0,0,52.1-3.16,16.493,16.493,0,0,0,54.027-1.6q.882.473,1.506.861C56.7-.162,57.4.2,57.642.326c.932.4,1.406.846,1.406,1.348a2.023,2.023,0,0,1-.1.516,1.417,1.417,0,0,1-.746.746,8.818,8.818,0,0,1-3.658.846,5.917,5.917,0,0,1-1.191-.129,1.8,1.8,0,0,1-1.564-1.779,8.383,8.383,0,0,1,.2-1.449,2.845,2.845,0,0,0,.344-.717V-.306a.572.572,0,0,0-.244.043,1.657,1.657,0,0,1-.473.717c-.029,0-.043-.014-.043-.029V.412a1.353,1.353,0,0,1,.115-.4c0-.014-.014-.029-.029-.057l-.086.086A6.216,6.216,0,0,0,50.541,2.85,2.179,2.179,0,0,0,51,4.184a4.407,4.407,0,0,0,3.5,1.248h.129a9.548,9.548,0,0,0,3.715-.746,2.7,2.7,0,0,0,1.162-.746,2.433,2.433,0,0,0,.717-1.377V2.492a.266.266,0,0,0-.057-.143c-.115,0-.186-.186-.258-.559l.186-.072c0-.115-.115-.3-.344-.574-.129-.3-.244-.459-.33-.459A.014.014,0,0,1,59.407.7a.609.609,0,0,1,.072.172V.928a.038.038,0,0,1-.043.043h-.014c-.1,0-.416-.244-.918-.732-.287-.115-.43-.2-.445-.258L58.1-.033h.043c.158.057.23.086.244.086h.072c.043-.014.057-.029.057-.043V-.033L58.46-.1A2.053,2.053,0,0,1,57.9-.363a22.816,22.816,0,0,1-3-1.678,11.4,11.4,0,0,1-1.851-1.492,2.67,2.67,0,0,1-.76-1.98q0-1.937,4.347-6.269a49.587,49.587,0,0,1,3.988-3.486q4.433-3.357,6.025-3.357a1.781,1.781,0,0,1,.387.043.491.491,0,0,1,.287.516v.086a3.4,3.4,0,0,1-.086.746,6.437,6.437,0,0,1-.646,1.908,5.376,5.376,0,0,1-.7,1.549,21.173,21.173,0,0,1-2.066,2.883,3.662,3.662,0,0,0-.574.689,4.742,4.742,0,0,0-.516.473A6.577,6.577,0,0,1,61.4-8.712a2.812,2.812,0,0,0-.732.473c-.158.029-.244.086-.244.186,0,.072.014.1.072.1q.43.516.775.516h.115c.588,0,1.492-.574,2.7-1.693a20.362,20.362,0,0,0,2.023-2.267c1.75-2.439,2.64-4.39,2.64-5.853v-.129A2.161,2.161,0,0,0,68.1-19a3.62,3.62,0,0,0-2.381-.832Zm-3.8,2.224c0-.029.043-.043.115-.072a.155.155,0,0,1,.1.158c0,.014-.043.043-.115.086h-.029A.249.249,0,0,0,61.817-17.606Zm-1.564,1.119c.057-.072.086-.129.1-.143.416-.215.631-.33.646-.33a4.077,4.077,0,0,1,.717-.473c.029,0,.072.029.086.1-.014.072-.186.172-.531.316-.086,0-.23.115-.445.316a.908.908,0,0,0-.473.23Zm-.717-.33h.129a.387.387,0,0,1-.115.1h-.014Zm8.292.143.072-.072c.043.029.057.043.057.057v.014l-.057.1A.357.357,0,0,1,67.827-16.674Zm-7.99.244c.029-.043.043-.057.057-.057h.086c-.014.072-.043.1-.086.115,0-.014-.014-.029-.057-.029Zm7.9.258a.224.224,0,0,1,.086-.172,2.148,2.148,0,0,1-.043.258h-.043Zm-.143-.158.029.029c0,.014,0,.029-.029.029Zm-9.052.975a2.471,2.471,0,0,1,.531-.588.444.444,0,0,0,.33-.115h.029a.142.142,0,0,1,.072.1c0,.014-.072.086-.244.172a.714.714,0,0,1-.674.43Zm-.287-.445c0-.014.029-.043.086-.057v.1h-.086Zm9.224.273a.43.43,0,0,1,.129-.143.325.325,0,0,1-.129.287Zm-.473.717.143-.1c.057-.014.143-.143.273-.373v.043a2.46,2.46,0,0,1-.445,1c-.1.359-.2.531-.316.531h-.014v-.014l.014-.115a2.647,2.647,0,0,0,.387-.76v-.072A.242.242,0,0,0,67.01-14.809ZM55.734-13.676l-.029.029.014.029c.029,0,.029-.014.029-.029v-.029Zm10.687.373a.331.331,0,0,1,.186-.316h.029v.129c0,.1-.072.158-.2.186Zm-9.267-.244a.031.031,0,0,1,.029-.029h.029a.207.207,0,0,0-.029.043Zm-1.578.043c-.086,0-.2.086-.33.287,0,.029.029.043.086.072.029,0,.1-.115.244-.33Zm10.716.43a.092.092,0,0,1,.072-.1v.072A.079.079,0,0,0,66.292-13.073Zm-10.243.129c-.086.057-.129.086-.129.115v.029a.326.326,0,0,0,.2-.1.038.038,0,0,0-.043-.043Zm9.454,1.09a3.955,3.955,0,0,1,.617-.975,1.8,1.8,0,0,1-.588.975Zm-10.8-.732c-.115,0-.23.1-.359.316,0,.029,0,.029.029.029h.014a.107.107,0,0,0,.072-.014,1.379,1.379,0,0,1,.258-.287Zm.9.043c-.115,0-.186.072-.2.23a.038.038,0,0,0,.043.043h.143c.029-.014.057-.1.115-.258l-.043-.014Zm-.287.23c-.129.129-.2.23-.2.3.014,0,.014,0,.014.014a.234.234,0,0,0,.244-.172C55.361-12.255,55.347-12.313,55.318-12.313Zm-1.234.3c-.072.029-.1.057-.115.1s.014.057.043.057H54.1a.038.038,0,0,0,.043-.043v-.115Zm.9.072-.273.273v.029a1.42,1.42,0,0,0,.344-.23V-11.9C55.06-11.911,55.046-11.925,54.988-11.94Zm10.314.215.072-.014H65.4l-.029.086H65.3ZM53.74-11.739c-.029,0-.029,0-.043.029v.043l.029.029c.072-.029.115-.057.115-.072v-.014Zm.846.215c-.072,0-.143.057-.2.158-.186.158-.287.258-.287.316v.029l.014.043a.2.2,0,0,0,.115-.1c.258-.115.387-.258.387-.387V-11.5Zm-1.1.129c-.029,0-.057.057-.1.158v.014a.245.245,0,0,0,.158-.072C53.539-11.323,53.525-11.352,53.482-11.395Zm11.462.158q0-.043.129-.086h.014v.1c0,.014-.029.043-.086.072h-.043Zm-10.931.258c-.086.057-.129.115-.129.158l.029.014h.043c.086,0,.129-.043.129-.115v-.029c0-.014-.014-.029-.043-.029Zm-.172.33c-.23.086-.344.2-.344.359v.014a1.613,1.613,0,0,0,.373-.258v-.086Zm-.416.445c-.014,0-.029.014-.029.043v.029c0,.029.014.043.029.043l.072-.057c-.014-.043-.029-.057-.043-.057Zm-.559.129c-.029,0-.057.014-.115.057h-.014a.277.277,0,0,1-.143-.043l-.029.029c0,.029.043.1.143.215.115-.086.172-.158.172-.2A.108.108,0,0,0,52.865-10.075Zm.459.057v.029l.014.043a.038.038,0,0,0,.043-.043c0-.014-.014-.029-.043-.029Zm-.143.143c-.043.014-.057.043-.057.057v.057a.031.031,0,0,0,.029.029h.1a.077.077,0,0,0,.043-.057v-.057c0-.014,0-.029-.029-.029Zm-.186.273c-.057,0-.115.043-.158.143a.231.231,0,0,0,.043.129.266.266,0,0,0,.129-.244Zm-.8.344c-.014,0-.043.043-.057.115a.137.137,0,0,0,.1.086q.086-.065.086-.086v-.029c-.029-.057-.057-.086-.072-.086Zm.531.057c-.115,0-.186.057-.2.2l.014.029c.143-.057.2-.129.2-.23Zm-.359.488a1.067,1.067,0,0,0-.273.359v.043a.386.386,0,0,0,.3-.359v-.043Zm-.574.875a.326.326,0,0,0-.143.273l.014.029c.129-.014.186-.072.186-.158v-.043C51.847-7.794,51.832-7.823,51.789-7.837Zm-.287.072c-.014,0-.029.014-.057.072l.029.086h.014c.029,0,.029-.014.029-.029v-.1Zm.689,3.414c.029,0,.043.014.043.029h-.043Zm.445.875c.1,0,.172.072.215.23C52.75-3.246,52.664-3.318,52.636-3.476Zm-.072.244h.014v.057h-.014Zm.387.129c.186.043.273.115.273.215v.057l-.086.014c-.115-.129-.186-.215-.186-.273Zm.029.33a.053.053,0,0,0,.043-.014c0,.014.014.014.029.014l-.029.043c-.014-.014-.029-.029-.043-.029Zm.287.014.029-.014c0,.014.014.029.029.057V-2.7h-.043A.108.108,0,0,0,53.267-2.759Zm.344.215h.014V-2.5h-.014Zm.23.23a.4.4,0,0,1,.258.086c-.014.029-.029.057-.057.057-.072,0-.129-.043-.2-.129Zm1.09.559L55-1.74v.014h-.014C54.96-1.726,54.931-1.726,54.931-1.754Zm.947.43c.029.014.043.029.057.029s-.014.029-.043.029l-.029-.014Zm.516.531a.223.223,0,0,1,.2-.086h.029v.014c0,.029-.072.057-.215.072Zm-4.2.043a.459.459,0,0,0-.1.014,1.13,1.13,0,0,0-.387.617h.043a2.084,2.084,0,0,0,.459-.6Zm5.336.488h.029a.609.609,0,0,0,.172.072h.057l.086-.029c0,.014.043.043.1.115-.043,0-.072.014-.1.014a1.348,1.348,0,0,1-.344-.158ZM58.589.11V.139l.129.143a.1.1,0,0,0,.1-.057V.182C58.79.139,58.775.11,58.747.11Zm.344.172c-.014,0-.029.014-.043.029V.354a.979.979,0,0,0,.4.244h.029C59.191.383,59.062.283,58.933.283Zm2.525.674V1h.029L61.53.985c0-.014-.014-.029-.043-.029Zm-2.094,2.4a.207.207,0,0,0,.029-.129,1.078,1.078,0,0,0,.215-.459c0-.158.057-.244.158-.273a.194.194,0,0,1,.072.143v.029c-.186.459-.344.689-.445.689Zm-.215-.5c.072-.172.115-.273.143-.273l-.129.3h-.014Zm-1.42,1.291c.172-.172.316-.273.4-.273.373-.4.6-.617.732-.617,0,.072-.072.172-.215.33a2.023,2.023,0,0,1-.846.588h-.029Zm1.162-.516h.043v.014H58.89Zm-1.707.746a1.371,1.371,0,0,0,.373-.129.031.031,0,0,1,.029.029.8.8,0,0,1-.3.115h-.1Zm-1.062.287q0-.172.215-.172l.129.029v.014a.446.446,0,0,1-.33.158h-.014Zm-2.64.086.086-.014c.029,0,.1.014.2.029V4.8a.659.659,0,0,0-.143.014c-.014,0-.072-.014-.143-.029Zm.947.129h.029v.014h-.029ZM70.509-8.368h-.086A5.576,5.576,0,0,0,67.21-6.976a19.685,19.685,0,0,0-1.894,1.75,10.208,10.208,0,0,0-1.1,1.549c-.129.215-.373.76-.746,1.607a5.827,5.827,0,0,0-.258,1.305,2.766,2.766,0,0,0,.918,1.98,4.345,4.345,0,0,0,2.926,1.148H67.3a7.978,7.978,0,0,0,1.062-.1A6.366,6.366,0,0,0,71.126.856a3.762,3.762,0,0,1,.732-.631,3.246,3.246,0,0,0,.674-.646.014.014,0,0,1-.014-.014c-.115.057-.344.215-.7.459a8.828,8.828,0,0,1-1.248.889,1.489,1.489,0,0,1-.689.373.818.818,0,0,1,.23-.2,3.378,3.378,0,0,0,.717-.459A3.2,3.2,0,0,0,71.4.268c.273-.143.416-.244.416-.3.287-.258.545-.488.789-.674.129-.143.215-.23.244-.23h.014l-.287.445a.3.3,0,0,0,.186-.1,6.228,6.228,0,0,0,.875-.918,3.039,3.039,0,0,0,.617-.947,1.183,1.183,0,0,0,.2-.387v-.043a.2.2,0,0,0-.029-.086v-.043a1.657,1.657,0,0,0,.244-.674.182.182,0,0,0-.014-.086c-.1,0-.23.158-.416.488-.143.244-.43.646-.832,1.205v.029l.029.043V-2a1.129,1.129,0,0,1-.316.359v.086h.086c.043,0,.057-.057.057-.158.043.029.057.043.057.057v.043c0,.072-.072.158-.244.258a.854.854,0,0,0-.129-.258h-.014a1.2,1.2,0,0,0-.4.416c.014,0,.014,0,.014.014h.014c.23-.215.359-.33.4-.33a1.144,1.144,0,0,0,.057.23.469.469,0,0,0-.215.33h-.186c0-.029-.029-.057-.086-.057h-.014l-.129.086c-.086,0-.115.043-.129.129,0,.029-.029.072-.115.129v.029c.043.043.057.072.057.086a2.543,2.543,0,0,1-.244.143.171.171,0,0,0-.115-.057h-.014a1.272,1.272,0,0,0,.014.186l-.23.043v.1a3.034,3.034,0,0,0-.445.344,3.376,3.376,0,0,0-.76.373l.014-.072h-.115a1.9,1.9,0,0,1-.344.129V.727h-.086a1.576,1.576,0,0,1-.4.186.934.934,0,0,0-.588.258h-.043a2.286,2.286,0,0,0-.732.215,2.16,2.16,0,0,1-.918.23,2.834,2.834,0,0,1-.961-.172A1.93,1.93,0,0,1,64.986-.521V-.564a4.35,4.35,0,0,1,.574-2.008h.014c0,.23.057.373.186.445a.566.566,0,0,0,.23.3,2.967,2.967,0,0,0,1.033.287c.818,0,1.965-.6,3.443-1.793C71.973-4.667,72.719-5.8,72.719-6.7a1.217,1.217,0,0,0-.473-.932,3.09,3.09,0,0,1-.588-.4C71.557-8.253,71.169-8.368,70.509-8.368Zm-4.2,4.6a9.888,9.888,0,0,1,1.248-1.392,12.211,12.211,0,0,1,1.908-1.435A5.844,5.844,0,0,1,71.3-7.321h.158q.258,0,.258.215c0,.23-.23.574-.674.99-.875.875-1.75,1.693-2.611,2.453a10.474,10.474,0,0,1-1.262.932.694.694,0,0,1-.488.186h-.014a.571.571,0,0,1-.459-.2c-.129-.273-.2-.416-.2-.416a1.506,1.506,0,0,1,.316-.559A.053.053,0,0,0,66.306-3.763Zm5.595-3.5h.057c.029.172.043.287.043.316a1.428,1.428,0,0,1-.43.846,11.614,11.614,0,0,1-1.793,1.607h-.029a.906.906,0,0,1,.215-.172,6.372,6.372,0,0,0,1.291-1.262q.689-.753.689-.99a1.874,1.874,0,0,0-.043-.33ZM66.464-4.982c0-.057.029-.086.072-.086v.057A.242.242,0,0,0,66.464-4.982ZM64.441-2.214a.937.937,0,0,1,.172-.373,7.415,7.415,0,0,1,1.076-1.592,2.305,2.305,0,0,1,.617-.66h.029a.548.548,0,0,1-.129.215c-.861,1.1-1.348,1.75-1.449,1.922q-.194.516-.3.516h-.014Zm1.406-.33a.242.242,0,0,1,.072.029c.172.158.287.23.344.23h.057a.363.363,0,0,0,.2-.1h.072v.014a2.483,2.483,0,0,1-.43.215l-.072-.014-.057.029a.64.64,0,0,1-.186-.33Zm-.99.043H64.9l.014.072v.014H64.9q-.043-.022-.043-.043Zm-.818.158h.014v.057H64.04Zm.23.445c0-.072.057-.143.2-.23a.723.723,0,0,1-.158.33h-.029l-.014-.072Zm.387-.186a.213.213,0,0,1,.1.014v.029c-.029.043-.057.072-.072.072,0-.043-.014-.057-.043-.057C64.642-2.056,64.656-2.07,64.656-2.084Zm-.1.172h.115a1.279,1.279,0,0,1-.129.43c-.057.029-.086.158-.086.416a8.217,8.217,0,0,0-.158.875v.1c.115.588.23.875.316.875q.043-.022.043-.043V.727a.655.655,0,0,1-.115-.316V.283L64.57.3a3.475,3.475,0,0,1,.574,1.047V1.4a.053.053,0,0,0-.043.014c-.23,0-.488-.244-.8-.717a3.531,3.531,0,0,1-.2-1.09,3.515,3.515,0,0,1,.287-1.191A1.37,1.37,0,0,0,64.556-1.912Zm-.9.559a1.192,1.192,0,0,1,.115-.359c.029-.115.072-.186.129-.186l.014.072v.043a.99.99,0,0,1-.186.531C63.71-1.252,63.681-1.3,63.652-1.353Zm.459-.172c0-.014.029-.043.1-.072l.014.072c0,.043-.029.072-.057.115-.014,0-.029-.029-.057-.072Zm-.014.172h.014c.043.014.057.043.057.1v.029l-.014.029c-.014,0-.043-.029-.086-.057Zm8.894.3c.186-.2.287-.3.316-.3v.072a.741.741,0,0,0-.258.258Zm-9.4.014a.108.108,0,0,1,.072-.1c.057,0,.1.057.1.186a.442.442,0,0,1-.029.158q.022.538.043.732c0,.1.029.143.086.143a1.27,1.27,0,0,0,.158.373c-.244,0-.4-.359-.445-1.076,0-.115.014-.244.014-.387Zm8.751.23h.1c0,.029,0,.043.014.057h-.1A.086.086,0,0,0,72.346-.808ZM70.194.684a.18.18,0,0,1,.129-.072h.029c0,.014-.057.029-.143.072Zm-.875.488a.111.111,0,0,0,.043-.014h.014v.014a.053.053,0,0,0-.043.014h-.014Zm-2.4.631.072.043-.014.029-.086-.014V1.846Zm.244.072c.072-.014.115-.029.129-.029h.014c.143.014.215.043.215.072,0,0-.043.014-.1.029a.651.651,0,0,1-.258-.057Zm.23.23a2.64,2.64,0,0,0,.588-.072l.129.086c0,.029-.043.043-.143.057a2.765,2.765,0,0,0-.359-.043H67.4ZM77.323-8.253a1.212,1.212,0,0,0-.832.416A4.427,4.427,0,0,0,75.7-6.388c-.6,1.721-1.019,2.84-1.234,3.357a5.543,5.543,0,0,0-.545,1.42,39.477,39.477,0,0,0-1.191,4.734v.043a.967.967,0,0,1,.186.215.6.6,0,0,0,.387.3.681.681,0,0,0,.344.143c.086,0,.143-.014.143-.029.172,0,.33-.2.488-.617.861-1.435,1.535-2.51,2.008-3.2A12.211,12.211,0,0,0,77.251-1.8a6.758,6.758,0,0,1,1.234-2.051c.717-1.1,1.291-1.65,1.75-1.65h.1a.651.651,0,0,1,.258.057,7.238,7.238,0,0,1,.947.775A.929.929,0,0,0,81.5-4.81V-4.9h.014a.774.774,0,0,1,.244.273,1.863,1.863,0,0,1,.445.373h.014l.043-.029h.029a.365.365,0,0,0,.23.23c.029,0,.043-.014.043-.029v-.086q.215.065.215.129v.029q-.129.022-.129.043v.014q.194.215.3.215l.1-.014c.115.029.172.057.2.057l.072-.014v-.043l-.043-.057V-3.82h.129c.014.072.029.115.057.115s.029-.014.029-.029v-.014l-.014-.072h.072a1.92,1.92,0,0,0,1.506-1.047v-.014h-.014a1.325,1.325,0,0,0-.488.488q-.151,0-.43.3a5.33,5.33,0,0,1-.9.158H83.2l-.029.014c0-.014-.029-.014-.086-.014-.072-.115-.115-.172-.143-.172a.2.2,0,0,1-.086.029c0-.014-.014-.043-.057-.086a.587.587,0,0,1-.273-.2l-.33-.244a.221.221,0,0,1-.143-.23.175.175,0,0,1,.143.086c.172.086.258.143.273.186a1.053,1.053,0,0,1,.2.143l.316.115a.173.173,0,0,1,.129-.086.768.768,0,0,1,.129.1h.029q.043-.022.043-.043l.1.115h.029a.643.643,0,0,0,.158-.014c.043,0,.072-.057.1-.2a.521.521,0,0,0,.158.043h.043c.2,0,.488-.2.832-.617a1.722,1.722,0,0,1,.732-.516c0-.186-.057-.287-.172-.287l-.086.014a.381.381,0,0,1-.186-.143l-.057.057L85-5.7c-.043.043-.057.072-.057.086A.7.7,0,0,0,85-5.456v.043h-.014c-.029,0-.043-.057-.072-.143-.014,0-.029.014-.043.057l.014.086c-.545.545-.918.818-1.1.818a.322.322,0,0,1-.215-.115h-.014a.321.321,0,0,0-.143.043h-.014c-.057-.115-.115-.172-.158-.172L83-4.81a2.034,2.034,0,0,1-1.334-.832C81.01-6.474,80.407-6.9,79.876-6.9c-.488,0-.99.344-1.549,1.019a.621.621,0,0,1-.2.287v.057c0,.014,0,.029.029.029h.029a.031.031,0,0,0,.029-.029.731.731,0,0,0,.158.057v.014c-.057,0-.129.115-.2.344v.014q.022.043.043.043h.014A.227.227,0,0,0,78.4-5.14v.014c0,.086-.129.215-.373.373q-.022,0-.086-.129c-.086,0-.158.1-.215.287-.086.043-.129.143-.129.316l.1-.014v.029a.4.4,0,0,1-.158.344h-.014q-.194-.172-.258-.172h-.029a.109.109,0,0,0-.115.086c0,.014,0,.029.029.029h.043c0-.029.014-.043.057-.057a1.351,1.351,0,0,1,.057.143.151.151,0,0,0-.158.115.1.1,0,0,0,.072.057v.014a1.052,1.052,0,0,0-.244.373c0,.1-.086.158-.273.215a.459.459,0,0,0,.115.244v.014c-.2.029-.287.057-.287.1v.115a.27.27,0,0,1-.029.115.135.135,0,0,0-.086.115v.043l.014.029.072-.014a2.928,2.928,0,0,1,.244-.344v.086a.549.549,0,0,1-.172.3,2.463,2.463,0,0,1-.43.99c-.158.3-.273.459-.33.459l-.029-.014-.143.287A16.158,16.158,0,0,1,74.31,1.889H74.3V1.875a.7.7,0,0,1,.086-.244A17.832,17.832,0,0,0,75.458-.722a7.735,7.735,0,0,0,.387-.8.487.487,0,0,0,.172-.172,2.044,2.044,0,0,1,.158-.5l-.029-.014h-.014q-.022,0-.172.172c-.215.473-.373.717-.488.717h-.029v-.014c.2-.732.359-1.277.488-1.607,0-.115.531-1.334,1.564-3.658a2.8,2.8,0,0,0,.244-1.133v-.072C77.71-8.11,77.567-8.253,77.323-8.253ZM78.442-5.24c.029-.029.043-.057.072-.057a.534.534,0,0,1,.258-.273c.057-.158.129-.23.215-.23l.086.014v.029c-.029,0-.043.014-.072.043l.014.143a.385.385,0,0,1-.215.33,1.836,1.836,0,0,1-.244.373,1.729,1.729,0,0,1-.43.617l-.115-.1.043-.115q.258-.258.344-.258c0-.1.1-.244.273-.43v-.029l-.1.014h-.1l-.029.014Zm-1.865-.172h.029c0,.014-.014.029-.014.057h-.014Zm.029.373c0-.057.043-.1.115-.172h.014v.043a.271.271,0,0,1-.1.2c-.014,0-.014-.014-.029-.029Zm-.3.23c.014-.043.029-.072.072-.086v.086Zm-.287.932a2.619,2.619,0,0,0,.287-.574.512.512,0,0,1,.244-.344c-.158.287-.359.746-.617,1.348a7.684,7.684,0,0,0-.559,1.535c0,.143-.1.244-.3.287a.148.148,0,0,1,.014-.057c.115-.373.23-.717.359-1.033V-2.73c-.029,0-.072-.029-.1-.115,0-.072.057-.172.186-.33a6.262,6.262,0,0,1,.373-.8.053.053,0,0,0-.014-.043c.129-.3.23-.459.316-.473h.014a2.958,2.958,0,0,0-.23.617Zm.258-.832q.043,0,.043.086H76.3c-.014,0-.029-.029-.043-.057Zm1.449.316a.166.166,0,0,1,.115-.129.245.245,0,0,1,.086-.129h.029v.086q-.108,0-.129.172v.057c-.014,0-.043.014-.057.014s-.029-.014-.043-.014Zm4.39-.172h.014v.029h-.014Zm-6.455.029.057.014v.014h-.029C75.659-4.509,75.659-4.523,75.659-4.538Zm.072.273h.014l.014.043-.029.014Zm1.808.057c-.014,0-.014.014-.029.029l.014.072h.014c.029,0,.029-.014.029-.029v-.043C77.567-4.193,77.567-4.208,77.538-4.208Zm.273.344a.145.145,0,0,1,.129-.158l.029.014c-.029.1-.057.143-.086.143Zm-2.267.129c.043-.129.072-.2.115-.2v.014C75.616-3.806,75.573-3.734,75.544-3.734Zm1.793-.043c0-.029.029-.043.072-.043h.014a.292.292,0,0,1-.029.158c-.029-.029-.057-.043-.057-.057Zm.359.1c0-.086.029-.129.072-.129H77.8l-.072.143Zm-2.224.072a.031.031,0,0,1,.029.029,4.643,4.643,0,0,1-.316.76h-.029v-.029c.029-.143.043-.2.072-.2A4.553,4.553,0,0,1,75.472-3.605Zm1.678.488c.014-.043.043-.057.057-.057a.053.053,0,0,0,.014.043v.014Zm-.029.316c0-.029,0-.029.029-.029h.043c-.029.029-.043.043-.043.072h-.029Zm-.775.215a.031.031,0,0,0-.029.029v.014c0,.029,0,.029.029.029h.043v-.043c0-.014-.014-.014-.029-.029Zm-.1.1q-.043.022-.043.043v.072a.031.031,0,0,0,.029.029q.043-.022.043-.043v-.1Zm.473.574q.043-.3.086-.3h.086v.043a1.272,1.272,0,0,1-.158.273H76.72Zm-.057.072h.014c.014,0,.029.014.043.029-.014.057-.072.1-.143.158A.759.759,0,0,1,76.663-1.841Zm-.588.244-.043.029a.143.143,0,0,0,.014.057h.014a.031.031,0,0,0,.029-.029v-.029Zm.445.014c.014,0,.029.014.029.057l-.014.014h-.029Zm-.23.43c0-.1.029-.143.115-.143v.057c-.043.057-.057.086-.072.086Zm-1.621.014h.014v.057h-.014ZM74.6-.922h.029v.014A5.78,5.78,0,0,1,74.339.225C74.253.67,74.153.9,74.066.9c0,0,0-.014-.029-.014l.014-.029V.641l.014-.014L74.052.612l-.057.014V.584h.043c.086,0,.129-.086.129-.23V.311a.645.645,0,0,0-.115.029c0-.029,0-.043-.014-.057.014,0,.029-.029.029-.1.057.043.086.086.086.115h.014c.029,0,.043-.043.057-.129a1.142,1.142,0,0,0,.186-.5A5.679,5.679,0,0,0,74.6-.922ZM73.622.469C73.65.412,73.679.4,73.693.4l.014.072V.5q0,.022-.086.043Zm-.143.6a.283.283,0,0,1,.086-.2.444.444,0,0,0,.029.115c-.057.072-.086.1-.1.1h-.014Zm.387.057c0-.014,0-.029.029-.029s.029.014.043.057l-.072-.014Zm-.4,0h.014a.053.053,0,0,0,.014.043.053.053,0,0,0-.014.043L73.45,1.2ZM94.9-10.089c-.861,0-1.721.617-2.6,1.851a5.625,5.625,0,0,0-1.09,2.9v.115A2.113,2.113,0,0,0,91.7-3.835c0,.014-.029.029-.072.043-.129.258-.258.4-.373.43-.086.23-.158.344-.244.344v-.014a.124.124,0,0,0-.086.043c-.029.186-.1.273-.23.273a.465.465,0,0,0-.273.215c-.014.215-.043.344-.1.387a5.743,5.743,0,0,0-.889.8A10.562,10.562,0,0,1,87.78.34c-.889.8-1.492,1.205-1.836,1.205A2.4,2.4,0,0,1,85.6.182v-.33a20.912,20.912,0,0,1,1.392-6.283,7.57,7.57,0,0,0,.488-1.449v-.043c0-.043-.014-.086-.014-.115a.9.9,0,0,0-.947-.559,1,1,0,0,0-.732.244,11.249,11.249,0,0,0-.7,2.252A23.509,23.509,0,0,0,83.792-.363v.244a2.862,2.862,0,0,0,.516,1.764,2,2,0,0,0,1.822.861,2.586,2.586,0,0,0,1.478-.373A25.407,25.407,0,0,0,90.534-.808c.387-.445.76-.889,1.119-1.363l.861-1.119v.057a7.321,7.321,0,0,0,1.592.559,3.134,3.134,0,0,0,1,.244.685.685,0,0,0,.316-.043.462.462,0,0,0-.014-.115c0-.057-.244-.1-.76-.129a1.118,1.118,0,0,0-.359-.143,2.845,2.845,0,0,0-.646-.273,1.536,1.536,0,0,0-.244-.3l-.23.043H93.16v-.043c.057-.014.086-.029.1-.029V-3.49s-.029-.029-.1-.086h-.029l-.014.1H93.1a.388.388,0,0,0-.043-.115l.115-.129a.257.257,0,0,1,.115.057,3.492,3.492,0,0,0,.66.4.251.251,0,0,1,.2.143.882.882,0,0,0,.258.172,1.265,1.265,0,0,0,.559.186l.172-.014a4.257,4.257,0,0,1,.947.215c.416-.029.631-.1.631-.215,0-.029-.072-.057-.2-.086-.043-.115-.072-.158-.086-.158-.143.057-.316.115-.531.186-.043,0-.072-.043-.115-.129-.115,0-.316-.014-.6-.029v-.043l.158-.014h.014v-.029c-.029,0-.043,0-.043-.014a1.308,1.308,0,0,1-.932-.23,4.916,4.916,0,0,1-1.205-.818q.022-.043.043-.043c0-.072-.014-.1-.043-.115H93.16c0,.029-.014.043-.029.043v-.014a27.246,27.246,0,0,0,2.453-3.5,2.825,2.825,0,0,0,.646-1.492v-.057c-.014-.3-.158-.445-.416-.445h-.086c-.129.043-.2.072-.215.072-.057,0-.129-.086-.2-.258C95.254-10.046,95.111-10.089,94.9-10.089ZM92.787-5.1a4.7,4.7,0,0,1,.947-2.3c.674-.932,1.191-1.42,1.549-1.492h.029q.043.022.043.043v.086a.606.606,0,0,1-.072.23,4.347,4.347,0,0,0-.3.617q.043.022.043.043v.014l-.215.186v.014l.072.23c0,.014-.014.014-.043.029a.242.242,0,0,1-.072-.029c-.029,0-.072.086-.143.244a.849.849,0,0,0-.23.33v.014c0,.057,0,.086.029.086h.029a.211.211,0,0,0,.186-.115c.029,0,.029.014.029.029v.057l-.014.029c-.129.043-.2.086-.2.115-.043-.043-.086-.072-.115-.1a.489.489,0,0,0-.158.273v.014h.043l.043-.029h.014l.129.014-.014.029a.242.242,0,0,0-.244.186c-.115.014-.172.029-.172.072v.014a.053.053,0,0,0,.014.043c.057.043.086.072.086.1l-.043.029h-.029a.283.283,0,0,0-.115-.057.936.936,0,0,0-.244.416l.014.029a.266.266,0,0,0,.1-.029c.057-.1.1-.143.129-.143.186-.1.287-.2.287-.3,0-.014-.029-.043-.057-.072v-.029l.1.014v-.014c.057-.1.1-.143.1-.158h.014v.014l-.086.287a7.082,7.082,0,0,0-.516.646c0-.029,0-.043-.029-.043-.057,0-.1.029-.115.115-.029-.029-.043-.043-.043-.057v-.014L93.6-5.47v-.043l-.014-.029c-.057,0-.086.029-.086.1a2,2,0,0,0-.3.5s.043.043.129.115h.043a.1.1,0,0,0,.057-.1v-.014a.514.514,0,0,1-.057-.158V-5.14q0-.022.086-.043H93.5c0,.014-.029.043-.057.086v.043c0,.014,0,.029.029.043v.1c0,.057-.115.143-.33.258a.6.6,0,0,1-.129.33.919.919,0,0,1-.23-.631Zm-1.32.172a3.049,3.049,0,0,1,.359-.932,2.91,2.91,0,0,0,.3-.459,2.527,2.527,0,0,1,.574-.889,1.307,1.307,0,0,1,.373-.445c.488-.574.8-.861.961-.861h.014V-8.5a.257.257,0,0,0-.1.072.9.9,0,0,1-.244.416,1.706,1.706,0,0,1-.488.588A1.332,1.332,0,0,1,93-7.062c-.143,0-.258.086-.344.273a.155.155,0,0,0,.043.1v.014a1.27,1.27,0,0,0-.33.43l.014.029c.129.057.2.115.2.186h-.115a.445.445,0,0,1-.186.086L92.2-5.958H92.17A.418.418,0,0,0,92-5.642v.014a.031.031,0,0,0,.029.029h.086l.086.014a.5.5,0,0,1-.029.186.142.142,0,0,0-.086-.029c0-.014.014-.057.029-.115v-.014l-.1-.014H92c-.057.057-.1.1-.115.1a.829.829,0,0,0,.1.258v.057l-.057-.029c-.014,0-.043-.072-.072-.215H91.84c-.029,0-.043.014-.043.072-.115.1-.172.158-.172.158v.014a.6.6,0,0,0,.086.2.574.574,0,0,1-.172.158C91.51-4.8,91.481-4.839,91.467-4.925Zm3.83-3h.014c0,.014.014.029.043.029a1.511,1.511,0,0,1-.4.674c-.072.172-.143.244-.2.244h-.014A5.774,5.774,0,0,1,95.3-7.923Zm-2.525.143c0-.072.029-.115.057-.115H92.9v.029c0,.043-.014.072-.072.086Zm-.072.072h.014q.043.022.043.043v.014c0,.014-.014.029-.057.043Zm-.2.344c0-.057.043-.115.129-.186h.014v.014a.031.031,0,0,1-.029.029c-.014.143-.057.2-.1.215Zm-.1.115.072.014v.029c-.029.029-.043.057-.057.057L92.4-7.22Zm-5.738.359c.014,0,.029.029.043.057a.416.416,0,0,0-.086.23H86.6c0-.014-.014-.043-.014-.057A.433.433,0,0,1,86.661-6.89Zm4.949.8a.875.875,0,0,1,.215-.316h.014c.014,0,.029.029.043.072-.029.115-.057.186-.1.186-.072.1-.115.158-.129.158S91.625-6.015,91.61-6.087ZM94.336-6.4h.014v.057h-.014Zm-8.019.158a.728.728,0,0,0,.129-.029l.014.072v.014a.424.424,0,0,1-.1.23c-.072.344-.143.516-.187.516-.014,0-.029-.029-.043-.057.043-.215.086-.316.143-.316a.086.086,0,0,0-.014-.057.78.78,0,0,0,.057-.287c0-.014-.029-.043-.072-.072v-.014Zm-.273.373c0-.043.029-.072.072-.1q.043.022.043.043v.014c-.014.043-.057.057-.115.057Zm6.283.043a.242.242,0,0,0,.072-.029.031.031,0,0,1,.029.029V-5.8h-.072A.031.031,0,0,1,92.328-5.829Zm-6.3.646q.022-.043.043-.043c.014-.1.043-.158.057-.158h.014l.014.057a.382.382,0,0,1-.086.23v.143q-.022.043-.043.043a.087.087,0,0,1-.086-.043v-.014c0-.057.043-.086.115-.129A.121.121,0,0,0,86.03-5.183Zm5.953-.2h.072c.029,0,.043.029.043.1h-.029a.121.121,0,0,1-.086-.029Zm1.549.273c0-.043.043-.1.129-.186h.014A.193.193,0,0,1,93.533-5.111ZM92.141-5.2h.014c.043.029.072.057.072.072,0,.244-.043.387-.129.445v.057l.014.1c-.072.072-.1.1-.115.1A.622.622,0,0,0,91.94-4.7a.718.718,0,0,1,.215-.3c-.014-.086-.029-.129-.029-.143A.108.108,0,0,0,92.141-5.2Zm-6.47.344c.014.014.029.014.057.014,0,.014-.029.029-.057.043ZM85.384-3.16a4.056,4.056,0,0,0,.244-.846.746.746,0,0,1,.2-.531c.029-.215.057-.316.1-.316s.043.029.043.086V-4.7a4.375,4.375,0,0,1-.143.6A8.336,8.336,0,0,0,85.5-3c-.143.459-.287,1.047-.445,1.764-.043.43-.072.674-.086.717A3,3,0,0,1,84.882.3C84.825.268,84.8.139,84.8-.1a4.563,4.563,0,0,1,.043-.674l-.057-.129c.057-.244.1-.387.1-.416l-.014-.1a.362.362,0,0,1,.057-.129c0-.014-.043-.043-.115-.072V-1.64a.675.675,0,0,0,.172-.129v-.014a.816.816,0,0,0-.1-.186.5.5,0,0,1,.072-.244.388.388,0,0,1,.115.043c.029,0,.072-.115.1-.33v-.014a.426.426,0,0,0-.115-.23v-.029l.158.014h.029c.029,0,.072-.057.1-.172,0-.072-.014-.115-.057-.129-.072.057-.115.086-.115.1s-.029-.029-.043-.086a.249.249,0,0,1,.086-.158Zm.172-1.406c.029-.043.043-.057.057-.057h.029c0,.014,0,.029.029.072-.029.029-.043.057-.057.057h-.029C85.585-4.523,85.571-4.538,85.557-4.566Zm-.057.23h.029a.1.1,0,0,1,.1.086c-.043.014-.057.043-.072.086l.014.029c-.014,0-.014.014-.014.029a.079.079,0,0,1-.086-.057C85.485-4.251,85.5-4.308,85.5-4.337Zm6.785.115a.178.178,0,0,1,.043-.029c.014.057.043.072.072.072v.043q-.022.043-.043.043h-.043v-.043A.2.2,0,0,0,92.285-4.222Zm.3-.014h.057l.029.014-.043.072a.111.111,0,0,0-.043-.014ZM85.1-3.992q.022-.043.043-.043h.029a.622.622,0,0,0,.014.072.108.108,0,0,0-.057.014c-.014,0-.014-.014-.029-.029Zm7.316.029q.022-.043.043-.043H92.5c-.043.072-.072.1-.086.1Zm-6.972.014a.031.031,0,0,1,.029-.029H85.5v.029Zm7.46.143c.072-.086.1-.129.115-.129a.432.432,0,0,1,.057.186h-.057A.282.282,0,0,1,92.9-3.806Zm-7.56-.057q0-.043.086-.043a.031.031,0,0,1,.029.029v.029q-.022.043-.043.043h-.072Zm-.244.057a.031.031,0,0,1,.029-.029c.029,0,.029,0,.029.029s-.029.043-.043.043A.053.053,0,0,0,85.1-3.806Zm7.617.143a.1.1,0,0,1,.072-.057l.014.029v.043h-.086Zm-.8.057a.657.657,0,0,0,.158.1v.014c-.115.143-.172.2-.186.2A24.079,24.079,0,0,1,90.1-1.095,13.845,13.845,0,0,1,88.985.039h-.014V-.033a1.428,1.428,0,0,0,.3-.473c.215-.1.344-.186.359-.258a.223.223,0,0,1,.186-.244,8.07,8.07,0,0,1,.516-.646,1.036,1.036,0,0,0,.416-.617q.108,0,.172-.258.215-.043.215-.129a.142.142,0,0,0-.029-.086.014.014,0,0,0,.014-.014.541.541,0,0,0,.316-.258A2.831,2.831,0,0,0,91.912-3.605Zm-6.671.086c.029,0,.043.014.057.014,0,.072-.014.1-.057.115l-.014-.072Zm7.072.244c.014-.043.043-.072.057-.072h.072c-.014.029-.043.043-.1.072Zm-7.388.029q.022-.043.043-.043h.014L85-3.218v.043a.77.77,0,0,0-.057.215v.072c-.043,0-.057.014-.057.043v.129h-.014L84.8-2.73v-.014a.118.118,0,0,1,.072-.115c.014-.158.043-.23.086-.23a.384.384,0,0,1-.029-.143Zm10.9.072-.057.043q0,.043.086.043h.029a.031.031,0,0,0,.029-.029c-.029-.043-.043-.057-.057-.057Zm-4.777.057V-3.1h.029v-.014Zm-6.369.057c.043.014.057.029.057.043v.043c0,.014-.014.029-.057.043l-.014-.029v-.029Zm7.488,0h.043v.029H92.17Zm-.244.273h.043q-.022.043-.043.043Zm4.49.029h.014v.014h-.014Zm-4.662.186a.147.147,0,0,1,.086-.072h.014v.014a.432.432,0,0,1-.1.115ZM84.739-2.63h.014a.282.282,0,0,1,.115.057l-.043.072c0,.014.014.043.014.057v.014q-.151.409-.172.473c-.014,0-.029-.029-.043-.057l.072-.143c0-.014-.014-.057-.029-.115a.767.767,0,0,1,.086-.23Zm6.24,0h.029c0,.029-.014.029-.029.029ZM85-2.6q.043.022.043.043,0,.086-.043.086a.108.108,0,0,1-.014-.057Zm5.609.143c0-.057.029-.086.1-.115v.029q-.065.086-.086.086ZM84.538-2.5a.177.177,0,0,1,.043-.029.079.079,0,0,1,.057.086h-.057C84.567-2.443,84.552-2.457,84.538-2.5Zm7.029.244c0-.014,0-.029.029-.029v.043h-.029ZM85.011-2c-.029,0-.029,0-.029.029v.014H85l.029-.014Zm-.143.143.057.014v.014l-.014.029-.072-.014Zm-.359.287a.285.285,0,0,1,.1-.23h.029l.029.014c-.014.244-.043.373-.1.373C84.538-1.41,84.524-1.468,84.509-1.568Zm-.086.8q.022-.559.129-.559h.014v.3l-.014.143c.014,0,.029.057.029.158a.4.4,0,0,1-.072.115c-.014.115-.014.186-.043.186l-.029-.014c0-.057.014-.1.014-.129ZM89.5-.908h.014v.029H89.5Zm-5.064.8h.043q-.022.043-.043.043Zm4.045.617a.031.031,0,0,1,.029-.029c0-.086.057-.129.172-.172V.354c-.029.029-.057.057-.086.057,0,.072-.029.115-.115.115Zm-.3.244h.029V.77h-.029Zm-3.3.33c0-.014,0-.029.029-.029a.053.053,0,0,0,.014.043.053.053,0,0,0-.014.043.031.031,0,0,1-.029-.029Zm.473.1h.029v.029A.031.031,0,0,1,85.356,1.186Zm15.507-11.548c-.215.043-.33.072-.33.1a1.253,1.253,0,0,0-.186-.072c-.1,0-.258.23-.459.7a7.032,7.032,0,0,0-.33,1.521q.043.516.344.516h.014q.387,0,.818-.732a4.781,4.781,0,0,0,.588-1.392v-.043C101.322-9.974,101.178-10.161,100.862-10.362ZM99.672-6.818a1.455,1.455,0,0,0-.574.186,2.083,2.083,0,0,0-.66.574,16.306,16.306,0,0,0-1.176,2.152,14.9,14.9,0,0,0-1.449,4.92v.23a1.425,1.425,0,0,0,.057.4,1.82,1.82,0,0,0,1.908,1.076,4.433,4.433,0,0,0,2.553-1.076A8.879,8.879,0,0,0,101.795.354a4.338,4.338,0,0,0,.947-1.047V-.707a.109.109,0,0,0-.115.086,5.468,5.468,0,0,0-.689.674,4.874,4.874,0,0,0-.66.631,2.668,2.668,0,0,0-.416.33,1.743,1.743,0,0,1-.531.416A1.062,1.062,0,0,1,99.8,1.7h-.014a.283.283,0,0,1,.057-.115q.387-.3.387-.473h-.014a1.081,1.081,0,0,1-.43.186h-.029c.029-.029.029-.043.029-.057L100.346.8a2.315,2.315,0,0,0,.545-.445c.2-.115.3-.215.3-.33h-.057V-.062h.043a.564.564,0,0,1,.086.029c.215-.072.316-.129.316-.186,0-.029,0-.043-.029-.043h-.057c0,.043-.057.1-.172.158h-.029l-.014-.1a.3.3,0,0,1,.086-.115V-.334h-.057a1.046,1.046,0,0,1-.273.172,5.1,5.1,0,0,0-.646.559c-.072.057-.5.373-1.32.932a3.817,3.817,0,0,0-.732.33,1.405,1.405,0,0,1-.373.057l-.23.115a1.279,1.279,0,0,1-.316-.043c-.043,0-.072-.115-.072-.359a12.416,12.416,0,0,1,1.119-4.447,5.229,5.229,0,0,1,.746-1.248h.014c.029.143.043.215.043.23a1.518,1.518,0,0,0-.1.316.111.111,0,0,0,.014.043.666.666,0,0,0,.172-.158A15.593,15.593,0,0,0,99.9-5.57a1.674,1.674,0,0,0,.244-.674c0-.387-.143-.574-.43-.574ZM97.147-2.83h.043q0,.086-.043.086Zm.7.115c.029-.043.057-.057.072-.057l-.014.072Zm-.2.014h.014v.043h-.014Zm6.2.1v.057c0,.029,0,.029.029.029s.014,0,.014-.029v-.029c0-.014,0-.014-.014-.029Zm-6.3.545a2.217,2.217,0,0,1,.287-.5h.014l.029.1a1.059,1.059,0,0,1-.029.172.7.7,0,0,1-.158.387C97.663-1.9,97.62-1.955,97.549-2.056Zm-.258-.072c.115-.258.172-.4.215-.416l.043.172c-.029.172-.1.258-.244.258C97.3-2.127,97.3-2.127,97.29-2.127Zm6.341-.344-.1.086.014.029a.1.1,0,0,0,.1-.057v-.057Zm.072.057a.031.031,0,0,0-.029.029v.029c0,.014,0,.029.029.029l.057-.043q-.022-.043-.043-.043Zm-6.57.23a.213.213,0,0,1,.086-.186.252.252,0,0,1-.086.215Zm6.355-.043c-.043.029-.072.057-.072.072s.029.029.086.057a.25.25,0,0,1,.1-.043v-.014c0-.014-.029-.043-.086-.072Zm-.473.1a5.548,5.548,0,0,0-.76.775v.014a.053.053,0,0,0,.043-.014c.316-.316.559-.574.717-.76Zm.689.014c-.029,0-.043,0-.043.029v.014l.014.029c.043-.014.072-.029.072-.043V-2.1C103.732-2.1,103.717-2.113,103.7-2.113Zm-.387.086v.043a.133.133,0,0,0,.1.129q.086,0,.086-.043l-.143-.129Zm-6.025.186a.076.076,0,0,1,.086-.086h.014C97.391-1.869,97.362-1.841,97.29-1.841Zm5.91-.029c-.029.029-.057.072-.1.115l.1.115.1-.029v-.043Zm-6.212.043a.357.357,0,0,1,.072.1.859.859,0,0,1-.129.344q-.043-.022-.043-.043v-.014a.315.315,0,0,0,.072-.172.155.155,0,0,1-.029-.1A.779.779,0,0,0,96.989-1.826ZM96.975-.42a3.617,3.617,0,0,0,.445-1.119c0-.158.072-.244.23-.244,0,.014,0,.014.029.014v.129c-.158.559-.258.932-.3,1.133a.39.39,0,0,1-.158.072l.086.244c-.1.43-.158.674-.172.746h-.014V.541c0-.416-.014-.717-.014-.932V-.435L97.09-.463A.222.222,0,0,0,97-.42Zm.3-1.248a.087.087,0,0,1,.043-.086l.014.072v.014l-.029.043c-.014,0-.029,0-.029-.029ZM102.9-1.6v.029c0,.014,0,.029.029.029V-1.6Zm.23.1c-.057.014-.1.029-.1.057v.057h.014l.1-.086ZM97-1.052a.148.148,0,0,0,.1-.072c.043-.215.1-.316.143-.316a1.389,1.389,0,0,1-.158.559A.248.248,0,0,0,97-1.052Zm5.953-.273v.014l.014.029.057-.014v-.029Zm-6.125.057h.014l.043.215a1.575,1.575,0,0,0-.115.373H96.7C96.788-1.037,96.831-1.238,96.831-1.267Zm5.652.1c-.043.029-.072.057-.072.072s.043.029.1.043c.014,0,.043-.014.1-.057-.014-.043-.043-.057-.1-.057Zm.373,0c-.115.029-.172.072-.172.115a.014.014,0,0,1,.014.014c.1-.029.158-.072.158-.115Zm-.846.1c-.014,0-.029,0-.029.014v.029h.029c0-.014,0-.029.029-.043Zm.99.043-.186.215v.029h.014a.919.919,0,0,0,.2-.215v-.029Zm-.445.072-.043.029c.014.057.029.072.043.072h.043q.043-.022.043-.043V-.922c0-.014-.014-.014-.029-.029Zm-.789.086a.155.155,0,0,0-.057.072c.057,0,.1-.014.1-.043a.031.031,0,0,0-.029-.029Zm.33.029c-.029,0-.029.014-.029.029v.014l.014.029q.043-.022.043-.043A.031.031,0,0,0,102.1-.836Zm.387.072c-.1,0-.186.072-.287.2v.014a.4.4,0,0,0,.287-.186Zm-.631.172c-.014,0-.043.029-.057.072v.014h.029a.124.124,0,0,1,.086-.043V-.578C101.881-.578,101.867-.578,101.852-.593Zm-5.222.043h.014v.072h-.014Zm5.523.043v.043h.014V-.506Zm-.23.186-.014.029V-.22h.043c.029-.029.057-.043.057-.057V-.306Zm-5.035.057H96.9c.014,0,.029,0,.029.029h-.043Zm-.717.129c0-.043.029-.072.1-.1v.072A.936.936,0,0,1,96.243,0h-.029Zm5.681-.043c-.043.029-.057.043-.057.057h.014c.043-.014.057-.043.057-.057Zm-.3.273q-.129.086-.129.129l.014.029c.086-.029.129-.057.129-.072V.125Zm-.689.574q-.043.022-.043.043V.742c0,.029.014.029.029.029h.014l.029-.014A.565.565,0,0,0,100.862.67ZM100.7.813a.148.148,0,0,0-.072.1V.928c.086-.014.115-.029.115-.057V.813Zm-3.83.8h.014v.057h-.014Zm2.754.143h.086a.106.106,0,0,1-.115.115A.193.193,0,0,0,99.629,1.76Zm6.828,1.119a6.2,6.2,0,0,0,2.267-.545,6.1,6.1,0,0,0,1.334-.76V1.545l-.316.072V1.6c.086-.129.273-.186.545-.186.129,0,.387-.23.789-.7.316-.2.516-.344.617-.416a1.485,1.485,0,0,1,.488-.5,7.6,7.6,0,0,1,.631-.574,3.151,3.151,0,0,0,.631-.789,2.268,2.268,0,0,0,.674-1.219c0-.086-.043-.115-.129-.115a.522.522,0,0,0-.273.43H113.7l-.057-.057-.029.014a2.622,2.622,0,0,1-.33.631,1,1,0,0,1-.273-.057L113-1.927l.014.043a.4.4,0,0,1-.129-.014,3.072,3.072,0,0,0-.244.244v.143l-.1-.014c-.172.072-.258.158-.258.273l.215.014c.086-.115.143-.172.215-.172.014,0,.029.029.029.1l-.014.072a1.2,1.2,0,0,0-.33.287l.014.029a3.476,3.476,0,0,1-.4.287c-.4.373-.66.559-.789.559V-.09l.043-.057a14.375,14.375,0,0,0,1.047-.99.118.118,0,0,0-.115.072.338.338,0,0,1-.115-.029l-.043.029c0,.072-.029.115-.1.115a1.765,1.765,0,0,1-.387.359l-.043-.014a1.461,1.461,0,0,1-.373.287c-2.037,1.248-3.6,1.879-4.662,1.879-.732,0-1.09-.344-1.09-1.019a7.771,7.771,0,0,1,1.736-3.9,14.525,14.525,0,0,1,1.808-2.224,3.619,3.619,0,0,1,1.994-1.248c.1,0,.158.086.158.23a5.862,5.862,0,0,1-.961,1.707c0-.014-.014-.057-.029-.158a1.172,1.172,0,0,0,.072-.244l-.014-.014a.574.574,0,0,0-.2.3c-.1.373-.2.76-.33,1.162a.29.29,0,0,0-.129.258c0,.316.1.473.273.473h.1c.186,0,.459-.244.818-.746a6.373,6.373,0,0,0,1.248-2.9v-.172a.8.8,0,0,0-.387-.66,2.521,2.521,0,0,0-1.205-.316q-1.764,0-4.6,3.142c-1.779,2.181-2.668,3.916-2.668,5.193a2.338,2.338,0,0,0,.531,1.478,2.257,2.257,0,0,0,1.205.846h.029V2.664A5.648,5.648,0,0,0,106.457,2.879Zm5.107-9.368h-.014V-6.56h.014ZM106.127-3.72l-.043-.029c.1-.115.158-.158.172-.158.043.014.057.029.057.043s-.029.029-.1.072C106.184-3.749,106.155-3.72,106.127-3.72Zm-1.521,2.381a1.507,1.507,0,0,0-.186-.029.4.4,0,0,1,.143-.273c.158-.359.273-.531.316-.531a10.442,10.442,0,0,0,.818-1.148c.143-.115.215-.2.215-.287h.014a.842.842,0,0,1-.416.818c-.072.2-.143.33-.215.359a5.96,5.96,0,0,1-.559.818.163.163,0,0,0,.043.115h-.043a.191.191,0,0,0-.1-.043c-.029,0-.043.029-.057.1Zm8.521-.373c-.014,0-.043-.029-.057-.072q0-.022.086-.043c.014,0,.014.014.029.043S113.17-1.754,113.127-1.711Zm-.287.244a.23.23,0,0,1,.143-.186A.182.182,0,0,1,112.84-1.468Zm.23.172h-.1c.086-.186.172-.273.244-.273l.014.086A.185.185,0,0,0,113.07-1.3ZM103.559-.248h-.029V-.363l.057-.3-.014-.2a.349.349,0,0,1,.143-.186,1.569,1.569,0,0,1,.258-.416c.014,0,.029.014.029.043C103.8-.636,103.659-.248,103.559-.248Zm.846-.33h-.057c0-.029.057-.072.143-.172.029,0,.029.014.029.043C104.52-.621,104.491-.578,104.405-.578Zm7.46.287a.031.031,0,0,0-.029-.029l.029-.043.057.014C111.922-.334,111.894-.306,111.865-.291Zm-7.919,1.463a.707.707,0,0,1-.072-.258l.014-.186a2.678,2.678,0,0,1,.359-1.047h.014l.014.1a8.079,8.079,0,0,1-.215.8C104.061.971,104.018,1.172,103.946,1.172Zm7.1-1.32h-.029c0-.072.043-.1.115-.1C111.133-.177,111.1-.148,111.047-.148ZM103.43.168a.25.25,0,0,0-.043-.1l.057-.1-.014-.086a.2.2,0,0,0,.029-.086l.115.043v.043c-.014.043-.029.057-.043.057C103.516.1,103.487.168,103.43.168Zm7.6-.043h-.043c0-.043.029-.072.086-.072C111.061.1,111.047.125,111.033.125Zm-.3.273c-.014,0-.029-.014-.029-.043l.029-.043.043.029Zm-7.158.086c-.014,0-.043-.029-.057-.057.014-.057.029-.072.043-.072l.086.057C103.616.455,103.588.483,103.573.483ZM103.4.828c-.043-.014-.057-.043-.057-.057a.1.1,0,0,1,.072-.057V.8Zm6.958.473h-.029c0-.072.043-.1.158-.1v.014A.138.138,0,0,1,110.359,1.3Zm-6.384.244a.212.212,0,0,1-.129-.186c0-.014.029-.043.1-.1a.222.222,0,0,1,.1.172C104.032,1.5,104,1.545,103.975,1.545Zm16.511-9.913H120.4a5.576,5.576,0,0,0-3.213,1.392,19.684,19.684,0,0,0-1.894,1.75,10.208,10.208,0,0,0-1.1,1.549c-.129.215-.373.76-.746,1.607a5.827,5.827,0,0,0-.258,1.305,2.766,2.766,0,0,0,.918,1.98,4.345,4.345,0,0,0,2.926,1.148h.244a7.978,7.978,0,0,0,1.062-.1A6.366,6.366,0,0,0,121.1.856a3.763,3.763,0,0,1,.732-.631,3.246,3.246,0,0,0,.674-.646.014.014,0,0,1-.014-.014c-.115.057-.344.215-.7.459a8.828,8.828,0,0,1-1.248.889,1.489,1.489,0,0,1-.689.373.818.818,0,0,1,.23-.2A3.378,3.378,0,0,0,120.8.627a3.2,3.2,0,0,0,.574-.359c.273-.143.416-.244.416-.3.287-.258.545-.488.789-.674.129-.143.215-.23.244-.23h.014l-.287.445a.3.3,0,0,0,.186-.1,6.228,6.228,0,0,0,.875-.918,3.039,3.039,0,0,0,.617-.947,1.182,1.182,0,0,0,.2-.387v-.043a.2.2,0,0,0-.029-.086v-.043a1.657,1.657,0,0,0,.244-.674.182.182,0,0,0-.014-.086c-.1,0-.23.158-.416.488-.143.244-.43.646-.832,1.205v.029l.029.043V-2a1.129,1.129,0,0,1-.316.359v.086h.086c.043,0,.057-.057.057-.158.043.029.057.043.057.057v.043c0,.072-.072.158-.244.258a.854.854,0,0,0-.129-.258h-.014a1.2,1.2,0,0,0-.4.416c.014,0,.014,0,.014.014h.014c.23-.215.359-.33.4-.33a1.144,1.144,0,0,0,.057.23.469.469,0,0,0-.215.33h-.186c0-.029-.029-.057-.086-.057h-.014l-.129.086c-.086,0-.115.043-.129.129,0,.029-.029.072-.115.129v.029c.043.043.057.072.057.086a2.545,2.545,0,0,1-.244.143.172.172,0,0,0-.115-.057h-.014a1.272,1.272,0,0,0,.014.186l-.23.043v.1a3.035,3.035,0,0,0-.445.344,3.376,3.376,0,0,0-.76.373L120.4.512h-.115a1.9,1.9,0,0,1-.344.129V.727h-.086a1.575,1.575,0,0,1-.4.186.934.934,0,0,0-.588.258h-.043a2.286,2.286,0,0,0-.732.215,2.16,2.16,0,0,1-.918.23,2.834,2.834,0,0,1-.961-.172,1.93,1.93,0,0,1-1.248-1.965V-.564a4.35,4.35,0,0,1,.574-2.008h.014c0,.23.057.373.186.445a.566.566,0,0,0,.23.3A2.967,2.967,0,0,0,117-1.539c.818,0,1.965-.6,3.443-1.793C121.949-4.667,122.7-5.8,122.7-6.7a1.217,1.217,0,0,0-.473-.932,3.09,3.09,0,0,1-.588-.4C121.533-8.253,121.146-8.368,120.486-8.368Zm-4.2,4.6a9.888,9.888,0,0,1,1.248-1.392,12.212,12.212,0,0,1,1.908-1.435,5.844,5.844,0,0,1,1.836-.732h.158q.258,0,.258.215c0,.23-.23.574-.674.99-.875.875-1.75,1.693-2.611,2.453a10.473,10.473,0,0,1-1.262.932.694.694,0,0,1-.488.186h-.014a.571.571,0,0,1-.459-.2c-.129-.273-.2-.416-.2-.416a1.506,1.506,0,0,1,.316-.559A.053.053,0,0,0,116.283-3.763Zm5.595-3.5h.057c.029.172.043.287.043.316a1.428,1.428,0,0,1-.43.846,11.613,11.613,0,0,1-1.793,1.607h-.029a.906.906,0,0,1,.215-.172,6.372,6.372,0,0,0,1.291-1.262q.689-.753.689-.99a1.874,1.874,0,0,0-.043-.33ZM116.44-4.982c0-.057.029-.086.072-.086v.057A.242.242,0,0,0,116.44-4.982Zm-2.023,2.769a.937.937,0,0,1,.172-.373,7.415,7.415,0,0,1,1.076-1.592,2.305,2.305,0,0,1,.617-.66h.029a.548.548,0,0,1-.129.215c-.861,1.1-1.348,1.75-1.449,1.922q-.194.516-.3.516h-.014Zm1.406-.33a.242.242,0,0,1,.072.029c.172.158.287.23.344.23h.057a.363.363,0,0,0,.2-.1h.072v.014a2.483,2.483,0,0,1-.43.215l-.072-.014-.057.029a.64.64,0,0,1-.186-.33Zm-.99.043h.043l.014.072v.014h-.014q-.043-.022-.043-.043Zm-.818.158h.014v.057h-.014Zm.23.445c0-.072.057-.143.2-.23a.723.723,0,0,1-.158.33h-.029l-.014-.072Zm.387-.186a.213.213,0,0,1,.1.014v.029c-.029.043-.057.072-.072.072,0-.043-.014-.057-.043-.057C114.619-2.056,114.633-2.07,114.633-2.084Zm-.1.172h.115a1.279,1.279,0,0,1-.129.43c-.057.029-.086.158-.086.416a8.217,8.217,0,0,0-.158.875v.1c.115.588.23.875.316.875q.043-.022.043-.043V.727a.655.655,0,0,1-.115-.316V.283l.029.014a3.475,3.475,0,0,1,.574,1.047V1.4a.053.053,0,0,0-.043.014c-.23,0-.488-.244-.8-.717a3.531,3.531,0,0,1-.2-1.09,3.515,3.515,0,0,1,.287-1.191A1.37,1.37,0,0,0,114.532-1.912Zm-.9.559a1.193,1.193,0,0,1,.115-.359c.029-.115.072-.186.129-.186l.014.072v.043a.99.99,0,0,1-.187.531C113.686-1.252,113.657-1.3,113.629-1.353Zm.459-.172c0-.014.029-.043.1-.072l.014.072c0,.043-.029.072-.057.115-.014,0-.029-.029-.057-.072Zm-.014.172h.014c.043.014.057.043.057.1v.029l-.014.029c-.014,0-.043-.029-.086-.057Zm8.894.3c.186-.2.287-.3.316-.3v.072a.74.74,0,0,0-.258.258Zm-9.4.014a.108.108,0,0,1,.072-.1c.057,0,.1.057.1.186a.442.442,0,0,1-.029.158q.022.538.043.732c0,.1.029.143.086.143A1.271,1.271,0,0,0,114,.455c-.244,0-.4-.359-.445-1.076,0-.115.014-.244.014-.387Zm8.751.23h.1c0,.029,0,.043.014.057h-.1A.086.086,0,0,0,122.322-.808ZM120.17.684A.18.18,0,0,1,120.3.612h.029c0,.014-.057.029-.143.072Zm-.875.488a.111.111,0,0,0,.043-.014h.014v.014a.053.053,0,0,0-.043.014H119.3Zm-2.4.631.072.043-.014.029-.086-.014V1.846Zm.244.072c.072-.014.115-.029.129-.029h.014c.143.014.215.043.215.072,0,0-.043.014-.1.029a.651.651,0,0,1-.258-.057Zm.23.23a2.64,2.64,0,0,0,.588-.072l.129.086c0,.029-.043.043-.143.057a2.765,2.765,0,0,0-.359-.043h-.215Z" transform="translate(0.153 20.073)" fill="#3963ac" stroke="#3963ac" stroke-width="0.2"/>
</svg>
