<svg xmlns="http://www.w3.org/2000/svg" width="35.054" height="35.054" viewBox="0 0 35.054 35.054">
  <path id="Icon_awesome-phone-alt" data-name="Icon awesome-phone-alt" d="M34.054,24.771l-7.668-3.286a1.643,1.643,0,0,0-1.917.472l-3.4,4.149A25.377,25.377,0,0,1,8.942,13.974l4.149-3.4a1.639,1.639,0,0,0,.472-1.917L10.277.993A1.654,1.654,0,0,0,8.394.042L1.273,1.685A1.643,1.643,0,0,0,0,3.286,31.764,31.764,0,0,0,31.768,35.054a1.643,1.643,0,0,0,1.6-1.273l1.643-7.12a1.663,1.663,0,0,0-.959-1.89Z" transform="translate(0 0)" fill="#fff"/>
</svg>
