<svg xmlns="http://www.w3.org/2000/svg" width="127.788" height="32.296" viewBox="0 0 127.788 32.296">
  <path id="パス_317" data-name="パス 317" d="M-20.656-8.45a1.691,1.691,0,0,0-.315.039,7.173,7.173,0,0,0-2.87,1.481,22.932,22.932,0,0,0-2.005,1.9,23.365,23.365,0,0,0-2.634,3.25,9.211,9.211,0,0,1-.734,1.245A8.572,8.572,0,0,0-30.6,1.825v.052h.013l.59-.695q-.275.708-.275.747v.013c.013,0,.249-.354.695-1.022q.079,0,.079.039V.986l-.577,1.022v.013h.013c.066-.079.1-.1.118-.1.485-.655.97-1.363,1.442-2.136a1.293,1.293,0,0,1,.59-.5l-.039-.17.013-.092c.223-.079.341-.144.354-.183v-.2a5.943,5.943,0,0,1,.747-.944v-.1a.252.252,0,0,0-.052-.157,1.153,1.153,0,0,1,.288-.419c.524-.629.839-.957.944-.957a2.676,2.676,0,0,0,.524-.642l.9-.76h.013c-.236.275-.459.537-.682.786a3.665,3.665,0,0,0-.629.773,26.831,26.831,0,0,0-1.691,2.228c-.249.432-.446.773-.616,1.022a3.351,3.351,0,0,1-.8,1.062c-.131,0-.341.367-.655,1.1a1.6,1.6,0,0,0-.393.642v.066a1.577,1.577,0,0,0,.052.223.744.744,0,0,1-.157.3l-.157-.118h-.013a.426.426,0,0,0-.2.315,1.03,1.03,0,0,0,.118.262.987.987,0,0,1-.183.236,1.629,1.629,0,0,0,.079-.3V3.24a.144.144,0,0,1-.079-.039,3.169,3.169,0,0,0-.315.564l.066.039a.821.821,0,0,0,.183-.052h.013c-.183.6-.288.9-.288.917a.443.443,0,0,1-.131-.052c-.026.026-.039.026-.052.026-.066.144-.315.786-.76,1.927a13.561,13.561,0,0,0-.524,2.215c.013.249.013.485.013.695v.485a1.955,1.955,0,0,0,.026.275,5.261,5.261,0,0,1,.223.6,1.107,1.107,0,0,1-.367-.092c.144-.131.223-.21.223-.21v-.013a1.108,1.108,0,0,0-.17-.157c-.066-.013-.118-.328-.144-.944a5.237,5.237,0,0,1,.079-.6c-.026-.144-.079-.223-.183-.223-.039,0-.066.183-.066.55v.642a1.147,1.147,0,0,1-.039.315,2.547,2.547,0,0,1,.1.432v.131c0,.079-.013.131-.052.131l-.079-.21c-.052-.747-.131-1.114-.2-1.114h-.092V9.439l.039-.039a.579.579,0,0,0,.144-.419,1.155,1.155,0,0,0-.21-.564l.3-.315V8.089a.105.105,0,0,0-.079-.118V7.945A1.081,1.081,0,0,0-32.32,7.3c0-.131-.118-.223-.341-.262l1.1-3.159a.013.013,0,0,1-.013-.013l-.052.026a5.237,5.237,0,0,0-.629,1.468,10.05,10.05,0,0,0-.76,3.394,7.607,7.607,0,0,0,.38,2.267,2.707,2.707,0,0,0,1.1,1.507,5.184,5.184,0,0,0,2.516.616,5.723,5.723,0,0,0,2.739-.878,3.1,3.1,0,0,0,.957-.655l.537-.3a7.616,7.616,0,0,0,1.848-2.058c.066-.039.118-.367.144-.957A9.041,9.041,0,0,0-22.4,6.74a.1.1,0,0,0-.013-.052.7.7,0,0,0-.315.367,7.07,7.07,0,0,1-.747,1.809A4.4,4.4,0,0,1-24.8,10.239v-.013l.092-.131c.564-.55.852-.878.852-.983a2.152,2.152,0,0,0,.524-.957V8.129h-.013a2.439,2.439,0,0,0-.367.564,5.862,5.862,0,0,1-1.009,1.219,8.942,8.942,0,0,0-1.048,1.009,2.3,2.3,0,0,0-.931.537,1.108,1.108,0,0,1-.577.2,5.109,5.109,0,0,1-2.045.524,3.233,3.233,0,0,1-.891-.144,1.944,1.944,0,0,1-1.075-1.979V9.819a1.222,1.222,0,0,1,.013-.288q.315-3.44,3.788-9.174a40.238,40.238,0,0,1,3.145-4.508c1.7-2.045,2.962-3.093,3.774-3.159h.131a.382.382,0,0,1,.21.066c.328.2.5.682.5,1.429A16.932,16.932,0,0,1-20.853-.678c-.721,1.756-1.284,2.634-1.678,2.634q-.2,0-.315-.432a.241.241,0,0,0-.17-.21V1.235h-.026a2.252,2.252,0,0,0-.1.577.871.871,0,0,0,.039.275.88.88,0,0,0,.865.734,1.61,1.61,0,0,0,1.193-.682A11.077,11.077,0,0,0-20.092.5a15.62,15.62,0,0,0,1.429-6.042,4.518,4.518,0,0,0-.315-1.874A2.077,2.077,0,0,0-20.591-8.45Zm-3.067,2.634a.035.035,0,0,1,.039-.039v.013a.035.035,0,0,1-.039.039Zm-.354.341q.177-.236.236-.236v.039a.435.435,0,0,1-.21.2Zm4.39,1.887c.013,0,.026.013.026.039V-3.5a.6.6,0,0,1-.052.236h-.013a.166.166,0,0,0-.013-.079A1.147,1.147,0,0,1-19.686-3.588ZM-29.45.278V.252l.3-.432c0-.131.092-.249.262-.367h.039v.013a1.275,1.275,0,0,1-.354.485c-.052.183-.131.3-.236.328Zm.367-.066c0-.013.039-.039.131-.092V.213l-.079.026h-.013Zm-.6.3c.026-.026.039-.052.052-.052h.039l.013.092A.272.272,0,0,0-29.66.58h-.026Zm.485,0h.013V.554H-29.2Zm-.747.432a.138.138,0,0,1,.1-.131h.013V.894a.117.117,0,0,1-.1.131h-.013Zm.97.446h.066v.039c0,.026-.013.026-.039.026h-.026Zm-1.678.564c-.013,0-.052.039-.1.1a10.438,10.438,0,0,0-.8,1.612l.039.013a.228.228,0,0,0,.144-.079c.144-.419.236-.629.3-.629a4.821,4.821,0,0,0,.446-.97C-30.63,1.982-30.643,1.956-30.656,1.956Zm.459.315c-.079,0-.118.026-.131.052v.013l.039.118h.039c.066,0,.092-.013.1-.039V2.388A.16.16,0,0,0-30.2,2.27Zm-.118.288a.118.118,0,0,0-.066.013,5.3,5.3,0,0,0-.865,1.481.282.282,0,0,0-.131.249c-.236.524-.367.813-.367.826a.279.279,0,0,0-.157.223l.013.026a1.584,1.584,0,0,0-.21.5,1.657,1.657,0,0,1-.131.55v.052a.838.838,0,0,0,.026.183v.026a1.048,1.048,0,0,0-.2.052v.026c0,.131.039.183.131.183h.013c.131-.039.183-.17.183-.38V6.556l.249-.079a2.256,2.256,0,0,0-.118-.367l.026-.079a5.271,5.271,0,0,0,.406-.97,9.691,9.691,0,0,0,.432-.983,2.708,2.708,0,0,0,.236-.38.909.909,0,0,1,.315-.642.876.876,0,0,1,.21-.446Zm-.708.524a.138.138,0,0,0-.066.118v.026a.1.1,0,0,1,.052.013.224.224,0,0,0,.079-.118q0-.02-.039-.039Zm.459.773v.026a.035.035,0,0,0,.039.039V3.856Zm-.2.38c-.1,0-.17.118-.21.367v.026h.052a.468.468,0,0,0,.21-.341V4.263c0-.013-.013-.026-.039-.026Zm-.249.642a.163.163,0,0,0-.079.1l.013.118h.013c.026,0,.052-.066.066-.21V4.878Zm-.432.878a.138.138,0,0,0-.066.118l.052.066c.039-.013.066-.052.066-.118Zm-.079.315c-.118,0-.183.092-.183.288,0,.013.026.039.079.052l.1-.052-.066-.079a.126.126,0,0,0,.118-.079A.643.643,0,0,0-31.521,6.071Zm-.223.564c-.066.026-.1.052-.1.066v.1l.013.039a.561.561,0,0,1,.131-.039V6.766A.253.253,0,0,0-31.744,6.635Zm-.144.5a1.11,1.11,0,0,0-.17.157v.131c-.079.223-.131.341-.131.367.026,0,.039.013.039.026.092-.052.144-.092.144-.118a.643.643,0,0,0-.013-.144c.118-.131.183-.223.183-.288S-31.848,7.146-31.888,7.133Zm8.86.223a1.225,1.225,0,0,0-.275.59l.026.026c.092,0,.183-.21.288-.616Zm-9.725.2a.1.1,0,0,1,.092-.118v.052a.861.861,0,0,1-.039.17h-.026Zm.55.682c-.026,0-.052.052-.066.131V8.4c0,.013.013.026.039.026l.092-.013A.39.39,0,0,0-32.2,8.234Zm-.38.183c-.026,0-.026.013-.039.026v.039c.026.026.039.052.052.052s.026-.013.052-.039c-.013-.052-.026-.079-.052-.079Zm9.292.878.079-.013c.144-.262.249-.406.3-.419a1.092,1.092,0,0,1-.446.708,4.338,4.338,0,0,1-1.035,1.18c-.262.288-.419.432-.459.432h-.039A1.923,1.923,0,0,1-24.706,11c.131-.236.21-.367.275-.393a1.273,1.273,0,0,0,.577-.577.639.639,0,0,0,.236-.21.811.811,0,0,0,.315-.537C-23.29,9.282-23.29,9.282-23.29,9.3Zm-1.363,1.311a.1.1,0,0,1,.052.013v.066h-.039a.028.028,0,0,1-.026-.026v-.026Zm-.708.066a.118.118,0,0,0,.066-.013v.026h-.066Zm-6.671.315c.039.013.066.039.066.052V11.1h-.026c-.013,0-.039-.039-.066-.079C-32.045,11.025-32.032,11.012-32.032,10.986Zm.118.183c.013,0,.039-.013.092-.052.131.17.236.3.315.406a1.267,1.267,0,0,1,.249.354V11.9c-.039-.013-.052-.026-.066-.026Q-31.914,11.425-31.914,11.169Zm14.388.249a1.765,1.765,0,0,0,.432-.052,4.7,4.7,0,0,0,1.927-1.193A7.316,7.316,0,0,0-13.595,8.64c-.144,0-.6.38-1.376,1.127a3.79,3.79,0,0,1-1.455.891l-.079-.013a.645.645,0,0,1,.249-.275,2.844,2.844,0,0,0,.734-.59,2.627,2.627,0,0,0,.511-.419c.039-.144.079-.223.1-.223l.2.026q.059,0,.079-.236a.317.317,0,0,1,.17.079l.157-.2c.419-.275.629-.485.629-.616a1.176,1.176,0,0,0-.315.1.524.524,0,0,1,.079-.21c.393-.367.59-.629.59-.8a1.229,1.229,0,0,0-.275.249c-.131.249-.236.367-.315.38-1.887,1.691-3.237,2.529-4.05,2.529-.223,0-.341-.066-.341-.21A5.679,5.679,0,0,1-17.2,7.8a25.888,25.888,0,0,1,3.408-4.076,2.024,2.024,0,0,1,1.284-.76.72.72,0,0,1,.419.131.844.844,0,0,1,.275.55l-.026.236.013.1c-.183.511-.315.773-.393.8h-.118l-.039.026a.928.928,0,0,1-.144.275c-.026-.013-.039-.026-.066-.026a.5.5,0,0,0-.183.328c.013.066.039.092.092.092a1.234,1.234,0,0,0,.459-.157,6.977,6.977,0,0,0-.655,1.009c.013,0,.013,0,.013.013a.35.35,0,0,0,.131-.052c.17-.275.406-.629.682-1.048a1.883,1.883,0,0,0,.328-.236h.013l-.97,1.455c0,.013.066.052.21.1l.013-.236c.052.118.118.183.183.183A.282.282,0,0,0-12.1,6.4a.035.035,0,0,0,.039.039c.013,0,.026-.039.039-.1-.013,0-.013,0-.013-.013l-.039.013a.6.6,0,0,0,.066-.118.267.267,0,0,0,.144-.092c0,.039,0,.052-.013.052a1.25,1.25,0,0,1-.288.6.118.118,0,0,0-.066-.013c-.013,0-.026.039-.039.131-.708.931-1.1,1.442-1.166,1.546v.026a.1.1,0,0,0,.052-.026,7.526,7.526,0,0,0,.865-.97.654.654,0,0,0-.144.354h.039l.1-.066a.826.826,0,0,1-.092.288l-.026-.013c.013-.052.026-.1.039-.144,0-.013-.026-.026-.052-.026s-.039.066-.066.21l.039.2a.566.566,0,0,0-.052.183.491.491,0,0,0-.079-.131c-.026,0-.039.026-.039.092a3.206,3.206,0,0,0-.288,1.35.8.8,0,0,0,.183.629,1.633,1.633,0,0,0,1.219.734,1.052,1.052,0,0,0,.262-.026,2.688,2.688,0,0,0,1.651-.813c.6-.537.983-.865,1.127-.957,1.664-1.717,2.529-2.569,2.582-2.582a.458.458,0,0,0,.262-.419c-.144,0-.21-.039-.21-.1l.013-.341a.752.752,0,0,1-.013-.157c0-.039-.066-.066-.21-.079a.209.209,0,0,0-.131.066,2.172,2.172,0,0,1-.249.354,5.294,5.294,0,0,0-.655.682.7.7,0,0,0-.2.17l.013.039.079-.026v.026a.628.628,0,0,0-.1.144A12.119,12.119,0,0,1-9.152,8.679c0-.026.052-.092.144-.2-.066,0-.144.052-.249.17s-.537.459-1.271,1.009a1.9,1.9,0,0,1-.629.432c-.066,0-.1-.079-.1-.249A11.321,11.321,0,0,1-9.9,5.9,8.953,8.953,0,0,0-8.667,2.388a1.218,1.218,0,0,0-.459-.983c-.092-.249-.183-.367-.288-.367-.052,0-.118.052-.21.157l-.013-.066h-.039c0,.013,0,.026-.013.026a1.617,1.617,0,0,0-.367.564c-.393,1.009-.6,1.507-.616,1.52l-.052-.328h-.026l-.026.485c.013,0,.013,0,.013.013a.4.4,0,0,1-.118.17c-.013,0-.026-.026-.052-.066l.052-.092-.013-.341c.039-.052.066-.079.066-.092a3.228,3.228,0,0,0-.2-.537c.131.039.2.092.2.144h.026q-.039-.157-.079-.157a.946.946,0,0,1-.262-.118c0-.013,0-.013.013-.013a.6.6,0,0,1,.249.1,1.52,1.52,0,0,0-.3-.537.4.4,0,0,0-.17-.118,1.212,1.212,0,0,0-.891-.315,4.257,4.257,0,0,0-1.3.275,6.535,6.535,0,0,0-1.7,1.153l-.655.59a24.022,24.022,0,0,0-1.874,2.149c-1.271,1.73-1.9,3.054-1.9,3.971a1.677,1.677,0,0,0,.341,1.048,2.046,2.046,0,0,0,1.612.786Zm5.413-8.742h-.079l.052-.066C-12.127,2.611-12.114,2.637-12.114,2.677Zm-5.544,5.1a.664.664,0,0,1-.1-.249q0-.1.354-.472l-.1-.079V6.949c.013-.052.039-.066.052-.066,0,.026.026.052.079.092h.026a.69.69,0,0,1,.079-.2c-.026-.013-.039-.039-.039-.1a.74.74,0,0,0,.354-.2,1.468,1.468,0,0,1,.236-.354.677.677,0,0,1-.079-.092.6.6,0,0,0,.262-.066,19.714,19.714,0,0,1,1.415-1.625,3.437,3.437,0,0,1,.931-.76c0,.079-.262.367-.813.852a5.555,5.555,0,0,1-.524.616c-.616.734-1.009,1.166-1.166,1.311a2.359,2.359,0,0,1-.393.629c-.288.249-.419.38-.419.419C-17.513,7.618-17.566,7.736-17.657,7.775Zm6.789-3.866a.035.035,0,0,1-.039-.039.083.083,0,0,1,.066-.079l.013.039Q-10.829,3.909-10.869,3.909Zm1.219.328-.013-.079c0-.039.039-.066.092-.092l.039.092A.224.224,0,0,1-9.65,4.236Zm-2.241.8a1.473,1.473,0,0,1,.485-.5,3.1,3.1,0,0,0,.21-.315.12.12,0,0,1,.066.039,1.646,1.646,0,0,0-.118.275A2.072,2.072,0,0,1-11.891,5.036Zm2.123-.472L-9.781,4.5a.252.252,0,0,1,.144-.236A.318.318,0,0,1-9.768,4.564Zm-2.005,5.622a1.041,1.041,0,0,1-.066-.5l-.013-.157A.609.609,0,0,0-11.76,9.3a.349.349,0,0,0-.066-.17V9.112l.157-.144a.879.879,0,0,1,.092-.354c-.013-.039-.039-.066-.052-.066a.2.2,0,0,0-.144.092c-.052.3-.092.446-.118.446a.741.741,0,0,0-.131.354c0,.039.026.052.066.066q-.1.118-.157.118a.491.491,0,0,1-.144.013.856.856,0,0,1,.026-.144,5.1,5.1,0,0,0,.315-.786h-.026a.525.525,0,0,1-.131.21.189.189,0,0,1-.026-.092V8.8l.1-.21-.013-.039a.122.122,0,0,1,.092-.118h.013l.013.157c.1,0,.157-.079.157-.249l-.013-.092c-.092-.013-.144-.039-.144-.092l-.013.013-.013.039-.013-.013.013-.026c.249-.223.38-.354.38-.406q-.02-.039-.039-.039c-.026,0-.066.066-.1.183a.174.174,0,0,1-.092-.039V7.84a.182.182,0,0,0,.066-.131.439.439,0,0,0,.052-.183q0-.059.118-.079a.547.547,0,0,1-.039-.118c0-.013.026-.039.079-.052v.144l.013.026a.134.134,0,0,0,.1-.066V7.342a.718.718,0,0,1-.131-.236l.157.013c.039,0,.052-.039.052-.118,0-.026-.039-.039-.1-.052a.405.405,0,0,1,.026-.1l.1.066a.174.174,0,0,0,.039-.092c.066-.092.1-.144.1-.183s.157-.393.459-1.114a3.56,3.56,0,0,1,.485-1.114l.066.039a.028.028,0,0,1-.026.026,1.878,1.878,0,0,0-.223.668,3.478,3.478,0,0,0-.419,1.088.209.209,0,0,0,.039.1c0,.013,0,.013-.013.013l-.066-.013a2.316,2.316,0,0,0-.157.419.189.189,0,0,0,.026.092.407.407,0,0,0-.157.039l.013.079a.816.816,0,0,0-.144.223,2.106,2.106,0,0,1-.092.5q.02.039.039.039a.158.158,0,0,0,.118-.079,1.251,1.251,0,0,1,.157-.55l-.013-.079c0-.013.039-.026.1-.066a1.367,1.367,0,0,1,.1-.459l.118.026c.039,0,.079-.066.118-.21a6.728,6.728,0,0,0,.367-.839c.066-.275.144-.419.236-.419a1.584,1.584,0,0,1,.066.3l-.013.039c-.1.013-.157.039-.157.092l-.079.236a.427.427,0,0,0-.131.236.639.639,0,0,1,.052.17l-.013.026-.1-.026c-.013,0-.013.013-.026.026l.039.066-.013.052a.664.664,0,0,1,.026.17c-.118,0-.183.039-.183.118a.592.592,0,0,1,.039.17.186.186,0,0,1-.026.079l-.131-.026c-.013,0-.026.026-.039.066l.066.092c-.092.013-.131.026-.131.052a.566.566,0,0,1,.052.183.2.2,0,0,1-.052.144l-.092-.026c-.026,0-.039.013-.052.052a.413.413,0,0,0,.092.144.526.526,0,0,1-.1.21v.118A10.768,10.768,0,0,0-11.3,8.968l-.236.367.052.1a.649.649,0,0,1-.052.17l.013.118a.335.335,0,0,1-.092.157l.013.1C-11.616,10.121-11.681,10.186-11.773,10.186ZM-9.912,4.97c-.066,0-.1-.013-.118-.066s.052-.131.183-.275l.157.066a.294.294,0,0,1-.013.131l-.079-.013C-9.833,4.813-9.886,4.865-9.912,4.97Zm-1.468.118a.138.138,0,0,1,.066-.118v.013C-11.314,5.023-11.34,5.049-11.38,5.088Zm-.288.079c-.013,0-.013,0-.013-.013a.1.1,0,0,1,.092-.052A.134.134,0,0,1-11.668,5.167Zm1.625.419c0-.013-.013-.013-.026-.026l.039-.052c.013,0,.026.026.039.052Zm-1.717.039c-.013,0-.013,0-.013-.013a.333.333,0,0,0,.026-.092h.026ZM-15.731,5.6c-.013,0-.026-.013-.026-.052C-15.731,5.547-15.731,5.573-15.731,5.6Zm3.814.511h-.013l.275-.5a.028.028,0,0,1,.026.026l.026-.013A1.243,1.243,0,0,1-11.917,6.11Zm-4.023-.223h-.052c.013-.039.039-.066.066-.066Zm3.774.21h-.066a.113.113,0,0,0-.039-.079V5.992a.235.235,0,0,0,.1-.052Zm-.1.3-.039-.052V6.333c.052,0,.079.026.079.052Zm1.009.2h-.013a.278.278,0,0,1,.131-.262l.013.026c0,.039-.013.066-.039.066C-11.17,6.543-11.2,6.6-11.262,6.6Zm-6.225-.026h-.066V6.556l.039-.013.026.013Zm4.626.695a1.455,1.455,0,0,0,.406-.446l-.013-.026-.118.013c-.026-.079-.052-.118-.066-.118l-.026.013c-.039-.092-.066-.131-.079-.131a1.26,1.26,0,0,0-.315.446l.092.013a.24.24,0,0,0,.079-.1c.013,0,.039.039.092.118a.317.317,0,0,0-.079.17C-12.887,7.251-12.887,7.264-12.861,7.264Zm3.145,2.529c0-.026.013-.052.052-.092V9.675h-.013a.186.186,0,0,1-.144.052l.039-.1c.183-.144.446-.367.773-.668q.177-.236.236-.236h.1l-.039-.079c0-.026.026-.052.079-.092a1.852,1.852,0,0,0,.564-.59L-8.1,7.945a.4.4,0,0,0-.144.092c.066-.1.118-.157.144-.157.144,0,.223-.013.223-.052A2.411,2.411,0,0,1-7.448,7.5V7.487H-7.5a2.831,2.831,0,0,0,.419-.419l.052.013.236-.157-.013-.039a.543.543,0,0,0-.157.092h-.026a1.139,1.139,0,0,1,.223-.21q0-.079.354-.157c-.039.066-.183.249-.419.55C-7.959,8.325-8.536,8.9-8.575,8.9c-.275.3-.459.459-.55.459A2.961,2.961,0,0,1-9.715,9.793ZM-12.69,6.962h-.052l-.118-.079.092-.17a.248.248,0,0,1,.092.183Zm6.029-.144a.091.091,0,0,1,.039-.052V6.726l-.039.026-.026-.013c-.013.013-.013.026-.013.052S-6.675,6.818-6.662,6.818Zm-10.93.052-.066-.039c.013-.039.026-.052.039-.052l.052.039A.052.052,0,0,0-17.592,6.871Zm5.124.813a.142.142,0,0,1-.052-.066c.079-.262.157-.393.21-.393A3.521,3.521,0,0,1-12.468,7.683Zm-.629-.2.052-.013V7.447a.221.221,0,0,1-.066-.026A.1.1,0,0,0-13.1,7.487Zm-.066.2.066-.118a.013.013,0,0,1-.013-.013l-.092.039C-13.2,7.644-13.175,7.683-13.162,7.683Zm-4.522-.039c.013,0,.026-.013.026-.039s-.013-.026-.039-.026Zm-.21.223H-18l-.013-.039a.139.139,0,0,1,.157-.157A.581.581,0,0,1-17.893,7.867Zm4.639-.052c-.013-.013-.013-.039-.013-.079-.026,0-.039.013-.052.066,0,.013.013.013.039.013ZM-13.437,8l.066-.118-.026-.013-.157.013Q-13.477,8-13.437,8Zm-4.626.21a.336.336,0,0,1,.092-.249C-18,8.129-18.038,8.207-18.064,8.207Zm9.358.288h-.013l.052-.092a1.261,1.261,0,0,0,.288-.249l-.013.039C-8.51,8.391-8.614,8.5-8.706,8.5Zm-.157-.144c.079-.066.1-.092.1-.118s0-.026-.026-.026-.039.039-.079.1Zm-9.384.092c0-.1.026-.144.079-.144l.1.026C-18.064,8.365-18.116,8.4-18.247,8.443Zm6.4-.039a.186.186,0,0,1-.079-.026l.026-.039.066.013Zm-2.241.17-.17-.052c.052-.118.1-.17.144-.17s.079.026.079.1A.213.213,0,0,1-14.093,8.574Zm1.258.026.026-.118c.013,0,.039.026.052.079Q-12.756,8.6-12.834,8.6Zm-1.507.183h-.092V8.705c0-.013.026-.026.079-.026Zm5.006.079h-.079c0-.013.013-.026.039-.026S-9.335,8.85-9.335,8.863Zm-3.565.092-.013-.039c.013-.026.026-.039.026-.066h.026C-12.874,8.915-12.887,8.954-12.9,8.954Zm.721.328-.052-.013c0-.013,0-.026.026-.026S-12.179,9.256-12.179,9.282Zm.1.472c-.066,0-.092-.013-.092-.026s0-.039.026-.039A.062.062,0,0,1-12.074,9.754ZM-1.448.685A3.018,3.018,0,0,0-3.466,1.9,3.968,3.968,0,0,0-4.594,4.354a2.2,2.2,0,0,0,.039.38l-.013.17.144,1.062a9.627,9.627,0,0,1,.236,1.075l-.039.341a1.126,1.126,0,0,0,.144.459,14.412,14.412,0,0,1,.328,1.6c-.262.275-.6.59-1.009.957a18.2,18.2,0,0,0-1.415,1.363c-.839.891-1.389,1.468-1.651,1.717a13.256,13.256,0,0,1-1,1.062c-1.507,1.533-2.254,2.844-2.254,3.932a1.892,1.892,0,0,0,.878,1.6,4.756,4.756,0,0,0,2.4.708h.092A5.959,5.959,0,0,0-4.371,19.6a7.365,7.365,0,0,0,1.193-1.009,5.814,5.814,0,0,0,1.612-4.312v-.236a14.315,14.315,0,0,0-.682-4.076.048.048,0,0,1,.013-.039c.419-.354.957-.773,1.612-1.245Q1.992,6.772,4.24,5.245A.778.778,0,0,0,4.227,5.1c.039-.052.066-.079.118-.079.092.013.131.026.144.026h.026L4.581,4.8a1.956,1.956,0,0,1,.367-.3V4.485a1.093,1.093,0,0,0-.315.1,1.642,1.642,0,0,1-.59.432,2.9,2.9,0,0,1-.813.524H3.218c0-.039.066-.1.157-.183V5.35H3.283V5.311c.026,0,.026-.013.026-.013a.664.664,0,0,0,.236-.1.079.079,0,0,1,.079.039c.026,0,.039-.026.039-.066a.383.383,0,0,0,.1-.249Q4,4.8,4,4.721a4.7,4.7,0,0,1,.695-.55V4.145c-.066,0-.183.079-.38.223L3.6,4.813c-.183.026-.3.052-.354.066-.55.367-1.219.8-1.992,1.311a39.675,39.675,0,0,1-4,2.4,7.686,7.686,0,0,1-.5-2.595A3.894,3.894,0,0,1-1.763,2.716a.476.476,0,0,1,.039.144v.013a.432.432,0,0,0-.092.17c.013,0,.013,0,.013.013a.515.515,0,0,0,.079-.026c.092-.026.288-.38.577-1.062a7.416,7.416,0,0,1,.1-.957C-1.042.789-1.173.685-1.448.685ZM-3.9,3.9c.013,0,.026,0,.026.026v.026c0,.026-.013.026-.026.026Zm-.2.564c.013-.066.026-.1.039-.1a1.325,1.325,0,0,1,.092-.288.028.028,0,0,1,.026.026v.052c-.066.406-.118.6-.17.6a.221.221,0,0,1,.026-.066A1.824,1.824,0,0,0-4.1,4.459Zm8.126.026c-.013,0-.013,0-.013.026l.013.026c.013,0,.013-.013.013-.026Zm.275.131-.092.052A.028.028,0,0,0,4.24,4.7h.013c.013,0,.026-.026.066-.052Zm-8.82.1c.013,0,.039.013.092.026l-.013.066A.2.2,0,0,1-4.515,4.721Zm9.292.092c-.066.026-.092.039-.092.052s0,.026.026.026c.039-.026.066-.052.066-.066Zm-.891.1-.079.026v.039h.026c.026-.013.052-.039.052-.052Zm-.419.21A.431.431,0,0,0,3.663,5V5.01a.364.364,0,0,1-.2.17Zm-7.431.288c.013-.092.039-.131.066-.131a3.089,3.089,0,0,0,.066.537,5.413,5.413,0,0,1,.17.852,3.99,3.99,0,0,1,.341,1.088l-.013.157a.282.282,0,0,0,.157.275c.013.039.039.236.092.564v.026a.249.249,0,0,1-.17.223l-.052-.039c0-.118-.052-.183-.157-.183-.013.013-.039.013-.079.013,0,.066-.026.1-.1.144-.026-.039-.052-.066-.052-.1V8.81c.013-.026.092-.066.249-.118-.092-.236-.144-.354-.17-.354h-.013a.174.174,0,0,0-.092.039c-.052-.026-.079-.039-.079-.052a.827.827,0,0,0,.2-.432q.118-.079.118-.118a1.319,1.319,0,0,0-.157-.537c0-.079-.052-.131-.17-.131H-3.86a.028.028,0,0,0-.026.026V7.3a.643.643,0,0,0,.013.144,2.279,2.279,0,0,1,.17.419h-.013c-.183,0-.3-.144-.354-.459a1.341,1.341,0,0,1,.039-.144V7.251a.286.286,0,0,0-.052-.131c.275-.079.406-.17.406-.275s-.039-.157-.066-.157a1.571,1.571,0,0,1-.1-.367c-.052-.013-.066-.066-.066-.17V5.861A1.71,1.71,0,0,0-3.964,5.416Zm6.933.039h.039q.157,0,.157.118c0,.131.026.183.092.183a4.813,4.813,0,0,1-1,.642H2.248V6.386a6.2,6.2,0,0,0,.708-.6V5.757H2.942a3.3,3.3,0,0,1-.485.262.589.589,0,0,1,.026-.1c.183-.1.262-.183.262-.262V5.573a.126.126,0,0,1,.118.079.189.189,0,0,0,.1-.17Zm.6.026h.039c0,.026-.013.026-.026.026H3.558V5.494ZM-4.148,6.491h.026c.013,0,.026.052.052.144,0,.026-.026.052-.066.066V6.648Zm4.181.642H.046l-.039.052A12.519,12.519,0,0,1-2,8.823c-.157.183-.288.275-.367.275h-.052c-.026-.013-.039-.039-.039-.1V8.981a1.056,1.056,0,0,1,.118-.249c-.026-.013-.026-.026-.026-.039V8.64c0-.039.013-.066.052-.066a2.275,2.275,0,0,1,.236.013c.079-.026.1-.052.1-.079A.308.308,0,0,1-1.7,8.352V8.338c0-.013-.026-.039-.092-.066l.013-.066h.066C-.609,7.539-.033,7.185.033,7.133Zm-1.415,1.8A.148.148,0,0,1-1.265,8.8c.066.013.092.026.092.052v.013a.238.238,0,0,1-.21.1Zm-.485.052a.028.028,0,0,1,.026-.026l.066.013v.013a.048.048,0,0,0-.039.013Zm.288.118c0-.013,0-.026.026-.026a.028.028,0,0,1,.026.026v.013q-.02.039-.039.039h-.013Zm.079-.013h.026V9.1H-1.5Zm-.315.052c.079.013.118.039.118.1v.013a.491.491,0,0,1-.131-.079V9.164Zm-1.271.38c.013-.066.026-.1.052-.1s.039.039.066.118c0,.013-.013.066-.026.144C-3.034,9.675-3.06,9.623-3.086,9.518Zm-6.291,6.736a4.009,4.009,0,0,1,.813-1.219,11.042,11.042,0,0,0,.944-1.14,2.507,2.507,0,0,0,.446-.59,2.69,2.69,0,0,1,.629-.655,6.85,6.85,0,0,0,.734-.839,6.228,6.228,0,0,1,.734-.682c.695-.839,1.14-1.258,1.35-1.258.092.013.131.052.131.131v.052a.2.2,0,0,1-.026.131,1,1,0,0,1-.315.524c-.1,0-.472.367-1.127,1.114-.17.066-.249.118-.249.144a2.506,2.506,0,0,1-.734.668c-.1,0-.21.131-.315.406l-.511.6L-7.9,14.76A11.845,11.845,0,0,1-9.377,16.254Zm6.527-5.74a1.96,1.96,0,0,1,.236.38v.013a.96.96,0,0,1-.157.118.525.525,0,0,1,.092.183v.066a.048.048,0,0,0-.039.013l.052.38v.026l-.013.157a.934.934,0,0,0-.183-.079.158.158,0,0,1-.079.118h-.026a.417.417,0,0,1-.131-.2l-.066.052H-3.2v-.092a.27.27,0,0,1,.249-.157H-2.9l.013.066v.013l-.039.052v.052c.013.013.026.026.039.026h.1l.026-.013a.253.253,0,0,0-.039-.131,2.581,2.581,0,0,0-.144-.826h-.039c-.066.17-.157.262-.3.262v-.013l.013-.066a.315.315,0,0,0,.2-.079A1.116,1.116,0,0,1-2.85,10.514Zm-.21.5h.092a.048.048,0,0,0,.013.039v.026l-.026-.013h-.013a1.063,1.063,0,0,0,.066.183v.013c-.118,0-.17-.039-.17-.118V11.13A.548.548,0,0,1-3.06,11.012Zm-1.232.459c.236-.275.432-.406.577-.406h.052a.177.177,0,0,1,.157.118l.131.891c-.013.118-.026.21-.026.288a1.275,1.275,0,0,0,.079.2c-.039.668-.052,1.048-.052,1.153,0,.052.013.157.026.315a.985.985,0,0,1-.092.367,6.2,6.2,0,0,1-.236,1.271,5.669,5.669,0,0,1-.459,1.114,7.672,7.672,0,0,1-2.359,2.569,5.708,5.708,0,0,1-1.992.616h-.039l-.026.013a.013.013,0,0,0-.013-.013H-8.63c-.052,0-.118-.013-.17-.013a.728.728,0,0,1-.6-.813v-.026a6.08,6.08,0,0,1,1.088-2.8c.668-.839,1.311-1.586,1.927-2.267a13.4,13.4,0,0,0,1.166-1.284c.249-.21.38-.341.38-.393v-.013a.6.6,0,0,1-.17-.223l.367-.315a.228.228,0,0,1,.079.144.3.3,0,0,0-.2.262l.013.026c.052,0,.183-.118.367-.367q-.02-.039-.039-.039h-.039l-.026.013-.026-.052v-.013h.052c.2,0,.315-.052.367-.17.236-.17.354-.288.354-.341a.079.079,0,0,0-.039-.079l-.066.013c-.17.2-.275.288-.328.288H-4.2Zm-.262.144.079-.026.026.013c0,.066-.013.092-.052.092l-.052-.066Zm1.363.183.092.013h.026c0,.013-.026.092-.079.262.026.1.052.157.092.157h.013c.026,0,.066-.079.1-.249h.013a1.2,1.2,0,0,1,.079.432v.026l-.013.079-.066-.052c-.157-.039-.236-.1-.236-.17a.515.515,0,0,0,.026-.079l-.118-.118.079-.1v-.026A.186.186,0,0,0-3.2,11.89Zm.38.262c.066-.066.1-.1.118-.1a.769.769,0,0,1,.157.275c-.066.262-.1.393-.1.419a.863.863,0,0,0,.118.341,1.778,1.778,0,0,1-.013.236c.013.183.013.3.013.367a.4.4,0,0,1-.052.17c-.013,0-.026-.026-.066-.066-.039-.223-.066-.341-.092-.341h-.013a.261.261,0,0,1-.026.1,2.642,2.642,0,0,1,.013.3v.026c0,.066-.079.118-.236.144.013.092.026.144.026.17h.026v-.052a.157.157,0,0,1,.052-.1c.052,0,.079.1.092.328v.144a1.242,1.242,0,0,1-.052.393.822.822,0,0,1-.17-.328.307.307,0,0,0,.092-.17V14.3c-.183-.092-.288-.157-.288-.21a.481.481,0,0,1,.21-.315.488.488,0,0,0,.118-.38q0-.079-.039-.079h-.092c-.026,0-.026.013-.026.026v.079H-3.06q-.039,0-.039-.079l.013-.026c.144-.026.21-.052.21-.079v-.17l.052.039c0,.1.039.144.118.144.026,0,.039-.039.052-.144,0-.026-.026-.223-.066-.577a.264.264,0,0,1,.039-.144c-.079-.183-.131-.275-.131-.288Zm-2.28.183c.052,0,.1.039.144.118v.013h-.026q-.079,0-.118-.118Zm-.406.446c.013-.066.039-.1.052-.1h.092c0,.079-.052.1-.131.1Zm2.359-.013h.013c.066.052.1.1.1.131l-.026.079a.126.126,0,0,1-.131-.092A.548.548,0,0,1-3.139,12.676Zm-2.634.38c0-.052.039-.1.131-.157v.013c-.066.092-.1.144-.118.144Zm2.831,1.861a.405.405,0,0,1,.1.026l-.013.092v.2c-.013.039-.039.066-.052.066h-.013a1.028,1.028,0,0,1-.026-.183Zm-2.241,3.761h.092l-.052.066C-5.157,18.744-5.17,18.731-5.183,18.679Zm-1.809,1.1a.731.731,0,0,1,.485-.236h.013v.026c0,.092-.17.157-.5.223ZM11.983,1.13H11.9A5.094,5.094,0,0,0,8.968,2.4,17.984,17.984,0,0,0,7.238,4,9.326,9.326,0,0,0,6.229,5.416c-.118.2-.341.695-.682,1.468a5.324,5.324,0,0,0-.236,1.193,2.527,2.527,0,0,0,.839,1.809,3.969,3.969,0,0,0,2.674,1.048h.223a7.289,7.289,0,0,0,.97-.092,5.816,5.816,0,0,0,2.529-1.284,3.437,3.437,0,0,1,.668-.577,2.965,2.965,0,0,0,.616-.59.013.013,0,0,1-.013-.013c-.1.052-.315.2-.642.419a8.065,8.065,0,0,1-1.14.813,1.36,1.36,0,0,1-.629.341.747.747,0,0,1,.21-.183,3.086,3.086,0,0,0,.655-.419A2.919,2.919,0,0,0,12.8,9.02c.249-.131.38-.223.38-.275.262-.236.5-.446.721-.616.118-.131.2-.21.223-.21h.013l-.262.406a.273.273,0,0,0,.17-.092,5.69,5.69,0,0,0,.8-.839A2.777,2.777,0,0,0,15.4,6.53a1.08,1.08,0,0,0,.183-.354V6.137a.186.186,0,0,0-.026-.079V6.019a1.514,1.514,0,0,0,.223-.616.166.166,0,0,0-.013-.079c-.092,0-.21.144-.38.446-.131.223-.393.59-.76,1.1V6.9l.026.039v.013a1.032,1.032,0,0,1-.288.328v.079h.079c.039,0,.052-.052.052-.144.039.026.052.039.052.052V7.3c0,.066-.066.144-.223.236a.78.78,0,0,0-.118-.236H14.2a1.1,1.1,0,0,0-.367.38c.013,0,.013,0,.013.013h.013c.21-.2.328-.3.367-.3a1.045,1.045,0,0,0,.052.21.429.429,0,0,0-.2.3h-.17c0-.026-.026-.052-.079-.052h-.013l-.118.079c-.079,0-.1.039-.118.118,0,.026-.026.066-.1.118v.026c.039.039.052.066.052.079a2.325,2.325,0,0,1-.223.131.157.157,0,0,0-.1-.052h-.013a1.162,1.162,0,0,0,.013.17l-.21.039v.092a2.772,2.772,0,0,0-.406.315,3.084,3.084,0,0,0-.695.341l.013-.066h-.1a1.737,1.737,0,0,1-.315.118v.079h-.079a1.439,1.439,0,0,1-.367.17.854.854,0,0,0-.537.236h-.039a2.088,2.088,0,0,0-.668.2,1.973,1.973,0,0,1-.839.21,2.589,2.589,0,0,1-.878-.157,1.763,1.763,0,0,1-1.14-1.8V8.26a3.974,3.974,0,0,1,.524-1.835h.013c0,.21.052.341.17.406a.517.517,0,0,0,.21.275,2.71,2.71,0,0,0,.944.262A5.956,5.956,0,0,0,11.943,5.73C13.32,4.512,14,3.476,14,2.651a1.112,1.112,0,0,0-.432-.852,2.823,2.823,0,0,1-.537-.367C12.939,1.235,12.586,1.13,11.983,1.13ZM8.143,5.337a9.034,9.034,0,0,1,1.14-1.271,11.156,11.156,0,0,1,1.743-1.311A5.339,5.339,0,0,1,12.7,2.087h.144q.236,0,.236.2c0,.21-.21.524-.616.9-.8.8-1.6,1.546-2.385,2.241a9.568,9.568,0,0,1-1.153.852.634.634,0,0,1-.446.17H8.47a.522.522,0,0,1-.419-.183c-.118-.249-.183-.38-.183-.38a1.376,1.376,0,0,1,.288-.511A.048.048,0,0,0,8.143,5.337Zm5.111-3.2h.052c.026.157.039.262.039.288a1.3,1.3,0,0,1-.393.773,10.611,10.611,0,0,1-1.638,1.468h-.026a.828.828,0,0,1,.2-.157,5.822,5.822,0,0,0,1.18-1.153q.629-.688.629-.9a1.712,1.712,0,0,0-.039-.3ZM8.287,4.223c0-.052.026-.079.066-.079V4.2A.221.221,0,0,0,8.287,4.223ZM6.439,6.753A.856.856,0,0,1,6.6,6.412a6.774,6.774,0,0,1,.983-1.455,2.106,2.106,0,0,1,.564-.6h.026a.5.5,0,0,1-.118.2C7.265,5.56,6.819,6.15,6.727,6.307q-.177.472-.275.472H6.439Zm1.284-.3a.221.221,0,0,1,.066.026c.157.144.262.21.315.21h.052A.331.331,0,0,0,8.339,6.6H8.4v.013a2.269,2.269,0,0,1-.393.2l-.066-.013-.052.026a.584.584,0,0,1-.17-.3Zm-.9.039h.039l.013.066v.013H6.858q-.039-.02-.039-.039Zm-.747.144h.013v.052H6.072Zm.21.406c0-.066.052-.131.183-.21a.661.661,0,0,1-.144.3H6.295l-.013-.066Zm.354-.17a.194.194,0,0,1,.092.013V6.91c-.026.039-.052.066-.066.066,0-.039-.013-.052-.039-.052C6.622,6.9,6.636,6.884,6.636,6.871Zm-.092.157h.1a1.169,1.169,0,0,1-.118.393c-.052.026-.079.144-.079.38a7.507,7.507,0,0,0-.144.8v.092c.1.537.21.8.288.8q.039-.02.039-.039V9.439a.6.6,0,0,1-.1-.288V9.033l.026.013A3.175,3.175,0,0,1,7.081,10v.052a.048.048,0,0,0-.039.013c-.21,0-.446-.223-.734-.655a3.226,3.226,0,0,1-.183-1,3.211,3.211,0,0,1,.262-1.088A1.252,1.252,0,0,0,6.544,7.028Zm-.826.511a1.09,1.09,0,0,1,.1-.328c.026-.1.066-.17.118-.17l.013.066v.039a.9.9,0,0,1-.17.485C5.771,7.631,5.744,7.591,5.718,7.539Zm.419-.157c0-.013.026-.039.092-.066l.013.066c0,.039-.026.066-.052.1-.013,0-.026-.026-.052-.066Zm-.013.157h.013c.039.013.052.039.052.092v.026l-.013.026c-.013,0-.039-.026-.079-.052Zm8.126.275c.17-.183.262-.275.288-.275V7.6a.677.677,0,0,0-.236.236Zm-8.584.013a.1.1,0,0,1,.066-.092c.052,0,.092.052.092.17A.4.4,0,0,1,5.8,8.05q.02.491.039.668c0,.092.026.131.079.131a1.161,1.161,0,0,0,.144.341c-.223,0-.367-.328-.406-.983,0-.1.013-.223.013-.354Zm7.995.21h.092c0,.026,0,.039.013.052h-.092A.079.079,0,0,0,13.66,8.037ZM11.694,9.4a.164.164,0,0,1,.118-.066h.026c0,.013-.052.026-.131.066Zm-.8.446a.1.1,0,0,0,.039-.013h.013v.013a.048.048,0,0,0-.039.013h-.013Zm-2.189.577.066.039-.013.026-.079-.013v-.013Zm.223.066c.066-.013.1-.026.118-.026H9.06c.131.013.2.039.2.066,0,0-.039.013-.092.026a.6.6,0,0,1-.236-.052Zm.21.21a2.412,2.412,0,0,0,.537-.066l.118.079c0,.026-.039.039-.131.052a2.526,2.526,0,0,0-.328-.039h-.2ZM42.4-9.341a3.318,3.318,0,0,0-.5.039,2.252,2.252,0,0,0-1.166.446c0,.092-.2.144-.59.17a2.943,2.943,0,0,1-.839.419,6.9,6.9,0,0,0-1.507.9c-.183.223-.328.328-.432.328-.249.066-.38.131-.38.2-.432.341-.695.55-.76.616a.789.789,0,0,1-.5.367l-.262.3a2.13,2.13,0,0,0-.668.446c-.092,0-.2.144-.3.419q-.55.236-.55.354l.039.183v.026c0,.092-.288.419-.878,1a1.3,1.3,0,0,0-.367.079q0,.374-.983,1.258a2.574,2.574,0,0,0-.642.9,1.829,1.829,0,0,0-.315.38c.013,0,.013,0,.013.013q.118,0,.315-.236a4.849,4.849,0,0,1,.826-.931,8.1,8.1,0,0,1,1.035-.97,6.441,6.441,0,0,1,.6-.655,9.28,9.28,0,0,1,1.324-1.18c.432-.406.695-.6.8-.6,0,.039.066.118.21.223v.039c0,.013-.026.039-.1.066a.193.193,0,0,0-.131-.118.72.72,0,0,0-.393.328c0,.026.052.052.144.092a.278.278,0,0,1-.144.1c-.013,0-.039-.026-.1-.092h-.013l-.262.21c.039.131.066.21.066.223a.917.917,0,0,0-.144.052V-4.1l-.026-.026c-.21.079-.315.17-.315.262l.013.026.223-.026c-.026.039-.079.118-.144.236a5.472,5.472,0,0,1-1.14,1.18,1,1,0,0,1-.511.5,1.85,1.85,0,0,1-.511.564A13.635,13.635,0,0,1,31.348-.167a2.309,2.309,0,0,1-.472.629,2.9,2.9,0,0,1-.406.655,2.452,2.452,0,0,1-.354.8,5.451,5.451,0,0,0-.5,1.691v.026a.752.752,0,0,0,.013.157l.183.393V4.3a.894.894,0,0,0,.052.262c.354.721.524,1.1.524,1.127h-.079a.181.181,0,0,1-.144-.079.7.7,0,0,0-.315-.354,1.255,1.255,0,0,1-.354-.682c-.079,0-.17-.341-.262-1.022a7.966,7.966,0,0,1,.236-1.127c.066-.144.1-.223.1-.236V2.061c0-.026-.039-.066-.144-.079-.026,0-.039.013-.066.039a.538.538,0,0,1-.183.459l.052.079a1.265,1.265,0,0,1-.131.393h-.039l-.052-.026a1.8,1.8,0,0,0,.066-.419,3.336,3.336,0,0,1,.144-.446V2.008l-.039-.052c-.223.2-.328.655-.328,1.376V3.45a3.475,3.475,0,0,0,.223,1,4.437,4.437,0,0,0,.97,1.442,15.068,15.068,0,0,0,1.756,1.429q.806.432,1.376.786c1.062.524,1.7.852,1.927.97.852.367,1.284.773,1.284,1.232a1.849,1.849,0,0,1-.092.472,1.294,1.294,0,0,1-.682.682,8.056,8.056,0,0,1-3.342.773,5.405,5.405,0,0,1-1.088-.118,1.641,1.641,0,0,1-1.429-1.625,7.659,7.659,0,0,1,.183-1.324,2.6,2.6,0,0,0,.315-.655V8.5a.522.522,0,0,0-.223.039,1.514,1.514,0,0,1-.432.655c-.026,0-.039-.013-.039-.026V9.151a1.236,1.236,0,0,1,.1-.367c0-.013-.013-.026-.026-.052l-.079.079a5.678,5.678,0,0,0-.944,2.569,1.991,1.991,0,0,0,.419,1.219,4.026,4.026,0,0,0,3.2,1.14h.118a8.723,8.723,0,0,0,3.394-.682,2.462,2.462,0,0,0,1.062-.682,2.222,2.222,0,0,0,.655-1.258v-.066a.243.243,0,0,0-.052-.131c-.1,0-.17-.17-.236-.511l.17-.066c0-.1-.1-.275-.315-.524-.118-.275-.223-.419-.3-.419a.013.013,0,0,1-.013.013.557.557,0,0,1,.066.157v.052a.035.035,0,0,1-.039.039h-.013c-.092,0-.38-.223-.839-.668-.262-.1-.393-.183-.406-.236l.039-.013h.039c.144.052.21.079.223.079h.066c.039-.013.052-.026.052-.039V8.745l-.052-.066a1.875,1.875,0,0,1-.511-.236A20.844,20.844,0,0,1,32.606,6.91a10.412,10.412,0,0,1-1.691-1.363,2.44,2.44,0,0,1-.695-1.809q0-1.769,3.971-5.727a45.3,45.3,0,0,1,3.643-3.185q4.05-3.067,5.5-3.067a1.627,1.627,0,0,1,.354.039.449.449,0,0,1,.262.472v.079a3.11,3.11,0,0,1-.079.682,5.881,5.881,0,0,1-.59,1.743,4.911,4.911,0,0,1-.642,1.415,19.343,19.343,0,0,1-1.887,2.634,3.345,3.345,0,0,0-.524.629,4.332,4.332,0,0,0-.472.432,6.009,6.009,0,0,1-1.219.931,2.569,2.569,0,0,0-.668.432c-.144.026-.223.079-.223.17,0,.066.013.092.066.092q.393.472.708.472h.1c.537,0,1.363-.524,2.464-1.546a18.6,18.6,0,0,0,1.848-2.071c1.6-2.228,2.411-4.01,2.411-5.347V-7.1a1.974,1.974,0,0,0-.59-1.481,3.307,3.307,0,0,0-2.176-.76ZM38.923-7.31c0-.026.039-.039.1-.066a.142.142,0,0,1,.092.144c0,.013-.039.039-.1.079h-.026A.227.227,0,0,0,38.923-7.31ZM37.495-6.288c.052-.066.079-.118.092-.131.38-.2.577-.3.59-.3a3.725,3.725,0,0,1,.655-.432c.026,0,.066.026.079.092-.013.066-.17.157-.485.288-.079,0-.21.1-.406.288a.83.83,0,0,0-.432.21Zm-.655-.3h.118a.353.353,0,0,1-.1.092h-.013Zm7.575.131.066-.066c.039.026.052.039.052.052v.013l-.052.092A.326.326,0,0,1,44.414-6.458Zm-7.3.223c.026-.039.039-.052.052-.052h.079c-.013.066-.039.092-.079.1,0-.013-.013-.026-.052-.026ZM44.336-6a.2.2,0,0,1,.079-.157,1.963,1.963,0,0,1-.039.236h-.039ZM44.2-6.144l.026.026c0,.013,0,.026-.026.026Zm-8.27.891a2.257,2.257,0,0,1,.485-.537.406.406,0,0,0,.3-.1h.026a.13.13,0,0,1,.066.092c0,.013-.066.079-.223.157a.652.652,0,0,1-.616.393Zm-.262-.406c0-.013.026-.039.079-.052v.092h-.079ZM44.1-5.41a.393.393,0,0,1,.118-.131.3.3,0,0,1-.118.262Zm-.432.655.131-.092c.052-.013.131-.131.249-.341v.039a2.248,2.248,0,0,1-.406.917c-.092.328-.183.485-.288.485H43.34v-.013l.013-.1a2.418,2.418,0,0,0,.354-.695v-.066A.221.221,0,0,0,43.667-4.754Zm-10.3,1.035-.026.026.013.026c.026,0,.026-.013.026-.026v-.026Zm9.764.341a.3.3,0,0,1,.17-.288h.026v.118c0,.092-.066.144-.183.17ZM34.664-3.6a.028.028,0,0,1,.026-.026h.026a.189.189,0,0,0-.026.039Zm-1.442.039c-.079,0-.183.079-.3.262,0,.026.026.039.079.066.026,0,.092-.1.223-.3Zm9.79.393a.084.084,0,0,1,.066-.092v.066A.072.072,0,0,0,43.012-3.168Zm-9.358.118c-.079.052-.118.079-.118.1v.026a.3.3,0,0,0,.183-.092.035.035,0,0,0-.039-.039Zm8.637,1a3.613,3.613,0,0,1,.564-.891,1.64,1.64,0,0,1-.537.891Zm-9.869-.668c-.1,0-.21.092-.328.288,0,.026,0,.026.026.026h.013a.1.1,0,0,0,.066-.013,1.26,1.26,0,0,1,.236-.262Zm.826.039c-.1,0-.17.066-.183.21a.035.035,0,0,0,.039.039h.131c.026-.013.052-.092.1-.236L33.3-2.684Zm-.262.21c-.118.118-.183.21-.183.275.013,0,.013,0,.013.013a.214.214,0,0,0,.223-.157C33.025-2.421,33.012-2.474,32.986-2.474ZM31.859-2.2c-.066.026-.092.052-.1.092s.013.052.039.052h.079a.035.035,0,0,0,.039-.039v-.1Zm.826.066-.249.249v.026a1.3,1.3,0,0,0,.315-.21v-.026C32.75-2.107,32.737-2.12,32.685-2.133Zm9.423.2.066-.013H42.2l-.026.079h-.066ZM31.544-1.95c-.026,0-.026,0-.039.026v.039l.026.026c.066-.026.1-.052.1-.066v-.013Zm.773.2c-.066,0-.131.052-.183.144-.17.144-.262.236-.262.288v.026l.013.039a.182.182,0,0,0,.1-.092c.236-.1.354-.236.354-.354v-.026Zm-1.009.118c-.026,0-.052.052-.092.144v.013a.224.224,0,0,0,.144-.066C31.361-1.57,31.348-1.6,31.309-1.635Zm10.472.144q0-.039.118-.079h.013v.092c0,.013-.026.039-.079.066h-.039Zm-9.987.236c-.079.052-.118.1-.118.144L31.7-1.1h.039c.079,0,.118-.039.118-.1v-.026c0-.013-.013-.026-.039-.026Zm-.157.3c-.21.079-.315.183-.315.328v.013a1.474,1.474,0,0,0,.341-.236V-.927Zm-.38.406c-.013,0-.026.013-.026.039v.026c0,.026.013.039.026.039l.066-.052c-.013-.039-.026-.052-.039-.052Zm-.511.118c-.026,0-.052.013-.1.052h-.013A.253.253,0,0,1,30.5-.416L30.47-.39c0,.026.039.092.131.2.1-.079.157-.144.157-.183A.1.1,0,0,0,30.745-.429Zm.419.052v.026l.013.039a.035.035,0,0,0,.039-.039c0-.013-.013-.026-.039-.026Zm-.131.131c-.039.013-.052.039-.052.052v.052a.028.028,0,0,0,.026.026H31.1a.07.07,0,0,0,.039-.052V-.22c0-.013,0-.026-.026-.026ZM30.863,0c-.052,0-.1.039-.144.131a.211.211,0,0,0,.039.118.243.243,0,0,0,.118-.223Zm-.734.315c-.013,0-.039.039-.052.1A.125.125,0,0,0,30.168.5q.079-.059.079-.079V.4c-.026-.052-.052-.079-.066-.079Zm.485.052c-.1,0-.17.052-.183.183l.013.026c.131-.052.183-.118.183-.21Zm-.328.446a.975.975,0,0,0-.249.328v.039a.353.353,0,0,0,.275-.328V.816Zm-.524.8a.3.3,0,0,0-.131.249l.013.026c.118-.013.17-.066.17-.144V1.707C29.815,1.654,29.8,1.628,29.762,1.615Zm-.262.066c-.013,0-.026.013-.052.066l.026.079h.013c.026,0,.026-.013.026-.026V1.707ZM30.129,4.8c.026,0,.039.013.039.026h-.039Zm.406.8c.092,0,.157.066.2.21C30.64,5.809,30.562,5.743,30.535,5.6Zm-.066.223h.013v.052H30.47Zm.354.118c.17.039.249.1.249.2v.052l-.079.013c-.1-.118-.17-.2-.17-.249Zm.026.3a.048.048,0,0,0,.039-.013c0,.013.013.013.026.013l-.026.039c-.013-.013-.026-.026-.039-.026Zm.262.013.026-.013c0,.013.013.026.026.052v.013h-.039A.1.1,0,0,0,31.112,6.255Zm.315.2h.013v.039h-.013Zm.21.21a.366.366,0,0,1,.236.079c-.013.026-.026.052-.052.052-.066,0-.118-.039-.183-.118Zm1,.511.066.013V7.2h-.013C32.658,7.2,32.632,7.2,32.632,7.172Zm.865.393c.026.013.039.026.052.026s-.013.026-.039.026L33.484,7.6Zm.472.485a.2.2,0,0,1,.183-.079h.026v.013c0,.026-.066.052-.2.066Zm-3.84.039a.419.419,0,0,0-.092.013,1.032,1.032,0,0,0-.354.564h.039a1.9,1.9,0,0,0,.419-.55ZM35,8.535h.026a.556.556,0,0,0,.157.066h.052l.079-.026c0,.013.039.039.092.1-.039,0-.066.013-.092.013A1.231,1.231,0,0,1,35,8.548Zm.97.341V8.9l.118.131a.094.094,0,0,0,.092-.052V8.941c-.026-.039-.039-.066-.066-.066Zm.315.157c-.013,0-.026.013-.039.026V9.1a.894.894,0,0,0,.367.223h.026C36.525,9.125,36.407,9.033,36.289,9.033Zm2.307.616v.039h.026l.039-.013c0-.013-.013-.026-.039-.026Zm-1.913,2.189a.189.189,0,0,0,.026-.118.985.985,0,0,0,.2-.419c0-.144.052-.223.144-.249a.177.177,0,0,1,.066.131v.026c-.17.419-.315.629-.406.629Zm-.2-.459c.066-.157.1-.249.131-.249l-.118.275h-.013Zm-1.3,1.18c.157-.157.288-.249.367-.249.341-.367.55-.564.668-.564,0,.066-.066.157-.2.3a1.848,1.848,0,0,1-.773.537h-.026Zm1.062-.472h.039V12.1h-.039Zm-1.56.682a1.252,1.252,0,0,0,.341-.118.028.028,0,0,1,.026.026.735.735,0,0,1-.275.1H34.69Zm-.97.262q0-.157.2-.157l.118.026v.013a.407.407,0,0,1-.3.144H33.72Zm-2.411.079.079-.013c.026,0,.092.013.183.026v.039a.6.6,0,0,0-.131.013c-.013,0-.066-.013-.131-.026Zm.865.118H32.2v.013h-.026ZM51.266-9.984a1.631,1.631,0,0,0-1.14.419,5.389,5.389,0,0,0-.9,1.992c-.459,1.52-.826,2.647-1.075,3.368-.066.013-.446.066-1.166.157a28.165,28.165,0,0,0-4.037.734,5.045,5.045,0,0,0-1.127.419.378.378,0,0,0-.157.249,1.162,1.162,0,0,0-.144.249V-2l.026.039.092-.013h.026l.026.013c0,.052-.013.131-.026.249.052.1.1.17.183.17.052,0,.17-.092.367-.262q0-.1.786-.275c.066,0,.157.013.249.013s.17-.026.17-.039a3.278,3.278,0,0,0,.564-.118,1.152,1.152,0,0,0,.236.026.041.041,0,0,0,.026-.013.317.317,0,0,1,.249-.157c.026,0,.118,0,.275.013a1.646,1.646,0,0,0,.275-.118,6.821,6.821,0,0,0,1.009-.17q.59-.039.59-.2c-.026-.013-.066-.039-.092-.052a.914.914,0,0,0-.21.1.085.085,0,0,1-.066-.026,2.673,2.673,0,0,0-.695.118h-.039a1.363,1.363,0,0,1-.2-.026,1.124,1.124,0,0,0-.446.157,1.417,1.417,0,0,0-.629.118,2.785,2.785,0,0,0-.367-.079c-.039.026-.066.039-.066.052a5.893,5.893,0,0,0-.786.223.664.664,0,0,1-.17-.026.057.057,0,0,0-.039.013,1.016,1.016,0,0,0-.315.144,1.159,1.159,0,0,0-.432.092C42.04-2.054,42-2.094,42-2.12s.079-.1.236-.17a.708.708,0,0,0,.21-.1c.013,0,.026.013.039.013a.186.186,0,0,0,.079-.026.284.284,0,0,1,.249-.157c.013,0,.039.026.066.079h.079c.013-.092.026-.131.066-.131h.013c.013.079.039.118.052.118h.079a.969.969,0,0,1,.262-.079.363.363,0,0,0,.118.013h.039c.039,0,.052,0,.066-.013a.481.481,0,0,0,.275-.157h.013a.293.293,0,0,1,.131.039c.249-.026.38-.066.38-.118.039,0,.092.013.157.013a.262.262,0,0,0,.1-.039.136.136,0,0,0,.052.013,1.537,1.537,0,0,1,.393-.066c.013,0,.052-.026.118-.092a.262.262,0,0,0,.1.039c.118,0,.17-.052.17-.157,0-.026-.013-.026-.026-.026h-.013l-.066.052h-.026c-.013,0-.039-.039-.079-.1a.363.363,0,0,0,.157-.066q.236-.02.236-.079h.039a.5.5,0,0,1,.144.118.035.035,0,0,0,.039-.039c0-.026.052-.052.157-.092,0-.013-.026-.039-.092-.066.013,0,.039-.013.1-.026.118.039.183.066.2.066l.223-.066c.066.013.092.039.092.079h.026q.039-.02.039-.039a.342.342,0,0,1,.144.039.355.355,0,0,0,.1-.039v-.039L46.9-3.444V-3.47l.092-.013h.183a1.163,1.163,0,0,0,.315-.079H47.5a.187.187,0,0,1,.157.079c.079-.013.131-.026.144-.026a.369.369,0,0,1,.1.013q0,.039-.118.079a.491.491,0,0,1-.1-.013l-.066.066h-.039q-.472.02-.472.079v.013c0,.013,0,.026.026.026h.079c.079,0,.275-.039.6-.092h.039A11.664,11.664,0,0,1,47.4-2.028C46.941-.521,46.522.816,46.142,2c-.3,1.18-.55,2.045-.734,2.582a13.912,13.912,0,0,1-.38,1.546,16.571,16.571,0,0,0-.446,3.08v.341a2.615,2.615,0,0,0,.157.931A1.3,1.3,0,0,0,46,11.366h.17a2.982,2.982,0,0,0,.695-.1A5.841,5.841,0,0,0,49.13,9.977a1.449,1.449,0,0,0,.38-.537L49.5,9.413a.1.1,0,0,1-.039.013c-.249.275-.406.406-.485.406H48.96c0-.013.013-.052.026-.1a2.4,2.4,0,0,0,.485-.446c.21-.236.485-.564.826-1,.131-.2.236-.3.3-.3.026-.1.052-.17.079-.17a1.419,1.419,0,0,0,.354-.472,2.28,2.28,0,0,0,.511-.878c.118-.315.183-.485.183-.511a.028.028,0,0,0-.026-.026c-.079,0-.157.092-.262.275-.092.144-.38.577-.865,1.311h-.013a.451.451,0,0,0-.118.013h-.013c.092-.118.131-.183.131-.223-.026,0-.066-.026-.092-.092q.157-.059.157-.079V7.12c-.026,0-.066-.026-.131-.079-.013,0-.066.039-.144.131v.066c0,.013.013.039.066.079v.013c0,.013-.039.026-.092.026a.641.641,0,0,1-.118.2v.013a.1.1,0,0,0,.026.079l-.013.066c0,.013-.144.157-.419.432a4.438,4.438,0,0,1-.419.459,2.536,2.536,0,0,1-.917.826c-.013,0-.026-.013-.039-.052a.148.148,0,0,0-.131.118,2.368,2.368,0,0,1-1.455.891.766.766,0,0,1-.249-.052c-.249-.144-.367-.459-.367-.944v-.2a8.513,8.513,0,0,1,.157-1.337,1.029,1.029,0,0,1,.17-.708c.564-1.009,1.114-2.162,1.678-3.447.695-1.546,1.048-2.346,1.048-2.4q.334-.786.55-1.415a17.708,17.708,0,0,0,.708-1.874c.131-.288.262-.708.432-1.232,0,0,.013,0,.039.026h.052a.079.079,0,0,0,.079-.039V-3.26L51.1-3.313c-.066,0-.1.026-.1.079h-.013v-.013l.1-.249c.1,0,.157.013.157.026a.759.759,0,0,1,.406.079v.013l-.092.013h-.183l-.026.013c.026.066.052.1.066.1h.013a1.091,1.091,0,0,1,.183-.052.141.141,0,0,1,.092.026l-.052.052v.026l.066.013a1.56,1.56,0,0,1,.223-.039L52-3.208h.144a.861.861,0,0,0,.17-.039c.262.039.59.066,1,.092a.56.56,0,0,1,.249.118c.013,0,.052-.026.118-.052a.364.364,0,0,0,.17.079h.013a.3.3,0,0,0,.118-.039c.55.079,1,.157,1.337.223.118,0,.17-.013.183-.026l.459.118h.092c.275-.052.419-.183.419-.38v-.092a1.26,1.26,0,0,0-.682-.983,6.323,6.323,0,0,0-2.7-.341h-.537c-.341,0-.721.013-1.166.039.3-.944.55-1.782.734-2.49a14.146,14.146,0,0,0,.354-2.149v-.092a.5.5,0,0,0-.066-.249.693.693,0,0,1-.17.079h-.013c-.052,0-.079-.079-.079-.21a.168.168,0,0,0-.17-.183l-.026.013a.057.057,0,0,1-.039-.013.792.792,0,0,0-.1-.17H51.79c-.013,0-.026.026-.052.066L51.712-9.9a.607.607,0,0,0-.367-.079Zm-.249,5.518A13.008,13.008,0,0,0,51.41-5.79,14.46,14.46,0,0,0,52.039-8.5c.039-.354.1-.524.17-.524h.026l.013.157v.118a8.258,8.258,0,0,1-.275,1.7,19.305,19.305,0,0,1-.695,2.569,1.957,1.957,0,0,1-.249.013Zm-1.088.092c.079-.223.131-.341.131-.341a19.074,19.074,0,0,1,.931-2.477,2.641,2.641,0,0,1,.459-.917h.013v.066a1.331,1.331,0,0,1-.092.328,1.606,1.606,0,0,1-.092.419c0,.013.013.026.013.039l-.039.2c-.118.446-.183.695-.183.734v.066l.013.026c.052-.039.079-.079.079-.1h.013c.013,0,.026,0,.026.026v.17a.273.273,0,0,1-.092.2c-.066.288-.1.432-.144.432l.013.066a.81.81,0,0,1-.052.21h-.013q-.039,0-.039-.079v-.039c.039,0,.066-.013.066-.026v-.052a.186.186,0,0,0-.026-.079.468.468,0,0,0,.118-.341A.028.028,0,0,0,51-5.881c-.039,0-.066.079-.092.223a.979.979,0,0,0-.118.432.806.806,0,0,1,.013.17v.17c-.013.079-.026.131-.052.131h-.013v-.026h-.026v.1l-.026-.013c-.013,0-.026,0-.026.026a.459.459,0,0,1,.026.131v.013l-.013.066a2.688,2.688,0,0,1-.734.079Zm1.678-2.569h.013v.026a1.819,1.819,0,0,1-.118.537c-.013,0-.026-.013-.039-.052l.052-.2A1.617,1.617,0,0,0,51.607-6.943Zm-.275,1.035c.039-.223.079-.328.118-.328,0,.118-.026.183-.052.183-.026.131-.039.183-.066.183Zm-.039.079h.026v.079a.079.079,0,0,1-.039.079v-.066Zm-.262.315c0-.013,0-.026.026-.026V-5.5H51.03Zm-.2.406a.028.028,0,0,1,.026-.026l.013.066-.013.026a.028.028,0,0,1-.026-.026Zm.2.223a.3.3,0,0,1,.1-.236v.066a.331.331,0,0,0-.079.223H51.03Zm-.066.223h.013v.052h-.013Zm-.052.131h.013v.066h-.013Zm.406.236a1.154,1.154,0,0,1,.275.079v.052l-.066.013H51.41l-.079.066h-.039L51.266-4.1A1.049,1.049,0,0,0,51.319-4.3Zm-.367.013s.052,0,.17.013a.3.3,0,0,0,.092-.013,1.048,1.048,0,0,0-.052.2H51.1a.439.439,0,0,0-.17-.092A.247.247,0,0,0,50.952-4.282Zm-.459.223c0-.131.039-.2.1-.2h.013a.906.906,0,0,1-.026.2l-.026-.013h-.039Zm-.629-.131a4.517,4.517,0,0,1,.616-.052h.013a.35.35,0,0,0-.1.223H50.27a.722.722,0,0,0-.275.066c-.039,0-.1-.013-.2-.013A1.367,1.367,0,0,1,49.864-4.191Zm2.031.079a.048.048,0,0,1,.013-.039,1.37,1.37,0,0,1,.38-.079.532.532,0,0,1,.223.066v.013a.812.812,0,0,0-.144.039h-.026L52-4.165c-.013,0-.026.013-.026.052Zm-6.763.747c.013-.066.092-.1.236-.1.223-.079.341-.131.354-.131.315,0,.485-.026.485-.066l.419-.1a1.822,1.822,0,0,0,.485-.1,2.1,2.1,0,0,0,.76-.118.706.706,0,0,1,.1.013l.092-.013h.013l-.092.223-.157-.013a.427.427,0,0,0-.17.052c-.2.026-.577.079-1.127.17H46.3c-.039.026-.052.039-.052.052a2.206,2.206,0,0,0-.472.079L45.7-3.444h-.039a1.232,1.232,0,0,1-.5.079Zm6.933-.275a.134.134,0,0,1,.066-.1h.013a.1.1,0,0,0,.026.052c-.026.052-.052.066-.066.066h-.039Zm-3.932.013h.026c.026,0,.026.013.026.026l-.026.039c-.013,0-.013,0-.026-.026Zm2.621.079c.039.039.066.052.079.052l.066-.013a.079.079,0,0,1,.052.013,2.764,2.764,0,0,1-.223.655A18.709,18.709,0,0,1,50.06-.993a16.631,16.631,0,0,1-1,2.425,7.977,7.977,0,0,1-.367.931c-.2.38-.38.773-.55,1.166a3.519,3.519,0,0,0-.393.695c-.157.354-.275.55-.341.577a.013.013,0,0,0-.013-.013,1.268,1.268,0,0,1,.17-.315,5.077,5.077,0,0,1,.328-.747c.236-.59.38-.917.432-1.009a2.709,2.709,0,0,1,.367-.8,3.98,3.98,0,0,1,.328-.839,8.255,8.255,0,0,1,.328-.8l.275-.734a1.761,1.761,0,0,0,.236-.682c.183-.432.3-.76.367-.957a3.585,3.585,0,0,0,.249-.76A2.323,2.323,0,0,0,50.755-3.549Zm-1.088.079c.275-.013.5-.026.695-.052h.026l-.013.026v.157c-.052,0-.079.026-.079.092H50.27c-.026,0-.026-.026-.026-.079h-.013c-.039.013-.052.039-.052.092v.066c.013.026.039.052.052.052a.541.541,0,0,1-.079.249.507.507,0,0,1-.144.406,1.216,1.216,0,0,1-.183.472l-.052-.039h-.026v.013l.013.079c-.013.039-.039.066-.052.066a.4.4,0,0,0,.052.118.174.174,0,0,1-.039.092l-.052-.026a.041.041,0,0,0-.026.013,1.483,1.483,0,0,0,.013.183.423.423,0,0,0-.079.236c-.052,0-.079,0-.079-.013,0,.026-.013.026-.026.026l.026.092v.17l-.013.092h-.026q-.039,0-.039-.079v-.039h-.039a.721.721,0,0,0-.092.249.113.113,0,0,0,.039.079A.186.186,0,0,1,49.3-.6l-.026-.013c-.026,0-.039.039-.066.1a.369.369,0,0,0,.013.1c-.013.026-.013.039-.026.039-.026.17-.066.249-.092.249a.028.028,0,0,1-.026-.026l-.026.013.013.066V.016l-.052-.066c-.039,0-.118.2-.236.6a1.821,1.821,0,0,0-.223.524l-.157.354c-.315.682-.524,1.14-.6,1.376v.013l.013.092L47.78,2.9a.162.162,0,0,0-.039.026q-.059.157-.079.157a4.563,4.563,0,0,0-.419.852H47.23c.066-.249.354-1.127.852-2.647.537-1.717,1.009-3.172,1.4-4.338.039-.026.066-.052.066-.092a.028.028,0,0,0-.026-.026c.066-.2.1-.3.1-.315A.048.048,0,0,1,49.667-3.47Zm-5.1.131v-.013a1.616,1.616,0,0,1,.315-.092h.026a.028.028,0,0,1,.026.026l-.013.026a1.219,1.219,0,0,0-.275.079A.186.186,0,0,1,44.569-3.339Zm2.5-.1a.028.028,0,0,0-.026.026V-3.4a.048.048,0,0,1,.039.013c0-.013,0-.026.026-.026a.028.028,0,0,0-.026-.026Zm1.913.1q.02-.039.039-.039V-3.3Q48.986-3.319,48.986-3.339Zm-.97.21c0-.026,0-.026.013-.026.013-.131.052-.2.1-.2v.026c.066.039.092.079.092.118A1.776,1.776,0,0,0,48.016-3.129Zm1.14-.131a.079.079,0,0,1,.039-.079h.026q.039.02.039.039v.039a.088.088,0,0,1-.052.092A.088.088,0,0,1,49.156-3.26Zm-2.267-.066a.791.791,0,0,1-.17.1c0,.013.026.026.066.039.131-.039.2-.052.2-.066S46.954-3.286,46.889-3.326Zm-1.232.092c-.013,0-.026,0-.026.026l.013.026.079-.013v-.013a.028.028,0,0,0-.026-.026Zm.931.026c-.079.026-.157.039-.249.066v.026c.183-.013.262-.039.262-.066v-.026Zm3.421,0a.079.079,0,0,0-.079.039v.039h.066q.039-.02.039-.039v-.013A.028.028,0,0,0,50.008-3.208Zm-.328.013-.052.013v.013c0,.013,0,.026.026.026h.026c.026,0,.026-.013.026-.026S49.707-3.195,49.68-3.195Zm-4.639.066c.066.013.144.039.236.066v.026a.491.491,0,0,0-.223.066.447.447,0,0,0-.21-.052h-.013a.132.132,0,0,0-.144.118A.353.353,0,0,1,44.517-3a.366.366,0,0,1,.066-.1c.066.026.1.052.1.066a.209.209,0,0,1,.131-.066h.052l.066.039C45-3.09,45.041-3.1,45.041-3.129Zm3.657.052q0-.039.079-.039a.1.1,0,0,0,.013.052l-.052.026a.162.162,0,0,1-.039-.026Zm-2.778-.039a.013.013,0,0,0-.013.013c-.131.026-.2.052-.2.066v.026c0,.026,0,.026.026.026h.039l.118-.039c.026,0,.066.013.1.013l.039-.039C46.037-3.077,46-3.1,45.919-3.116Zm.328.026v.013h.026V-3.09Zm-3.276.1c0-.013.013-.026.052-.039.013,0,.026.026.039.052s-.013.026-.026.026h-.013Zm1.035-.039h.066V-3h-.039C44.019-3,44.006-3,44.006-3.024Zm4.8.092c0-.013.026-.039.092-.066q0,.138-.079.157L48.8-2.906ZM47.465-3a.739.739,0,0,0-.157.052c0,.052.013.066.026.066h.092c.1,0,.144-.013.144-.039C47.531-2.972,47.5-3,47.465-3Zm-.236.013a.363.363,0,0,0-.157.066c.026.052.052.079.092.079.013,0,.039-.026.092-.1C47.23-2.959,47.23-2.972,47.23-2.985Zm-.878,5.636a.243.243,0,0,0,.223-.17,5.616,5.616,0,0,1,.2-.55,1.784,1.784,0,0,1,.079-.315c.367-1.232.616-1.992.734-2.28L48-1.91a2.823,2.823,0,0,0,.157-.472c.092-.393.183-.59.249-.59.013,0,.013.026.013.079a4.255,4.255,0,0,0-.144.485,1.006,1.006,0,0,0-.17.511,4.283,4.283,0,0,0-.183.59,1.164,1.164,0,0,0-.131.341A.984.984,0,0,0,47.7-.7c-.079.249-.157.55-.262.917a1.329,1.329,0,0,0-.131.5,9.991,9.991,0,0,0-.537,1.678.53.53,0,0,0-.079.144l.013.079v.013a.7.7,0,0,0-.144.367c-.066.223-.118.367-.131.446.013.066.026.1.052.1h.039c.013,0,.026-.026.039-.066s-.013-.079-.013-.118V3.345a.223.223,0,0,1,.1-.17c-.013-.052-.026-.092-.026-.1a2.133,2.133,0,0,0,.17-.406c.026-.223.066-.341.092-.341a1.1,1.1,0,0,1,.118-.367c.039-.328.092-.485.17-.485l-.013-.157.131-.026-.039.052v.013a.8.8,0,0,0,.066.079h.013a.209.209,0,0,0,.1-.039l-.013-.118a.094.094,0,0,1,.052-.092h.039c.013,0,.026.013.039.026h.052q.039-.02.039-.039c-.026-.039-.039-.052-.052-.052h-.118A.59.59,0,0,0,47.5.934V.907h-.052a.276.276,0,0,1-.1.079V.921A.358.358,0,0,1,47.4.855c.052-.223.1-.341.17-.341a.5.5,0,0,0-.013-.1A.257.257,0,0,1,47.7.187a.775.775,0,0,1,.1.066l-.052.262L47.714.488h-.039a.028.028,0,0,0-.026.026V.54c.039.039.052.052.052.066V.619A.079.079,0,0,1,47.662.7L47.583.685a.221.221,0,0,1-.066.026V.763a1.542,1.542,0,0,1,.2.144h.039c.026-.131.066-.2.092-.2h.066a.1.1,0,0,0,.013.039c-.026.118-.066.249-.118.419a2.513,2.513,0,0,1-.131.341h-.013c0-.039-.013-.052-.039-.052l.039-.052V1.379H47.57q0-.079-.039-.079h-.013q-.039.02-.039.039v.026a1.124,1.124,0,0,1,.039.223V1.6l-.118.079-.052.223c0,.026.026.052.079.066.026-.039.052-.066.066-.066s.013.026.013.039a.657.657,0,0,1-.039.183.6.6,0,0,1-.079-.052h-.013a.113.113,0,0,0-.079.039c0,.039.013.066.026.066h.118c0,.013.013.039.013.052a1.237,1.237,0,0,1-.157.432,6.658,6.658,0,0,1-.275.931V3.62q.02.039.039.039h.013l.052-.039V3.66a.079.079,0,0,1-.039.079c-.066,0-.1.039-.131.131-.066.223-.1.341-.131.341H46.81c-.013,0-.039-.039-.092-.118h-.013a.286.286,0,0,1-.066.183c0,.013.013.026.013.039.118.026.17.052.17.079-.013.079-.026.131-.052.131h-.052c-.026,0-.026-.026-.039-.066h-.026a.224.224,0,0,1-.066.144v.026c.079.026.1.052.1.079a.559.559,0,0,0-.1.275v.079h-.013c-.092-.039-.131-.079-.131-.144V4.9A1.334,1.334,0,0,1,46.5,4.7V4.629a.028.028,0,0,0-.026-.026h-.013l-.1.1a3.129,3.129,0,0,1-.131.328,1.048,1.048,0,0,0-.118.459c0,.223-.026.354-.092.406v.052l.144.1.039-.026h.026a.4.4,0,0,1-.17.157l.013-.066L46.05,6.1c-.052,0-.1.131-.144.406a1.431,1.431,0,0,1-.17.721.174.174,0,0,0,.039.092h-.013c-.066,0-.092.052-.1.157a.644.644,0,0,0,.039.157.468.468,0,0,0-.092.092.32.32,0,0,0,.013.092,2.949,2.949,0,0,1-.092.328v.013a.309.309,0,0,0,.157.3.211.211,0,0,0-.079.17.231.231,0,0,0-.2.249l.013.026a.556.556,0,0,0-.066.157v.013a.463.463,0,0,0,.052.223c.066.039.092.066.092.079-.079,0-.118.131-.144.367a2,2,0,0,0,.013.236,1.448,1.448,0,0,0-.013.21.157.157,0,0,0,.052.1v.079h-.013c-.066-.039-.092-.118-.092-.236v-.052c0-.013-.013-.026-.052-.039-.013,0-.039.039-.052.1q.039.177.039.2l-.052-.013c-.052,0-.1-.262-.17-.8a7.352,7.352,0,0,0,.079-.773,2.568,2.568,0,0,0-.026-.354,1.208,1.208,0,0,1,.066-.262s0-.1-.013-.315a.3.3,0,0,1,.066-.2A1.184,1.184,0,0,0,45.316,7a.169.169,0,0,0-.066-.144h-.013c-.039,0-.118.21-.223.629H45c-.013,0-.026-.026-.039-.092.013-.1.026-.17.039-.17.052-.406.092-.616.131-.616a2.807,2.807,0,0,1,.092-.616,1.246,1.246,0,0,1,.118-.432,2.038,2.038,0,0,1,.183-.682,1.892,1.892,0,0,1,.052-.3,1.693,1.693,0,0,0,.1-.5,8.563,8.563,0,0,0,.354-1.258.639.639,0,0,0,.1-.315.6.6,0,0,0,.079-.21c.013-.066.144-.485.406-1.258a1.837,1.837,0,0,1,.183-.6,2.77,2.77,0,0,1,.118-.419,3.594,3.594,0,0,0,.2-.682.6.6,0,0,0,.17-.446,2.749,2.749,0,0,0,.223-.616,1.109,1.109,0,0,1,.2-.564c.1-.393.157-.59.2-.59h.079v.052a.174.174,0,0,0-.039.092v.118l-.092.1V-2.5l.066.066v.026h-.013l-.039-.026h-.013c-.013,0-.026,0-.026.026l.026.092a.123.123,0,0,1-.079.1,2.635,2.635,0,0,1-.079.354c-.052,0-.092.118-.1.354-.066.066-.1.1-.1.118s.013.026.013.052c-.052.183-.079.288-.079.288.039.039.052.066.066.066,0,.039-.026.092-.1.144a1.523,1.523,0,0,0-.2.629c0,.026.013.039.066.039a.254.254,0,0,0-.1.21V.2c-.066,0-.131.118-.21.367V.606s.026.026.079.092V.737c-.066,0-.131.052-.183.157a.867.867,0,0,1,.013.144.638.638,0,0,0-.144.249l.026.039v.026c-.039.052-.079.092-.1.092-.026.144-.052.21-.079.21a.391.391,0,0,1-.066.262c-.039.183-.079.328-.1.446a.141.141,0,0,0,.026.1c0,.013-.039.039-.1.092C46.3,2.611,46.312,2.637,46.351,2.651Zm2.7-5.531a.11.11,0,0,1,.052-.092c.026,0,.026.013.026.026v.013c0,.066-.013.1-.052.118A.085.085,0,0,0,49.051-2.88Zm-6.422.026c0-.052.039-.092.1-.1h.131v.013c0,.026-.066.066-.183.1h-.026Zm1.193-.1h.026v.013h-.026Zm3.067.039-.1.1.013.026a1.3,1.3,0,0,0,.2-.013v-.013a.243.243,0,0,0-.092-.1ZM43.167-2.8c0-.052.131-.092.406-.092h.052c0,.013-.013.026-.066.039l-.118-.013a1.734,1.734,0,0,0-.236.092.057.057,0,0,0-.039-.013Zm-.38.039.17-.039c0,.013.013.013.052.013q0,.039-.079.039h-.144Zm-.773.315a.541.541,0,0,0,.092-.144,2.1,2.1,0,0,1,.577-.144h.039a.115.115,0,0,1-.118.1h-.1l-.1.092h-.131a.862.862,0,0,1-.236.118h-.013Zm6.71-.131h.013V-2.5c0,.013-.013.052-.026.118-.079-.026-.118-.039-.118-.052v-.026l.013-.026C48.684-2.513,48.724-2.553,48.724-2.579Zm.183.066c.039.013.052.026.052.039l-.039.052q-.039-.02-.039-.039v-.013Zm-.931.079H48v.013h-.026Zm.616.17c.013,0,.026,0,.026.013v.013C48.606-2.238,48.593-2.238,48.593-2.264ZM48.37-.9c.026-.131.052-.2.066-.2a.514.514,0,0,1,.144-.432c.066-.341.131-.511.183-.511h.013l.013.066a.233.233,0,0,1-.052.131l-.2.668a.561.561,0,0,0-.131.3,7.348,7.348,0,0,1-.3,1.022c-.013,0-.052-.039-.1-.1V.016c.039,0,.092-.039.131-.118a1.952,1.952,0,0,1,.249-.747A.079.079,0,0,1,48.37-.9Zm.1-1.022A.072.072,0,0,1,48.527-2c.013,0,.013.013.026.039l-.039.131h-.026L48.475-1.9Zm1.3.039A.028.028,0,0,1,49.8-1.91h.013v.052c0,.013,0,.026-.026.026C49.785-1.858,49.785-1.871,49.772-1.884Zm-1.337.118c.013,0,.026.013.039.052s-.013.039-.026.039h-.039C48.409-1.688,48.422-1.714,48.435-1.766Zm1.153.236q-.039.02-.039.039c0,.026,0,.026.026.026s.026-.013.039-.039S49.6-1.53,49.589-1.53Zm-1.311.183c0-.026.026-.039.052-.052l.026.039v.013c0,.013-.013.026-.052.039A.162.162,0,0,1,48.278-1.347Zm1.18.157a.028.028,0,0,0-.026.026v.052h.039v-.052Zm-1.638.616h.066a.048.048,0,0,0,.013.039l-.066.262h-.013Zm1.337.144V-.39h.026V-.429ZM49.1-.311V-.3h.026V-.311ZM47.872-.1c.052-.118.092-.183.118-.183A.048.048,0,0,0,48-.246a.162.162,0,0,0-.026.039v.157a.126.126,0,0,1-.092.118L47.832.016h-.079l-.026.013A.186.186,0,0,0,47.7-.049c.026-.052.052-.066.066-.066h.013ZM47.7.226V.265l.026-.013A.028.028,0,0,0,47.7.226Zm.262.026h.066a.028.028,0,0,1,.026.026V.3a1.534,1.534,0,0,1-.131.354h-.013A.083.083,0,0,1,47.846.58.9.9,0,0,0,47.963.252ZM46.928.645c-.013,0-.026,0-.026.026V.685h.039V.645Zm.38.472c0-.013,0-.026.013-.026V1.13h-.013Zm-.446,0h.013v.026h-.013Zm.747.472c.026-.039.039-.052.052-.052V1.55l-.026.079c-.013,0-.026,0-.026-.013Zm-.38.223a.092.092,0,0,0-.052.066c0,.013.013.026.052.039.039-.013.066-.026.066-.039V1.838a.028.028,0,0,0-.026-.026Zm-.118.367V2.2c0,.013,0,.026.026.026a.026.026,0,0,0,0-.052Zm.2.1c-.039.013-.066.026-.066.052v.039c0,.013,0,.013.026.013h.039q.039-.02.039-.039V2.323Q47.348,2.3,47.308,2.284Zm-.3.2v.013h.026V2.48Zm-.026.157c-.013,0-.026.026-.052.079v.013h.013l.066-.013V2.7l-.013-.066Zm.118.039a.028.028,0,0,0-.026.026v.066c0,.013.026.039.066.052s.039-.026.052-.066a.028.028,0,0,0-.026-.026l.026-.039V2.677Zm-.668.013q-.039.02-.039.039v.026c0,.013.013.026.052.039.013,0,.026-.013.039-.052C46.456,2.7,46.443,2.69,46.43,2.69Zm.655.157a.028.028,0,0,0-.026.026v.013a.026.026,0,1,0,.052,0V2.847Zm-.695.039a.1.1,0,0,0-.066.1h-.079a.142.142,0,0,0-.092.039,1.4,1.4,0,0,1-.079.3c.013.144.079.21.17.21.013,0,.039-.052.079-.144A.574.574,0,0,1,46.417,3V2.913A.028.028,0,0,0,46.391,2.886Zm.524,0c-.066,0-.1.039-.131.144v.052L46.8,3.2a.473.473,0,0,0-.052.066v.079q.02.039.039.039h.026a1.513,1.513,0,0,1,.17-.38A.181.181,0,0,0,46.915,2.886Zm0,.5a.028.028,0,0,0-.026.026v.013a.028.028,0,0,0,.026.026h.013V3.384Zm-.472.2c-.066.026-.092.092-.092.2a1.89,1.89,0,0,0-.131.485.028.028,0,0,1,.026.026c.052-.026.079-.052.079-.092a2.451,2.451,0,0,1,.144-.524V3.607A.028.028,0,0,0,46.443,3.581Zm.17.183q-.039,0-.118.079c0,.079.013.131.052.131h.013c.026,0,.052-.052.092-.17,0-.026,0-.039-.026-.039Zm-.537.013a.261.261,0,0,0-.157.1V3.9c.013.066.039.092.052.092S46,3.974,46,3.948h.092a.162.162,0,0,0,.039-.026v-.1C46.129,3.8,46.116,3.791,46.076,3.778Zm.957.1h.013v.026h-.013Zm-.262.013c-.013,0-.026,0-.026.026v.013l.013.026c.052,0,.066-.013.066-.026S46.81,3.909,46.771,3.9Zm-.865.183c-.052.039-.092.157-.118.38a1.473,1.473,0,0,0-.1.485c.013.118.039.17.079.17h.013c.026-.013.066-.1.1-.288l-.052-.092c0-.013.013-.026.026-.039.1-.079.144-.236.144-.485V4.184a.108.108,0,0,0-.066-.1Zm.3.328c-.039.026-.066.039-.066.052v.052l.026.039c.039-.026.066-.039.066-.052V4.485A.186.186,0,0,0,46.207,4.407Zm-.118.367q-.039.02-.039.039v.039c.026.039.039.052.052.052s.039-.026.039-.039V4.826C46.116,4.8,46.1,4.774,46.089,4.774Zm-.026.17H46.05c-.039,0-.066.079-.092.236v.039a.028.028,0,0,0,.026.026h.026a1.06,1.06,0,0,0,.066-.275Zm.341.131c.1,0,.144.039.144.118a.911.911,0,0,1-.052.223h-.013l-.039-.039-.066-.262Zm-.629.092c-.066,0-.131.052-.223.157a.892.892,0,0,1-.066.275c0,.026.039.039.144.052l.039-.026A3.5,3.5,0,0,1,45.8,5.18Zm.537.315.066-.013h.052l.013.079V5.56c-.052.131-.118.262-.2.432h-.039c-.013,0-.026-.013-.039-.052.013-.039.052-.066.1-.1a1.376,1.376,0,0,0-.026-.17.214.214,0,0,1,.1-.118c0-.013-.013-.026-.039-.026Zm-.826.183a.744.744,0,0,0-.131.446.367.367,0,0,0,.013.079h.026a1.536,1.536,0,0,0,.21-.2l-.039-.131V5.822A.16.16,0,0,0,45.6,5.7Q45.6,5.685,45.486,5.665Zm.59.55h.013v.013a.167.167,0,0,1-.066.092A.6.6,0,0,1,46.076,6.215Zm5.046.157c-.052,0-.1.052-.144.144v.052L51,6.608l.157-.183V6.412Q51.142,6.373,51.122,6.373Zm-5.871.275a.028.028,0,0,0-.026.026c.052.066.092.092.144.092h.013a.028.028,0,0,0,.026-.026V6.726A.159.159,0,0,0,45.251,6.648Zm5.74.013a.028.028,0,0,0-.026.026l.013.026A.028.028,0,0,0,51,6.687Zm-.21.118q-.039.02-.039.039v.026a.028.028,0,0,0,.026.026h.026q.039-.02.039-.039V6.805a.028.028,0,0,0-.026-.026Zm-.21.092a.134.134,0,0,0-.066.079c0,.026.013.039.026.039h.013c.052-.039.066-.052.066-.066V6.9c0-.013,0-.026-.026-.026Zm.17.052a.271.271,0,0,0-.183.118l.052.026c.052,0,.092-.039.131-.118Zm-5.177.144a.028.028,0,0,0-.026.026c0,.026,0,.026.026.026h.013V7.093Zm-.052.118a.048.048,0,0,1-.013.039.1.1,0,0,0,.026.052l.039-.026c-.013-.039-.026-.066-.039-.066Zm.393.315a.028.028,0,0,1,.026-.026v.1c-.013,0-.013-.013-.026-.026Zm-.917.1q.02,0,.039.079L45,7.945V8a.342.342,0,0,1-.039.131c-.026.249-.052.38-.092.38h-.013l-.013-.092V8.378a.526.526,0,0,1,.039-.2C44.884,7.84,44.923,7.644,44.988,7.6Zm.917.066h.026l.013.092c-.013.092-.039.131-.066.131h-.026c-.013,0-.013,0-.026-.026V7.854A.394.394,0,0,1,45.906,7.67Zm4.482.092c.013,0,.026,0,.026.026l-.013.026c-.026,0-.026-.013-.026-.026Zm-4.574.419h.026c0,.013.013.039.013.052a1.568,1.568,0,0,1-.039.183h-.026a.048.048,0,0,0-.013-.039Zm4.207.223c.052-.092.1-.144.17-.144H50.2q-.039.157-.079.157h-.039Zm-4.7.092c-.013,0-.026,0-.026.026v.039l.026.026c.039,0,.066-.013.066-.026V8.548C45.382,8.535,45.355,8.509,45.316,8.5Zm-.039.236c-.026.026-.052.039-.052.052V8.8c0,.026.013.026.026.026h.039c0-.013,0-.013.013-.039S45.29,8.758,45.277,8.732Zm4.666.183a.028.028,0,0,0-.026.026v.026a.028.028,0,0,0,.026-.026Zm-4.5.052a.028.028,0,0,1,.026-.026h.013a.028.028,0,0,1,.026.026v.039A.12.12,0,0,0,45.447,8.968Zm.131.039a.079.079,0,0,0,.052-.013h.013l-.013.052h-.052Zm-.341.052q-.02,0-.039.079V9.2c.026.026.039.052.052.052h.026c.013,0,.026-.026.039-.052-.013-.1-.026-.144-.039-.144Zm4.561,0v.026h.039V9.059Zm-.079.1q-.039.02-.039.039V9.23h.039q.039-.02.039-.039c0-.013,0-.026-.026-.026Zm-.131.118v.026h.026V9.282Zm-4,.144a.079.079,0,0,0,.052-.013,2.124,2.124,0,0,0,.039.275.325.325,0,0,0-.013.118c-.026,0-.052-.039-.079-.1,0-.118.013-.2.013-.236A.057.057,0,0,1,45.591,9.426Zm-.38.013c0,.079.013.17.013.288l-.013.092c.026.079.039.118.066.118h.013V9.9a2.05,2.05,0,0,0-.052-.459Zm.393.747c0-.013,0-.013.026-.026h.026q.039.02.039.039v.079c-.052,0-.079-.013-.092-.052ZM61.421,1.379l-.039.013c-.223.118-.328.236-.328.315a2.571,2.571,0,0,0-.21.275c-.026.21-.039.315-.066.315a2.257,2.257,0,0,1-.21.616v.052l.013.026c-.013,0-.026.039-.039.144-.092.052-.131.1-.131.118a.2.2,0,0,0,.026.118l-.1.144v.052l.013.026c.052-.013.092-.026.092-.066h.013v.039a1.955,1.955,0,0,1-.328.668c-.039.144-.079.21-.118.21a2.106,2.106,0,0,1-.249.406c-.066.21-.118.3-.144.315a1.275,1.275,0,0,0-.131.2.5.5,0,0,1-.1.223,3.141,3.141,0,0,1-.341.511,1.182,1.182,0,0,1-.262.406,1.576,1.576,0,0,1-.288.459c-.1.17-.2.262-.236.262a.212.212,0,0,1,.052-.131V7.028a.247.247,0,0,1-.118.052.8.8,0,0,0-.17.236.2.2,0,0,0,.039.079.377.377,0,0,0,.17-.118h.013V7.3a1.3,1.3,0,0,1-.17.249h-.026V7.46a.028.028,0,0,0-.026-.026H58l-.039.026V7.434h-.013c-.092.131-.183.249-.275.367a6.051,6.051,0,0,1-1.153,1.337c-.577.668-1,1-1.284,1h-.013a.223.223,0,0,1-.092-.013c-.2-.092-.288-.367-.288-.839V9.164a12.157,12.157,0,0,1,.223-1.927,15.122,15.122,0,0,1,.616-2.189,19.662,19.662,0,0,1,.839-2.215,2.832,2.832,0,0,0,.288-.826V2a.484.484,0,0,0-.026-.17.724.724,0,0,0-.642-.432,1.447,1.447,0,0,0-.8.223c-.052,0-.17.223-.341.668l-.432,1.022c-.1.419-.2.813-.3,1.166a15.029,15.029,0,0,0-1,4.3v.118c0,.1,0,.157.013.157a2.233,2.233,0,0,0,.708,1.376,2.28,2.28,0,0,0,1.494.642h.039a1.148,1.148,0,0,0,.629-.275,1.611,1.611,0,0,0,.577-.367,9.7,9.7,0,0,0,1.258-1.4V8.994a2.841,2.841,0,0,0-.38.38,2.539,2.539,0,0,0-.419.393c0,.092-.144.144-.419.157V9.911a2.679,2.679,0,0,0,.419-.328,9.586,9.586,0,0,0,1.048-1.1,21.534,21.534,0,0,0,1.507-2.2h.013v.013a2.15,2.15,0,0,0-.131.852,2.262,2.262,0,0,0,.21,1A1.846,1.846,0,0,0,61.643,9.19h.013a3.765,3.765,0,0,0,1.992-.616c.2-.17.288-.275.288-.315a2.388,2.388,0,0,0,.6-.655c0-.013,0-.026-.026-.026a.59.59,0,0,0-.118-.223c.013-.066.026-.092.026-.1a.028.028,0,0,0-.026-.026.236.236,0,0,0-.118.052,1.17,1.17,0,0,1-.328.341L63.924,7.6l.013-.052c.131-.1.2-.2.2-.262V7.264h-.026a.244.244,0,0,0-.131.066,4.282,4.282,0,0,1-.708.577c-.026.052-.079.066-.17.066q0,.059-.236.157c-.236.026-.354.066-.354.092l.039.066c0,.013-.052.052-.17.118a1.97,1.97,0,0,1-.616-.092.989.989,0,0,1-.642-1.022V7.146a2.131,2.131,0,0,1,.157-.76.362.362,0,0,1-.013-.1,7.94,7.94,0,0,0,.236-.944c.315-.97.472-1.468.472-1.481a4.671,4.671,0,0,0,.275-1V2.847l-.066-.537V2.179a.406.406,0,0,1,.066-.144c0-.013,0-.026-.026-.052l-.039.026h-.026c-.131-.183-.223-.288-.275-.288-.052.052-.079.079-.092.079s-.026-.026-.052-.092l.026-.039c-.039-.131-.066-.2-.1-.2h-.013c-.079.013-.131.026-.144.026h-.013A.256.256,0,0,0,61.421,1.379Zm.354.695c0-.013.026-.039.092-.066l.026.013c0,.013-.039.039-.1.052ZM61.63,3.162h.052c.013,0,.026,0,.026.013v.052l-.013.079a.423.423,0,0,1-.131.288V3.66l.066.066-.118.079c0,.013.013.026.013.052-.026.092-.052.131-.079.131a1.715,1.715,0,0,1-.118.367,2.426,2.426,0,0,0-.144.5v.026L61.2,4.9a.1.1,0,0,0,.039-.013h.013v.066a1.144,1.144,0,0,1-.066.17c-.026,0-.026-.026-.026-.066h-.039a1,1,0,0,1-.066.21.6.6,0,0,1-.066.2v.026c0,.026.013.026.026.026l.039-.026c.013-.144.039-.21.092-.21a.1.1,0,0,0,.013.039c-.013.039-.026.066-.039.066-.026.144-.131.564-.328,1.245l-.052-.052a.647.647,0,0,0,.039-.2l-.026-.039h-.013a4.13,4.13,0,0,0-.144.616c0,.013,0,.026.026.026s.066-.092.092-.249V6.7h.026v.1a.6.6,0,0,1-.052.236.1.1,0,0,1-.066-.026h-.013l-.052.026a.75.75,0,0,1-.131.446c.026.183.052.3.052.328a.572.572,0,0,1-.092.275l-.026-.013a.705.705,0,0,0-.118-.341.085.085,0,0,0-.066.026,1.783,1.783,0,0,0,.013.21c-.079,0-.118-.079-.118-.223a.9.9,0,0,0,.039-.328.681.681,0,0,0-.039-.066.566.566,0,0,0,.052-.183c0-.052-.013-.092-.039-.092a1.967,1.967,0,0,0-.118.6l.013.066-.026.079H59.94c0-.013,0-.026-.026-.052a1.071,1.071,0,0,0,.013-.183.809.809,0,0,0-.026-.236,1.142,1.142,0,0,0,.026-.262.311.311,0,0,0-.039-.2V6.884a.243.243,0,0,0,.092-.026.737.737,0,0,1,.092-.3L60.031,6.5l-.026.013c-.013.092-.026.144-.052.144H59.9a.369.369,0,0,0-.013-.1.352.352,0,0,1,.1-.21h.013c0,.026.013.039.026.039a.236.236,0,0,0,.092-.2,3.381,3.381,0,0,0,.131-.432,2.09,2.09,0,0,0,.157-.406l.17-.223v.013l-.066.341v.013c0,.026,0,.026.026.026h.013l.026-.013-.013-.052c0-.026,0-.026.026-.026h.013l.066.013q.118-.039.118-.118a.852.852,0,0,0,.118-.341,1.023,1.023,0,0,0,.118-.275L61.014,4.7a1.643,1.643,0,0,0,.118-.354,1.1,1.1,0,0,0,.131-.406c0-.039.052-.092.157-.183V3.738c0-.026,0-.039-.013-.052Zm-.55.144.026.013c-.026.131-.052.2-.066.2a.662.662,0,0,1-.066.249.1.1,0,0,1-.052-.052c.026,0,.052-.079.079-.223A.494.494,0,0,0,61.08,3.306Zm-5.544.354a.028.028,0,0,1,.026.026h-.026Zm4.666.079q-.039.02-.039.039v.013q.02.039.039.039h.026q.039-.02.039-.039C60.267,3.765,60.241,3.751,60.2,3.738ZM60.556,4.9l.1-.393c.079-.066.1-.2.1-.406.066-.2.118-.3.157-.3v.039l-.026.092v.092a.255.255,0,0,1-.013.1c-.079.2-.131.354-.183.5-.013.118-.039.17-.066.17v.066c0,.092-.026.131-.039.131h-.026l-.013-.066Zm-.564-.826a.16.16,0,0,1-.079.131v.013c.026.039.039.052.052.052a.217.217,0,0,0,.066-.17V4.079Zm-4.653.026.026.013c-.026.092-.066.144-.092.144A.217.217,0,0,1,55.339,4.105Zm4.561.249h-.026c-.026.079-.066.17-.1.262,0,.013.013.026.013.039h.039l.013-.079c.066-.066.1-.118.1-.157V4.394Q59.92,4.354,59.9,4.354Zm1.494.052h.013v.026h-.013ZM56.6,9.859V9.846c.1-.118.223-.249.341-.406a3.424,3.424,0,0,1,.406-.577,1.087,1.087,0,0,1,.21-.288,2.537,2.537,0,0,1,.393-.5.879.879,0,0,1,.341-.537,7.021,7.021,0,0,1,.564-.852c.144-.275.223-.419.223-.419a3.475,3.475,0,0,1,.275-.446c.118-.249.2-.38.236-.38.1-.223.21-.393.275-.511A2.354,2.354,0,0,1,60.2,4.42a9.259,9.259,0,0,1-.2.983,5.249,5.249,0,0,0-.564.878,7.232,7.232,0,0,1-1.009,1.7,8.9,8.9,0,0,1-1.822,1.874ZM55.169,4.446h.013a.421.421,0,0,0,.013.1c-.092.3-.144.459-.17.459-.026.157-.052.236-.066.236V5.219H54.92v.052a.048.048,0,0,1,.039.013.231.231,0,0,0-.013.079,1.452,1.452,0,0,0-.118.3,2.534,2.534,0,0,0-.183.6,2.052,2.052,0,0,0-.2.682,1.844,1.844,0,0,0-.144.616,2.24,2.24,0,0,0-.1.564h-.026a.48.48,0,0,1,.026-.21c-.013-.013-.013-.026-.013-.052v-.21l.039-.131V7.434a.363.363,0,0,1,.013-.118,1.3,1.3,0,0,0,.1-.354l.092-.432a.4.4,0,0,1,.131-.262V6.228a1.444,1.444,0,0,1,.026-.236.771.771,0,0,0,.131-.328V5.586a.21.21,0,0,0,.066-.144c.079-.275.144-.419.183-.419A1.2,1.2,0,0,1,55.169,4.446Zm4.5.367c-.039.026-.052.039-.052.052v.013q.02.039.039.039h.026c.013,0,.026,0,.026-.026V4.839c0-.013-.013-.013-.026-.026Zm1.035.668h-.066c-.052.157-.079.223-.092.223,0-.066-.013-.1-.026-.1H60.49c-.026,0-.039.039-.052.1a.048.048,0,0,0,.039.013c.013,0,.039.039.092.131-.039.118-.066.183-.092.183h-.013l-.052-.039c.026-.1.052-.17.052-.2V5.757h-.026a.861.861,0,0,0-.1.315l.026.039.026-.013h.066q.039.02.039.039V6.15a.225.225,0,0,0-.026.1v.026H60.5a2.482,2.482,0,0,0,.21-.786Zm-1.546.17c-.013,0-.013.013-.026.026l.013.026.039-.026C59.179,5.665,59.179,5.652,59.153,5.652Zm1.8.026c-.026,0-.052.052-.066.144.013,0,.013,0,.013.013.039-.013.066-.039.066-.052V5.7Zm4.862.039-.262.275q-.079.236-.157.236v.026c.013.066.039.092.052.092h.013c.026,0,.052-.026.066-.092a3.428,3.428,0,0,0,.315-.5C65.837,5.73,65.824,5.717,65.811,5.717Zm-6.763.1v.039h.026V5.822Zm1.035.144.026.013-.013.066h-.026a.048.048,0,0,0-.013-.039Zm-1.1,0-.039.026a.627.627,0,0,1-.131.223v.052c.039,0,.1-.079.183-.262V5.966Zm1.389.17h-.039a.984.984,0,0,0-.092.262v.092h.013a.429.429,0,0,0,.118-.341ZM60.8,6.2c-.013,0-.026.026-.052.066l.026.013a.162.162,0,0,0,.039-.026V6.2Zm-6.566.118h.013l.013.066-.118.367h-.039V6.74A.986.986,0,0,1,54.239,6.32Zm11.1,0h-.026a2.1,2.1,0,0,1-.433.485l-.118.066v.066h-.079a.123.123,0,0,0-.1.079.028.028,0,0,0,.026.026h.066c.013.092.026.131.039.131h.066a.567.567,0,0,1,.183-.262.166.166,0,0,1,.17-.131c.052,0,.092-.052.131-.17l.144-.131A.318.318,0,0,0,65.339,6.32Zm-4.9.039a.028.028,0,0,0-.026.026v.026l.026.039v.026c-.079.013-.118.1-.118.262q0,.02-.079.039l-.052-.039h-.013a.117.117,0,0,0-.066.1.028.028,0,0,0,.026.026h.026l.039-.026c.039,0,.1.039.17.144h.013q.039-.02.039-.039V6.9c0-.039-.013-.079-.013-.118,0-.013.013-.039.013-.052a.221.221,0,0,0-.026-.066c.039,0,.066-.092.066-.275C60.464,6.373,60.451,6.373,60.438,6.359Zm-1.7.013a.282.282,0,0,0-.118.17,1.1,1.1,0,0,0-.236.354l.013.026a1.77,1.77,0,0,0,.367-.5V6.4C58.76,6.386,58.747,6.386,58.734,6.373Zm6.2.039-.026.013.013.026.026-.013Zm-.079.1V6.53l.013.026a.028.028,0,0,0,.026-.026V6.517Zm-4.6.079c-.039.013-.066.026-.066.039a.028.028,0,0,0,.026.026h.052V6.622Zm-6.2.288c0-.052.013-.079.052-.092h.013v.052a.181.181,0,0,1-.066.118ZM60.11,6.9V6.91l.013.026.026-.013a.028.028,0,0,0-.026-.026Zm.5.288a.1.1,0,0,1,.039-.092v.052l-.013.066C60.608,7.211,60.608,7.211,60.608,7.185Zm3.866-.1c-.013,0-.026.026-.039.052a.048.048,0,0,0,.013.039c.039-.026.052-.052.052-.066s0-.013-.013-.026Zm-4.194.026q-.039.02-.039.039v.092a2.015,2.015,0,0,0-.039.21c0,.013.013.026.026.052a.3.3,0,0,0,.1-.249v-.1q-.02-.039-.039-.039Zm-1.022.026-.026.013a.887.887,0,0,1-.157.249.162.162,0,0,0,.026.039h.013a.956.956,0,0,1,.157-.249V7.159Zm5.347.092c-.013,0-.013.013-.026.026v.013c0,.026.013.026.026.026s.026,0,.026-.026V7.251C64.632,7.238,64.632,7.224,64.605,7.224Zm-.446.315c.079-.092.131-.144.17-.144.026.039.052.066.052.079s-.026.013-.026.052c0,.013.026.026.1.052v.052c0,.013-.052.052-.131.144h-.1c0-.026,0-.039.013-.052.052-.039.092-.066.092-.066V7.578l-.013-.026-.131.039a.028.028,0,0,1-.026-.026Zm-3.892-.013c-.026,0-.052.039-.066.118v.013a.028.028,0,0,0,.026.026h.013c.013,0,.026-.052.039-.144C60.267,7.539,60.267,7.539,60.267,7.526Zm-6.383.026h.026l.026.092a1.063,1.063,0,0,1-.066.183h-.013V7.814C53.858,7.762,53.872,7.67,53.885,7.552Zm3.932.3V7.827A.768.768,0,0,1,58,7.578h.013A.439.439,0,0,1,57.816,7.854Zm5.95-.144h.039c0,.013-.013.026-.013.039h-.026Zm-9.921.183q.039.02.039.039c0,.052-.013.079-.052.092A.4.4,0,0,0,53.845,7.893Zm3.866.013h.052a.313.313,0,0,1-.1.21h-.013V8.076A.187.187,0,0,0,57.712,7.906Zm1.022.013c-.013,0-.026.026-.052.079,0,.026.013.026.026.026.039-.013.052-.039.052-.052V7.945C58.76,7.932,58.747,7.932,58.734,7.919Zm-4.915.131h.013l.026.131a.828.828,0,0,1-.052.17h-.013l-.013-.066V8.247A.647.647,0,0,1,53.819,8.05Zm6.383.066a.048.048,0,0,0,.039-.013c0,.026,0,.039.013.052-.013,0-.013.013-.013.039h-.026L60.2,8.129ZM58.6,8.1v.026h.026V8.1Zm2.11.026c.026,0,.039.039.039.131a.666.666,0,0,1,.118.328c-.079,0-.131-.131-.157-.419Zm-3.172.092a.088.088,0,0,1,.052-.079h.013v.039c0,.013-.013.026-.066.052Zm5.308.223c.013-.052.118-.1.3-.157a.721.721,0,0,1,.249-.092h.013v.039c-.013,0-.052.013-.1.026a1.876,1.876,0,0,1-.406.21.1.1,0,0,0-.052-.013Zm-2.595-.21c.039,0,.1.052.2.17v.052q-.02.039-.039.039h-.039q-.039-.02-.118-.236Zm-1.822.118-.039.026a.028.028,0,0,0,.026.026h.013c.026,0,.026-.013.026-.026S58.459,8.352,58.432,8.352Zm5.02.039h.039V8.4h-.039Zm-.1.052h.026v.013h-.026Zm-5.059.144a.651.651,0,0,0-.21.249c.079,0,.144-.079.223-.249Zm-4.535.066c0-.013.013-.013.026-.026h.013v.026Zm7.156-.013h.026a.1.1,0,0,0,.026.052v.013l-.052-.013Zm-.262.013q.039.02.039.039a.057.057,0,0,1-.039.013h-.013V8.679ZM84.065-11.32a1.99,1.99,0,0,0-1.219.537,5.746,5.746,0,0,0-.6.865Q81.1-7.873,79.1-3.6,77.486.036,76.332,2.3h-.013l-.092-.079a2.687,2.687,0,0,0-1.9-.917,5.462,5.462,0,0,0-3.722,1.638,13.686,13.686,0,0,0-1.232,1.324,19.921,19.921,0,0,0-1.56,2.385,10.074,10.074,0,0,0-1.18,2.962,1.332,1.332,0,0,0,.8,1.18c.118.026.17.066.183.118a2.817,2.817,0,0,0,1.232.432h.1a1.971,1.971,0,0,0,.38-.039,4.412,4.412,0,0,0,2.005-.891,10.745,10.745,0,0,0,1.573-1.429A34.688,34.688,0,0,0,75.7,5.468h.013v.013l-.21.839a42.968,42.968,0,0,0-1.18,8.126v.2a3.418,3.418,0,0,0,.223,1.4,1.178,1.178,0,0,0-.039.157.874.874,0,0,0,.157.432c.328.511.655.773.97.773a.677.677,0,0,0,.524-.328,2.4,2.4,0,0,1-.537-1.769v-.262a25.218,25.218,0,0,1,.564-3.6c.3-1.206.5-2.045.616-2.529.5-1.835,1.009-3.565,1.56-5.19C79.858-.39,81.273-3.85,82.571-6.668A14.033,14.033,0,0,1,83.737-8.83a.91.91,0,0,1,.052.223,1.986,1.986,0,0,0-.118.341.013.013,0,0,1,.013.013c.1-.026.2-.144.288-.315.079-.2.249-.708.524-1.533a3.22,3.22,0,0,0,.236-.472v-.052a.451.451,0,0,0-.1-.236C84.471-11.163,84.275-11.32,84.065-11.32ZM82.977-9.6h.013v.013c-.066.157-.5,1.035-1.284,2.634-.144.341-.341.734-.577,1.18-.079.026-.118.066-.118.1a15.823,15.823,0,0,1-.931,2.28c-.524,1.193-.852,1.9-.97,2.1a1.3,1.3,0,0,1-.039-.223l.052-.052a.221.221,0,0,1-.066-.026,4.192,4.192,0,0,0-.315.328v-.013a4.93,4.93,0,0,0,.367-.695c.039-.183.092-.275.17-.275v-.1a.4.4,0,0,1,.066-.17.405.405,0,0,0,.1-.275q0-.059.2-.275a.223.223,0,0,0-.013-.092c.039-.079.052-.118.066-.118a.28.28,0,0,1,.157-.236v-.013L79.819-3.6a.272.272,0,0,1,.17-.236l-.013-.092v-.039l.092-.092v-.079l-.013-.026c0-.118.066-.21.21-.3v-.013a.4.4,0,0,0-.026-.131v-.026c0-.026.013-.039.013-.052a1.23,1.23,0,0,1,.21-.183V-4.9c-.039,0-.066-.013-.066-.052a.288.288,0,0,1,.079-.157v-.066a.028.028,0,0,0-.026-.026h-.013a10.818,10.818,0,0,0-.459,1.035c-.459,1.035-.917,2.058-1.389,3.067h-.013v-.013a5.727,5.727,0,0,0,.157-.6,7.884,7.884,0,0,1,.55-1.415q.295-.629.826-1.887l-.039-.131c.066-.052.1-.079.131-.079a1.748,1.748,0,0,0,.2-.419v-.039h-.039a.659.659,0,0,1-.144.21H80.2a1.7,1.7,0,0,1,.328-.668l.092.013h.013c.052-.079.459-.865,1.219-2.333.236-.5.38-.747.446-.76a1.564,1.564,0,0,1-.131.485q-.138.413-1.258,2.634a4.62,4.62,0,0,0-.406.826v.013h.026a.4.4,0,0,0,.118-.236,1.483,1.483,0,0,0,.21-.079l-.013-.157c.026-.17.052-.262.092-.262h.013L81-5.986V-6a.162.162,0,0,0-.026-.039v-.026c0-.066.052-.118.17-.131a.188.188,0,0,0-.026-.092.334.334,0,0,1,.21-.288c.026,0,.1-.118.249-.354-.052-.066-.079-.1-.079-.1a.636.636,0,0,0,.21-.157v-.052a.028.028,0,0,0-.026-.026h-.013v.026h-.013l-.013-.092c.013,0,.026-.013.066-.026l.026.013a.12.12,0,0,0,.066-.039C82.256-8.332,82.649-9.066,82.977-9.6Zm-1.14,1.927h.052v.013a.057.057,0,0,1-.039.013ZM80.6-6.34h.026q.039.02.039.039a.028.028,0,0,1-.026.026H80.6Zm-.472.891h.026a.1.1,0,0,0,.013.039c-.026,0-.026.013-.026.052h-.013Zm-.852,3.683c-.039.013-.052.039-.052.052v.039c0,.013,0,.026.026.026h.013c.013,0,.026-.026.052-.066Zm-.118.144q-.039.02-.039.039v.013h.013a.028.028,0,0,0,.026-.026Zm-.944.21h.013V-1.4a1.768,1.768,0,0,1-.354.747A5.088,5.088,0,0,1,77.7.029a.983.983,0,0,0-.223.419.323.323,0,0,1-.17.262V.724l.079.013V.75H77.3q-.1,0-.157.472c-.013-.013-.026-.026-.039-.026h-.013l-.079.066A5.27,5.27,0,0,1,77.2.737Zm1.035.629a.394.394,0,0,1,.1-.288c.013-.144.052-.223.118-.223h.013l-.2.524h-.039Zm-.288-.262a.182.182,0,0,1,.066-.131,1.222,1.222,0,0,1-.026.183C78.993-.993,78.98-1.006,78.967-1.045Zm-.393.039c.013,0,.026.026.039.066a.883.883,0,0,1-.131.249c-.092.236-.144.38-.183.459h-.026A1.9,1.9,0,0,1,78.573-1.006Zm.3.236c0-.066.039-.092.1-.092,0,.079-.039.118-.1.118Zm-.066.079h.013A.176.176,0,0,1,78.9-.6c0,.039-.052.066-.157.118A.627.627,0,0,0,78.809-.691Zm-.6,2.608c.419-1.127.695-1.822.813-2.084.052-.341.131-.511.223-.511,0,.026-.026.1-.052.236a6.97,6.97,0,0,0-.275.668c-.052.288-.092.432-.144.432-.039.249-.092.367-.118.367a.18.18,0,0,0-.1.17,1.126,1.126,0,0,1-.144.459v.131C78.39,1.812,78.338,1.851,78.207,1.917Zm.511-2.294a.1.1,0,0,0,.039.013.294.294,0,0,1-.1.2.562.562,0,0,0,.026.157V.029q0,.079-.118.157h-.013a.706.706,0,0,1-.013-.1A.679.679,0,0,1,78.718-.377ZM77.866.776A2.128,2.128,0,0,0,78.01.344a.878.878,0,0,1,.249-.459,2.426,2.426,0,0,0,.092.393,1.231,1.231,0,0,1-.144.315A.668.668,0,0,1,77.866.776Zm0-.59c.013,0,.013.013.013.026V.252a.048.048,0,0,1-.013.039L77.84.278A.141.141,0,0,1,77.866.187ZM77.8.868c.013-.026.026-.026.039-.026h.039l-.026.052A.077.077,0,0,1,77.8.881Zm.3.341c.026-.118.066-.183.118-.183h.013a.575.575,0,0,0-.118.2H78.1ZM77.053,3.1a7.96,7.96,0,0,1,.328-1.035,6.223,6.223,0,0,1,.367-.9V1.2a2.424,2.424,0,0,1-.066.367A4.286,4.286,0,0,1,77.053,3.1Zm-.511,3.119c.079-.066.118-.092.131-.092a4.527,4.527,0,0,0,.406-.957,21.883,21.883,0,0,1,.682-2.1c.17-.616.3-.917.393-.917a.272.272,0,0,1,.066.157v.052c-.157.17-.236.288-.236.341a.186.186,0,0,0,.026.079A.452.452,0,0,1,78,2.9c0,.026-.039.079-.131.183a.9.9,0,0,1,.026.236v.066a.141.141,0,0,1-.026.1,1.364,1.364,0,0,0-.157.367v.052l.013.118a.22.22,0,0,1-.2.131,1.4,1.4,0,0,1,.066.21v.039a4.967,4.967,0,0,1-.183.5.508.508,0,0,1-.275.419.536.536,0,0,1,.066.223,3.9,3.9,0,0,1-.288.865.378.378,0,0,0-.1.3l-.17.734a11.328,11.328,0,0,0-.341,1.3H76.28V8.561l-.013-.026c-.026,0-.039.013-.039.026-.052,0-.079.092-.1.3a4.829,4.829,0,0,0-.288,1.284h.026c.131-.367.2-.564.21-.577a.937.937,0,0,1,.1-.419h.013v.013c-.38,1.625-.629,2.752-.721,3.381,0,.223.013.38.013.485a.494.494,0,0,1-.21.38.706.706,0,0,0,.118.223c0,.026-.013.183-.013.459q0,.02-.079.039c-.039,0-.052.092-.052.275v.013l-.092-.013c-.013,0-.026.026-.039.066a1.294,1.294,0,0,1-.092.616h-.013v-.026c0-.144.013-.315.013-.472a8.941,8.941,0,0,1,.092-1.258v-.013c0-.013-.013-.052-.026-.1h-.013c-.026,0-.052.092-.092.3h-.013a2.264,2.264,0,0,1-.066-.406c.039-.485.1-.721.17-.721.026,0,.039.039.039.092v.026q0,.039-.079.393a.751.751,0,0,0,.052.183c.066,0,.131-.419.2-1.245l-.026-.092h-.026c0,.039-.013.066-.052.066l-.066-.013v-.013a.681.681,0,0,0,.039-.066,1.471,1.471,0,0,1,.092-.472c0-.275.039-.406.131-.406a.125.125,0,0,1,.079.092,2.084,2.084,0,0,0-.118.328v.079l.026.039c.013,0,.039-.026.092-.079a4.552,4.552,0,0,1,.1-.721l-.013-.131c.039-.118.079-.183.092-.183-.026-.118-.039-.17-.039-.183l.052-.446a.363.363,0,0,0-.039-.17,4.374,4.374,0,0,0,.157-.5V8.85a.874.874,0,0,1,.144-.511c.157-.052.236-.1.236-.17,0-.013-.013-.026-.013-.039-.039,0-.079.026-.131.079h-.013a.763.763,0,0,1-.039-.183.2.2,0,0,0,.092-.157V7.788l-.013-.026c-.039,0-.066,0-.066.026-.144,0-.223.131-.249.393a.25.25,0,0,1-.157-.092.328.328,0,0,0,.1-.249c0-.013,0-.013-.026-.026l-.092.013a.268.268,0,0,0,.026-.118c0-.013.039-.026.118-.052,0-.079-.026-.1-.079-.1a.534.534,0,0,1,.026-.092,1.283,1.283,0,0,1,.236.092H75.9l.079-.052c0-.092-.066-.144-.21-.157V7.277a1.332,1.332,0,0,1,.092-.3.291.291,0,0,1,.1-.262V6.661l-.013-.026c-.066,0-.1.052-.144.17H75.8V6.792a2.9,2.9,0,0,0,.092-.38.7.7,0,0,0,.262-.59c0-.013-.013-.026-.013-.039l-.092.066.039-.183H76.1l.052.039h.026a2.781,2.781,0,0,0,.236-.786A.013.013,0,0,1,76.4,4.9l-.092.052h-.013c0-.013.026-.144.092-.393H76.4v.013a1.483,1.483,0,0,1-.026.157h.013a.623.623,0,0,0,.223-.511,8.142,8.142,0,0,0,.5-.747c.026,0,.026.013.026.026a1.635,1.635,0,0,0,.275-.131h.013a1.98,1.98,0,0,1-.1.406l-.17-.118h-.013q-.2.157-.2.708c-.144.131-.223.236-.223.315a.221.221,0,0,0,.026.066q.236.157.236.236a.259.259,0,0,1-.079.183h-.013a.948.948,0,0,0-.131-.223c-.013,0-.026.039-.066.1a.415.415,0,0,0-.131.249l.026.131v.039a1.421,1.421,0,0,0-.236.472c0,.026.013.039.026.039h.039c.066,0,.118-.066.157-.183a.8.8,0,0,1,.275-.459l-.17.747h-.052a.083.083,0,0,0-.092.092v.013ZM74.76,2.559h.013c.092-.1.144-.157.17-.157a.209.209,0,0,1,.1.039c.2.17.288.315.288.432a2.1,2.1,0,0,0-.118.59v.052a1.713,1.713,0,0,1,.1.275v.144a4.261,4.261,0,0,1-.419.747A25.064,25.064,0,0,1,73.37,6.91C71.26,8.968,69.845,10,69.124,10h-.092a.387.387,0,0,1-.341-.406,6.291,6.291,0,0,1,.957-2.267A23.1,23.1,0,0,1,71.339,4.8a10.01,10.01,0,0,1,1.193-1.245,3.7,3.7,0,0,1,2.123-1.062S74.694,2.519,74.76,2.559Zm1.062,1.586a.586.586,0,0,1,.144-.3A.436.436,0,0,1,75.821,4.145Zm1.337-.079.066-.013v.013a.229.229,0,0,1-.092.183c0,.066.013.157.013.249v.013A.444.444,0,0,1,77,4.158V4.092c0-.013,0-.013.026-.026Zm-.223.642h.092v.066l-.066.013h-.013Zm-4.05,3.185a.252.252,0,0,1,.157-.236A13.549,13.549,0,0,0,73.908,6.6a3.629,3.629,0,0,0,.6-.734,1.574,1.574,0,0,1,.419-.524h.013a.351.351,0,0,1-.026.131,3.83,3.83,0,0,0-.223.446v.2a.313.313,0,0,0-.157-.052l-.079.144a3.8,3.8,0,0,0-.681.878.072.072,0,0,0,.052.079h.013l.052-.039c.052-.118.118-.183.183-.183a3.548,3.548,0,0,1,.183-.38q.177,0,.354-.393c.013,0,.026,0,.026.026v.052c0,.236-.17.472-.5.695,0,.092-.079.21-.223.367l-.223.144a.994.994,0,0,1-.406.485,5.825,5.825,0,0,1-.944,1.022.625.625,0,0,0-.341.262,1.04,1.04,0,0,1-.59.328c0-.079.079-.131.249-.183a1.237,1.237,0,0,1,.315-.249c.013-.2.079-.288.2-.288a2.143,2.143,0,0,1,.275-.275.3.3,0,0,0,.262-.144.048.048,0,0,0-.013-.039.228.228,0,0,1,.079-.144c.1,0,.236-.1.367-.328a1.344,1.344,0,0,0,.393-.3V7.578c-.013-.039-.039-.066-.066-.066V7.487q.315-.216.315-.275-.059-.079-.079-.079h-.026A4.168,4.168,0,0,1,72.886,7.893ZM68.534,7.5a1.367,1.367,0,0,1,.354-.6,1.387,1.387,0,0,1,.275-.5,2.914,2.914,0,0,1,.5-.682c.2-.236.3-.354.341-.354h.013c-.262.537-.537,1.075-.8,1.625a1.5,1.5,0,0,1-.459.249C68.652,7.408,68.574,7.5,68.534,7.5Zm7.614-2.045h.013v.026h-.013ZM68.665,6.4a.394.394,0,0,1,.223-.328.474.474,0,0,1-.21.328Zm8.2-.249c-.039.026-.066.052-.066.066v.013c.026.039.039.052.052.052s.026-.013.052-.052V6.2Zm-.341.131-.131.1.079.157a.539.539,0,0,0-.092.157.117.117,0,0,0,.066.1.673.673,0,0,0,.183-.472V6.307c0-.013-.013-.013-.026-.026Zm-8.073.446c.026-.052.052-.079.066-.079h.013a.256.256,0,0,0,.013.092c-.013,0-.026.026-.052.066Q68.456,6.805,68.456,6.726Zm8.23.21c-.066,0-.092.026-.092.092v.013l.013.013c.066,0,.092-.039.092-.1V6.936ZM67.158,9.846a3.462,3.462,0,0,1,.328-1.166,4.063,4.063,0,0,1,.6-1.324q.118-.236.157-.236h.026A9.641,9.641,0,0,0,67.8,8.1a3.449,3.449,0,0,1-.406,1.035.934.934,0,0,1-.144.432.4.4,0,0,0,.026.144C67.276,9.754,67.237,9.806,67.158,9.846Zm9.213-2.739c-.066,0-.144.092-.223.275a1.825,1.825,0,0,0,.092.275h.013a.8.8,0,0,0,.157-.432V7.2A.174.174,0,0,0,76.372,7.106Zm.1.367-.052.039a.11.11,0,0,0,.052.092c.013,0,.039-.026.052-.079C76.516,7.487,76.49,7.473,76.477,7.473ZM68.4,7.657c0-.066.026-.092.1-.092,0,.079-.039.131-.092.131H68.4Zm7.968.21a.354.354,0,0,0-.039.1v.1h.013c.079-.052.1-.092.1-.1a.355.355,0,0,0-.039-.1Zm-4.115.616q.02-.138.55-.55v.013a1.62,1.62,0,0,1-.537.537Zm-4.1.341V8.81a1.218,1.218,0,0,1,.262-.5v.026C68.312,8.666,68.22,8.823,68.154,8.823Zm7.3-.039a.157.157,0,0,0,.1-.052c-.013.131-.026.223-.026.288H75.52a.489.489,0,0,1-.066-.183Zm.813-.013h.013V8.8h-.013Zm-.1.144.1-.1-.052.275H76.2A.3.3,0,0,0,76.162,8.915Zm-8.191.2h.013v.013c-.092.38-.17.708-.21,1-.013,0-.052-.052-.131-.131C67.722,9.819,67.827,9.518,67.971,9.112Zm7.431.066c.013,0,.026-.013.052-.013l.026.013.026-.013a8.94,8.94,0,0,1-.21.891c0,.131-.039.2-.131.2q-.157.2-.2.2c.157-.76.236-1.14.236-1.166.092.118.144.17.183.17s.039,0,.039-.026V9.413s-.013-.039-.026-.092Zm-4.6.813a1.48,1.48,0,0,1,.511-.354v.013l-.013.026a1.219,1.219,0,0,1-.485.315Zm4.666.367h.013a.7.7,0,0,0,.013.183h-.013a.341.341,0,0,1-.039-.092Zm-.511.131h.013v.118a4.178,4.178,0,0,1-.092.524h-.026Zm.079.144a.8.8,0,0,0,.079.066s-.026.079-.066.21l-.066-.026A1.325,1.325,0,0,0,75.035,10.632Zm.328.013h.026a.657.657,0,0,1,.026.157h-.039a.221.221,0,0,0-.026-.066Zm-.786,3.774c0-.275,0-.485.013-.616a11.472,11.472,0,0,1,.183-1.94c.052-.38.1-.564.157-.564h.013a4.48,4.48,0,0,1-.052.537c-.118.9-.183,1.389-.183,1.442,0,.118,0,.446.026,1a3.379,3.379,0,0,1-.052.511.405.405,0,0,1-.1-.026Zm.459-2.176a1.35,1.35,0,0,1,.013-.17.182.182,0,0,1,.1-.183,1.364,1.364,0,0,1,.026.2v.052c0,.013-.013.052-.026.131H75.14A.308.308,0,0,1,75.035,12.244Zm-.157,1.743h.013l.026.1v.013a.291.291,0,0,1-.066-.052A.132.132,0,0,0,74.878,13.987Zm-.3.944H74.6l.092.066c-.026.183-.052.328-.079.446H74.6C74.6,15.363,74.589,15.193,74.576,14.931Zm.419.223c.013,0,.026.026.052.066v.013l-.013.092h-.026a.2.2,0,0,0-.039-.079A.226.226,0,0,0,75,15.153ZM90.681.973A.79.79,0,0,0,90,1.392a.929.929,0,0,0-.288.721v.21a.594.594,0,0,1-.039.21,2.135,2.135,0,0,0-.223.5,9.253,9.253,0,0,1-.721,1.088,1.819,1.819,0,0,1-.354.642,2,2,0,0,1-.393.629A11.007,11.007,0,0,1,86.7,7.041a8.081,8.081,0,0,1-.734.865,2.556,2.556,0,0,1-.275.406,2.689,2.689,0,0,0-.708.6,2.927,2.927,0,0,1-.917.564,2.634,2.634,0,0,1-.432.236H83.6c-.092,0-.144-.288-.157-.852a11.7,11.7,0,0,1,.328-1.848A27.512,27.512,0,0,1,85.2,2.637a4.865,4.865,0,0,0,.5-1.219V1.392c0-.157-.052-.236-.157-.262H85.36a1.713,1.713,0,0,0-.275-.1,1.529,1.529,0,0,0-.432.1.721.721,0,0,0-.367.393,1.845,1.845,0,0,0-.367.6,24.057,24.057,0,0,0-1.4,3.145,14.458,14.458,0,0,0-.852,3.722v.131a1.564,1.564,0,0,0,.262.931,2.7,2.7,0,0,0,1.848.6,1.761,1.761,0,0,0,.249-.013,1.867,1.867,0,0,0,.944-.419,9.7,9.7,0,0,0,1.966-1.691,5.406,5.406,0,0,0,.734-.9L87.653,7.6l-.079.026c-.131.17-.21.262-.249.262a.867.867,0,0,1-.144-.013c-.052,0-.092.052-.118.131v.013c0,.026.039.039.092.052V8.1c0,.066-.039.1-.131.131a.209.209,0,0,1-.1-.039h-.013a2.953,2.953,0,0,1-.315.275,1.641,1.641,0,0,0-.511.406,1.093,1.093,0,0,1-.511.341h-.013a.779.779,0,0,1,.052-.1c.157-.144.236-.236.236-.288h-.039l-.052.039H85.7V8.823c0-.013.039-.039.1-.092.157-.013.249-.066.249-.144V8.574l-.039-.066a5.145,5.145,0,0,0,.852-.944c.118-.052.236-.249.354-.577.236-.275.367-.432.367-.5a.793.793,0,0,0,.157-.236c.131-.183.223-.262.288-.262.026-.2.052-.3.1-.3.039-.039.236-.328.577-.865.249-.419.419-.629.524-.629l.3-.472c-.079.249-.183.55-.328.9a14.839,14.839,0,0,1-.577,1.533,4.165,4.165,0,0,0-.223.668c0,.013.039.039.131.052l-.039.157-.459.983a11.137,11.137,0,0,1-.695,1.52,2.536,2.536,0,0,1-.328.668,5.875,5.875,0,0,1-.262.577A11.634,11.634,0,0,1,86,12.244a5.313,5.313,0,0,1-.446.852.487.487,0,0,1-.236.419,5.514,5.514,0,0,1-.485.708.625.625,0,0,1-.341.223,2.256,2.256,0,0,0-.419.564c-.6.6-.917.917-.917.944a.194.194,0,0,0,.092-.013,1.446,1.446,0,0,1,.393-.315h.013a4.282,4.282,0,0,1-.511.655c0,.079-.131.262-.419.537-.157.223-.275.328-.354.328h-.013c.092-.223.157-.341.21-.341a.763.763,0,0,1,.236-.419c.236-.157.341-.288.341-.393v-.013h-.013a1.112,1.112,0,0,1-.328.236c-.17.17-.262.262-.288.262a7.8,7.8,0,0,0-.734.878,2.2,2.2,0,0,0-.682,1.271,1.012,1.012,0,0,0,.026.2.833.833,0,0,0,.813.6,1.3,1.3,0,0,0,1.114-.76c1.009-1.245,1.638-2.084,1.9-2.49a4.171,4.171,0,0,1,.511-.826c.826-.852,1.232-1.284,1.232-1.311A10.516,10.516,0,0,0,87.719,13v-.026a2.623,2.623,0,0,1-.341.262h-.026a8.315,8.315,0,0,1,.59-.6c.275-.3.446-.446.511-.446v-.026l-.013-.026c.013-.013.3-.341.852-1,.354-.367.537-.55.537-.564a25.423,25.423,0,0,1,2.1-1.966c.236-.183.917-.721,2.045-1.586V7.015a1.63,1.63,0,0,0-.328.092h-.013a1.721,1.721,0,0,1,.315-.183c.223-.079.328-.144.328-.17s-.026-.013-.079-.026q.059-.079.079-.079h.118v.026c.039-.013.079-.052.131-.144V6.5h-.026a.227.227,0,0,0-.092.013c-.118,0-.183.026-.183.092a.452.452,0,0,1-.157-.013.464.464,0,0,0-.013.079c0,.039-.052.079-.17.1a2.943,2.943,0,0,1-.773.459h-.013l.039-.131-.013-.013c-.157.039-.236.092-.236.183l.039.131a6.314,6.314,0,0,1-.721.511,2.819,2.819,0,0,1-.6.472,4.517,4.517,0,0,1-.524.459A11.245,11.245,0,0,0,89.842,10a7.579,7.579,0,0,0-.76.786,4.469,4.469,0,0,0-.708.839c-.066.039-.092.066-.092.079-1.18,1.4-1.782,2.123-1.8,2.162h-.013v-.013a1.837,1.837,0,0,0,.118-.3,9.069,9.069,0,0,1,1.219-1.546c.21-.183.315-.3.315-.341a1.2,1.2,0,0,0,.288-.393c.092-.066.144-.1.144-.144a.1.1,0,0,0-.013-.039,2.141,2.141,0,0,0,.249-.288c.223-.2.341-.328.341-.38a1.276,1.276,0,0,0,.393-.432,5.138,5.138,0,0,0,.76-.773,1.815,1.815,0,0,0,.341-.3c.2-.157.3-.275.3-.328a1.845,1.845,0,0,0,.367-.3,6.546,6.546,0,0,0,.642-.524c.2-.131.433-.3.708-.524a6.783,6.783,0,0,0,.734-.446l.354-.144c0-.118.1-.2.315-.249l-.026-.039a1.425,1.425,0,0,0-.485.183,7.839,7.839,0,0,1-.917.564,5.875,5.875,0,0,1-.747.537c-.079,0-.131.052-.157.17a.2.2,0,0,0-.183.118,1.091,1.091,0,0,0-.275.183l-.092-.092a.134.134,0,0,0-.066.1V8.26a.448.448,0,0,1-.341.2.013.013,0,0,0-.013-.013.782.782,0,0,1-.2.118l.013.118v.039c0,.026-.013.026-.026.026h-.079l-.026-.013.013-.079V8.64a.765.765,0,0,0-.131.1c-.026.157-.066.236-.131.236-.131,0-.315.157-.564.485A4.945,4.945,0,0,0,88.4,10.75a.35.35,0,0,1-.183.144,6.62,6.62,0,0,0-.708.97H87.5v-.039a3.094,3.094,0,0,1,.38-.76,4.557,4.557,0,0,1,.564-.668,5.72,5.72,0,0,0,.629-.695c.052,0,.249-.21.6-.616-.066,0-.2.092-.433.275a7.677,7.677,0,0,0-1.088,1.075h-.013v-.013c.393-.8.629-1.271.721-1.415.21-.564.511-1.271.917-2.11a11.947,11.947,0,0,0,.616-1.52,15.523,15.523,0,0,0,1.232-3.67l-.026-.2A1.49,1.49,0,0,0,90.681.973Zm-.066,2.438a.3.3,0,0,1,.092-.21.646.646,0,0,1-.066.236h-.026Zm-5.976.066h.026c0,.013,0,.026-.026.026Zm2.045,8.3a4.065,4.065,0,0,1,.59-1.219,4.03,4.03,0,0,1,.485-.983c.223-.537.472-1.1.747-1.7a19.319,19.319,0,0,1,1.088-2.32c.118-.026.288-.354.537-1,.249-.668.406-1.009.5-1.009a6.258,6.258,0,0,0-.249.747L89.763,5.9q-.216.413-.629,1.415a5.354,5.354,0,0,0-.38.891c.013.013.013.052.026.118-.066,0-.131.066-.183.223.052.052.079.079.092.079s-.039.039-.131.066l.052.052v.013l-.013.066-.092-.066a1.05,1.05,0,0,0-.144.3l.092.275v.013h-.066c-.013,0-.066.052-.144.17A.724.724,0,0,0,88.23,9.4c-.092.066-.131.1-.131.131a.54.54,0,0,1,.052.2c0,.066-.026.092-.066.092V9.7h-.013c-.013,0-.039.026-.066.079l.066.052c-.026.039-.039.066-.052.066h-.013V9.872h-.039V9.9a3.117,3.117,0,0,1-.341.629.239.239,0,0,1,.079.131c-.013,0-.026,0-.052.026q-.02-.039-.039-.039h-.026c-.026,0-.039.026-.052.092,0,.039.039.052.118.066a1.528,1.528,0,0,1-.223.38V11.13a1.367,1.367,0,0,0,.1-.262l-.013-.026a.5.5,0,0,0-.2.328v.039a.209.209,0,0,0,.039.1c0,.052-.039.1-.1.17v-.1h-.026a2.633,2.633,0,0,0-.419.8.8.8,0,0,0-.17.3v.013h.013c.066-.039.1-.066.1-.066l.026.013c0,.131-.066.2-.17.2,0-.013.013-.052.026-.118h-.013l-.052.052q-.2.354-.275.354c-.013,0-.013-.026-.026-.092H86.2q-.039.02-.039.039V12.9c0,.013.052.026.131.039,0,.066-.013.1-.066.1a1.22,1.22,0,0,1-.341.682,1.355,1.355,0,0,1-.183.393c-.092.039-.144.079-.144.131v.1l.013.026a.7.7,0,0,0-.21.288c0,.118-.183.341-.524.668-.013.1-.039.17-.1.17,0-.026-.013-.052-.066-.052l-.144.1a.535.535,0,0,1,.157-.328,1.848,1.848,0,0,1,.315-.485q.157-.02.157-.039a.207.207,0,0,0-.052-.013v-.039h.039a.1.1,0,0,0,.013.039c.066,0,.1-.052.157-.131,0-.026-.013-.052-.013-.1a.355.355,0,0,1,.039-.1c.17-.118.262-.21.262-.288,0-.026-.013-.039-.052-.052s-.092.039-.17.1H85.36a1.036,1.036,0,0,1,.315-.485c.17,0,.3-.131.38-.38-.118,0-.17-.013-.17-.026a.573.573,0,0,1,.21-.354,2.506,2.506,0,0,1,.511-.944v.013a.4.4,0,0,1-.013.118l.013.026c.157-.079.236-.17.236-.3v-.013l-.013-.026c-.066.013-.118.026-.131.026ZM84.39,4c0-.052.013-.079.066-.092h.013v.026c-.052.066-.066.092-.066.1H84.39ZM83.341,7.015a.364.364,0,0,1,.092-.288,4.2,4.2,0,0,1,.17-.734A.256.256,0,0,0,83.7,5.77a.591.591,0,0,1,.118-.3c.013-.157.039-.223.052-.223a1.289,1.289,0,0,1,.079-.262c.052-.157.1-.236.131-.236a.822.822,0,0,1,.21-.537A.256.256,0,0,0,84.3,4.3c-.066.21-.1.328-.1.341a.6.6,0,0,0-.1.3h-.013c-.013,0-.026,0-.026-.026a.028.028,0,0,0-.026.026v.013c0,.013.013.026.039.026a.643.643,0,0,1-.039.157.538.538,0,0,0-.092.223,2.7,2.7,0,0,0-.183.6,1.267,1.267,0,0,0-.157.537,1.849,1.849,0,0,0-.17.616l.013.026c-.026,0-.039.039-.066.1-.013.262-.039.393-.066.393a.048.048,0,0,0-.013-.039c.013-.079.026-.131.026-.157s0-.092-.013-.236a.209.209,0,0,1,.039-.1Zm6.592-2.385c0-.013,0-.026.026-.026v.066h-.026Zm-.944.118v.026H89V4.747ZM87.837,5.7c.026-.026.039-.052.066-.052a1.95,1.95,0,0,1,.38-.485h.026c-.026.066-.052.1-.066.1-.131.328-.249.485-.354.485H87.85A.079.079,0,0,0,87.837,5.7Zm6.527.131a4.149,4.149,0,0,0-.931.315,4.71,4.71,0,0,0-.826.55.028.028,0,0,0,.026.026H92.7c.066,0,.17-.079.354-.223l.432-.21a3.24,3.24,0,0,1,.6-.236c.315-.066.485-.1.485-.144V5.9c0-.039-.066-.052-.183-.066Zm-11.153.5a.738.738,0,0,1,.157-.367v.092a2.548,2.548,0,0,1-.118.3Zm5.649-.328c.013,0,.026,0,.026.026v.039a.048.048,0,0,0-.039.013V6.032Zm-.734.052a.415.415,0,0,0-.157.236c0,.026.013.039.026.039h.013c.079,0,.131-.066.144-.2A.186.186,0,0,0,88.125,6.058Zm1.284.039c-.013,0-.026.026-.052.066l.039.066c.039-.026.052-.039.052-.052V6.137Q89.429,6.1,89.409,6.1Zm-1.009.2V6.32h.026V6.294Zm-.472.052a.028.028,0,0,0-.026.026v.013h.013c.026,0,.026,0,.026-.026V6.346Zm-4.771.144c.026-.066.052-.1.066-.1h.013v.039c-.013.079-.039.118-.066.118A.079.079,0,0,0,83.158,6.491ZM88.675,6.4h.013c.013,0,.026.026.039.052v.026C88.7,6.477,88.675,6.451,88.675,6.4Zm.616-.013a.257.257,0,0,0-.131.223.406.406,0,0,0-.1.3h.026c0-.118.026-.17.079-.17.079,0,.144-.118.157-.354Zm4.731.039-.013.026V6.5a.028.028,0,0,0,.026.026h.039c.039-.013.052-.039.052-.052S94.1,6.451,94.023,6.425Zm-6.16.026c-.013,0-.013.013-.026.026v.013h.026Zm.55.118c-.026,0-.026.013-.026.026v.052H88.4c.026-.026.052-.039.052-.052V6.569Zm-.066.1c-.026,0-.039.026-.052.079,0,.013,0,.026.026.026s.039-.026.039-.039V6.7Zm-.682.026c-.013,0-.026.013-.039.052,0,.013.013.026.013.039h.039c0-.026,0-.039.013-.039V6.7Zm6.081,0-.052.052c0,.013.013.026.052.039s.039-.013.066-.052V6.726a.028.028,0,0,0-.026-.026Zm-1.219.026c-.066,0-.144.052-.223.183l.013.026c.144-.013.223-.066.223-.157V6.753Zm1.389.1c.026,0,.039-.013.066-.026v.026a.1.1,0,0,0-.039.013h-.026Zm-5.688.013-.066.013a2.459,2.459,0,0,1-.236.315q-.236.275-.236.354c0,.026,0,.039.013.039a.471.471,0,0,0,.223-.249,1.32,1.32,0,0,0,.315-.446Zm-.695.052c-.013,0-.039.026-.066.079v.013l.013.026c.039-.013.066-.026.066-.039V6.9Zm5.871,0-.052.039c.026.026.039.052.052.052h.026c.013,0,.026-.026.039-.052q-.02-.039-.039-.039Zm-5.465.052v.013h.026V6.949Zm.432.013a.1.1,0,0,0-.079.026c-.3.655-.446,1.009-.459,1.048v.052l.013.066h.026a1.875,1.875,0,0,1,.315-.537.186.186,0,0,0-.026-.079V7.513a2.217,2.217,0,0,0,.223-.472V6.989Zm3.814.013h-.052a7.324,7.324,0,0,0-.931.668,12.057,12.057,0,0,0-1.468,1.363l.013.026a.244.244,0,0,0,.144-.052c.183-.262.315-.393.38-.393a2.054,2.054,0,0,1,.524-.432,2.164,2.164,0,0,1,.354-.288.967.967,0,0,1,.079-.144,1.273,1.273,0,0,0,.59-.432A3.466,3.466,0,0,0,92.214,7C92.214,6.975,92.2,6.975,92.188,6.975Zm-9.2.38c0-.17.026-.262.052-.262l.013.092V7.2a.639.639,0,0,1-.052.17h-.013Zm9.947-.039q.02-.039.039-.039h.066V7.3q-.02.039-.039.039h-.066Zm-9.947.1H83l.013.066V7.5q-.02.039-.039.039V7.487Zm5.806.079c-.039.013-.052.052-.052.118v.026h.026c.066-.052.1-.079.1-.1s-.013-.039-.026-.039Zm-5.832.066h.013l.013.131a1.03,1.03,0,0,1-.052.157h-.013v-.17A.547.547,0,0,1,82.961,7.565Zm6.265.026c.013,0,.013.013.026.052V7.67a.14.14,0,0,1-.039-.066Zm-6.33.537c0-.013,0-.026.026-.026h.013v.013l-.013.026Zm4.8.223c-.039.039-.066.066-.066.079v.013a.174.174,0,0,0,.039.092c.039-.026.066-.039.079-.079C87.745,8.378,87.719,8.352,87.693,8.352Zm3.866.236c.026,0,.066-.039.1-.092H91.7c-.052.079-.092.118-.131.118h-.013Zm-3.945,0c-.1.079-.144.131-.144.144,0,.039.026.066.092.066a.1.1,0,0,0,.066-.1v-.1Zm1.009.3c0-.013.026-.039.079-.066h.013V8.9c0,.013-.026.039-.079.066h-.013Zm-1.114-.013c-.092,0-.157.092-.2.288a.088.088,0,0,0,.052.092.471.471,0,0,0,.17-.3A.516.516,0,0,0,87.509,8.876Zm.8.341c-.052.013-.066.052-.066.1v.052h.013a.1.1,0,0,0,.066-.092V9.217Zm-1.048.144-.066.013a.443.443,0,0,1-.1.249,2.984,2.984,0,0,0-.367.878.013.013,0,0,1,.013.013.392.392,0,0,0,.1-.052.965.965,0,0,1,.1-.315c.066-.013.118-.131.183-.354a1.335,1.335,0,0,0,.17-.367V9.361Zm1.14.066h.026v.066h-.039Zm-.432.55h.013q.039.02.039.039c0,.013-.013.026-.052.039Zm-1.429.9q-.079.02-.079.039v.013a.12.12,0,0,1,.066.039h.026v-.066Zm2.307.026h-.013a.452.452,0,0,0-.262.183V11.1a.365.365,0,0,0,.288-.183Zm-2.438.131c-.013,0-.039.039-.066.092a.079.079,0,0,0,.039.079c.039-.026.066-.052.066-.066V11.13A.174.174,0,0,0,86.408,11.038Zm-.144.315a.134.134,0,0,0-.066.079.085.085,0,0,1,.026.066.1.1,0,0,0,.1-.066Zm.957.183h.013l-.066.1h-.013Zm-1.075.013c-.039.013-.066.066-.092.157a.367.367,0,0,0-.118.249l.013.026a.353.353,0,0,0,.249-.328.706.706,0,0,0-.013-.1Zm-.288.524a.228.228,0,0,1-.039.092c.026.039.039.052.052.052h.013c.013,0,.026-.026.052-.066a.089.089,0,0,0-.052-.079Zm.983.183h.013c.013,0,.026.013.039.052-.013,0-.013.013-.013.039a.1.1,0,0,0-.039-.013Zm-1.1.052a.27.27,0,0,0-.1.2l.013.026c.131-.039.2-.092.2-.144A.1.1,0,0,0,85.74,12.31Zm1.848.052q-.039.02-.039.039v.013c0,.013,0,.026.026.026a.028.028,0,0,0,.026-.026v-.026Zm-2.071.432c-.1.013-.157.039-.157.092-.066.183-.144.275-.223.3-.052.17-.092.249-.131.249-.17.367-.275.55-.341.577a.9.9,0,0,1-.092.315v.026c.144,0,.249-.131.315-.38a2.545,2.545,0,0,0,.3-.485.174.174,0,0,0-.039-.092v-.013a.984.984,0,0,0,.38-.59Zm1.52.747c.079-.079.118-.131.131-.131,0,.066-.039.1-.118.131Zm-1.691.144a.162.162,0,0,1,.026-.039c.026,0,.026.013.026.026s-.013.026-.052.052Zm.721-.013a.1.1,0,0,0,.039-.013h.013a.228.228,0,0,0-.039.092h-.013Zm.734.092c.039-.066.079-.092.092-.092h.013a.189.189,0,0,1-.079.092Zm-1.153.039c-.013,0-.026,0-.026.026V13.9h.026a.221.221,0,0,1,.026-.066A.028.028,0,0,0,85.648,13.8Zm.262.2c0-.013.013-.026.052-.039a.1.1,0,0,0,.013.039l-.066.026Zm.472.118a.575.575,0,0,1,.183-.144c-.039.092-.092.144-.157.144Zm-.629.118c0-.052.026-.092.092-.131l-.066.183h-.026Zm.5.039a.07.07,0,0,1,.079-.079h.013C86.343,14.21,86.316,14.236,86.251,14.275Zm-2.058.878a.456.456,0,0,1,.144-.17c.092-.2.183-.3.262-.328,0,.079-.079.21-.249.38-.079.131-.118.2-.131.2a.028.028,0,0,1-.026-.026Zm.695-.079c-.039.026-.052.039-.052.052v.013l.026.039q.039-.02.039-.039V15.1Zm-.839.367h.026v.066h-.039ZM83.027,16.91c.1-.249.2-.38.275-.38v.013a.3.3,0,0,1-.144.236C83.132,16.857,83.092,16.91,83.027,16.91Zm-.367.354c0-.052.092-.157.275-.3,0,.013-.026.066-.052.17-.131.079-.2.131-.2.183h-.013Z" transform="translate(33.115 11.42)" fill="#3963ac" stroke="#3963ac" stroke-width="0.2"/>
</svg>
