<?xml version="1.0" standalone="no"?>
<!DOCTYPE svg PUBLIC "-//W3C//DTD SVG 20010904//EN"
 "http://www.w3.org/TR/2001/REC-SVG-20010904/DTD/svg10.dtd">
<svg version="1.0" xmlns="http://www.w3.org/2000/svg"
 width="630.000000pt" height="630.000000pt" viewBox="0 0 630.000000 630.000000"
 preserveAspectRatio="xMidYMid meet">
<metadata>
Created by potrace 1.14, written by Peter Selinger 2001-2017
</metadata>
<g transform="translate(0.000000,630.000000) scale(0.100000,-0.100000)"
fill="#000000" stroke="none">
<path d="M1240 4520 c0 -60 3 -70 18 -70 33 0 385 -40 389 -44 2 -2 1 -614 -3
-1360 l-7 -1356 -21 -5 c-20 -4 -393 -45 -408 -45 -5 0 -8 -31 -8 -70 l0 -70
545 0 545 0 0 68 0 69 -227 27 c-125 15 -230 29 -234 31 -3 3 -9 548 -13 1212
-3 664 -9 1226 -12 1248 -5 39 -4 39 9 15 8 -14 247 -620 532 -1348 l518
-1323 95 3 95 3 503 1330 c277 732 508 1339 514 1350 7 14 9 -22 5 -125 -2
-80 -8 -650 -11 -1267 -4 -618 -10 -1123 -13 -1123 -3 0 -80 -7 -171 -15 -91
-8 -175 -15 -187 -15 -22 0 -23 -4 -23 -70 l0 -70 695 0 695 0 0 64 c0 36 -4
67 -8 70 -5 3 -94 13 -199 23 l-190 17 -6 240 c-9 310 -9 1849 0 2218 l6 285
81 7 c45 4 132 12 194 18 l112 11 0 68 0 69 -499 0 -500 0 -19 -52 c-184 -484
-865 -2255 -870 -2260 -4 -4 -208 513 -452 1150 l-445 1157 -513 3 -512 2 0
-70z"/>
</g>
</svg>
